<svg xmlns="http://www.w3.org/2000/svg" viewBox="0 0 448.99 573.93"><defs><style>.cls-1{isolation:isolate;}.cls-2{fill:#9fcef0;}.cls-3{fill:#e6e0d6;}.cls-4{fill:#f1f2f2;}.cls-5{fill:#f9b041;}.cls-11,.cls-6{fill:#a97d50;}.cls-7{fill:#e6d0a1;}.cls-10,.cls-8{fill:#f7f2e5;mix-blend-mode:soft-light;}.cls-9{fill:#010101;}.cls-10{opacity:0.5;}.cls-11{opacity:0.35;mix-blend-mode:multiply;}.cls-12{fill:#bf1818;}.cls-13{fill:#fff;}</style></defs><title>bull_07</title><g class="cls-1"><g id="Layer_1" data-name="Layer 1"><path class="cls-2" d="M422,135.63c-24.22-9.38-54.55-7.95-77.81,2.8C317,151,302.54,167.61,288.33,193.9c-25.89,47.89-45.8,48.48-94.56,67s-81.84,32.44-102.36,91.29c-13.85,39.71,5.14,86.51,43,98,28.24,8.6,53,2.39,80.23,15.88,26.23,13,48,22.25,78.21,20.64,26.48-1.41,37.65-19.23,61.17-27,28.85-9.54,61.37,1,89.65,5.53,42.51,6.83,74.16,2.21,85.92-44.59,8-31.81,10.67-75.78-6.37-104.62-15.68-26.54-53.2-41.4-64.3-69.16-5.91-14.79,1-27.08,2.54-42.1C466.22,159.77,438,141.85,422,135.63Z" transform="translate(-86.89 -129.4)"/><path class="cls-2" d="M479.44,210.36c-38.1,10.29,7.07,90.43,37.53,46.75C530.85,237.21,504.34,203.63,479.44,210.36Z" transform="translate(-86.89 -129.4)"/><path class="cls-2" d="M420.27,417.52c-17.07-7-37.48-7.74-53.49,1.39C354.27,426,345.56,438.6,333,445.71c-11.58,6.59-25.59,8-37,14.89s-19.13,23.67-10,33.34c2.75,2.9,6.54,4.58,10.35,5.81,24.63,8,46,5.35,71.69,9,12.74,1.81,11,1.4,22.76,6.6C427.53,531.55,529.09,461.85,420.27,417.52Z" transform="translate(-86.89 -129.4)"/><path class="cls-3" d="M219.18,370.58c9.67-2.73,17.44-13.05,20.54-22.25,1.15-3.42,1.7-7.3.42-10.77-1-2.75-4.52-3.33-6.92-4.65A35.93,35.93,0,0,1,219.1,319.5c-3.76-6.55-4.69-14-4.14-21.47.53-7.12,3.55-15,1.43-22a48.27,48.27,0,0,0-2.76,5.23c-.28-3.27.49-6.53.3-9.8-1.24,6.42-5.71,11.43-8.46,17.2,1.55-6.17,3.26-12.4,3.27-18.81-1.27,3.13-2.58,6.18-3.8,9.35q-1.69,4.4-3.74,8.66c-2.49,5.2-5.41,10.18-8.13,15.26-4.86,9-9,18.63-8.78,29.08a43.09,43.09,0,0,0,9.39,25.93C199.63,365.59,209,373.44,219.18,370.58Zm-28.65-22.45c-4.11-9.05-4.24-19.27-1.69-28.79-1.61,9.93-1.23,20.28,3.37,29.4a41.06,41.06,0,0,0,20.11,18.79,11.38,11.38,0,0,0,2.72.94c-4.88-.35-10.1-3.9-13.79-6.83A37,37,0,0,1,190.53,348.13Z" transform="translate(-86.89 -129.4)"/><path class="cls-4" d="M235.06,407.3c4.08,2.47,7.08-3.69,5.66-7C238.12,394.31,229.91,404.17,235.06,407.3Z" transform="translate(-86.89 -129.4)"/><path class="cls-4" d="M237.54,419.43a29.48,29.48,0,0,0,4.7-.28c1.28-.25,2.54-1.75,3.35-2.68a20.35,20.35,0,0,0,4.34-9c1.54-6.74-.63-13.32-6.54-17.17s-14.62-3.86-19.44,1.87c-3.86,4.6-6.09,11.9-3.32,17.57C223.48,415.59,231.28,419.4,237.54,419.43Zm-8.3-16.87c.55-4.53,5.3-9.2,10.11-7.73,4.47,1.37,8.11,5.45,7.33,10.36a8.3,8.3,0,0,1-10.24,6.56C231.27,411.9,228.69,407.17,229.24,402.56Z" transform="translate(-86.89 -129.4)"/><path class="cls-5" d="M178.47,388.28c-.94.42-.75,1.87-.79,2.21-.15,1.47-.07,2.6-1,3.87a7.33,7.33,0,0,1-3.64,2.57c-2.45.85-5.63.57-7.24-1.65a6.67,6.67,0,0,1-.63-6.78,6.34,6.34,0,0,1,4.16-3.62c-.2-.55-.38-1.11-.53-1.67-2.5.79-4.46,1.62-5.73,4.22-2.46,5-.06,11.56,5.44,13.1a10.79,10.79,0,0,0,11.6-4.57c1.11-1.7,2.22-4.55,1.22-6.54A2.19,2.19,0,0,0,178.47,388.28Z" transform="translate(-86.89 -129.4)"/><path class="cls-4" d="M312.07,418.27a17.5,17.5,0,0,0,2.13,5.06,13.89,13.89,0,0,0,1.68,2.14c.19.19.5.62.75.71a21.41,21.41,0,0,0,9.81,1.21c5.82-.58,12.68-3.49,14.91-9.34a18.18,18.18,0,0,0-3.72-17.9c-5.35-5.5-14.87-4.8-20.63-.34S310.36,411.7,312.07,418.27Zm14.47-15.33c4.72,2.11,6.48,7.26,5,12a7,7,0,0,1-5.52,4.83,12,12,0,0,1-7.62-1.21,8.44,8.44,0,0,1-3.12-10.79C317.13,404.11,322.61,401.17,326.54,402.94Z" transform="translate(-86.89 -129.4)"/><path class="cls-6" d="M203.06,497.91a10,10,0,0,1,.34-3.77c2.34,4.66,2.53,5.27,5.87,7.91a12.1,12.1,0,0,1-.29-3.91c2.48,4.13,5.37,5.84,9.49,8a42.36,42.36,0,0,1-9.24-9.95c-3.58-5.61-5.45-12.1-8.87-17.79-1.51-2.5-4-4.44-5.3-7a10.4,10.4,0,0,1-.54-7.1c1.32-5.53,5.15-10.14,8.41-14.65,1.71-2.37,3.58-4.88,4.39-7.72.68-2.4.48-4.89.47-7.35,0-4.66,2.65-8.13,7-9.73,10.6-3.87,21.34,5.35,30,10.1,11.08,6.07,23.95,3.46,36,5,6.33.81,12.58,2.41,18.95,2.83s12-1.84,17.8-3.94c8.29-3,20.88-7.62,28.07.25,4.37,4.78.74,9.63,1.14,15.12s3.76,10.45,5.88,15.4c1.94,4.51,3.92,10.67,1.44,15.38-1.14,2.17-3.3,3.39-5.08,5a36.12,36.12,0,0,0-5.27,6.17c-3.31,4.64-6.28,9.66-10.57,13.5-.45.41-.92.8-1.39,1.18a11.22,11.22,0,0,1-1.25,5.62c4.54-1.53,10.91-4.44,13.07-11.75a11,11,0,0,1,.11,3.48c2.37-3,5-6.3,6.51-9.82.29,1.95.26,4,.74,5.89,5.78-3.55,10.92-10.49,13.2-13.76a39.38,39.38,0,0,0,2.74-5.83c7.84-21-3.73-42.56-9.16-62.62a78.81,78.81,0,0,1-2.83-16.12c-.05-.78-.6-3.38.38-3.73,1.23-.44,1.08.93,1.27,1.64a31.52,31.52,0,0,0,3.12,7.32c2.85,5,7.86,8.6,12.67,11.61s9.49,3.56,14.61,1.24c5.48-2.49,6.68-6.81,7.22-12.43.16-1.57.72-4-.26-5.42-1.15-1.67-3.23-.4-4.65.22-11.24,4.91-22.92,1.53-31.23-7-1.6-1.64-4.42-4.23-5.11-6.5-.36-1.18,0-2.62,0-3.86a7.51,7.51,0,0,0-.13-2.17c-.38-1-.11-.41-1.08-.91-1.39-.72-3.07-1-4.5-1.72a23.76,23.76,0,0,1-3.18-2,24.7,24.7,0,0,1-5.78-6.07,48,48,0,0,1-7.33-16.51c-1-4.63-1.39-10.73,1.61-14.75-4.11-1.9-7.34-6.61-5.91-11.21.78-2.56,2.76-4.39,4.47-6.35a12.17,12.17,0,0,0,3.27-7.37c-6.5,6.29-17.83,4.62-25.86,3.25-9-1.55-17.87-3.93-27-4.85-7.65-.77-15.76-.77-22.82,2.67-6.15,3-10.57,8.87-9.15,16a12.9,12.9,0,0,0,2,4.59c.44.66,1.54,2.89-.43,2.45-1.26-.28-2.46-3.26-2.87-4.31a15.34,15.34,0,0,1-1-5.36,40.37,40.37,0,0,0-5.59,1.78c2.58,5,.6,12-1.63,16.73a46.7,46.7,0,0,1-10.68,14.15,24.17,24.17,0,0,1-6.93,4.5,22.51,22.51,0,0,1-3.59,1.18c-1.21.28-2.66.16-3.82.53-.69-.27-1-.07-1,.61-.13.39-.26.79-.37,1.2a13.92,13.92,0,0,0-.32,1.56,10.56,10.56,0,0,1-.44,3.05c-.9,1.85-4.34,1.15-6.22,1a32.32,32.32,0,0,1-15.16-4.6c-4.53-2.85-7.28-7.78-11.86-10.52a8.17,8.17,0,0,0-3.75-1.29,5.49,5.49,0,0,0-1.28.11c-.37.08-1.45.81-1.8.86a15.39,15.39,0,0,0-1.95,5.58,35.82,35.82,0,0,0-.93,7.78c.09,4.46,2.67,10.18,6.43,12.92a2.77,2.77,0,0,1-.15-.66c-.1-3.61,2.45-4.13,3.66-4.08,4,.15,3.52,6.09,2.38,8.59,3.73.69,6.58,1.71,10.4.69a36.43,36.43,0,0,0,8.79-4c1.42-.83,2.81-1.71,4.2-2.59.62-.39,2.32-2,3-1.61,1.55.84-.86,6.68-1.3,8-7.19,22.15-25.72,40.54-25.83,64.9-.05,10.25,3.9,19,10,26.4.67-1.17,2.39-4.2,2.6-5.46C198.5,488.18,198.7,496.49,203.06,497.91Zm139.69-93.69c2.29,6.69,2.06,15.39-3.87,20.14-5.5,4.41-15.33,7-21.89,3.45-6.21-3.39-7.89-12-7.15-18.48,1-8.63,8.74-14.48,17.09-15C334.12,393.85,340.38,397.27,342.75,404.22ZM327.15,328c.83-.57,0,.8,0,.78-.32.57-1.63,1.12-2.17,1.47-1.27.82-2.56,1.59-3.8,2.45-2.27,1.57-4.62,3.49-5.71,6.1a6.28,6.28,0,0,0,.64,6.43c.57.71,2.46,1.47,2.43,2.45,0,1.28-1.29,1.07-2.1.75-4.55-1.83-4.25-8.24-1.92-11.62C317.53,332.44,323,330.87,327.15,328ZM318,326.5A8.51,8.51,0,0,1,316,328a24.73,24.73,0,0,1-4.23,2.07c-3.17,1.22-6.5,1.92-9.69,3.05s-6,3-7.38,6.29a9.22,9.22,0,0,0-.55,5.24c.16.85,1.05,3.26-.87,2.93-2.41-.41-1.6-6.23-1.11-7.75a12.25,12.25,0,0,1,5.32-6.7c3.14-1.84,7-2.12,10.45-3a31.79,31.79,0,0,0,10.26-4.62C319.2,324.77,317.89,326.69,318,326.5ZM266,334c3.06-6.84,9.72-9.63,16.88-9.73,8.31-.12,17.62,3.3,25.69.32.55-.2.32.44.26.62a6.81,6.81,0,0,1-1.46.58,15.69,15.69,0,0,1-3,.66,39.75,39.75,0,0,1-7.07,0c-4.9-.3-9.84-.91-14.75-.54-8,.61-14.64,4.9-15.59,13.34-.13,1.22.37,4.32-.37,5.29-1,1.29-1.84.06-2-.93A17.15,17.15,0,0,1,266,334Zm10.95,97.81c8.41.27,17.69,2,24.69,6.92-10.25-4.73-22.54-5.92-33.69-5.2a58.74,58.74,0,0,0-11.35,1.8C262.82,432.31,270.06,431.55,276.92,431.76Zm-52.74-43.29c6.61-5.49,16.88-3.16,22.7,2.35,5.5,5.18,6.27,12.81,3.79,19.68-2.4,6.68-7.38,11.4-14.77,10.66-6.53-.65-13.74-4.44-16.91-10.39C215.49,404.23,218.6,393.1,224.18,388.47Z" transform="translate(-86.89 -129.4)"/><path class="cls-4" d="M325.75,415.46c2.36-1.14,1.94-4,1.25-6.14s-2.85-4.32-5.07-2.59c-1.75,1.34-2.1,4.09-1.3,6S323.57,416.53,325.75,415.46Z" transform="translate(-86.89 -129.4)"/><path class="cls-3" d="M332.25,357.8c1,6.52,4.27,12.67,8.07,18a21.07,21.07,0,0,0,10.61,7.9c5,1.57,9.77.34,14.34-1.85,16.22-7.75,26.05-23.59,25.3-41.62-.38-9.32-3.55-18.19-6.45-27a134.46,134.46,0,0,1-3.81-13.16c-.56-2.52-1-5.07-1.43-7.61-.4-2.37-1.14-4.59-1.62-6.94-1.17,6.3-.65,12.74-.27,19.09-1.63-6.18-5.09-11.93-5.12-18.47-.79,3.18-.64,6.53-1.52,9.69a46.3,46.3,0,0,0-1.75-5.66c-2.18,4.21-2,8.67-2.07,13.27a71.35,71.35,0,0,1-1,11.95,36,36,0,0,1-8.71,18.22c-4.81,5.12-11.18,8.25-17.87,10.12-1.28.35-3.3.5-4.35,1.36a7.91,7.91,0,0,0-1.72,3.22A19.25,19.25,0,0,0,332.25,357.8Zm33.43,19.33a40.29,40.29,0,0,0,12.17-9.64c7-8.3,9.54-19,9.81-29.59.68,9.05-1,18.4-5.79,26.17a37.72,37.72,0,0,1-26.15,17.11,10.88,10.88,0,0,1-2.9.16C357.1,381.4,362,379.06,365.68,377.13Z" transform="translate(-86.89 -129.4)"/><path class="cls-6" d="M259.25,653.84c-5.62-8.18-8.83-18-11-27.65a154.31,154.31,0,0,1-3.85-36.85c.38-17.38,4.73-36.52,17.21-49.36a43.25,43.25,0,0,1,9.79-7.55c-4.08-1.32-8.49-2.26-11.76-4.08a16.69,16.69,0,0,0,2.33,3.73c-4.26-1.19-12.05-2.72-14.25-7a8.28,8.28,0,0,1-.37,4.55c-6-3.66-11.85-4-14.91-11.6-.55,1.57-.17,3.64-.15,5.34-3.31-1-12.13-3.77-13-7.26a7.89,7.89,0,0,0-.67,3.43c-4.26-2.65-11.33-6.39-14.07-13.37a21.85,21.85,0,0,0-.12,5.61,32.6,32.6,0,0,1-3.61-3.46l-.13.12a54.62,54.62,0,0,0-12.07,23.14c-4.65,19.18,3.63,37.62,13.66,53.65A105,105,0,0,0,210,596.09a59.6,59.6,0,0,0,4.81,5.25c1,.92,3.32,3.56,4.45,3.25.92-.26,2.29-1.79,3.15-2.33,1.38-.87,2.82-1.67,4.27-2.42a34.38,34.38,0,0,1,8.53-3.42c-3.13-11.66-4.45-24.54-1.5-36.4.22-.89.53-3.4,1.26-3.9,1.11-.79.53,1.34.47,1.85-.31,2.65-.75,5.27-1,7.92a69.91,69.91,0,0,0,.25,16.42,66,66,0,0,0,4.19,16.36c1.41,3.41,5.06,8.82,2.23,12.44-3.63,4.63-13,.48-17-1.7a70,70,0,0,1-10-6.89,56.22,56.22,0,0,1-9.93-10.68C200.5,604.34,193.5,617.57,196,631c2.09,11.33,8.6,22,14.76,31.58,6.57,10.16,13.93,19.77,20.87,29.67,1.62,2.31,3.09,5.27,5.44,6.95,1.34,1,1.4.41,2.42-.69.74-.81,1.52-1.57,2.33-2.31A62.58,62.58,0,0,1,253.34,688c.94-.52,1.9-1,2.87-1.49a9.37,9.37,0,0,0,2.24-1c.62-.67.83-2.82,1.15-3.77q.63-1.85,1.35-3.66a53.47,53.47,0,0,1,8.18-14.4A35,35,0,0,1,259.25,653.84ZM198.34,520.51c-13.66,23.51-.73,52,14.58,71.08C196.15,573.84,182.66,543.12,198.34,520.51Z" transform="translate(-86.89 -129.4)"/><path class="cls-6" d="M333.89,543.77a112.6,112.6,0,0,1-2.76-11.47c-.15-.84-.92-4.65-1.17-7.43-3,3.44-7.8,5.23-11.75,7.49.75-2.59.54-5.36.8-8-1.43,4.58-6.52,7.38-10.7,8.93a8.07,8.07,0,0,0,1.2-5.81c-2.57,1.37-5,2.9-7.55,4.26l.85.34a45.28,45.28,0,0,1,6.11,3.16,48.4,48.4,0,0,1,10.88,9.24c7,8,11.14,17.82,13.85,28,3.11,11.69,3.35,24.06,3.08,36.12-.14,6.07-1.84,12.17-3.68,17.92a67.66,67.66,0,0,1-7.3,15.77c-3,4.62-6.44,9.07-10.93,12.29s-10.05,5.28-15.36,7.23c11,3.48,18.83,13.58,27.05,21.08,2.26,2.06,4.57,4.07,6.94,6a39.06,39.06,0,0,0,3.26,2.45c1.47,1,1.51,1.25,2.5-.11,2.46-3.36,5.82-7.09,9.66-8.87a44.42,44.42,0,0,1-5.29-9.44c-2.83-6.94-3.86-14.39-4.53-21.82-.27-3.05-1.22-6.93-.59-10s3-5.88,4.32-8.6a61,61,0,0,0,5.87-21.62c.57-7.81-.46-15.49-1.78-23.17a140.24,140.24,0,0,0-5.7-22.39C338.69,558.18,336,551.06,333.89,543.77Z" transform="translate(-86.89 -129.4)"/><path class="cls-7" d="M309.35,656.19A35.76,35.76,0,0,0,322,645.53c7.19-9.45,10.92-20.75,13.17-32.28,1.11-5.66.53-11.81.43-17.56A97.66,97.66,0,0,0,334,577.87c-2.2-10.9-6.09-21.88-13-30.73a49.46,49.46,0,0,0-10.49-10,46.77,46.77,0,0,0-6.6-3.85c-.88-.42-1.78-.8-2.68-1.16-1.06.54-2.15,1.06-3.27,1.51-2.66,1.07-5.16.82-7.89,1.15a5.87,5.87,0,0,0,0-1.25,25.94,25.94,0,0,0-.88-2.9c-.09-.19-.18-.36-.28-.54-1.14,2.44-.41,4-5.22,7.54-.8-1.85-5.47-6.2-6.86-7.27l-.1.15c.4,1.27,1.87,4.73,2,5.56a21.28,21.28,0,0,0-6.59-3.33c-.56.31-1.12.63-1.66,1a48.75,48.75,0,0,0-18.35,21.61c-4.84,10.7-6.65,22.67-6.9,34.34a145.77,145.77,0,0,0,4.22,37.62c2.5,10.07,6.14,20.37,12.79,28.5a39,39,0,0,0,5.72,5.7c1.19,1,1.46,1.42,2.89,1s2.92-.67,4.38-1a56.94,56.94,0,0,1,18.77-.95c1.72.24,2.58.56,4.24,0l3.72-1.33A70.62,70.62,0,0,0,309.35,656.19Z" transform="translate(-86.89 -129.4)"/><path class="cls-6" d="M407.45,543.61c-3.79-.12-7.59-.15-11.38-.34a193.51,193.51,0,0,1-23.29-2.42,64,64,0,0,1-20.61-7c-5.58-3.12-11.34-7.05-15.51-12a35.23,35.23,0,0,1-3.47,1.65,2.81,2.81,0,0,0-1-2.3,10.94,10.94,0,0,1-1.06,2.14c.13,1,.13,2.07.17,2.41.24,1.85.55,3.69.91,5.52A110.13,110.13,0,0,0,335,542.12c1.11,3.6,2.35,7.15,3.63,10.69l2.08,5.7c.3.81.6,1.62.89,2.43a8.75,8.75,0,0,0,.44,1.21c.71,1.23.09.53,1.2.82a33.36,33.36,0,0,0,5.93.53,53.49,53.49,0,0,0,5.94,0c3.91-.16,7.82-.57,11.71-1.09a170.54,170.54,0,0,0,22.84-4.53c6.4-1.78,14.43-3.82,19.31-8.65C411.34,547,411.08,543.74,407.45,543.61Z" transform="translate(-86.89 -129.4)"/><path class="cls-7" d="M330.14,510c5.25-4.2,8.51-9.79,12.38-15.16a33.47,33.47,0,0,1,6.61-7.14c3-2.31,4.42-4.34,4.34-8.29-.15-7.34-5-13.41-7.27-20.13a17.7,17.7,0,0,1-.67-9.8c.64-2.93,1.4-5.83-.54-8.46-4-5.43-11.7-5.2-17.57-3.73-6.12,1.54-11.75,4.56-17.85,6.17-7.07,1.87-14.2.72-21.27-.57a143.06,143.06,0,0,0-23.38-2.05,74,74,0,0,1-11.52-.9,31.11,31.11,0,0,1-9.7-3.83c-6.13-3.37-12-7.68-18.82-9.6-5.2-1.47-13.76-1-15.13,5.6-.59,2.84.19,5.76-.37,8.61-.64,3.26-2.43,6.1-4.31,8.79-3.62,5.15-8.8,10.59-9.06,17.25-.15,3.73,2.15,5.69,4.2,8.47a49.57,49.57,0,0,1,4.94,9c2.7,5.89,5.27,12,10,16.61A73.57,73.57,0,0,0,223,507.4l.32.23c.66-2-.17-4.23-.34-6.37,2.58,1.9,3.56,5.72,6.66,7.11a7.45,7.45,0,0,0,.16-2c1.08.73,1.74,1.78,2.88,2.43-.06-1.07-.27-2.19-.24-3.18,2.79,4.31,8.62,8.54,13.7,9.57a9.58,9.58,0,0,0-.54-2.78c2.72,1.74,7.63,8.44,12.76,7.32-.52-1.9-2-3.36-2.44-5.28,3.39,1.93,5.39,6.35,9.8,7.11a28,28,0,0,1-2.87-4.33,24.87,24.87,0,0,0,6.38,3.64c-.07-1-.41-2.09-.58-3.38-.6-4.36,3.34-3.84,4-7.57.17-.91-.62-2.05-.45-2.76.35-1.44,1.07-.6,1.64-1.9s1.1-2.37,1.27-1.52,1,2.78,1.1,3.35c.29,1.9-.2,2.8-1,5.1.6.06,1.39.74,1.95.81-.22,1-1.33,3.21-.95,4.2s1.69,1.16,2.21,1.95a10.08,10.08,0,0,1,1,2.39,5.54,5.54,0,0,0,4.2-2.51,7.49,7.49,0,0,1-1.18,3.43,18,18,0,0,0,10.28-5.73,32.88,32.88,0,0,1-1,5.38c4.63-.13,9.66-4,13.24-6.86-.48,1.49-.92,3.07-1.25,4.61,1.11-.6,2.23-1.19,3.37-1.75-.15.39,0,1-.14,1.42,4.39-.75,12.53-6.21,14.38-9.66-.22,2.16-.19,4.35-.87,6.12A52.42,52.42,0,0,0,330.14,510Zm-15-52.76a42.92,42.92,0,0,1,5.47-7,34.8,34.8,0,0,1,6.62-5.8c1.42-.9,4.58-3.15,6.32-1.94,2.22,1.55,1.19,6.24.71,8.36a9.87,9.87,0,0,1-4,6c-2.22,1.56-4.85,2.15-7.37,3-2.73,1-5.71,3.29-8.61,3.51C311.07,463.53,314.67,458,315.15,457.21ZM220.56,437c.2-2.1,1-5.93,3.88-4.88,2.46.89,4.74,3.46,6.35,5.42a42,42,0,0,1,8.31,15.68c.87,3.3-1.52,3.22-3.77,1.6a62.09,62.09,0,0,0-7.84-5.07C222.23,447,220,442.9,220.56,437Zm93.53,57.29c-12.12,4.92-25.81,7.82-38.92,6.55-13.61-1.32-27.35-7-39.11-13.74a71.81,71.81,0,0,1-15.91-12c-3.15-3.25-7.65-8.42-8.12-13.2-.1-1,.38-2.5,1.65-1.45.53.44.66,2,.9,2.61a24.15,24.15,0,0,0,2.49,5,41.42,41.42,0,0,0,8,8.87c7.24,6.23,15.85,10.88,24.62,14.58a95.35,95.35,0,0,0,24,7c9.52,1.26,19.41-.09,28.62-2.54s18.68-6.32,26.46-12.18A34.74,34.74,0,0,0,337.4,475a21.73,21.73,0,0,0,1.54-2.85c.25-.57.44-1.78.95-2.13,1.42-1,1.7.64,1.51,1.61a11.48,11.48,0,0,1-1.33,2.92C334.8,484.22,324,490.31,314.09,494.31Z" transform="translate(-86.89 -129.4)"/><path class="cls-6" d="M193.1,626.82c-.52-.61-3.74-.76-4.5-.93a72.88,72.88,0,0,1-8.78-2.57,47.57,47.57,0,0,1-14.07-7.88,35.57,35.57,0,0,1-12.81-25.35c-.75-10.8,2.37-21,6.24-31a93.6,93.6,0,0,0,5.08-15.75,62.58,62.58,0,0,0,.68-18,146,146,0,0,0-2.66-16.34h-2.19c.12.57.22,1,.27,1.23a70.86,70.86,0,0,1,2.44,16.95c.19,10.57-3,20-6.76,29.72-3.55,9.18-6.34,18.44-6.89,28.33-.52,9.2,1.13,18.5,6.83,26,5.42,7.09,13.27,12,21.4,15.36a73.59,73.59,0,0,0,16.27,4.86C193.49,630.6,193.66,627.47,193.1,626.82Z" transform="translate(-86.89 -129.4)"/><path class="cls-7" d="M138.7,459.41a72.08,72.08,0,0,1,3.42,27.34,1,1,0,0,1-1.09,1c1,5.17.53,11,4.21,15,3.87,4.27,10.1,5.2,15.46,6.27a.92.92,0,0,0,.51-.17c8-7.26,2.81-19-1.84-26.63C154,473.35,146.52,466.15,138.7,459.41Z" transform="translate(-86.89 -129.4)"/><path class="cls-8" d="M154.26,481.71c1.49,6-1.25,14.23,1.46,20,1.93,4.15,4,5.67,6.08,5.51,7-6.84,2.24-17.62-2.06-24.69a70.21,70.21,0,0,0-9.44-12.08A84.14,84.14,0,0,1,154.26,481.71Z" transform="translate(-86.89 -129.4)"/><path class="cls-9" d="M314.3,463.3c2.9-.22,5.88-2.54,8.61-3.51,2.52-.89,5.15-1.48,7.37-3a9.87,9.87,0,0,0,4-6c.48-2.12,1.51-6.81-.71-8.36-1.74-1.21-4.9,1-6.32,1.94a34.8,34.8,0,0,0-6.62,5.8,42.92,42.92,0,0,0-5.47,7C314.67,458,311.07,463.53,314.3,463.3Z" transform="translate(-86.89 -129.4)"/><path class="cls-9" d="M236.44,411.75a8.3,8.3,0,0,0,10.24-6.56c.78-4.91-2.86-9-7.33-10.36-4.81-1.47-9.56,3.2-10.11,7.73S231.27,411.9,236.44,411.75Zm4.28-11.42c1.42,3.28-1.58,9.44-5.66,7C229.91,404.17,238.12,394.31,240.72,400.33Z" transform="translate(-86.89 -129.4)"/><path class="cls-9" d="M242.12,380.47c1.9-.17,3.8-.25,5.7-.27,1.44,0,5.59.69,6.57-.52,1.23-1.51-1.53-3.47-2.61-3.93-3.31-1.41-6.79-.34-9.94.94-1.1.44-6.39,3.1-3,3.92A10.65,10.65,0,0,0,242.12,380.47Z" transform="translate(-86.89 -129.4)"/><path class="cls-9" d="M212.32,367.53a41.06,41.06,0,0,1-20.11-18.79c-4.6-9.12-5-19.47-3.37-29.4-2.55,9.52-2.42,19.74,1.69,28.79a37,37,0,0,0,10.72,13.51c3.69,2.93,8.91,6.48,13.79,6.83A11.38,11.38,0,0,1,212.32,367.53Z" transform="translate(-86.89 -129.4)"/><path class="cls-9" d="M227.49,449.77a62.09,62.09,0,0,1,7.84,5.07c2.25,1.62,4.64,1.7,3.77-1.6a42,42,0,0,0-8.31-15.68c-1.61-2-3.89-4.53-6.35-5.42-2.89-1.05-3.68,2.78-3.88,4.88C220,442.9,222.23,447,227.49,449.77Z" transform="translate(-86.89 -129.4)"/><path class="cls-9" d="M340.07,474.53a11.48,11.48,0,0,0,1.33-2.92c.19-1-.09-2.58-1.51-1.61-.51.35-.7,1.56-.95,2.13A21.73,21.73,0,0,1,337.4,475a34.74,34.74,0,0,1-8.59,8.89c-7.78,5.86-17.1,9.69-26.46,12.18s-19.1,3.8-28.62,2.54a95.35,95.35,0,0,1-24-7c-8.77-3.7-17.38-8.35-24.62-14.58a41.42,41.42,0,0,1-8-8.87,24.15,24.15,0,0,1-2.49-5c-.24-.64-.37-2.17-.9-2.61-1.27-1.05-1.75.44-1.65,1.45.47,4.78,5,10,8.12,13.2a71.81,71.81,0,0,0,15.91,12c11.76,6.78,25.5,12.42,39.11,13.74,13.11,1.27,26.8-1.63,38.92-6.55C324,490.31,334.8,484.22,340.07,474.53Z" transform="translate(-86.89 -129.4)"/><path class="cls-9" d="M235.9,421.16c7.39.74,12.37-4,14.77-10.66,2.48-6.87,1.71-14.5-3.79-19.68-5.82-5.51-16.09-7.84-22.7-2.35-5.58,4.63-8.69,15.76-5.19,22.3C222.16,416.72,229.37,420.51,235.9,421.16Zm-12-29c4.82-5.73,13.45-5.77,19.44-1.87s8.08,10.43,6.54,17.17a20.35,20.35,0,0,1-4.34,9c-.81.93-2.07,2.43-3.35,2.68a29.48,29.48,0,0,1-4.7.28c-6.26,0-14.06-3.84-16.91-9.67C217.86,404.09,220.09,396.79,224,392.19Z" transform="translate(-86.89 -129.4)"/><path class="cls-9" d="M315.27,407.76a8.44,8.44,0,0,0,3.12,10.79,12,12,0,0,0,7.62,1.21,7,7,0,0,0,5.52-4.83c1.49-4.73-.27-9.88-5-12C322.61,401.17,317.13,404.11,315.27,407.76Zm6.66-1c2.22-1.73,4.38.45,5.07,2.59s1.11,5-1.25,6.14c-2.18,1.07-4.32-.75-5.12-2.71S320.18,408.07,321.93,406.73Z" transform="translate(-86.89 -129.4)"/><path class="cls-9" d="M321.55,382.37c-2.38-1.09-8.63-2.2-9.54,1.54-.48,2,2.79,2,4.11,2.26,2.16.43,4.32.86,6.45,1.42.83.22,6.28,2.3,6,.44C328.13,385.5,323.6,383.31,321.55,382.37Z" transform="translate(-86.89 -129.4)"/><path class="cls-9" d="M309.84,409.33c-.74,6.45.94,15.09,7.15,18.48,6.56,3.58,16.39,1,21.89-3.45,5.93-4.75,6.16-13.45,3.87-20.14-2.37-7-8.63-10.37-15.82-9.91C318.58,394.85,310.83,400.7,309.84,409.33Zm27.79-9.18a18.18,18.18,0,0,1,3.72,17.9c-2.23,5.85-9.09,8.76-14.91,9.34a21.41,21.41,0,0,1-9.81-1.21c-.25-.09-.56-.52-.75-.71a13.89,13.89,0,0,1-1.68-2.14,17.5,17.5,0,0,1-2.13-5.06c-1.71-6.57-.71-14.08,4.93-18.46S332.28,394.65,337.63,400.15Z" transform="translate(-86.89 -129.4)"/><path class="cls-9" d="M297.47,333.13a12.25,12.25,0,0,0-5.32,6.7c-.49,1.52-1.3,7.34,1.11,7.75,1.92.33,1-2.08.87-2.93a9.22,9.22,0,0,1,.55-5.24c1.36-3.28,4.14-5.14,7.38-6.29s6.52-1.83,9.69-3.05A24.73,24.73,0,0,0,316,328a8.51,8.51,0,0,0,2.06-1.5c-.15.19,1.16-1.73.14-1a31.79,31.79,0,0,1-10.26,4.62C304.46,331,300.61,331.29,297.47,333.13Z" transform="translate(-86.89 -129.4)"/><path class="cls-9" d="M266.52,344.48c.74-1,.24-4.07.37-5.29.95-8.44,7.56-12.73,15.59-13.34,4.91-.37,9.85.24,14.75.54a39.75,39.75,0,0,0,7.07,0,15.69,15.69,0,0,0,3-.66,6.81,6.81,0,0,0,1.46-.58c.06-.18.29-.82-.26-.62-8.07,3-17.38-.44-25.69-.32-7.16.1-13.82,2.89-16.88,9.73a17.15,17.15,0,0,0-1.47,9.6C264.68,344.54,265.53,345.77,266.52,344.48Z" transform="translate(-86.89 -129.4)"/><path class="cls-9" d="M314.54,336.8c-2.33,3.38-2.63,9.79,1.92,11.62.81.32,2.07.53,2.1-.75,0-1-1.86-1.74-2.43-2.45a6.28,6.28,0,0,1-.64-6.43c1.09-2.61,3.44-4.53,5.71-6.1,1.24-.86,2.53-1.63,3.8-2.45.54-.35,1.85-.9,2.17-1.47,0,0,.81-1.35,0-.78C323,330.87,317.53,332.44,314.54,336.8Z" transform="translate(-86.89 -129.4)"/><path class="cls-9" d="M355.72,381.18a37.72,37.72,0,0,0,26.15-17.11c4.84-7.77,6.47-17.12,5.79-26.17-.27,10.63-2.85,21.29-9.81,29.59a40.29,40.29,0,0,1-12.17,9.64c-3.67,1.93-8.58,4.27-12.86,4.21A10.88,10.88,0,0,0,355.72,381.18Z" transform="translate(-86.89 -129.4)"/><path class="cls-9" d="M301.61,438.68c-7-4.92-16.28-6.65-24.69-6.92-6.86-.21-14.1.55-20.35,3.52a58.74,58.74,0,0,1,11.35-1.8C279.07,432.76,291.36,434,301.61,438.68Z" transform="translate(-86.89 -129.4)"/><path class="cls-9" d="M198.34,520.51c-15.68,22.61-2.19,53.33,14.58,71.08C197.61,572.48,184.68,544,198.34,520.51Z" transform="translate(-86.89 -129.4)"/><path class="cls-9" d="M411.47,543.27c-1.8-2.22-6-1.44-8.51-1.51-3.79-.1-7.57-.26-11.34-.51a166.2,166.2,0,0,1-23.31-3,57.72,57.72,0,0,1-20.17-8.92,71.44,71.44,0,0,1-8.43-6.8c-.54-.5-1.07-1-1.59-1.56,2.44-1.4,4.82-3,7.05-4.44,2.49-1.63,5.05-3.24,6.54-5.9a3.42,3.42,0,0,1,.33,2.27c7-4.61,11-10.52,12.52-19.16,17.57-26-2.56-56.45-7.12-83.16,3.61,6.88,11.17,13.3,18.45,16,6.85,2.51,16.42-1.19,19-8.19,1.39-3.71,4.06-16.16-3.23-15a24,24,0,0,0-4.53,1.63,27.8,27.8,0,0,1-6.6,1.55,21.52,21.52,0,0,1-11.31-1.73,32.55,32.55,0,0,1-9.65-7.23c-1.37-1.42-3.26-3.05-4.25-4.76s-.27-4.43-.82-6.51c9.74.83,19.95-6.46,26.18-13.28a43.93,43.93,0,0,0,11.67-28.47c.35-12.66-4.51-24.27-8-36.21-3.3-11.31-6.87-24.48-4.17-36.25a22.69,22.69,0,0,1,2.71-7.16c.54-.86,3.63-3.18,1.15-3.46-1.62-.18-4.33,1.61-5.66,2.44a21.66,21.66,0,0,0-4.88,4.23c-5.56,6.44-7.68,15.33-8.34,23.62-.85,10.9.46,22.41-4.22,32.63-4.59,10-13.88,15.54-24.24,18.15a6.84,6.84,0,0,1-3.19.51,7.28,7.28,0,0,1-2.73-1.74,7.53,7.53,0,0,1-2.57-6.58c.44-2.47,2.36-4.32,3.94-6.13a14.17,14.17,0,0,0,3.87-7.85c.1-.87.53-3-.1-3.77-.93-1.07-1.66.24-2.31.88a14.16,14.16,0,0,1-6.16,3.5c-4.65,1.32-9.77.91-14.5.36-12.36-1.46-24.28-5.52-36.8-6-9.68-.36-23.07,1.91-27.63,11.85a15.49,15.49,0,0,0-1.15,3.69c-.2,1.17,0,.79-1,1.29a15.25,15.25,0,0,1-2.38.53c-1.05.29-2.78,1.45-3.78,1.4-.77,0-2.4-1.27-3.16-1.62a39.45,39.45,0,0,1-13.06-9.32c-7.64-8.63-8.34-20.15-6.83-31.07,1.37-9.86,3.78-19.84,1.83-29.81a27.13,27.13,0,0,0-6.41-13.23,20.36,20.36,0,0,0-2.85-2.56c-.71-.53-2.38-1.92-3.29-2-2.54-.16.22,2.92.64,4,3.83,10-.81,22.42-4.69,31.62-4.32,10.27-10.53,19.54-15.08,29.68-4.31,9.61-6.2,20-4,30.42a45.39,45.39,0,0,0,15,25c4,3.37,8.68,6.67,14,7.36a13.61,13.61,0,0,0-1.18,4c-.19,1.23.24,1.46-.94,1.74a7.64,7.64,0,0,1-1.51,0,36.17,36.17,0,0,1-8.15-1.09A29.7,29.7,0,0,1,187,369.91c-3.11-3.07-6.93-7.51-11.81-7.14a6.19,6.19,0,0,0-2,.86.45.45,0,0,0-.41,0c-2.19,1-2.79,3.48-3.29,5.63a38.27,38.27,0,0,0-1.38,9.62,17.85,17.85,0,0,0,.31,2.87,9.73,9.73,0,0,0-4.94,2.63c-6.9,6.83-.95,18.85,8.59,17.85a13.2,13.2,0,0,0,7.81-3.75c.39-.39,1.51-2.1,1.69-2.11s1.11.52,1.49.66a16,16,0,0,0,5.07,1c6.61.25,13.43-3.84,18.74-7.44-7.05,24.28-27.84,44.58-27.51,70.94a40,40,0,0,0,1.84,11.56c-.11,7.93,2.86,16.85,8.41,22.88a12,12,0,0,0,1-3.15,79.19,79.19,0,0,0,8.47,13.59,56.89,56.89,0,0,0-6,8,54.79,54.79,0,0,0-4.08,50,138.63,138.63,0,0,0,7.11,14.86q1.89,3.42,4,6.71a28.24,28.24,0,0,1,2.41,3.6c.45,1,.5.13,0,1.4a16.48,16.48,0,0,1-1,1.8,94.29,94.29,0,0,0-5.37,15.26c-1.56,5.44-3.21,11.19-3.24,16.89-15.78-3-32.4-10.59-37.13-27.32-2.56-9.07-1.48-18.94,1.15-27.86,2.87-9.71,7.7-18.72,9.17-28.83,1.56-10.66.33-21.6-2.61-31.93h-1.36a146,146,0,0,1,2.66,16.34,62.58,62.58,0,0,1-.68,18,93.6,93.6,0,0,1-5.08,15.75c-3.87,9.94-7,20.16-6.24,31a35.57,35.57,0,0,0,12.81,25.35,47.57,47.57,0,0,0,14.07,7.88,72.88,72.88,0,0,0,8.78,2.57c.76.17,4,.32,4.5.93s.39,3.78.55,4.66a73.59,73.59,0,0,1-16.27-4.86c-8.13-3.4-16-8.27-21.4-15.36-5.7-7.46-7.35-16.76-6.83-26,.55-9.89,3.34-19.15,6.89-28.33,3.75-9.73,7-19.15,6.76-29.72a70.86,70.86,0,0,0-2.44-16.95c-.05-.19-.15-.66-.27-1.23h-1.41c1.94,8.84,3.44,17.79,2.16,26.84s-5.24,17.42-8.35,26c-5.49,15.09-8.68,34.54.88,48.7,4.47,6.62,11,11.58,18,15.21a80.36,80.36,0,0,0,12.41,5.11c2.23.7,4.49,1.31,6.77,1.79.84.18,2.27.13,3,.56s1,2.37,1.33,3.45c5.12,16.94,16.21,31.71,26.47,45.85,2.57,3.56,5.15,7.11,7.67,10.71,2.11,3,4.09,7.12,7.5,8.9,3.74,1.94,8.74.92,12.76.8,2.15-.07,12,1.62,11.75-1.63-.08-1-.7-2.13-.89-3.13a20.68,20.68,0,0,1-.33-3.22,28.43,28.43,0,0,1,.65-6.51,55.15,55.15,0,0,1,4.35-12.52c1-2,2-4,3.13-6,1-1.73,2.05-4.6,3.83-5.32,4.08-1.62,9.47-2,13.82-2.19,8.59-.43,16.33,1.62,23.1,7,6.95,5.55,13.15,12.12,19.74,18.1,2.83,2.57,5.78,5.19,9.3,6.79,4.27,2,8.48,1.17,13,.81,1.86-.15,8.68.18,7.68-3.28-.5-1.74-2.49-4-3.55-5.44-1.28-1.77-2.74-3.4-4.07-5.14-5.44-7.09-7.9-15.81-9-24.56-.57-4.38-1.06-8.85-1.34-13.25-.23-3.77,3-7.39,4.53-10.72a63.86,63.86,0,0,0,5.92-26.58c0-9.34-1.76-18.8-3.93-27.86a140.44,140.44,0,0,0-4-13.62c6.18,1.83,13.82.76,20.1,0a193,193,0,0,0,20.71-3.52,98,98,0,0,0,18.36-5.73C405.93,553.85,415.86,548.7,411.47,543.27ZM334.64,345.14c1.05-.86,3.07-1,4.35-1.36,6.69-1.87,13.06-5,17.87-10.12a36,36,0,0,0,8.71-18.22,71.35,71.35,0,0,0,1-11.95c.1-4.6-.11-9.06,2.07-13.27a46.3,46.3,0,0,1,1.75,5.66c.88-3.16.73-6.51,1.52-9.69,0,6.54,3.49,12.29,5.12,18.47-.38-6.35-.9-12.79.27-19.09.48,2.35,1.22,4.57,1.62,6.94.43,2.54.87,5.09,1.43,7.61a134.46,134.46,0,0,0,3.81,13.16c2.9,8.76,6.07,17.63,6.45,27,.75,18-9.08,33.87-25.3,41.62-4.57,2.19-9.37,3.42-14.34,1.85a21.07,21.07,0,0,1-10.61-7.9c-3.8-5.33-7.05-11.48-8.07-18a19.25,19.25,0,0,1,.67-9.44A7.91,7.91,0,0,1,334.64,345.14Zm-141,13a43.09,43.09,0,0,1-9.39-25.93c-.18-10.45,3.92-20,8.78-29.08,2.72-5.08,5.64-10.06,8.13-15.26q2-4.26,3.74-8.66c1.22-3.17,2.53-6.22,3.8-9.35,0,6.41-1.72,12.64-3.27,18.81,2.75-5.77,7.22-10.78,8.46-17.2.19,3.27-.58,6.53-.3,9.8a48.27,48.27,0,0,1,2.76-5.23c2.12,7-.9,14.89-1.43,22-.55,7.44.38,14.92,4.14,21.47a35.93,35.93,0,0,0,14.12,13.41c2.4,1.32,5.91,1.9,6.92,4.65,1.28,3.47.73,7.35-.42,10.77-3.1,9.2-10.87,19.52-20.54,22.25C209,373.44,199.63,365.59,193.68,358.12ZM169.76,385.9a16.88,16.88,0,0,0,6,7.58c-1.94,2.41-7.9,3.91-9.52-.2C165,390.08,166.88,387.12,169.76,385.9ZM180.13,396a10.79,10.79,0,0,1-11.6,4.57c-5.5-1.54-7.9-8.12-5.44-13.1,1.27-2.6,3.23-3.43,5.73-4.22.15.56.33,1.12.53,1.67a6.34,6.34,0,0,0-4.16,3.62,6.67,6.67,0,0,0,.63,6.78c1.61,2.22,4.79,2.5,7.24,1.65a7.33,7.33,0,0,0,3.64-2.57c.91-1.27.83-2.4,1-3.87,0-.34-.15-1.79.79-2.21a2.19,2.19,0,0,1,2.88,1.14C182.35,391.41,181.24,394.26,180.13,396Zm14,85.71c-.21,1.26-1.93,4.29-2.6,5.46-6.08-7.38-10-16.15-10-26.4.11-24.36,18.64-42.75,25.83-64.9.44-1.34,2.85-7.18,1.3-8-.72-.38-2.42,1.22-3,1.61-1.39.88-2.78,1.76-4.2,2.59a36.43,36.43,0,0,1-8.79,4c-3.82,1-6.67,0-10.4-.69,1.14-2.5,1.66-8.44-2.38-8.59-1.21-.05-3.76.47-3.66,4.08a2.77,2.77,0,0,0,.15.66c-3.76-2.74-6.34-8.46-6.43-12.92a35.82,35.82,0,0,1,.93-7.78,15.39,15.39,0,0,1,1.95-5.58c.35-.05,1.43-.78,1.8-.86a5.49,5.49,0,0,1,1.28-.11,8.17,8.17,0,0,1,3.75,1.29c4.58,2.74,7.33,7.67,11.86,10.52a32.32,32.32,0,0,0,15.16,4.6c1.88.12,5.32.82,6.22-1a10.56,10.56,0,0,0,.44-3.05,13.92,13.92,0,0,1,.32-1.56c.11-.41.24-.81.37-1.2,0-.68.29-.88,1-.61,1.16-.37,2.61-.25,3.82-.53a22.51,22.51,0,0,0,3.59-1.18,24.17,24.17,0,0,0,6.93-4.5A46.7,46.7,0,0,0,240,352.79c2.23-4.72,4.21-11.73,1.63-16.73a40.37,40.37,0,0,1,5.59-1.78,15.34,15.34,0,0,0,1,5.36c.41,1.05,1.61,4,2.87,4.31,2,.44.87-1.79.43-2.45a12.9,12.9,0,0,1-2-4.59c-1.42-7.1,3-13,9.15-16,7.06-3.44,15.17-3.44,22.82-2.67,9.12.92,18,3.3,27,4.85,8,1.37,19.36,3,25.86-3.25a12.17,12.17,0,0,1-3.27,7.37c-1.71,2-3.69,3.79-4.47,6.35-1.43,4.6,1.8,9.31,5.91,11.21-3,4-2.6,10.12-1.61,14.75a48,48,0,0,0,7.33,16.51,24.7,24.7,0,0,0,5.78,6.07,23.76,23.76,0,0,0,3.18,2c1.43.74,3.11,1,4.5,1.72,1,.5.7-.13,1.08.91a7.51,7.51,0,0,1,.13,2.17c0,1.24-.35,2.68,0,3.86.69,2.27,3.51,4.86,5.11,6.5,8.31,8.56,20,11.94,31.23,7,1.42-.62,3.5-1.89,4.65-.22,1,1.43.42,3.85.26,5.42-.54,5.62-1.74,9.94-7.22,12.43-5.12,2.32-9.9,1.7-14.61-1.24s-9.82-6.59-12.67-11.61a31.52,31.52,0,0,1-3.12-7.32c-.19-.71,0-2.08-1.27-1.64-1,.35-.43,2.95-.38,3.73A78.81,78.81,0,0,0,357.76,422c5.43,20.06,17,41.58,9.16,62.62a39.38,39.38,0,0,1-2.74,5.83c-2.28,3.27-7.42,10.21-13.2,13.76-.48-1.92-.45-3.94-.74-5.89-1.47,3.52-4.14,6.85-6.51,9.82a11,11,0,0,0-.11-3.48c-2.16,7.31-8.53,10.22-13.07,11.75a11.22,11.22,0,0,0,1.25-5.62c.47-.38.94-.77,1.39-1.18,4.29-3.84,7.26-8.86,10.57-13.5a36.12,36.12,0,0,1,5.27-6.17c1.78-1.58,3.94-2.8,5.08-5,2.48-4.71.5-10.87-1.44-15.38-2.12-4.95-5.48-9.91-5.88-15.4S350,443.82,345.65,439c-7.19-7.87-19.78-3.26-28.07-.25-5.82,2.1-11.5,4.35-17.8,3.94s-12.62-2-18.95-2.83c-12.07-1.53-24.94,1.08-36-5-8.67-4.75-19.41-14-30-10.1-4.36,1.6-7.05,5.07-7,9.73,0,2.46.21,4.95-.47,7.35-.81,2.84-2.68,5.35-4.39,7.72-3.26,4.51-7.09,9.12-8.41,14.65a10.4,10.4,0,0,0,.54,7.1c1.31,2.57,3.79,4.51,5.3,7,3.42,5.69,5.29,12.18,8.87,17.79a42.36,42.36,0,0,0,9.24,9.95c-4.12-2.13-7-3.84-9.49-8a12.1,12.1,0,0,0,.29,3.91c-3.34-2.64-3.53-3.25-5.87-7.91a10,10,0,0,0-.34,3.77C198.7,496.49,198.5,488.18,194.08,481.67ZM307,519.53c.12-.42,0-1,.14-1.42-1.14.56-2.26,1.15-3.37,1.75.33-1.54.77-3.12,1.25-4.61-3.58,2.89-8.61,6.73-13.24,6.86a32.88,32.88,0,0,0,1-5.38,18,18,0,0,1-10.28,5.73,7.49,7.49,0,0,0,1.18-3.43,5.54,5.54,0,0,1-4.2,2.51,10.08,10.08,0,0,0-1-2.39c-.52-.79-1.84-1-2.21-1.95s.73-3.15.95-4.2c-.56-.07-1.35-.75-1.95-.81.78-2.3,1.27-3.2,1-5.1-.08-.57-.94-2.57-1.1-3.35s-.72.27-1.27,1.52-1.29.46-1.64,1.9c-.17.71.62,1.85.45,2.76-.69,3.73-4.63,3.21-4,7.57.17,1.29.51,2.38.58,3.38a24.87,24.87,0,0,1-6.38-3.64,28,28,0,0,0,2.87,4.33c-4.41-.76-6.41-5.18-9.8-7.11.48,1.92,1.92,3.38,2.44,5.28-5.13,1.12-10-5.58-12.76-7.32a9.58,9.58,0,0,1,.54,2.78c-5.08-1-10.91-5.26-13.7-9.57,0,1,.18,2.11.24,3.18-1.14-.65-1.8-1.7-2.88-2.43a7.45,7.45,0,0,1-.16,2c-3.1-1.39-4.08-5.21-6.66-7.11.17,2.14,1,4.36.34,6.37l-.32-.23a73.57,73.57,0,0,1-7.82-6.62c-4.73-4.59-7.3-10.72-10-16.61a49.57,49.57,0,0,0-4.94-9c-2.05-2.78-4.35-4.74-4.2-8.47.26-6.66,5.44-12.1,9.06-17.25,1.88-2.69,3.67-5.53,4.31-8.79.56-2.85-.22-5.77.37-8.61,1.37-6.61,9.93-7.07,15.13-5.6,6.8,1.92,12.69,6.23,18.82,9.6a31.11,31.11,0,0,0,9.7,3.83,74,74,0,0,0,11.52.9,143.06,143.06,0,0,1,23.38,2.05c7.07,1.29,14.2,2.44,21.27.57,6.1-1.61,11.73-4.63,17.85-6.17,5.87-1.47,13.55-1.7,17.57,3.73,1.94,2.63,1.18,5.53.54,8.46a17.7,17.7,0,0,0,.67,9.8c2.29,6.72,7.12,12.79,7.27,20.13.08,3.95-1.3,6-4.34,8.29a33.47,33.47,0,0,0-6.61,7.14c-3.87,5.37-7.13,11-12.38,15.16a52.42,52.42,0,0,1-9.63,6c.68-1.77.65-4,.87-6.12C319.53,513.32,311.39,518.78,307,519.53ZM261,678.11q-.72,1.82-1.35,3.66c-.32,1-.53,3.1-1.15,3.77a9.37,9.37,0,0,1-2.24,1c-1,.46-1.93,1-2.87,1.49a62.58,62.58,0,0,0-11.54,8.17c-.81.74-1.59,1.5-2.33,2.31-1,1.1-1.08,1.65-2.42.69-2.35-1.68-3.82-4.64-5.44-6.95-6.94-9.9-14.3-19.51-20.87-29.67C204.58,653,198.07,642.3,196,631c-2.48-13.4,4.52-26.63,8.18-39.13a56.22,56.22,0,0,0,9.93,10.68,70,70,0,0,0,10,6.89c4,2.18,13.33,6.33,17,1.7,2.83-3.62-.82-9-2.23-12.44a66,66,0,0,1-4.19-16.36,69.91,69.91,0,0,1-.25-16.42c.27-2.65.71-5.27,1-7.92.06-.51.64-2.64-.47-1.85-.73.5-1,3-1.26,3.9-3,11.86-1.63,24.74,1.5,36.4a34.38,34.38,0,0,0-8.53,3.42c-1.45.75-2.89,1.55-4.27,2.42-.86.54-2.23,2.07-3.15,2.33-1.13.31-3.49-2.33-4.45-3.25a59.6,59.6,0,0,1-4.81-5.25,105,105,0,0,1-7.73-10.88c-10-16-18.31-34.47-13.66-53.65a54.62,54.62,0,0,1,12.07-23.14l.13-.12a32.6,32.6,0,0,0,3.61,3.46,21.85,21.85,0,0,1,.12-5.61c2.74,7,9.81,10.72,14.07,13.37a7.89,7.89,0,0,1,.67-3.43c.91,3.49,9.73,6.31,13,7.26,0-1.7-.4-3.77.15-5.34,3.06,7.56,8.93,7.94,14.91,11.6a8.28,8.28,0,0,0,.37-4.55c2.2,4.3,10,5.83,14.25,7a16.69,16.69,0,0,1-2.33-3.73c3.27,1.82,7.68,2.76,11.76,4.08a43.25,43.25,0,0,0-9.79,7.55c-12.48,12.84-16.83,32-17.21,49.36a154.31,154.31,0,0,0,3.85,36.85c2.17,9.61,5.38,19.47,11,27.65a35,35,0,0,0,9.88,9.87A53.47,53.47,0,0,0,261,678.11Zm33.14-17.52a56.68,56.68,0,0,0-18.77.95c-1.46.29-2.93.59-4.38,1s-1.7-.09-2.89-1a39,39,0,0,1-5.72-5.7c-6.65-8.13-10.29-18.43-12.79-28.5a145.77,145.77,0,0,1-4.22-37.62c.25-11.67,2.06-23.64,6.9-34.34a48.75,48.75,0,0,1,18.35-21.61c.54-.34,1.1-.66,1.66-1a21.28,21.28,0,0,1,6.59,3.33c-.14-.83-1.61-4.29-2-5.56l.1-.15c1.39,1.07,6.06,5.42,6.86,7.27,4.81-3.52,4.08-5.1,5.22-7.54.1.18.19.35.28.54a25.94,25.94,0,0,1,.88,2.9,5.87,5.87,0,0,1,0,1.25c2.73-.33,5.23-.08,7.89-1.15,1.12-.45,2.21-1,3.27-1.51.9.36,1.8.74,2.68,1.16a46.77,46.77,0,0,1,6.6,3.85,49.46,49.46,0,0,1,10.49,10c6.89,8.85,10.78,19.83,13,30.73a97.66,97.66,0,0,1,1.57,17.82c.1,5.75.68,11.9-.43,17.56-2.25,11.53-6,22.83-13.17,32.28a35.76,35.76,0,0,1-12.64,10.66,70.62,70.62,0,0,1-7.3,3l-3.72,1.33C296.67,661.15,295.81,660.83,294.09,660.59Zm52.78-72.85c1.32,7.68,2.35,15.36,1.78,23.17a61,61,0,0,1-5.87,21.62c-1.28,2.72-3.7,5.66-4.32,8.6s.32,6.9.59,10c.67,7.43,1.7,14.88,4.53,21.82a44.42,44.42,0,0,0,5.29,9.44c-3.84,1.78-7.2,5.51-9.66,8.87-1,1.36-1,1.09-2.5.11a39.06,39.06,0,0,1-3.26-2.45c-2.37-1.93-4.68-3.94-6.94-6-8.22-7.5-16.1-17.6-27.05-21.08,5.31-1.95,10.72-3.92,15.36-7.23s8-7.67,10.93-12.29a67.66,67.66,0,0,0,7.3-15.77c1.84-5.75,3.54-11.85,3.68-17.92.27-12.06,0-24.43-3.08-36.12-2.71-10.18-6.83-20-13.85-28a48.4,48.4,0,0,0-10.88-9.24,45.28,45.28,0,0,0-6.11-3.16l-.85-.34c2.56-1.36,5-2.89,7.55-4.26a8.07,8.07,0,0,1-1.2,5.81c4.18-1.55,9.27-4.35,10.7-8.93-.26,2.66-.05,5.43-.8,8,4-2.26,8.71-4.05,11.75-7.49.25,2.78,1,6.59,1.17,7.43a112.6,112.6,0,0,0,2.76,11.47c2.13,7.29,4.8,14.41,7.28,21.58A140.24,140.24,0,0,1,346.87,587.74ZM409,549.25c-4.88,4.83-12.91,6.87-19.31,8.65a170.54,170.54,0,0,1-22.84,4.53c-3.89.52-7.8.93-11.71,1.09a53.49,53.49,0,0,1-5.94,0,33.36,33.36,0,0,1-5.93-.53c-1.11-.29-.49.41-1.2-.82a8.75,8.75,0,0,1-.44-1.21c-.29-.81-.59-1.62-.89-2.43l-2.08-5.7c-1.28-3.54-2.52-7.09-3.63-10.69a110.13,110.13,0,0,1-2.82-10.89c-.36-1.83-.67-3.67-.91-5.52,0-.34,0-1.46-.17-2.41a10.94,10.94,0,0,0,1.06-2.14,2.81,2.81,0,0,1,1,2.3,35.23,35.23,0,0,0,3.47-1.65c4.17,5,9.93,8.9,15.51,12a64,64,0,0,0,20.61,7,193.51,193.51,0,0,0,23.29,2.42c3.79.19,7.59.22,11.38.34C411.08,543.74,411.34,547,409,549.25Z" transform="translate(-86.89 -129.4)"/><path class="cls-9" d="M137.21,455.51c-.68-.57-2.07-.05-1.68,1a69.27,69.27,0,0,1,4.7,28.25,1.74,1.74,0,0,1-.1-.19c-.57-.95-2.27-.33-1.86.78,2.33,6.34.69,13.88,5.71,19.14,4.17,4.38,10.72,5.69,16.48,6.32a4,4,0,0,0,2.31-.37c8.14-7.43,4.24-19-.42-27.26C156.13,472.14,146.79,463.59,137.21,455.51Zm24,53.35a.92.92,0,0,1-.51.17c-5.36-1.07-11.59-2-15.46-6.27-3.68-4.05-3.2-9.86-4.21-15a1,1,0,0,0,1.09-1,72.08,72.08,0,0,0-3.42-27.34c7.82,6.74,15.27,13.94,20.67,22.82C164,489.88,169.22,501.6,161.21,508.86Z" transform="translate(-86.89 -129.4)"/><path class="cls-10" d="M248.33,339.93c0-.11-.08-.2-.11-.29a15.34,15.34,0,0,1-1-5.36,40.37,40.37,0,0,0-5.59,1.78c1.76,3.4,1.4,7.73.29,11.64C244.21,345.94,245.4,341.15,248.33,339.93Z" transform="translate(-86.89 -129.4)"/><path class="cls-10" d="M300,334a10.7,10.7,0,0,0-5.15,5c5.4-3.83,14.11-.18,19.44-1.83.08-.13.16-.26.25-.39a17,17,0,0,1,5.73-4.89c-7.35,1.26-15.21.95-22.16,3.88A15.45,15.45,0,0,1,300,334Z" transform="translate(-86.89 -129.4)"/><path class="cls-8" d="M213.81,273.81c-.91,13.83-8.14,32.31-6.45,46.7,2.09,17.75,18.81,26.35,32.36,27.82,1.15-3.42,1.7-7.3.42-10.77-1-2.75-4.52-3.33-6.92-4.65A35.93,35.93,0,0,1,219.1,319.5c-3.76-6.55-4.69-14-4.14-21.47.53-7.12,3.55-15,1.43-22a48.27,48.27,0,0,0-2.76,5.23,57.7,57.7,0,0,1,.29-7.43Z" transform="translate(-86.89 -129.4)"/><path class="cls-8" d="M370.35,295.88a46.3,46.3,0,0,0-1.75-5.66c-2.18,4.21-2,8.67-2.06,13.27a72.43,72.43,0,0,1-1,11.95,36,36,0,0,1-8.71,18.22c-4.81,5.12-11.18,8.25-17.87,10.12-1.28.35-3.3.5-4.35,1.36a7.91,7.91,0,0,0-1.72,3.22,15.28,15.28,0,0,0-.68,2.64,4.36,4.36,0,0,0,1.27,1.56c1.73,1.39,6.84,2.1,8.8,1.91,5-.46,11.16-1.11,17.16-5.81,7.14-5.59,10.49-13.23,11.25-23.34.47-6.32-.59-19.68-.25-29.9Z" transform="translate(-86.89 -129.4)"/><path class="cls-10" d="M305.39,328.84c-10.57,3.59-23.27-4.27-33.52,1.1l1-.95a13.32,13.32,0,0,0-4.48,5.1c7.58-3.88,21.68.18,28.85-1a5.36,5.36,0,0,0-.82.76,10.21,10.21,0,0,1,1.08-.73,20.16,20.16,0,0,1,6-2.07A10.55,10.55,0,0,0,305.39,328.84Z" transform="translate(-86.89 -129.4)"/><path class="cls-10" d="M249.56,331.69a12.68,12.68,0,0,0,.6,7.23c1.89-1.41,2.79-3.46,5-5.44,4.21-3.77,10.17-3.37,15-5.55a12.15,12.15,0,0,0-3.28,4.3,16,16,0,0,1,10-7.2c.95-1,1.89-1.94,2.82-2.95C270.82,325.65,255.38,322.6,249.56,331.69Z" transform="translate(-86.89 -129.4)"/><path class="cls-10" d="M326.3,336.09a29.59,29.59,0,0,0-8.37,1.36c.56-1.27,1.31-2.51,1.93-3.79a13.09,13.09,0,0,0-4.37,5.13,7.13,7.13,0,0,0-.53,3.72c3.47-2.35,9.93-2.33,13.34.29,2.29,2.65,3.13,2,3.68,2.85a9.69,9.69,0,0,1,.57-.85C329.18,343.24,326.41,339.81,326.3,336.09Z" transform="translate(-86.89 -129.4)"/><path class="cls-10" d="M184.27,378c1.89,3.8,5.53,6.1,9.94,6.92,4.26.79,12.62-.84,14.92-4.08-.91,0-1.83-.17-2.52-.21a32.32,32.32,0,0,1-15.16-4.6c-3.13-2-5.42-4.94-8-7.49C182.39,371.1,183.32,376.05,184.27,378Z" transform="translate(-86.89 -129.4)"/><path class="cls-10" d="M364.49,404.44c3.7,5.64,10.83,11.89,16,12.64,5.61.82,10.44-5.57,8.06-10.25,0-.07-.07-.13-.1-.19A26.29,26.29,0,0,1,364.49,404.44Z" transform="translate(-86.89 -129.4)"/><path class="cls-5" d="M326.3,336.09a7.44,7.44,0,0,1,.34-2.5c.78-2.56,2.76-4.39,4.47-6.35a12.17,12.17,0,0,0,3.27-7.37c-6.5,6.29-17.83,4.62-25.86,3.25-9-1.55-17.87-3.93-27-4.85-7.65-.77-15.76-.77-22.82,2.67-4.57,2.22-8.17,6-9.15,10.75,5.82-9.09,21.26-6,30.09-9.61-.93,1-1.87,2-2.82,2.95a24.29,24.29,0,0,1,6-.81c8.31-.12,17.62,3.3,25.69.32.55-.2.32.44.26.62a6.81,6.81,0,0,1-1.46.58,15.69,15.69,0,0,1-3,.66,39.75,39.75,0,0,1-7.07,0c-4.9-.3-9.84-.91-14.75-.54a19.59,19.59,0,0,0-9.64,3.14l-1,.95c10.25-5.37,22.95,2.49,33.52-1.1a10.55,10.55,0,0,1-1.87,2.22c1.48-.32,3-.58,4.4-1a31.79,31.79,0,0,0,10.26-4.62c1-.71-.29,1.21-.14,1A8.51,8.51,0,0,1,316,328a24.73,24.73,0,0,1-4.23,2.07c-3.17,1.22-6.5,1.92-9.69,3.05A17.19,17.19,0,0,0,300,334a15.45,15.45,0,0,0-1.89,1.8c6.95-2.93,14.81-2.62,22.16-3.88,2.29-1.33,4.74-2.45,6.88-3.92.83-.57,0,.8,0,.78-.32.57-1.63,1.12-2.17,1.47-1.27.82-2.56,1.59-3.8,2.45-.45.31-.9.63-1.34,1-.62,1.28-1.37,2.52-1.93,3.79A29.59,29.59,0,0,1,326.3,336.09Z" transform="translate(-86.89 -129.4)"/><path class="cls-8" d="M253.06,444.68c10.25,4.69,22.16,5.45,33.38,5.43,6.79,0,17.82,1.35,24.12-1.54,3.88-1.79,13.34-9.93,21.13-12.07a30.16,30.16,0,0,0-4.27.76c-6.12,1.54-11.75,4.56-17.85,6.17-7.07,1.87-14.2.72-21.27-.57a143.06,143.06,0,0,0-23.38-2.05,74,74,0,0,1-11.52-.9,31.11,31.11,0,0,1-9.7-3.83l-1.68-.95C245.67,438.45,248.52,442.6,253.06,444.68Z" transform="translate(-86.89 -129.4)"/><path class="cls-10" d="M249.93,434.64a26.94,26.94,0,0,1-9.43-2.28c1.48.92,2.92,1.79,4.31,2.55,11.08,6.07,23.95,3.46,36,5,6.33.81,12.58,2.41,18.95,2.83,5.84.38,11.16-1.52,16.54-3.49-2.75-.23-5-1.6-7.75-4.22-6.75-6.42-6.41-17.38-8.87-25.87-.77-2.66-1.36-7.14-3.74-10.18a4.44,4.44,0,0,0-7.78,1.85c-2,8.78-3.89,16.47-11.8,22.94-4.72,3.86-10.87,5.79-16.32,8.28C256.76,433.54,253.84,434.79,249.93,434.64Zm27-2.88c8.41.27,17.69,2,24.69,6.92-10.25-4.73-22.54-5.92-33.69-5.2a58.74,58.74,0,0,0-11.35,1.8C262.82,432.31,270.06,431.55,276.92,431.76Z" transform="translate(-86.89 -129.4)"/><path class="cls-10" d="M406.64,543.59c-3.52-.1-7.05-.14-10.57-.32a193.51,193.51,0,0,1-23.29-2.42,63.85,63.85,0,0,1-20.47-7c1.56,5.32,8.41,10.27,12.73,13,9,5.73,22.66,7.53,33.16,6.24C404.31,552.43,410.37,546.58,406.64,543.59Z" transform="translate(-86.89 -129.4)"/><path class="cls-10" d="M232.05,575.67c-1-7.08-4.83-29.19-7.26-25.73-7,10-8.54,20.45-6.35,33.19,1.12,6.51,3.46,12.17,9.11,16.15l.09.06a30.67,30.67,0,0,1,7.54-2.92A87.77,87.77,0,0,1,232.05,575.67Z" transform="translate(-86.89 -129.4)"/><path class="cls-10" d="M339.05,651.08c-.27-3.05-1.22-6.93-.59-10s3-5.88,4.32-8.6a61,61,0,0,0,5.87-21.62c.57-7.81-.46-15.49-1.78-23.17a140.24,140.24,0,0,0-5.7-22.39c-2.48-7.17-5.15-14.29-7.28-21.58a112.6,112.6,0,0,1-2.76-11.47c-.07-.39-.27-1.42-.5-2.69a8,8,0,0,1-1.14-1.7c-2.79,6-8.1,9.54-13.84,12.36a51.28,51.28,0,0,1,4.15,4.19c7,8,11.14,17.82,13.85,28,3.11,11.69,3.35,24.06,3.08,36.12-.14,6.07-1.84,12.17-3.68,17.92-.22.68-.44,1.34-.68,2-.14,4.57-1.2,9.09-1.2,13.75a42.09,42.09,0,0,0,12.13,29.91C340.68,665.44,339.7,658.25,339.05,651.08Z" transform="translate(-86.89 -129.4)"/><path class="cls-10" d="M326.26,607.57c2.25,5.44,5.24,11.44,6,17.44a107.51,107.51,0,0,0,2.94-11.76c1.11-5.66.53-11.81.43-17.56A97.66,97.66,0,0,0,334,577.87c-2.2-10.9-6.09-21.88-13-30.73a50.17,50.17,0,0,0-6.09-6.53c-2.18,1-4.4,2-6.56,2.95-4.11,1.81-13.35,2.78-15.75,6.82-2.79,4.66,2.52,12.27,4.87,15.67C307.12,580,319.71,591.66,326.26,607.57Z" transform="translate(-86.89 -129.4)"/><path class="cls-11" d="M184.29,332.19a43.09,43.09,0,0,0,9.39,25.93c5.95,7.47,15.36,15.32,25.5,12.46a22.2,22.2,0,0,0,5.59-2.51c-22.15-2-34.38-25.63-32.84-46,1.34-17.64,13-32.45,16.69-49.31-.4.06-.79.14-1.18.22-.85,2.05-1.69,4.1-2.5,6.19q-1.69,4.4-3.74,8.66c-2.49,5.2-5.41,10.18-8.13,15.26C188.21,312.15,184.11,321.74,184.29,332.19Zm4.55-12.85c-1.61,9.93-1.23,20.28,3.37,29.4a41.06,41.06,0,0,0,20.11,18.79,11.38,11.38,0,0,0,2.72.94c-4.88-.35-10.1-3.9-13.79-6.83a37,37,0,0,1-10.72-13.51C186.42,339.08,186.29,328.86,188.84,319.34Z" transform="translate(-86.89 -129.4)"/><path class="cls-11" d="M387.16,322.57c-1.56-5.55-3.32-11-4.61-16.66q-1.07-4.61-1.75-9.28c-.33-2.21-.71-4.39-1.09-6.58l-1.1-.48c-.09,17.26,8.06,34.26,5.51,51.77-2.94,20.2-20,40.56-42.1,37.69a22.33,22.33,0,0,0,4.92,3.68c9.26,5,20.16-.6,27.6-6.59a43.09,43.09,0,0,0,14.83-23.25C391.82,342.71,389.93,332.46,387.16,322.57Z" transform="translate(-86.89 -129.4)"/><path class="cls-11" d="M218.76,372.62c-1.21.28-2.66.16-3.82.53-.69-.27-1-.07-1,.61-.13.39-.26.79-.37,1.2a13.92,13.92,0,0,0-.32,1.56c-.11.68-.07,1.39-.16,2.07a11.06,11.06,0,0,0,2-.65c3.91-1.69,7.12-3.89,8.77-7.21-.49.25-1,.49-1.5.71A22.51,22.51,0,0,1,218.76,372.62Z" transform="translate(-86.89 -129.4)"/><path class="cls-11" d="M207.5,388.06c-.05-.09-.09-.18-.14-.26a9.42,9.42,0,0,0-.78.88A8.73,8.73,0,0,1,207.5,388.06Z" transform="translate(-86.89 -129.4)"/><path class="cls-11" d="M194.08,481.67c4.42,6.51,4.62,14.82,9,16.24a10,10,0,0,1,.34-3.77c2.34,4.66,2.53,5.27,5.87,7.91a12.1,12.1,0,0,1-.29-3.91c2.48,4.13,5.37,5.84,9.49,8a42.36,42.36,0,0,1-9.24-9.95c-3.58-5.61-5.45-12.1-8.87-17.79-1.51-2.5-4-4.44-5.3-7a10.4,10.4,0,0,1-.54-7.1c1.32-5.53,5.15-10.14,8.41-14.65,1.71-2.37,3.58-4.88,4.39-7.72.68-2.4.48-4.89.47-7.35a9.82,9.82,0,0,1,1.85-6c1.08-4.3,2.62-8.43,2.74-13.11.2-7.4-.74-17.16-3.52-24.35a49.66,49.66,0,0,1-1.53,4.75c-7.19,22.15-25.72,40.54-25.83,64.9-.05,10.25,3.9,19,10,26.4C192.15,486,193.87,482.93,194.08,481.67Z" transform="translate(-86.89 -129.4)"/><path class="cls-11" d="M210,596.09a59.6,59.6,0,0,0,4.81,5.25l.75.74c.87.66,1.61,1.39,2.35,2.07a1.91,1.91,0,0,0,1.35.44c.81-.23,2-1.44,2.82-2.09-5.14-6.86-11.13-12.68-14.23-19.66-3.23-7.28-8.63-27.2-8.61-35.27,0-13.92,6.1-24.45,13-32.16a21.64,21.64,0,0,1-7.71-9.26,21.85,21.85,0,0,0-.12,5.61,32.6,32.6,0,0,1-3.61-3.46l-.13.12a54.62,54.62,0,0,0-12.07,23.14c-4.65,19.18,3.63,37.62,13.66,53.65A105,105,0,0,0,210,596.09Zm-11.63-75.58c-13.66,23.51-.73,52,14.58,71.08C196.15,573.84,182.66,543.12,198.34,520.51Z" transform="translate(-86.89 -129.4)"/><path class="cls-11" d="M193.1,626.82c-.52-.61-3.74-.76-4.5-.93-1.62-.37-3.23-.8-4.83-1.27.15.61.31,1.21.48,1.81l.84,3a64.6,64.6,0,0,0,8.56,2.05C193.49,630.6,193.66,627.47,193.1,626.82Z" transform="translate(-86.89 -129.4)"/><path class="cls-11" d="M231.61,692.22c1.07,1.53,2.08,3.35,3.32,4.88C227.83,679.19,213.3,665,207.3,646c-3-9.53-2.54-16.27.06-26,1.47-5.51,5.27-12.46,5.55-18.4a58.32,58.32,0,0,1-8.75-9.69C200.5,604.34,193.5,617.57,196,631c2.09,11.33,8.6,22,14.76,31.58C217.31,672.71,224.67,682.32,231.61,692.22Z" transform="translate(-86.89 -129.4)"/><path class="cls-8" d="M222.36,432.54c-4,9.45-2,16.48,5.17,23.4,5,4.83,17.57,7,14.49-3.53a42.87,42.87,0,0,0-3.58-8c-1.25-2.46-3.63-4.88-5.5-6.94C230.69,435,226.18,431,222.36,432.54Z" transform="translate(-86.89 -129.4)"/><path class="cls-8" d="M334.67,443.49c2.14,10.05-1.19,16.56-9.6,22-5.87,3.77-18.59,3.51-13.53-6.26A42.67,42.67,0,0,1,316.6,452c1.71-2.18,4.51-4.09,6.73-5.76C326,444.26,331.21,441.26,334.67,443.49Z" transform="translate(-86.89 -129.4)"/><path class="cls-9" d="M422.25,537.5c-5.67-16.75-27.25,9-13.39,13.28C414.78,552.59,423.74,546.37,422.25,537.5Z" transform="translate(-86.89 -129.4)"/><path class="cls-12" d="M482.6,161.49c-13.5-26.52-53.84-31-69.25-3.92-15.41-27.08-55.75-22.6-69.24,3.92-13.1,25.75,3.54,54.13,21.38,72.8,11.91,12.46,25.83,22.84,40.31,32.11,1.62,1,2.92,1.83,4.05,2.4-2.67,3.71-5.85,8.59-4.64,9.2,1.49.74,5.48,1.08,7.06,1.19a9.69,9.69,0,0,0,1.32,0c1.58-.11,5.58-.45,7.06-1.19,1.18-.59-1.8-5.23-4.42-8.9a39,39,0,0,0,4.68-2.7c14.48-9.27,28.4-19.65,40.31-32.11C479.06,215.62,495.7,187.24,482.6,161.49Z" transform="translate(-86.89 -129.4)"/><path class="cls-9" d="M411.93,280.06c-.48,3.67-.88,7.35-1.23,11q-.48,5-.8,10l-.17,2.51-.15,2.51c-.1,1.68-.18,3.35-.25,5s-.14,3.35-.2,5-.12,3.35-.16,5-.08,3.35-.1,5-.06,3.35-.07,5c0,3.35,0,6.7,0,10.05s.1,6.71.17,10.06c.34,13.4,1.14,26.78,1.73,40.16s1.11,26.77,1.5,40.16l1.19,40.16q.27,10,.43,20.07l.13,10c0,3.34,0,6.69,0,10s0,6.69,0,10-.1,6.68-.17,10c0,1.68-.09,3.35-.14,5l-.18,5-.24,5c-.1,1.67-.18,3.34-.29,5-.23,3.34-.46,6.67-.77,10l-.24,2.49-.26,2.49c-.16,1.67-.38,3.32-.58,5-.82,6.63-1.94,13.23-3.39,19.76l.22.06.66-2.43.33-1.21.3-1.22.6-2.44.55-2.46.27-1.23.24-1.24.49-2.46c.16-.83.3-1.66.45-2.48s.3-1.65.42-2.48c.26-1.66.54-3.32.76-5l.35-2.5.31-2.5c.41-3.33.75-6.67,1.05-10,.16-1.67.28-3.35.42-5l.35-5,.27-5c.08-1.67.17-3.35.23-5s.14-3.35.18-5,.09-3.35.12-5q.09-5,.12-10.06c0-13.41-.33-26.82-.87-40.21q-.39-10.05-.92-20.08c-.17-3.34-.36-6.69-.56-10l-.6-10c-.82-13.37-1.56-26.75-2-40.13s-.54-26.79-.59-40.17l0-10v-10c0-1.67,0-3.34,0-5s0-3.34.06-5l0-2.51,0-2.51c0-1.67.06-3.34.11-5,.27-10.39.76-20.77,1.59-31.13l-.45,0Z" transform="translate(-86.89 -129.4)"/><path class="cls-9" d="M483.4,161.08a40.84,40.84,0,0,0-15.66-16.57,43.8,43.8,0,0,0-21.26-6.09,39.41,39.41,0,0,0-19.12,4.31,35.92,35.92,0,0,0-14,13.08,35.79,35.79,0,0,0-14-13.08,39.32,39.32,0,0,0-19.11-4.31A43.8,43.8,0,0,0,359,144.51a40.84,40.84,0,0,0-15.66,16.57c-6.07,11.93-6.39,25.31-.95,39.78s15.2,26.42,22.48,34c10.65,11.15,23.51,21.39,40.48,32.24,1.21.78,2.26,1.43,3.2,2-4.88,6.93-4.56,8.22-4.42,8.78a1.35,1.35,0,0,0,.71.91c1.5.75,5,1.11,7.12,1.26l.28,0,.45,0h.27q.36,0,.72,0c2.1-.14,5.84-.49,7.41-1.28a1.38,1.38,0,0,0,.71-.9c.14-.6.45-1.81-4.2-8.46,1.08-.56,2.31-1.32,3.82-2.29,17-10.85,29.83-21.09,40.48-32.24,7.28-7.63,17.1-19.72,22.48-34S489.47,173,483.4,161.08Zm-22.83,72.59c-10.55,11-23.31,21.2-40.15,32a38.88,38.88,0,0,1-4.56,2.64l-1,.45.63.89c3.82,5.36,4.42,7.16,4.51,7.68a27.14,27.14,0,0,1-6.48,1c-.24,0-.48,0-.72,0l-.48,0h-.17a27.17,27.17,0,0,1-6.31-1c.09-.53.72-2.39,4.73-8l.61-.85-.94-.47c-1.17-.6-2.6-1.49-4-2.36-16.84-10.77-29.6-20.93-40.15-32-11.33-11.86-36.08-42.59-21.23-71.77,6.53-12.83,20.41-21.34,35.36-21.68,13.92-.33,25.68,6.16,32.3,17.8l.78,1.37.78-1.37c6.62-11.64,18.4-18.13,32.31-17.8,14.95.34,28.83,8.85,35.35,21.68C496.64,191.08,471.9,221.81,460.57,233.67Z" transform="translate(-86.89 -129.4)"/><path class="cls-13" d="M381.38,153.68c-9.68-3-21.18,5.25-24.11,13.57-3.6,10.2-1.45,17.48,8.43,9.07,5.56-4.73,20.67-6.79,22.68-14C389.42,158.6,386,155.13,381.38,153.68Z" transform="translate(-86.89 -129.4)"/><path class="cls-13" d="M363.52,195.12c1.69-4-.42-8.07-5.82-8.53-4.25-.37-5.93,5.39-5.79,7.84C352.21,199.69,361.45,200.06,363.52,195.12Z" transform="translate(-86.89 -129.4)"/></g></g></svg>