<svg xmlns="http://www.w3.org/2000/svg" xmlns:xlink="http://www.w3.org/1999/xlink" viewBox="0 0 448.99 576.36"><defs><style>.cls-1{isolation:isolate;}.cls-2{fill:#9fcef0;}.cls-3{fill:#808386;}.cls-4{fill:url(#Áåçûìÿííûé_ãðàäèåíò_46);}.cls-5{fill:#f1f2f2;}.cls-6{fill:#d1d2d4;}.cls-7{fill:#fff;}.cls-8{fill:#e6d0a1;}.cls-19,.cls-9{fill:#cbd9e8;}.cls-10{fill:#e6e0d6;}.cls-11,.cls-21{fill:#a97d50;}.cls-12{fill:#d96259;}.cls-13{fill:#010101;}.cls-14{fill:#414142;}.cls-15,.cls-16,.cls-20,.cls-22,.cls-23{mix-blend-mode:soft-light;}.cls-15{fill:url(#Áåçûìÿííûé_ãðàäèåíò_3);}.cls-16{fill:url(#Áåçûìÿííûé_ãðàäèåíò_3-2);}.cls-17{fill:#828085;}.cls-18{fill:#121113;}.cls-19,.cls-21{mix-blend-mode:multiply;}.cls-20{fill:#f7f2e5;}.cls-21{opacity:0.35;}.cls-22{fill:#f8f7f7;}.cls-23{fill:#f7dacf;opacity:0.6;}</style><linearGradient id="Áåçûìÿííûé_ãðàäèåíò_46" x1="266.62" y1="560.92" x2="359.27" y2="646.27" gradientUnits="userSpaceOnUse"><stop offset="0" stop-color="#7eb2c7"/><stop offset="0.03" stop-color="#7eafc3"/><stop offset="0.26" stop-color="#7f9ca8"/><stop offset="0.5" stop-color="#808e95"/><stop offset="0.74" stop-color="#80868a"/><stop offset="1" stop-color="#808386"/></linearGradient><linearGradient id="Áåçûìÿííûé_ãðàäèåíò_3" x1="297.59" y1="399.52" x2="297.59" y2="449.08" gradientUnits="userSpaceOnUse"><stop offset="0" stop-color="#7eb2c7"/><stop offset="0.14" stop-color="#a0c6d6"/><stop offset="0.3" stop-color="#c2dbe5"/><stop offset="0.47" stop-color="#ddebf0"/><stop offset="0.64" stop-color="#f0f6f8"/><stop offset="0.81" stop-color="#fbfdfd"/><stop offset="1" stop-color="#fff"/></linearGradient><linearGradient id="Áåçûìÿííûé_ãðàäèåíò_3-2" x1="392.89" y1="399.52" x2="392.89" y2="449.08" xlink:href="#Áåçûìÿííûé_ãðàäèåíò_3"/></defs><title>bull_03</title><g class="cls-1"><g id="Layer_1" data-name="Layer 1"><path class="cls-2" d="M422,135.63c-24.22-9.38-54.55-7.95-77.81,2.8C317,151,302.54,167.61,288.33,193.9c-25.89,47.89-45.8,48.48-94.56,67s-81.84,32.44-102.36,91.29c-13.85,39.71,5.14,86.51,43,98,28.24,8.6,53,2.39,80.23,15.88,26.23,13,48,22.25,78.21,20.64,26.48-1.41,37.65-19.23,61.17-27,28.85-9.54,61.37,1,89.65,5.53,42.51,6.83,74.16,2.21,85.92-44.59,8-31.81,10.67-75.78-6.37-104.62-15.68-26.54-53.2-41.4-64.3-69.16-5.91-14.79,1-27.08,2.54-42.1C466.22,159.77,438,141.85,422,135.63Z" transform="translate(-86.89 -129.4)"/><path class="cls-2" d="M479.44,210.36c-38.1,10.29,7.07,90.43,37.53,46.75C530.85,237.21,504.34,203.63,479.44,210.36Z" transform="translate(-86.89 -129.4)"/><path class="cls-2" d="M420.27,417.52c-17.07-7-37.48-7.74-53.49,1.39C354.27,426,345.56,438.6,333,445.71c-11.58,6.59-25.59,8-37,14.89s-19.13,23.67-10,33.34c2.75,2.9,6.54,4.58,10.35,5.81,24.63,8,46,5.35,71.69,9,12.74,1.81,11,1.4,22.76,6.6C427.53,531.55,529.09,461.85,420.27,417.52Z" transform="translate(-86.89 -129.4)"/><path class="cls-3" d="M255.11,687.41H432.57c.52,0,3.2.38,3.61,0s.18-3.86.21-4.54l3.09-73.35c.37-8.6.91-17.22,1.09-25.82.13-6-5.08-5.11-9.34-5.11H260.09c-4,0-11.63-1.48-11.84,4.25-.14,3.72.35,7.57.53,11.29q.48,10.05.95,20.11.45,9.46.89,18.92c.09,1.94.19,3.88.28,5.82,0,.73.41,2.72.15,3.3q.24,5,.47,10,.49,10.18,1,20.37l.42,9c.06,1.25-.35,4,.25,5.16C253.64,687.67,253.7,687.41,255.11,687.41Zm90-68.19c2.76-3.31,7.76-3.58,11.21-1.22s4.48,6.8,3.22,10.72a21.1,21.1,0,0,1-5.95,8.61c-2.42,2.27-7,7.18-10.41,5-5.64-3.61-12.94-9.38-13-16.8S339.93,613,345.14,619.22Z" transform="translate(-86.89 -129.4)"/><path class="cls-4" d="M253.52,589.85l3.65,91.93H431.52l4.34-91.89a5.41,5.41,0,0,0-5.4-5.66H258.92A5.4,5.4,0,0,0,253.52,589.85Z" transform="translate(-86.89 -129.4)"/><path class="cls-5" d="M381.51,427.09c-.92-6.25,6.59-13.44,12.83-10.61,5.9,2.68,9,10.95,4.05,16.08,6.5-1.66,13.13-6,14.13-13.14a20.33,20.33,0,0,0-5.8-16.86c-6-5.66-16.17-4.28-22.13.72C377.6,409.14,377.53,419.42,381.51,427.09Z" transform="translate(-86.89 -129.4)"/><path class="cls-5" d="M391.74,420c-2.83.46-4.48,2.41-4.06,5.61a5.62,5.62,0,0,0,4,4.64C397.87,431.64,396.44,421,391.74,420Z" transform="translate(-86.89 -129.4)"/><path class="cls-6" d="M233.91,409.61c-1.71-.44-2.47.84-2.58,2.17-.16,2.13.48,3.69-1,5.68-2.54,3.3-8.45,4.45-11.35,1s-1.61-10,3-11.42c-.77-1.64-.37-1.77-2-1.34a5.88,5.88,0,0,0-1.66,1,8.77,8.77,0,0,0-2.62,3.35,10.65,10.65,0,0,0-.28,7.85c2.68,7.49,12.29,8.11,17.49,2.79C234.66,418.83,238.64,410.81,233.91,409.61Z" transform="translate(-86.89 -129.4)"/><path class="cls-5" d="M292.53,432.56c-5-5-2-14.37,4.48-16.43,6.24-2,13.06,4.84,12.32,10.93,4.36-8.35,3.61-19.26-4.56-24.87-6.9-4.74-17.52-4.56-22.67,2.71-3.23,4.56-4.85,10.85-3.32,16.32C280.5,427.38,286.68,431,292.53,432.56Z" transform="translate(-86.89 -129.4)"/><path class="cls-5" d="M298,420.39c-2.08,1.22-3.77,5.32-2.94,7.66a3.81,3.81,0,0,0,5.49,1.82C304.49,427.41,303.09,417.4,298,420.39Z" transform="translate(-86.89 -129.4)"/><path class="cls-7" d="M223.84,296q-2.53-12.66-6-25.12a198.24,198.24,0,0,0-6.54-20.8c-2.33-5.87-5.84-11.57-12.1-13.71-6.43-2.2-14-1.06-20.63-.64-7.63.48-15.25,1.18-22.81,2.33-13.19,2-26.42,5.38-38.54,11.06C107.18,253.85,98.5,261.07,98.33,273c-.11,7.54,2.09,15.14,3.9,22.4s4,14.72,6.39,21.95c4.13,12.39,8,26.5,21.84,30.82,6.66,2.07,13.78,1.6,20.53.26,3.35-.66,6.65-1.54,9.93-2.49,1.12-.32,3.63-1.64,4.84-1.15s1.91,3.26,2.41,4.29A395.84,395.84,0,0,0,190.59,389a205.81,205.81,0,0,1-1.67-25.91c-.06-8.27-.29-16.76,1.16-24.93,1.1-6.19,7.65-7.5,12.59-9.52a82.67,82.67,0,0,0,19.88-11.15C229.09,312.29,225.22,302.91,223.84,296Zm-80.51,30c-4.73-3,.11-10.47,4.62-6.64C152.43,321.26,147.56,328.69,143.33,326Zm26.91-9.77c-3.5-3.65,1.35-10.58,4.9-6.08C181,313.43,174,320.15,170.24,316.26ZM193,306.19c-3.55-4,3.88-9.56,6.56-4.83S196.59,310.22,193,306.19Z" transform="translate(-86.89 -129.4)"/><path class="cls-8" d="M285.22,524.31A67.55,67.55,0,0,0,316,537.66c10.62,1.66,21.57,1.57,32.29,1.48s21.93.05,32.51-2.54A65.8,65.8,0,0,0,406.07,524c7.88-6.36,11.33-14.89,16.76-23.11a64.47,64.47,0,0,1-11.68,5.64c-18.25,6.89-38.62,9.54-58,10.06a99.4,99.4,0,0,1-30.44-4.32,128.15,128.15,0,0,1-17.23-6.3c-1.64-.74-3.27-1.52-4.87-2.35-1.91-1-2-.85-3.75.43-2.37,1.74-4.69,3.63-7.19,5.19-4.95,3.1-10.63,2.22-12.85-3.65-1.88-5-.18-12,2-16.65.43-.93.84-1.35.62-2.27a9.5,9.5,0,0,0-1.21-1.9,13.24,13.24,0,0,1-1.82-3.86c-.18-1.13,0-2.09,1.32-1.34.46.27.78,1.72,1,2.2a29.6,29.6,0,0,0,6,8.51c12,12.28,30.44,18.77,46.86,22.36,18.94,4.13,39,1.79,57.86-2,10.58-2.1,21.59-4.92,31-10.39,3.74-2.17,7.45-4.91,9.71-8.67,3-5,.86-10.28-1.62-15-2.61-5-6.27-9.55-7.95-15a18.6,18.6,0,0,1-.54-8.19c.3-2.34.73-4.72-.33-6.93-2.52-5.26-9.41-6.26-14.53-5.56s-10,3-14.69,5.35c-4.82,2.41-9.67,5-15,6.11-6.45,1.33-13.18.57-19.68,0a119.51,119.51,0,0,0-20.11-.05c-6.22.5-12.7,1.29-18.9.26-12.06-2-22-12-34.62-11.86-4.83.06-10.86,2.6-11.52,8-.31,2.55.53,5.09.57,7.63a18.82,18.82,0,0,1-2,8.31c-3.92,8.27-15.84,21.2-6.61,29.74,4.82,4.46,7.68,10.29,10.92,15.91A45.26,45.26,0,0,0,285.22,524.31ZM387.59,465.6a46.5,46.5,0,0,1,5.29-8.37,40.09,40.09,0,0,1,6.14-6.61c1.55-1.26,5.1-4.38,7.26-3.05,2.47,1.52,1.84,6.72,1.49,9.09a10.79,10.79,0,0,1-3.68,6.71c-2.31,2-5.21,2.89-7.92,4.17s-5.72,4.07-8.81,4.59C383.92,472.71,387.15,466.5,387.59,465.6ZM286.43,447.34c2.7.51,5.62,3.33,7.49,5.18a46.44,46.44,0,0,1,10.61,16c1.22,3.24-.57,4.23-3.56,2.57a85.63,85.63,0,0,0-9.3-4.87c-5.89-2.4-8.78-6.57-8.82-12.93C282.84,451,283.17,446.72,286.43,447.34Z" transform="translate(-86.89 -129.4)"/><path class="cls-7" d="M299.14,233.72c5,1,12.5.95,16.26,4.81s2.36,11.34,2.62,16.09c.72,13.4,1.46,26.81,2,40.23a222.23,222.23,0,0,1,12.92-36.29c2.42-5.32,4.77-11.31,8.29-16,3.68-4.92,9.62-5,15.27-5.18,8.94-.28,20.48-.35,24.63-10,1.72-4,1.9-8.44,2.24-12.7.47-5.9.93-11.8,1.29-17.7.3-5,.68-10,.89-15,.18-4.28.06-9-2.39-12.72-5.31-8-18.74-8-27.16-9.4q-18-3.07-36-6.15c-10.31-1.74-22-4.68-31.64.93-8.89,5.18-13.5,15.07-17.11,24.25-2.11,5.34-4.23,10.63-6.55,15.88-2.19,5-4.29,10.1-4.64,15.56C258.8,229.7,285.75,231.14,299.14,233.72ZM351.26,206c3.77-4,9.61,1.85,6.1,5.71S347.72,209.8,351.26,206Zm-22-3.24c2.08,0,2.79,1.22,3.5,3.23,2.08,5.95-6.72,7.16-7.53,2.28C324.8,205.46,326.31,202.78,329.3,202.8Zm-28.91-3.56c5.37.24,5.33,8.39-.27,8.32C294.84,207.49,295.28,199,300.39,199.24Z" transform="translate(-86.89 -129.4)"/><path class="cls-9" d="M407,536.15c-2.33.42-3,1.23-3.93,3.15a30.32,30.32,0,0,1-2.79,4.55c-4.48,6.3-10.3,11.3-16.58,15.72-3.28,2.3-6.68,4.4-10,6.64-2.79,1.89-4.52,2.3-7.23,0A87.3,87.3,0,0,1,352,550a6.77,6.77,0,0,1-1.34,2.9c.09-.1-1.27,1.37-1.2,1.13-.08.26.23.75.23,1,0,1.85.93,4.1,1.34,5.89l3.12,13.76c.39,1.71.08,1.47,1.57,1.65a60.4,60.4,0,0,0,7.12,0h64.38a71.52,71.52,0,0,0-11.94-32.41,39.39,39.39,0,0,0-3.81-4.63c-.62-.66-1.25-1.31-1.87-2C408.37,536,408.66,535.86,407,536.15Z" transform="translate(-86.89 -129.4)"/><path class="cls-10" d="M404.67,377.27c3.64,4.78,8.26,8.72,14.26,10.08,6.27,1.41,11.88-1.06,17.08-4.39,10.54-6.74,18.47-17.12,21.16-29.45,2.88-13.25-.6-25.94-5.84-38.11a351.82,351.82,0,0,1-13.57-37.33c-.63,7,.59,13.91,1.65,20.77-2.4-6.55-6.74-12.44-7.44-19.54-.54,3.53,0,7.15-.67,10.67a53.41,53.41,0,0,0-2.47-6c-2.41,5.95-.95,12.48-.62,18.68a53.91,53.91,0,0,1-1.48,16.84c-3,11.23-11,19.74-21.52,24.39-2.36,1.05-6.4,1.59-8,3.65-2,2.54-2,6.89-1.63,9.9C396.48,364.61,400.38,371.62,404.67,377.27Zm30.48,1a44.39,44.39,0,0,0,11.17-10.7c7-9.79,8.84-21.91,8.05-33.7,1.69,9.95.79,20.45-3.88,29.49a41.17,41.17,0,0,1-26.44,20.77,11.85,11.85,0,0,1-3.13.46C425.83,384.22,431.15,381,435.15,378.28Z" transform="translate(-86.89 -129.4)"/><path class="cls-9" d="M364.52,560.92c1.26,1.22,3.45,4.15,5.32,4.49s5.17-2.84,6.62-3.78c9.87-6.39,18.56-13.2,24.75-23.35a157.15,157.15,0,0,1-48.35,8.66A87.65,87.65,0,0,0,364.52,560.92Z" transform="translate(-86.89 -129.4)"/><path class="cls-10" d="M271.84,387.32a24.09,24.09,0,0,0,13-8.42c5.89-7.09,12.22-17.92,10.16-27.5-.35-1.61-.91-3.71-2.28-4.72s-4.13-1.49-5.85-2.21a43.34,43.34,0,0,1-11.59-7c-7.37-6.32-11.39-15.13-12.33-24.72a94,94,0,0,1,0-15c.3-4.77.84-9.22-1-13.78a51.58,51.58,0,0,0-2.47,6c-.64-3.52-.14-7.14-.68-10.67-.69,7.1-5,13-7.43,19.54,1-6.86,2.28-13.8,1.64-20.77-3.13,10.36-6.25,20.61-10.57,30.58-4,9.3-8.31,18.7-9.57,28.86a47.13,47.13,0,0,0,22.81,46C260.79,386.5,265.89,388.69,271.84,387.32Zm-18.93-9.64a40.13,40.13,0,0,1-11.8-12.9c-5.3-9.36-6.43-20.4-4.65-30.9-.79,11.79,1,23.91,8.06,33.7a44.22,44.22,0,0,0,11.17,10.7c4,2.7,9.32,5.94,14.22,6.32C264.14,384.72,257.47,380.89,252.91,377.68Z" transform="translate(-86.89 -129.4)"/><path class="cls-11" d="M283.62,533.47a41,41,0,0,0,4.35,1.8q3.31,1.31,6.69,2.43a143.2,143.2,0,0,0,27.28,6.14c29.82,3.8,61.87.94,89.25-12.08,10.42-5,20.47-11.59,27.62-20.79,7.61-9.8,10.4-21.62,9-33.87-1.57-13.35-7.49-25.6-12.8-37.76a153.18,153.18,0,0,1-7.25-19.2,72.31,72.31,0,0,1-2.21-10.5c-.3-2.29-1.43-7.91,1.08-2.78a44.21,44.21,0,0,0,12.68,16c5.51,4.16,12.32,8.42,19.4,6,7.26-2.48,10-7.48,10.21-14.81.05-2.49.78-7.41-2.77-7.5-3.21-.07-7.21,1.83-10.27,2.65,1,.08,6.56-.23,6.5,1-.09,1.48-4.57,1.18-5.53,1.14a57.17,57.17,0,0,1-15.33-2.95,58,58,0,0,1-12.63-5.81,28.21,28.21,0,0,1-5.4-4.21c-1.81-1.91-1.38-3.67-1.7-6.19a13.32,13.32,0,0,0-.24-1.54c.2-.94-.18-1.29-1.15-1.06-1.16-.55-2.86-.56-4.11-1a25.07,25.07,0,0,1-6.66-3.49c-3.94-2.86-6.89-6.94-9.45-11-4.53-7.22-9.73-18.78-4.87-27.09-4.71-1.6-8.75-6.48-7.65-11.66,1.25-5.91,7.22-9.06,7-15.64-7.23,8.48-22.11,6.76-31.88,5.76-12.34-1.26-25-3.41-37.41-1.42-9.28,1.49-20.86,6.67-21.7,17.36a14.79,14.79,0,0,0,.74,5.94,13.11,13.11,0,0,0,1.52,3.07c.38.57,2,1.88,2,2.54-.05,3.16-3.25-.4-3.85-1.25a16,16,0,0,1-2.7-7.52,45.41,45.41,0,0,0-5.92,2.53c5.94,9.29-1.25,23-6.84,30.6-2.77,3.74-5.86,7.18-9.95,9.51a23.55,23.55,0,0,1-6.33,2.5c-1.15.26-2.52.13-3.05,1s-.47,2.75-.5,3.76c-.08,2.91.2,3.94-3,4.31a44.09,44.09,0,0,1-7.62.2,32.58,32.58,0,0,1-14.49-4.13c-4.21-2.5-18.06-17.76-21-6.51-2.32,8.85-1,20.47,7.53,25.6-1.19-2.69,1.79-7,5.07-5.15,2.76,1.54,2.56,6.18,1.69,8.7,2.49.22,4.91,1,7.44.7a19.29,19.29,0,0,0,6.76-2.26,56,56,0,0,0,6.52-4.13c1.84-1.32,4.11-3.89,6.17-4.65s1.78.51,1.49,2.66a68.69,68.69,0,0,1-1.4,7.25,111.14,111.14,0,0,1-4.86,14.57c-7.68,19.1-19.34,38.84-15.86,60.24,2.59,15.89,15.13,28.82,28.74,36.4C275.58,529.86,279.64,532.25,283.62,533.47ZM411.8,405c3.84,7.72,4.37,18.12-2.57,24.15-5.59,4.86-15.46,8.27-22.6,5.06-6.82-3.06-9.52-11.61-9.59-18.54-.1-9.29,7-16.59,15.76-18.52C400.25,395.55,408.24,397.87,411.8,405ZM393,382.87c2.51,1.31-1.47,3.2-2.71,4-1.77,1.13-3.46,2.39-5.13,3.67-1.1.84-4.29,4.21-5.68,4-4.35-.67.85-7.43,2.39-8.51C383.89,384.61,390.45,381.53,393,382.87Zm-9.34-50.77c1-.65,2.45-2.24,3.55-2.55,1.65-.45.49.48-.3,1.21-1.23,1.14-2.67,2.07-4,3.11-2.44,1.92-5,4-6.34,6.91-1.06,2.25-1.46,5.1-.09,7.32.71,1.15,5.41,3.26,3,4.59-2.06,1.12-4.79-2.58-5.37-4a9.86,9.86,0,0,1,0-7.17A16.56,16.56,0,0,1,380,334.6C381.22,333.72,382.46,332.92,383.69,332.1Zm-5.51-4.47c.94,1-7.71,5.75-8.53,6.12-3.28,1.5-6.79,2.5-10,4.2-3.53,1.87-6.2,5-6.6,9.07-.18,1.87,1.13,3.86.95,5.5-.16,1.38-1,1.8-2.11.86-2.22-1.92-1.52-6.88-.68-9.21a13.1,13.1,0,0,1,6-7.18c4-2.09,8.51-2.84,12.61-4.68C371,331.79,377.8,327.24,378.18,327.63Zm-57.11,16.72a17.85,17.85,0,0,1,7.13-11.09c9.78-6.87,22.78-2.34,33.72-4.28,1.41-.25,2.72-.87,4.1-1.14.25,0,2-1,1.34.21-.93,1.71-6.19,2.08-7.86,2.25-6.17.61-12.4.1-18.57.86-5.25.64-10.75,2.21-14.28,6.42s-3.63,9.89-3.08,15.21a1.15,1.15,0,0,1-1.56,1.09c-1-.28-1-1.75-1.11-2.56A20.4,20.4,0,0,1,321.07,344.35Zm21.23,97.5c9.13-.55,19.32.4,27.39,5A67.93,67.93,0,0,0,345,443.55a73.46,73.46,0,0,0-24.59,4.19C326.94,443.84,334.78,442.3,342.3,441.85Zm-44.29-59c2.21-1.21,8.11,1.5,10,2.56s7.78,7.09,3.86,8.94c-1.44.69-3.81-2-4.81-2.74-2-1.6-4.12-3.17-6.29-4.61C299.44,386.16,295.49,384.25,298,382.87Zm-18.48,21.24c4.18-7.33,13.15-8.84,20.67-6.35,7.76,2.58,13.3,9.18,13.53,17.47.19,6.69-2.72,16.62-9.77,19.16-7.8,2.81-17.87-.44-23.51-6.23C274.38,421.92,275.47,411.24,279.53,404.11Zm-16.37,93.54c-2.82-3.06-5.74-4.93-6-9.47-.36-7.07,4.28-13.72,7.71-19.51,2.1-3.55,4.17-7.17,4.27-11.4.08-3.4-1.2-6.88-.12-10.21,2.2-6.74,10.21-8.75,16.49-8,6.84.81,12.93,4.37,19,7.34a42.86,42.86,0,0,0,21.52,4.79c8.93-.34,17.68-1.45,26.63-.86,8.28.54,17.15,2.21,25.2-.54,7.74-2.64,14.67-7.24,22.55-9.53,6.07-1.77,13.52-2.19,18.53,2.4,3.27,3,3.4,6.43,2.85,10.59a18.25,18.25,0,0,0,1.28,10.09c3,6.94,8.43,12.73,10,20.29.73,3.57.63,7.38-1.73,10.34-2.12,2.65-4.73,4.75-6.66,7.61-4.72,7-7.75,14.88-14,20.77a68.32,68.32,0,0,1-20.53,13.11c-16.49,6.85-35.72,5.73-53.22,5.43-18-.31-35.73-2.34-50.7-13.3-7-5.1-11.77-11.47-16-18.93C268.21,504.87,266.13,500.86,263.16,497.65Z" transform="translate(-86.89 -129.4)"/><path class="cls-12" d="M286.51,494.47a43,43,0,0,1-5.82-5.94c-2.13,5.22-5.46,14.85-.33,19.41s12.62-3.32,16.53-6.28a75.51,75.51,0,0,1-6.89-4.44c-.43-.32-1.61-1.54-2.06-1.53-.66,0-2.2,1.66-2.69,2.12-.88.86-3.59,5.51-3,2.37C282.62,498.1,285,495.75,286.51,494.47Z" transform="translate(-86.89 -129.4)"/><path class="cls-9" d="M305.1,556.25c3.71,2.79,7.59,5.31,11.46,7.87,1.31.86,1.95,1.52,3.53.81s3.2-2.72,4.53-4a86.67,86.67,0,0,0,11.68-14,155.13,155.13,0,0,1-48.62-9.4C291.92,545.1,298.19,551.05,305.1,556.25Z" transform="translate(-86.89 -129.4)"/><path class="cls-3" d="M436.11,689.69H253.29c.15,3,.29,6,.43,9,.21,4.47,5.84,3.57,8.86,3.57H422.49c2.92,0,5.9.17,8.81,0C437.31,701.91,435.92,694.13,436.11,689.69Zm-42.93,3.92q-56.78,1-113.58-.27c-3-.07-6-.15-9-.24q13.53-.4,27.05-.59c39-.59,78.15-.6,117.18.59Q404,693.43,393.18,693.61Z" transform="translate(-86.89 -129.4)"/><path class="cls-6" d="M342.2,639.43c1.56,1.09,2.23,2,3.89,1.34s3.6-2.46,5-3.64a23.06,23.06,0,0,0,6-7.23c1.63-3.32,1.78-7.52-1.33-10.06a6.81,6.81,0,0,0-8.58-.12c-.78.69-1.26,2.33-2.51,1.88s-1.9-2.36-3.26-2.9a7.08,7.08,0,0,0-8.66,3.27C329.27,628.86,337.26,636,342.2,639.43Z" transform="translate(-86.89 -129.4)"/><path class="cls-9" d="M246,583c.05-5.76,4.47-6.65,9-6.65h76.52c.43,0,1.54.18,1.84-.09s.51-2,.62-2.46c.41-1.6.81-3.2,1.22-4.8L338,557.88c.25-1,1-2.49.88-3.48-.12-1.44-1.61-2.11-2.19-3.72a102.81,102.81,0,0,1-13.46,15c-2.16,2-4,3-6.7,1.33-2.88-1.72-5.65-3.78-8.4-5.7a95.91,95.91,0,0,1-14.17-11.72,56.3,56.3,0,0,1-5.82-7.08c-1.58-2.29-2.58-5.74-5.09-6.75-3-1.2-6-3.24-9.05-4.12-1.51-.43-1.16-.35-2.38.94-.74.79-1.49,1.57-2.26,2.32-3.65,3.59-7.82,7.07-12.75,8.71-12.44,4.11-19.37-7.26-25.2-16.11-1.88-2.84-3.86-5.62-5.65-8.52-1-1.69-1.1-1.82-2.94-2.24a10.81,10.81,0,0,1-3-1.29c-4.39-2.58-8.92-7.23-10.76-12-1.06,4.26-.82,9.29-1.05,13.65-.26,4.87-.42,9.75-.53,14.63-.2,9.59-.46,19.27.45,28.83C209.73,580,219.36,596.08,230,612c5.87,8.79,12.12,17.31,18.54,25.7q-.95-20.22-1.91-40.43C246.42,592.54,245.92,587.72,246,583Zm-34.69-56.24c.6,13.27-.36,26.82,2.13,39.95a104.3,104.3,0,0,0,4.6,17.56C209,566.5,209.91,546,211.28,526.72Z" transform="translate(-86.89 -129.4)"/><path class="cls-13" d="M387.36,472.13c3.09-.52,6-3.27,8.81-4.59s5.61-2.17,7.92-4.17a10.79,10.79,0,0,0,3.68-6.71c.35-2.37,1-7.57-1.49-9.09-2.16-1.33-5.71,1.79-7.26,3.05a40.09,40.09,0,0,0-6.14,6.61,46.5,46.5,0,0,0-5.29,8.37C387.15,466.5,383.92,472.71,387.36,472.13Z" transform="translate(-86.89 -129.4)"/><path class="cls-13" d="M300.74,387c2.17,1.44,4.24,3,6.29,4.61,1,.78,3.37,3.43,4.81,2.74,3.92-1.85-2.11-7.95-3.86-8.94s-7.76-3.77-10-2.56C295.49,384.25,299.44,386.16,300.74,387Z" transform="translate(-86.89 -129.4)"/><path class="cls-13" d="M255.69,378.28a44.22,44.22,0,0,1-11.17-10.7c-7-9.79-8.85-21.91-8.06-33.7-1.78,10.5-.65,21.54,4.65,30.9a40.13,40.13,0,0,0,11.8,12.9c4.56,3.21,11.23,7,17,6.92C265,384.22,259.68,381,255.69,378.28Z" transform="translate(-86.89 -129.4)"/><path class="cls-13" d="M291.67,466.24a85.63,85.63,0,0,1,9.3,4.87c3,1.66,4.78.67,3.56-2.57a46.44,46.44,0,0,0-10.61-16c-1.87-1.85-4.79-4.67-7.49-5.18-3.26-.62-3.59,3.67-3.58,6C282.89,459.67,285.78,463.84,291.67,466.24Z" transform="translate(-86.89 -129.4)"/><path class="cls-13" d="M286.3,527.58c15,11,32.67,13,50.7,13.3,17.5.3,36.73,1.42,53.22-5.43a68.32,68.32,0,0,0,20.53-13.11c6.21-5.89,9.24-13.81,14-20.77,1.93-2.86,4.54-5,6.66-7.61,2.36-3,2.46-6.77,1.73-10.34-1.55-7.56-7-13.35-10-20.29a18.25,18.25,0,0,1-1.28-10.09c.55-4.16.42-7.59-2.85-10.59-5-4.59-12.46-4.17-18.53-2.4-7.88,2.29-14.81,6.89-22.55,9.53-8.05,2.75-16.92,1.08-25.2.54-8.95-.59-17.7.52-26.63.86a42.86,42.86,0,0,1-21.52-4.79c-6.09-3-12.18-6.53-19-7.34-6.28-.74-14.29,1.27-16.49,8-1.08,3.33.2,6.81.12,10.21-.1,4.23-2.17,7.85-4.27,11.4-3.43,5.79-8.07,12.44-7.71,19.51.23,4.54,3.15,6.41,6,9.47,3,3.21,5,7.22,7.18,11C274.53,516.11,279.34,522.48,286.3,527.58Zm-23.81-33.11c-9.23-8.54,2.69-21.47,6.61-29.74a18.82,18.82,0,0,0,2-8.31c0-2.54-.88-5.08-.57-7.63.66-5.4,6.69-7.94,11.52-8,12.61-.15,22.56,9.87,34.62,11.86,6.2,1,12.68.24,18.9-.26a119.51,119.51,0,0,1,20.11.05c6.5.56,13.23,1.32,19.68,0,5.33-1.1,10.18-3.7,15-6.11,4.67-2.32,9.47-4.64,14.69-5.35s12,.3,14.53,5.56c1.06,2.21.63,4.59.33,6.93a18.6,18.6,0,0,0,.54,8.19c1.68,5.43,5.34,10,7.95,15,2.48,4.75,4.58,10.08,1.62,15-2.26,3.76-6,6.5-9.71,8.67-9.39,5.47-20.4,8.29-31,10.39-18.82,3.75-38.92,6.09-57.86,2-16.42-3.59-34.85-10.08-46.86-22.36a29.6,29.6,0,0,1-6-8.51c-.21-.48-.53-1.93-1-2.2-1.3-.75-1.5.21-1.32,1.34a13.24,13.24,0,0,0,1.82,3.86,9.5,9.5,0,0,1,1.21,1.9c.22.92-.19,1.34-.62,2.27-2.13,4.64-3.83,11.69-2,16.65,2.22,5.87,7.9,6.75,12.85,3.65,2.5-1.56,4.82-3.45,7.19-5.19,1.75-1.28,1.84-1.41,3.75-.43,1.6.83,3.23,1.61,4.87,2.35a128.15,128.15,0,0,0,17.23,6.3,99.4,99.4,0,0,0,30.44,4.32c19.42-.52,39.79-3.17,58-10.06a64.47,64.47,0,0,0,11.68-5.64c-5.43,8.22-8.88,16.75-16.76,23.11a65.8,65.8,0,0,1-25.31,12.56c-10.58,2.59-21.68,2.46-32.51,2.54s-21.67.18-32.29-1.48a67.55,67.55,0,0,1-30.74-13.35,45.26,45.26,0,0,1-11.81-13.93C270.17,504.76,267.31,498.93,262.49,494.47Zm22.76,3.34c.49-.46,2-2.11,2.69-2.12.45,0,1.63,1.21,2.06,1.53a75.51,75.51,0,0,0,6.89,4.44c-3.91,3-11.4,10.84-16.53,6.28s-1.8-14.19.33-19.41a43,43,0,0,0,5.82,5.94c-1.55,1.28-3.89,3.63-4.27,5.71C281.66,503.32,284.37,498.67,285.25,497.81Z" transform="translate(-86.89 -129.4)"/><path class="cls-13" d="M304,434.39c7.05-2.54,10-12.47,9.77-19.16-.23-8.29-5.77-14.89-13.53-17.47-7.52-2.49-16.49-1-20.67,6.35-4.06,7.13-5.15,17.81.92,24.05C286.09,434,296.16,437.2,304,434.39Zm-3.38-4.52a3.81,3.81,0,0,1-5.49-1.82c-.83-2.34.86-6.44,2.94-7.66C303.09,417.4,304.49,427.41,300.58,429.87Zm-18.48-25c5.15-7.27,15.77-7.45,22.67-2.71,8.17,5.61,8.92,16.52,4.56,24.87.74-6.09-6.08-12.92-12.32-10.93-6.45,2.06-9.44,11.45-4.48,16.43-5.85-1.53-12-5.18-13.75-11.34C277.25,415.75,278.87,409.46,282.1,404.9Z" transform="translate(-86.89 -129.4)"/><path class="cls-13" d="M379.51,394.52c1.39.22,4.58-3.15,5.68-4,1.67-1.28,3.36-2.54,5.13-3.67,1.24-.79,5.22-2.68,2.71-4s-9.14,1.74-11.13,3.14C380.36,387.09,375.16,393.85,379.51,394.52Z" transform="translate(-86.89 -129.4)"/><path class="cls-13" d="M377,415.7c.07,6.93,2.77,15.48,9.59,18.54,7.14,3.21,17-.2,22.6-5.06,6.94-6,6.41-16.43,2.57-24.15-3.56-7.16-11.55-9.48-19-7.85C384,399.11,376.94,406.41,377,415.7Zm14.62,14.59a5.62,5.62,0,0,1-4-4.64c-.42-3.2,1.23-5.15,4.06-5.61C396.44,421,397.87,431.64,391.66,430.29Zm15.06-27.73a20.33,20.33,0,0,1,5.8,16.86c-1,7.1-7.63,11.48-14.13,13.14,5-5.13,1.85-13.4-4.05-16.08-6.24-2.83-13.75,4.36-12.83,10.61-4-7.67-3.91-17.95,3.08-23.81C390.55,398.28,400.71,396.9,406.72,402.56Z" transform="translate(-86.89 -129.4)"/><path class="cls-13" d="M297.63,692.51q-13.53.19-27.05.59c3,.09,6,.17,9,.24q56.76,1.29,113.58.27,10.81-.18,21.63-.51C375.78,691.91,336.67,691.92,297.63,692.51Z" transform="translate(-86.89 -129.4)"/><path class="cls-13" d="M435.08,703.7c3.07-1.84,2.93-5,3.06-8.08l.5-11.85q.81-19.31,1.63-38.6.86-20.53,1.73-41.07c.29-7,1-14.21.89-21.26a6.23,6.23,0,0,0-6.26-6.53c-1.7-.1-3.43,0-5.13,0-2.61,0-1.89-.72-2.32-3.42a78.06,78.06,0,0,0-6.88-21.3c-2.83-5.91-6.75-13-12.42-16.61,15.68-6.65,31-18,37.54-34.32,7.36-18.44.11-38.42-7.3-55.56-4.35-10.06-9-20.08-11.62-30.75,4.75,7.93,14.68,16.66,24.3,17.49a19,19,0,0,0,14-4.93c3.91-3.52,4.57-8.64,4.52-13.66,0-4.19-.65-9.32-6-8.5a33.2,33.2,0,0,0-7.15,2.45c-3.07,1.24-5.11,1.85-8.4,1.21a55.85,55.85,0,0,1-16.59-6,60.57,60.57,0,0,1-7.15-4.94c-1.68-1.28-1.66-1.54-1.91-3.61a17.51,17.51,0,0,0-.81-4.06c10.72-.11,21.3-9.35,27.37-17.48A47.66,47.66,0,0,0,460.2,341c-.78-13.39-6.87-25.23-11.81-37.43-4.83-11.91-10.12-25.83-8.93-38.9a29.25,29.25,0,0,1,1.77-8.17c.46-1.15,3.42-4.43,2.18-5.29-1-.71-5,2.19-5.87,2.78a23.56,23.56,0,0,0-5.21,5.1c-5.83,7.78-7.22,18.15-7,27.61.28,12.38,3,25.36-2,37.19-4.32,10.25-14.74,18.46-25.61,20.92-5.23,1.19-9.39-6-7.57-10.56,1-2.55,3.08-4.52,4.47-6.85a14.29,14.29,0,0,0,1.87-9.5c-.56-3.55-2.32-.62-3.65.72a16.24,16.24,0,0,1-6.54,3.84c-5,1.63-10.6,1.61-15.81,1.41-13.87-.55-27.57-3.83-41.5-2.58-10.49.94-24.49,5.57-27.22,17.22-.3,1.29-.14,3.19-1,3.87-1.07.84-3.49,1.1-4.83,1.73-1.82.88-1.53.85-3.3.46a32.74,32.74,0,0,1-4.76-1.75,39.41,39.41,0,0,1-14.33-9.56c-8.25-9-9.47-21.27-8.8-32.92.6-10.43,1.88-21.19-1.21-31.37a29.18,29.18,0,0,0-8-13.19c-1.74-1.61-4.59-4-7-4.38-3-.4-.46,1.94.23,3.1,5.82,9.7,2.29,23.86-.69,33.87-3.63,12.18-9.64,23.35-13.79,35.31-3.82,11-5,22.59-1.56,33.85A49.5,49.5,0,0,0,251,382.86c4.78,3.44,10.46,6.71,16.48,6.94a13.62,13.62,0,0,0-.85,4c-.16,1.79.4,2.29-1.66,2.48a39.21,39.21,0,0,1-8-.05,32.68,32.68,0,0,1-14.74-5.3c-4.15-2.8-7.58-7-12.63-8.27-4.26-1-7.68,1-8.68,5.27a46.23,46.23,0,0,0-.93,7.32,29.82,29.82,0,0,0-.05,4.12c.08,1.24.85,3.81.31,4.48-.4.51-2.07.92-2.72,1.38a11.06,11.06,0,0,0-2.41,2.42,11.35,11.35,0,0,0-2.12,6.08c-.54,10.37,11.3,15.11,19.16,9.48a14.48,14.48,0,0,0,2.77-2.59,14.19,14.19,0,0,1,1.07-1.53c.94-.78.14-.61,1.51-.44,3.24.4,5.86,1.1,9.18.37,6-1.31,12-5.7,16.66-9.56-4.55,23.61-19.92,43.88-22.6,67.94-2.52,22.63,10.64,41.33,29.73,52.3-5.8,6.3-14.77,15.11-24.15,10.9-4.65-2.08-7.63-6.54-10.44-10.58-3.13-4.5-6-9.3-9.53-13.48,4.76-1.71,7.54-8.47,7-13.15-.37-3.09-1.85-6-3-8.83s-2.17-6.11-4.06-8.51c-3.5-4.43-9-1.34-12.48,1.63a16.84,16.84,0,0,0-4.3,5.54c-1.32,2.79-.89,5.73-1.63,8.41-1.57,5.72-1.82,11.75-2.18,17.68-.41,7-.67,14-.85,21-.31,12.59-.27,25.44,3.65,37.54s10.86,23,17.81,33.56c3.68,5.6,7.53,11.1,11.48,16.51,1.92,2.63,3.86,5.23,5.83,7.83,1.49,2,4.36,4.48,5.18,6.78.9,2.5.31,6.53.44,9.14q.45,9.64.91,19.29l1,21c.19,4-.59,10,3.76,12q-24.43.21-48.86.64c14,.25,28,.47,41.94.58,24.85.21,49.7.42,74.55.5q21.15.06,42.3.06,38-.06,76-.26,34.83-.21,69.67-.77l6.1-.11-9.7-.17Q471,704,435.08,703.7ZM411.47,539.27a39.39,39.39,0,0,1,3.81,4.63,71.52,71.52,0,0,1,11.94,32.41H362.84a60.4,60.4,0,0,1-7.12,0c-1.49-.18-1.18.06-1.57-1.65L351,560.9c-.41-1.79-1.33-4-1.34-5.89,0-.26-.31-.75-.23-1-.07.24,1.29-1.23,1.2-1.13A6.77,6.77,0,0,0,352,550a87.3,87.3,0,0,0,14.52,16.25c2.71,2.29,4.44,1.88,7.23,0,3.31-2.24,6.71-4.34,10-6.64,6.28-4.42,12.1-9.42,16.58-15.72a30.32,30.32,0,0,0,2.79-4.55c.89-1.92,1.6-2.73,3.93-3.15,1.62-.29,1.33-.12,2.56,1.16C410.22,538,410.85,538.61,411.47,539.27Zm-58.61,7.67a157.15,157.15,0,0,0,48.35-8.66c-6.19,10.15-14.88,17-24.75,23.35-1.45.94-4.77,4.11-6.62,3.78s-4.06-3.27-5.32-4.49A87.65,87.65,0,0,1,352.86,546.94Zm44.38-199.37c1.57-2.06,5.61-2.6,8-3.65,10.56-4.65,18.51-13.16,21.52-24.39a53.91,53.91,0,0,0,1.48-16.84c-.33-6.2-1.79-12.73.62-18.68a53.41,53.41,0,0,1,2.47,6c.64-3.52.13-7.14.67-10.67.7,7.1,5,13,7.44,19.54-1.06-6.86-2.28-13.8-1.65-20.77a351.82,351.82,0,0,0,13.57,37.33c5.24,12.17,8.72,24.86,5.84,38.11C454.48,365.84,446.55,376.22,436,383c-5.2,3.33-10.81,5.8-17.08,4.39-6-1.36-10.62-5.3-14.26-10.08-4.29-5.65-8.19-12.66-9.06-19.8C395.24,354.46,395.28,350.11,397.24,347.57Zm-141.5,35.94a47.13,47.13,0,0,1-22.81-46c1.26-10.16,5.53-19.56,9.57-28.86,4.32-10,7.44-20.22,10.57-30.58.64,7-.59,13.91-1.64,20.77,2.39-6.55,6.74-12.44,7.43-19.54.54,3.53,0,7.15.68,10.67a51.58,51.58,0,0,1,2.47-6c1.85,4.56,1.31,9,1,13.78a94,94,0,0,0,0,15c.94,9.59,5,18.4,12.33,24.72a43.34,43.34,0,0,0,11.59,7c1.72.72,4.34,1.08,5.85,2.21s1.93,3.11,2.28,4.72c2.06,9.58-4.27,20.41-10.16,27.5a24.09,24.09,0,0,1-13,8.42C265.89,388.69,260.79,386.5,255.74,383.51ZM232.82,420.7c-5.2,5.32-14.81,4.7-17.49-2.79a10.65,10.65,0,0,1,.28-7.85,8.77,8.77,0,0,1,2.62-3.35,5.88,5.88,0,0,1,1.66-1c1.67-.43,1.27-.3,2,1.34-4.6,1.38-5.9,8-3,11.42s8.81,2.29,11.35-1c1.52-2,.88-3.55,1-5.68.11-1.33.87-2.61,2.58-2.17C238.64,410.81,234.66,418.83,232.82,420.7Zm-10.34-12.56a18.14,18.14,0,0,0,7.23,7.57c.45.24-3,2.46-3.4,2.62a6.3,6.3,0,0,1-4.8.18C216.83,416.39,218.86,410.1,222.48,408.14Zm20.74,83.3c-3.48-21.4,8.18-41.14,15.86-60.24a111.14,111.14,0,0,0,4.86-14.57,68.69,68.69,0,0,0,1.4-7.25c.29-2.15.53-3.4-1.49-2.66s-4.33,3.33-6.17,4.65a56,56,0,0,1-6.52,4.13,19.29,19.29,0,0,1-6.76,2.26c-2.53.26-5-.48-7.44-.7.87-2.52,1.07-7.16-1.69-8.7-3.28-1.84-6.26,2.46-5.07,5.15-8.58-5.13-9.85-16.75-7.53-25.6,2.94-11.25,16.79,4,21,6.51a32.58,32.58,0,0,0,14.49,4.13,44.09,44.09,0,0,0,7.62-.2c3.2-.37,2.92-1.4,3-4.31,0-1-.06-2.88.5-3.76s1.9-.7,3.05-1a23.55,23.55,0,0,0,6.33-2.5c4.09-2.33,7.18-5.77,9.95-9.51,5.59-7.56,12.78-21.31,6.84-30.6a45.41,45.41,0,0,1,5.92-2.53,16,16,0,0,0,2.7,7.52c.6.85,3.8,4.41,3.85,1.25,0-.66-1.61-2-2-2.54a13.11,13.11,0,0,1-1.52-3.07,14.79,14.79,0,0,1-.74-5.94c.84-10.69,12.42-15.87,21.7-17.36,12.38-2,25.07.16,37.41,1.42,9.77,1,24.65,2.72,31.88-5.76.18,6.58-5.79,9.73-7,15.64-1.1,5.18,2.94,10.06,7.65,11.66-4.86,8.31.34,19.87,4.87,27.09,2.56,4.09,5.51,8.17,9.45,11a25.07,25.07,0,0,0,6.66,3.49c1.25.44,2.95.45,4.11,1,1-.23,1.35.12,1.15,1.06a13.32,13.32,0,0,1,.24,1.54c.32,2.52-.11,4.28,1.7,6.19a28.21,28.21,0,0,0,5.4,4.21,58,58,0,0,0,12.63,5.81,57.17,57.17,0,0,0,15.33,2.95c1,0,5.44.34,5.53-1.14.06-1.21-5.51-.9-6.5-1,3.06-.82,7.06-2.72,10.27-2.65,3.55.09,2.82,5,2.77,7.5-.18,7.33-2.95,12.33-10.21,14.81-7.08,2.41-13.89-1.85-19.4-6a44.21,44.21,0,0,1-12.68-16c-2.51-5.13-1.38.49-1.08,2.78a72.31,72.31,0,0,0,2.21,10.5,153.18,153.18,0,0,0,7.25,19.2c5.31,12.16,11.23,24.41,12.8,37.76,1.44,12.25-1.35,24.07-9,33.87-7.15,9.2-17.2,15.83-27.62,20.79-27.38,13-59.43,15.88-89.25,12.08a143.2,143.2,0,0,1-27.28-6.14q-3.37-1.12-6.69-2.43c-.73-.29-12.39-5.41-16-7.43C258.35,520.26,245.81,507.33,243.22,491.44ZM336.3,546.9a86.67,86.67,0,0,1-11.68,14c-1.33,1.29-2.82,3.24-4.53,4s-2.22.05-3.53-.81c-3.87-2.56-7.75-5.08-11.46-7.87-6.91-5.2-13.18-11.15-17.42-18.75A155.13,155.13,0,0,0,336.3,546.9ZM210.54,498.15a12.39,12.39,0,0,1,4.34-8.18c1.65-1.46,4.58-4,6.88-3.94,2.48.08,3.59,2.88,4.39,4.83,1.19,2.92,2.58,5.77,3.7,8.71,1.46,3.83,1.52,7.28-.58,10.89-1.74,3-4.15,5-7.64,3.33C216.31,511.3,210,504.33,210.54,498.15ZM230,612c-10.65-15.93-20.28-32-22.11-51.51-.91-9.56-.65-19.24-.45-28.83.11-4.88.27-9.76.53-14.63.23-4.36,0-9.39,1.05-13.65,1.84,4.8,6.37,9.45,10.76,12a10.81,10.81,0,0,0,3,1.29c1.84.42,1.9.55,2.94,2.24,1.79,2.9,3.77,5.68,5.65,8.52,5.83,8.85,12.76,20.22,25.2,16.11,4.93-1.64,9.1-5.12,12.75-8.71.77-.75,1.52-1.53,2.26-2.32,1.22-1.29.87-1.37,2.38-.94,3,.88,6.07,2.92,9.05,4.12,2.51,1,3.51,4.46,5.09,6.75a56.3,56.3,0,0,0,5.82,7.08,95.91,95.91,0,0,0,14.17,11.72c2.75,1.92,5.52,4,8.4,5.7,2.71,1.62,4.54.69,6.7-1.33a102.81,102.81,0,0,0,13.46-15c.58,1.61,2.07,2.28,2.19,3.72.09,1-.63,2.52-.88,3.48L335.16,569c-.41,1.6-.81,3.2-1.22,4.8-.11.45-.25,2.13-.62,2.46s-1.41.09-1.84.09H255c-4.52,0-8.94.89-9,6.65-.05,4.76.45,9.58.67,14.32q1,20.22,1.91,40.43C242.13,629.32,235.88,620.8,230,612Zm22.9,69.6-.42-9q-.48-10.18-1-20.37-.22-5-.47-10c.26-.58-.12-2.57-.15-3.3-.09-1.94-.19-3.88-.28-5.82q-.44-9.45-.89-18.92-.48-10.05-.95-20.11c-.18-3.72-.67-7.57-.53-11.29.21-5.73,7.86-4.25,11.84-4.25H431.23c4.26,0,9.47-.84,9.34,5.11-.18,8.6-.72,17.22-1.09,25.82l-3.09,73.35c0,.68.31,4-.21,4.54s-3.09,0-3.61,0H255.11c-1.41,0-1.47.26-2-.64C252.56,685.65,253,682.86,252.91,681.61ZM431.3,702.28c-2.91.17-5.89,0-8.81,0H262.58c-3,0-8.65.9-8.86-3.57-.14-3-.28-6-.43-9H436.11C435.92,694.13,437.31,701.91,431.3,702.28Z" transform="translate(-86.89 -129.4)"/><path class="cls-13" d="M343.21,642.3c3.45,2.21,8-2.7,10.41-5a21.1,21.1,0,0,0,5.95-8.61c1.26-3.92.29-8.32-3.22-10.72s-8.45-2.09-11.21,1.22c-5.21-6.26-15.09-1.23-15,6.28S337.57,638.69,343.21,642.3ZM332.77,622a7.08,7.08,0,0,1,8.66-3.27c1.36.54,2.16,2.51,3.26,2.9s1.73-1.19,2.51-1.88a6.81,6.81,0,0,1,8.58.12c3.11,2.54,3,6.74,1.33,10.06a23.06,23.06,0,0,1-6,7.23c-1.4,1.18-3.27,3-5,3.64s-2.33-.25-3.89-1.34C337.26,636,329.27,628.86,332.77,622Z" transform="translate(-86.89 -129.4)"/><path class="cls-13" d="M351.23,344.17c-.84,2.33-1.54,7.29.68,9.21,1.07.94,1.95.52,2.11-.86.18-1.64-1.13-3.63-.95-5.5.4-4.11,3.07-7.2,6.6-9.07,3.19-1.7,6.7-2.7,10-4.2.82-.37,9.47-5.13,8.53-6.12-.38-.39-7.16,4.16-8.31,4.68-4.1,1.84-8.64,2.59-12.61,4.68A13.1,13.1,0,0,0,351.23,344.17Z" transform="translate(-86.89 -129.4)"/><path class="cls-13" d="M322,353.88a1.15,1.15,0,0,0,1.56-1.09c-.55-5.32-.55-10.89,3.08-15.21s9-5.78,14.28-6.42c6.17-.76,12.4-.25,18.57-.86,1.67-.17,6.93-.54,7.86-2.25.64-1.19-1.09-.26-1.34-.21-1.38.27-2.69.89-4.1,1.14-10.94,1.94-23.94-2.59-33.72,4.28a17.85,17.85,0,0,0-7.13,11.09,20.4,20.4,0,0,0-.17,7C321,352.13,321,353.6,322,353.88Z" transform="translate(-86.89 -129.4)"/><path class="cls-13" d="M374.15,341.49a9.86,9.86,0,0,0,0,7.17c.58,1.45,3.31,5.15,5.37,4,2.43-1.33-2.27-3.44-3-4.59-1.37-2.22-1-5.07.09-7.32,1.36-2.87,3.9-5,6.34-6.91,1.3-1,2.74-2,4-3.11.79-.73,1.95-1.66.3-1.21-1.1.31-2.59,1.9-3.55,2.55-1.23.82-2.47,1.62-3.66,2.5A16.56,16.56,0,0,0,374.15,341.49Z" transform="translate(-86.89 -129.4)"/><path class="cls-13" d="M450.49,363.37c4.67-9,5.57-19.54,3.88-29.49.79,11.79-1,23.91-8.05,33.7a44.39,44.39,0,0,1-11.17,10.7c-4,2.7-9.32,5.94-14.23,6.32a11.85,11.85,0,0,0,3.13-.46A41.17,41.17,0,0,0,450.49,363.37Z" transform="translate(-86.89 -129.4)"/><path class="cls-13" d="M211.28,526.72C209.91,546,209,566.5,218,584.23a104.3,104.3,0,0,1-4.6-17.56C210.92,553.54,211.88,540,211.28,526.72Z" transform="translate(-86.89 -129.4)"/><path class="cls-13" d="M227.11,297.87q-2.49-12.78-5.92-25.36c-2.22-8.18-4.43-16.62-7.77-24.43-2.74-6.41-6.94-12.23-13.82-14.46-7.5-2.44-16.3-1-24-.32-8.53.75-17,1.56-25.48,3.08-15.35,2.77-33,7.34-45.31,17.51-13.7,11.35-8.5,29.48-4.59,44.33,2.17,8.27,4.63,16.46,7.48,24.53,2.5,7.07,4.75,15,10,20.65,9.51,10.25,24.94,9.84,37.46,6.75,2.07-.51,4.12-1.09,6.16-1.7a13.69,13.69,0,0,1,2.22-.67c1.75-.12,1.33.12,2.16,1.81q2.9,5.88,6,11.65,6.07,11.28,12.93,22.11c1,1.52,5.82,10.93,7.63,10.83,2.18-.13.41-9.88.3-11.43a281.72,281.72,0,0,1-.6-30.34,98.47,98.47,0,0,1,.82-12.73c.75-4.34,3.47-5.43,7.31-6.92,8.65-3.35,17.11-7.4,24.49-13.1C231.66,314.18,228.58,305.36,227.11,297.87Zm-4.56,19.64a82.67,82.67,0,0,1-19.88,11.15c-4.94,2-11.49,3.33-12.59,9.52-1.45,8.17-1.22,16.66-1.16,24.93A205.81,205.81,0,0,0,190.59,389a395.84,395.84,0,0,1-22.42-39.95c-.5-1-1.22-3.79-2.41-4.29s-3.72.83-4.84,1.15c-3.28.95-6.58,1.83-9.93,2.49-6.75,1.34-13.87,1.81-20.53-.26-13.86-4.32-17.71-18.43-21.84-30.82q-3.62-10.84-6.39-21.95c-1.81-7.26-4-14.86-3.9-22.4.17-11.92,8.85-19.14,18.91-23.86,12.12-5.68,25.35-9.06,38.54-11.06,7.56-1.15,15.18-1.85,22.81-2.33,6.63-.42,14.2-1.56,20.63.64,6.26,2.14,9.77,7.84,12.1,13.71a198.24,198.24,0,0,1,6.54,20.8q3.44,12.45,6,25.12C225.22,302.91,229.09,312.29,222.55,317.51Z" transform="translate(-86.89 -129.4)"/><path class="cls-13" d="M268.15,228.63c7.56,3.93,16.46,4.89,24.72,6.49,3.93.76,7.86,1.5,11.81,2.15,3.24.54,7.86.86,9.65,4.09,1.24,2.24,1,5,1.08,7.51.11,4.07.41,8.15.64,12.22.51,9.19.93,18.38,1.54,27.56.27,4.06.6,8.12.93,12.17,0,.46-.1,2.38.38,2.78,1.23,1,1.5-.91,1.69-1.56,2.38-8.09,4.42-16.26,7.27-24.23a230.39,230.39,0,0,1,9.91-23.36C339.45,251,341,247,343.5,244c2.08-2.47,5-3.32,8.14-3.64,7.87-.81,16.11.27,23.48-3.24,5.86-2.79,9-8.17,10.07-14.42,1.46-8.77,1.61-17.82,2.11-26.68.43-7.65,2.17-17-.25-24.4-2.26-6.94-8.88-10-15.45-11.64-8.42-2.11-17.19-3-25.74-4.42-8.23-1.4-16.49-2.73-24.7-4.25-7.05-1.31-14.22-2.73-21.42-2.27-19.16,1.2-26.55,18.09-32.89,33.72-3.41,8.43-8.41,17.33-9.31,26.49A19.17,19.17,0,0,0,268.15,228.63Zm-8.09-18.31c.35-5.46,2.45-10.61,4.64-15.56,2.32-5.25,4.44-10.54,6.55-15.88,3.61-9.18,8.22-19.07,17.11-24.25C298,149,309.69,152,320,153.7q18,3,36,6.15c8.42,1.44,21.85,1.41,27.16,9.4,2.45,3.7,2.57,8.44,2.39,12.72-.21,5-.59,10-.89,15-.36,5.9-.82,11.8-1.29,17.7-.34,4.26-.52,8.72-2.24,12.7-4.15,9.63-15.69,9.7-24.63,10-5.65.17-11.59.26-15.27,5.18-3.52,4.7-5.87,10.69-8.29,16A222.23,222.23,0,0,0,320,294.85c-.52-13.42-1.26-26.83-2-40.23-.26-4.75,1-12.37-2.62-16.09s-11.3-3.85-16.26-4.81C285.75,231.14,258.8,229.7,260.06,210.32Z" transform="translate(-86.89 -129.4)"/><path class="cls-13" d="M148,319.39c-4.51-3.83-9.35,3.66-4.62,6.64C147.56,328.69,152.43,321.26,148,319.39Z" transform="translate(-86.89 -129.4)"/><path class="cls-13" d="M193,306.19c3.6,4,9.25-.09,6.56-4.83S189.44,302.22,193,306.19Z" transform="translate(-86.89 -129.4)"/><path class="cls-13" d="M175.14,310.18c-3.55-4.5-8.4,2.43-4.9,6.08C174,320.15,181,313.43,175.14,310.18Z" transform="translate(-86.89 -129.4)"/><path class="cls-13" d="M300.12,207.56c5.6.07,5.64-8.08.27-8.32C295.28,199,294.84,207.49,300.12,207.56Z" transform="translate(-86.89 -129.4)"/><path class="cls-13" d="M357.36,211.75c3.51-3.86-2.33-9.73-6.1-5.71C347.72,209.8,354,215.48,357.36,211.75Z" transform="translate(-86.89 -129.4)"/><path class="cls-13" d="M332.8,206c-.71-2-1.42-3.21-3.5-3.23-3,0-4.5,2.66-4,5.51C326.08,213.19,334.88,212,332.8,206Z" transform="translate(-86.89 -129.4)"/><path class="cls-13" d="M369.69,446.87c-8.07-4.62-18.26-5.57-27.39-5-7.52.45-15.36,2-21.89,5.89A73.46,73.46,0,0,1,345,443.55,67.93,67.93,0,0,1,369.69,446.87Z" transform="translate(-86.89 -129.4)"/><path class="cls-14" d="M250,547.19c-4.41-1.74-8.57-6.76-11.74-10.12a134.15,134.15,0,0,1-12.12-15,124.3,124.3,0,0,1-17.57-35.55,120.35,120.35,0,0,1-4.06-19.26c-.81-6.4-1.8-13.58-.6-20,2.09-11.09,15.15-17.94,25.6-14.17,6.19,2.24,9.78,14.52,11.05,21.68.83,4.66,1.63,10-1.94,13.8a11.89,11.89,0,0,1-5.08,3c-1.62.52-3.68.58-4.95,1.83-3.17,3.12-.53,10.38.77,13.81A62.45,62.45,0,0,0,238,502.45c1.62,2.15,2.95,5.13,5.09,6.8,2.47,1.93,4.55.67,6.92-.61,5.45-2.95,11.08-2.74,15.33,1.72,2.47,2.59,4.25,5.92,6.16,8.93a62.3,62.3,0,0,1,5.24,9C282.7,542.4,260.83,551.47,250,547.19Z" transform="translate(-86.89 -129.4)"/><path class="cls-13" d="M223.93,433.5c5.66,0,8.73,2.77,10.84,7.74A63.84,63.84,0,0,1,239,456.78c.66,4.49.89,9.21-3.45,11.93-3.11,2-7.66,1.32-9.44,5.1-1.95,4.15,0,10.1,1.51,14.09a62.83,62.83,0,0,0,8,14.53c2.23,3.07,6.32,9.91,10.85,9.18,2.5-.41,4.5-2.68,7-3.36a9.87,9.87,0,0,1,8.25,1.43c4.53,3.11,7.57,9.49,10.39,14.1,2.52,4.1,5.36,8.7,2.62,13.44-2.84,4.93-8.9,7.84-14.28,8.87s-9.38.11-13.46-3.21a88.39,88.39,0,0,1-11.26-11.3,134.69,134.69,0,0,1-19.72-30.42,116.82,116.82,0,0,1-10.4-40.69c-.47-6.49-1.14-13.63,2.59-19.36,3.44-5.28,9.57-7.61,15.68-7.61m0-1.83c-12.86,0-20.63,9.36-20.42,21.79a121.53,121.53,0,0,0,7.16,39.41,129.53,129.53,0,0,0,19.42,34.59,117.05,117.05,0,0,0,12.25,13.7c4,3.78,7.71,7,13.48,7.14,10.58.31,26.45-8.32,20.57-20.78a98.69,98.69,0,0,0-9.12-14.76c-3.33-4.65-8.41-7.89-14.28-6.25-2.32.65-4.89,3.4-7.22,3.34s-4.61-3.43-6-5.12a65.51,65.51,0,0,1-9.48-15.25c-1.68-3.84-4.7-11-2.37-15.13,1-1.83,3-2,4.78-2.5a12.7,12.7,0,0,0,5.93-3.25c3.92-4.12,2.66-10.36,1.64-15.37a68.86,68.86,0,0,0-3.53-12c-2.4-5.93-6-9.53-12.8-9.53Z" transform="translate(-86.89 -129.4)"/><path class="cls-13" d="M231.45,497.35a85,85,0,0,0-4.27-9.84c-1.07-1.89-4.09-5.22-6.67-3.64-.16.1-.29.25-.44.34-4.38,2.54-9.11,5.23-11,9.92-2.44,6.2.51,11.95,4.84,16.39,3.57,3.67,9.34,8.94,14.47,4.86C234.22,510.76,234,503.56,231.45,497.35Z" transform="translate(-86.89 -129.4)"/><path class="cls-15" d="M292.62,399.52c-12.06.09-28,1.83-28,17.21,0,14.2,5.82,31.38,21.38,34.53,11.13,2.24,26.82.1,34.91-8.52a36.64,36.64,0,0,0,8.9-17.53c1.17-5.54,1.45-12.85-1.92-17.75C320.85,397.26,303.2,399.44,292.62,399.52Z" transform="translate(-86.89 -129.4)"/><path class="cls-16" d="M417.55,402.72c-5.46-2.76-11.74-3.16-17.75-3.19-8.11,0-16.76-.71-24.73,1-6.5,1.4-12.48,4.36-14.31,11.21-1.86,7-.43,14.7,2.44,21.23,3,6.7,7.85,12.62,14.74,15.42s13.92,3.51,21.2,3.51c18.33,0,26.05-17.73,26.69-33.67C426.11,411.3,424,406,417.55,402.72Z" transform="translate(-86.89 -129.4)"/><path class="cls-13" d="M375.56,395.84A76.8,76.8,0,0,0,365,398.45c-4.34,1.44-8.1,4.05-12.76,4.44a66.46,66.46,0,0,1-15.76-.29c-4.74-.76-8.87-3.6-13.48-4.9-16.14-4.55-32.95-4-49.53-3.15-5.06.27-10.05.69-15.09,1.26-1,.11-5.86.06-6.59.85-.94,1,.26,7.46.3,8.6.08,1.75-.14,1.9,1.13,2.79.64.45,1.39.67,2,1.19a9.24,9.24,0,0,1,2.73,5c1.34,5.49,2.07,11.11,3.48,16.6,2.56,9.95,7,19.21,16.94,23.42,8.09,3.44,17.66,3.19,26.12,1.31,7.16-1.59,14.45-3.55,19.75-9,7.57-7.76,11.21-17.7,14.16-27.83.82-2.8,2.1-4.78,5-5.47a6.86,6.86,0,0,1,7.62,2.81c1.21,1.94,1.36,4.46,1.95,6.63a50.79,50.79,0,0,0,2.18,6.25,64.82,64.82,0,0,0,7.5,13.31c5.79,7.84,14,11.69,23.44,13.41,9.6,1.75,20.46,2.22,29.09-3,7.37-4.48,10.82-11.53,13.24-19.63a124.39,124.39,0,0,0,3.32-14.54c.74-4.31,1.19-8,5.25-10.4,1.38-.81,1.29-.52,1.37-2.16l.2-4.14c.08-1.72.1-3.42.1-5.15-4.46-.37-8.92-1.13-13.38-1.61C409,393.31,391.74,393,375.56,395.84Zm-45.78,29.37a36.64,36.64,0,0,1-8.9,17.53c-8.09,8.62-23.78,10.76-34.91,8.52-15.56-3.15-21.38-20.33-21.38-34.53,0-15.38,16-17.12,28-17.21,10.58-.08,28.23-2.26,35.24,7.94C331.23,412.36,331,419.67,329.78,425.21Zm96.05-7c-.64,15.94-8.36,33.67-26.69,33.67-7.28,0-14.37-.74-21.2-3.51S366.16,439.67,363.2,433c-2.87-6.53-4.3-14.21-2.44-21.23,1.83-6.85,7.81-9.81,14.31-11.21,8-1.71,16.62-1,24.73-1,6,0,12.29.43,17.75,3.19C424,406,426.11,411.3,425.83,418.23Z" transform="translate(-86.89 -129.4)"/><path class="cls-17" d="M225.38,433.75c-7.34-.38-11.65,3.42-13,8.4-1.23,4.46-1.81,9.93-1.14,13.86.29-9.11,13.43-18.84,21.08-16.6C231.72,436.42,228.34,434.13,225.38,433.75Z" transform="translate(-86.89 -129.4)"/><path class="cls-17" d="M272.56,539.23c-5.66,4.69-11.38,4.22-15.46,1-3.65-2.84-7.38-6.88-9.2-10.43,5.68,7.13,22,7.09,26.83.72C276.06,533.3,274.71,537.15,272.56,539.23Z" transform="translate(-86.89 -129.4)"/><path class="cls-18" d="M220.92,486.92c-4.83.63-7.79,5.05-5,8.09,2.6,2.8,8.3,5.15,10.37,1C227.53,493.55,227.18,488,220.92,486.92Z" transform="translate(-86.89 -129.4)"/><path class="cls-19" d="M248.55,637.71q-.95-20.13-1.9-40.25c-36.67-24.19-32.59-68.54-32-86a23.39,23.39,0,0,1-5.61-8.06c-1.06,4.26-.82,9.29-1.05,13.65-.26,4.87-.42,9.75-.53,14.63-.2,9.59-.46,19.27.45,28.83C209.73,580,219.36,596.08,230,612,235.88,620.8,242.13,629.32,248.55,637.71Zm-37.27-111c.6,13.27-.36,26.82,2.13,39.95a104.3,104.3,0,0,0,4.6,17.56C209,566.5,209.91,546,211.28,526.72Z" transform="translate(-86.89 -129.4)"/><path class="cls-19" d="M249,599c.07,1.56.15,3.13.22,4.7,0-1.34-.11-2.89-.22-4.7Z" transform="translate(-86.89 -129.4)"/><path class="cls-20" d="M258.69,332.54c4.27,15.08,16.92,22.42,31.8,22.25a32.35,32.35,0,0,0,4.9-.45,18.18,18.18,0,0,0-.37-2.94c-.35-1.61-.91-3.71-2.28-4.72s-4.13-1.49-5.85-2.21a43.34,43.34,0,0,1-11.59-7c-7.37-6.32-11.39-15.13-12.33-24.72a94,94,0,0,1,0-15c.29-4.6.79-8.89-.83-13.28h-.41a48.89,48.89,0,0,0-2.24,5.46,32.18,32.18,0,0,1-.38-5.47h-1.38C258.59,299.6,254.38,317.32,258.69,332.54Z" transform="translate(-86.89 -129.4)"/><path class="cls-20" d="M304,351.53a16,16,0,0,1-2.6-7.35,45.41,45.41,0,0,0-5.92,2.53,14.49,14.49,0,0,1,2.2,7.17,26,26,0,0,0,6.23-2.3Z" transform="translate(-86.89 -129.4)"/><path class="cls-20" d="M320,294.85c.9-3.47,1.9-6.91,3-10.32h-3.41Q319.8,289.69,320,294.85Z" transform="translate(-86.89 -129.4)"/><path class="cls-20" d="M380,334.6c1.19-.88,2.43-1.68,3.66-2.5,1-.65,2.45-2.24,3.55-2.55,1.65-.45.49.48-.3,1.21-1.23,1.14-2.67,2.07-4,3.11-2.44,1.92-5,4-6.34,6.91a8.86,8.86,0,0,0-.82,5.45c3.21-3.4,10.76-4.46,15-1.93h0a9.62,9.62,0,0,1-3.2-9c1.25-5.91,7.22-9.06,7-15.64-7.23,8.48-22.11,6.76-31.88,5.76-12.34-1.26-25-3.41-37.41-1.42-9.28,1.49-20.86,6.67-21.7,17.36a14.79,14.79,0,0,0,.74,5.94,13.27,13.27,0,0,0,1.37,2.84c1.77-1.76,2.5-4.06,4.59-6.44,3.79-4.32,9.72-4.91,14.51-7.41a17.32,17.32,0,0,1,3.32-3.07c9.78-6.87,22.78-2.34,33.72-4.28,1.41-.25,2.72-.87,4.1-1.14.25,0,2-1,1.34.21-.93,1.71-6.19,2.08-7.86,2.25-6.17.61-12.41.1-18.57.86-5.25.64-10.75,2.21-14.28,6.42a13.61,13.61,0,0,0-2.83,5.8c7.29-6.11,24.12-3.24,32.05-5.54l-.06.07a11.46,11.46,0,0,1,1.45-.92c4-2.09,8.51-2.84,12.61-4.68,1.15-.52,7.93-5.07,8.31-4.68.94,1-7.71,5.75-8.53,6.12-3.28,1.5-6.79,2.5-10,4.2a12,12,0,0,0-6.27,7.33c5.12-5.82,15.62-2.67,21.44-5.2A18.44,18.44,0,0,1,380,334.6Z" transform="translate(-86.89 -129.4)"/><path class="cls-20" d="M429.34,285.1l-.51-1.09c-2.41,5.95-.95,12.48-.62,18.68a53.91,53.91,0,0,1-1.48,16.84c-3,11.23-11,19.74-21.52,24.39-2.36,1.05-6.4,1.59-8,3.65a8.88,8.88,0,0,0-1.57,4,4.45,4.45,0,0,0,2.07,2.62c2.06,1.28,5.79-.06,7.89-.51,5.41-1.17,12.92-5.79,16.58-10.07,6.43-7.54,8.28-14.65,9.32-23.91S428.16,294.69,429.34,285.1Z" transform="translate(-86.89 -129.4)"/><path class="cls-21" d="M269.28,390.28c-.56.88-.47,2.75-.5,3.76-.08,2.91.2,3.94-3,4.31a44.09,44.09,0,0,1-7.62.2,38,38,0,0,1-4.34-.52,29.88,29.88,0,0,1-3,3.74c-3.74,4.19-8.65,6.23-14,7.71l-.27.07c1.39,2.05,1.13,5.47.42,7.51,2.49.22,4.91,1,7.44.7a19.29,19.29,0,0,0,6.76-2.26,56,56,0,0,0,6.52-4.13c1.84-1.32,4.11-3.89,6.17-4.65s1.78.51,1.49,2.66a68.69,68.69,0,0,1-1.4,7.25,111.14,111.14,0,0,1-4.86,14.57c-7.68,19.1-19.34,38.84-15.86,60.24,1.93,11.8,9.34,22,18.6,29.53-3.79-5.71-7.1-11.42-8.94-19-4.16-17.31-.35-34.93,7.59-50.54,7.72-15.16,12.6-48.66,17.81-64.36a23.26,23.26,0,0,1-5.95,2.29C271.18,389.58,269.81,389.45,269.28,390.28Z" transform="translate(-86.89 -129.4)"/><path class="cls-21" d="M230.2,413.51a4,4,0,0,1,.15-3.16,17,17,0,0,0-3.21.76A15.54,15.54,0,0,0,230.2,413.51Z" transform="translate(-86.89 -129.4)"/><path class="cls-21" d="M234.57,409.85l-2.64.29a2.94,2.94,0,0,0-.6,1.64c-.16,2.13.48,3.69-1,5.68a7.48,7.48,0,0,1-2,1.78,28.18,28.18,0,0,0,3.64,2.28,9.81,9.81,0,0,0,.9-.82C234.56,418.92,238.23,411.62,234.57,409.85Z" transform="translate(-86.89 -129.4)"/><path class="cls-21" d="M255.74,383.51c5.05,3,10.15,5.18,16.1,3.81a22,22,0,0,0,7.56-3.38c-11.42-5.27-19.86-8.64-25.85-14.9a41.44,41.44,0,0,1-12-30.45c.21-7.43,1.63-16.86,10.13-40.47-.1.24-.2.48-.28.72,1-6.86,2.28-13.8,1.64-20.77-3.13,10.36-6.25,20.61-10.57,30.58-4,9.3-8.31,18.7-9.57,28.86A47.13,47.13,0,0,0,255.74,383.51Z" transform="translate(-86.89 -129.4)"/><path class="cls-21" d="M463.14,412.67a4,4,0,0,0-2-1.49,17,17,0,0,1-4.29.19,57.17,57.17,0,0,1-15.33-2.95,58,58,0,0,1-12.63-5.81,28.21,28.21,0,0,1-5.4-4.21c-1.81-1.91-1.38-3.67-1.7-6.19a13.32,13.32,0,0,0-.24-1.54c.2-.94-.18-1.29-1.15-1.06-1.16-.55-2.86-.56-4.11-1a25.07,25.07,0,0,1-6.66-3.49c-.25-.17-.48-.35-.72-.54,1.36,4,1.08,9.59-.46,16A14.63,14.63,0,0,1,411.8,405c3.84,7.72,4.37,18.12-2.57,24.15a24.91,24.91,0,0,1-5,3.36c-10.11,8.22-24.71,12-37.05,12-.86,0-1.73,0-2.59,0a33.58,33.58,0,0,1,5.13,2.36,58.23,58.23,0,0,0-11.2-2.67c-3.34-.22-6.68-.5-10-.7-1.17,0-2.33,0-3.48.05a73.46,73.46,0,0,0-24.59,4.19,34.28,34.28,0,0,1,5.28-2.56h0c-5.3,1.47-22-2.6-29.85-3.05,3,1.32,5.85,2.85,8.73,4.26a42.86,42.86,0,0,0,21.52,4.79c8.93-.34,17.68-1.45,26.63-.86,8.28.54,17.15,2.21,25.2-.54,7.74-2.64,14.67-7.24,22.55-9.53,6.07-1.77,13.52-2.19,18.53,2.4,3.27,3,3.4,6.43,2.85,10.59a18.25,18.25,0,0,0,1.28,10.09c3,6.94,8.43,12.73,10,20.29.73,3.57.63,7.38-1.73,10.34-2.12,2.65-4.73,4.75-6.66,7.61-4.72,7-7.75,14.88-14,20.77A66.27,66.27,0,0,1,395.54,533a40.76,40.76,0,0,0-5.94,6.77,133.12,133.12,0,0,0,21.59-8c10.42-5,20.47-11.59,27.62-20.79,7.61-9.8,10.4-21.62,9-33.87-1.57-13.35-7.49-25.6-12.8-37.76a153.18,153.18,0,0,1-7.25-19.2,72.31,72.31,0,0,1-2.21-10.5c-.3-2.29-1.43-7.91,1.08-2.78a50.53,50.53,0,0,0,6.26,9.83c7.5,4,12.18,9.94,21.88,5.52C457.82,420.8,465.36,416.38,463.14,412.67Z" transform="translate(-86.89 -129.4)"/><path class="cls-21" d="M405.1,441c-5.22.71-10,3-14.69,5.35-4.82,2.41-9.67,5-15,6.11-6.45,1.33-13.18.57-19.68,0a119.51,119.51,0,0,0-20.11-.05c-6.22.5-12.7,1.29-18.9.26-8.12-1.33-15.28-6.31-22.93-9.38,4,3,17.21,11.44,18.18,12.16,3,2.24,11.9,2.89,15.65,3.42,12.22,1.75,23.86-.78,36.17-1.21,4.42-.16,8.79.35,13.14-.78,5.79-1.5,9.91-5.21,14.72-8.51a40.72,40.72,0,0,1,14.36-6.1,34.22,34.22,0,0,1,6.29-1A20.2,20.2,0,0,0,405.1,441Z" transform="translate(-86.89 -129.4)"/><path class="cls-21" d="M410.35,383.16a21.65,21.65,0,0,0,8.58,4.19c6.27,1.41,11.88-1.06,17.08-4.39,10.54-6.74,18.47-17.12,21.16-29.45,2.88-13.25-.6-25.94-5.84-38.11a351.82,351.82,0,0,1-13.57-37.33c-.63,7,.59,13.91,1.65,20.77-1.42-3.86-3.5-7.49-5.12-11.28a42.74,42.74,0,0,0,2,10.46c8.53,23.69,9.95,33.13,10.16,40.57a41.44,41.44,0,0,1-12,30.45C428.8,375,420.91,378.33,410.35,383.16Z" transform="translate(-86.89 -129.4)"/><path class="cls-20" d="M411.85,518.16a73.93,73.93,0,0,0,5.54-8.26c-16.15,15.26-34.22,20.31-56.72,22-17.9,1.33-46.85,2.12-63.48-5.16-5.76-2.52-16.17-6.44-24.55-17.69l.77,1.35a45.26,45.26,0,0,0,11.81,13.93A67.55,67.55,0,0,0,316,537.66c10.62,1.66,21.57,1.57,32.29,1.48s21.93.05,32.51-2.54a65.41,65.41,0,0,0,21.47-9.71C405.43,524.06,408.8,521.11,411.85,518.16Z" transform="translate(-86.89 -129.4)"/><path class="cls-21" d="M406.07,524a37.7,37.7,0,0,0,5.78-5.88c-3.05,3-6.42,5.9-9.62,8.73C403.54,526,404.83,525,406.07,524Z" transform="translate(-86.89 -129.4)"/><path class="cls-20" d="M406.07,524a37.7,37.7,0,0,0,5.78-5.88c-3.05,3-6.42,5.9-9.62,8.73C403.54,526,404.83,525,406.07,524Z" transform="translate(-86.89 -129.4)"/><path class="cls-22" d="M355.78,619.84a7.75,7.75,0,0,0-6.06-1.4,5.93,5.93,0,0,0-2.52,1.28c-.76.67-1.25,2.27-2.45,1.9-2.72,4.42-5.42,15-2.55,17.81,1.56,1.09,2.23,2,3.89,1.34a11.36,11.36,0,0,0,2.62-1.63c.86-.68,1.68-1.42,2.38-2a23.06,23.06,0,0,0,6-7.23,9.62,9.62,0,0,0,.54-1.28,12.56,12.56,0,0,0,.38-1.33,8.7,8.7,0,0,0,0-4A6.61,6.61,0,0,0,355.78,619.84Z" transform="translate(-86.89 -129.4)"/><path class="cls-19" d="M321.89,556.42c-3.22,4.32-6.44,5.85-10.44,4.3l5.11,3.4c1.31.86,1.95,1.52,3.53.81s3.2-2.72,4.53-4a86.67,86.67,0,0,0,11.68-14q-6.37-.15-12.71-.88C326.39,548.7,323.91,553.7,321.89,556.42Z" transform="translate(-86.89 -129.4)"/><path class="cls-19" d="M365.78,546.17q-6.43.68-12.92.77a87.65,87.65,0,0,0,11.66,14c1.26,1.22,3.45,4.15,5.32,4.49s5.17-2.84,6.62-3.78l1.11-.73c-3.76,1.23-6.85-.34-9.93-4.48C365.65,553.75,363.23,548.89,365.78,546.17Z" transform="translate(-86.89 -129.4)"/><path class="cls-19" d="M403.11,539.3a30.32,30.32,0,0,1-2.79,4.55A52.15,52.15,0,0,1,397,548c8.53,5.83,18.11,15.25,21.92,28.28h8.31a71.52,71.52,0,0,0-11.94-32.41,39.39,39.39,0,0,0-3.81-4.63c-.62-.66-1.25-1.31-1.87-2-1.23-1.28-.94-1.45-2.56-1.16C404.71,536.57,404,537.38,403.11,539.3Z" transform="translate(-86.89 -129.4)"/><path class="cls-23" d="M285.28,505c-1.46.94-3.22,2.33-2.73,4.13,4.72,1.27,10.54-4.5,14-7.2l.25-.34-.29-.18C292.14,501.11,288,503.23,285.28,505Z" transform="translate(-86.89 -129.4)"/><path class="cls-20" d="M302.83,460c-1.63-2.54-4.46-4.92-6.71-7a21.61,21.61,0,0,0-6.45-4.19,32.73,32.73,0,0,1,4.25,3.68,46.44,46.44,0,0,1,10.61,16c1.22,3.24-.57,4.23-3.56,2.57a85.63,85.63,0,0,0-9.3-4.87c-5.57-2.27-8.46-6.13-8.79-11.92-.91,7.85,2.32,13.83,9.32,19.35,6,4.72,19.83,5.78,15.37-5.36A47.51,47.51,0,0,0,302.83,460Z" transform="translate(-86.89 -129.4)"/><path class="cls-20" d="M392.88,457.23a40.09,40.09,0,0,1,6.14-6.61c.45-.36,1.06-.88,1.76-1.41a23.37,23.37,0,0,0-5.55,3.82c-2.25,2-5.08,4.42-6.71,7a47.51,47.51,0,0,0-4.74,8.32c-4.46,11.14,9.39,10.08,15.37,5.36C406.83,467.61,410,461,408.09,452a24.89,24.89,0,0,1-.32,4.65,10.79,10.79,0,0,1-3.68,6.71c-2.31,2-5.21,2.89-7.92,4.17s-5.72,4.07-8.81,4.59c-3.44.58-.21-5.63.23-6.53A46.5,46.5,0,0,1,392.88,457.23Z" transform="translate(-86.89 -129.4)"/><path class="cls-20" d="M284.85,490.51c12,12.16,30.34,18.6,46.67,22.17,18.94,4.13,39,1.79,57.86-2,9.41-1.87,19.16-4.31,27.81-8.67a16.35,16.35,0,0,0,2-1.53,7,7,0,0,1-.33-.84c-9.8-.25-20.15,1.46-29.93,3.3C355.09,509.34,314.57,510.86,284.85,490.51Z" transform="translate(-86.89 -129.4)"/></g></g></svg>