<svg xmlns="http://www.w3.org/2000/svg" xmlns:xlink="http://www.w3.org/1999/xlink" viewBox="0 0 473.91 554.87"><defs><style>.cls-1{isolation:isolate;}.cls-2{fill:#9fcef0;}.cls-3{fill:#e6e0d6;}.cls-4{fill:#f1f2f2;}.cls-5{fill:#f9b041;}.cls-11,.cls-6{fill:#a97d50;}.cls-7{fill:#e6d0a1;}.cls-10,.cls-8{fill:#f7f2e5;}.cls-10,.cls-12,.cls-13,.cls-8{mix-blend-mode:soft-light;}.cls-9{fill:#010101;}.cls-10{opacity:0.5;}.cls-11{opacity:0.35;mix-blend-mode:multiply;}.cls-12{fill:url(#Áåçûìÿííûé_ãðàäèåíò_3);}.cls-13{fill:url(#Áåçûìÿííûé_ãðàäèåíò_3-2);}.cls-14{fill:#1d1d1b;}</style><linearGradient id="Áåçûìÿííûé_ãðàäèåíò_3" x1="-49.09" y1="645.52" x2="-49.09" y2="691.78" gradientTransform="translate(342.65 -296.15) rotate(5.13)" gradientUnits="userSpaceOnUse"><stop offset="0" stop-color="#7eb2c7"/><stop offset="0.14" stop-color="#a0c6d6"/><stop offset="0.3" stop-color="#c2dbe5"/><stop offset="0.47" stop-color="#ddebf0"/><stop offset="0.64" stop-color="#f0f6f8"/><stop offset="0.81" stop-color="#fbfdfd"/><stop offset="1" stop-color="#fff"/></linearGradient><linearGradient id="Áåçûìÿííûé_ãðàäèåíò_3-2" x1="39.85" y1="645.52" x2="39.85" y2="691.78" xlink:href="#Áåçûìÿííûé_ãðàäèåíò_3"/></defs><title>bull_04</title><g class="cls-1"><g id="Layer_1" data-name="Layer 1"><path class="cls-2" d="M422,135.63c-24.22-9.38-54.55-7.95-77.81,2.8C317,151,302.54,167.61,288.33,193.9c-25.89,47.89-45.8,48.48-94.56,67s-81.84,32.44-102.36,91.29c-13.85,39.71,5.14,86.51,43,98,28.24,8.6,53,2.39,80.23,15.88,26.23,13,48,22.25,78.21,20.64,26.48-1.41,37.65-19.23,61.17-27,28.85-9.54,61.37,1,89.65,5.53,42.51,6.83,74.16,2.21,85.92-44.59,8-31.81,10.67-75.78-6.37-104.62-15.68-26.54-53.2-41.4-64.3-69.16-5.91-14.79,1-27.08,2.54-42.1C466.22,159.77,438,141.85,422,135.63Z" transform="translate(-62.58 -129.4)"/><path class="cls-2" d="M479.44,210.36c-38.1,10.29,7.07,90.43,37.53,46.75C530.85,237.21,504.34,203.63,479.44,210.36Z" transform="translate(-62.58 -129.4)"/><path class="cls-2" d="M420.27,417.52c-17.07-7-37.48-7.74-53.49,1.39C354.27,426,345.56,438.6,333,445.71c-11.58,6.59-25.59,8-37,14.89s-19.13,23.67-10,33.34c2.75,2.9,6.54,4.58,10.35,5.81,24.63,8,46,5.35,71.69,9,12.74,1.81,11,1.4,22.76,6.6C427.53,531.55,529.09,461.85,420.27,417.52Z" transform="translate(-62.58 -129.4)"/><path class="cls-3" d="M210.62,330.32c10.29-2.9,18.56-13.87,21.85-23.66,1.22-3.64,1.81-7.77.45-11.46-1.08-2.93-4.81-3.55-7.37-4.95a38.29,38.29,0,0,1-15-14.26c-4-7-5-14.92-4.39-22.84.56-7.58,3.76-15.94,1.52-23.42a51,51,0,0,0-2.94,5.57c-.3-3.47.52-7,.31-10.42-1.32,6.83-6.06,12.15-9,18.29,1.65-6.56,3.47-13.19,3.48-20-1.35,3.33-2.75,6.58-4.05,10q-1.8,4.68-4,9.21c-2.65,5.54-5.75,10.83-8.66,16.23-5.17,9.62-9.52,19.82-9.33,30.94a45.76,45.76,0,0,0,10,27.57C189.83,325,199.84,333.37,210.62,330.32Zm-30.47-23.88c-4.37-9.62-4.51-20.49-1.8-30.62-1.71,10.56-1.31,21.57,3.58,31.28a43.71,43.71,0,0,0,21.39,20,12.08,12.08,0,0,0,2.89,1c-5.18-.37-10.74-4.15-14.67-7.27A39.31,39.31,0,0,1,180.15,306.44Z" transform="translate(-62.58 -129.4)"/><path class="cls-4" d="M227.52,369.38c4.33,2.63,7.52-3.93,6-7.41C230.77,355.56,222,366.05,227.52,369.38Z" transform="translate(-62.58 -129.4)"/><path class="cls-4" d="M230.15,382.28a30.86,30.86,0,0,0,5-.29c1.36-.27,2.7-1.86,3.57-2.85a21.84,21.84,0,0,0,4.62-9.55c1.63-7.17-.68-14.18-7-18.27s-15.55-4.1-20.67,2c-4.12,4.89-6.49,12.66-3.54,18.69C215.2,378.2,223.49,382.26,230.15,382.28Zm-8.82-17.94c.58-4.81,5.63-9.79,10.75-8.22,4.75,1.45,8.62,5.8,7.79,11a8.81,8.81,0,0,1-10.89,7C223.48,374.28,220.73,369.25,221.33,364.34Z" transform="translate(-62.58 -129.4)"/><path class="cls-5" d="M167.31,349.15c-1,.45-.79,2-.83,2.35-.16,1.56-.08,2.77-1,4.12a7.9,7.9,0,0,1-3.88,2.74c-2.6.89-6,.6-7.7-1.77a7.1,7.1,0,0,1-.67-7.2,6.73,6.73,0,0,1,4.43-3.85c-.22-.59-.41-1.19-.57-1.78-2.65.84-4.74,1.73-6.1,4.48-2.61,5.3,0,12.31,5.79,13.94a11.47,11.47,0,0,0,12.34-4.86c1.19-1.81,2.37-4.84,1.3-7A2.34,2.34,0,0,0,167.31,349.15Z" transform="translate(-62.58 -129.4)"/><path class="cls-4" d="M309.43,381.06a18.69,18.69,0,0,0,2.26,5.37,14.16,14.16,0,0,0,1.79,2.28c.2.21.53.66.8.76a22.75,22.75,0,0,0,10.43,1.28c6.2-.61,13.5-3.71,15.86-9.93a19.33,19.33,0,0,0-3.95-19c-5.7-5.85-15.82-5.1-21.94-.36S307.61,374.06,309.43,381.06Zm15.4-16.32c5,2.25,6.89,7.73,5.31,12.76a7.45,7.45,0,0,1-5.88,5.13,12.73,12.73,0,0,1-8.1-1.28,9,9,0,0,1-3.33-11.48C314.81,366,320.64,362.87,324.83,364.74Z" transform="translate(-62.58 -129.4)"/><path class="cls-6" d="M193.48,465.77a10.44,10.44,0,0,1,.35-4c2.5,5,2.7,5.6,6.25,8.41a12.82,12.82,0,0,1-.31-4.16c2.64,4.4,5.71,6.21,10.1,8.47A45.13,45.13,0,0,1,200,463.9c-3.8-6-5.79-12.86-9.43-18.92-1.6-2.66-4.24-4.72-5.63-7.46a11,11,0,0,1-.58-7.55c1.4-5.88,5.48-10.79,8.94-15.58,1.82-2.52,3.81-5.19,4.67-8.22.73-2.55.52-5.19.5-7.81,0-5,2.82-8.65,7.46-10.35,11.28-4.12,22.7,5.69,31.92,10.74,11.79,6.46,25.48,3.68,38.32,5.32,6.73.85,13.38,2.55,20.16,3s12.74-1.95,18.93-4.19c8.82-3.2,22.22-8.11,29.86.26,4.65,5.09.79,10.25,1.21,16.09s4,11.11,6.26,16.38c2.06,4.8,4.17,11.35,1.53,16.36-1.21,2.31-3.51,3.61-5.4,5.29a38.6,38.6,0,0,0-5.61,6.56c-3.52,4.94-6.68,10.28-11.24,14.36-.48.43-1,.85-1.49,1.26a11.78,11.78,0,0,1-1.32,6c4.82-1.62,11.6-4.72,13.9-12.49a12.16,12.16,0,0,1,.12,3.7c2.52-3.16,5.36-6.7,6.92-10.44.31,2.07.28,4.22.79,6.25,6.15-3.77,11.62-11.15,14-14.64a41.28,41.28,0,0,0,2.91-6.19c8.35-22.39-4-45.27-9.74-66.61a84,84,0,0,1-3-17.15c0-.83-.64-3.59.41-4,1.31-.47,1.15,1,1.34,1.74a34.27,34.27,0,0,0,3.32,7.78c3,5.34,8.37,9.15,13.48,12.35s10.09,3.79,15.54,1.32c5.83-2.65,7.11-7.24,7.69-13.22.16-1.67.76-4.25-.28-5.76-1.23-1.78-3.44-.43-4.95.23-11.95,5.22-24.38,1.62-33.22-7.48-1.7-1.74-4.7-4.5-5.44-6.92-.38-1.25,0-2.78,0-4.1a8.41,8.41,0,0,0-.14-2.3c-.41-1.11-.12-.45-1.15-1-1.48-.76-3.27-1-4.78-1.82a24.62,24.62,0,0,1-3.39-2.11,25.88,25.88,0,0,1-6.15-6.46,50.67,50.67,0,0,1-7.79-17.56c-1.06-4.93-1.48-11.41,1.7-15.69-4.37-2-7.8-7-6.29-11.93.84-2.71,2.95-4.67,4.76-6.75a12.93,12.93,0,0,0,3.48-7.84c-6.91,6.69-19,4.92-27.51,3.45-9.59-1.64-19-4.17-28.7-5.15-8.14-.82-16.77-.81-24.28,2.84-6.54,3.18-11.24,9.43-9.73,17a13.63,13.63,0,0,0,2.08,4.88c.47.7,1.64,3.08-.46,2.61-1.34-.3-2.62-3.48-3.05-4.58a16.18,16.18,0,0,1-1.1-5.71,42,42,0,0,0-5.95,1.89c2.75,5.32.64,12.78-1.74,17.8a49.55,49.55,0,0,1-11.36,15.06,26,26,0,0,1-7.37,4.78,24.25,24.25,0,0,1-3.81,1.25c-1.29.31-2.83.18-4.07.56-.74-.28-1.08-.06-1,.65-.14.42-.27.85-.4,1.28s-.25,1.11-.34,1.66c-.16,1.08,0,2.26-.46,3.24-1,2-4.62,1.23-6.62,1.1a34.39,34.39,0,0,1-16.13-4.89c-4.81-3-7.74-8.27-12.62-11.19a8.51,8.51,0,0,0-4-1.37,5.64,5.64,0,0,0-1.36.11c-.39.09-1.54.86-1.91.92a16.24,16.24,0,0,0-2.08,5.94,38.39,38.39,0,0,0-1,8.27c.1,4.74,2.84,10.83,6.84,13.74a3.11,3.11,0,0,1-.16-.7c-.11-3.84,2.61-4.39,3.89-4.34,4.3.16,3.75,6.48,2.53,9.14,4,.74,7,1.82,11.07.73a38.39,38.39,0,0,0,9.35-4.22c1.51-.88,3-1.82,4.46-2.75.66-.42,2.48-2.13,3.24-1.72,1.65.89-.92,7.1-1.38,8.54-7.65,23.56-27.36,43.12-27.48,69,0,10.9,4.15,20.23,10.62,28.08.7-1.24,2.54-4.47,2.76-5.81C188.62,455.41,188.84,464.26,193.48,465.77Zm148.59-99.66c2.43,7.12,2.19,16.37-4.12,21.42-5.85,4.69-16.31,7.48-23.28,3.67-6.62-3.61-8.4-12.8-7.61-19.66,1.05-9.18,9.3-15.4,18.18-16C332.88,355.07,339.54,358.72,342.07,366.11ZM325.47,285c.88-.61,0,.85,0,.83-.34.6-1.74,1.19-2.32,1.56-1.34.87-2.72,1.7-4,2.61-2.41,1.67-4.92,3.71-6.08,6.49a6.71,6.71,0,0,0,.68,6.84c.61.75,2.63,1.56,2.6,2.61,0,1.36-1.38,1.13-2.24.79-4.84-1.94-4.52-8.76-2-12.36C315.24,289.75,321,288.08,325.47,285Zm-9.69-1.58a8.91,8.91,0,0,1-2.19,1.59,26,26,0,0,1-4.5,2.2c-3.37,1.3-6.91,2-10.31,3.24s-6.4,3.2-7.85,6.7a9.86,9.86,0,0,0-.58,5.58c.16.9,1.12,3.45-.93,3.11-2.56-.44-1.7-6.63-1.18-8.24a13,13,0,0,1,5.66-7.13c3.35-2,7.43-2.26,11.12-3.22a33.81,33.81,0,0,0,10.91-4.92C317,281.59,315.62,283.64,315.78,283.44Zm-55.39,7.92c3.26-7.28,10.34-10.24,18-10.35,8.84-.13,18.74,3.51,27.32.34.6-.22.35.46.28.66a7.15,7.15,0,0,1-1.55.62,16.91,16.91,0,0,1-3.23.7,42.09,42.09,0,0,1-7.53,0c-5.21-.32-10.46-1-15.69-.58-8.54.65-15.57,5.21-16.58,14.19-.14,1.31.39,4.6-.39,5.63-1.06,1.37-2,.06-2.15-1A18.23,18.23,0,0,1,260.39,291.36ZM272,395.4c8.95.29,18.82,2.13,26.27,7.37-10.9-5-24-6.3-35.85-5.54a61.58,61.58,0,0,0-12.07,1.92C257.05,396,264.74,395.17,272,395.4Zm-56.1-46c7-5.84,17.95-3.35,24.15,2.5,5.85,5.52,6.67,13.63,4,20.94-2.56,7.1-7.85,12.12-15.71,11.34-6.95-.69-14.62-4.72-18-11.05C206.7,366.12,210,354.28,215.94,349.35Z" transform="translate(-62.58 -129.4)"/><path class="cls-4" d="M324,378.07c2.51-1.22,2.06-4.32,1.34-6.54s-3-4.59-5.41-2.76c-1.85,1.43-2.22,4.36-1.38,6.41S321.66,379.2,324,378.07Z" transform="translate(-62.58 -129.4)"/><path class="cls-3" d="M330.9,316.73c1.08,6.93,4.54,13.48,8.58,19.14a22.46,22.46,0,0,0,11.29,8.41c5.29,1.67,10.39.36,15.25-2,17.25-8.24,27.71-25.09,26.92-44.27-.41-9.91-3.78-19.34-6.87-28.67a141.7,141.7,0,0,1-4.05-14c-.59-2.68-1.06-5.39-1.52-8.09-.43-2.52-1.22-4.89-1.72-7.39-1.25,6.71-.69,13.56-.29,20.32-1.73-6.58-5.41-12.69-5.45-19.65-.84,3.38-.68,6.94-1.62,10.3a50.89,50.89,0,0,0-1.86-6c-2.31,4.47-2.1,9.22-2.19,14.11a77.37,77.37,0,0,1-1,12.71c-1.33,7.13-4.26,14-9.27,19.38s-11.89,8.78-19,10.77c-1.35.37-3.5.52-4.62,1.44a8.41,8.41,0,0,0-1.83,3.42A20.51,20.51,0,0,0,330.9,316.73Zm35.56,20.56A42.86,42.86,0,0,0,379.4,327c7.41-8.82,10.15-20.16,10.44-31.46.72,9.62-1,19.57-6.16,27.82a40.14,40.14,0,0,1-27.82,18.21,12.24,12.24,0,0,1-3.08.17C357.33,341.84,362.55,339.34,366.46,337.29Z" transform="translate(-62.58 -129.4)"/><path class="cls-6" d="M253.24,631.63c-6-8.7-9.39-19.18-11.69-29.4a164.74,164.74,0,0,1-4.1-39.21c.41-18.49,5-38.84,18.3-52.5a46.16,46.16,0,0,1,10.42-8c-4.34-1.41-9-2.41-12.51-4.34a17.52,17.52,0,0,0,2.48,4c-4.53-1.27-12.81-2.9-15.16-7.47a8.67,8.67,0,0,1-.4,4.84c-6.36-3.9-12.6-4.3-15.85-12.34-.59,1.67-.18,3.87-.16,5.67-3.52-1-12.91-4-13.87-7.72a8.12,8.12,0,0,0-.71,3.65c-4.54-2.82-12.05-6.79-15-14.22a22.85,22.85,0,0,0-.13,6,36,36,0,0,1-3.85-3.68l-.12.13a57.81,57.81,0,0,0-12.84,24.61c-5,20.41,3.85,40,14.52,57.07a113.15,113.15,0,0,0,8.22,11.57,61.44,61.44,0,0,0,5.12,5.58c1,1,3.54,3.79,4.74,3.46,1-.27,2.44-1.89,3.34-2.47,1.47-.93,3-1.78,4.55-2.58a36.88,36.88,0,0,1,9.07-3.64c-3.33-12.4-4.73-26.1-1.6-38.72.24-.94.57-3.61,1.34-4.15,1.19-.83.57,1.43.51,2-.34,2.81-.8,5.6-1.09,8.42a75.07,75.07,0,0,0,.26,17.47,70.23,70.23,0,0,0,4.46,17.4c1.51,3.63,5.39,9.38,2.37,13.23-3.86,4.92-13.78.51-18-1.81A75.11,75.11,0,0,1,205.2,577a59.93,59.93,0,0,1-10.56-11.36c-3.89,13.3-11.33,27.37-8.7,41.63,2.23,12.05,9.15,23.43,15.71,33.58,7,10.81,14.81,21,22.19,31.57,1.72,2.46,3.29,5.61,5.79,7.39,1.43,1,1.49.44,2.57-.73.79-.86,1.62-1.67,2.49-2.46A66.43,66.43,0,0,1,247,668c1-.56,2-1.1,3-1.59a9.64,9.64,0,0,0,2.39-1c.65-.71.87-3,1.22-4,.44-1.31.92-2.62,1.43-3.9a57.09,57.09,0,0,1,8.7-15.32A37.4,37.4,0,0,1,253.24,631.63ZM188.46,489.81c-14.54,25-.78,55.28,15.51,75.61C186.12,546.53,171.78,513.86,188.46,489.81Z" transform="translate(-62.58 -129.4)"/><path class="cls-6" d="M332.64,514.55a119,119,0,0,1-2.93-12.2c-.16-.89-1-5-1.25-7.9-3.23,3.65-8.29,5.56-12.5,8,.8-2.75.58-5.7.85-8.53-1.52,4.87-6.93,7.85-11.38,9.5a8.64,8.64,0,0,0,1.28-6.18c-2.73,1.46-5.31,3.08-8,4.53l.9.36a49.32,49.32,0,0,1,6.5,3.36,51.39,51.39,0,0,1,11.57,9.83c7.47,8.5,11.85,19,14.74,29.79,3.31,12.43,3.56,25.59,3.27,38.41-.14,6.46-2,13-3.92,19.08A71.08,71.08,0,0,1,324,619.32c-3.14,4.92-6.84,9.66-11.63,13.08S301.66,638,296,640.09c11.65,3.7,20,14.45,28.77,22.43q3.61,3.29,7.39,6.38a40.05,40.05,0,0,0,3.46,2.6c1.57,1,1.61,1.33,2.66-.12,2.62-3.57,6.19-7.54,10.28-9.43a47.15,47.15,0,0,1-5.63-10c-3-7.38-4.11-15.31-4.82-23.21-.29-3.24-1.3-7.38-.62-10.59s3.23-6.25,4.59-9.14a65,65,0,0,0,6.24-23c.61-8.3-.48-16.47-1.89-24.64a150.39,150.39,0,0,0-6.06-23.82C337.74,529.87,334.9,522.31,332.64,514.55Z" transform="translate(-62.58 -129.4)"/><path class="cls-7" d="M306.54,634.14A38.17,38.17,0,0,0,320,622.8c7.64-10.06,11.61-22.08,14-34.34,1.18-6,.56-12.57.46-18.68a103.93,103.93,0,0,0-1.67-19c-2.34-11.59-6.48-23.27-13.81-32.68a52.34,52.34,0,0,0-11.16-10.68,49.18,49.18,0,0,0-7-4.1c-.94-.44-1.9-.85-2.86-1.24-1.13.58-2.28,1.13-3.48,1.61-2.82,1.14-5.48.87-8.38,1.22a6.56,6.56,0,0,0,0-1.32,28.06,28.06,0,0,0-.94-3.09l-.3-.58c-1.22,2.6-.44,4.28-5.55,8-.86-2-5.82-6.59-7.3-7.73a1.16,1.16,0,0,1-.11.16c.42,1.36,2,5,2.14,5.92a22.89,22.89,0,0,0-7-3.55c-.6.34-1.18.68-1.76,1a52,52,0,0,0-19.53,23c-5.14,11.38-7.07,24.12-7.34,36.53a155.09,155.09,0,0,0,4.5,40c2.66,10.71,6.53,21.66,13.6,30.31a41.6,41.6,0,0,0,6.09,6.07c1.27,1,1.55,1.51,3.07,1.12s3.1-.72,4.66-1a60.61,60.61,0,0,1,20-1c1.84.25,2.75.6,4.51,0,1.32-.47,2.65-.94,4-1.42A76.51,76.51,0,0,0,306.54,634.14Z" transform="translate(-62.58 -129.4)"/><path class="cls-6" d="M410.89,514.38c-4-.13-8.07-.16-12.11-.36A208.12,208.12,0,0,1,374,511.44,67.72,67.72,0,0,1,352.09,504c-5.94-3.32-12.06-7.51-16.5-12.79-1.23.66-2.46,1.25-3.69,1.76a3,3,0,0,0-1-2.45,12.74,12.74,0,0,1-1.13,2.28c.14,1,.13,2.2.18,2.56.25,2,.58,3.93,1,5.88a118.31,118.31,0,0,0,3,11.57c1.18,3.83,2.51,7.61,3.87,11.38q1.09,3,2.21,6.06c.32.86.63,1.72.94,2.58a9.44,9.44,0,0,0,.47,1.29c.76,1.31.1.57,1.28.88a36.62,36.62,0,0,0,6.3.56,60.56,60.56,0,0,0,6.32,0c4.17-.17,8.33-.61,12.46-1.16a181,181,0,0,0,24.3-4.83c6.81-1.88,15.35-4.06,20.54-9.19C415,517.94,414.75,514.51,410.89,514.38Z" transform="translate(-62.58 -129.4)"/><path class="cls-7" d="M328.65,478.59c5.59-4.46,9.05-10.41,13.18-16.12a35.4,35.4,0,0,1,7-7.59c3.23-2.47,4.71-4.63,4.62-8.82-.17-7.81-5.3-14.27-7.73-21.41a19,19,0,0,1-.72-10.44c.69-3.11,1.5-6.19-.58-9-4.27-5.77-12.44-5.53-18.68-4-6.52,1.63-12.5,4.84-19,6.56-7.52,2-15.1.76-22.62-.61A152.43,152.43,0,0,0,259.28,405a79.87,79.87,0,0,1-12.26-.95A33.67,33.67,0,0,1,236.7,400c-6.51-3.59-12.78-8.17-20-10.22-5.52-1.55-14.63-1.07-16.09,6-.63,3,.2,6.12-.39,9.15-.68,3.47-2.59,6.49-4.59,9.35-3.85,5.48-9.35,11.26-9.64,18.36-.15,4,2.29,6.05,4.47,9a52.76,52.76,0,0,1,5.26,9.54c2.87,6.27,5.6,12.78,10.64,17.67a77.6,77.6,0,0,0,8.32,7l.33.24c.71-2.14-.18-4.5-.35-6.77,2.74,2,3.78,6.08,7.08,7.56a7.93,7.93,0,0,0,.17-2.12c1.15.77,1.85,1.89,3.06,2.58-.07-1.14-.29-2.32-.25-3.39,3,4.59,9.16,9.09,14.56,10.19a10.47,10.47,0,0,0-.56-3c2.88,1.85,8.11,9,13.57,7.79-.56-2-2.08-3.58-2.6-5.62,3.6,2.06,5.73,6.76,10.42,7.56a29.92,29.92,0,0,1-3-4.61,26,26,0,0,0,6.79,3.88c-.07-1.07-.43-2.22-.62-3.6-.64-4.64,3.56-4.07,4.29-8,.18-1-.66-2.19-.48-2.95.37-1.53,1.13-.63,1.75-2s1.16-2.51,1.35-1.61,1.08,2.95,1.17,3.56c.31,2-.22,3-1,5.43.63.06,1.48.79,2.07.86-.23,1.11-1.42,3.41-1,4.47s1.8,1.23,2.35,2.07a10.36,10.36,0,0,1,1.11,2.54,5.92,5.92,0,0,0,4.47-2.66,7.83,7.83,0,0,1-1.26,3.64,19.23,19.23,0,0,0,10.94-6.09,35.1,35.1,0,0,1-1.06,5.72c4.92-.14,10.27-4.22,14.08-7.3-.51,1.59-1,3.27-1.33,4.9,1.18-.64,2.38-1.26,3.58-1.86-.15.42,0,1.07-.14,1.52,4.66-.8,13.33-6.61,15.29-10.28-.23,2.3-.2,4.63-.92,6.51A55.39,55.39,0,0,0,328.65,478.59ZM312.7,422.48a46.17,46.17,0,0,1,5.83-7.51,37.23,37.23,0,0,1,7-6.17c1.52-1,4.88-3.35,6.73-2.05,2.36,1.64,1.27,6.63.75,8.88A10.46,10.46,0,0,1,328.8,422c-2.36,1.67-5.16,2.29-7.84,3.24-2.9,1-6.08,3.5-9.16,3.73C308.37,429.2,312.2,423.31,312.7,422.48ZM212.09,401c.21-2.24,1-6.31,4.13-5.19,2.61.95,5,3.68,6.76,5.76a44.75,44.75,0,0,1,8.83,16.68c.92,3.52-1.61,3.43-4,1.7a66,66,0,0,0-8.35-5.39C213.87,411.65,211.5,407.25,212.09,401Zm99.49,60.94c-12.89,5.23-27.46,8.32-41.4,7-14.48-1.4-29.1-7.4-41.6-14.61a76.29,76.29,0,0,1-16.93-12.73c-3.35-3.45-8.14-8.95-8.64-14-.1-1.08.41-2.66,1.76-1.55.57.47.71,2.1.95,2.78a26.29,26.29,0,0,0,2.66,5.3,44.62,44.62,0,0,0,8.5,9.44c7.71,6.62,16.87,11.57,26.2,15.5,8.14,3.43,16.78,6.32,25.57,7.49,10.12,1.34,20.64-.09,30.45-2.7s19.87-6.73,28.14-13a36.87,36.87,0,0,0,9.14-9.46,23.24,23.24,0,0,0,1.63-3c.27-.6.47-1.89,1-2.26,1.5-1,1.8.68,1.6,1.71a12,12,0,0,1-1.41,3.11C333.61,451.2,322.07,457.68,311.58,461.94Z" transform="translate(-62.58 -129.4)"/><path class="cls-6" d="M182.88,602.89c-.55-.65-4-.8-4.79-1a77.28,77.28,0,0,1-9.33-2.73,50.52,50.52,0,0,1-15-8.39,37.87,37.87,0,0,1-13.63-27c-.8-11.49,2.52-22.36,6.64-32.93a99.75,99.75,0,0,0,5.41-16.75,67.36,67.36,0,0,0,.72-19.12,159.69,159.69,0,0,0-2.83-17.38h-2.34c.14.6.24,1.11.29,1.31a75.76,75.76,0,0,1,2.6,18c.2,11.25-3.2,21.27-7.19,31.62-3.77,9.77-6.74,19.61-7.33,30.13-.55,9.79,1.21,19.69,7.27,27.62,5.76,7.55,14.1,12.73,22.76,16.34a77.5,77.5,0,0,0,17.31,5.16C183.3,606.91,183.48,603.59,182.88,602.89Z" transform="translate(-62.58 -129.4)"/><path class="cls-7" d="M125,424.81a76.61,76.61,0,0,1,3.64,29.09,1.06,1.06,0,0,1-1.16,1c1.07,5.5.57,11.68,4.48,16,4.11,4.53,10.74,5.52,16.44,6.67a1,1,0,0,0,.55-.19c8.52-7.72,3-20.19-2-28.32C141.25,439.64,133.33,432,125,424.81Z" transform="translate(-62.58 -129.4)"/><path class="cls-8" d="M141.56,448.54c1.59,6.38-1.32,15.13,1.55,21.31,2.06,4.41,4.31,6,6.47,5.86,7.49-7.27,2.39-18.74-2.18-26.26a76.16,76.16,0,0,0-10.05-12.86A87.13,87.13,0,0,1,141.56,448.54Z" transform="translate(-62.58 -129.4)"/><path class="cls-9" d="M311.8,429c3.08-.23,6.26-2.7,9.16-3.73,2.68-1,5.48-1.57,7.84-3.24a10.46,10.46,0,0,0,4.24-6.35c.52-2.25,1.61-7.24-.75-8.88-1.85-1.3-5.21,1.09-6.73,2.05a37.23,37.23,0,0,0-7,6.17,46.17,46.17,0,0,0-5.83,7.51C312.2,423.31,308.37,429.2,311.8,429Z" transform="translate(-62.58 -129.4)"/><path class="cls-9" d="M229,374.11a8.81,8.81,0,0,0,10.89-7c.83-5.21-3-9.56-7.79-11-5.12-1.57-10.17,3.41-10.75,8.22S223.48,374.28,229,374.11ZM233.53,362c1.51,3.48-1.68,10-6,7.41C222,366.05,230.77,355.56,233.53,362Z" transform="translate(-62.58 -129.4)"/><path class="cls-9" d="M235,340.85c2-.18,4-.28,6.07-.29,1.53,0,5.95.73,7-.55,1.3-1.62-1.63-3.7-2.78-4.19-3.52-1.49-7.23-.35-10.57,1-1.17.47-6.81,3.31-3.2,4.17A11.37,11.37,0,0,0,235,340.85Z" transform="translate(-62.58 -129.4)"/><path class="cls-9" d="M203.32,327.08a43.71,43.71,0,0,1-21.39-20c-4.89-9.71-5.29-20.72-3.58-31.28-2.71,10.13-2.57,21,1.8,30.62a39.31,39.31,0,0,0,11.39,14.37c3.93,3.12,9.49,6.9,14.67,7.27A12.08,12.08,0,0,1,203.32,327.08Z" transform="translate(-62.58 -129.4)"/><path class="cls-9" d="M219.46,414.56a66,66,0,0,1,8.35,5.39c2.39,1.73,4.92,1.82,4-1.7A44.75,44.75,0,0,0,223,401.57c-1.72-2.08-4.15-4.81-6.76-5.76-3.08-1.12-3.92,2.95-4.13,5.19C211.5,407.25,213.87,411.65,219.46,414.56Z" transform="translate(-62.58 -129.4)"/><path class="cls-9" d="M339.22,440.9a12,12,0,0,0,1.41-3.11c.2-1-.1-2.74-1.6-1.71-.55.37-.75,1.66-1,2.26a23.24,23.24,0,0,1-1.63,3,36.87,36.87,0,0,1-9.14,9.46c-8.27,6.23-18.19,10.31-28.14,13s-20.33,4-30.45,2.7c-8.79-1.17-17.43-4.06-25.57-7.49-9.33-3.93-18.49-8.88-26.2-15.5a44.62,44.62,0,0,1-8.5-9.44,26.29,26.29,0,0,1-2.66-5.3c-.24-.68-.38-2.31-.95-2.78-1.35-1.11-1.86.47-1.76,1.55.5,5.08,5.29,10.58,8.64,14a76.29,76.29,0,0,0,16.93,12.73c12.5,7.21,27.12,13.21,41.6,14.61,13.94,1.36,28.51-1.73,41.4-7C322.07,457.68,333.61,451.2,339.22,440.9Z" transform="translate(-62.58 -129.4)"/><path class="cls-9" d="M228.41,384.13c7.86.78,13.15-4.24,15.71-11.34,2.64-7.31,1.82-15.42-4-20.94-6.2-5.85-17.12-8.34-24.15-2.5-5.93,4.93-9.24,16.77-5.52,23.73C213.79,379.41,221.46,383.44,228.41,384.13ZM215.7,353.31c5.12-6.09,14.3-6.14,20.67-2s8.6,11.1,7,18.27a21.84,21.84,0,0,1-4.62,9.55c-.87,1-2.21,2.58-3.57,2.85a30.86,30.86,0,0,1-5,.29c-6.66,0-15-4.08-18-10.28C209.21,366,211.58,358.2,215.7,353.31Z" transform="translate(-62.58 -129.4)"/><path class="cls-9" d="M312.83,369.87a9,9,0,0,0,3.33,11.48,12.73,12.73,0,0,0,8.1,1.28,7.45,7.45,0,0,0,5.88-5.13c1.58-5-.3-10.51-5.31-12.76C320.64,362.87,314.81,366,312.83,369.87Zm7.08-1.1c2.37-1.83,4.66.49,5.41,2.76s1.17,5.32-1.34,6.54c-2.32,1.13-4.59-.8-5.45-2.89S318.06,370.2,319.91,368.77Z" transform="translate(-62.58 -129.4)"/><path class="cls-9" d="M319.51,342.86c-2.52-1.16-9.18-2.34-10.14,1.65-.52,2.15,3,2.12,4.37,2.4,2.3.46,4.59.91,6.86,1.51.88.23,6.68,2.45,6.35.47C326.51,346.2,321.7,343.86,319.51,342.86Z" transform="translate(-62.58 -129.4)"/><path class="cls-9" d="M307.06,371.54c-.79,6.86,1,16,7.61,19.66,7,3.81,17.43,1,23.28-3.67,6.31-5,6.55-14.3,4.12-21.42-2.53-7.39-9.19-11-16.83-10.54C316.36,356.14,308.11,362.36,307.06,371.54Zm29.56-9.76a19.33,19.33,0,0,1,3.95,19c-2.36,6.22-9.66,9.32-15.86,9.93a22.75,22.75,0,0,1-10.43-1.28c-.27-.1-.6-.55-.8-.76a14.16,14.16,0,0,1-1.79-2.28,18.69,18.69,0,0,1-2.26-5.37c-1.82-7-.75-15,5.25-19.64S330.92,355.93,336.62,361.78Z" transform="translate(-62.58 -129.4)"/><path class="cls-9" d="M293.9,290.49a13,13,0,0,0-5.66,7.13c-.52,1.61-1.38,7.8,1.18,8.24,2.05.34,1.09-2.21.93-3.11a9.86,9.86,0,0,1,.58-5.58c1.45-3.5,4.4-5.47,7.85-6.7s6.94-1.94,10.31-3.24a26,26,0,0,0,4.5-2.2,8.91,8.91,0,0,0,2.19-1.59c-.16.2,1.24-1.85.15-1.09A33.81,33.81,0,0,1,305,287.27C301.33,288.23,297.25,288.53,293.9,290.49Z" transform="translate(-62.58 -129.4)"/><path class="cls-9" d="M261,302.56c.78-1,.25-4.32.39-5.63,1-9,8-13.54,16.58-14.19,5.23-.39,10.48.26,15.69.58a42.09,42.09,0,0,0,7.53,0,16.91,16.91,0,0,0,3.23-.7A7.15,7.15,0,0,0,306,282c.07-.2.32-.88-.28-.66-8.58,3.17-18.48-.47-27.32-.34-7.62.11-14.7,3.07-18,10.35a18.23,18.23,0,0,0-1.56,10.21C259,302.62,259.92,303.93,261,302.56Z" transform="translate(-62.58 -129.4)"/><path class="cls-9" d="M312.06,294.39c-2.48,3.6-2.8,10.42,2,12.36.86.34,2.2.57,2.24-.79,0-1-2-1.86-2.6-2.61a6.71,6.71,0,0,1-.68-6.84c1.16-2.78,3.67-4.82,6.08-6.49,1.32-.91,2.7-1.74,4-2.61.58-.37,2-1,2.32-1.56,0,0,.85-1.44,0-.83C321,288.08,315.24,289.75,312.06,294.39Z" transform="translate(-62.58 -129.4)"/><path class="cls-9" d="M355.86,341.6a40.14,40.14,0,0,0,27.82-18.21c5.15-8.25,6.88-18.2,6.16-27.82-.29,11.3-3,22.64-10.44,31.46a42.86,42.86,0,0,1-12.94,10.26c-3.91,2-9.13,4.55-13.68,4.48A12.24,12.24,0,0,0,355.86,341.6Z" transform="translate(-62.58 -129.4)"/><path class="cls-9" d="M298.31,402.77c-7.45-5.24-17.32-7.08-26.27-7.37-7.3-.23-15,.58-21.65,3.75a61.58,61.58,0,0,1,12.07-1.92C274.33,396.47,287.41,397.73,298.31,402.77Z" transform="translate(-62.58 -129.4)"/><path class="cls-9" d="M188.46,489.81c-16.68,24.05-2.34,56.72,15.51,75.61C187.68,545.09,173.92,514.81,188.46,489.81Z" transform="translate(-62.58 -129.4)"/><path class="cls-9" d="M415.16,514c-1.91-2.37-6.38-1.54-9.05-1.61q-6-.15-12.06-.54a178,178,0,0,1-24.79-3.16,61.41,61.41,0,0,1-21.47-9.49,76.58,76.58,0,0,1-9-7.23c-.57-.53-1.13-1.1-1.69-1.66,2.59-1.49,5.13-3.18,7.5-4.73,2.65-1.73,5.37-3.44,7-6.27a3.65,3.65,0,0,1,.35,2.41c7.48-4.9,11.67-11.19,13.31-20.37,18.7-27.67-2.71-60.05-7.57-88.47,3.84,7.32,11.88,14.16,19.63,17,7.29,2.67,17.47-1.26,20.25-8.71,1.48-3.95,4.32-17.19-3.43-16a24.54,24.54,0,0,0-4.82,1.73,29.23,29.23,0,0,1-7,1.64,22.8,22.8,0,0,1-12-1.84A34.64,34.64,0,0,1,360,359c-1.45-1.51-3.46-3.24-4.52-5.06s-.29-4.72-.87-6.93c10.36.89,21.22-6.87,27.84-14.12a46.71,46.71,0,0,0,12.42-30.28c.37-13.48-4.79-25.83-8.49-38.52-3.51-12-7.3-26.05-4.44-38.56a24.21,24.21,0,0,1,2.89-7.62c.58-.91,3.85-3.38,1.22-3.67-1.72-.2-4.6,1.7-6,2.59a23,23,0,0,0-5.19,4.49c-5.92,6.85-8.18,16.31-8.87,25.13-.91,11.59.49,23.84-4.49,34.71-4.89,10.67-14.77,16.53-25.79,19.31-1.18.3-2.26.81-3.39.53a7.51,7.51,0,0,1-2.9-1.84,8,8,0,0,1-2.73-7c.46-2.63,2.5-4.6,4.19-6.52a15.14,15.14,0,0,0,4.11-8.35c.11-.93.57-3.22-.11-4-1-1.14-1.77.26-2.45.94a15.14,15.14,0,0,1-6.56,3.72c-4.94,1.41-10.38,1-15.42.37-13.15-1.55-25.82-5.86-39.14-6.35C261,271.62,246.74,274,241.9,284.6a16,16,0,0,0-1.22,3.93c-.23,1.25,0,.84-1,1.37a14.77,14.77,0,0,1-2.53.56c-1.12.31-3,1.54-4,1.5-.82,0-2.55-1.36-3.36-1.73a42.05,42.05,0,0,1-13.9-9.91c-8.12-9.18-8.86-21.44-7.26-33,1.46-10.49,4-21.11,1.95-31.72a28.93,28.93,0,0,0-6.82-14.06,21.8,21.8,0,0,0-3-2.73c-.76-.56-2.54-2-3.51-2.1-2.7-.18.24,3.1.69,4.26,4.07,10.6-.86,23.85-5,33.64-4.6,10.92-11.2,20.78-16,31.56-4.59,10.23-6.6,21.29-4.25,32.37a48.2,48.2,0,0,0,15.89,26.6c4.22,3.59,9.24,7.09,14.87,7.83a14,14,0,0,0-1.26,4.21c-.2,1.31.25,1.55-1,1.85a7.15,7.15,0,0,1-1.6,0,37.87,37.87,0,0,1-8.68-1.16,31.43,31.43,0,0,1-14.36-8.2c-3.32-3.26-7.38-8-12.57-7.6a6.42,6.42,0,0,0-2.1.92.49.49,0,0,0-.44,0c-2.33,1.06-3,3.7-3.51,6a41.22,41.22,0,0,0-1.46,10.23,19.19,19.19,0,0,0,.33,3.06,10.35,10.35,0,0,0-5.25,2.79c-7.35,7.26-1,20.05,9.14,19a14,14,0,0,0,8.3-4c.42-.41,1.61-2.24,1.79-2.25s1.19.56,1.6.71a16.85,16.85,0,0,0,5.39,1.09c7,.27,14.29-4.08,19.93-7.91-7.5,25.83-29.61,47.42-29.26,75.46a42.1,42.1,0,0,0,2,12.29c-.12,8.44,3,17.93,9,24.34a12.91,12.91,0,0,0,1.1-3.35,83.57,83.57,0,0,0,9,14.46,59.88,59.88,0,0,0-6.41,8.54,58.23,58.23,0,0,0-4.34,53.21,146.77,146.77,0,0,0,7.55,15.81q2,3.63,4.26,7.13a30.78,30.78,0,0,1,2.56,3.83c.48,1.1.54.15.06,1.49a18.79,18.79,0,0,1-1,1.92A100.8,100.8,0,0,0,186.28,583c-1.65,5.78-3.41,11.91-3.45,18-16.78-3.2-34.45-11.26-39.48-29.07-2.73-9.64-1.58-20.14,1.22-29.63,3-10.33,8.18-19.91,9.75-30.67,1.66-11.33.35-23-2.77-34H150.1A159.69,159.69,0,0,1,152.93,495a67.36,67.36,0,0,1-.72,19.12,99.75,99.75,0,0,1-5.41,16.75c-4.12,10.57-7.44,21.44-6.64,32.93a37.87,37.87,0,0,0,13.63,27,50.52,50.52,0,0,0,15,8.39,77.28,77.28,0,0,0,9.33,2.73c.81.19,4.24.34,4.79,1s.42,4,.59,5a77.5,77.5,0,0,1-17.31-5.16c-8.66-3.61-17-8.79-22.76-16.34-6.06-7.93-7.82-17.83-7.27-27.62.59-10.52,3.56-20.36,7.33-30.13,4-10.35,7.39-20.37,7.19-31.62a75.76,75.76,0,0,0-2.6-18c-.05-.2-.15-.71-.29-1.31h-1.49c2.06,9.4,3.66,18.92,2.3,28.55s-5.58,18.53-8.89,27.62c-5.84,16-9.23,36.74.94,51.8,4.75,7,11.71,12.31,19.19,16.17A85.35,85.35,0,0,0,173,607.22q3.55,1.13,7.2,1.91c.9.19,2.41.13,3.19.59s1.07,2.52,1.41,3.67c5.46,18,17.25,33.73,28.16,48.77,2.74,3.79,5.49,7.57,8.16,11.4,2.25,3.22,4.36,7.57,8,9.46,4,2.07,9.29,1,13.57.85,2.29-.07,12.75,1.72,12.5-1.73-.08-1-.75-2.26-.95-3.34a21.67,21.67,0,0,1-.35-3.42,30.38,30.38,0,0,1,.69-6.92,58.51,58.51,0,0,1,4.63-13.31c1-2.16,2.16-4.26,3.33-6.34,1-1.84,2.18-4.89,4.08-5.65,4.34-1.73,10.07-2.1,14.69-2.33,9.15-.46,17.38,1.71,24.58,7.46,7.4,5.9,14,12.89,21,19.26,3,2.73,6.16,5.51,9.9,7.22,4.54,2.07,9,1.24,13.81.86,2-.16,9.23.19,8.17-3.49-.54-1.86-2.65-4.21-3.78-5.78-1.36-1.9-2.92-3.63-4.33-5.47-5.79-7.55-8.4-16.82-9.61-26.13-.6-4.65-1.13-9.41-1.42-14.09-.25-4,3.19-7.87,4.81-11.4a67.88,67.88,0,0,0,6.3-28.28c0-9.94-1.86-20-4.17-29.64-1.18-4.89-2.57-9.73-4.23-14.48,6.57,2,14.7.81,21.39,0a202.89,202.89,0,0,0,22-3.75,104.14,104.14,0,0,0,19.54-6.09C409.27,525.27,419.84,519.79,415.16,514ZM333.44,303.26c1.12-.92,3.27-1.07,4.62-1.44,7.12-2,13.9-5.32,19-10.77s7.94-12.25,9.27-19.38a77.37,77.37,0,0,0,1-12.71c.09-4.89-.12-9.64,2.19-14.11a50.89,50.89,0,0,1,1.86,6c.94-3.36.78-6.92,1.62-10.3,0,7,3.72,13.07,5.45,19.65-.4-6.76-1-13.61.29-20.32.5,2.5,1.29,4.87,1.72,7.39.46,2.7.93,5.41,1.52,8.09a141.7,141.7,0,0,0,4.05,14c3.09,9.33,6.46,18.76,6.87,28.67.79,19.18-9.67,36-26.92,44.27-4.86,2.33-10,3.64-15.25,2a22.46,22.46,0,0,1-11.29-8.41c-4-5.66-7.5-12.21-8.58-19.14a20.51,20.51,0,0,1,.71-10.05A8.41,8.41,0,0,1,333.44,303.26ZM183.5,317.06a45.76,45.76,0,0,1-10-27.57c-.19-11.12,4.16-21.32,9.33-30.94,2.91-5.4,6-10.69,8.66-16.23q2.16-4.53,4-9.21c1.3-3.37,2.7-6.62,4.05-10,0,6.82-1.83,13.45-3.48,20,2.93-6.14,7.67-11.46,9-18.29.21,3.47-.61,7-.31,10.42a51,51,0,0,1,2.94-5.57c2.24,7.48-1,15.84-1.52,23.42-.59,7.92.39,15.87,4.39,22.84a38.29,38.29,0,0,0,15,14.26c2.56,1.4,6.29,2,7.37,4.95,1.36,3.69.77,7.82-.45,11.46-3.29,9.79-11.56,20.76-21.85,23.66C199.84,333.37,189.83,325,183.5,317.06Zm-25.45,29.56a17.94,17.94,0,0,0,6.41,8.07c-2.06,2.56-8.4,4.16-10.13-.22C153,351.07,155,347.92,158.05,346.62Zm11,10.7a11.47,11.47,0,0,1-12.34,4.86c-5.84-1.63-8.4-8.64-5.79-13.94,1.36-2.75,3.45-3.64,6.1-4.48.16.59.35,1.19.57,1.78a6.73,6.73,0,0,0-4.43,3.85,7.1,7.1,0,0,0,.67,7.2c1.72,2.37,5.1,2.66,7.7,1.77a7.9,7.9,0,0,0,3.88-2.74c1-1.35.88-2.56,1-4.12,0-.36-.16-1.9.83-2.35a2.34,2.34,0,0,1,3.07,1.21C171.45,352.48,170.27,355.51,169.08,357.32Zm14.84,91.17c-.22,1.34-2.06,4.57-2.76,5.81-6.47-7.85-10.67-17.18-10.62-28.08.12-25.91,19.83-45.47,27.48-69,.46-1.44,3-7.65,1.38-8.54-.76-.41-2.58,1.3-3.24,1.72-1.47.93-2.95,1.87-4.46,2.75a38.39,38.39,0,0,1-9.35,4.22c-4.06,1.09-7.1,0-11.07-.73,1.22-2.66,1.77-9-2.53-9.14-1.28-.05-4,.5-3.89,4.34a3.11,3.11,0,0,0,.16.7c-4-2.91-6.74-9-6.84-13.74a38.39,38.39,0,0,1,1-8.27,16.24,16.24,0,0,1,2.08-5.94c.37-.06,1.52-.83,1.91-.92a5.64,5.64,0,0,1,1.36-.11,8.51,8.51,0,0,1,4,1.37c4.88,2.92,7.81,8.15,12.62,11.19A34.39,34.39,0,0,0,197.25,341c2,.13,5.66.88,6.62-1.1.48-1,.3-2.16.46-3.24.09-.55.2-1.12.34-1.66s.26-.86.4-1.28c0-.71.3-.93,1-.65,1.24-.38,2.78-.25,4.07-.56a24.25,24.25,0,0,0,3.81-1.25,26,26,0,0,0,7.37-4.78,49.55,49.55,0,0,0,11.36-15.06c2.38-5,4.49-12.48,1.74-17.8a42,42,0,0,1,5.95-1.89,16.18,16.18,0,0,0,1.1,5.71c.43,1.1,1.71,4.28,3.05,4.58,2.1.47.93-1.91.46-2.61a13.63,13.63,0,0,1-2.08-4.88c-1.51-7.56,3.19-13.81,9.73-17,7.51-3.65,16.14-3.66,24.28-2.84,9.7,1,19.11,3.51,28.7,5.15,8.55,1.47,20.6,3.24,27.51-3.45a12.93,12.93,0,0,1-3.48,7.84c-1.81,2.08-3.92,4-4.76,6.75-1.51,4.9,1.92,9.91,6.29,11.93-3.18,4.28-2.76,10.76-1.7,15.69a50.67,50.67,0,0,0,7.79,17.56,25.88,25.88,0,0,0,6.15,6.46,24.62,24.62,0,0,0,3.39,2.11c1.51.78,3.3,1.06,4.78,1.82,1,.53.74-.13,1.15,1a8.41,8.41,0,0,1,.14,2.3c0,1.32-.38,2.85,0,4.1.74,2.42,3.74,5.18,5.44,6.92,8.84,9.1,21.27,12.7,33.22,7.48,1.51-.66,3.72-2,4.95-.23,1,1.51.44,4.09.28,5.76-.58,6-1.86,10.57-7.69,13.22-5.45,2.47-10.53,1.81-15.54-1.32s-10.44-7-13.48-12.35a34.27,34.27,0,0,1-3.32-7.78c-.19-.76,0-2.21-1.34-1.74-1.05.37-.46,3.13-.41,4A84,84,0,0,0,358,385c5.78,21.34,18.09,44.22,9.74,66.61a41.28,41.28,0,0,1-2.91,6.19c-2.42,3.49-7.89,10.87-14,14.64-.51-2-.48-4.18-.79-6.25-1.56,3.74-4.4,7.28-6.92,10.44a12.16,12.16,0,0,0-.12-3.7c-2.3,7.77-9.08,10.87-13.9,12.49a11.78,11.78,0,0,0,1.32-6c.51-.41,1-.83,1.49-1.26,4.56-4.08,7.72-9.42,11.24-14.36a38.6,38.6,0,0,1,5.61-6.56c1.89-1.68,4.19-3,5.4-5.29,2.64-5,.53-11.56-1.53-16.36-2.26-5.27-5.83-10.54-6.26-16.38s3.44-11-1.21-16.09c-7.64-8.37-21-3.46-29.86-.26-6.19,2.24-12.23,4.63-18.93,4.19s-13.43-2.15-20.16-3c-12.84-1.64-26.53,1.14-38.32-5.32C228.66,393.7,217.24,383.89,206,388c-4.64,1.7-7.49,5.39-7.46,10.35,0,2.62.23,5.26-.5,7.81-.86,3-2.85,5.7-4.67,8.22-3.46,4.79-7.54,9.7-8.94,15.58a11,11,0,0,0,.58,7.55c1.39,2.74,4,4.8,5.63,7.46,3.64,6.06,5.63,12.95,9.43,18.92a45.13,45.13,0,0,0,9.84,10.58c-4.39-2.26-7.46-4.07-10.1-8.47a12.82,12.82,0,0,0,.31,4.16c-3.55-2.81-3.75-3.45-6.25-8.41a10.44,10.44,0,0,0-.35,4C188.84,464.26,188.62,455.41,183.92,448.49ZM304,488.77c.12-.45,0-1.1.14-1.52-1.2.6-2.4,1.22-3.58,1.86.35-1.63.82-3.31,1.33-4.9-3.81,3.08-9.16,7.16-14.08,7.3a35.1,35.1,0,0,0,1.06-5.72A19.23,19.23,0,0,1,278,491.88a7.83,7.83,0,0,0,1.26-3.64,5.92,5.92,0,0,1-4.47,2.66,10.36,10.36,0,0,0-1.11-2.54c-.55-.84-1.95-1-2.35-2.07s.79-3.36,1-4.47c-.59-.07-1.44-.8-2.07-.86.82-2.45,1.35-3.41,1-5.43-.09-.61-1-2.73-1.17-3.56s-.77.28-1.35,1.61-1.38.49-1.75,2c-.18.76.66,2,.48,2.95-.73,4-4.93,3.4-4.29,8,.19,1.38.55,2.53.62,3.6a26,26,0,0,1-6.79-3.88,29.92,29.92,0,0,0,3,4.61c-4.69-.8-6.82-5.5-10.42-7.56.52,2,2,3.59,2.6,5.62-5.46,1.19-10.69-5.94-13.57-7.79a10.47,10.47,0,0,1,.56,3c-5.4-1.1-11.6-5.6-14.56-10.19,0,1.07.18,2.25.25,3.39-1.21-.69-1.91-1.81-3.06-2.58a7.93,7.93,0,0,1-.17,2.12c-3.3-1.48-4.34-5.54-7.08-7.56.17,2.27,1.06,4.63.35,6.77l-.33-.24a77.6,77.6,0,0,1-8.32-7c-5-4.89-7.77-11.4-10.64-17.67a52.76,52.76,0,0,0-5.26-9.54c-2.18-2.95-4.62-5-4.47-9,.29-7.1,5.79-12.88,9.64-18.36,2-2.86,3.91-5.88,4.59-9.35.59-3-.24-6.14.39-9.15,1.46-7,10.57-7.52,16.09-6,7.24,2.05,13.51,6.63,20,10.22A33.67,33.67,0,0,0,247,404.08a79.87,79.87,0,0,0,12.26.95,152.43,152.43,0,0,1,24.87,2.18c7.52,1.37,15.1,2.6,22.62.61,6.49-1.72,12.47-4.93,19-6.56,6.24-1.57,14.41-1.81,18.68,4,2.08,2.8,1.27,5.88.58,9a19,19,0,0,0,.72,10.44c2.43,7.14,7.56,13.6,7.73,21.41.09,4.19-1.39,6.35-4.62,8.82a35.4,35.4,0,0,0-7,7.59c-4.13,5.71-7.59,11.66-13.18,16.12A55.39,55.39,0,0,1,318.41,485c.72-1.88.69-4.21.92-6.51C317.37,482.16,308.7,488,304,488.77Zm-49,168.68c-.51,1.28-1,2.59-1.43,3.9-.35,1-.57,3.29-1.22,4a9.64,9.64,0,0,1-2.39,1c-1,.49-2,1-3,1.59a66.43,66.43,0,0,0-12.27,8.69c-.87.79-1.7,1.6-2.49,2.46-1.08,1.17-1.14,1.75-2.57.73-2.5-1.78-4.07-4.93-5.79-7.39-7.38-10.53-15.21-20.76-22.19-31.57-6.56-10.15-13.48-21.53-15.71-33.58-2.63-14.26,4.81-28.33,8.7-41.63A59.93,59.93,0,0,0,205.2,577a75.11,75.11,0,0,0,10.65,7.33c4.26,2.32,14.18,6.73,18,1.81,3-3.85-.86-9.6-2.37-13.23a70.23,70.23,0,0,1-4.46-17.4,75.07,75.07,0,0,1-.26-17.47c.29-2.82.75-5.61,1.09-8.42.06-.55.68-2.81-.51-2-.77.54-1.1,3.21-1.34,4.15-3.13,12.62-1.73,26.32,1.6,38.72a36.88,36.88,0,0,0-9.07,3.64c-1.55.8-3.08,1.65-4.55,2.58-.9.58-2.37,2.2-3.34,2.47-1.2.33-3.71-2.47-4.74-3.46a61.44,61.44,0,0,1-5.12-5.58,113.15,113.15,0,0,1-8.22-11.57c-10.67-17.06-19.47-36.66-14.52-57.07A57.81,57.81,0,0,1,190.92,477l.12-.13a36,36,0,0,0,3.85,3.68,22.85,22.85,0,0,1,.13-6c2.92,7.43,10.43,11.4,15,14.22a8.12,8.12,0,0,1,.71-3.65c1,3.71,10.35,6.72,13.87,7.72,0-1.8-.43-4,.16-5.67,3.25,8,9.49,8.44,15.85,12.34a8.67,8.67,0,0,0,.4-4.84c2.35,4.57,10.63,6.2,15.16,7.47a17.52,17.52,0,0,1-2.48-4c3.48,1.93,8.17,2.93,12.51,4.34a46.16,46.16,0,0,0-10.42,8c-13.27,13.66-17.89,34-18.3,52.5a164.74,164.74,0,0,0,4.1,39.21c2.3,10.22,5.72,20.7,11.69,29.4a37.4,37.4,0,0,0,10.51,10.5A57.09,57.09,0,0,0,255.05,657.45Zm35.25-18.64a60.61,60.61,0,0,0-20,1c-1.56.31-3.12.64-4.66,1s-1.8-.1-3.07-1.12a41.6,41.6,0,0,1-6.09-6.07c-7.07-8.65-10.94-19.6-13.6-30.31a155.09,155.09,0,0,1-4.5-40c.27-12.41,2.2-25.15,7.34-36.53a52,52,0,0,1,19.53-23c.58-.36,1.16-.7,1.76-1a22.89,22.89,0,0,1,7,3.55c-.15-.89-1.72-4.56-2.14-5.92a1.16,1.16,0,0,0,.11-.16c1.48,1.14,6.44,5.77,7.3,7.73,5.11-3.74,4.33-5.42,5.55-8l.3.58a28.06,28.06,0,0,1,.94,3.09,6.56,6.56,0,0,1,0,1.32c2.9-.35,5.56-.08,8.38-1.22,1.2-.48,2.35-1,3.48-1.61,1,.39,1.92.8,2.86,1.24a49.18,49.18,0,0,1,7,4.1A52.34,52.34,0,0,1,319,518.14c7.33,9.41,11.47,21.09,13.81,32.68a103.93,103.93,0,0,1,1.67,19c.1,6.11.72,12.66-.46,18.68-2.39,12.26-6.36,24.28-14,34.34a38.17,38.17,0,0,1-13.45,11.34,76.51,76.51,0,0,1-7.77,3.22c-1.31.48-2.64.95-4,1.42C293.05,639.41,292.14,639.06,290.3,638.81Zm56.15-77.49c1.41,8.17,2.5,16.34,1.89,24.64a65,65,0,0,1-6.24,23c-1.36,2.89-3.94,6-4.59,9.14s.33,7.35.62,10.59c.71,7.9,1.8,15.83,4.82,23.21a47.15,47.15,0,0,0,5.63,10c-4.09,1.89-7.66,5.86-10.28,9.43-1.05,1.45-1.09,1.16-2.66.12a40.05,40.05,0,0,1-3.46-2.6q-3.78-3.09-7.39-6.38c-8.74-8-17.12-18.73-28.77-22.43,5.64-2.07,11.4-4.17,16.33-7.69s8.49-8.16,11.63-13.08a71.08,71.08,0,0,0,7.76-16.76c2-6.12,3.78-12.62,3.92-19.08.29-12.82,0-26-3.27-38.41-2.89-10.83-7.27-21.29-14.74-29.79a51.39,51.39,0,0,0-11.57-9.83,49.32,49.32,0,0,0-6.5-3.36l-.9-.36c2.72-1.45,5.3-3.07,8-4.53a8.64,8.64,0,0,1-1.28,6.18c4.45-1.65,9.86-4.63,11.38-9.5-.27,2.83-.05,5.78-.85,8.53,4.21-2.4,9.27-4.31,12.5-8,.26,2.95,1.09,7,1.25,7.9a119,119,0,0,0,2.93,12.2c2.26,7.76,5.1,15.32,7.75,23A150.39,150.39,0,0,1,346.45,561.32Zm66.1-40.94c-5.19,5.13-13.73,7.31-20.54,9.19a181,181,0,0,1-24.3,4.83c-4.13.55-8.29,1-12.46,1.16a60.56,60.56,0,0,1-6.32,0,36.62,36.62,0,0,1-6.3-.56c-1.18-.31-.52.43-1.28-.88a9.44,9.44,0,0,1-.47-1.29c-.31-.86-.62-1.72-.94-2.58q-1.11-3-2.21-6.06c-1.36-3.77-2.69-7.55-3.87-11.38a118.31,118.31,0,0,1-3-11.57c-.39-2-.72-3.91-1-5.88,0-.36,0-1.55-.18-2.56a12.74,12.74,0,0,0,1.13-2.28,3,3,0,0,1,1,2.45c1.23-.51,2.46-1.1,3.69-1.76,4.44,5.28,10.56,9.47,16.5,12.79A67.72,67.72,0,0,0,374,511.44,208.12,208.12,0,0,0,398.78,514c4,.2,8.07.23,12.11.36C414.75,514.51,415,517.94,412.55,520.38Z" transform="translate(-62.58 -129.4)"/><path class="cls-9" d="M123.42,420.67c-.72-.61-2.2-.05-1.77,1a73.74,73.74,0,0,1,5,30.06l-.11-.21c-.6-1-2.41-.35-2,.84,2.48,6.74.73,14.76,6.07,20.36,4.43,4.65,11.41,6.05,17.53,6.71a4.15,4.15,0,0,0,2.46-.39c8.66-7.9,4.51-20.23-.44-29C143.55,438.35,133.62,429.26,123.42,420.67ZM149,477.41a1,1,0,0,1-.55.19c-5.7-1.15-12.33-2.14-16.44-6.67-3.91-4.31-3.41-10.49-4.48-16a1.06,1.06,0,0,0,1.16-1A76.61,76.61,0,0,0,125,424.81c8.32,7.18,16.24,14.83,22,24.28C152,457.22,157.48,469.69,149,477.41Z" transform="translate(-62.58 -129.4)"/><path class="cls-10" d="M241.63,297.72c0-.11-.09-.22-.12-.3a16.18,16.18,0,0,1-1.1-5.71,42,42,0,0,0-5.95,1.89c1.87,3.62,1.49,8.22.31,12.38C237.25,304.11,238.51,299,241.63,297.72Z" transform="translate(-62.58 -129.4)"/><path class="cls-10" d="M296.59,291.4a11.4,11.4,0,0,0-5.48,5.36c5.75-4.09,15-.2,20.68-1.95a4.32,4.32,0,0,1,.27-.42,17.89,17.89,0,0,1,6.1-5.2c-7.83,1.34-16.19,1-23.58,4.13A17.51,17.51,0,0,1,296.59,291.4Z" transform="translate(-62.58 -129.4)"/><path class="cls-8" d="M204.91,227.39c-1,14.71-8.66,34.36-6.86,49.67,2.23,18.88,20,28,34.42,29.6,1.22-3.64,1.81-7.77.45-11.46-1.08-2.93-4.81-3.55-7.37-4.95a38.29,38.29,0,0,1-15-14.26c-4-7-5-14.92-4.39-22.84.56-7.58,3.76-15.94,1.52-23.42a51,51,0,0,0-2.94,5.57,59.64,59.64,0,0,1,.31-7.9Z" transform="translate(-62.58 -129.4)"/><path class="cls-8" d="M371.42,250.86a50.89,50.89,0,0,0-1.86-6c-2.31,4.47-2.1,9.22-2.19,14.11a77.37,77.37,0,0,1-1,12.71c-1.33,7.13-4.26,14-9.27,19.38s-11.89,8.78-19,10.77c-1.35.37-3.5.52-4.62,1.44a8.41,8.41,0,0,0-1.83,3.42,17.18,17.18,0,0,0-.73,2.82,4.69,4.69,0,0,0,1.35,1.65c1.84,1.49,7.28,2.24,9.36,2,5.37-.5,11.88-1.18,18.26-6.18,7.6-5.95,11.16-14.08,12-24.83.5-6.72-.63-20.94-.27-31.81C371.51,250.54,371.47,250.7,371.42,250.86Z" transform="translate(-62.58 -129.4)"/><path class="cls-10" d="M302.32,285.92c-11.24,3.82-24.75-4.54-35.65,1.17l1-1a14.33,14.33,0,0,0-4.77,5.43c8.07-4.13,23.07.19,30.69-1.06a6.09,6.09,0,0,0-.87.82,11.07,11.07,0,0,1,1.15-.78,21.46,21.46,0,0,1,6.44-2.21A11,11,0,0,0,302.32,285.92Z" transform="translate(-62.58 -129.4)"/><path class="cls-10" d="M242.94,289a13.82,13.82,0,0,0,0,5.55,12.61,12.61,0,0,0,.64,2.14c2-1.5,3-3.69,5.32-5.79,4.47-4,10.81-3.59,15.94-5.91a13,13,0,0,0-3.48,4.58,17,17,0,0,1,10.58-7.66c1-1,2-2.07,3-3.13C265.55,282.53,249.12,279.28,242.94,289Z" transform="translate(-62.58 -129.4)"/><path class="cls-10" d="M324.57,293.64a31.6,31.6,0,0,0-8.91,1.44c.6-1.35,1.4-2.67,2.06-4a14.08,14.08,0,0,0-4.66,5.46,7.6,7.6,0,0,0-.55,3.95c3.69-2.49,10.56-2.48,14.18.31,2.44,2.82,3.34,2.15,3.92,3,.19-.31.39-.62.6-.91C327.63,301.25,324.69,297.6,324.57,293.64Z" transform="translate(-62.58 -129.4)"/><path class="cls-10" d="M173.49,338.18c2,4.05,5.88,6.49,10.57,7.37,4.53.84,13.42-.9,15.87-4.34-1,0-1.94-.18-2.68-.23a34.39,34.39,0,0,1-16.13-4.89c-3.33-2.1-5.76-5.25-8.55-8C171.48,330.88,172.48,336.14,173.49,338.18Z" transform="translate(-62.58 -129.4)"/><path class="cls-10" d="M365.19,366.34c3.93,6,11.52,12.65,17,13.45,6,.87,11.11-5.93,8.58-10.91l-.12-.2A28,28,0,0,1,365.19,366.34Z" transform="translate(-62.58 -129.4)"/><path class="cls-5" d="M324.57,293.64a8.22,8.22,0,0,1,.35-2.67c.84-2.71,2.95-4.67,4.76-6.75a12.93,12.93,0,0,0,3.48-7.84c-6.91,6.69-19,4.92-27.51,3.45-9.59-1.64-19-4.17-28.7-5.15-8.14-.82-16.77-.81-24.28,2.84-4.86,2.36-8.69,6.42-9.73,11.44,6.18-9.68,22.61-6.43,32-10.22-1,1.06-2,2.1-3,3.13a26,26,0,0,1,6.41-.86c8.84-.13,18.74,3.51,27.32.34.6-.22.35.46.28.66a7.15,7.15,0,0,1-1.55.62,16.91,16.91,0,0,1-3.23.7,42.09,42.09,0,0,1-7.53,0c-5.21-.32-10.46-1-15.69-.58a20.92,20.92,0,0,0-10.25,3.34l-1,1c10.9-5.71,24.41,2.65,35.65-1.17a11,11,0,0,1-2,2.36c1.57-.33,3.16-.61,4.68-1a33.81,33.81,0,0,0,10.91-4.92c1.09-.76-.31,1.29-.15,1.09a8.91,8.91,0,0,1-2.19,1.59,26,26,0,0,1-4.5,2.2c-3.37,1.3-6.91,2-10.31,3.24a19.45,19.45,0,0,0-2.19.93,17.51,17.51,0,0,0-2,1.92c7.39-3.12,15.75-2.79,23.58-4.13,2.43-1.41,5-2.61,7.31-4.17.88-.61,0,.85,0,.83-.34.6-1.74,1.19-2.32,1.56-1.34.87-2.72,1.7-4,2.61-.47.33-.95.67-1.42,1-.66,1.36-1.46,2.68-2.06,4A31.6,31.6,0,0,1,324.57,293.64Z" transform="translate(-62.58 -129.4)"/><path class="cls-8" d="M246.66,409.14c10.9,5,23.57,5.8,35.51,5.79,7.22,0,18.95,1.43,25.65-1.65,4.13-1.9,14.2-10.56,22.48-12.84a32.56,32.56,0,0,0-4.54.82c-6.52,1.63-12.5,4.84-19,6.56-7.52,2-15.1.76-22.62-.61A152.43,152.43,0,0,0,259.28,405a79.87,79.87,0,0,1-12.26-.95A33.67,33.67,0,0,1,236.7,400l-1.78-1C238.8,402.52,241.84,406.94,246.66,409.14Z" transform="translate(-62.58 -129.4)"/><path class="cls-10" d="M243.33,398.46a28.69,28.69,0,0,1-10-2.42c1.58,1,3.11,1.91,4.58,2.71,11.79,6.46,25.48,3.68,38.32,5.32,6.73.85,13.38,2.55,20.16,3,6.21.41,11.86-1.62,17.59-3.71-2.93-.25-5.31-1.7-8.24-4.49-7.18-6.83-6.82-18.49-9.44-27.52-.81-2.83-1.45-7.59-4-10.83a4.72,4.72,0,0,0-8.27,2c-2.1,9.34-4.14,17.52-12.56,24.41-5,4.1-11.55,6.15-17.36,8.8C250.59,397.3,247.49,398.62,243.33,398.46ZM272,395.4c8.95.29,18.82,2.13,26.27,7.37-10.9-5-24-6.3-35.85-5.54a61.58,61.58,0,0,0-12.07,1.92C257.05,396,264.74,395.17,272,395.4Z" transform="translate(-62.58 -129.4)"/><path class="cls-10" d="M410,514.36c-3.75-.11-7.5-.15-11.25-.34A208.12,208.12,0,0,1,374,511.44a67.78,67.78,0,0,1-21.77-7.39c1.67,5.66,8.95,10.93,13.55,13.87,9.53,6.1,24.1,8,35.27,6.64C407.55,523.76,414,517.54,410,514.36Z" transform="translate(-62.58 -129.4)"/><path class="cls-10" d="M224.31,548.49c-1.08-7.54-5.14-31-7.72-27.38-7.49,10.65-9.09,21.75-6.75,35.31,1.19,6.93,3.68,12.94,9.69,17.18l.09.06a32.44,32.44,0,0,1,8-3.11A93.53,93.53,0,0,1,224.31,548.49Z" transform="translate(-62.58 -129.4)"/><path class="cls-10" d="M338.13,628.7c-.29-3.24-1.3-7.38-.62-10.59s3.23-6.25,4.59-9.14a65,65,0,0,0,6.24-23c.61-8.3-.48-16.47-1.89-24.64a150.39,150.39,0,0,0-6.06-23.82c-2.65-7.63-5.49-15.19-7.75-23a119,119,0,0,1-2.93-12.2c-.08-.41-.29-1.51-.53-2.86a8.42,8.42,0,0,1-1.22-1.81c-3,6.38-8.61,10.14-14.72,13.15a54.47,54.47,0,0,1,4.41,4.45c7.47,8.5,11.85,19,14.74,29.79,3.31,12.43,3.56,25.59,3.27,38.41-.14,6.46-2,13-3.92,19.08-.23.71-.47,1.42-.71,2.13-.16,4.86-1.28,9.67-1.29,14.62a44.81,44.81,0,0,0,12.91,31.82C339.86,644,338.82,636.32,338.13,628.7Z" transform="translate(-62.58 -129.4)"/><path class="cls-10" d="M324.53,582.41c2.38,5.8,5.57,12.17,6.34,18.56A116.65,116.65,0,0,0,334,588.46c1.18-6,.56-12.57.46-18.68a103.93,103.93,0,0,0-1.67-19c-2.34-11.59-6.48-23.27-13.81-32.68a53.3,53.3,0,0,0-6.48-6.95c-2.31,1.11-4.68,2.12-7,3.13-4.37,1.93-14.19,3-16.75,7.26-3,5,2.68,13,5.18,16.67C304.17,553.06,317.56,565.49,324.53,582.41Z" transform="translate(-62.58 -129.4)"/><path class="cls-11" d="M173.51,289.49a45.76,45.76,0,0,0,10,27.57c6.33,7.95,16.34,16.31,27.12,13.26a23.13,23.13,0,0,0,5.95-2.67C193,325.5,180,300.39,181.64,278.74c1.42-18.76,13.83-34.52,17.75-52.45-.43.07-.84.15-1.26.24-.9,2.18-1.8,4.35-2.66,6.58q-1.8,4.68-4,9.21c-2.65,5.54-5.75,10.83-8.66,16.23C177.67,268.17,173.32,278.37,173.51,289.49Zm4.84-13.67c-1.71,10.56-1.31,21.57,3.58,31.28a43.71,43.71,0,0,0,21.39,20,12.08,12.08,0,0,0,2.89,1c-5.18-.37-10.74-4.15-14.67-7.27a39.31,39.31,0,0,1-11.39-14.37C175.78,296.82,175.64,286,178.35,275.82Z" transform="translate(-62.58 -129.4)"/><path class="cls-11" d="M389.3,279.25c-1.65-5.9-3.52-11.74-4.9-17.72q-1.12-4.89-1.86-9.86c-.35-2.36-.76-4.68-1.16-7q-.58-.27-1.17-.51c-.09,18.35,8.57,36.44,5.86,55.06-3.13,21.48-21.31,43.15-44.78,40.1a23.72,23.72,0,0,0,5.23,3.91c9.86,5.32,21.45-.65,29.36-7a45.81,45.81,0,0,0,15.77-24.72C394.27,300.68,392.25,289.77,389.3,279.25Z" transform="translate(-62.58 -129.4)"/><path class="cls-11" d="M210.18,332.49c-1.29.31-2.83.18-4.07.56-.74-.28-1.08-.06-1,.65-.14.42-.27.85-.4,1.28s-.25,1.11-.34,1.66c-.11.72-.07,1.48-.17,2.2a11.63,11.63,0,0,0,2.1-.68c4.16-1.8,7.58-4.15,9.33-7.67-.52.26-1.05.52-1.6.75A24.25,24.25,0,0,1,210.18,332.49Z" transform="translate(-62.58 -129.4)"/><path class="cls-11" d="M198.2,348.92l-.15-.28a9.29,9.29,0,0,0-.83.94A7.65,7.65,0,0,1,198.2,348.92Z" transform="translate(-62.58 -129.4)"/><path class="cls-11" d="M183.92,448.49c4.7,6.92,4.92,15.77,9.56,17.28a10.44,10.44,0,0,1,.35-4c2.5,5,2.7,5.6,6.25,8.41a12.82,12.82,0,0,1-.31-4.16c2.64,4.4,5.71,6.21,10.1,8.47A45.13,45.13,0,0,1,200,463.9c-3.8-6-5.79-12.86-9.43-18.92-1.6-2.66-4.24-4.72-5.63-7.46a11,11,0,0,1-.58-7.55c1.4-5.88,5.48-10.79,8.94-15.58,1.82-2.52,3.81-5.19,4.67-8.22.73-2.55.52-5.19.5-7.81a10.48,10.48,0,0,1,2-6.38c1.15-4.58,2.79-9,2.92-14,.21-7.87-.79-18.25-3.74-25.9-.48,2-1.38,4.26-1.63,5.06-7.65,23.56-27.36,43.12-27.48,69,0,10.9,4.15,20.23,10.62,28.08C181.86,453.06,183.7,449.83,183.92,448.49Z" transform="translate(-62.58 -129.4)"/><path class="cls-11" d="M200.82,570.2a61.44,61.44,0,0,0,5.12,5.58l.8.8c.92.69,1.71,1.48,2.5,2.19a1.93,1.93,0,0,0,1.44.47c.85-.24,2.09-1.52,3-2.22-5.47-7.29-11.84-13.48-15.13-20.91-3.44-7.75-9.18-28.94-9.16-37.52,0-14.81,6.49-26,13.84-34.2-3.3-2.43-6.52-5.57-8.2-9.86a22.85,22.85,0,0,0-.13,6,36,36,0,0,1-3.85-3.68l-.12.13a57.81,57.81,0,0,0-12.84,24.61c-5,20.41,3.85,40,14.52,57.07A113.15,113.15,0,0,0,200.82,570.2Zm-12.36-80.39c-14.54,25-.78,55.28,15.51,75.61C186.12,546.53,171.78,513.86,188.46,489.81Z" transform="translate(-62.58 -129.4)"/><path class="cls-11" d="M182.88,602.89c-.55-.65-4-.8-4.79-1-1.72-.4-3.44-.85-5.13-1.35.16.64.33,1.29.51,1.93.29,1.06.59,2.13.89,3.19a67.79,67.79,0,0,0,9.11,2.17C183.3,606.91,183.48,603.59,182.88,602.89Z" transform="translate(-62.58 -129.4)"/><path class="cls-11" d="M223.84,672.46c1.14,1.63,2.22,3.56,3.54,5.19-7.55-19-23-34.13-29.4-54.39-3.19-10.13-2.7-17.3.07-27.7,1.56-5.86,5.6-13.26,5.9-19.57a62.45,62.45,0,0,1-9.31-10.31c-3.89,13.3-11.33,27.37-8.7,41.63,2.23,12.05,9.15,23.43,15.71,33.58C208.63,651.7,216.46,661.93,223.84,672.46Z" transform="translate(-62.58 -129.4)"/><path class="cls-8" d="M214,396.23c-4.29,10-2.16,17.53,5.51,24.89,5.35,5.15,18.68,7.48,15.41-3.75a45.8,45.8,0,0,0-3.81-8.52c-1.34-2.62-3.86-5.19-5.85-7.38C222.86,398.81,218.07,394.62,214,396.23Z" transform="translate(-62.58 -129.4)"/><path class="cls-8" d="M333.47,407.88c2.27,10.69-1.26,17.61-10.21,23.36-6.25,4-19.78,3.73-14.4-6.66a46.21,46.21,0,0,1,5.39-7.62c1.81-2.31,4.79-4.35,7.16-6.12C324.28,408.7,329.79,405.51,333.47,407.88Z" transform="translate(-62.58 -129.4)"/><path class="cls-9" d="M426.63,507.88c-6-17.81-29,9.61-14.24,14.12C418.69,523.93,428.21,517.31,426.63,507.88Z" transform="translate(-62.58 -129.4)"/><path class="cls-12" d="M231.44,342c-11.22-.92-26.21-.64-27.49,13.66-1.19,13.19,2.79,29.65,17,33.87,10.16,3,24.92,2.33,33.16-5A34.09,34.09,0,0,0,263.83,369c1.55-5.06,2.42-11.82-.3-16.66C257.86,342.24,241.28,342.79,231.44,342Z" transform="translate(-62.58 -129.4)"/><path class="cls-13" d="M347.29,355.38c-4.85-3-10.65-3.92-16.23-4.44-7.54-.71-15.52-2.06-23.07-1.14-6.16.76-12,3-14.24,9.23-2.31,6.37-1.63,13.63.5,19.94,2.19,6.48,6.24,12.38,12.42,15.56s12.64,4.42,19.4,5c17,1.53,25.7-14.3,27.62-29.07C354.53,364.07,353,359,347.29,355.38Z" transform="translate(-62.58 -129.4)"/><path class="cls-9" d="M308.83,345.49a72.32,72.32,0,0,0-10,1.54c-4.16,1-7.86,3.09-12.23,3.07a62.53,62.53,0,0,1-14.63-1.59c-4.34-1.11-7.94-4.09-12.12-5.68-14.62-5.58-30.29-6.5-45.77-7.06-4.72-.17-9.4-.2-14.13-.09-1,0-5.45-.43-6.2.25-1,.85-.38,6.95-.43,8-.08,1.63-.29,1.76.81,2.69a19.71,19.71,0,0,1,1.76,1.28,8.55,8.55,0,0,1,2.12,4.88c.79,5.21,1,10.5,1.85,15.72,1.55,9.46,4.93,18.44,13.79,23.18,7.23,3.87,16.15,4.44,24.17,3.39,6.79-.88,13.72-2.09,19.11-6.7,7.69-6.58,11.9-15.52,15.48-24.69,1-2.53,2.36-4.26,5.14-4.67a6.42,6.42,0,0,1,6.85,3.25c1,1.91.89,4.26,1.26,6.33a47.26,47.26,0,0,0,1.5,6,60.6,60.6,0,0,0,5.87,13c4.73,7.77,12.05,12,20.66,14.42,8.78,2.43,18.84,3.77,27.29-.38,7.23-3.55,11-9.82,14-17.14a118.12,118.12,0,0,0,4.29-13.24c1-3.94,1.77-7.35,5.75-9.23,1.35-.64,1.24-.38,1.45-1.9.17-1.27.35-2.55.53-3.83.22-1.59.38-3.17.53-4.77-4.12-.72-8.2-1.8-12.31-2.62C340.14,345.92,324.11,344.14,308.83,345.49Zm-45,23.48a34.09,34.09,0,0,1-9.73,15.54c-8.24,7.34-23,8-33.16,5-14.2-4.22-18.18-20.68-17-33.87,1.28-14.3,16.27-14.58,27.49-13.66,9.84.8,26.42.25,32.09,10.32C266.25,357.15,265.38,363.91,263.83,369Zm89.86,1.52c-1.92,14.77-10.58,30.6-27.62,29.07-6.76-.61-13.29-1.88-19.4-5s-10.23-9.08-12.42-15.56c-2.13-6.31-2.81-13.57-.5-19.94,2.27-6.22,8.08-8.47,14.24-9.23,7.55-.92,15.53.43,23.07,1.14,5.58.52,11.38,1.42,16.23,4.44C353,359,354.53,364.07,353.69,370.49Z" transform="translate(-62.58 -129.4)"/><path class="cls-14" d="M392.27,461.92l.85-4.75,18-4.31-.87,4.85-12.48,2.7,10.77,6.87-.88,4.91Z" transform="translate(-62.58 -129.4)"/><path class="cls-14" d="M417.42,451.62l11.18,2c2.76.5,4.79,1.64,5.91,3.26a5.63,5.63,0,0,1,.91,4.46,5.7,5.7,0,0,1-4.09,4.63c2.59,1.57,4,3.49,3.43,6.79-.79,4.41-4.76,6-10.2,5l-11.45-2.05Zm8.3,11.54c2.34.41,4-.08,4.29-1.94.28-1.58-.79-2.7-3-3.1l-5.23-.93-.91,5.09Zm-.33,9.95c2.34.42,3.9-.16,4.24-2,.29-1.62-.74-2.83-3.46-3.32l-6.12-1.1-.95,5.3Z" transform="translate(-62.58 -129.4)"/><path class="cls-14" d="M439.05,467.92a13,13,0,1,1,10.53,14.74A12.65,12.65,0,0,1,439.05,467.92Zm20.06,3.6a7.44,7.44,0,0,0-5.94-8.88c-4.27-.76-7.83,2.08-8.58,6.27a7.44,7.44,0,0,0,5.94,8.88C454.79,478.55,458.35,475.71,459.11,471.52Z" transform="translate(-62.58 -129.4)"/><path class="cls-14" d="M471.53,461.31l9.39,1.69c7.57,1.35,11.87,7.49,10.64,14.33s-7.38,11.1-14.95,9.75l-9.39-1.69Zm5.93,21a7.38,7.38,0,1,0,2.6-14.52L476,467l-2.6,14.52Z" transform="translate(-62.58 -129.4)"/><path class="cls-14" d="M500.37,481.53l-6.64-16.24,6.19,1.11,4,10.7,7.58-8.62,6,1.08-11.85,12.82L504,492l-5.3-1Z" transform="translate(-62.58 -129.4)"/><path class="cls-14" d="M518,487l12.49-2.7L519.7,477.4l.88-4.92,15.34,10.28-.85,4.74-18,4.31Z" transform="translate(-62.58 -129.4)"/><path class="cls-14" d="M402,335.74l-.18-4,13.62-6.73.19,4.05-9.53,4.44,9.9,3.54.19,4.11Z" transform="translate(-62.58 -129.4)"/><path class="cls-14" d="M419.82,322.05l4.37-.2.36,7.76a5.45,5.45,0,0,1,4.4-2.68c3.3-.16,5.33,1.94,5.49,5.47l.46,10-4.37.2-.39-8.59c-.1-2.07-1.12-3.08-2.79-3s-2.68,1.19-2.58,3.26l.39,8.59-4.36.2Z" transform="translate(-62.58 -129.4)"/><path class="cls-14" d="M437.6,334.56c-.2-4.4,2.76-8.16,7.25-8.37,5.14-.24,7.68,3.65,7.88,8,0,.35,0,.75,0,1.16l-10.72.49a3.57,3.57,0,0,0,3.9,2.84,5,5,0,0,0,3.67-1.75l2.6,2.1a8.15,8.15,0,0,1-14.58-4.48Zm10.81-1.74c-.35-1.94-1.56-3.21-3.4-3.12s-2.93,1.43-3.18,3.43Z" transform="translate(-62.58 -129.4)"/><path class="cls-14" d="M455.2,336.94c-.16-3.36,2.33-5,6-5.2a11.06,11.06,0,0,1,3.79.46v-.26c-.09-1.81-1.25-2.76-3.44-2.66a11.1,11.1,0,0,0-4.21,1L456.06,327a13.58,13.58,0,0,1,5.92-1.52,7.11,7.11,0,0,1,5.28,1.48,6.72,6.72,0,0,1,1.9,4.84l.41,8.94-4.22.19-.08-1.66a6,6,0,0,1-4.56,2.17C457.8,341.6,455.34,340,455.2,336.94Zm10-1.41,0-.78a6.83,6.83,0,0,0-2.82-.44c-1.86.08-3,.88-2.91,2.32.05,1.18,1.06,1.82,2.47,1.76C463.93,338.29,465.25,337.11,465.18,335.53Z" transform="translate(-62.58 -129.4)"/><path class="cls-14" d="M472.29,332.89c-.23-5.14,3-8.11,6.65-8.28a5.91,5.91,0,0,1,4.9,2.08l-.35-7.58,4.37-.21,1,21-4.37.2-.1-2.22a5.67,5.67,0,0,1-4.68,2.73C476.08,340.75,472.53,338.09,472.29,332.89Zm11.87-.54c-.12-2.56-1.89-4.18-3.93-4.08s-3.69,1.84-3.57,4.48,1.92,4.17,4,4.08S484.28,335,484.16,332.35Z" transform="translate(-62.58 -129.4)"/><path class="cls-14" d="M491.65,332.06c-.21-4.4,2.75-8.16,7.24-8.37,5.14-.24,7.68,3.65,7.88,8,0,.35,0,.75,0,1.16l-10.72.49a3.58,3.58,0,0,0,3.91,2.84,5,5,0,0,0,3.66-1.75l2.6,2.1a8.14,8.14,0,0,1-14.57-4.48Zm10.8-1.74c-.35-1.94-1.56-3.21-3.4-3.12s-2.93,1.42-3.18,3.42Z" transform="translate(-62.58 -129.4)"/><path class="cls-14" d="M509.65,323.48l4.37-.2.14,3.1c.8-2.17,2.17-3.61,4.76-3.62l.21,4.57h-.23c-2.9.14-4.6,2-4.43,5.65l.26,5.69-4.36.2Z" transform="translate(-62.58 -129.4)"/><path class="cls-14" d="M522.68,332.2l9.52-4.44-9.89-3.54-.19-4.11,14.18,5.45.19,4-13.63,6.74Z" transform="translate(-62.58 -129.4)"/><path class="cls-14" d="M63.58,403.16l-1-5.51,17.82-12,1,5.64-12.51,8,14.53,3.11,1,5.72Z" transform="translate(-62.58 -129.4)"/><path class="cls-14" d="M88.33,399.25C87,392.09,91,387.32,96.08,386.4a8.38,8.38,0,0,1,7.26,2l-1.91-10.55,6.08-1.11,5.3,29.2-6.08,1.1-.56-3.08a8,8,0,0,1-6,4.7C95.12,409.54,89.65,406.49,88.33,399.25Zm16.52-3c-.64-3.56-3.43-5.49-6.27-5s-4.82,3.27-4.15,7,3.47,5.49,6.31,5S105.52,399.89,104.85,396.25Z" transform="translate(-62.58 -129.4)"/><path class="cls-14" d="M113.08,375.71l6.4-1.16,1,5.4-6.4,1.16Zm1.57,7.73,6.08-1.11,3.89,21.44-6.08,1.11Z" transform="translate(-62.58 -129.4)"/><path class="cls-14" d="M124.53,381.64l6.44-1.17L138.38,394l2.23-15.24,6.32-1.14-4.52,23.13-5.52,1Z" transform="translate(-62.58 -129.4)"/><path class="cls-14" d="M153.62,389.75l12.51-8-14.53-3.1-1-5.72,20.9,5,1,5.51-17.82,12Z" transform="translate(-62.58 -129.4)"/></g></g></svg>