<svg xmlns="http://www.w3.org/2000/svg" xmlns:xlink="http://www.w3.org/1999/xlink" viewBox="0 0 461.93 545.72"><defs><style>.cls-1{isolation:isolate;}.cls-2{fill:#9fcef0;}.cls-3{fill:#f1f2f2;}.cls-4{fill:#d1d2d4;}.cls-16,.cls-5{fill:#a97d50;}.cls-6{fill:#e6d0a1;}.cls-7{fill:#e6e0d6;}.cls-8{fill:#ffcc07;}.cls-9{fill:#c03232;}.cls-10{fill:#e7e8e9;}.cls-11{fill:url(#Áåçûìÿííûé_ãðàäèåíò_58);}.cls-12{fill:#010101;}.cls-13,.cls-15{fill:#fff;}.cls-14{fill:#fff2d4;}.cls-14,.cls-15,.cls-17{mix-blend-mode:soft-light;}.cls-16{opacity:0.35;mix-blend-mode:multiply;}.cls-17{fill:#fcf7cd;}</style><linearGradient id="Áåçûìÿííûé_ãðàäèåíò_58" x1="357.6" y1="235.72" x2="371.41" y2="269.34" gradientUnits="userSpaceOnUse"><stop offset="0" stop-color="#e3953d"/><stop offset="0.22" stop-color="#cb8b45"/><stop offset="0.47" stop-color="#b8834b"/><stop offset="0.73" stop-color="#ad7f4f"/><stop offset="1" stop-color="#a97d50"/></linearGradient></defs><title>bull_08</title><g class="cls-1"><g id="Layer_1" data-name="Layer 1"><path class="cls-2" d="M422,135.63c-24.22-9.38-54.55-7.95-77.81,2.8C317,151,302.54,167.61,288.33,193.9c-25.89,47.89-45.8,48.48-94.56,67s-81.84,32.44-102.36,91.29c-13.85,39.71,5.14,86.51,43,98,28.24,8.6,53,2.39,80.23,15.88,26.23,13,48,22.25,78.21,20.64,26.48-1.41,37.65-19.23,61.17-27,28.85-9.54,61.37,1,89.65,5.53,42.51,6.83,74.16,2.21,85.92-44.59,8-31.81,10.67-75.78-6.37-104.62-15.68-26.54-53.2-41.4-64.3-69.16-5.91-14.79,1-27.08,2.54-42.1C466.22,159.77,438,141.85,422,135.63Z" transform="translate(-73.95 -129.4)"/><path class="cls-2" d="M479.44,210.36c-38.1,10.29,7.07,90.43,37.53,46.75C530.85,237.21,504.34,203.63,479.44,210.36Z" transform="translate(-73.95 -129.4)"/><path class="cls-2" d="M420.27,417.52c-17.07-7-37.48-7.74-53.49,1.39C354.27,426,345.56,438.6,333,445.71c-11.58,6.59-25.59,8-37,14.89s-19.13,23.67-10,33.34c2.75,2.9,6.54,4.58,10.35,5.81,24.63,8,46,5.35,71.69,9,12.74,1.81,11,1.4,22.76,6.6C427.53,531.55,529.09,461.85,420.27,417.52Z" transform="translate(-73.95 -129.4)"/><path class="cls-3" d="M424,353.81c2.44-1.72,2.49-8.28-1.48-7.26-1.85,1-3.66,4.31-2.7,6.31A2.77,2.77,0,0,0,424,353.81Z" transform="translate(-73.95 -129.4)"/><path class="cls-4" d="M260.6,330.18c2.54-2.51-1.35-3.49-2.73-4.47-4.69-3.34-2.92-12.89,3.4-12.94,4.3,0,9.59,4.87,7,9.29,2.26,0,2.49-.31,2.59-2.53a8.53,8.53,0,0,0-.49-3.28,9.57,9.57,0,0,0-3.81-4.66,9.8,9.8,0,0,0-12.38,1.11c-4.09,4.19-3.84,11.57.23,15.68C255.7,329.69,258.87,331.89,260.6,330.18Z" transform="translate(-73.95 -129.4)"/><path class="cls-5" d="M276.48,418.31c5.75,7.78,13.3,14.79,22.54,18.1-8.57-12.68-21-31.4-8.93-45.79,4.4-5.24,10.14-9.53,14.92-14.46,5.28-5.45,10.7-10.84,17.47-14.43,6.34-3.36,13.73-5.4,20.92-4.31,7.34,1.1,12.74,5.7,17.93,10.66,2.32,2.22,4.8,5.24,7.86,6.43,2.8,1.09,6,.8,8.9.64,8.4-.46,17-.58,25.35.74,3.81.6,7.95,2,11.81,1.09,3.06-.76,5.45-2.94,7.73-5,6-5.42,11.91-9.36,20.39-7.86-4-7.29-3.55-16.88-4.13-24.94-.65-9-1.29-18.07-3.79-26.76a50.89,50.89,0,0,0-9.39-18.57,37.16,37.16,0,0,0-7.72-6.94c-1-.7-6.31-3-6-4.16.21-.93,2.77-1.78,3.58-2.46a12.4,12.4,0,0,0,2.9-3.51,12.62,12.62,0,0,0,.86-9.42c-1.74-6.62-6.75-12.4-12.19-16.35-12.83-9.3-28.12-8.61-42.87-5.24-7.79,1.78-15.48,3.95-23.38,5.27a151.77,151.77,0,0,1-25.72,2c5.28,1.33,11.18,3.46,14.65,7.92,3.87,5,2.73,13.31-4.59,14.14,5,6.76,1,17.93-2.53,24.34-3.93,7.13-9.43,14.28-17.29,17.21a19.8,19.8,0,0,1-6.63,1.31c-1.08,0-2.34-.39-3.37-.26s-1.68.93-2.63,1.59a25.54,25.54,0,0,1-10.42,3.91c-8.14,1.39-16.45.34-24.63,1.28.74.68,1.51.06,2.18.44.51.29.2.49.5.73a3.91,3.91,0,0,1,1.86,3.44c-.16,2.78-2.73,3.44-5,2.86-3.08-.78-4.13-2.92-6.15-5-1-1-1-.75-2.44.12a5.63,5.63,0,0,0-1.45,1c-.64.94-.54.39,0,1.56,1.07,2.2,3.89,3.87,5.77,5.32,2.42,1.86,4.89,3.63,7.46,5.28a58,58,0,0,0,8.79,5c2.69,1.12,4.53.51,7.12-.71a39.91,39.91,0,0,0,13.4-10.52,83.83,83.83,0,0,0,5.53-7.44c.55-.83,2-5.71,2.87-4.4s-.76,6.25-1.11,7.65a56.06,56.06,0,0,1-2.94,8.52,125.55,125.55,0,0,1-9.27,16.91c-6.51,10.37-13.4,20.58-16.38,32.64-1.43,5.76-1.69,10.87.2,16.55A50.16,50.16,0,0,0,276.48,418.31Zm93.75-139.87c-.28.08-3.26-5.09-3.83-5.67a28.25,28.25,0,0,0-7.31-4.79,31.56,31.56,0,0,0-7.91-2.68c-.75-.15-7.51-.9-7.51-1.22s7.89.22,8.69.34a30.51,30.51,0,0,1,8.88,3,21,21,0,0,1,6.3,4.61C368,272.58,371.78,278,370.23,278.44Zm46.14,60.33a21.93,21.93,0,0,0,6.17-1.6c3.42-1.47,7.38-4.62,11.31-4,.77.13,4.36,2,2.37,2.2-.51,0-1.8-1.11-2.59-1.21a6.26,6.26,0,0,0-3.44.74c7.37,7.76,11.89,21.45.95,28.31-4.55,2.85-11.06,5.47-16.35,3.28-4.64-1.92-7.36-7-7.53-11.89a24,24,0,0,1,4-13.61C412.56,339.13,414.25,339,416.37,338.77Zm-45.65-85.29c1.55-.23,3.11-.43,4.67-.59a65.41,65.41,0,0,1,9.39-.32c5.44.24,11.52,1.07,16.24,4a15.67,15.67,0,0,1,7.37,13.07,15.2,15.2,0,0,1-2,7.23c-.81,1.44-3.16,5.69-4.84,6.15s2-3.77,2.43-4.4a17.8,17.8,0,0,0,2.67-7.21,14.28,14.28,0,0,0-5.91-13.19c-8.84-6.25-22.13-5.21-32.26-3.91C367.75,254.38,370.43,253.53,370.72,253.48Zm4.32,6.15c4.79.49,9.91,1.28,13.75,4.43,3.66,3,6.38,9.72,3,14-2.25,2.88-.44-2.37-.31-3.56a9.79,9.79,0,0,0-2.19-7.57c-3.34-4-8.66-5.12-13.59-5.69-11.28-1.3-23.19-1.28-33.54-6.58C351.34,259.38,364.42,258.55,375,259.63ZM329.9,338.69c3-8,9.75-13.68,17.62-16.8a9.68,9.68,0,0,0-5.29-1c-.74,0-5.63.88-6-.29-.23-.83,3.3-.43,4.08-.53,2.17-.3,4.17-.82,6.35-.25,3.85,1,7.2,4,10.26,6.38a39.08,39.08,0,0,0,5,3.51c1.55.86,3.53,1.21,5,2.2,3,2.06,2.08,7.11,1.82,10.27-.33,3.95-1.28,8-3.93,11-5.57,6.47-16.22,4.09-23.57,2.77-3.77-.67-6.65-3.65-8.86-6.57C329.71,345.93,328.3,343,329.9,338.69Z" transform="translate(-73.95 -129.4)"/><path class="cls-3" d="M353.07,346.42c1.92-.44,3.08-2.5,3.44-4.29.43-2.12-.21-5.3-2.7-5.87-3.18-.71-4.57,3.25-5.07,5.63A3.67,3.67,0,0,0,353.07,346.42Z" transform="translate(-73.95 -129.4)"/><path class="cls-3" d="M348.4,355.15c4.26.49,9.17,1.55,13-1.1,3.57-2.51,4.82-7.17,5.24-11.28.23-2.18.77-5.24.16-7.39s-2.39-2.24-4.08-3.09a39.66,39.66,0,0,1-6.05-4c-1.91-1.44-4.06-3.77-6.28-4.72-1.29-.54-1.31-.46-2.74,0-1,.33-2,.6-2.93,1a17,17,0,0,0-5.09,3.24,32,32,0,0,0-7.95,11.56c-1.76,4.62,1.27,8.37,4.44,11.54C339.66,354.54,343.63,354.59,348.4,355.15Zm-4.48-14.22c.39-4.62,5.11-9.73,10.06-8.67s9.16,5,8.89,10.31a8.88,8.88,0,0,1-3.68,6.61c-2.32,1.68-4.28,1.33-6.88,1.58C346.57,351.3,343.5,346,343.92,340.93Z" transform="translate(-73.95 -129.4)"/><path class="cls-6" d="M434.73,366.37a24.73,24.73,0,0,0-8.38,5.22c-2.84,2.45-5.6,5.58-9.23,6.85s-7.14.57-10.68,0a140.15,140.15,0,0,0-25.23-1.53c-3.38.06-7,.49-10.37,0-3.82-.59-6.45-3.2-9-5.87-4.49-4.63-9.37-9.37-15.73-11.21-6.52-1.87-13.58-.71-19.7,1.94-12.31,5.33-20,16.34-30,24.7-4.64,3.88-8.38,8.36-9.76,14.38-1.54,6.76,1.61,13.91,4.63,19.87,5.84,11.54,14.24,24.89,26.19,30.76,12.85,6.31,26.88,9,40.9,11.27,7.58,1.24,15.18,2.34,22.77,3.49,6.85,1,13.49,2.32,20.46,2.14,13.48-.34,28.2-2.57,39.89-9.72,5.22-3.19,9.9-7.66,11.81-13.63a23.4,23.4,0,0,0,.56-11,33.94,33.94,0,0,0-1.07-4.34c-.37-1.19-1.71-3.41-1.64-4.67a116.43,116.43,0,0,1-22.27,9.82c-7.73,2.61-16.41,5.37-24.62,5.68s-16.65-1.77-24.5-3.38a219.39,219.39,0,0,1-23.94-6.28c-13.63-4.45-27.23-10.29-38.67-19.07-4.52-3.48-8.81-7.63-11.08-13-.93-2.18-1.7-4.78-1.14-7.17s2.87-4.11,5-1.89c3.76,4,2.57,11.71,4.95,16.52,1.47,3,4.21,4.61,6.87,6.44s5.58,3.64,8.49,5.26c12.5,6.94,26.24,11.56,40.05,15.06a223.8,223.8,0,0,0,22,4.42A87.43,87.43,0,0,0,403,438.65c3.54.08,7.09-.88,10.53-1.64,13.66-3,27.49-7.87,39.31-15.47,4.72-3,9.38-7,11.25-12.45s-.59-10-3.67-14.44A42.77,42.77,0,0,1,456,387.7c-1.31-2.92-1.15-5.78-.93-8.89.48-6.71-3.26-10.63-9.67-12.33C441.65,366.46,438.58,365.14,434.73,366.37Zm-84.58,22.49c-2.9-1.76-6-2.84-9-4.4-5.24-2.74-7.28-7.56-6.79-13.36.27-3.16,1.71-5.41,4.9-3.8a25.93,25.93,0,0,1,7.28,5.86c4.1,4.55,7.89,10,9.69,15.89C357.45,393.18,351.22,389.51,350.15,388.86Zm100.52-13.71c.51,5.56-1.77,9.79-6.81,12.13A77.52,77.52,0,0,0,436,391.2c-1,.62-5.43,2.78-4.45-.38,1.62-5.26,5.05-10.11,8.78-14.1C443,373.83,450,367.61,450.67,375.15Z" transform="translate(-73.95 -129.4)"/><path class="cls-5" d="M422.78,467.91a100.24,100.24,0,0,1-10.34,1.66,53.47,53.47,0,0,1,5.22,13.15c.51,2.07.33,5.7,1.24,7.53s3.83,3.46,5.32,4.84q11.17,10.37,21.5,21.58c2.22-11.3,2.31-23.37-2.78-34a42,42,0,0,0-11.31-13.78c-1.12-.92-2.37-2.27-3.72-2.31C426.41,466.58,424.3,467.58,422.78,467.91Z" transform="translate(-73.95 -129.4)"/><path class="cls-7" d="M303,315.38a24.3,24.3,0,0,0,12.65-8.57c5.69-7.06,12-17.83,9.58-27.25-1.11-4.42-2.89-4.36-6.87-5.92a43.12,43.12,0,0,1-12.09-7,35.94,35.94,0,0,1-12.49-24.15,90.56,90.56,0,0,1,0-15.36c.29-4.7.82-9.1-1-13.59a50.23,50.23,0,0,0-2.44,5.88c-.63-3.47-.13-7.05-.66-10.53-.69,7-5,12.82-7.34,19.28,1-6.77,2.25-13.62,1.62-20.49-3.09,10.22-6.16,20.34-10.43,30.17-4,9.17-8.2,18.45-9.44,28.47a46.5,46.5,0,0,0,22.5,45.38C291.73,314.79,297,316.94,303,315.38Zm-19.2-9.4a39.37,39.37,0,0,1-11.64-12.72c-5.22-9.23-6.34-20.12-4.58-30.48-.79,11.63,1,23.59,7.94,33.25a43.69,43.69,0,0,0,11,10.55c3.94,2.66,9.2,5.86,14,6.24C294.87,312.94,288.29,309.16,283.79,306Z" transform="translate(-73.95 -129.4)"/><path class="cls-8" d="M219.51,443.57c-8.47-6.06-16.88-12.27-24.92-18.9-.61-.5-2.53-1.58-2.8-2.36-.77-2.22,1.43-.55,2.05,0,5.37,4.54,11,8.81,16.61,13q3.75,2.81,7.55,5.54c1.74,1.25,2,2.18,3.68.67q1.6-1.47,3.31-2.83a53.43,53.43,0,0,1,16-9,92.43,92.43,0,0,1,18.31-4c6.39-.85,13-1.63,19.39-.59a69.07,69.07,0,0,1-6.58-8.64c-.9-1.4-1.76-2.83-2.54-4.31s-.61-1.64-2.19-2.32a18.54,18.54,0,0,0-2.37-.65q-10.68-2.88-21.51-5.15c-13.18-2.77-26.5-4.89-39.88-6.38q-9.6-1.08-19.23-1.73c-1.58-.11-5.5-1.23-6.64.24-1,1.31.56,3.62,1.08,4.88,1.18,2.83,2.25,5.7,3.37,8.55.83,2.08,2.82,5.24,1.91,7.53-1,2.52-4.46,2.41-6.69,2.75l-9.32,1.45c-1.37.21-4.86.13-5.66,1.59-.88,1.62,2.66,5.36,3.51,6.6q5.45,8,11.24,15.72,11.28,15.09,23.9,29.13A74.58,74.58,0,0,1,219.51,443.57Zm12.23-13.47a56.8,56.8,0,0,1,10.91-5,63.15,63.15,0,0,1,25.4-3.25A116.7,116.7,0,0,0,244,426a91.59,91.59,0,0,0-10.88,4,26.12,26.12,0,0,1-4.15,1.85C229.32,431.78,231,430.53,231.74,430.1Z" transform="translate(-73.95 -129.4)"/><path class="cls-6" d="M150.81,521.29a21.12,21.12,0,0,0-11.12-.67c-7.61,1.46-14.56,5.74-22.46,5.77a34.46,34.46,0,0,0,41.55.07C159.3,526.07,151.61,521.58,150.81,521.29Z" transform="translate(-73.95 -129.4)"/><path class="cls-7" d="M427.18,290c1.34-.54,2.66-1.12,4-1.76a49.55,49.55,0,0,0,9-5.54A36.64,36.64,0,0,0,450.93,269c-3.75,11.22-13.68,18.54-24.33,22.62,8.92,10.1,12.13,23.59,13.52,36.66,17.53-5,33.3-18.73,35.28-37.67,1.11-10.65-1.77-21.14-3.74-31.52-1.92-10-3.13-20.3-2.55-30.53a35,35,0,0,1-1.18,5.35c-.58,1.54-1.39,3-1.83,4.59a14,14,0,0,0-.64-3.52c-.24,2.46-2,4.46-2.19,6.94.05-2.39-.73-4.71-.67-7.11,0-2,.62-4.24-.07-6.22a42.43,42.43,0,0,1-2,6.63c-.74,1.74-2.08,3.43-2.08,5.39a28.94,28.94,0,0,1,1.31-11c-1.73,2.79-3.23,5.3-3.78,8.56-.5,3-.88,6-1.32,9-.85,5.92-1.91,11.84-4.24,17.37-4.35,10.37-12.77,18.62-23.77,21.55a32.06,32.06,0,0,1-4.85,1,35.76,35.76,0,0,1,2.71,2.38C425.68,290.6,425.67,290.59,427.18,290Z" transform="translate(-73.95 -129.4)"/><path class="cls-5" d="M443.4,341.43a44.17,44.17,0,0,0,5.93,6,25.33,25.33,0,0,0,7.83,4.36c3.37,1.13,5.59-.62,8.35-2.48a73.85,73.85,0,0,0,8.48-6.57c1.3-1.18,4.53-3.33,3-4.88-1.75-1.81-6.41-1.7-8.7-1.77-3.83-.11-7.67.15-11.51.23-5.39.11-11.36.31-16.19-2.5.11,1.36-.11,3.34.37,4.62A13.94,13.94,0,0,0,443.4,341.43Z" transform="translate(-73.95 -129.4)"/><path class="cls-3" d="M422,365c7.12-1.49,14.57-6.18,14.07-14.3a21.87,21.87,0,0,0-4-10.51c-.7-1.06-2.14-3.84-3.35-4.26-.88-.31-3.56,2-4.69,2.57a26.58,26.58,0,0,1-5.68,2.05c-1.72.39-3.58.46-4.92,1.72-2.19,2-3.5,6.67-3.93,9.48C408.32,359.64,413.69,366.76,422,365Zm2.24-22.14c9.94,2,7.55,18.32-2.31,15.5C411.55,358.64,414.22,340.89,424.24,342.88Z" transform="translate(-73.95 -129.4)"/><path class="cls-5" d="M246.22,592.7c-1.06-.84-2.88-3.07-4.1-3.37-1-.23-.17-.25-1.16.2a12,12,0,0,0-1.45,1.15c-1,.72-2,1.34-3.09,2a156.48,156.48,0,0,1-17.79,8.94c-4.08,1.83-12.88,5-13.84,10.25a81.21,81.21,0,0,1,16,6.93,24.92,24.92,0,0,0,3.17,2.15c.88.33.15.18,1.08.07a32,32,0,0,0,4.39-1.41c12.63-3.62,25.38-7,37.62-11.77-5.64-4.15-11.43-8.1-17-12.26C248.72,594.62,247.46,593.67,246.22,592.7Z" transform="translate(-73.95 -129.4)"/><path class="cls-5" d="M388.4,609.88l-7.14,2.43-13.09,4.46c10.55,13.16,23.26,23.46,37.2,32.75a44.49,44.49,0,0,1,1.74-14.33,30.35,30.35,0,0,1,1.5-4c.85-1.86.5-1.81-1-3.43a97.25,97.25,0,0,1-7.66-9.28,51.13,51.13,0,0,1-3.1-4.9c-.72-1.33-1.34-4.24-2.35-5.22C393.69,607.55,389.83,609.39,388.4,609.88ZM400.1,643A78.76,78.76,0,0,1,374,618.71c5.22,5.32,10.19,10.81,15.85,15.69C393.18,637.35,396.72,640.1,400.1,643Z" transform="translate(-73.95 -129.4)"/><path class="cls-4" d="M241.36,585.92c-.15.14-.28.23-.35.21C241.33,586.22,241.39,586.09,241.36,585.92Z" transform="translate(-73.95 -129.4)"/><path class="cls-6" d="M392.18,493.22c-10.55-4.79-22.53-6.7-34.06-6.55A94.05,94.05,0,0,0,299.74,508a86.41,86.41,0,0,0-21.12,25.61c-1.24,2.29-2.38,4.64-3.43,7-.71,1.6-2.82,5.1-1.88,6.23.75.9,3.71,1.67,4.83,2.15s2.52,1.07,3.79,1.59q3.82,1.56,7.69,3c21.44,7.77,44.78,12.57,67.65,10.18a96.58,96.58,0,0,0,16.94-3.28,87.47,87.47,0,0,0,8.47-3c1.6-.66,1.63-1.14,2.12-2.78.37-1.23.8-2.44,1.27-3.63,4.25-10.61,11.85-19.47,18.61-28.53,1.75-6.15,2.15-13.05-.69-19C401.61,498.69,397.05,495.44,392.18,493.22Z" transform="translate(-73.95 -129.4)"/><path class="cls-5" d="M260.24,549.3c-1.36,0-4.54-2.79-5.93-3.45a30.68,30.68,0,0,0-6.32-2.18,36.18,36.18,0,0,0-13.68-.23c-10.07,1.55-19.23,3.22-29.2,0-8.45-2.73-15.48-8.13-23.2-12.32a42.32,42.32,0,0,0-11.53-4.57,23.42,23.42,0,0,0-5.54-.49c-.89,0-2.5-.07-3.29.38s-.65,1-1.15,1.84c14.6-2.51,26.71,9.94,38.59,16.11a37.41,37.41,0,0,0,20,4.27c7.35-.52,14.63-2.33,22-1.59a37.53,37.53,0,0,1,17.62,6.27C259.2,552,259.73,550.66,260.24,549.3Z" transform="translate(-73.95 -129.4)"/><path class="cls-8" d="M266.75,508.32c-.34-6.51-2.49-12.79-8.18-16.49-10.94-7.11-27.39-4.23-37,3.71q9.54,9.18,19.7,17.7Q253,523,265.46,531.83C266.25,524.15,267.15,516.05,266.75,508.32Z" transform="translate(-73.95 -129.4)"/><path class="cls-9" d="M325,564.59a186.2,186.2,0,0,1-60.77-20.2,118.82,118.82,0,0,1-18.73,36.7c-.89,1.17-2.51,2.48-3.15,3.78s-.88.48.18,1.75c1.93,2.32,4.85,4.16,7.24,6,5,3.86,10.25,7.47,15.38,11.2,1.44,1.05,2.88,2.11,4.3,3.18,1.75,1.32,1.94,2,4,1.12q4.16-1.7,8.35-3.29a143.12,143.12,0,0,1,17.63-5.57c11.83-2.81,24-2.38,35.82-5.08a32.94,32.94,0,0,0,8-2.7c.65-.34,2-1.63,2.71-.89.87.92-.32,1.56-1,2-4.23,2.84-10,3.57-14.93,4.45,11.17,1.5,22.49,7.12,30.84,14.63q1.37,1.23,2.64,2.55c1.26,1.31,1.21,1.62,3,1L376,612l19-6.46q-4.62-23.6-9.25-47.18C367.08,567,344.91,567.57,325,564.59Z" transform="translate(-73.95 -129.4)"/><path class="cls-10" d="M495.07,584.63c-3.32-5.07-6.6-10.15-10-15.17q-9.43-14-19.91-27.29a407.19,407.19,0,0,0-46.12-49.37c.32,10.39-3.68,18.34-9.64,26.59s-12.8,16.07-17.87,25q35.26,18.33,71.14,35.49,8.79,4.21,17.6,8.37c1.27.59,8.4,3.14,8.25,4.35-.21,1.67-5.72-1.67-6.58-2.07q-17.43-8.21-34.74-16.63Q431.1,566,415.09,558q-7.56-3.83-15.1-7.69l-7.31-3.77c-1.93-1-1.89-.87-2.85,1.07-.66,1.35-1.28,2.73-1.83,4.13s-1.33,3.21-1.16,4.38c0-.06.65,1.12.69,1.22a9.26,9.26,0,0,1,.36,1.83l1.92,9.8,1.92,9.82c.6,3.08.74,6.91,1.92,9.81.53,1.31.31,1.25,1.9,1.63l2.22.52c1.29.3,2.58.6,3.88.88,3.14.7,6.3,1.36,9.46,2,6.43,1.25,12.89,2.31,19.38,3.24,12.95,1.84,26,3.09,39,4,6.43.45,12.88.78,19.32,1.12,3.85.2,12.09,2.26,13.64-2.9.81-2.69-1.34-5.12-2.71-7.2Q497.43,588.21,495.07,584.63Z" transform="translate(-73.95 -129.4)"/><path class="cls-5" d="M264.45,494.33c5.59,7.24,4.59,17,4,25.54-.34,5.13-.58,10.28-1.25,15.39-.28,2.11-1.34,4.73-1.19,6.8q-.91,1.41.75,1.65c.51.27,1,.52,1.54.78,1.2.59,2.41,1.16,3.62,1.73a85.63,85.63,0,0,1,21.95-34.16,94.2,94.2,0,0,1,66.81-26c11.84.26,25.71,2.31,35.9,8.78,9.23,5.87,11.42,16.49,8.92,26.64,3.77-5.11,7.82-10.6,9.92-16.65a35.92,35.92,0,0,0,.87-18.69,50.53,50.53,0,0,0-2.65-9c-.67-1.7-1.94-6.3-3.52-7.31-.74-.48-4.43.37-5.38.43-1.61.09-3.21.15-4.82.16a64.06,64.06,0,0,1-10-.73c-12.18-1.88-24.4-3.64-36.56-5.68-11-1.84-22.08-4.15-32.4-8.56a42.63,42.63,0,0,1-13.72-8.74c-1.91-1.89-3.44-4.69-5.48-6.37-1.07-.87-.16-.25-1.6-.75-.48-.17-1-.3-1.46-.47a36.76,36.76,0,0,1-3.8-1.53c-5-2.3-8.73-5.68-12.95-9.05-3.68-2.94-11.38-1.92-15.84-1.5-11,1-22.75,2.86-32.42,8.47A66.29,66.29,0,0,0,211,457.84a72.55,72.55,0,0,0-10.77,31.65c-.12,1.36-.58,3.74.12,4.79a8.83,8.83,0,0,0,2.71,1.72,38.08,38.08,0,0,0,6.24,2.65c1.46.48,4,1.65,5.17.93.88-.53,1.74-2.12,2.5-2.91A34.17,34.17,0,0,1,219.9,494C231.22,484.5,254.27,481.16,264.45,494.33Zm-60.52-9.88c3.21-23.38,21.86-47.75,45.7-52.4a48,48,0,0,1,10.43-.8C231.58,432.48,210,458,203.93,484.45Z" transform="translate(-73.95 -129.4)"/><path class="cls-11" d="M330.12,261c3.87,5,2.73,13.31-4.59,14.14a10.48,10.48,0,0,1,.91,1.46c4.8,3,10.39,4.6,15.92,5.6,6.37,1.15,12.94,1.65,19.38,2.24,7.35.69,14.72,1.06,22.1,1.25a107.62,107.62,0,0,0,19.24-1,77.11,77.11,0,0,0,9.28-2c.45-.87,2.75-1.66,3.51-2.29a12.4,12.4,0,0,0,2.9-3.51,12.62,12.62,0,0,0,.86-9.42c-1.74-6.62-6.75-12.4-12.19-16.35-12.83-9.3-28.12-8.61-42.87-5.24-7.79,1.78-15.48,3.95-23.38,5.27a151.77,151.77,0,0,1-25.72,2C320.75,254.36,326.65,256.49,330.12,261Z" transform="translate(-73.95 -129.4)"/><path class="cls-12" d="M467.39,666.61a11.33,11.33,0,0,0-1.57-.53c-.94-.25-2.14-.5-3.58-.74l-1.07-.17c-.66-.1-7.74-1-7.79-1l-3.77-.36-.53-.05-1.43-.12-3.36-.27c-1.62-.13-3.31-.25-5.07-.37l-2.77-.18-2.53-.16-4.64-.27-2-.11H427l-2.56-.13L422,662h-.17l-1.49-.07-1-.05a3.93,3.93,0,0,0,.06.48h0a2.6,2.6,0,0,0-.36-.21l-.14-.13a1.3,1.3,0,0,0,.08-.17l-.3,0-1.5-.06-1.14-.05-1.27-.06-1.89-.08h-.11l-1.74-.07h-.22l-2.55-.1-1,0-1.95-.07-3.08-.11-.53,0-2.36-.08a1.26,1.26,0,0,0,1.59,1.37,2.86,2.86,0,0,0,1.68.55h.28a2.88,2.88,0,0,0,.87.4.49.49,0,0,0,0,.12v.12a2.67,2.67,0,0,0-.64-.08,2.8,2.8,0,0,0-1.44.4,3.07,3.07,0,0,0-.69.43,1.06,1.06,0,0,0-.09-.35,1.29,1.29,0,0,0-.63-.63,2.67,2.67,0,0,0-.74-.68s0,0,0-.06h0a1.24,1.24,0,0,0-.11-.74,2.84,2.84,0,0,0-.38-.85h0l-2.49-.08-1.13,0-.64,0c-1.73-.05-43.07-.93-44.53-1l-1.53,0-2.48,0h-.88l-1.93,0-2,0-1.63,0V660a2.76,2.76,0,0,0,.32,1.31,3.4,3.4,0,0,1-2.86,3.05,2.87,2.87,0,0,0-.75,1.93,2.84,2.84,0,0,0,.82,2,1.24,1.24,0,0,0,.7,1.14,1.26,1.26,0,0,0-.61.88,1.21,1.21,0,0,0,.06.63,1.4,1.4,0,0,0-.09.29,1.26,1.26,0,0,0,1,1.45h.15v.06a3.73,3.73,0,0,0-.47,0,2.83,2.83,0,0,0-2,.83,4.32,4.32,0,0,0-.34-.39,1.26,1.26,0,0,0,.74-.94,1.4,1.4,0,0,0,0-.5,1.35,1.35,0,0,0-.2-.44l-.08-.09a1.71,1.71,0,0,1-.58-2.64,1.56,1.56,0,0,0,.16-.2,1.16,1.16,0,0,0,.16-.4,1.12,1.12,0,0,0,.1-.31,1.14,1.14,0,0,0,0-.26,1.53,1.53,0,0,0-.11-.47l-.12-.21a1.45,1.45,0,0,0-.21-.22,2.82,2.82,0,0,0,.3-1.26,1.19,1.19,0,0,0-.1-.75,2.85,2.85,0,0,0-1.21-1.65v-.06h0a1.16,1.16,0,0,0-.1-.74,2.9,2.9,0,0,0-.5-1,2.83,2.83,0,0,0-.77-.81,1.06,1.06,0,0,0-.27-.29l-1.55,0-3.42,0-3.78,0c0,.12,0,.25,0,.37a2,2,0,0,0,0,.35,1.3,1.3,0,0,0-.23.18l0,0a1.25,1.25,0,0,0,.22,2,1.24,1.24,0,0,0-.29,1.79,1.16,1.16,0,0,0,.24.7,3,3,0,0,0-.42,0,2.85,2.85,0,0,0-1.67.54,2.77,2.77,0,0,0-1.62-.52,2.87,2.87,0,0,0-2.73-.14,1.23,1.23,0,0,0-.56-1.11l0,0a3,3,0,0,0,1,.18h.05l.21,0a2.85,2.85,0,0,0,2.85-2.86,2.9,2.9,0,0,0-.4-1.46l-4.89,0H313.2a2.81,2.81,0,0,0-1.08,1.47,2.86,2.86,0,0,0-1.7-1.48H299.05a2.84,2.84,0,0,0-1,2.14,1.69,1.69,0,0,0,0,.23l-.19,0v-.06a2.85,2.85,0,0,0-1.22-2.34h-5.5a.77.77,0,0,0,.18.18,1.22,1.22,0,0,0,.89.64,1.16,1.16,0,0,0,.37,0,2.49,2.49,0,0,0-.25.52,2.86,2.86,0,1,0-1.77,5.1,2.82,2.82,0,0,0,.65-.08,2.83,2.83,0,0,0-.17,1,2.75,2.75,0,0,0,.31,1.28,2.91,2.91,0,0,0-1.25,1.55l-.32,0a2.87,2.87,0,0,0-1.79.63l-.29,0-.3,0a2.34,2.34,0,0,0-.38,0,.75.75,0,0,0,0-.16,1.24,1.24,0,0,0-.15-.83,2.86,2.86,0,0,0,1.73-2.62,1.27,1.27,0,0,0-.1-.75,2.83,2.83,0,0,0-.92-1.44,1.15,1.15,0,0,0-.2-.53,2.85,2.85,0,0,0-5.65.55,3.15,3.15,0,0,0,0,.44,1.28,1.28,0,0,0-.78,1,1.25,1.25,0,0,0,.05.61,2.72,2.72,0,0,0-1.07-.21,2.83,2.83,0,0,0-2.27,1.13,1.31,1.31,0,0,0-.49-.88,2.87,2.87,0,0,0,.53-1.65,1.19,1.19,0,0,0-.1-.75,2.85,2.85,0,0,0-5.48-.1,2.82,2.82,0,0,0-.75,1.93,2.86,2.86,0,0,0,4.21,2.51,1.25,1.25,0,0,0,1.55.09,3.55,3.55,0,0,0-.05.57,2.86,2.86,0,0,0,2.4,2.82,1.23,1.23,0,0,0,.94.8,1.24,1.24,0,0,0,2.24.28,1.17,1.17,0,0,0,.18-.46,1.14,1.14,0,0,0,0-.26,1.08,1.08,0,0,0-.11-.47,1.31,1.31,0,0,0-.47-.55,1.22,1.22,0,0,0-.33-.14,2.87,2.87,0,0,0,.83-2,1.16,1.16,0,0,0-.1-.74,2.75,2.75,0,0,0-.53-1,1.27,1.27,0,0,0,.75-.21,2.87,2.87,0,0,0,1.75,2.16,1.64,1.64,0,0,0-.14.39,1.27,1.27,0,0,0,.8,1.39,2.85,2.85,0,0,0-.49.65,3.38,3.38,0,0,0-.22.52,3.15,3.15,0,0,0-.11.55c0,.1,0,.2,0,.29a2.89,2.89,0,0,0,.53,1.67l3.22,0h3.2a3.51,3.51,0,0,0,.44-.42,3,3,0,0,0,.35-.5,2.25,2.25,0,0,0,.19-.45l.32,0a2.87,2.87,0,0,0,1.77-.61,2.91,2.91,0,0,0,1.07.21,2.74,2.74,0,0,0,1-.2l-.07.14a1.82,1.82,0,0,0-.07.25,1.39,1.39,0,0,0,0,.54,2.9,2.9,0,0,0-1.4,1h8.69a2.26,2.26,0,0,0,0-.26,1.19,1.19,0,0,0-.1-.75,3.22,3.22,0,0,0-.31-.74h.22a2.78,2.78,0,0,0,2.69-1.91,1.23,1.23,0,0,0,.47,0,2.91,2.91,0,0,0,.75.37,1.29,1.29,0,0,0,.61.83,1.25,1.25,0,0,0,.84.56,1.27,1.27,0,0,0,1.45-1,1.22,1.22,0,0,0-.19-.9,2.84,2.84,0,0,0,1-2.18,1.16,1.16,0,0,0-.1-.74,2.88,2.88,0,0,0-1.42-1.79h.11a1.27,1.27,0,0,0,.95-1,1.35,1.35,0,0,0,0-.53,2.89,2.89,0,0,0,1.42-1.68.8.8,0,0,0,.08.16.93.93,0,0,0,0,.13,1.26,1.26,0,0,0,1,1.46h0a1.55,1.55,0,0,0,.08.23,1.29,1.29,0,0,0,.94.73h.19a2.8,2.8,0,0,0-.78,1.82l-.18,0a1.2,1.2,0,0,0-.5,0,1.26,1.26,0,0,0-1,1,1.24,1.24,0,0,0,.38,1.12,1.27,1.27,0,0,0,1.15.32l.2-.07a1.24,1.24,0,0,0,.62,1.13,2.7,2.7,0,0,0-.07.63,2.85,2.85,0,0,0,2.85,2.86,2.82,2.82,0,0,0,1.23-.29,1.17,1.17,0,0,0,.52.35l-.09.19,4.14,0h1.28l5.47,0h1l3.4,0h.91l5.6,0h.45a2.85,2.85,0,0,0-.75-1.32h0l.15-.14a1.09,1.09,0,0,0,.13-.17,1.17,1.17,0,0,0,.18-.46,1.14,1.14,0,0,0,0-.26,1.08,1.08,0,0,0-.11-.47.72.72,0,0,0-.12-.21,1.26,1.26,0,0,0-.35-.34,1.43,1.43,0,0,0-.46-.18h-.15a1.15,1.15,0,0,0-.08-.41,1.4,1.4,0,0,0,.09-.29,1.27,1.27,0,0,0-.69-1.34,1.14,1.14,0,0,0,.32-.26A3.35,3.35,0,0,0,340,669a2.78,2.78,0,0,0,1.51.44,2.74,2.74,0,0,0,.64-.08v0a3,3,0,0,0,.06.6,2.85,2.85,0,0,0,2.62,2.67l.1.09a2.83,2.83,0,0,0-1.05,2.14l1.74,0,2.31,0,1.64,0h1.09l1.58,0,3.58-.06h1.12l2.51,0h.75l.9,0,1,0h1.08l5.16-.1h.56a1.16,1.16,0,0,0-.12-.44,3.16,3.16,0,0,0-.2-.54c0-.06,0-.12,0-.18h.1a2.68,2.68,0,0,0,.76-.1,1.82,1.82,0,0,0-.07.25,1.23,1.23,0,0,0,.28,1l2,0H372l1.31,0,5.07-.12h.18a1.64,1.64,0,0,0,.14-.39,1.34,1.34,0,0,0-.05-.6,2.87,2.87,0,0,0,.72-.14,1.3,1.3,0,0,0,.39.25,2.83,2.83,0,0,0,.75.83l3.52-.09a2.84,2.84,0,0,0,.84-1.15,1.56,1.56,0,0,0,.16-.28,1.26,1.26,0,0,0,.4.82,2.86,2.86,0,0,0-.93.6l1.59,0,1.67,0,.91,0,.89,0,5.24-.15h.25l5.26-.17h.22l1.93-.06,3.19-.12-.06-.12.07-.08a1.63,1.63,0,0,0,.11-.23,3,3,0,0,0,.53.41l2.33-.09h.2l2.33-.09,4.46-.19,1.13,0,4.69-.21,2.47-.12.75,0,1.76-.09,1.94-.11,1.51-.08.7,0,2.48-.14,1.61-.1,1.83-.11.51,0,2.89-.19.86-.06,2.41-.18c1.84-.13,3.59-.28,5.25-.42l3.72-.34.39,0c1.58-.16,3-.32,4.4-.48l1.38-.17c1.27-.16,2.43-.33,3.47-.5h0c.26,0,2.64-.49,3.25-.63a15.7,15.7,0,0,0,1.92-.55,5.53,5.53,0,0,0,.71-.31,2.79,2.79,0,0,0,.31-.2.67.67,0,0,0,.31-.48C468.31,667.16,468,666.88,467.39,666.61Zm-160.23-1a1.17,1.17,0,0,0,.13.79,2,2,0,0,0-.23-.06,1.26,1.26,0,0,0-1.45,1,1.22,1.22,0,0,0,.16.84,1.55,1.55,0,0,0-.07.23,2.86,2.86,0,0,0-4.36.44,3.08,3.08,0,0,0-.43,1,3.68,3.68,0,0,0-.05.58,2.82,2.82,0,0,0,.12.83,1.24,1.24,0,0,0-.88.81,2.87,2.87,0,0,0-1.25.86,1.1,1.1,0,0,0-.36-.35.91.91,0,0,0-.22-.11,1.09,1.09,0,0,0-.24-.07,1.14,1.14,0,0,0-.26,0h-.06a2.9,2.9,0,0,0,.5-.69,1.28,1.28,0,0,0,.39-.71,1.19,1.19,0,0,0-.07-.65,2.87,2.87,0,0,0-1.22-2.3,1.29,1.29,0,0,0-.56-.55,1.1,1.1,0,0,0,0-.18l.19-.09a2.07,2.07,0,0,0,.25.15,2.83,2.83,0,0,0,3.65-.81,2.8,2.8,0,0,0,2.95-.29l.33,0a2.78,2.78,0,0,0,.58-.06,1.4,1.4,0,0,0,.26.16h0a1,1,0,0,0,.3.09,1.2,1.2,0,0,0,.5,0,1.27,1.27,0,0,0,.95-1,1.24,1.24,0,0,0-.08-.69,2.73,2.73,0,0,0,.32-1.14,2.84,2.84,0,0,0,.85,1A1.27,1.27,0,0,0,307.16,665.65Zm-.42-3.63a2.61,2.61,0,0,0-.23-.84,2.89,2.89,0,0,0,1.16-1.31,3.56,3.56,0,0,0,.57.08A2.88,2.88,0,0,0,306.74,662Zm15.88,8.88.06-.18.07,0A.93.93,0,0,0,322.62,670.9Zm3.48-7.8a1.1,1.1,0,0,0,.26,0,2.59,2.59,0,0,0-.32.59h0a1.26,1.26,0,0,0-.23-.69A1,1,0,0,0,326.1,663.1Zm2,7.61a1.12,1.12,0,0,0-.41.1l-.21.12a1.42,1.42,0,0,0-.3.3,2.87,2.87,0,0,0-1-1,1.34,1.34,0,0,0-.17-.65,2.76,2.76,0,0,0,.48-1.58,1.16,1.16,0,0,0-.1-.74,2.86,2.86,0,0,0-1.1-1.59,1.21,1.21,0,0,0,.65-.32,2.86,2.86,0,0,0,2.75,2.25,2.74,2.74,0,0,0-.11.76,2.88,2.88,0,0,0,1.17,2.3l-.22,0a1.35,1.35,0,0,0-.49-.21,1.26,1.26,0,0,0-.9.2Zm1.11,3.2a2.77,2.77,0,0,0-1-.7,1.26,1.26,0,0,0,.74-.21l.21,0a1.18,1.18,0,0,0,.49.2,1.28,1.28,0,0,0,1.11-.36c0,.08.09.16.14.24A2.88,2.88,0,0,0,329.21,673.91Zm17.37-10a1.93,1.93,0,0,0-.41-.12,2.66,2.66,0,0,0-.34-.79,2.86,2.86,0,0,0,2.34-2.26,1.55,1.55,0,0,0,.24-.27,2.81,2.81,0,0,0,1.06.87,2.6,2.6,0,0,0-.06.56h0a2.84,2.84,0,0,0-2.45,1.7A1.2,1.2,0,0,0,346.58,663.92ZM349.36,674a2.85,2.85,0,0,0-1.5-1.64,1.07,1.07,0,0,0-.09-.27,1.21,1.21,0,0,0-.49-.56,2.85,2.85,0,0,0,.58-1.72,2.76,2.76,0,0,0-.05-.51,1.21,1.21,0,0,0-.1-.66.65.65,0,0,1,0-.13,2.93,2.93,0,0,0,.42-.56,2.76,2.76,0,0,0,.63,1,2.83,2.83,0,0,0-.74,1.91,2.87,2.87,0,0,0,1.52,2.53,2.67,2.67,0,0,0,.08.64Zm5.69-4.07-.32,0a2.77,2.77,0,0,0-1.12.23l0,0A2.77,2.77,0,0,0,353,669a2.87,2.87,0,0,0,1.63-1.1,1.27,1.27,0,0,0,.75-.95,1.2,1.2,0,0,0-.09-.73l.23,0a2.75,2.75,0,0,0,.65-.08,2.83,2.83,0,0,0-.17,1,2.75,2.75,0,0,0,.31,1.28A2.91,2.91,0,0,0,355.05,670Zm11.21-1.05a2.71,2.71,0,0,0-.43,1,2.34,2.34,0,0,0,0,.26,2.7,2.7,0,0,0-.73-.23,1.26,1.26,0,0,0-2-1,2.85,2.85,0,0,0-.69-.78,2.71,2.71,0,0,0,.64-.47,2.63,2.63,0,0,0,.49,0,2.85,2.85,0,0,0,2.29-1.16,3,3,0,0,0,.83.25,1.22,1.22,0,0,0,.07,1.54A3.15,3.15,0,0,0,366.26,668.92Zm5.25,3.93v.07a1.22,1.22,0,0,0-.74-.43h-.08a2.6,2.6,0,0,0,.3-.36,2.94,2.94,0,0,0,.42-1,3.13,3.13,0,0,0,.44.36A2.79,2.79,0,0,0,371.51,672.85Zm.56-7.2a1.24,1.24,0,0,0,.13.79l-.22-.06-.26,0a1.41,1.41,0,0,0-.47.11,1.6,1.6,0,0,0-.4.28,1.38,1.38,0,0,0-.33.66,1.2,1.2,0,0,0,0,.5,1.43,1.43,0,0,0,.14.34.86.86,0,0,0-.06.23,2.85,2.85,0,0,0-1.74-.8,1.25,1.25,0,0,0-.53-1.08,2.92,2.92,0,0,0,.37-.24l.33,0a2.72,2.72,0,0,0,.58-.06,1.2,1.2,0,0,0,.27.16h0a1,1,0,0,0,.3.09,1.2,1.2,0,0,0,.5,0,1.25,1.25,0,0,0,.95-1,1.24,1.24,0,0,0-.08-.69,2.74,2.74,0,0,0,.33-1.14,2.72,2.72,0,0,0,.84,1A1.27,1.27,0,0,0,372.07,665.65Zm5.14,2.29a2.84,2.84,0,0,0-1,.76.83.83,0,0,0-.1-.34,2.83,2.83,0,0,0-1.72-1.92,1.39,1.39,0,0,0,.12-.36,1.14,1.14,0,0,0,0-.26,1.12,1.12,0,0,0-.11-.47h0a2.86,2.86,0,0,0,2.72-2,.8.8,0,0,0,.08.16s0,.09,0,.13a1.13,1.13,0,0,0,0,.26,1,1,0,0,0,.11.47,1.2,1.2,0,0,0,.38.48,2.89,2.89,0,0,0-.75,1.93A2.85,2.85,0,0,0,377.21,667.94Zm8-2.75a2.88,2.88,0,0,0-1.49-.42,2.81,2.81,0,0,0-1.23.28,1.27,1.27,0,0,0-.56-1.11v0a3,3,0,0,0,1,.18H383l.21,0a3,3,0,0,0,1-.2,2.89,2.89,0,0,0,1.32.9,2.6,2.6,0,0,0,.28.45A3.18,3.18,0,0,0,385.22,665.19Zm1.84,6.47h0Zm7.34-.94,0,0a1.48,1.48,0,0,0-.47-.18h-.11a2.81,2.81,0,0,0-1.64-.52,2.93,2.93,0,0,0-1.11.22,1.24,1.24,0,0,0-1-1.23,1.26,1.26,0,0,0-1.46,1,.71.71,0,0,1,0,.14,2.87,2.87,0,0,0-1,.75,2.93,2.93,0,0,0,.22-1.11,1,1,0,0,0,0-.43,2.8,2.8,0,0,0,.33-1.31,1.54,1.54,0,0,0,0-.43,1.27,1.27,0,0,0,.34-.66,1.4,1.4,0,0,0,0-.58,2.84,2.84,0,0,0,2.35-1.67l0,0v.08a2.82,2.82,0,0,0,.44,1.52,1.22,1.22,0,0,0-.62.87,1.26,1.26,0,0,0,1,1.46,1.19,1.19,0,0,0,.5,0,1.25,1.25,0,0,0,.78-.55,1.17,1.17,0,0,0,.18-.46v0a2.84,2.84,0,0,0,.51,0,3.55,3.55,0,0,0-.09.47,2.71,2.71,0,0,0,0,.29,2.85,2.85,0,0,0,1.17,2.3Zm10.58.73-.15-.05a1.13,1.13,0,0,0-.26,0h-.05s0-.1-.07-.16a1.11,1.11,0,0,0,.24-.54.66.66,0,0,0,0-.14,2.85,2.85,0,0,0,.23-1.13,1.45,1.45,0,0,0,0-.36,3.05,3.05,0,0,0,.61.27,2.84,2.84,0,0,0-.6,1.74A2.43,2.43,0,0,0,405,671.45Zm8.12-3.56-.26,0-.24,0-.22.08a1.28,1.28,0,0,0-.81-1,1.26,1.26,0,0,0-.39-.64.79.79,0,0,0,0-.13,1.3,1.3,0,0,0,0-.34,2.8,2.8,0,0,0,1.08.35,2.71,2.71,0,0,0,.85.51,2.83,2.83,0,0,0,0,.41,3,3,0,0,0,.11.79Zm12.21-.19a2.94,2.94,0,0,0-.6.16,2,2,0,0,0,.17-.32,2.62,2.62,0,0,0,.56.09Zm3.79-1.32-.25,0a1.53,1.53,0,0,0-.48.11,1.39,1.39,0,0,0-.39.28,1.22,1.22,0,0,0-.33.66v0a2.69,2.69,0,0,0-.76-.14,2.79,2.79,0,0,0,.92-.75h0a1.27,1.27,0,0,0,.95-1,1.24,1.24,0,0,0-.08-.69l0,0a2.65,2.65,0,0,0,.46,1,1.14,1.14,0,0,0,.15.58A2,2,0,0,0,429.1,666.38Zm5.2-.69a2.34,2.34,0,0,0-.38,0,2.26,2.26,0,0,0,.22-.44,2.18,2.18,0,0,0,.44-.11A2.36,2.36,0,0,0,434.3,665.69Zm5.32-.64a1.26,1.26,0,0,0-.28-.86,1.64,1.64,0,0,0,.22-.14,2.12,2.12,0,0,0,.44,0,2.41,2.41,0,0,0,.52.36,1,1,0,0,0,0,.34A2.79,2.79,0,0,0,439.62,665.05Zm4.74,0h-.22a2.82,2.82,0,0,0-1.2.27l-.13,0a1.53,1.53,0,0,0,.2-.49,1.48,1.48,0,0,0,0-.21,3,3,0,0,0,.6-.37,3,3,0,0,0,1.32.58A2.51,2.51,0,0,0,444.36,665Zm2.83-.06.22-.09a2.6,2.6,0,0,0,.47-.16.22.22,0,0,0,0,.08,2.88,2.88,0,0,0,.13.83A2.87,2.87,0,0,0,447.19,664.94Zm1.43,1.93-.06-.25a2.39,2.39,0,0,0,.22.23Zm2,1.22a.11.11,0,0,1,0,0,1,1,0,0,0-.16-.12,1.22,1.22,0,0,0-.36-.48,2.57,2.57,0,0,0,.62.08A2.44,2.44,0,0,0,450.6,668.09Z" transform="translate(-73.95 -129.4)"/><path class="cls-12" d="M343,674.39a1.29,1.29,0,0,0-1.12.37,1.1,1.1,0,0,0-.14.18h.6l1.48,0A1.26,1.26,0,0,0,343,674.39Z" transform="translate(-73.95 -129.4)"/><path class="cls-12" d="M268.19,674.42a1.27,1.27,0,0,0-1.18.44l2,0A1.2,1.2,0,0,0,268.19,674.42Z" transform="translate(-73.95 -129.4)"/><path class="cls-12" d="M273.55,672.8a2.86,2.86,0,0,0-2.75,2.11l5.51.06A2.83,2.83,0,0,0,273.55,672.8Z" transform="translate(-73.95 -129.4)"/><path class="cls-12" d="M307.69,673.19a39.27,39.27,0,0,1-3.52,1.92h6.67a3.56,3.56,0,0,0-.6-.34A2.86,2.86,0,0,0,307.69,673.19Z" transform="translate(-73.95 -129.4)"/><path class="cls-12" d="M271.46,672.17a1.2,1.2,0,0,0,0-.5,1.16,1.16,0,0,0-.19-.44,1.61,1.61,0,0,0-.35-.34,1.48,1.48,0,0,0-.47-.18,1.07,1.07,0,0,0-.25,0,1.13,1.13,0,0,0-.48.11l-.21.12a1.23,1.23,0,0,0-.33.35,1.17,1.17,0,0,0-.18.46,1.26,1.26,0,1,0,2.48.43Z" transform="translate(-73.95 -129.4)"/><path class="cls-12" d="M254.79,672.49a1.26,1.26,0,0,0-1.46,1,1.28,1.28,0,0,0,.41,1.15l1.63,0a1.23,1.23,0,0,0,.44-.76A1.26,1.26,0,0,0,254.79,672.49Z" transform="translate(-73.95 -129.4)"/><circle class="cls-12" cx="152.71" cy="535.58" r="2.85"/><path class="cls-12" d="M260.81,665a2.87,2.87,0,0,1-2.12.19,2.85,2.85,0,1,0,0,5.7,2.82,2.82,0,0,0,1.29-.31,2.53,2.53,0,0,0,.83.13,2.86,2.86,0,1,0,0-5.71Z" transform="translate(-73.95 -129.4)"/><path class="cls-12" d="M238.4,667.68a1.25,1.25,0,0,0-1.45,1,1.26,1.26,0,0,0,1,1.46,1.28,1.28,0,0,0,1.46-1A1.26,1.26,0,0,0,238.4,667.68Z" transform="translate(-73.95 -129.4)"/><path class="cls-12" d="M222.75,669.45a1.26,1.26,0,1,0,1,1.45A1.26,1.26,0,0,0,222.75,669.45Z" transform="translate(-73.95 -129.4)"/><path class="cls-12" d="M254.18,663.13a1.26,1.26,0,1,0-1-1.45A1.26,1.26,0,0,0,254.18,663.13Z" transform="translate(-73.95 -129.4)"/><path class="cls-12" d="M249,663.9a1.26,1.26,0,1,0-1-1.45A1.25,1.25,0,0,0,249,663.9Z" transform="translate(-73.95 -129.4)"/><path class="cls-12" d="M266,669.17a1.26,1.26,0,1,0-.43,2.48,1.26,1.26,0,0,0,.43-2.48Z" transform="translate(-73.95 -129.4)"/><path class="cls-12" d="M208.71,668.27a2.85,2.85,0,0,0-1.7,5.14l3.22.13a2.86,2.86,0,0,0-1.52-5.27Z" transform="translate(-73.95 -129.4)"/><path class="cls-12" d="M173,668.63a1.26,1.26,0,1,0-.42,2.48,1.27,1.27,0,0,0,1.45-1A1.25,1.25,0,0,0,173,668.63Z" transform="translate(-73.95 -129.4)"/><path class="cls-12" d="M183.32,664.41a1.26,1.26,0,0,0-1.46,1,1.26,1.26,0,1,0,2.49.43A1.26,1.26,0,0,0,183.32,664.41Z" transform="translate(-73.95 -129.4)"/><path class="cls-12" d="M157.2,666.59a1.26,1.26,0,1,0,1,1.46A1.27,1.27,0,0,0,157.2,666.59Z" transform="translate(-73.95 -129.4)"/><path class="cls-12" d="M215,665.12a1.25,1.25,0,0,0-1-1.45,1.26,1.26,0,1,0,1,1.45Z" transform="translate(-73.95 -129.4)"/><path class="cls-12" d="M209.23,663.9a1.26,1.26,0,1,0,.43-2.48,1.26,1.26,0,0,0-.43,2.48Z" transform="translate(-73.95 -129.4)"/><path class="cls-12" d="M192.18,664.93a1.26,1.26,0,1,0-.42,2.48,1.27,1.27,0,0,0,1.45-1A1.25,1.25,0,0,0,192.18,664.93Z" transform="translate(-73.95 -129.4)"/><path class="cls-12" d="M196.39,661.91a1.26,1.26,0,1,0-.43,2.48,1.26,1.26,0,0,0,.43-2.48Z" transform="translate(-73.95 -129.4)"/><path class="cls-12" d="M202.06,670.91a1.26,1.26,0,0,0-.94,2.27l1.36.05a1.25,1.25,0,0,0,.61-.86A1.28,1.28,0,0,0,202.06,670.91Z" transform="translate(-73.95 -129.4)"/><path class="cls-12" d="M235.09,670.91a1.28,1.28,0,0,0-1.46,1,1.26,1.26,0,0,0,1,1.45,1.25,1.25,0,0,0,1.45-1A1.26,1.26,0,0,0,235.09,670.91Z" transform="translate(-73.95 -129.4)"/><path class="cls-12" d="M221.72,664.13a1.26,1.26,0,0,0-2.48-.43,1.26,1.26,0,1,0,2.48.43Z" transform="translate(-73.95 -129.4)"/><path class="cls-12" d="M262,664.64a1.27,1.27,0,0,0,.86-.17,2.89,2.89,0,0,0,1.59.48,3.11,3.11,0,0,0,.62-.06,2.86,2.86,0,0,0,4.38-2.32,2.85,2.85,0,0,0,4.06-2.58v0L268,660l-2.88,0-2.69,0a2.86,2.86,0,0,0-.84,2,1.34,1.34,0,0,0,0,.2,1.23,1.23,0,0,0-.64.88A1.26,1.26,0,0,0,262,664.64Z" transform="translate(-73.95 -129.4)"/><path class="cls-12" d="M280.45,663.05a2.85,2.85,0,0,0,2.8-2.3,1.25,1.25,0,0,0,.43-.74.86.86,0,0,0,0-.16l-2.51,0-3.56,0c0,.1,0,.2,0,.3A2.86,2.86,0,0,0,280.45,663.05Z" transform="translate(-73.95 -129.4)"/><path class="cls-12" d="M245,664.11a2.88,2.88,0,0,0,.8-2,2.82,2.82,0,0,0-.61-1.76l-4.56.09a2.85,2.85,0,0,0-.54,1.67.38.38,0,0,0,0,.1,1.25,1.25,0,1,0,1,2,2.87,2.87,0,0,0,1.89.71,2.48,2.48,0,0,0,.61-.07,1.6,1.6,0,0,0,0,.21,1.25,1.25,0,0,0,1,1.45,1.25,1.25,0,0,0,.47-2.46Z" transform="translate(-73.95 -129.4)"/><path class="cls-12" d="M276.78,675h.76l-.18-.05A1.13,1.13,0,0,0,276.78,675Z" transform="translate(-73.95 -129.4)"/><path class="cls-12" d="M258.42,671a1.26,1.26,0,0,0-1.46,1,1.28,1.28,0,0,0,1,1.46,1.26,1.26,0,0,0,1.45-1A1.25,1.25,0,0,0,258.42,671Z" transform="translate(-73.95 -129.4)"/><path class="cls-12" d="M312.78,672.49a1.26,1.26,0,1,0-.43,2.48,1.26,1.26,0,0,0,.43-2.48Z" transform="translate(-73.95 -129.4)"/><path class="cls-12" d="M335.34,662.53a1.26,1.26,0,1,0,.43-2.48,1.26,1.26,0,0,0-.43,2.48Z" transform="translate(-73.95 -129.4)"/><path class="cls-12" d="M261.75,674.27a1.25,1.25,0,0,0-1.22.51l2.05,0A1.23,1.23,0,0,0,261.75,674.27Z" transform="translate(-73.95 -129.4)"/><path class="cls-12" d="M268.53,667.16a1.26,1.26,0,1,0,2.48.43,1.26,1.26,0,0,0-2.48-.43Z" transform="translate(-73.95 -129.4)"/><path class="cls-12" d="M225.41,671.5a1.26,1.26,0,0,0-1.45,1,1.25,1.25,0,0,0,1,1.45,1.26,1.26,0,0,0,1.46-1A1.28,1.28,0,0,0,225.41,671.5Z" transform="translate(-73.95 -129.4)"/><path class="cls-12" d="M264.92,673.69a1.26,1.26,0,0,0-1.46,1v.1l2.5,0A1.26,1.26,0,0,0,264.92,673.69Z" transform="translate(-73.95 -129.4)"/><path class="cls-12" d="M250.4,667.75a2.74,2.74,0,0,0-.7.09,1.06,1.06,0,0,0,.06-.19,1.27,1.27,0,0,0-1-1.45,1.26,1.26,0,0,0-.43,2.48,2.61,2.61,0,0,0-.48.71,1.25,1.25,0,0,0,0,2.37,2.83,2.83,0,0,0,2.09,1.65h-.2a2.87,2.87,0,0,0-2.29,1.15l4.64.09a2.87,2.87,0,0,0-1.84-1.19h.21a2.86,2.86,0,0,0,0-5.71Z" transform="translate(-73.95 -129.4)"/><path class="cls-12" d="M214.65,668.11a1.26,1.26,0,0,0-1.46,1,1.28,1.28,0,0,0,1,1.46,1.26,1.26,0,0,0,1.45-1A1.25,1.25,0,0,0,214.65,668.11Z" transform="translate(-73.95 -129.4)"/><path class="cls-12" d="M222.45,662.45a1.26,1.26,0,0,0,1.45-1,1.35,1.35,0,0,0,0-.53l-2.45.08v0A1.25,1.25,0,0,0,222.45,662.45Z" transform="translate(-73.95 -129.4)"/><path class="cls-12" d="M234.9,665.86a1.26,1.26,0,1,0-1.45,1A1.27,1.27,0,0,0,234.9,665.86Z" transform="translate(-73.95 -129.4)"/><path class="cls-12" d="M243.75,670.39a1.28,1.28,0,0,0-1.46,1,1.26,1.26,0,0,0,1,1.45,1.25,1.25,0,0,0,1.45-1A1.26,1.26,0,0,0,243.75,670.39Z" transform="translate(-73.95 -129.4)"/><path class="cls-12" d="M276.77,670.39a1.27,1.27,0,0,0-1.45,1,1.26,1.26,0,0,0,2.48.43A1.26,1.26,0,0,0,276.77,670.39Z" transform="translate(-73.95 -129.4)"/><path class="cls-12" d="M502.84,593.2c-11.32-17.27-22.5-34.58-35.27-50.84q-4.65-5.94-9.52-11.7c-1.62-1.93-3.26-3.83-4.91-5.73s-3.73-3.61-5-5.63c-.86-1.34-.66-1.14-.36-2.81.2-1.1.37-2.2.53-3.31a71.89,71.89,0,0,0,.68-7.76,54.81,54.81,0,0,0-1.3-14.28c-2.49-10.65-8.66-18.78-17.32-25.26,8.43-2.73,17.25-7.18,22.25-14.8A22.57,22.57,0,0,0,456.28,438a31.82,31.82,0,0,0-1.09-7.19c-.42-1.58-1.21-5.84-2.57-6.77,6.38-4,13.49-10.06,14.09-18.16.68-9.19-8.94-13.76-10-22.19-.48-3.83,1.09-7.57-.44-11.33-1.73-4.22-5.47-5.34-9.12-7.29-3.24-1.73-4.11-7.06-4.66-10.53-.7-4.41-.95-8.91-1.29-13.36,3.57,4.49,7.56,8.67,12.83,11.12,3,1.38,5.51,2.24,8.57.74a49.29,49.29,0,0,0,8.39-5.75c2.26-1.78,11.46-7.82,6.81-10.79s-12-2-17.26-1.72c-5.76.3-11.81.76-17.34-1.21-1.24-.44-2.43-.68-2.75-1.91-.36-1.43-.07-1,.93-1.57,2.31-1.35,5.46-1.87,7.94-3,9.84-4.55,18.63-11.89,23.71-21.58,6.17-11.79,4.88-25.1,2.4-37.7-2.69-13.63-5.56-27.67-4.29-41.65.5-5.4,1.77-11.28,4.79-15.88.71-1.09,3.93-3.52,3.85-4.4-.17-1.92-5.87.51-6.69.87-10.6,4.69-15.76,16-18,26.71-2.69,12.66-2.58,26-10,37.13a33.51,33.51,0,0,1-11.95,11,34.32,34.32,0,0,1-8.84,3.22c-1.43.31-3.59.84-5,.42s-2.89-1.67-4.27-2.25c15.46-8.76,1.77-28-8.38-34.49-14.5-9.26-30.88-6.6-46.66-2.73a238.87,238.87,0,0,1-25,5.17c-4.26.58-8.56,1-12.86,1.24-1.54.09-10.9-.29-10.89.57,0,.55,8.21,2.78,9,3.09,3.29,1.37,6.72,3.23,8.93,6.12,1.85,2.42,2.86,5.79,1.21,8.58a6.91,6.91,0,0,1-3.78,3c-2,.65-2.75.06-4.61-.65-6.64-2.53-12.87-5.42-17.78-10.75-5.12-5.58-7.7-12.76-8.52-20.21-1.51-13.83,2.58-27.78-.87-41.5-1.59-6.33-4.92-12.35-10.25-16.28-.81-.59-7.38-4.9-6.46-1.6.18.62,1.65,1.9,2.05,2.65a19.77,19.77,0,0,1,1.76,5.12c3.12,14.75-3.45,31.31-9.15,44.63-6.66,15.54-13.86,31.2-9.61,48.46,3.64,14.75,15.35,29.29,30.28,33.74-6.25,4.22-14,4.78-21.32,4.89,2.79-9.61-8.62-17.15-16.75-12.1a12.34,12.34,0,0,0-5.4,12.15,15.28,15.28,0,0,0,.42,2.14l-1.1.45a20.1,20.1,0,0,1-1.91,1c-1.69,1.09-2.77,2.3-1.95,4.34,1.56,3.85,7.58,7.36,10.8,9.64,4.28,3,9.62,7.31,14.88,8.42,4.41.92,10.15-3.26,13.49-5.83a53.92,53.92,0,0,0,10.68-11.53c-4,13.86-13.27,25-20.47,37.23-7.1,12.06-12.78,26.39-7.12,40.08a422.26,422.26,0,0,0-75.76-13.32c-2.87-.24-5.74-.44-8.61-.65-1.73-.13-3.86-.62-5.55-.07-4.76,1.55-.08,8.88,1,11.68l3,7.71c.84,2.11,1.16,3.45-1.29,4.23-5.53,1.76-11.66,1.13-17.23,2.64-6.72,1.82.79,9.68,2.86,12.67q5.33,7.68,11,15.13t11.6,14.65q2.79,3.38,5.65,6.69c1.62,1.88,5.76,5.19,6.06,7.43.12.87-.63,2.33-.83,3.19-.35,1.49-.65,3-.9,4.48a66.83,66.83,0,0,0-.89,9.05A56.92,56.92,0,0,0,200,511.42c.26.87.69,3.47,1.58,3.89,1.06.51,1.93-.63,2.93-.83,1.78-.36,4,2.41,5.25,1.33.7-.59.68-2.6.9-3.44a32.76,32.76,0,0,1,1.24-3.74,32.39,32.39,0,0,1,3.76-6.82,33.16,33.16,0,0,1,2.78-3.37c.34-.37.88-1.26,1.36-1.37.84-.2,1.25.53,2,1.24q3.78,3.58,7.66,7.09,7.84,7.05,16.07,13.68,8,6.42,16.32,12.42l1.91,1.36c1.27.9,1.22.82,1.29,2.18a23.77,23.77,0,0,1-.88,5.2c-.39,1.87-.76,1.29-1.75,2.45-.82,1-1.19,3.75-1.62,5-3.23-3.77-10.45-5.75-15.15-6.42-6.69-1-13.13.78-19.69,1.88-13.76,2.31-25.05-2.61-36.72-9.34-5.46-3.15-11.08-6.35-17.23-7.94a22.63,22.63,0,0,0-8.43-.72c-.67.08-1.42.34-2.1.38-1.94.12-.45.32-1.66-.41s-2.27-2.18-3.53-3a23,23,0,0,0-15.11-3.62c-6.06.64-11.6,3.5-17.48,4.9a23.57,23.57,0,0,1-8.19.67c-3.61-.41-3.41,1.23-1,3.3a36.25,36.25,0,0,0,13.53,7.22,36.84,36.84,0,0,0,15.49,1c5.38-.79,9.53-3.11,14.33-5.38,4.46-2.1,11.55.1,15.92,1.84a84.21,84.21,0,0,1,14.2,7.89c5,3.2,9.92,6.55,15.47,8.68,6.12,2.34,12.3,2.59,18.76,1.87,6.69-.74,13.34-2,20.08-1a36.36,36.36,0,0,1,7.94,2.18,37,37,0,0,1,3.77,1.77q.93.5,1.83,1.05c1.54.94,1.68.61,1.31,2.24-.63,2.82-2.87,6-4.25,8.51-1.64,3-3.39,5.94-5.22,8.82a70.25,70.25,0,0,1-5.16,7.19c-.82,1-2,1.92-2.72,3-.43.63-.7.76-.68,1.55s1.17,1.55,1.11,2c-.2,1.48-5.9,4.12-7,4.74-2.88,1.65-5.86,3.12-8.86,4.52-5.84,2.71-12.53,4.86-17.43,9.17-1.76,1.55-4,3.64-4.13,6.1-.2,2.91,1.63,6.79,2.47,9.54q1.44,4.75,3,9.48c.6,1.86,1.35,7.46,3.67,7,1-.22,2.7-2.43,3.49-3.18q1.69-1.63,3.32-3.36c2.34-2.48,4.21-5.19,6.32-7.83,1.64-2.05,4-2.29,6.47-3,3.52-1,7-2,10.55-3,6.63-1.89,13.23-3.87,19.72-6.19,1.53-.55,3.06-1.11,4.57-1.7a11.19,11.19,0,0,1,2.27-.9c.62.12,1.25,1.09,1.82,1.39,2.24,1.19,5.69-1.26,8-2.18,13-5.25,26.29-8.89,40.33-9.52a57.24,57.24,0,0,1,35.31,10.14,52.47,52.47,0,0,1,6.28,5.06c1,.93,1.87,1.95,2.83,2.9,1.71,1.66,1.39,0,3.13.52.78.21,2.26,2.82,2.8,3.46q1.44,1.71,2.93,3.38c2.25,2.5,4.6,4.91,7,7.24A153.19,153.19,0,0,0,393.81,644c2.69,2,5.48,3.85,8.3,5.66,3.07,2,4.53,2,7.8.17,5.82-3.19,11.25-7.27,16.71-11,1.85-1.27,6.8-3.23,3.52-5.17a43.39,43.39,0,0,0-9.08-3.6,38.2,38.2,0,0,0-7.83-1.67c-3.22-.3-4.2-1.51-6.21-3.95-3.83-4.65-7.75-9.39-10.16-15a7.92,7.92,0,0,1-.81-2.1c0-.07.85-.37.9-.58.3-1.36-.33-3-.59-4.32q-1-5.32-2.09-10.65A431.55,431.55,0,0,0,458,601.83c10.49.9,21,1.36,31.52,1.9,3.85.19,9.53,1.63,12.74-1.13C505,600.21,504.7,596,502.84,593.2ZM158.78,526.46a34.46,34.46,0,0,1-41.55-.07c7.9,0,14.85-4.31,22.46-5.77a21.12,21.12,0,0,1,11.12.67C151.61,521.58,159.3,526.07,158.78,526.46Zm284.16-43.75c5.09,10.59,5,22.66,2.78,34q-10.34-11.19-21.5-21.58c-1.49-1.38-4.44-3.09-5.32-4.84s-.73-5.46-1.24-7.53a53.47,53.47,0,0,0-5.22-13.15,100.24,100.24,0,0,0,10.34-1.66c1.52-.33,3.63-1.33,5.13-1.29,1.35,0,2.6,1.39,3.72,2.31A42,42,0,0,1,442.94,482.71Zm2.48-116.23c6.41,1.7,10.15,5.62,9.67,12.33-.22,3.11-.38,6,.93,8.89a42.77,42.77,0,0,0,4.42,6.95c3.08,4.39,5.54,9,3.67,14.44s-6.53,9.42-11.25,12.45C441,429.14,427.21,434,413.55,437c-3.44.76-7,1.72-10.53,1.64a87.43,87.43,0,0,1-10.81-1.22,223.8,223.8,0,0,1-22-4.42c-13.81-3.5-27.55-8.12-40.05-15.06-2.91-1.62-5.75-3.36-8.49-5.26s-5.4-3.48-6.87-6.44c-2.38-4.81-1.19-12.51-4.95-16.52-2.09-2.22-4.36-.64-5,1.89s.21,5,1.14,7.17c2.27,5.33,6.56,9.48,11.08,13,11.44,8.78,25,14.62,38.67,19.07a219.39,219.39,0,0,0,23.94,6.28c7.85,1.61,16.44,3.69,24.5,3.38s16.89-3.07,24.62-5.68A116.43,116.43,0,0,0,451.07,425c-.07,1.26,1.27,3.48,1.64,4.67a33.94,33.94,0,0,1,1.07,4.34,23.4,23.4,0,0,1-.56,11c-1.91,6-6.59,10.44-11.81,13.63-11.69,7.15-26.41,9.38-39.89,9.72-7,.18-13.61-1.11-20.46-2.14-7.59-1.15-15.19-2.25-22.77-3.49-14-2.31-28.05-5-40.9-11.27-11.95-5.87-20.35-19.22-26.19-30.76-3-6-6.17-13.11-4.63-19.87,1.38-6,5.12-10.5,9.76-14.38,10-8.36,17.73-19.37,30-24.7,6.12-2.65,13.18-3.81,19.7-1.94,6.36,1.84,11.24,6.58,15.73,11.21,2.59,2.67,5.22,5.28,9,5.87,3.36.52,7,.09,10.37,0a140.15,140.15,0,0,1,25.23,1.53c3.54.58,7.19,1.24,10.68,0s6.39-4.4,9.23-6.85a24.73,24.73,0,0,1,8.38-5.22C438.58,365.14,441.65,366.46,445.42,366.48Zm11.4-30.17c3.84-.08,7.68-.34,11.51-.23,2.29.07,6.95,0,8.7,1.77,1.49,1.55-1.74,3.7-3,4.88a73.85,73.85,0,0,1-8.48,6.57c-2.76,1.86-5,3.61-8.35,2.48a25.33,25.33,0,0,1-7.83-4.36,44.17,44.17,0,0,1-5.93-6,13.94,13.94,0,0,1-2.4-3c-.48-1.28-.26-3.26-.37-4.62C445.46,336.62,451.43,336.42,456.82,336.31Zm-30.14-50.18c11-2.93,19.42-11.18,23.77-21.55,2.33-5.53,3.39-11.45,4.24-17.37.44-3,.82-6,1.32-9,.55-3.26,2.05-5.77,3.78-8.56a28.94,28.94,0,0,0-1.31,11c0-2,1.34-3.65,2.08-5.39a42.43,42.43,0,0,0,2-6.63c.69,2,.12,4.18.07,6.22-.06,2.4.72,4.72.67,7.11.18-2.48,2-4.48,2.19-6.94a14,14,0,0,1,.64,3.52c.44-1.6,1.25-3.05,1.83-4.59a35,35,0,0,0,1.18-5.35c-.58,10.23.63,20.49,2.55,30.53,2,10.38,4.85,20.87,3.74,31.52-2,18.94-17.75,32.63-35.28,37.67-1.39-13.07-4.6-26.56-13.52-36.66,10.65-4.08,20.58-11.4,24.33-22.62a36.64,36.64,0,0,1-10.78,13.64,49.55,49.55,0,0,1-9,5.54c-1.3.64-2.62,1.22-4,1.76-1.51.62-1.5.63-2.64-.48a35.76,35.76,0,0,0-2.71-2.38A32.06,32.06,0,0,0,426.68,286.13Zm-140.1,25.61a46.5,46.5,0,0,1-22.5-45.38c1.24-10,5.46-19.3,9.44-28.47,4.27-9.83,7.34-19.95,10.43-30.17.63,6.87-.58,13.72-1.62,20.49,2.36-6.46,6.65-12.27,7.34-19.28.53,3.48,0,7.06.66,10.53a50.23,50.23,0,0,1,2.44-5.88c1.82,4.49,1.29,8.89,1,13.59a90.56,90.56,0,0,0,0,15.36,35.94,35.94,0,0,0,12.49,24.15,43.12,43.12,0,0,0,12.09,7c4,1.56,5.76,1.5,6.87,5.92,2.38,9.42-3.89,20.19-9.58,27.25A24.22,24.22,0,0,1,303,315.37C297,316.94,291.73,314.79,286.58,311.74Zm-32.4,1a9.8,9.8,0,0,1,12.38-1.11,9.57,9.57,0,0,1,3.81,4.66,8.53,8.53,0,0,1,.49,3.28c-.1,2.22-.33,2.51-2.59,2.53,2.59-4.42-2.7-9.33-7-9.29-6.32.05-8.09,9.6-3.4,12.94,1.38,1,5.27,2,2.73,4.47-1.73,1.71-4.9-.49-6.19-1.8C250.34,324.27,250.09,316.89,254.18,312.7Zm13.21,9.36c-1.84,0-3.69.05-5.53.14-1,0-2,.1-3,.19-1.18.1-1.39.4-1.93-.46-1-1.53.52-5.23,1.59-6.37C262.74,311,268.21,317.51,267.39,322.06Zm1.39,65.75c3-12.06,9.87-22.27,16.38-32.64a125.55,125.55,0,0,0,9.27-16.91,56.06,56.06,0,0,0,2.94-8.52c.35-1.4,2-6.31,1.11-7.65s-2.32,3.57-2.87,4.4a83.83,83.83,0,0,1-5.53,7.44,39.91,39.91,0,0,1-13.4,10.52c-2.59,1.22-4.43,1.83-7.12.71a58,58,0,0,1-8.79-5c-2.57-1.65-5-3.42-7.46-5.28-1.88-1.45-4.7-3.12-5.77-5.32-.57-1.17-.67-.62,0-1.56a5.63,5.63,0,0,1,1.45-1c1.49-.87,1.47-1.12,2.44-.12,2,2.06,3.07,4.2,6.15,5,2.29.58,4.86-.08,5-2.86a3.91,3.91,0,0,0-1.86-3.44c-.3-.24,0-.44-.5-.73-.67-.38-1.44.24-2.18-.44,8.18-.94,16.49.11,24.63-1.28a25.54,25.54,0,0,0,10.42-3.91c.95-.66,1.57-1.47,2.63-1.59s2.29.28,3.37.26a19.8,19.8,0,0,0,6.63-1.31c7.86-2.93,13.36-10.08,17.29-17.21,3.53-6.41,7.52-17.58,2.53-24.34,7.32-.83,8.46-9.15,4.59-14.14-3.47-4.46-9.37-6.59-14.65-7.92a151.77,151.77,0,0,0,25.72-2c7.9-1.32,15.59-3.49,23.38-5.27,14.75-3.37,30-4.06,42.87,5.24,5.44,3.95,10.45,9.73,12.19,16.35a12.62,12.62,0,0,1-.86,9.42,12.4,12.4,0,0,1-2.9,3.51c-.81.68-3.37,1.53-3.58,2.46-.26,1.2,5,3.46,6,4.16a37.16,37.16,0,0,1,7.72,6.94,50.89,50.89,0,0,1,9.39,18.57c2.5,8.69,3.14,17.78,3.79,26.76.58,8.06.16,17.65,4.13,24.94-8.48-1.5-14.36,2.44-20.39,7.86-2.28,2.05-4.67,4.23-7.73,5-3.86.95-8-.49-11.81-1.09-8.33-1.32-16.95-1.2-25.35-.74-2.94.16-6.1.45-8.9-.64-3.06-1.19-5.54-4.21-7.86-6.43-5.19-5-10.59-9.56-17.93-10.67-7.19-1.08-14.58,1-20.92,4.32-6.77,3.59-12.19,9-17.47,14.43-4.78,4.93-10.52,9.22-14.92,14.46C278,405,290.45,423.73,299,436.41c-9.24-3.31-16.79-10.32-22.54-18.1a50.16,50.16,0,0,1-7.5-13.95C267.09,398.68,267.35,393.57,268.78,387.81ZM177.16,445.2q-5.79-7.74-11.24-15.72c-.85-1.24-4.39-5-3.51-6.6.8-1.46,4.29-1.38,5.66-1.59l9.32-1.45c2.23-.34,5.7-.23,6.69-2.75.91-2.29-1.08-5.45-1.91-7.53-1.12-2.85-2.19-5.72-3.37-8.55-.52-1.26-2.1-3.57-1.08-4.88,1.14-1.47,5.06-.35,6.64-.24q9.63.66,19.23,1.73c13.38,1.49,26.7,3.61,39.88,6.38q10.82,2.28,21.51,5.15a18.54,18.54,0,0,1,2.37.65c1.58.68,1.37.77,2.19,2.32s1.64,2.91,2.54,4.32a69.71,69.71,0,0,0,6.58,8.63c-6.41-1-13-.26-19.39.59a92.43,92.43,0,0,0-18.31,4,53.43,53.43,0,0,0-16,9q-1.71,1.36-3.31,2.83c-1.64,1.51-1.94.58-3.68-.67q-3.8-2.74-7.55-5.54c-5.63-4.19-11.24-8.46-16.61-13-.62-.53-2.82-2.2-2.05,0,.27.78,2.19,1.86,2.8,2.36,8,6.63,16.45,12.84,24.92,18.9a74.58,74.58,0,0,0-18.45,30.76Q188.46,460.32,177.16,445.2ZM219.9,494a34.17,34.17,0,0,0-2.92,2.72c-.76.79-1.62,2.38-2.5,2.91-1.2.72-3.71-.45-5.17-.93a38.08,38.08,0,0,1-6.24-2.65,8.83,8.83,0,0,1-2.71-1.72c-.7-1-.24-3.43-.12-4.79A72.55,72.55,0,0,1,211,457.84a66.29,66.29,0,0,1,22.73-22.34c9.67-5.61,21.43-7.43,32.42-8.47,4.46-.42,12.16-1.44,15.84,1.5,4.22,3.37,8,6.75,12.95,9.05a36.76,36.76,0,0,0,3.8,1.53c.48.17,1,.3,1.46.47,1.44.5.53-.12,1.6.75,2,1.68,3.57,4.48,5.48,6.37A42.63,42.63,0,0,0,321,455.44c10.32,4.41,21.38,6.72,32.4,8.56,12.16,2,24.38,3.8,36.56,5.68a64.06,64.06,0,0,0,10,.73c1.61,0,3.21-.07,4.82-.16.95-.06,4.64-.91,5.38-.43,1.58,1,2.85,5.61,3.52,7.31a50.39,50.39,0,0,1,2.65,9,35.89,35.89,0,0,1-.87,18.68c-2.1,6.05-6.15,11.54-9.92,16.65,2.5-10.15.31-20.77-8.92-26.64-10.19-6.47-24.06-8.52-35.9-8.78a94.2,94.2,0,0,0-66.81,26,85.63,85.63,0,0,0-21.95,34.16c-1.21-.57-2.42-1.14-3.62-1.73-.52-.26-1-.51-1.54-.78q-1.66-.24-.75-1.65c-.15-2.07.91-4.69,1.19-6.8.67-5.11.91-10.26,1.25-15.39.57-8.55,1.57-18.3-4-25.54C254.27,481.16,231.22,484.5,219.9,494Zm184.78,28.63c-6.76,9.06-14.36,17.92-18.61,28.53-.47,1.19-.9,2.4-1.27,3.63-.49,1.64-.52,2.12-2.12,2.78a87.47,87.47,0,0,1-8.47,3,96.58,96.58,0,0,1-16.94,3.28c-22.87,2.39-46.21-2.41-67.65-10.18q-3.87-1.41-7.69-3c-1.27-.52-2.53-1.05-3.79-1.59s-4.08-1.25-4.83-2.15c-.94-1.13,1.17-4.63,1.88-6.23,1.05-2.38,2.19-4.73,3.43-7A86.41,86.41,0,0,1,299.74,508a94.05,94.05,0,0,1,58.38-21.33c11.53-.15,23.51,1.76,34.06,6.55,4.87,2.22,9.43,5.47,11.81,10.41C406.83,509.53,406.43,516.43,404.68,522.58Zm-163.42-9.34q-10.15-8.5-19.7-17.7c9.62-7.94,26.07-10.82,37-3.71,5.69,3.7,7.84,10,8.18,16.49.4,7.73-.5,15.83-1.29,23.51Q253,523,241.26,513.24ZM241,547.07c-7.4-.74-14.68,1.07-22,1.59a37.41,37.41,0,0,1-20-4.27c-11.88-6.17-24-18.62-38.59-16.11.5-.79.45-1.44,1.15-1.84s2.4-.35,3.29-.38a23.42,23.42,0,0,1,5.54.49,42.32,42.32,0,0,1,11.53,4.57c7.72,4.19,14.75,9.59,23.2,12.32,10,3.22,19.13,1.55,29.2,0a36.18,36.18,0,0,1,13.68.23,30.68,30.68,0,0,1,6.32,2.18c1.39.66,4.57,3.49,5.93,3.45-.51,1.36-1,2.7-1.59,4A37.53,37.53,0,0,0,241,547.07Zm-11.62,72.52A32,32,0,0,1,225,621c-.93.11-.2.26-1.08-.07a24.92,24.92,0,0,1-3.17-2.15,81.21,81.21,0,0,0-16-6.93c1-5.21,9.76-8.42,13.84-10.25a156.48,156.48,0,0,0,17.79-8.94c1-.64,2.1-1.26,3.09-2a12,12,0,0,1,1.45-1.15c1-.45.21-.43,1.16-.2,1.22.3,3,2.53,4.1,3.37,1.24,1,2.5,1.92,3.76,2.86,5.62,4.16,11.41,8.11,17,12.26C254.79,612.64,242,616,229.41,619.59Zm178.22,8.15c1.48,1.62,1.83,1.57,1,3.43a30.35,30.35,0,0,0-1.5,4,44.49,44.49,0,0,0-1.74,14.33c-13.94-9.29-26.65-19.59-37.2-32.75l13.09-4.46,7.14-2.43c1.43-.49,5.29-2.33,6.12-1.54,1,1,1.63,3.89,2.35,5.22a51.13,51.13,0,0,0,3.1,4.9A97.25,97.25,0,0,0,407.63,627.74Zm-12.72-22.22L376,612l-9.48,3.23c-1.75.6-1.7.29-3-1q-1.27-1.32-2.64-2.55c-8.35-7.51-19.67-13.13-30.84-14.63,4.9-.88,10.7-1.61,14.93-4.45.65-.43,1.84-1.07,1-2-.71-.74-2.06.55-2.71.89a32.94,32.94,0,0,1-8,2.7c-11.85,2.7-24,2.27-35.82,5.08a143.12,143.12,0,0,0-17.63,5.57q-4.2,1.59-8.35,3.29c-2.08.86-2.27.2-4-1.12-1.42-1.07-2.86-2.13-4.3-3.18-5.13-3.73-10.34-7.34-15.38-11.2-2.39-1.82-5.31-3.66-7.24-6-1.06-1.27-.8-.49-.18-1.75s2.26-2.61,3.15-3.78a118.82,118.82,0,0,0,18.73-36.7A186.2,186.2,0,0,0,325,564.59c19.93,3,42.1,2.37,60.68-6.25Q390.29,581.92,394.91,605.52ZM502.48,599c-1.55,5.16-9.79,3.1-13.64,2.9-6.44-.34-12.89-.67-19.32-1.12-13-.9-26.08-2.15-39-4-6.49-.93-12.95-2-19.38-3.24-3.16-.61-6.32-1.27-9.46-2-1.3-.28-2.59-.58-3.88-.88l-2.22-.52c-1.59-.38-1.37-.32-1.9-1.63-1.18-2.9-1.32-6.73-1.92-9.81l-1.92-9.82-1.92-9.8a9.26,9.26,0,0,0-.36-1.83c0-.1-.69-1.28-.69-1.22-.17-1.17.63-3,1.16-4.38s1.17-2.78,1.83-4.13c1-1.94.92-2.07,2.85-1.07l7.31,3.77q7.53,3.87,15.1,7.69,16,8.09,32.12,15.93,17.31,8.43,34.74,16.63c.86.4,6.37,3.74,6.58,2.07.15-1.21-7-3.76-8.25-4.35q-8.8-4.15-17.6-8.37-35.85-17.19-71.14-35.49c5.07-8.91,11.89-16.69,17.87-25s10-16.2,9.64-26.59a407.19,407.19,0,0,1,46.12,49.37q10.49,13.26,19.91,27.29c3.39,5,6.67,10.1,10,15.17q2.35,3.58,4.7,7.17C501.14,593.88,503.29,596.31,502.48,599Z" transform="translate(-73.95 -129.4)"/><path class="cls-12" d="M356.2,389.05c-1.8-5.93-5.59-11.34-9.69-15.89a25.93,25.93,0,0,0-7.28-5.86c-3.19-1.61-4.63.64-4.9,3.8-.49,5.8,1.55,10.62,6.79,13.36,3,1.56,6.13,2.64,9,4.4C351.22,389.51,357.45,393.18,356.2,389.05Z" transform="translate(-73.95 -129.4)"/><path class="cls-12" d="M431.5,390.82c-1,3.16,3.44,1,4.45.38a77.52,77.52,0,0,1,7.91-3.92c5-2.34,7.32-6.57,6.81-12.13-.68-7.54-7.71-1.32-10.39,1.57C436.55,380.71,433.12,385.56,431.5,390.82Z" transform="translate(-73.95 -129.4)"/><path class="cls-12" d="M341.22,356c7.35,1.32,18,3.7,23.57-2.77,2.65-3.07,3.6-7.09,3.93-11,.26-3.16,1.2-8.21-1.82-10.27-1.45-1-3.43-1.34-5-2.2a39.08,39.08,0,0,1-5-3.51c-3.06-2.42-6.41-5.37-10.26-6.38-2.18-.57-4.18-.05-6.35.25-.78.1-4.31-.3-4.08.53.34,1.17,5.23.33,6,.29a9.59,9.59,0,0,1,5.29,1c-7.87,3.12-14.64,8.76-17.62,16.8-1.6,4.33-.19,7.24,2.46,10.74C334.57,352.35,337.45,355.33,341.22,356Zm-9.58-16.57a32,32,0,0,1,7.95-11.56,17,17,0,0,1,5.09-3.24c1-.4,1.95-.67,2.93-1,1.43-.49,1.45-.57,2.74,0,2.22.95,4.37,3.28,6.28,4.72a39.66,39.66,0,0,0,6.05,4c1.69.85,3.52,1.08,4.08,3.09s.07,5.21-.16,7.39c-.42,4.11-1.67,8.77-5.24,11.28-3.79,2.65-8.7,1.59-13,1.1-4.77-.56-8.74-.61-12.32-4.18C332.91,347.8,329.88,344.05,331.64,339.43Z" transform="translate(-73.95 -129.4)"/><path class="cls-12" d="M407.26,354.59c.17,4.87,2.89,10,7.53,11.89,5.29,2.19,11.8-.43,16.35-3.28,10.94-6.86,6.42-20.55-.95-28.31a6.26,6.26,0,0,1,3.44-.74c.79.1,2.08,1.25,2.59,1.21,2-.16-1.6-2.07-2.37-2.2-3.93-.61-7.89,2.54-11.31,4a21.93,21.93,0,0,1-6.17,1.6c-2.12.27-3.81.36-5.12,2.21A24,24,0,0,0,407.26,354.59Zm2.26-2.82c.43-2.81,1.74-7.43,3.93-9.48,1.34-1.26,3.2-1.33,4.92-1.72a26.58,26.58,0,0,0,5.68-2.05c1.13-.56,3.81-2.88,4.69-2.57,1.21.42,2.65,3.2,3.35,4.26a21.87,21.87,0,0,1,4,10.51c.5,8.12-6.95,12.81-14.07,14.3C413.69,366.76,408.32,359.64,409.52,351.77Z" transform="translate(-73.95 -129.4)"/><path class="cls-12" d="M352.31,350.76c2.6-.25,4.56.1,6.88-1.58a8.88,8.88,0,0,0,3.68-6.61c.27-5.27-4-9.26-8.89-10.31s-9.67,4.05-10.06,8.67C343.5,346,346.57,351.3,352.31,350.76Zm-3.57-8.87c.5-2.38,1.89-6.34,5.07-5.63,2.49.57,3.13,3.75,2.7,5.87-.36,1.79-1.52,3.85-3.44,4.29A3.67,3.67,0,0,1,348.74,341.89Z" transform="translate(-73.95 -129.4)"/><path class="cls-12" d="M421.93,358.38c9.86,2.82,12.25-13.52,2.31-15.5S411.55,358.64,421.93,358.38Zm.63-11.83c4-1,3.92,5.54,1.48,7.26a2.77,2.77,0,0,1-4.18-.95C418.9,350.86,420.71,347.54,422.56,346.55Z" transform="translate(-73.95 -129.4)"/><path class="cls-12" d="M361.24,267.45a30.51,30.51,0,0,0-8.88-3c-.8-.12-8.7-.77-8.69-.34s6.76,1.07,7.51,1.22a31.56,31.56,0,0,1,7.91,2.68,28.25,28.25,0,0,1,7.31,4.79c.57.58,3.55,5.75,3.83,5.67,1.55-.42-2.22-5.86-2.69-6.38A21,21,0,0,0,361.24,267.45Z" transform="translate(-73.95 -129.4)"/><path class="cls-12" d="M342.18,254.69c10.35,5.3,22.26,5.28,33.54,6.58,4.93.57,10.25,1.67,13.59,5.69a9.79,9.79,0,0,1,2.19,7.57c-.13,1.19-1.94,6.44.31,3.56,3.36-4.31.64-11-3-14-3.84-3.15-9-3.94-13.75-4.43C364.42,258.55,351.34,259.38,342.18,254.69Z" transform="translate(-73.95 -129.4)"/><path class="cls-12" d="M368.44,254.29c10.13-1.3,23.42-2.34,32.26,3.91a14.28,14.28,0,0,1,5.91,13.19,17.8,17.8,0,0,1-2.67,7.21c-.4.63-4,4.83-2.43,4.4s4-4.71,4.84-6.15a15.2,15.2,0,0,0,2-7.23A15.67,15.67,0,0,0,401,256.55c-4.72-2.91-10.8-3.74-16.24-4a65.41,65.41,0,0,0-9.39.32c-1.56.16-3.12.36-4.67.59C370.43,253.53,367.75,254.38,368.44,254.29Z" transform="translate(-73.95 -129.4)"/><path class="cls-12" d="M249.63,432.05c-23.84,4.65-42.49,29-45.7,52.4,6-26.44,27.65-52,56.13-53.2A48,48,0,0,0,249.63,432.05Z" transform="translate(-73.95 -129.4)"/><path class="cls-12" d="M229,431.85a26.12,26.12,0,0,0,4.15-1.85A91.59,91.59,0,0,1,244,426a116.7,116.7,0,0,1,24-4.16,63.15,63.15,0,0,0-25.4,3.25,56.8,56.8,0,0,0-10.91,5C231,430.53,229.32,431.78,229,431.85Z" transform="translate(-73.95 -129.4)"/><path class="cls-12" d="M389.83,634.4C384.17,629.53,379.2,624,374,618.71A78.76,78.76,0,0,0,400.1,643C396.72,640.1,393.18,637.35,389.83,634.4Z" transform="translate(-73.95 -129.4)"/><path class="cls-12" d="M300.56,312.82c-4.83-.38-10.09-3.58-14-6.24a43.69,43.69,0,0,1-11-10.55c-6.95-9.66-8.73-21.62-7.94-33.25-1.76,10.36-.64,21.25,4.58,30.48A39.37,39.37,0,0,0,283.79,306C288.29,309.16,294.87,312.94,300.56,312.82Z" transform="translate(-73.95 -129.4)"/><path class="cls-12" d="M355,313.73c2.6,1.83,5.08,3.8,7.53,5.82,1.25,1,4.11,4.36,5.77,4.47,5.16.34,1-8-.47-9.51-3-3.19-8.41-5.85-12.79-5.92C349.25,308.5,352.25,311.82,355,313.73Z" transform="translate(-73.95 -129.4)"/><path class="cls-12" d="M429.13,325.27c-2.55,1.21-5,2.56-7.5,4-1.25.71-4.26,3.2-5.74,3-4.58-.48.37-7.13,1.87-8.27a17.73,17.73,0,0,1,12.13-3.24C434.94,321.56,431.8,324,429.13,325.27Z" transform="translate(-73.95 -129.4)"/><path class="cls-12" d="M454.53,439.93c-1.58,8.2-8.89,13.61-18.28,17.86-.12-1.16.27-2.62.26-4a59.15,59.15,0,0,1-20,10.66c.93-1.72,2.1-3.25,2.56-5.16a37,37,0,0,1-8.59,4.16,8.48,8.48,0,0,0-.89-1.45c-.64-.8-2.06-.86-2.56-1.88s.49-3.45.62-4.6c-.6,0-1.52-.67-2.16-.68.61-2.54,1.05-3.56.56-5.57-.15-.6-1.26-2.66-1.51-3.47s-.1-1.82-.43-2.75a17.68,17.68,0,0,1-.78,4.49c-.49,1.46-1.35.62-1.58,2.2-.12.78.84,1.93.75,2.92-.38,4.07-4.66,3.88-3.6,8.5.25,1.08.59,2,.8,2.87a23,23,0,0,1-6.25-2c.57,1.76,2.06,2.89,3.38,4-6.17-1.27-10.47-2.1-15.67-5.48a34.73,34.73,0,0,0,3.95,4.95c-5.44-.43-8.35-5.59-12.68-7.57.8,2.28,2.7,3.9,3.54,6.15-3.42,3.05-12.81-5.68-16.3-7.5a11.69,11.69,0,0,1,1,3.32c-6.28-.71-13.82-5.22-17.68-10.15.07,1.22.44,2.55.63,3.84-1.45-.66-2.37-1.87-3.76-2.63a9.06,9.06,0,0,1,0,2.44c-3.92-1.36-5.52-5.88-8.86-7.92.49,2.93,3.34,8.42,2.06,11.25-7.71-1.62-13.64-7.08-18.24-13.38.09,1.86.05,4.32,0,6.19-2.4-3.67-5-5.17-8.32-10.58-.42,2.44-.45,2.81,0,4.82-4.95-3.05-9.62-11.77-13-18.73-.13,1.59-1.71,5.35-2.36,6.77-4.23-2.5-15.34-13.91-16.84-16.42.45,9.94,10.79,22.08,15.65,27.31a15.08,15.08,0,0,0,.92-3.94c4.73,7.54,11,16.33,18.68,21.5-.32-2.57-.74-4.35-.46-6.84,4.09,8.19,13.08,12,18.55,14.72a9.61,9.61,0,0,1,.44-4.24c1.48,4.14,12.51,6.61,16.64,7.4-.21-2.06-.9-4.54-.4-6.5,4.53,8.85,11.71,8.67,19.38,12.48a10,10,0,0,0,0-5.57c3.14,5,12.77,6,18.08,7a20.61,20.61,0,0,1-3.24-4.28c7,3.1,17.62,2.87,24.15,7.26-.29-1.08-2.81-5.74-3.17-6.87,1.46.84,8.12,6,9.36,8.22,5.63-5,4.32-6.76,5.63-10,.19,1.23,1.31,4.14.82,5.6,4.73-1.53,11.54-6.7,13.81-12.34a7.61,7.61,0,0,1,.11,4.27c5.86-2.08,10.67-7.36,12.17-9.81.19,1.09.21,1.76.41,2.86C449.35,459.08,457.08,446.76,454.53,439.93Z" transform="translate(-73.95 -129.4)"/><path class="cls-12" d="M394.91,583.53c1.51.4,3,.82,4.5,1.25s3,.79,4.52,1.17c3,.81,6.06,1.43,9.08,2.15s6.08,1.3,9.14,1.84c1.53.27,3.05.61,4.58.86l4.6.79c3.07.51,6.13,1,9.21,1.47s6.16.89,9.24,1.34,6.16.83,9.25,1.21,6.19.75,9.28,1.12c-6.23-.17-12.46-.63-18.66-1.29-1.55-.14-3.1-.34-4.65-.52s-3.1-.38-4.64-.59c-3.09-.41-6.17-.92-9.26-1.4-6.15-1.06-12.27-2.31-18.33-3.81A161.33,161.33,0,0,1,394.91,583.53Z" transform="translate(-73.95 -129.4)"/><path class="cls-13" d="M251,360.2a7.58,7.58,0,0,0-10.76-10.4.53.53,0,0,1-.72-.19c-2.81-6.15-9.75-11.2-16.76-9.36-6.18,1.62-10.47,9.17-7.48,15.1a.56.56,0,0,1-.48.84c-7.9.94-13.78,10.4-10.18,17.79,3.26,6.69,12.66,9,18.71,4.83.53-.36,1.08.32.82.81-2.1,4-.14,9.67,4.26,11.15s9.42-1.67,10.56-6.1a.62.62,0,0,1,1-.27,6.75,6.75,0,0,0,9.33.17,7,7,0,0,0,1.94-3.54c.33-1.61-.29-3.19,0-4.79.66-3.64,4.69-4.33,7.7-5.17a106.17,106.17,0,0,1,26.93-3.68c-11.52-2.14-23-4.66-34.6-6.43A.51.51,0,0,1,251,360.2Z" transform="translate(-73.95 -129.4)"/><path class="cls-13" d="M288.8,368c-10.77.69-21.84,1.88-32.18,5.09-1.29.4-2.76.78-3.58,1.95-1.07,1.51-.39,3.27-.43,4.95a8.15,8.15,0,0,1-2.43,5.49,7.9,7.9,0,0,1-10.34.44c-1.77,4.75-7.41,7.9-12.32,5.85a9.37,9.37,0,0,1-5.11-11c-6.75,3.34-16.11.37-19.12-6.77-3.33-7.87,2.55-17.27,10.66-18.74-2.47-6.08,1.37-13.33,7.42-15.62,7.46-2.82,15.5,2.39,18.78,9a8.58,8.58,0,0,1,12,11.52c12,2.79,24.31,4.78,36.42,7.27h.18A.3.3,0,0,1,288.8,368Zm233.68,1c-1.14,5.36-7.06,8.73-12.26,7.65a6.85,6.85,0,0,1-2.17,8.55c-3.18,2.12-7.51.83-9.59-2.16a5.86,5.86,0,0,1-6.93,1.45,6.11,6.11,0,0,1-2.83-3,12.14,12.14,0,0,1-.49-2.21,3.07,3.07,0,0,0-3.17-2.74c-7.85-.8-16,.19-23.78,1.26-.36.05-.53-.47-.16-.56l.2-.05c8.05-3.63,16.35-6.83,24.28-10.71a6.39,6.39,0,0,1,6.81-10.11c1.37-5.1,6-9.82,11.6-9.26,4.84.49,8.8,5.07,8.15,9.88C518.21,356.87,523.8,362.8,522.48,369Z" transform="translate(-73.95 -129.4)"/><path class="cls-13" d="M511.47,358.13a.56.56,0,0,1-.54-.71c1.16-4.83-3.32-9.55-8.15-9.3s-8.5,4.54-9.51,9.05a.53.53,0,0,1-.65.37,5.36,5.36,0,0,0-5.85,8.73.52.52,0,0,1-.23.86c-7.58,2.81-15,6.26-22.41,9.41a74.79,74.79,0,0,1,18.14-1.47c2.15.1,5.12-.1,6.5,1.91,1.14,1.68.49,3.79,2,5.38a4.66,4.66,0,0,0,7.24-.7.61.61,0,0,1,1.06,0,6,6,0,0,0,7.71,2.83,5.62,5.62,0,0,0,1.7-8.45c-.33-.4,0-1.24.58-1,4.7,1.85,10.77-.82,12.17-5.83C522.87,363.32,517.26,357.64,511.47,358.13Z" transform="translate(-73.95 -129.4)"/><path class="cls-12" d="M512.14,357c.65-4.81-3.31-9.39-8.15-9.88-5.62-.56-10.23,4.16-11.6,9.26a6.39,6.39,0,0,0-6.81,10.11c-7.93,3.88-16.23,7.08-24.28,10.71l-.2.05c-.37.09-.2.61.16.56,7.78-1.07,15.93-2.06,23.78-1.26a3.07,3.07,0,0,1,3.17,2.74,12.14,12.14,0,0,0,.49,2.21,6.11,6.11,0,0,0,2.83,3,5.86,5.86,0,0,0,6.93-1.45c2.08,3,6.41,4.28,9.59,2.16a6.85,6.85,0,0,0,2.17-8.55c5.2,1.08,11.12-2.29,12.26-7.65C523.8,362.8,518.21,356.87,512.14,357Zm9.09,12.24c-1.4,5-7.47,7.68-12.17,5.83-.61-.24-.91.6-.58,1a5.62,5.62,0,0,1-1.7,8.45,6,6,0,0,1-7.71-2.83.61.61,0,0,0-1.06,0,4.66,4.66,0,0,1-7.24.7c-1.51-1.59-.86-3.7-2-5.38-1.38-2-4.35-1.81-6.5-1.91a74.79,74.79,0,0,0-18.14,1.47c7.45-3.15,14.83-6.6,22.41-9.41a.52.52,0,0,0,.23-.86,5.36,5.36,0,0,1,5.85-8.73.53.53,0,0,0,.65-.37c1-4.51,4.62-8.79,9.51-9.05s9.31,4.47,8.15,9.3a.56.56,0,0,0,.54.71C517.26,357.64,522.87,363.32,521.23,369.21Z" transform="translate(-73.95 -129.4)"/><path class="cls-12" d="M288.8,367.38h-.18c-12.11-2.49-24.38-4.48-36.42-7.27a8.58,8.58,0,0,0-12-11.52c-3.28-6.63-11.32-11.84-18.78-9-6.05,2.29-9.89,9.54-7.42,15.62-8.11,1.47-14,10.87-10.66,18.74,3,7.14,12.37,10.11,19.12,6.77a9.37,9.37,0,0,0,5.11,11c4.91,2.05,10.55-1.1,12.32-5.85a7.9,7.9,0,0,0,10.34-.44,8.15,8.15,0,0,0,2.43-5.49c0-1.68-.64-3.44.43-4.95.82-1.17,2.29-1.55,3.58-1.95C267,369.85,278,368.66,288.8,368A.3.3,0,0,0,288.8,367.38Zm-29.87,3.69c-3,.84-7,1.53-7.7,5.17-.29,1.6.33,3.18,0,4.79a7,7,0,0,1-1.94,3.54,6.75,6.75,0,0,1-9.33-.17.62.62,0,0,0-1,.27c-1.14,4.43-6.06,7.62-10.56,6.1s-6.36-7.16-4.26-11.15c.26-.49-.29-1.17-.82-.81-6,4.14-15.45,1.86-18.71-4.83-3.6-7.39,2.28-16.85,10.18-17.79a.56.56,0,0,0,.48-.84c-3-5.93,1.3-13.48,7.48-15.1,7-1.84,13.95,3.21,16.76,9.36a.53.53,0,0,0,.72.19A7.58,7.58,0,0,1,251,360.2a.51.51,0,0,0,.3.76c11.58,1.77,23.08,4.29,34.6,6.43A106.17,106.17,0,0,0,258.93,371.07Z" transform="translate(-73.95 -129.4)"/><path class="cls-14" d="M436.08,308.55c-.38-1.6-.79-3.15-1.28-4.59a20.47,20.47,0,0,0-3.85-6.44A53.71,53.71,0,0,1,436.08,308.55Z" transform="translate(-73.95 -129.4)"/><path class="cls-14" d="M434.73,366.37a24.73,24.73,0,0,0-8.38,5.22c13.08-3.15,11,11.51,8.39,18.5,15,.15,16.68,9.14,17.6,18.58,1.14,11.84-1.86,12.54-11.21,19.25h0c1.81-.84,3.6-1.72,5.35-2.66h0l.05,0c.85-.45,1.69-.92,2.52-1.4l1.08-.64.79-.46,1.92-1.2c.45-.29.91-.6,1.36-.91a34.53,34.53,0,0,0,5.33-4.4l.05-.06a19,19,0,0,0,4.51-7.08c0-.1.06-.2.09-.3a12.69,12.69,0,0,0,.38-1.5c0-.11,0-.22.05-.32.68-4.54-1.51-8.51-4.19-12.32-.73-1-1.48-2-2.19-3.1l-.38-.57A24,24,0,0,1,456,387.7a13.3,13.3,0,0,1-1.08-5.48c0-1.12.07-2.25.15-3.41,0-.42.05-.83.05-1.23,0-6-3.71-9.5-9.72-11.1C441.65,366.46,438.58,365.14,434.73,366.37Z" transform="translate(-73.95 -129.4)"/><path class="cls-14" d="M448.2,453.21h0c.28-.28.55-.58.8-.88l0,0,.72-.88.05-.07c.22-.28.44-.57.64-.86l.09-.13c.19-.27.37-.55.55-.83l.12-.18.47-.81.13-.24c.14-.26.27-.53.4-.79.05-.1.1-.19.14-.29.13-.27.24-.54.35-.82a2.52,2.52,0,0,0,.12-.29c.15-.37.28-.75.41-1.13,0-.13.07-.25.1-.38a23.53,23.53,0,0,0,.46-10.62,33.94,33.94,0,0,0-1.07-4.34l-.11-.33c0-.1-.09-.21-.13-.32-.15-.36-.34-.75-.52-1.16l-.16-.36a7.55,7.55,0,0,1-.71-2.26,2,2,0,0,1,0-.24h0c-.78.46-1.58.91-2.38,1.35l-.39.22c-.68.37-1.38.73-2.08,1.09l-.78.39c-1,.48-1.94.94-2.92,1.39,3.54,3.71,6.67,6.3,7.37,12.57.5,4.47-1.43,7.91-2.31,11.86C447.79,453.64,448,453.43,448.2,453.21Z" transform="translate(-73.95 -129.4)"/><path class="cls-14" d="M343.74,276.12c1.48-1.83,4.77-4.93,4.43-9.31,3.72.58,13.07,2.91,16.44,7.22-.12-3.47-.9-3.15-.83-4.8,6.79.17,17.71,2,21.65,12.35a9.85,9.85,0,0,0,1.3-10.88c2.77,2.77,4.75,6.85,4.34,10.84,5.29-1.38,5.92-8.78,5.16-13.27,4,3,6.83,9.76,6.2,14.77a64,64,0,0,0,4.3-7.27c2,1.86,2.07,5.24,2.13,7.83,28,17.6,26.05,51.64,18.21,85,4.73-3.53,9.73-5.63,16.3-4.47-4-7.29-3.55-16.88-4.13-24.94-.65-9-1.29-18.07-3.79-26.76a50.89,50.89,0,0,0-9.39-18.57,37.16,37.16,0,0,0-7.72-6.94c-1-.7-6.31-3-6-4.16a.94.94,0,0,1,.18-.34l.06-.07.09-.09.08-.08.11-.09.1-.07.11-.09.12-.07.12-.09.13-.07.13-.08.14-.08.14-.07.14-.08.14-.08.16-.08.12-.06.29-.15.09,0,.17-.09.11-.06a.71.71,0,0,0,.15-.08l.11-.05.14-.09.08-.05.14-.08s.05,0,.06-.05l.17-.12a12.4,12.4,0,0,0,2.9-3.51,10.26,10.26,0,0,0,.93-2.26,12.14,12.14,0,0,0,.45-3.55,15.35,15.35,0,0,0-.52-3.61c-1.74-6.62-6.75-12.4-12.19-16.35-12.83-9.3-28.12-8.61-42.87-5.24-7.79,1.78-15.48,3.95-23.38,5.27a151.77,151.77,0,0,1-25.72,2l1,.26C328.66,256.2,341.88,265.4,343.74,276.12Zm-20.55-20.89,1.44.2.23.09Z" transform="translate(-73.95 -129.4)"/><path class="cls-14" d="M323.19,255.23l1.67.29-.23-.09Z" transform="translate(-73.95 -129.4)"/><path class="cls-14" d="M323.19,255.23l1.67.29-.23-.09Z" transform="translate(-73.95 -129.4)"/><path class="cls-15" d="M293.76,242.35h0a66.92,66.92,0,0,1-.32-7.49c0-.64,0-1.28,0-1.92s0-1.24.07-1.85c.06-1.31.13-2.61.22-3.91.28-4.63.8-9-.94-13.42-1.34,28.42-7.47,27.86-3.1,43.79,2.88,10.53,15.72,17.49,33.07,17.95-.13-.08-.25-.16-.39-.23l-.12-.07L322,275l-.12-.06-.42-.18h0l-.51-.2-.08,0-1.18-.43h0l-.58-.22h0l-.69-.27a43.12,43.12,0,0,1-12.09-7,35.94,35.94,0,0,1-12.49-24.15A1.09,1.09,0,0,0,293.76,242.35Z" transform="translate(-73.95 -129.4)"/><path class="cls-15" d="M465.35,235.68c0,.12-.05.23-.07.34l-.06.19-.09.31-.06.19-.11.3a1.34,1.34,0,0,0-.07.18l-.13.33c-.24.56-.49,1.11-.73,1.67l-.22.54-.13.37a.14.14,0,0,0,0,.07,6.85,6.85,0,0,0-.32,1.26.13.13,0,0,0,0,.06s0,.09,0,.13,0,.22,0,.33h0c0-.26,0-.53,0-.79V241c0-.26,0-.51-.07-.77,0,0,0-.09,0-.13,0-.25-.06-.49-.1-.73v-.11c0-.3-.09-.6-.14-.9h0l-.12-.82h0c-.73,16.3,9.51,22.12,12.35,40.67h0c0-.41-.11-.82-.16-1.23l-.15-1.13,0-.08h0c-.14-1-.29-1.91-.46-2.86l-.15-.84c-.12-.68-.25-1.36-.38-2-.06-.33-.12-.67-.19-1l-.36-1.83c-.26-1.29-.52-2.56-.79-3.84h0c0-.08,0-.15,0-.23-.13-.59-.25-1.19-.37-1.78h0c-.07-.38-.14-.76-.22-1.14s-.14-.7-.2-1.05c-.72-3.77-1.34-7.56-1.8-11.37-.16-1.28-.29-2.55-.41-3.82,0-.44-.08-.88-.11-1.32,0-.64-.1-1.29-.14-1.94,0-.19,0-.38,0-.56-.12-1.92-.18-3.84-.19-5.76h0c0-.85,0-1.71,0-2.56,0-.21,0-.42,0-.63,0-.86.06-1.71.1-2.57a35,35,0,0,1-1.18,5.35l-.27.67-.09.22-.21.47c-.05.12-.11.25-.16.38s-.13.29-.19.43-.2.45-.29.67c0,.06-.05.11-.07.17a14,14,0,0,0-.55,1.58c0-.27-.07-.55-.1-.83s-.06-.6-.1-.91c0,0,0-.07,0-.1l-.06-.41a5.27,5.27,0,0,0-.14-.6,4.78,4.78,0,0,0-.22-.67c0,.17,0,.34-.07.51S465.36,235.63,465.35,235.68Z" transform="translate(-73.95 -129.4)"/><path class="cls-16" d="M422.08,287.07l.3.5q1.11.92,2.16,1.92c1.14,1.11,1.13,1.1,2.64.48,1.34-.54,2.66-1.12,4-1.76a49.55,49.55,0,0,0,9-5.54A36.64,36.64,0,0,0,450.93,269c-3.75,11.22-13.68,18.54-24.33,22.62.93,1.05,1.79,2.15,2.6,3.27,20.77-7.15,28.07-28.53,25.16-45.51a64,64,0,0,1-3.91,15.17c-4.35,10.37-12.77,18.62-23.77,21.55A32.91,32.91,0,0,1,422.08,287.07Z" transform="translate(-73.95 -129.4)"/><path class="cls-14" d="M421.83,287.11l.55.46-.3-.5Z" transform="translate(-73.95 -129.4)"/><path class="cls-16" d="M421.83,287.11l.55.46-.3-.5Z" transform="translate(-73.95 -129.4)"/><path class="cls-16" d="M266.78,543.71c.51.27,1,.52,1.54.78,1.2.59,2.41,1.16,3.62,1.73a82.44,82.44,0,0,1,12.52-23.52,56.64,56.64,0,0,0,0-15.34c-2.3-17-6.93-23.66-5.84-41,.63-9.92,9.42-23.1,17.31-28.33l-1-.46a34.77,34.77,0,0,1-4.08-2.26c-3.08-1.25-5.87-3.77-8.29-6.32-.19-.16-.38-.32-.58-.47-3.68-2.94-11.38-1.92-15.84-1.5-11,1-22.75,2.86-32.42,8.47A66.29,66.29,0,0,0,211,457.84a72.55,72.55,0,0,0-10.77,31.65c-.12,1.36-.58,3.74.12,4.79a8.83,8.83,0,0,0,2.71,1.72,38.08,38.08,0,0,0,6.24,2.65c1.46.48,4,1.65,5.17.93.88-.53,1.74-2.12,2.5-2.91A34.17,34.17,0,0,1,219.9,494c11.32-9.45,34.37-12.79,44.55.38,5.59,7.24,4.59,17,4,25.54-.34,5.13-.58,10.28-1.25,15.39-.28,2.11-1.34,4.73-1.19,6.8Q265.12,543.47,266.78,543.71Z" transform="translate(-73.95 -129.4)"/><path class="cls-16" d="M266.75,508.32c-.34-6.51-2.49-12.79-8.18-16.49-10.94-7.11-27.39-4.23-37,3.71q9.54,9.18,19.7,17.7Q253,523,265.46,531.83C266.25,524.15,267.15,516.05,266.75,508.32Z" transform="translate(-73.95 -129.4)"/><path class="cls-16" d="M241.36,585.92c-.15.14-.28.23-.35.21C241.33,586.22,241.39,586.09,241.36,585.92Z" transform="translate(-73.95 -129.4)"/><path class="cls-16" d="M260.24,549.3c-1.36,0-4.54-2.79-5.93-3.45a32.79,32.79,0,0,0-3.14-1.28c-.16,1.57-.33,3.13-.5,4.68a35.19,35.19,0,0,1,8,4.09C259.2,552,259.73,550.66,260.24,549.3Z" transform="translate(-73.95 -129.4)"/><path class="cls-16" d="M201.06,474.33a74.58,74.58,0,0,1,18.45-30.76q-5.23-3.74-10.4-7.58a73.4,73.4,0,0,0-22,22Q193.88,466.34,201.06,474.33Z" transform="translate(-73.95 -129.4)"/><path class="cls-16" d="M221.56,430.05a61.06,61.06,0,0,0-11.2,5.17l.09.07q3.75,2.81,7.55,5.54c1.74,1.25,2,2.18,3.68.67q1.6-1.47,3.31-2.83a53.43,53.43,0,0,1,16-9,82.35,82.35,0,0,1,14.1-3.42C246.71,425.73,236.4,425,221.56,430.05Z" transform="translate(-73.95 -129.4)"/><path class="cls-16" d="M299,436.41c-.85-.55-1.67-1.06-2.48-1.56,0,.19,0,.38,0,.57C297.38,435.78,298.19,436.11,299,436.41Z" transform="translate(-73.95 -129.4)"/><path class="cls-16" d="M274.68,549.64q-5.35-2.46-10.47-5.25a118.82,118.82,0,0,1-18.73,36.7c-.89,1.17-2.51,2.48-3.15,3.78s-.86.53.09,1.64c8.21-6.66,17.43-15.41,21.1-20.25A153.14,153.14,0,0,0,274.68,549.64Z" transform="translate(-73.95 -129.4)"/><path class="cls-16" d="M275.56,548.08a75.55,75.55,0,0,0,8.58-23.34,86.55,86.55,0,0,0-5.52,8.87c-1.24,2.29-2.38,4.64-3.43,7-.71,1.6-2.82,5.1-1.88,6.23A6.07,6.07,0,0,0,275.56,548.08Z" transform="translate(-73.95 -129.4)"/><path class="cls-14" d="M150.81,521.29a21.12,21.12,0,0,0-11.12-.67,52.74,52.74,0,0,0-7.17,2c7.22-.92,12,2.68,16.18,7.13a4.86,4.86,0,0,1,1,1.56,33.79,33.79,0,0,0,9-4.89C159.3,526.07,151.61,521.58,150.81,521.29Z" transform="translate(-73.95 -129.4)"/><path class="cls-16" d="M438.5,509.06c3.41-11.48.43-30.37-5.5-38.95-.45-.4-.91-.79-1.37-1.18-1.12-.92-2.37-2.27-3.72-2.31-1.5,0-3.61,1-5.13,1.29a100.24,100.24,0,0,1-10.34,1.66,53.47,53.47,0,0,1,5.22,13.15c.51,2.07.33,5.7,1.24,7.53s3.83,3.46,5.32,4.84Q431.54,501.89,438.5,509.06Z" transform="translate(-73.95 -129.4)"/><path class="cls-16" d="M286.58,311.74c5.15,3.05,10.37,5.2,16.41,3.63a21.52,21.52,0,0,0,6.95-3.21C283.68,297,278.36,282.09,276.47,263c-1.35-13.58,3.77-25.92,7.42-38.54-.57,1.22-1.1,2.46-1.56,3.71,1-6.77,2.25-13.62,1.62-20.49-3.09,10.22-6.16,20.34-10.43,30.17-4,9.17-8.2,18.45-9.44,28.47A46.5,46.5,0,0,0,286.58,311.74Z" transform="translate(-73.95 -129.4)"/><path class="cls-16" d="M276.68,344.45a39.91,39.91,0,0,0,13.4-10.52,83.83,83.83,0,0,0,5.53-7.44c.55-.83,2-5.71,2.87-4.4s-.76,6.25-1.11,7.65a56.06,56.06,0,0,1-2.94,8.52,125.55,125.55,0,0,1-9.27,16.91c-6.51,10.37-13.4,20.58-16.38,32.64-1.43,5.76-1.69,10.87.2,16.55a50.16,50.16,0,0,0,7.5,13.95,60.22,60.22,0,0,0,11.34,11.83,84.78,84.78,0,0,1,8.72,4.71,11.83,11.83,0,0,0-1-3.65c-1.05-1.62-2.09-3.3-3.1-5a76.13,76.13,0,0,1-4.71-6.44c-5.16-8.7-6.49-18.3-5.31-28.15,2-16.39,17.47-27.59,24-42.51,4.31-9.85,5.94-24.56,4-34.85a23.69,23.69,0,0,1-4.7,2.41,19.8,19.8,0,0,1-6.63,1.31c-1.08,0-2.34-.39-3.37-.26s-1.68.93-2.63,1.59a20.21,20.21,0,0,1-4.16,2.2c-4.4,9.94-15.46,15.53-23.58,21.55a36.25,36.25,0,0,0,4.22,2.13C272.25,346.28,274.09,345.67,276.68,344.45Z" transform="translate(-73.95 -129.4)"/><path class="cls-16" d="M290.87,435.32a98.15,98.15,0,0,1-8.29-6.32C285,431.55,287.79,434.07,290.87,435.32Z" transform="translate(-73.95 -129.4)"/><path class="cls-16" d="M290.87,435.32a98.15,98.15,0,0,1-8.29-6.32C285,431.55,287.79,434.07,290.87,435.32Z" transform="translate(-73.95 -129.4)"/><path class="cls-16" d="M296.58,435.42c0-.19,0-.38,0-.57a84.78,84.78,0,0,0-8.72-4.71A41.74,41.74,0,0,0,296.58,435.42Z" transform="translate(-73.95 -129.4)"/><path class="cls-16" d="M296.58,435.42c0-.19,0-.38,0-.57a84.78,84.78,0,0,0-8.72-4.71A41.74,41.74,0,0,0,296.58,435.42Z" transform="translate(-73.95 -129.4)"/><path class="cls-16" d="M260.23,602.93a49.41,49.41,0,0,0-6.63,2.45c-6.12,2.67-13,6.53-17.66,9a55.6,55.6,0,0,0-8.85,6c.81-.3,1.61-.64,2.32-.84,12.63-3.62,25.38-7,37.62-11.77C264.78,606.17,262.51,604.55,260.23,602.93Z" transform="translate(-73.95 -129.4)"/><path class="cls-16" d="M308.1,596.88a110.84,110.84,0,0,0-17.19.37,178.15,178.15,0,0,0-28,5c.74.52,1.47,1,2.2,1.58,1.44,1.05,2.88,2.11,4.3,3.18,1.75,1.32,1.94,2,4,1.12q4.16-1.7,8.35-3.29a143.12,143.12,0,0,1,17.63-5.57,106.32,106.32,0,0,1,13.22-2.11C311.09,596.93,309.46,597,308.1,596.88Z" transform="translate(-73.95 -129.4)"/><path class="cls-16" d="M363.52,614.19c1.26,1.31,1.21,1.62,3,1l4.56-1.55c-1-.63-1.93-1.23-2.87-1.8-3.72-2.28-14-8.12-24.54-11.08a61.85,61.85,0,0,1,17.25,10.86Q362.25,612.87,363.52,614.19Z" transform="translate(-73.95 -129.4)"/><path class="cls-16" d="M408,632.69c-12.61-2.43-24.6-11-34.78-17.63l-5,1.71c10.55,13.16,23.26,23.46,37.2,32.75a44.49,44.49,0,0,1,1.74-14.33C407.36,634.35,407.65,633.51,408,632.69Z" transform="translate(-73.95 -129.4)"/><path class="cls-15" d="M485.08,569.46q-9.43-14-19.91-27.29Q452.3,525.91,437.85,511a1.17,1.17,0,0,1-.05.11c-6.71-6.6-7.82-7.71-11.94-12q-3.37-3.19-6.81-6.31a34.85,34.85,0,0,1-.94,9.29c19.71,16.67,56.63,54.19,76.81,82.3C491.65,579.41,488.41,574.4,485.08,569.46Z" transform="translate(-73.95 -129.4)"/><path class="cls-16" d="M437.8,511.08a1.17,1.17,0,0,0,.05-.11q-5.88-6.06-12-11.86C430,503.37,431.09,504.48,437.8,511.08Z" transform="translate(-73.95 -129.4)"/><path class="cls-15" d="M437.8,511.08a1.17,1.17,0,0,0,.05-.11q-5.88-6.06-12-11.86C430,503.37,431.09,504.48,437.8,511.08Z" transform="translate(-73.95 -129.4)"/><path class="cls-17" d="M177.44,397.71c46,4.14,61.95,9.09,95.1,19.4l-.46-.68c-.9-1.4-1.76-2.83-2.54-4.31s-.61-1.64-2.19-2.32a18.54,18.54,0,0,0-2.37-.65q-10.68-2.88-21.51-5.15c-13.18-2.77-26.5-4.89-39.88-6.38q-9.6-1.08-19.23-1.73c-1.58-.11-5.5-1.23-6.64.24A1.92,1.92,0,0,0,177.44,397.71Z" transform="translate(-73.95 -129.4)"/><path class="cls-14" d="M341.24,390.16c3.17,2.74,16.75,9.56,17.73,1.53.7-5.72-4.51-12.05-8.1-15.67a47.62,47.62,0,0,0-9.66-7.56c-1-.63-2.77.08-3.6-.63l-1.15-.14c-4.14,1-3.52,9.48-2.38,12.65A24.23,24.23,0,0,0,341.24,390.16Z" transform="translate(-73.95 -129.4)"/><path class="cls-12" d="M74,466.37q10.23-.39,20.45-.53c3.41-.06,6.82-.07,10.23-.11l10.23,0,10.22,0c3.41,0,6.82,0,10.23.11q10.23.14,20.46.53-10.23.39-20.46.52c-3.41.07-6.82.08-10.23.12l-10.22,0-10.23,0c-3.41,0-6.82-.05-10.23-.11Q84.17,466.76,74,466.37Z" transform="translate(-73.95 -129.4)"/><path class="cls-12" d="M80.45,482q10.23-.39,20.46-.52c3.4-.07,6.81-.08,10.22-.12l10.23,0,10.23,0c3.41,0,6.82.05,10.23.11q10.22.13,20.45.53-10.23.39-20.45.53c-3.41.06-6.82.07-10.23.11l-10.23,0-10.23,0c-3.41,0-6.82-.05-10.22-.11Q90.68,482.43,80.45,482Z" transform="translate(-73.95 -129.4)"/><path class="cls-12" d="M88.86,497q10.22-.39,20.45-.53c3.41-.06,6.82-.07,10.23-.11l10.23,0,10.22,0c3.41,0,6.82.05,10.23.11q10.23.13,20.46.53-10.23.39-20.46.53c-3.41.06-6.82.07-10.23.11l-10.22,0-10.23,0c-3.41,0-6.82-.05-10.23-.12Q99.08,497.37,88.86,497Z" transform="translate(-73.95 -129.4)"/></g></g></svg>