<svg xmlns="http://www.w3.org/2000/svg" xmlns:xlink="http://www.w3.org/1999/xlink" viewBox="0 0 511.27 531.34"><defs><style>.cls-1{isolation:isolate;}.cls-2{fill:#9fcef0;}.cls-3{fill:url(#Áåçûìÿííûé_ãðàäèåíò_15);}.cls-4{fill:#f1b5cd;}.cls-5{fill:#010101;}.cls-6{fill:#e6d0a1;}.cls-12,.cls-7{fill:#a97d50;}.cls-8{fill:#e6e0d6;}.cls-9{fill:#d1d2d4;}.cls-10{fill:#414142;}.cls-11,.cls-13{fill:#f7f2e5;mix-blend-mode:soft-light;}.cls-12{opacity:0.35;mix-blend-mode:multiply;}.cls-13{opacity:0.6;}</style><radialGradient id="Áåçûìÿííûé_ãðàäèåíò_15" cx="303.88" cy="367.4" fy="472.1548023569629" r="204.27" gradientUnits="userSpaceOnUse"><stop offset="0" stop-color="#fff"/><stop offset="1" stop-color="#f8c6de"/></radialGradient></defs><title>bull_05</title><g class="cls-1"><g id="Layer_1" data-name="Layer 1"><path class="cls-2" d="M422,135.63c-24.22-9.38-54.55-7.95-77.81,2.8C317,151,302.54,167.61,288.33,193.9c-25.89,47.89-45.8,48.48-94.56,67s-81.84,32.44-102.36,91.29c-13.85,39.71,5.14,86.51,43,98,28.24,8.6,53,2.39,80.23,15.88,26.23,13,48,22.25,78.21,20.64,26.48-1.41,37.65-19.23,61.17-27,28.85-9.54,61.37,1,89.65,5.53,42.51,6.83,74.16,2.21,85.92-44.59,8-31.81,10.67-75.78-6.37-104.62-15.68-26.54-53.2-41.4-64.3-69.16-5.91-14.79,1-27.08,2.54-42.1C466.22,159.77,438,141.85,422,135.63Z" transform="translate(-48.24 -129.4)"/><path class="cls-2" d="M479.44,210.36c-38.1,10.29,7.07,90.43,37.53,46.75C530.85,237.21,504.34,203.63,479.44,210.36Z" transform="translate(-48.24 -129.4)"/><path class="cls-2" d="M420.27,417.52c-17.07-7-37.48-7.74-53.49,1.39C354.27,426,345.56,438.6,333,445.71c-11.58,6.59-25.59,8-37,14.89s-19.13,23.67-10,33.34c2.75,2.9,6.54,4.58,10.35,5.81,24.63,8,46,5.35,71.69,9,12.74,1.81,11,1.4,22.76,6.6C427.53,531.55,529.09,461.85,420.27,417.52Z" transform="translate(-48.24 -129.4)"/><path class="cls-3" d="M386.68,526.41c-23.82,0-44.68-5.84-60.31-16.89-8.84-6.24-22.5-21.14-22.5-21.14s-13.63,14.89-22.48,21.14c-15.63,11.05-36.49,16.89-60.32,16.89a193.74,193.74,0,0,1-42.65-5.19c-33.34-7.61-64.4-30.68-84.59-48.7a349.79,349.79,0,0,1-31.14-31.65c14.67-6.37,48.36-19.57,84.73-24l9.53-1.15-4.44-8.51c-21.91-42-28.95-92.2-31-111.81,20,4,72.12,16.37,112.61,44.05l8.54,5.83,1.75-10.19c6.09-35.39,23.26-69.7,36.6-92.26a399.45,399.45,0,0,1,22.83-34.46,399,399,0,0,1,22.84,34.46c13.34,22.56,30.51,56.87,36.6,92.26l1.75,10.19,8.54-5.83c40.55-27.72,92.6-40.09,112.61-44.06-2,19.61-9.06,69.78-31,111.82l-4.44,8.51,9.53,1.15c36.37,4.41,70.06,17.61,84.73,24a349.79,349.79,0,0,1-31.14,31.65c-20.19,18-51.25,41.09-84.59,48.7a193.73,193.73,0,0,1-42.64,5.19Z" transform="translate(-48.24 -129.4)"/><path class="cls-4" d="M556.81,436.26c-2.85-1.4-5.66-2.64-8.51-3.88s-5.71-2.41-8.58-3.56q-8.62-3.45-17.42-6.43a329.83,329.83,0,0,0-35.76-10.05c-7.31-1.58-14.68-2.88-22.11-3.85.62-1.23,1.24-2.46,1.84-3.69A272.08,272.08,0,0,0,481,367a357.47,357.47,0,0,0,9.65-39.33q1.88-10,3.24-20,.67-5,1.22-10.06c.36-3.37.68-6.71.89-10.15l.19-3-3,.46c-3.41.53-6.7,1.16-10,1.83s-6.61,1.39-9.9,2.16q-9.87,2.28-19.6,5.09a360.61,360.61,0,0,0-38.27,13.27,273.45,273.45,0,0,0-36.25,18.19q-4,2.41-7.87,5c0-.25-.09-.5-.13-.75-.66-3.53-1.45-7-2.28-10.51s-1.8-6.94-2.81-10.37a288.11,288.11,0,0,0-15.41-40,379.67,379.67,0,0,0-20.46-37.62q-5.62-9.12-11.7-17.94-3-4.41-6.21-8.73c-2.13-2.89-4.25-5.73-6.53-8.57l-1.88-2.34L302,196c-2.29,2.84-4.41,5.68-6.53,8.56s-4.18,5.8-6.21,8.74q-6.09,8.82-11.7,17.93a382.08,382.08,0,0,0-20.48,37.63,289.2,289.2,0,0,0-15.4,40,210.38,210.38,0,0,0-5.22,21.64q-3.88-2.6-7.86-5a273.45,273.45,0,0,0-36.25-18.19A360.61,360.61,0,0,0,154.07,294q-9.73-2.81-19.6-5.09-4.93-1.16-9.9-2.16c-3.33-.67-6.62-1.3-10-1.83l-3-.46.19,3c.21,3.44.53,6.78.89,10.15s.77,6.71,1.22,10.06q1.36,10,3.24,20A357.47,357.47,0,0,0,126.76,367a272.08,272.08,0,0,0,14.72,37.8c.6,1.23,1.22,2.46,1.84,3.69-7.43,1-14.8,2.27-22.11,3.85a329.83,329.83,0,0,0-35.76,10.05q-8.79,3-17.42,6.43-4.31,1.73-8.58,3.56c-2.85,1.24-5.66,2.48-8.51,3.88l-2.7,1.32,1.86,2.35c2,2.48,4,4.82,6,7.18s4.1,4.65,6.19,6.93q6.28,6.84,12.91,13.35a329.73,329.73,0,0,0,27.87,24.54A248.22,248.22,0,0,0,134,512.66q4.06,2.28,8.24,4.37c2.78,1.38,5.59,2.72,8.45,4s5.75,2.4,8.68,3.45c1.46.55,2.94,1,4.41,1.54s3,1,4.47,1.38c3,.89,6,1.63,9.07,2.3,1.52.31,3,.65,4.55.94s3,.59,4.57.85c6.1,1.07,12.25,1.92,18.43,2.43,3.09.27,6.19.43,9.29.55s6.21.12,9.31,0c1.55,0,3.1-.12,4.65-.19l2.32-.15c.78-.05,1.55-.11,2.32-.19,3.1-.26,6.18-.66,9.24-1.14A116.85,116.85,0,0,0,260,528.37a97.21,97.21,0,0,0,17-7.51,84.52,84.52,0,0,0,15-10.82,72.18,72.18,0,0,0,6.43-6.66c1-1.18,2-2.39,2.86-3.64a39.34,39.34,0,0,0,2.49-3.88,38,38,0,0,1-2.64,3.77c-.95,1.21-1.95,2.37-3,3.5a72.41,72.41,0,0,1-6.64,6.35,83.73,83.73,0,0,1-15.21,10.17,98.59,98.59,0,0,1-16.92,6.89,114.37,114.37,0,0,1-17.85,3.83c-3,.4-6,.74-9.08.92-.76.07-1.52.11-2.28.14l-2.29.1c-1.52,0-3,.1-4.56.08-3,0-6.1-.08-9.14-.22s-6.08-.4-9.12-.73q-9.09-1-18.09-2.7c-1.5-.28-3-.61-4.48-.91s-3-.67-4.47-1c-3-.7-5.88-1.46-8.78-2.37-1.45-.42-2.88-.93-4.32-1.4s-2.86-1-4.27-1.56c-2.84-1.07-5.64-2.26-8.41-3.5s-5.51-2.56-8.22-3.93-5.38-2.84-8-4.35a244.89,244.89,0,0,1-30.15-20.63A337.41,337.41,0,0,1,78.53,464q-6.51-6.44-12.7-13.21-3.09-3.39-6.08-6.85c-1.31-1.52-2.62-3.07-3.89-4.63,1.82-.84,3.67-1.68,5.52-2.48,2.8-1.22,5.61-2.4,8.45-3.53q8.49-3.44,17.17-6.4a329.13,329.13,0,0,1,35.21-10c7.7-1.74,15.47-3.17,23.29-4.2l.62,1.17c1.64,3,3.31,5.92,5.1,8.8s3.64,5.73,5.61,8.5c1,1.4,2,2.76,3,4.13s2.05,2.71,3.14,4c2.11,2.65,4.37,5.21,6.67,7.7,1.17,1.23,2.31,2.47,3.49,3.68s2.35,2.43,3.55,3.61c4.8,4.77,9.77,9.36,15,13.67,2.6,2.17,5.27,4.24,8,6.28s5.47,4,8.31,5.82c1.4.95,2.85,1.83,4.28,2.74l2.17,1.3c.72.44,1.45.87,2.19,1.28,2.93,1.7,5.94,3.26,9,4.74a125.76,125.76,0,0,0,18.91,7.33,105.38,105.38,0,0,0,19.89,3.89,92.18,92.18,0,0,0,20.2-.28,81.08,81.08,0,0,0,9.91-1.94q2.44-.64,4.82-1.47a43,43,0,0,0,4.55-1.86.22.22,0,0,1,0,.08v-.08l0,0,0,0v.08a.22.22,0,0,1,0-.08,43,43,0,0,0,4.55,1.86q2.37.83,4.82,1.47a81.08,81.08,0,0,0,9.91,1.94,92.18,92.18,0,0,0,20.2.28,105.38,105.38,0,0,0,19.89-3.89,125.76,125.76,0,0,0,18.91-7.33c3-1.48,6.05-3,9-4.74.74-.41,1.47-.84,2.19-1.28l2.17-1.3c1.43-.91,2.88-1.79,4.28-2.74,2.84-1.85,5.58-3.82,8.31-5.82s5.37-4.11,8-6.28c5.21-4.31,10.18-8.9,15-13.67,1.2-1.18,2.37-2.41,3.55-3.61s2.32-2.45,3.49-3.68c2.3-2.49,4.56-5.05,6.67-7.7,1.09-1.31,2.1-2.68,3.14-4s2-2.73,3-4.13c2-2.77,3.82-5.62,5.61-8.5s3.46-5.83,5.1-8.8l.62-1.17c7.82,1,15.59,2.46,23.29,4.2a329.13,329.13,0,0,1,35.21,10q8.67,3,17.17,6.4c2.84,1.13,5.65,2.31,8.45,3.53,1.85.8,3.7,1.64,5.52,2.48-1.27,1.56-2.58,3.11-3.89,4.63q-3,3.46-6.08,6.85-6.18,6.76-12.7,13.21a337.41,337.41,0,0,1-27.38,24.31,244.89,244.89,0,0,1-30.15,20.63q-4,2.26-8,4.35c-2.71,1.37-5.44,2.71-8.22,3.93s-5.57,2.43-8.41,3.5c-1.41.55-2.84,1-4.27,1.56s-2.87,1-4.32,1.4c-2.9.91-5.82,1.67-8.78,2.37-1.49.33-3,.69-4.47,1s-3,.63-4.48.91q-9,1.74-18.09,2.7c-3,.33-6.08.55-9.12.73s-6.09.25-9.14.22c-1.52,0-3-.05-4.56-.08l-2.29-.1c-.76,0-1.52-.07-2.28-.14-3-.18-6.07-.52-9.08-.92a114.37,114.37,0,0,1-17.85-3.83,98.59,98.59,0,0,1-16.92-6.89,83.73,83.73,0,0,1-15.21-10.17,72.41,72.41,0,0,1-6.64-6.35c-1-1.13-2-2.29-3-3.5a38,38,0,0,1-2.64-3.77,39.34,39.34,0,0,0,2.49,3.88c.9,1.25,1.86,2.46,2.86,3.64a72.18,72.18,0,0,0,6.43,6.66,84.52,84.52,0,0,0,15,10.82,97.21,97.21,0,0,0,17,7.51,116.85,116.85,0,0,0,18.08,4.41c3.06.48,6.14.88,9.24,1.14.77.08,1.54.14,2.32.19l2.32.15c1.55.07,3.1.17,4.65.19,3.1.1,6.21,0,9.31,0s6.2-.28,9.29-.55c6.18-.51,12.33-1.36,18.43-2.43,1.53-.26,3.05-.57,4.57-.85s3-.63,4.55-.94c3-.67,6.08-1.41,9.07-2.3,1.5-.42,3-.92,4.47-1.38s3-1,4.41-1.54c2.93-1.05,5.82-2.22,8.68-3.45s5.67-2.58,8.45-4,5.53-2.85,8.24-4.37a248.22,248.22,0,0,0,30.89-20.73,329.73,329.73,0,0,0,27.87-24.54q6.62-6.51,12.91-13.35,3.13-3.42,6.19-6.93c2-2.36,4-4.7,6-7.18l1.86-2.35ZM372.93,334.45q4.17-2.73,8.45-5.29a266.89,266.89,0,0,1,35.8-17.59,360.93,360.93,0,0,1,37.81-13q9.61-2.74,19.38-5,4.86-1.11,9.77-2.1c2.25-.44,4.53-.87,6.78-1.27-.18,2.29-.39,4.59-.63,6.87-.34,3.31-.74,6.62-1.18,9.93Q487.81,317,486,326.79a366.58,366.58,0,0,1-9.39,38.87A267.11,267.11,0,0,1,462.41,403q-1.2,2.52-2.46,5-5.1-.56-10.23-.89a163.53,163.53,0,0,0-37.24,1.6c-3.08.49-6.14,1.14-9.17,1.86-1.5.38-3,.73-4.51,1.12s-3,.79-4.48,1.22c-6,1.68-11.88,3.58-17.67,5.8-2.9,1.09-5.76,2.3-8.61,3.54-.89.4-1.79.81-2.68,1.23l.21-.7c.25-.86.52-1.72.77-2.58.47-1.72,1-3.44,1.39-5.18.9-3.46,1.64-7,2.35-10.47s1.27-7,1.75-10.58c1-7.08,1.62-14.21,2-21.35.1-1.79.14-3.57.21-5.36s.06-3.57.1-5.35c0-3.59,0-7.19-.27-10.78-.09-1.79-.27-3.58-.41-5.37s-.35-3.58-.6-5.35-.47-3.56-.76-5.34Zm-69,161.17v.12l0,0-.05,0v-.12h0a42.19,42.19,0,0,0-.55-4.34c-.27-1.51-.61-3-1-4.51a73.49,73.49,0,0,0-2.9-8.79c-.82-2-1.73-4-2.71-6a92.88,92.88,0,0,1-.76-15.18,107.19,107.19,0,0,1,2.52-19.79,123.11,123.11,0,0,1,5.45-17.8,124.34,124.34,0,0,1,5.44,17.8,107.19,107.19,0,0,1,2.52,19.79,92.88,92.88,0,0,1-.76,15.18c-1,2-1.89,3.93-2.71,6a73.49,73.49,0,0,0-2.9,8.79c-.39,1.49-.73,3-1,4.51a42.19,42.19,0,0,0-.55,4.34h0ZM245.51,424.5c-.27-.84-.51-1.69-.74-2.53s-.48-1.7-.71-2.55c-.43-1.71-.89-3.4-1.27-5.12-.82-3.43-1.48-6.89-2.11-10.35s-1.12-7-1.53-10.46q-1.28-10.49-1.64-21.07c-.07-1.76-.08-3.52-.13-5.29s0-3.52,0-5.29c0-3.51.12-7,.4-10.5.1-1.75.3-3.49.46-5.24s.39-3.48.66-5.22c.15-1.11.31-2.22.49-3.32q1.83,1.28,3.61,2.59c2.66,2,5.29,4,7.83,6.13,1.29,1,2.52,2.15,3.78,3.23s2.47,2.2,3.66,3.36c2.42,2.26,4.71,4.64,7,7.08,1.11,1.23,2.25,2.45,3.35,3.71s2.2,2.5,3.27,3.77q6.48,7.62,12.27,15.76c1.95,2.7,3.78,5.48,5.59,8.27s3.51,5.66,5.11,8.57c.83,1.45,1.59,2.93,2.38,4.39l1.12,2.23c.38.74.75,1.48,1.1,2.24,1.12,2.31,2.15,4.65,3.13,7-.15.41-.31.83-.47,1.24-1.19,3.17-2.22,6.39-3.15,9.65s-1.74,6.54-2.38,9.87a105.77,105.77,0,0,0-2,20.16,93.59,93.59,0,0,0,.86,12.74,87.07,87.07,0,0,0-4.87-7.86,96.74,96.74,0,0,0-12.05-14.14,115.47,115.47,0,0,0-14.38-11.81c-2.55-1.76-5.15-3.47-7.83-5-.66-.41-1.33-.79-2-1.18l-2-1.14c-1.37-.74-2.73-1.49-4.12-2.19-.81-.42-1.63-.83-2.45-1.23C245.6,424.82,245.55,424.66,245.51,424.5Zm5.4,6.33,2,1.08c.67.36,1.34.72,2,1.11,2.65,1.48,5.24,3.1,7.78,4.77A114.76,114.76,0,0,1,277.13,449a98.38,98.38,0,0,1,12.25,13.54,86.5,86.5,0,0,1,6.46,10c.25,1.47.53,2.92.85,4.37a79.05,79.05,0,0,0,2.86,9.68q.87,2.37,1.92,4.67a43,43,0,0,0,2.25,4.31,43.78,43.78,0,0,1-4.77-1.95c-1.6-.75-3.18-1.57-4.72-2.44a85.66,85.66,0,0,1-8.86-5.83A96.45,96.45,0,0,1,270,470.87a113.13,113.13,0,0,1-12.14-17.26,131.27,131.27,0,0,1-8.94-19.11q-1.07-2.83-2-5.71C248.23,429.44,249.56,430.14,250.91,430.83Zm50.73,60.36c-.64-1.55-1.21-3.12-1.73-4.71a79.53,79.53,0,0,1-2.47-9.72c-.11-.58-.22-1.17-.32-1.76.55,1.08,1.07,2.17,1.56,3.28a72.15,72.15,0,0,1,3.24,8.59c.44,1.47.84,2.95,1.17,4.45a41.77,41.77,0,0,1,.73,4.29l-.09,0A44.26,44.26,0,0,1,301.64,491.19Zm3,.13c.33-1.5.73-3,1.17-4.45a72.15,72.15,0,0,1,3.24-8.59c.49-1.11,1-2.2,1.56-3.28-.1.59-.21,1.18-.32,1.76a79.53,79.53,0,0,1-2.47,9.72c-.52,1.59-1.09,3.16-1.73,4.71a44.26,44.26,0,0,1-2.09,4.4l-.09,0A41.77,41.77,0,0,1,304.66,491.32Zm1.62-.05q1.05-2.29,1.92-4.67a79.05,79.05,0,0,0,2.86-9.68c.32-1.45.6-2.9.85-4.37a86.5,86.5,0,0,1,6.46-10A98.38,98.38,0,0,1,330.62,449a114.76,114.76,0,0,1,14.43-11.19c2.54-1.67,5.13-3.29,7.78-4.77.66-.39,1.33-.75,2-1.11l2-1.08c1.35-.69,2.69-1.4,4.06-2-.64,1.91-1.33,3.82-2,5.71-1.22,3.3-2.6,6.54-4.09,9.73s-3.09,6.33-4.85,9.38a113.22,113.22,0,0,1-12.14,17.27,96.9,96.9,0,0,1-15.4,14.48,84.06,84.06,0,0,1-8.86,5.83c-1.54.87-3.11,1.69-4.72,2.44a43.78,43.78,0,0,1-4.77,1.95A43,43,0,0,0,306.28,491.27Zm53.37-65.06c-1.39.7-2.75,1.45-4.12,2.19l-2,1.14c-.68.39-1.35.77-2,1.18-2.68,1.57-5.28,3.28-7.83,5a116.2,116.2,0,0,0-14.38,11.81,96.12,96.12,0,0,0-12.05,14.14,87.07,87.07,0,0,0-4.87,7.86,93.59,93.59,0,0,0,.86-12.74,105.77,105.77,0,0,0-2-20.16c-.64-3.33-1.45-6.62-2.38-9.87s-2-6.48-3.15-9.65c-.16-.42-.32-.83-.47-1.24,1-2.37,2-4.71,3.13-7,.35-.76.72-1.5,1.1-2.24l1.12-2.23c.79-1.46,1.55-2.94,2.38-4.39,1.6-2.91,3.35-5.75,5.11-8.57s3.64-5.57,5.59-8.27q5.79-8.13,12.27-15.76c1.07-1.27,2.18-2.51,3.27-3.77s2.24-2.48,3.35-3.71c2.25-2.44,4.54-4.82,7-7.08,1.19-1.16,2.44-2.25,3.66-3.36s2.49-2.19,3.78-3.23c2.54-2.13,5.17-4.15,7.83-6.13,1.19-.89,2.4-1.75,3.62-2.6.18,1.11.35,2.22.5,3.33.26,1.74.44,3.48.65,5.22s.36,3.49.47,5.24c.28,3.5.38,7,.4,10.5,0,1.77,0,3.53,0,5.29s-.06,3.53-.13,5.29q-.36,10.57-1.63,21.08c-.41,3.5-.95,7-1.53,10.45s-1.29,6.93-2.12,10.35c-.38,1.72-.84,3.42-1.27,5.13-.22.85-.47,1.69-.71,2.54s-.47,1.69-.74,2.53c0,.16-.09.31-.14.47C361.29,425.38,360.46,425.79,359.65,426.21Zm-119-95.7c.67-3.45,1.47-6.87,2.32-10.28s1.81-6.8,2.83-10.16a282.78,282.78,0,0,1,15.48-39.28,382.46,382.46,0,0,1,20.33-37.1q5.58-9,11.62-17.7,3-4.35,6.15-8.6c1.47-2,3-4,4.51-6,1.52,2,3,4,4.51,6q3.14,4.26,6.15,8.61,6,8.7,11.61,17.7a385.78,385.78,0,0,1,20.35,37.1A284,284,0,0,1,362,310.07q1.53,5,2.83,10.15c.85,3.41,1.65,6.84,2.32,10.28.17.83.33,1.66.48,2.5a166.35,166.35,0,0,0-20.78,17.08c-2.44,2.35-4.78,4.84-7,7.36-1.12,1.28-2.25,2.53-3.34,3.82s-2.2,2.56-3.27,3.87c-4.29,5.22-8.39,10.6-12.21,16.19-1.91,2.79-3.73,5.65-5.5,8.52s-3.45,5.83-5,8.82c-.82,1.49-1.56,3-2.33,4.52l-1.1,2.28c-.37.77-.73,1.53-1.07,2.31q-1.08,2.36-2.06,4.76-1-2.4-2.07-4.76c-.34-.78-.7-1.54-1.07-2.31l-1.1-2.28c-.77-1.51-1.51-3-2.33-4.52-1.57-3-3.28-5.91-5-8.82s-3.59-5.73-5.5-8.52c-3.82-5.59-7.92-11-12.21-16.19-1.07-1.31-2.18-2.58-3.27-3.87s-2.22-2.54-3.34-3.82c-2.26-2.52-4.6-5-7-7.36A166.18,166.18,0,0,0,240.16,333ZM145.34,403a267.11,267.11,0,0,1-14.17-37.29,366.58,366.58,0,0,1-9.39-38.87Q120,317,118.64,307c-.44-3.31-.84-6.62-1.18-9.93-.24-2.28-.45-4.58-.63-6.87,2.25.4,4.53.83,6.78,1.27q4.9,1,9.77,2.1,9.75,2.24,19.38,5a360.93,360.93,0,0,1,37.81,13,266.89,266.89,0,0,1,35.8,17.59q4.29,2.55,8.45,5.29l.84.57c-.84,5.32-1.44,10.68-1.76,16.06-.24,3.58-.3,7.19-.27,10.78,0,1.78,0,3.57.1,5.35s.11,3.57.21,5.36c.35,7.14,1,14.27,2,21.35.48,3.54,1.09,7.07,1.75,10.58s1.45,7,2.35,10.47c.42,1.74.92,3.46,1.39,5.19.25.86.51,1.71.77,2.57l.21.69-2.67-1.22c-2.85-1.24-5.71-2.45-8.61-3.54-5.79-2.22-11.7-4.12-17.67-5.8-1.48-.43-3-.81-4.48-1.22s-3-.74-4.51-1.12c-3-.72-6.09-1.37-9.17-1.86a163.53,163.53,0,0,0-37.24-1.6q-5.13.33-10.23.89Q146.54,405.48,145.34,403Zm153.89,94.51c-1.6.49-3.23.92-4.86,1.28a79,79,0,0,1-9.9,1.56,90.81,90.81,0,0,1-20-.34A107,107,0,0,1,245,495.61a124.89,124.89,0,0,1-18.4-7.67c-3-1.52-5.88-3.11-8.73-4.84-.72-.42-1.42-.85-2.13-1.3l-2.11-1.33c-1.38-.92-2.79-1.81-4.14-2.77-2.76-1.87-5.42-3.87-8.06-5.89s-5.21-4.15-7.72-6.34q-7.55-6.53-14.54-13.69c-1.17-1.18-2.3-2.41-3.45-3.61s-2.26-2.45-3.39-3.68c-2.22-2.47-4.37-5-6.4-7.59-1-1.29-2-2.64-3-4s-1.94-2.68-2.86-4.06c-1.88-2.73-3.65-5.54-5.37-8.38S151.5,415,150,412.13q4.17-.48,8.35-.78c3-.22,6.07-.36,9.11-.45s6.08-.08,9.11,0,6.07.23,9.09.5c1.52.11,3,.3,4.53.45s3,.36,4.5.61c3,.43,6,1,8.94,1.67,1.48.35,3,.67,4.46,1s3,.72,4.43,1.12c5.9,1.55,11.74,3.36,17.48,5.41,2.87,1,5.7,2.14,8.53,3.29,1.71.73,3.42,1.48,5.11,2.25.92,2.74,1.94,5.44,3,8.13,1.32,3.33,2.81,6.59,4.4,9.79s3.3,6.36,5.16,9.41a111.27,111.27,0,0,0,12.77,17.2,97,97,0,0,0,16,14.18,84,84,0,0,0,9.12,5.55c1.58.82,3.19,1.59,4.82,2.29a44.14,44.14,0,0,0,4.86,1.78,1,1,0,0,0,.08.14l-.08-.14.09,0s0,.08,0,.12h0v0A41.49,41.49,0,0,1,299.23,497.46Zm4.61-1.69v0l0,0Zm0,0,0,0v0ZM453,420.5c-1.72,2.84-3.49,5.65-5.37,8.38-.92,1.38-1.9,2.71-2.86,4.06s-2,2.67-3,4c-2,2.62-4.18,5.12-6.4,7.59-1.13,1.23-2.24,2.47-3.39,3.68s-2.28,2.43-3.45,3.61q-7,7.16-14.54,13.69c-2.51,2.19-5.1,4.28-7.72,6.34s-5.3,4-8.06,5.89c-1.35,1-2.76,1.85-4.14,2.77L392,481.8c-.71.45-1.41.88-2.13,1.3-2.85,1.73-5.77,3.32-8.73,4.84a124.89,124.89,0,0,1-18.4,7.67A107,107,0,0,1,343.26,500a90.81,90.81,0,0,1-20,.34,79,79,0,0,1-9.9-1.56c-1.63-.36-3.26-.79-4.86-1.28a41.49,41.49,0,0,1-4.6-1.69v0h0s0-.08,0-.12l.09,0-.08.14a1,1,0,0,0,.08-.14,46.28,46.28,0,0,0,4.86-1.78c1.63-.7,3.24-1.47,4.82-2.29a85,85,0,0,0,9.12-5.55,97.45,97.45,0,0,0,16-14.18,111.69,111.69,0,0,0,12.76-17.2c1.86-3.06,3.57-6.21,5.16-9.41s3.07-6.47,4.4-9.79c1.06-2.69,2.07-5.39,3-8.12,1.7-.78,3.42-1.52,5.13-2.26,2.83-1.15,5.66-2.27,8.53-3.29,5.74-2.05,11.58-3.86,17.48-5.41,1.47-.4,2.95-.75,4.43-1.12s3-.69,4.46-1c3-.65,5.93-1.24,8.94-1.67,1.49-.25,3-.41,4.5-.61s3-.34,4.53-.45c3-.27,6.05-.4,9.09-.5s6.07-.07,9.11,0,6.08.23,9.11.45q4.19.3,8.35.78C456.25,415,454.69,417.76,453,420.5Z" transform="translate(-48.24 -129.4)"/><path class="cls-5" d="M381.38,653.07a10.06,10.06,0,0,0-1.42-.48c-.85-.22-1.93-.45-3.22-.67l-1-.15c-.6-.09-7-.87-7-.87l-3.4-.33-.48,0-1.29-.11-3-.25-4.58-.33-2.49-.16-2.28-.15-4.19-.24-1.82-.1H345l-2.31-.12-2.21-.11h-.15l-1.35-.06-.93,0a2.1,2.1,0,0,0,.05.43h0l-.33-.19-.13-.12a1.09,1.09,0,0,0,.08-.15h-.28l-1.35-.06-1,0-1.15-.05-1.7-.07h-.1l-1.57-.07h-.2l-2.3-.09-.93,0-1.76-.07-2.78-.1H322l-2.13-.07a1.14,1.14,0,0,0,.94,1.26,1.15,1.15,0,0,0,.49,0,2.59,2.59,0,0,0,1.52.5h.25a2.65,2.65,0,0,0,.78.36v.21a2.79,2.79,0,0,0-.58-.07,2.61,2.61,0,0,0-1.3.36,2.53,2.53,0,0,0-.62.4,1,1,0,0,0-.65-.89,2.78,2.78,0,0,0-.66-.62v-.05h0a1.18,1.18,0,0,0-.09-.67,2.63,2.63,0,0,0-.35-.76h0l-2.25-.08-1,0-.57,0c-1.56,0-38.84-.84-40.15-.85l-1.38,0-2.24,0h-.79l-1.74,0h-1.8l-1.47,0v0a2.57,2.57,0,0,0,.29,1.18,2.51,2.51,0,0,0-.24,1,3.26,3.26,0,0,0-2.27,5.34,1,1,0,0,1,.08,1.82,1.13,1.13,0,0,0,.05.58,2,2,0,0,0-.08.26,1.15,1.15,0,0,0,.93,1.31h.13v.05a3,3,0,0,0-.42,0,2.55,2.55,0,0,0-1.81.75,2.67,2.67,0,0,0-.31-.35,1.15,1.15,0,0,0,.67-.85,1.13,1.13,0,0,0,0-.45,1.32,1.32,0,0,0-.18-.4l-.07-.08a2.55,2.55,0,0,0-.87-1.6,2.37,2.37,0,0,0,.34-.78.65.65,0,0,0,.15-.18.93.93,0,0,0,.14-.36,1.33,1.33,0,0,0,.1-.28,1.77,1.77,0,0,0,0-.23,1,1,0,0,0-.1-.43l-.11-.19a.81.81,0,0,0-.18-.19,2.59,2.59,0,0,0,.27-1.14,1.21,1.21,0,0,0-.09-.68,2.62,2.62,0,0,0-1.09-1.49v-.05h0a1.18,1.18,0,0,0-.09-.67A2.61,2.61,0,0,0,261,648a2.66,2.66,0,0,0-.69-.73,1,1,0,0,0-.24-.26h-1.4l-3.09,0-3.4,0a1.84,1.84,0,0,0,0,.33,1.73,1.73,0,0,0,0,.32.83.83,0,0,0-.21.16l0,0a1.08,1.08,0,0,0-.33.62,1.13,1.13,0,0,0,.53,1.16,1.09,1.09,0,0,0-.48.74,1.14,1.14,0,0,0,.21.88,1.17,1.17,0,0,0,.22.63,2.31,2.31,0,0,0-.37,0,2.59,2.59,0,0,0-1.51.48,2.53,2.53,0,0,0-1.46-.46,2.56,2.56,0,0,0-1.35-.38,2.61,2.61,0,0,0-1.11.25,1.11,1.11,0,0,0-.5-1v0a2.65,2.65,0,0,0,.89.16h.24a2.57,2.57,0,0,0,2.57-2.57,2.45,2.45,0,0,0-.37-1.32l-4.4,0h-2.39a2.53,2.53,0,0,0-1,1.33,2.57,2.57,0,0,0-1.53-1.34H229.59a2.57,2.57,0,0,0-.88,1.93c0,.07,0,.14,0,.21l-.17,0a.43.43,0,0,0,0-.05,2.58,2.58,0,0,0-1.11-2.11h-5c0,.06.11.11.16.16a1.12,1.12,0,0,0,.81.58.92.92,0,0,0,.33,0,2.65,2.65,0,0,0-.23.48,2.52,2.52,0,0,0-1.59-.56,2.58,2.58,0,0,0,0,5.15,2.88,2.88,0,0,0,.59-.07,2.5,2.5,0,0,0,.12,2,2.59,2.59,0,0,0-1.12,1.4,1.46,1.46,0,0,0-.29,0,2.54,2.54,0,0,0-1.62.57l-.26,0-.27,0a1.87,1.87,0,0,0-.34,0s0-.09,0-.14a1.13,1.13,0,0,0-.14-.75,2.58,2.58,0,0,0,1.56-2.37,1.16,1.16,0,0,0-.09-.67,2.61,2.61,0,0,0-.83-1.3,1,1,0,0,0-.18-.47,2.57,2.57,0,0,0-5.1.49,1.81,1.81,0,0,0,0,.4,1.11,1.11,0,0,0-.66,1.41,2.62,2.62,0,0,0-1-.19,2.56,2.56,0,0,0-2,1,1.11,1.11,0,0,0-.44-.79,2.57,2.57,0,0,0,.48-1.49,1.21,1.21,0,0,0-.09-.68,3,3,0,1,0-3,4.22,2.51,2.51,0,0,0,1.22-.31,1.12,1.12,0,0,0,1.41.09,2.16,2.16,0,0,0-.06.51,2.58,2.58,0,0,0,2.17,2.54,413.13,413.13,0,0,1,1.73,1.49,1.13,1.13,0,0,0,1.14-.51,1.2,1.2,0,0,0,.17-.42,1.77,1.77,0,0,0,0-.23,1,1,0,0,0-.1-.43,1.18,1.18,0,0,0-.42-.49,1,1,0,0,0-.3-.13,2.58,2.58,0,0,0,.75-1.82,1.09,1.09,0,0,0-.09-.67,2.47,2.47,0,0,0-.48-.94,1.07,1.07,0,0,0,.68-.2,2.57,2.57,0,0,0,1.58,2,1,1,0,0,0-.13.35,1.14,1.14,0,0,0,.72,1.25,2.59,2.59,0,0,0-.44.59,2.67,2.67,0,0,0-.2.46,2.77,2.77,0,0,0-.1.5,2.44,2.44,0,0,0,0,.27,2.6,2.6,0,0,0,.48,1.5h2.9l2.11,0h.78a2.47,2.47,0,0,0,.71-.82,2.09,2.09,0,0,0,.17-.41l.29,0a2.52,2.52,0,0,0,1.59-.56,2.43,2.43,0,0,0,1,.19,2.6,2.6,0,0,0,.93-.17l-.06.12a.86.86,0,0,0-.06.23,1.15,1.15,0,0,0,0,.49,2.6,2.6,0,0,0-1.26.92H234a1.94,1.94,0,0,0,0-.24,1.1,1.1,0,0,0-.1-.67,2.43,2.43,0,0,0-.28-.66h.2a2.58,2.58,0,0,0,2.14-1.14,2.94,2.94,0,0,0,.29-.59,1,1,0,0,0,.42,0,2.55,2.55,0,0,0,.68.34,1.13,1.13,0,0,0,.54.74,1.17,1.17,0,0,0,.76.51,1.13,1.13,0,0,0,1.14-1.74,2.56,2.56,0,0,0,.91-2,1.09,1.09,0,0,0-.09-.67,2.55,2.55,0,0,0-1.28-1.6l.1,0a1.14,1.14,0,0,0,.86-.91,1.3,1.3,0,0,0,0-.48,2.52,2.52,0,0,0,1.28-1.51s.05.1.08.14a.53.53,0,0,0,0,.12,1.12,1.12,0,0,0,.92,1.31h.05a1.72,1.72,0,0,0,.07.21,1.15,1.15,0,0,0,.85.65h.17a2.56,2.56,0,0,0-.7,1.65l-.17-.05a1.13,1.13,0,0,0-.45,0,1.15,1.15,0,0,0-.86.92,1.13,1.13,0,0,0,.34,1,1.11,1.11,0,0,0,.59.3,1.13,1.13,0,0,0,.45,0l.18-.06a1.11,1.11,0,0,0,.55,1,2.69,2.69,0,0,0-.06.57,2.57,2.57,0,0,0,3.68,2.32,1.08,1.08,0,0,0,.47.31,1.3,1.3,0,0,0-.08.17l3.73,0h1.16l4.93,0h.89l3.07,0h.82l5,0h.41a2.64,2.64,0,0,0-.68-1.18h0a.86.86,0,0,0,.14-.13.44.44,0,0,0,.12-.15,1,1,0,0,0,.16-.42.9.9,0,0,0,0-.23,1.23,1.23,0,0,0-.1-.43l-.11-.19a1.11,1.11,0,0,0-.31-.3,1.26,1.26,0,0,0-.42-.16h-.14a1,1,0,0,0-.07-.38.73.73,0,0,0,.08-.25,1.13,1.13,0,0,0-.62-1.21,1.09,1.09,0,0,0,.29-.23,2.64,2.64,0,0,0,.49-.08,2.52,2.52,0,0,0,1.36.4,2.79,2.79,0,0,0,.58-.07v0a3.1,3.1,0,0,0,0,.54,2.58,2.58,0,0,0,2.37,2.41.6.6,0,0,0,.08.08,2.58,2.58,0,0,0-1,1.93l1.58,0,2.08,0,1.48,0h1l1.43,0,3.22-.05h1l2.26,0h.68l.81,0h.89l1,0,4.65-.08h.51a1.08,1.08,0,0,0-.11-.4,2.22,2.22,0,0,0-.18-.49c0-.05,0-.1,0-.16h.09a2.61,2.61,0,0,0,.69-.1,1.55,1.55,0,0,0-.07.23,1.15,1.15,0,0,0,.25.9l1.78,0h.41l1.19,0,4.57-.1h.16a1.12,1.12,0,0,0,.12-.35,1.09,1.09,0,0,0,0-.54A2.78,2.78,0,0,0,302,659a1.15,1.15,0,0,0,.35.22,2.75,2.75,0,0,0,.68.76l3.17-.08a2.76,2.76,0,0,0,.76-1,1.48,1.48,0,0,0,.14-.25,1.18,1.18,0,0,0,.36.74,2.7,2.7,0,0,0-.83.54l1.43,0,1.51,0,.82,0,.8,0,4.72-.14h.23l4.74-.15h.2l1.74-.06,2.88-.1a.54.54,0,0,1-.05-.11s0,0,.05-.07a2.12,2.12,0,0,0,.11-.21,2.84,2.84,0,0,0,.47.37l2.11-.08h.18l2.1-.08,4-.17,1,0,4.22-.2,2.23-.11.67,0,1.6-.08,1.75-.1,1.35-.07.63,0,2.24-.13,1.46-.09,1.64-.1.46,0,2.61-.17.77-.06,2.18-.16c1.66-.12,3.24-.25,4.73-.38,1.17-.1,2.29-.2,3.35-.31l.36,0c1.42-.14,2.74-.29,4-.43l1.25-.16c1.15-.14,2.19-.3,3.13-.45h0c.23,0,2.38-.44,2.92-.56a15.68,15.68,0,0,0,1.74-.5,5,5,0,0,0,.64-.28,2.27,2.27,0,0,0,.28-.18.6.6,0,0,0,.28-.44C382.21,653.56,381.93,653.31,381.38,653.07Zm-144.48-.86a1.16,1.16,0,0,0,.12.71l-.21-.06a1.15,1.15,0,0,0-1.31.93,1.2,1.2,0,0,0,.14.75c0,.07,0,.14,0,.21a2.58,2.58,0,0,0-4.32,1.32,3.05,3.05,0,0,0-.05.52,2.67,2.67,0,0,0,.11.75,1.13,1.13,0,0,0-.8.73,2.59,2.59,0,0,0-1.12.78,1,1,0,0,0-.32-.32l-.2-.1a.9.9,0,0,0-.22-.06.93.93,0,0,0-.23,0h-.06a2.52,2.52,0,0,0,.45-.62,1.12,1.12,0,0,0,.29-1.23,2.57,2.57,0,0,0-1.1-2.07,1.17,1.17,0,0,0-.51-.5l0-.16.16-.08.23.14a2.57,2.57,0,0,0,3.29-.73,2.63,2.63,0,0,0,1.12.25,2.51,2.51,0,0,0,1.54-.52l.3,0a3,3,0,0,0,.52-.05,1.88,1.88,0,0,0,.24.14h0l.27.09a1.12,1.12,0,0,0,.45,0,1.14,1.14,0,0,0,.86-.91,1.08,1.08,0,0,0-.07-.62,2.41,2.41,0,0,0,.29-1,2.56,2.56,0,0,0,.76.93A1.14,1.14,0,0,0,236.9,652.21Zm-.38-3.28a2.66,2.66,0,0,0-.2-.76,2.62,2.62,0,0,0,1.05-1.18,2.08,2.08,0,0,0,.5.07A2.61,2.61,0,0,0,236.52,648.93Zm14.32,8,.06-.16.06,0Zm3.14-7h.23a3,3,0,0,0-.29.53h0a1.08,1.08,0,0,0-.1-.43l-.11-.19A1.07,1.07,0,0,0,254,649.91Zm1.8,6.85a1.18,1.18,0,0,0-.37.09l-.18.11a1,1,0,0,0-.27.27,2.59,2.59,0,0,0-1-.88,1.13,1.13,0,0,0-.14-.58,2.59,2.59,0,0,0,.43-1.43,1.16,1.16,0,0,0-.09-.67,2.58,2.58,0,0,0-1-1.43,1.14,1.14,0,0,0,.59-.29,2.57,2.57,0,0,0,2.48,2,2.54,2.54,0,0,0-.1.68,2.57,2.57,0,0,0,1.06,2.08.64.64,0,0,0-.2,0,1.12,1.12,0,0,0-.45-.18,1.14,1.14,0,0,0-.81.17Zm1,2.89a2.51,2.51,0,0,0-1-.63,1.16,1.16,0,0,0,.66-.19.58.58,0,0,0,.19,0,1,1,0,0,0,.44.18,1.15,1.15,0,0,0,1-.32,2.39,2.39,0,0,0,.12.22A2.46,2.46,0,0,0,256.79,659.65Zm15.66-9a2.59,2.59,0,0,0-.37-.11,2.64,2.64,0,0,0-.31-.71,2.58,2.58,0,0,0,2.11-2,1,1,0,0,0,.21-.24.95.95,0,0,1,.91,1.29h0a2.58,2.58,0,0,0-2.21,1.53A1.13,1.13,0,0,0,272.45,650.64Zm2.5,9.12a2.54,2.54,0,0,0-1.35-1.47,1,1,0,0,0-.08-.25,1.18,1.18,0,0,0-.44-.5,2.54,2.54,0,0,0,.52-1.55,2.32,2.32,0,0,0,0-.46,1.11,1.11,0,0,0-.1-.6l0-.11a2.42,2.42,0,0,0,.38-.51,2.44,2.44,0,0,0,.57.87,2.58,2.58,0,0,0,.7,4,2.79,2.79,0,0,0,.07.58Zm5.14-3.66a1.46,1.46,0,0,0-.29,0,2.48,2.48,0,0,0-1,.21s0,0,0,0a2.67,2.67,0,0,0-.54-1,2.59,2.59,0,0,0,1.46-1,1.12,1.12,0,0,0,.68-.86,1.1,1.1,0,0,0-.08-.65h.21a2.88,2.88,0,0,0,.59-.07,2.5,2.5,0,0,0,.12,2A2.59,2.59,0,0,0,280.09,656.1Zm10.1-1a2.58,2.58,0,0,0-.39.92.91.91,0,0,0,0,.23,2.17,2.17,0,0,0-.67-.2,1.14,1.14,0,0,0-.94-1.09,1.15,1.15,0,0,0-.87.22,2.78,2.78,0,0,0-.62-.7,3,3,0,0,0,.57-.42,3.42,3.42,0,0,0,.45,0,2.56,2.56,0,0,0,2.06-1,2.64,2.64,0,0,0,.74.22,1.18,1.18,0,0,0-.19.46,1.15,1.15,0,0,0,.26.93A2.54,2.54,0,0,0,290.19,655.15Zm4.73,3.55s0,0,0,.06a1.14,1.14,0,0,0-.68-.39h-.06a3,3,0,0,0,.27-.33,2.65,2.65,0,0,0,.37-.88,2.44,2.44,0,0,0,.4.32A2.67,2.67,0,0,0,294.92,658.7Zm.51-6.49a1.16,1.16,0,0,0,.12.71.76.76,0,0,0-.2-.06l-.23,0a1.23,1.23,0,0,0-.43.1,1.14,1.14,0,0,0-.65.85,1,1,0,0,0,0,.45,1,1,0,0,0,.12.3c0,.07,0,.14-.05.21a2.55,2.55,0,0,0-1.57-.72,1.14,1.14,0,0,0-.47-1,1.9,1.9,0,0,0,.33-.22l.3,0a3,3,0,0,0,.52-.05,1.88,1.88,0,0,0,.24.14h0a1.14,1.14,0,0,0,.26.09,1.12,1.12,0,0,0,.45,0,1.14,1.14,0,0,0,.86-.91,1.08,1.08,0,0,0-.07-.62,2.41,2.41,0,0,0,.29-1,2.56,2.56,0,0,0,.76.93A1.14,1.14,0,0,0,295.43,652.21Zm4.63,2.06a2.7,2.7,0,0,0-.86.68.91.91,0,0,0-.09-.31,2.6,2.6,0,0,0-1.55-1.73,1.1,1.1,0,0,0,.11-.32,2,2,0,0,0,0-.23,1.23,1.23,0,0,0-.1-.43h0a2.57,2.57,0,0,0,2.45-1.8s0,.1.08.14a.53.53,0,0,0,0,.12.93.93,0,0,0,0,.23,1.23,1.23,0,0,0,.1.43,1.13,1.13,0,0,0,.35.43,2.57,2.57,0,0,0-.68,1.74A2.68,2.68,0,0,0,300.06,654.27Zm7.23-2.48a2.55,2.55,0,0,0-1.34-.38,2.63,2.63,0,0,0-1.12.25,1.11,1.11,0,0,0-.5-1v0a2.65,2.65,0,0,0,.89.16h.24a2.66,2.66,0,0,0,.94-.18,2.51,2.51,0,0,0,1.18.81,1.91,1.91,0,0,0,.26.41A2.6,2.6,0,0,0,307.29,651.79Zm1.65,5.83Zm6.63-.85,0,0a1,1,0,0,0-.42-.16H315a2.6,2.6,0,0,0-1.48-.47,2.44,2.44,0,0,0-1,.21,1.13,1.13,0,0,0-.94-1.12,1.15,1.15,0,0,0-1.31.93v.12a2.6,2.6,0,0,0-.92.68,2.5,2.5,0,0,0,.2-1,1.07,1.07,0,0,0,0-.4,2.45,2.45,0,0,0,.29-1.18,1,1,0,0,0,0-.38,1.14,1.14,0,0,0,.3-.6,1.13,1.13,0,0,0,0-.52,2.56,2.56,0,0,0,2.12-1.51h0v.07a2.58,2.58,0,0,0,.4,1.37,1.11,1.11,0,0,0-.56.79,1.14,1.14,0,0,0,.92,1.31,1.18,1.18,0,0,0,.46,0,1.11,1.11,0,0,0,.69-.49,1,1,0,0,0,.16-.42v0a2.31,2.31,0,0,0,.46.05,1.84,1.84,0,0,0-.08.42,2.28,2.28,0,0,0,0,.26,2.57,2.57,0,0,0,1.06,2.08A.64.64,0,0,0,315.57,656.77Zm9.54.66-.14,0-.23,0h-.05l-.06-.14a1.2,1.2,0,0,0,.21-.49.62.62,0,0,0,0-.13,2.48,2.48,0,0,0,.21-1,.92.92,0,0,0,0-.33,2.81,2.81,0,0,0,.56.25,2.51,2.51,0,0,0-.54,1.57A2,2,0,0,0,325.11,657.43Zm7.31-3.21a.89.89,0,0,0-.23,0,.83.83,0,0,0-.22,0,.76.76,0,0,0-.2.06,1.14,1.14,0,0,0-.73-.9,1.1,1.1,0,0,0-.35-.58.45.45,0,0,0,0-.11,1.09,1.09,0,0,0,0-.31,2.64,2.64,0,0,0,1,.32,2.86,2.86,0,0,0,.77.46,2.19,2.19,0,0,0,0,.36,2.71,2.71,0,0,0,.1.71Zm11-.17a2.39,2.39,0,0,0-.54.15l.15-.29a2.09,2.09,0,0,0,.51.07Zm3.41-1.19-.22,0a1.18,1.18,0,0,0-.43.1,1,1,0,0,0-.36.26,1.11,1.11,0,0,0-.3.59v0a2.48,2.48,0,0,0-.68-.12,2.73,2.73,0,0,0,.83-.68h0a1.14,1.14,0,0,0,.86-.91,1.08,1.08,0,0,0-.07-.62l0,0a2.49,2.49,0,0,0,.42.94,1.06,1.06,0,0,0,.13.52Zm4.69-.62-.34,0a1.79,1.79,0,0,0,.2-.39,2.22,2.22,0,0,0,.39-.1A2.34,2.34,0,0,0,351.54,652.24Zm4.8-.58a1.1,1.1,0,0,0-.25-.77l.2-.13a2.34,2.34,0,0,0,.39,0,2.59,2.59,0,0,0,.47.32,1,1,0,0,0,0,.3A2.87,2.87,0,0,0,356.34,651.66Zm4.27,0h-.2a2.62,2.62,0,0,0-1.08.24l-.12,0a1.12,1.12,0,0,0,.18-.45,1.23,1.23,0,0,0,0-.19,3,3,0,0,0,.54-.33,2.62,2.62,0,0,0,1.19.52A2.53,2.53,0,0,0,360.61,651.62Zm2.55-.06.2-.08a2.59,2.59,0,0,0,.42-.14v.07a2.55,2.55,0,0,0,.11.74A2.63,2.63,0,0,0,363.16,651.56Zm1.29,1.74c0-.07,0-.15-.05-.23a1.34,1.34,0,0,0,.2.21Zm1.79,1.1s0,0,0,0l-.14-.1a1.08,1.08,0,0,0-.33-.43,2.6,2.6,0,0,0,.56.07A1.84,1.84,0,0,0,366.24,654.4Z" transform="translate(-48.24 -129.4)"/><path class="cls-5" d="M269.18,660.09a1.11,1.11,0,0,0-1,.33,1,1,0,0,0-.13.16h1.88A1.13,1.13,0,0,0,269.18,660.09Z" transform="translate(-48.24 -129.4)"/><path class="cls-5" d="M201.77,660.11a1.12,1.12,0,0,0-1.07.4l1.77,0A1.15,1.15,0,0,0,201.77,660.11Z" transform="translate(-48.24 -129.4)"/><path class="cls-5" d="M206.59,658.65a2.59,2.59,0,0,0-2.48,1.9l5,.05A2.58,2.58,0,0,0,206.59,658.65Z" transform="translate(-48.24 -129.4)"/><path class="cls-5" d="M237.38,659a2.57,2.57,0,0,0-2.2,1.24,2.62,2.62,0,0,0-1,.49h6a2.86,2.86,0,0,0-.54-.3A2.56,2.56,0,0,0,237.38,659Z" transform="translate(-48.24 -129.4)"/><path class="cls-5" d="M204.71,658.08a1.13,1.13,0,0,0,0-.45,1.32,1.32,0,0,0-.18-.4,1.14,1.14,0,0,0-.32-.3,1,1,0,0,0-.42-.16l-.23,0a1.12,1.12,0,0,0-.61.21,1,1,0,0,0-.3.32,1.13,1.13,0,0,0-.17.42,1.14,1.14,0,1,0,2.24.38Z" transform="translate(-48.24 -129.4)"/><path class="cls-5" d="M189.68,658.37a1.13,1.13,0,0,0-1.31.93,1.1,1.1,0,0,0,.37,1l1.46,0a1.06,1.06,0,0,0,.4-.68A1.12,1.12,0,0,0,189.68,658.37Z" transform="translate(-48.24 -129.4)"/><path class="cls-5" d="M164.31,649a2.58,2.58,0,1,0,2.58,2.58A2.58,2.58,0,0,0,164.31,649Z" transform="translate(-48.24 -129.4)"/><path class="cls-5" d="M195.11,651.6a2.52,2.52,0,0,0-1.16.28,2.68,2.68,0,0,0-.76-.11,2.57,2.57,0,1,0,1.17,4.86,2.36,2.36,0,0,0,.75.12,2.58,2.58,0,1,0,0-5.15Z" transform="translate(-48.24 -129.4)"/><path class="cls-5" d="M174.9,654a1.13,1.13,0,0,0-1.31.93,1.14,1.14,0,1,0,1.31-.93Z" transform="translate(-48.24 -129.4)"/><path class="cls-5" d="M160.8,655.63a1.13,1.13,0,1,0,.92,1.31A1.13,1.13,0,0,0,160.8,655.63Z" transform="translate(-48.24 -129.4)"/><path class="cls-5" d="M189.13,649.93a1.14,1.14,0,1,0-.93-1.31A1.13,1.13,0,0,0,189.13,649.93Z" transform="translate(-48.24 -129.4)"/><path class="cls-5" d="M184.46,650.62a1.14,1.14,0,0,0,.38-2.24,1.14,1.14,0,1,0-.38,2.24Z" transform="translate(-48.24 -129.4)"/><path class="cls-5" d="M199.76,655.37a1.14,1.14,0,1,0,.92,1.31A1.14,1.14,0,0,0,199.76,655.37Z" transform="translate(-48.24 -129.4)"/><path class="cls-5" d="M148.13,654.57a2.57,2.57,0,0,0-1.53,4.63l2.91.11a2.57,2.57,0,0,0-1.38-4.74Z" transform="translate(-48.24 -129.4)"/><path class="cls-5" d="M115.9,654.89a1.13,1.13,0,1,0,.92,1.31A1.12,1.12,0,0,0,115.9,654.89Z" transform="translate(-48.24 -129.4)"/><path class="cls-5" d="M125.24,651.08a1.14,1.14,0,1,0,.92,1.31A1.13,1.13,0,0,0,125.24,651.08Z" transform="translate(-48.24 -129.4)"/><path class="cls-5" d="M101.69,653.05a1.14,1.14,0,1,0,.92,1.31A1.14,1.14,0,0,0,101.69,653.05Z" transform="translate(-48.24 -129.4)"/><path class="cls-5" d="M153.77,651.72a1.14,1.14,0,1,0-1.31.93A1.14,1.14,0,0,0,153.77,651.72Z" transform="translate(-48.24 -129.4)"/><path class="cls-5" d="M148.6,650.62a1.14,1.14,0,1,0-.92-1.31A1.13,1.13,0,0,0,148.6,650.62Z" transform="translate(-48.24 -129.4)"/><path class="cls-5" d="M133.23,651.55a1.14,1.14,0,0,0-.38,2.24,1.14,1.14,0,0,0,.38-2.24Z" transform="translate(-48.24 -129.4)"/><path class="cls-5" d="M137,648.83a1.14,1.14,0,1,0-.38,2.24,1.14,1.14,0,1,0,.38-2.24Z" transform="translate(-48.24 -129.4)"/><path class="cls-5" d="M142.13,657a1.13,1.13,0,0,0-.84,2l1.23,0a1.14,1.14,0,0,0,.54-.78A1.13,1.13,0,0,0,142.13,657Z" transform="translate(-48.24 -129.4)"/><path class="cls-5" d="M171.91,657a1.13,1.13,0,1,0-.38,2.23,1.13,1.13,0,1,0,.38-2.23Z" transform="translate(-48.24 -129.4)"/><path class="cls-5" d="M159.87,650.83a1.14,1.14,0,0,0-.93-1.31,1.14,1.14,0,0,0-.38,2.24A1.15,1.15,0,0,0,159.87,650.83Z" transform="translate(-48.24 -129.4)"/><path class="cls-5" d="M196.14,651.29a1.15,1.15,0,0,0,.78-.15,2.62,2.62,0,0,0,1.44.43,2.51,2.51,0,0,0,.55-.06,2.55,2.55,0,0,0,1.39.41,2.58,2.58,0,0,0,2.57-2.49,2.57,2.57,0,0,0,3.65-2.34v0l-5,.06-2.6,0-2.42,0a2.59,2.59,0,0,0-.77,1.83c0,.06,0,.12,0,.18a1.12,1.12,0,0,0-.57.8A1.13,1.13,0,0,0,196.14,651.29Z" transform="translate(-48.24 -129.4)"/><path class="cls-5" d="M212.82,649.86a2.58,2.58,0,0,0,2.53-2.08,1.13,1.13,0,0,0,.38-.66.76.76,0,0,0,0-.15l-2.26,0-3.22,0a2.17,2.17,0,0,0,0,.26A2.57,2.57,0,0,0,212.82,649.86Z" transform="translate(-48.24 -129.4)"/><path class="cls-5" d="M180.84,650.81a2.57,2.57,0,0,0,.17-3.37l-4.12.09a2.57,2.57,0,0,0-.48,1.49v.09a1.14,1.14,0,0,0-1.12.94,1.13,1.13,0,0,0,.93,1.31,1.1,1.1,0,0,0,1.07-.4,2.53,2.53,0,0,0,1.69.64,2.6,2.6,0,0,0,.56-.06,1.05,1.05,0,0,0,0,.19,1.14,1.14,0,1,0,1.35-.92Z" transform="translate(-48.24 -129.4)"/><path class="cls-5" d="M209.51,660.61h.69l-.17,0A1,1,0,0,0,209.51,660.61Z" transform="translate(-48.24 -129.4)"/><path class="cls-5" d="M193,657.06a1.14,1.14,0,1,0,.93,1.31A1.13,1.13,0,0,0,193,657.06Z" transform="translate(-48.24 -129.4)"/><path class="cls-5" d="M242,658.37a1.14,1.14,0,1,0,.92,1.31A1.13,1.13,0,0,0,242,658.37Z" transform="translate(-48.24 -129.4)"/><path class="cls-5" d="M262.31,649.39a1.14,1.14,0,1,0-.92-1.31A1.14,1.14,0,0,0,262.31,649.39Z" transform="translate(-48.24 -129.4)"/><path class="cls-5" d="M196,660a1.12,1.12,0,0,0-1.11.45l1.86,0A1.11,1.11,0,0,0,196,660Z" transform="translate(-48.24 -129.4)"/><path class="cls-5" d="M202.07,653.57a1.13,1.13,0,1,0,2.23.38,1.13,1.13,0,1,0-2.23-.38Z" transform="translate(-48.24 -129.4)"/><path class="cls-5" d="M163.19,657.48a1.14,1.14,0,1,0-.38,2.24,1.14,1.14,0,1,0,.38-2.24Z" transform="translate(-48.24 -129.4)"/><path class="cls-5" d="M198.81,659.45a1.13,1.13,0,0,0-1.31.93v.09l2.25,0A1.13,1.13,0,0,0,198.81,659.45Z" transform="translate(-48.24 -129.4)"/><path class="cls-5" d="M185.72,654.1a2.51,2.51,0,0,0-.62.08c0-.06,0-.11,0-.17a1.13,1.13,0,1,0-1.31.92,2.4,2.4,0,0,0-.44.65,1.12,1.12,0,0,0-.75.87,1.15,1.15,0,0,0,.72,1.26,2.57,2.57,0,0,0,1.9,1.49h-.19a2.57,2.57,0,0,0-2.06,1l4.18.08a2.57,2.57,0,0,0-1.65-1.08h.18a2.57,2.57,0,1,0,0-5.14Z" transform="translate(-48.24 -129.4)"/><path class="cls-5" d="M153.48,654.42a1.13,1.13,0,1,0,.93,1.31A1.14,1.14,0,0,0,153.48,654.42Z" transform="translate(-48.24 -129.4)"/><path class="cls-5" d="M160.52,649.32a1.14,1.14,0,0,0,1.31-.93,1.11,1.11,0,0,0,0-.48l-2.21.07v0A1.14,1.14,0,0,0,160.52,649.32Z" transform="translate(-48.24 -129.4)"/><path class="cls-5" d="M171.74,652.39a1.13,1.13,0,1,0-1.31.93A1.13,1.13,0,0,0,171.74,652.39Z" transform="translate(-48.24 -129.4)"/><path class="cls-5" d="M179.72,656.48a1.13,1.13,0,0,0-1.31.93,1.14,1.14,0,0,0,2.24.38A1.13,1.13,0,0,0,179.72,656.48Z" transform="translate(-48.24 -129.4)"/><path class="cls-5" d="M209.5,656.48a1.13,1.13,0,0,0-1.31.93,1.14,1.14,0,1,0,1.31-.93Z" transform="translate(-48.24 -129.4)"/><path class="cls-6" d="M465.53,641.73a26.67,26.67,0,0,0-9.13-4,.7.7,0,0,1-.31-1.16,8.65,8.65,0,0,1,.89-.71c-1.49-.26-3-.64-4.43-1a19.71,19.71,0,0,0-5.71-.77,10.78,10.78,0,0,0-4.92,1.45c-2.7,1.57-5.59,5.07-5.32,8.09a6.76,6.76,0,0,0,3.2,5.15c3.25,2,7.58,1.86,11.26,1.67,1.88-.09,3.76-.26,5.64-.31,2.26,0,4.53,0,6.79,0-.35-.83-.7-1.65-1-2.51-.19-.54.54-1.17,1-.79a9.84,9.84,0,0,0,2.29,1.21,23.43,23.43,0,0,0,3.94,1.16,18.07,18.07,0,0,0,7.78,0,37.36,37.36,0,0,1-4-2.05C470.73,645.52,468.21,643.51,465.53,641.73Z" transform="translate(-48.24 -129.4)"/><path class="cls-7" d="M434.51,643.4c-2.06-.27-3.82-.51-5.87-.76q-3.42-.4-6.85-.69c-5.69-.47-11.4-.75-17.11-.93-5.12-.16-10.24-.24-15.36-.27L383.67,646l1.14,0c7-.16,13.95-.29,20.93-.33,5.57,0,11.14,0,16.71.21a134.7,134.7,0,0,1,13.62,1,7.76,7.76,0,0,1-.89-3.3Z" transform="translate(-48.24 -129.4)"/><path class="cls-5" d="M479.73,648.64a41.63,41.63,0,0,1-9.37-5.18,57.07,57.07,0,0,0-7.9-5.08,26.27,26.27,0,0,0-4.32-1.64c.41-.26.84-.5,1.25-.73a.7.7,0,0,0-.35-1.3c-4.2-.31-8.13-2.29-12.4-2.07a12.52,12.52,0,0,0-9.3,5.09,10.91,10.91,0,0,0-2,4.72,91,91,0,0,0-11.74-1.72c-5.49-.54-11-.84-16.5-1.05-5.78-.22-11.57-.33-17.36-.38a2.48,2.48,0,0,0-.55.27l-7,6.42-.69,0a17.52,17.52,0,0,1-2.28,1.54l2.66-.07c7.17-.19,14.33-.36,21.5-.43,5.71,0,11.42,0,17.13.1,4.83.12,9.65.47,14.48.68l1.69.06h0a7.51,7.51,0,0,0,1.36,1.46,11.37,11.37,0,0,0,5.31,2.27c4.12.72,8.3.17,12.44,0,2.89-.13,5.79-.05,8.68-.08a.72.72,0,0,0,.68-.9c-.22-.56-.45-1.1-.68-1.64l.92.38a23.67,23.67,0,0,0,4.1,1.18,18.18,18.18,0,0,0,10.18-.57A.69.69,0,0,0,479.73,648.64Zm-57.28-2.83c-5.57-.21-11.14-.24-16.71-.21-7,0-14,.17-20.93.33l-1.14,0,5.65-5.21c5.12,0,10.24.11,15.36.27,5.71.18,11.42.46,17.11.93q3.43.28,6.85.69c2.05.25,3.81.49,5.87.76l.67.08a7.76,7.76,0,0,0,.89,3.3A134.7,134.7,0,0,0,422.45,645.81Zm47.31,3.36a23.43,23.43,0,0,1-3.94-1.16,9.84,9.84,0,0,1-2.29-1.21c-.49-.38-1.22.25-1,.79.29.86.64,1.68,1,2.51-2.26,0-4.53,0-6.79,0-1.88,0-3.76.22-5.64.31-3.68.19-8,.38-11.26-1.67a6.76,6.76,0,0,1-3.2-5.15c-.27-3,2.62-6.52,5.32-8.09a10.78,10.78,0,0,1,4.92-1.45,19.71,19.71,0,0,1,5.71.77c1.48.37,2.94.75,4.43,1a8.65,8.65,0,0,0-.89.71.7.7,0,0,0,.31,1.16,26.67,26.67,0,0,1,9.13,4c2.68,1.78,5.2,3.79,8,5.43a37.36,37.36,0,0,0,4,2.05A18.07,18.07,0,0,1,469.76,649.17Z" transform="translate(-48.24 -129.4)"/><path class="cls-7" d="M209,224.24l.09.15s0-.07,0-.11Z" transform="translate(-48.24 -129.4)"/><path class="cls-7" d="M189.61,378.79c0-.09-.06-.06,0,0Z" transform="translate(-48.24 -129.4)"/><path class="cls-8" d="M361.38,346.71a21.78,21.78,0,0,0,14.35,7.42c5.27.38,10-2.2,14.29-4.95a44.05,44.05,0,0,0,6.13-4.7,47.06,47.06,0,0,0,7.71-8.84,43.4,43.4,0,0,0,5.93-13.16,47.91,47.91,0,0,0,1-18.05c-1.89-15.13-10.91-28-15.1-42.49-1-3.31-1.95-6.62-2.76-10a38.2,38.2,0,0,1-1.66-4.38c-.62,6.8.56,13.45,1.6,20.18-2.56-7-6.53-11.89-7.23-19-.51,3.35-.11,7.37-.65,10.36a51.48,51.48,0,0,0-2.4-5.79,41.17,41.17,0,0,0-1.47,6c.2,4,.57,8,.83,12,.65,10-1.05,20.47-7.23,28.61A38.31,38.31,0,0,1,359,311.79c-1.9.81-3.85,1.48-5.78,2.22l-.33.13-.27.12-.31.16-.05,0-.2.31a12.72,12.72,0,0,0-1.76,5.14c-.68,5.09,1,10.33,3.22,14.86A52.23,52.23,0,0,0,361.38,346.71Zm15.51,3.91c.33-.09.65-.19,1-.3s.65-.22,1-.34a38.53,38.53,0,0,0,3.75-1.57,47.68,47.68,0,0,0,7-4.08,45,45,0,0,0,6.13-5.22,38.65,38.65,0,0,0,5-6.26,40.76,40.76,0,0,0,3.66-7.14,45.91,45.91,0,0,0,2.24-7.73,65,65,0,0,0,.8-16.2,52,52,0,0,1,.22,16.38c-.1.68-.26,1.35-.38,2l-.21,1c-.08.34-.18.67-.26,1-.19.67-.36,1.34-.56,2l-.68,2a40.41,40.41,0,0,1-3.71,7.41,38.55,38.55,0,0,1-5.24,6.43,41.12,41.12,0,0,1-6.44,5.19c-1.15.75-2.34,1.44-3.56,2.09s-2.46,1.22-3.74,1.72a33.65,33.65,0,0,1-3.89,1.33c-.33.1-.66.18-1,.26s-.66.16-1,.22a9.31,9.31,0,0,1-2,.23A9.66,9.66,0,0,0,376.89,350.62Z" transform="translate(-48.24 -129.4)"/><path class="cls-6" d="M228,433.54c-3,7-8.6,12.92-9.94,20.57a13.08,13.08,0,0,0,.11,5.57,6.83,6.83,0,0,0,2.16,3.21,32.16,32.16,0,0,1,3.55,3.55,51.27,51.27,0,0,1,3.48,5c2.09,3.42,3.9,7,6,10.4a36.67,36.67,0,0,0,8.2,9.44,70.18,70.18,0,0,0,17.83,10.58l1.71.46a154.23,154.23,0,0,0,31.45,4.52c4.88.11,9.77.1,14.65,0,1.84,0,3.69-.05,5.53-.09a149.17,149.17,0,0,0,31.63-5.08q2.55-1,5-2.32a74.73,74.73,0,0,0,10.54-6.78,38,38,0,0,0,8.76-9c2.29-3.39,4.16-7.05,6.22-10.58a37.39,37.39,0,0,1,6.86-9.17,13,13,0,0,0,2.72-2.86,9.58,9.58,0,0,0,.85-5.23c-.23-3.8-1.88-7.36-3.68-10.64s-4-6.58-5.73-10a24.49,24.49,0,0,1-1.88-4.88,14.92,14.92,0,0,1-.2-5.41,41.78,41.78,0,0,0,.63-4.72,6.49,6.49,0,0,0-1.64-4.48,12.58,12.58,0,0,0-7.91-4.14c-6.3-.76-12.69,2.09-18.27,4.63-3,1.36-5.91,2.81-8.91,4.11a36.05,36.05,0,0,1-8.06,2.7,52.5,52.5,0,0,1-12.34.17c-4.84-.32-9.67-.83-14.52-.9-9.43-.13-18.9,2-28.31.88a29.44,29.44,0,0,1-7.56-2.22C260.8,418.32,255,415,248.68,413c-5.55-1.83-12.09-2.74-16.93,1.31a7.83,7.83,0,0,0-2.92,4.31,12.24,12.24,0,0,0,.24,4.51,20,20,0,0,1,.36,5.4A17.82,17.82,0,0,1,228,433.54Zm112.76,6.56a1.7,1.7,0,0,1,.06-.31,39.11,39.11,0,0,1,5.41-10.47c3.16-4.22,6-7.86,10.57-10.53,1.93-1.12,3.69-2.06,4.91.57.91,2,.66,4.48.52,6.62-.33,5.26-3.76,8.25-8.44,10.15a46.17,46.17,0,0,0-7.47,3.75,11.47,11.47,0,0,1-4,2,1.36,1.36,0,0,1-1.59-1.4C340.73,440.35,340.73,440.23,340.74,440.1Zm-99.27-20.74c1.21-2.63,3-1.69,4.9-.57,4.6,2.67,7.42,6.31,10.58,10.53a39.7,39.7,0,0,1,5.41,10.47,1.12,1.12,0,0,1,.05.31c0,.13,0,.25,0,.36a1.36,1.36,0,0,1-1.58,1.4,11.3,11.3,0,0,1-4-2,46.27,46.27,0,0,0-7.48-3.75c-4.67-1.9-8.1-4.89-8.44-10.15C240.8,423.84,240.56,421.33,241.47,419.36Z" transform="translate(-48.24 -129.4)"/><path class="cls-7" d="M248.64,498.47a82.62,82.62,0,0,1-8.57-6.09,37.58,37.58,0,0,1-8.24-9.61c-2.22-3.54-4.09-7.29-6.3-10.84A37.24,37.24,0,0,0,222,467c-1.07-1.22-2.34-2.2-3.48-3.34-2.53-2.53-2.8-6.15-2.3-9.54.58-3.88,2.38-7.49,4.3-10.87s4.12-6.63,5.71-10.18a15,15,0,0,0,1.45-5.3,25.56,25.56,0,0,0-.52-5.23,11.51,11.51,0,0,1,0-4.82,9.36,9.36,0,0,1,3-4.44,14.66,14.66,0,0,1,8.25-3.59c6.49-.68,13,2.18,18.78,4.8,3.11,1.41,6.16,2.93,9.3,4.28a29.84,29.84,0,0,0,8,2.52,68.59,68.59,0,0,0,13.44-.09c5.05-.39,10.1-.87,15.18-.78,4.9.09,9.78.61,14.67.92,4,.26,8.25.58,12.19-.28a42.38,42.38,0,0,0,8.35-3c6.16-2.78,12.24-6.12,18.87-7.68,6.11-1.45,13-.82,17.2,4.43a8.1,8.1,0,0,1,1.82,4.74,24.52,24.52,0,0,1-.55,4.9,13.48,13.48,0,0,0,.13,5.55,23.51,23.51,0,0,0,2,5c3.52,6.8,9.06,13.32,9.29,21.32a11.13,11.13,0,0,1-1,5.34,10.48,10.48,0,0,1-2.58,3,37.23,37.23,0,0,0-7.16,9.33c-2.11,3.6-4,7.34-6.36,10.79a39.06,39.06,0,0,1-3.91,4.88,41.48,41.48,0,0,1-4.88,4.19,78.75,78.75,0,0,1-6.71,4.66c4-1.49,8-3.16,11.87-5a73.73,73.73,0,0,0,16.4-10.1,59.88,59.88,0,0,0,12.59-14.26,39.52,39.52,0,0,0,5.87-18.19c.92-13.45-3.7-26.54-9-38.69-5.42-12.52-11.68-25-13.18-38.79v-.18c0-.07-.05-.15-.08-.23-.21-.68-.25-1.44-.4-2.14-.09-.45.58-.79.78-.33.31.71.75,1.33,1.07,2l0,.1a.67.67,0,0,1,.33.51,2.93,2.93,0,0,1,.05.29c.16.34.31.68.48,1a36.11,36.11,0,0,0,2.1,3.74,39.56,39.56,0,0,0,5,6.35,43.65,43.65,0,0,0,12.68,8.74,17.31,17.31,0,0,0,4.28,1.4,10.86,10.86,0,0,0,4.57-.26,19.7,19.7,0,0,0,7.77-3.95,9.79,9.79,0,0,0,2.5-3.14,12,12,0,0,0,1-4.26c.14-1.59.16-3.19.15-4.78a17.89,17.89,0,0,0-.29-4c-.24-1-.52-2-1.71-2a14.54,14.54,0,0,0-4.42.89,37.87,37.87,0,0,1-4.63,1.39A12.47,12.47,0,0,0,409,375c.65.05,1.3.09,2,.11l2.09,0a4.25,4.25,0,0,1,1.84.31.54.54,0,0,1,0,.93,4.52,4.52,0,0,1-2.18.45c-.76,0-1.52,0-2.28,0-1.53,0-3.05-.12-4.57-.29a55,55,0,0,1-16-4.38,51.49,51.49,0,0,1-7.21-3.87c-1.13-.74-2.24-1.51-3.31-2.34a16.42,16.42,0,0,1-3.12-2.76.81.81,0,0,1-.16-.37,1.08,1.08,0,0,1-.14-.51,33.17,33.17,0,0,0-.21-3.86c0-.22-.06-.47-.11-.74s-.1-.64-.16-1a6.33,6.33,0,0,1-.12-.74l-.61-.06a23.49,23.49,0,0,1-10.17-4,33.69,33.69,0,0,1-8.62-9.3,46.2,46.2,0,0,1-6.87-14.62,23,23,0,0,1-.69-7.83,16,16,0,0,1,.81-3.75,19.56,19.56,0,0,1,.8-2,11,11,0,0,1-6.16-4.84,9.05,9.05,0,0,1-1.37-6.07,13.3,13.3,0,0,1,2.72-5.55,28.4,28.4,0,0,0,3.37-5,11.06,11.06,0,0,0,.88-5.08c-4.18,5.13-11.23,5.91-17.42,6.23-8.77.45-17.49-1.15-26.19-2-4.36-.4-8.73-.68-13.1-.69a62.71,62.71,0,0,0-12.24,1,33.46,33.46,0,0,0-10.35,3.91,19.89,19.89,0,0,0-7.18,6.36c-3.22,5.13-2.66,12.87,1.86,17.08,1,.91-.47,2.33-1.46,1.46a12.23,12.23,0,0,1-1.66-1.79,15,15,0,0,1-2.91-7.75c-1,.36-2,.68-3,1.07a17.33,17.33,0,0,0-2.82,1.42,15.19,15.19,0,0,1,.89,2.07,15.91,15.91,0,0,1,.86,3.73c.63,5.36-1.16,10.82-3.44,15.59A54,54,0,0,1,243.16,348a24.05,24.05,0,0,1-14.4,8c-.34.05-.68.08-1,.11a12.06,12.06,0,0,1-.3,1.34,13.32,13.32,0,0,0-.24,1.54,17.76,17.76,0,0,0,0,3.42.83.83,0,0,1-.17.59,1,1,0,0,1-.7,1.13,39.77,39.77,0,0,1-11,.34,33.84,33.84,0,0,1-9.59-2.4,28.13,28.13,0,0,1-7.81-5.07,36.11,36.11,0,0,0-7-5.39c-2.34-1.2-5.52-1.92-7.61.13h0a13,13,0,0,0-1.38,4.91c-.49,4.22-1,8.73.37,12.83a.9.9,0,0,1,.31.83,24,24,0,0,0,3.24,5.25,13.87,13.87,0,0,0,3.87,3.69s0,0,0-.06-.05-.19-.07-.29l0,0a.9.9,0,0,1-.1-1.42,3.44,3.44,0,0,1,6.76-1.11,9.44,9.44,0,0,1,.45,4.28,10.21,10.21,0,0,1-.55,2c1.81.18,3.61.59,5.44.7a14.19,14.19,0,0,0,5.46-1,24.72,24.72,0,0,0,5.37-2.74c1.84-1.19,3.68-2.38,5.49-3.63.86-.61,1.72-1.22,2.55-1.87.64-.5,1.24-1.08,1.89-1.57.3-.79,1.8-.52,1.7.4-.18,1.68-.43,3.35-.74,5-2.58,13.69-9.24,26.16-14.45,38.95-4.91,12.07-8.85,25.6-6.44,38.72,2.32,12.64,11.29,23.27,21.49,30.63a91.16,91.16,0,0,0,17.47,9.37C243.79,496.61,246.21,497.58,248.64,498.47Zm64.65-83.57c-2-.27-4-.49-6-.6-1,0-2-.16-3-.16s-2-.05-3,0a82.89,82.89,0,0,0-12.09.83,61.13,61.13,0,0,0-11.85,2.81,39.62,39.62,0,0,1,11.61-4.17c1-.19,2-.4,3.05-.55l3.08-.39c1-.09,2.06-.15,3.1-.22s2.06-.05,3.1-.08c2.07,0,4.14.09,6.2.28,1,.07,2.05.25,3.08.38s2,.34,3,.53a37.39,37.39,0,0,1,11.6,4.22A55.44,55.44,0,0,0,313.29,414.9Zm41.89-27.11a1.34,1.34,0,0,1,1.63-.93,1.36,1.36,0,0,1,.93,1.63,17.36,17.36,0,0,1-21.66,12.9,17.7,17.7,0,0,1-7.57-4.84,16.89,16.89,0,0,1-2.59-3.63,10.59,10.59,0,0,1-1.37-4.3c0-.86,1.31-1.28,1.69-.46s.55,1.45.88,2.16a17.94,17.94,0,0,0,1,1.93,16.12,16.12,0,0,0,2.85,3.37,15.69,15.69,0,0,0,6.74,3.55,13.41,13.41,0,0,0,7.6-.4A15.19,15.19,0,0,0,355.18,387.79Zm-10.3-29.45c1.43.81,4.58,2.53,5,4.27.41,1.9-4.26.32-5.13.12-1.9-.43-3.79-.79-5.72-1.08s-3.83-.55-5.74-.86c-1.4-.23-1.46-1.4-.77-2.45,1.49-2.25,5.07-2.5,7.48-2A17.44,17.44,0,0,1,344.88,358.34ZM343,297.81c-1.74,1.61-3.69,3-5.54,4.45-2.85,2.27-5.9,5.13-6.57,8.89a6.12,6.12,0,0,0,3.76,6.83,1.09,1.09,0,0,1,.77,1.18,1.08,1.08,0,0,1-1.06.94,6.16,6.16,0,0,1-4.73-3.72A8.82,8.82,0,0,1,329,311a12.25,12.25,0,0,1,2.83-5.49c3-3.44,7.32-5.26,10.72-8.17C342.85,297,343.34,297.51,343,297.81Zm-10.2-2.25a.36.36,0,0,1,.51.5,21.74,21.74,0,0,1-7,5,71.67,71.67,0,0,1-6.88,2.92,25.48,25.48,0,0,0-6.38,3.16,10.9,10.9,0,0,0-3.73,5.58,9.89,9.89,0,0,0-.44,3.5,10.05,10.05,0,0,0,1,3.36,1.12,1.12,0,0,1-1.93,1.13,8.23,8.23,0,0,1-1.31-4.32,11.89,11.89,0,0,1,.61-4.43,12.15,12.15,0,0,1,4.59-6.35,24.93,24.93,0,0,1,6.85-2.94,69.19,69.19,0,0,0,7.27-2.62A27.65,27.65,0,0,0,332.8,295.56Zm-55,17.51a18.24,18.24,0,0,1,1.78-6,16.05,16.05,0,0,1,7-6.92,28.36,28.36,0,0,1,11.41-2.6c4.49-.25,9,0,13.48-.07,3.69-.07,7.7-.26,11.07-1.95a.36.36,0,0,1,.36.62c-3.49,2.18-8,2.29-12,2.42-4.38.14-8.78.09-13.15.54a25.46,25.46,0,0,0-10.56,3.05,14.51,14.51,0,0,0-6,6.81,16.65,16.65,0,0,0-1.15,4.88,36.11,36.11,0,0,0,.34,6.32c.12,1.29-1.89,1.49-2.2.3A20.08,20.08,0,0,1,277.78,313.07Zm-24.25,49.69c.33-1.75,3.28-3.38,4.69-4.23a17.46,17.46,0,0,1,4.86-2.15c2.4-.54,6-.39,7.53,1.82.73,1,.69,2.2-.7,2.47-1.9.36-3.81.68-5.71,1s-3.81.74-5.7,1.22C257.64,363.13,253.17,364.66,253.53,362.76Zm-6.95,24.1a1.34,1.34,0,0,1,1.63.93,14.51,14.51,0,0,0,4.23,7.52,14.32,14.32,0,0,0,14.18,3.59,16,16,0,0,0,6.51-4,16.21,16.21,0,0,0,2.39-3.13c.67-1.16,1.08-2.41,1.63-3.62.38-.82,1.73-.4,1.69.46a11.11,11.11,0,0,1-1.67,4.85,17.24,17.24,0,0,1-19.83,7.86,17.77,17.77,0,0,1-11.69-12.84A1.36,1.36,0,0,1,246.58,386.86Z" transform="translate(-48.24 -129.4)"/><path class="cls-9" d="M194.1,375.46a1.74,1.74,0,0,0-2.25-.17,2.25,2.25,0,0,0-1.22,2.06,1,1,0,0,1,.32.92,3.71,3.71,0,0,0,.12.86,3.62,3.62,0,0,1,0,.93,5.07,5.07,0,0,1-.58,1.84,7.38,7.38,0,0,1-2.71,2.78,8.05,8.05,0,0,1-7.1.8,6.37,6.37,0,0,1-3.26-4.2,7.26,7.26,0,0,1,4.26-8.51,16.61,16.61,0,0,1-.79-1.71,8,8,0,0,0-3.78,2.18,10,10,0,0,0-2.46,5,9.76,9.76,0,0,0,3.86,9.67,10.12,10.12,0,0,0,5.2,1.76,10.72,10.72,0,0,0,5.09-1.14,11.55,11.55,0,0,0,3.72-2.7,12.13,12.13,0,0,0,2.49-4.55,7,7,0,0,0,.16-3.27A4.2,4.2,0,0,0,194.1,375.46Z" transform="translate(-48.24 -129.4)"/><path class="cls-8" d="M227,354.16a21.08,21.08,0,0,0,10-3.35c3.56-2.22,6.18-5.49,8.52-8.92a44.58,44.58,0,0,0,6.78-14.3,21,21,0,0,0,.61-7.48,14.27,14.27,0,0,0-.88-3.53,11.51,11.51,0,0,0-.83-1.69l-.1-.17a1,1,0,0,1-.3-.31l0,0-.16-.08-.24-.11L250,314c-.79-.31-1.6-.59-2.4-.88a57,57,0,0,1-7.08-3.09,35.41,35.41,0,0,1-15.18-15,40,40,0,0,1-4-14.22c-.74-7.16.32-14.33.69-21.48a40.6,40.6,0,0,0-1.47-6,51.48,51.48,0,0,0-2.4,5.79c-.54-3-.14-7-.65-10.36-.69,7.09-4.66,12-7.22,19,1-6.73,2.21-13.38,1.6-20.18a40.81,40.81,0,0,1-1.68,4.41c-.79,3.19-1.72,6.35-2.62,9.51a93.49,93.49,0,0,1-3.87,10.78c-2.89,6.92-6.24,13.66-8.65,20.78A55.47,55.47,0,0,0,192,313.65a44,44,0,0,0,11,26.76,49.44,49.44,0,0,0,13.38,10.67C219.66,352.93,223.13,354.34,227,354.16Zm-1.79-3.57c-.33-.08-.66-.16-1-.26a33.65,33.65,0,0,1-3.89-1.33c-1.28-.5-2.52-1.1-3.75-1.72s-2.4-1.34-3.56-2.09a41.59,41.59,0,0,1-6.44-5.19,39,39,0,0,1-5.23-6.43,41.1,41.1,0,0,1-3.72-7.41l-.67-2c-.21-.66-.37-1.33-.56-2-.09-.33-.19-.66-.27-1l-.2-1c-.13-.68-.29-1.35-.38-2a52,52,0,0,1,.22-16.38,64,64,0,0,0,.8,16.2,45.91,45.91,0,0,0,2.24,7.73,40.71,40.71,0,0,0,3.65,7.14,39.26,39.26,0,0,0,5,6.26,44.37,44.37,0,0,0,6.13,5.22,47.16,47.16,0,0,0,7,4.08,38.35,38.35,0,0,0,3.74,1.57l1,.34c.32.11.65.21,1,.3a9.66,9.66,0,0,0,2,.42,9.45,9.45,0,0,1-2-.23C225.88,350.75,225.54,350.68,225.21,350.59Z" transform="translate(-48.24 -129.4)"/><path class="cls-7" d="M276.43,645.72c0-.25-.08-.5-.11-.75a.5.5,0,0,1,0-.12.49.49,0,0,1,0-.12,24.08,24.08,0,0,1-.23-3.4c0-.57,0-1.14,0-1.71a10.29,10.29,0,0,1,1.26-4.75c.24-.38.48-.77.75-1.14l.09-.14c-1.26-.73-2.51-1.49-3.73-2.29a52.59,52.59,0,0,1-7.2-5.68,87.24,87.24,0,0,1-6.56-7.16c-5-6-9.45-12.51-15-18a45.45,45.45,0,0,0-6.35-5.24l-.87-.58c-.71-.46-1.45-.91-2.19-1.33a57,57,0,0,0-11-4.75,35.64,35.64,0,0,0-9.66-1.76,18.25,18.25,0,0,0-9.06,1.75c-5.94,3.11-8,10.19-7.8,16.48a34,34,0,0,0,1.95,10,84.21,84.21,0,0,0,4.48,10.32,54.16,54.16,0,0,0,13.72,17.53,50.74,50.74,0,0,0,7.77,5.22q1.74,1,3.54,1.77l.8.35.27.1.34.14c.47.19.95.37,1.43.54a55.55,55.55,0,0,0,8.74,2,126.06,126.06,0,0,0,13,1.6,129.54,129.54,0,0,0,24.51-.6,11.42,11.42,0,0,1-1.8-3.61A32.46,32.46,0,0,1,276.43,645.72Z" transform="translate(-48.24 -129.4)"/><path class="cls-7" d="M411.38,564.88a43.3,43.3,0,0,1-10.94-15c-2.43-5.17-4.3-10.58-6.31-15.92-1.82-4.82-3.65-9.64-5.86-14.31a75.9,75.9,0,0,0-7.74-13,67.08,67.08,0,0,0-5.12-6.05c-2-2.08-4.11-4-6.24-5.9q-3.12,1.5-6.32,2.81a147.47,147.47,0,0,1-18.46,6.16c-1.38.56-2.79,1.06-4.22,1.51a83.11,83.11,0,0,1-21,3.23q-3.81.18-7.61.25c-1.54.06-3.07.08-4.6.07-2.74,0-5.48,0-8.22,0h-1.28c-1.91,0-3.81,0-5.72-.11a137.88,137.88,0,0,1-19.79-1.47,65.25,65.25,0,0,1-12.25-3.25c-1.41-.36-2.82-.75-4.22-1.16a140.37,140.37,0,0,1-19.84-7.3l-1.56-.74c-2.38,2.16-4.76,4.29-6.94,6.65a67.41,67.41,0,0,0-5.54,6.85c-5.91,8.4-9.54,18-13.12,27.56a159.43,159.43,0,0,1-6.56,16,41.57,41.57,0,0,1-10,13.11c.85,1.46,1.67,3,2.43,4.46,1.47,2.93,3.85,9.69,3.7,9.95a4.22,4.22,0,0,1,0,.87,79.36,79.36,0,0,0,9.28-3.76,69.77,69.77,0,0,0,14.33-9.25c2.08-1.75,4.06-3.61,6-5.54,1-1,1.92-1.94,2.84-3s1.85-2,2.84-3a.59.59,0,0,1,.81,0,.76.76,0,0,1,.36.55c.4,3.06.73,6.12,1.07,9.19.52,4.69,1.07,9.38,1.83,14,.79,4.83,1.83,9.62,3.08,14.35l.55.37a52.8,52.8,0,0,1,8.95,8.21c1.32,1.49,2.58,3,3.82,4.58-.43-1.5-.85-3-1.24-4.51-1.14-4.3-2.12-8.65-2.9-13-.67-3.72-1.27-7.48-1.59-11.25a64,64,0,0,1,3.64-26.95,62.18,62.18,0,0,1,14.3-22.83A56.65,56.65,0,0,1,287.16,515a47.15,47.15,0,0,1,24.43-2,42,42,0,0,1,21.5,11.76,56.83,56.83,0,0,1,13.1,21.34,81.69,81.69,0,0,1,4.06,22,119,119,0,0,1-1.12,25.51,86.81,86.81,0,0,1-5.93,21.29c4.59-5.69,8.83-11.74,14.18-16.76a45,45,0,0,1,5.43-4.33c.72-2.73,1.38-5.49,2-8.26,2-9.7,2.75-19.56,4-29.36a.76.76,0,0,1,.36-.55.59.59,0,0,1,.81,0c1.14,1.1,2.17,2.3,3.25,3.46s2.1,2.18,3.17,3.24a74.3,74.3,0,0,0,12.77,10.29,75.91,75.91,0,0,0,16,7.51,3.66,3.66,0,0,1,0-.81l0-.08a11.25,11.25,0,0,1,.72-3.14,76.91,76.91,0,0,1,4.15-9C410.52,566.38,411,565.63,411.38,564.88Z" transform="translate(-48.24 -129.4)"/><path class="cls-7" d="M363.87,595.21c-.61.41-1.22.83-1.8,1.28a54.08,54.08,0,0,0-8.38,8.12c-5,5.76-9.34,12-14.46,17.64a54.8,54.8,0,0,1-6.54,6.21,62.48,62.48,0,0,1-7.67,5.13v0l.14.22a8.67,8.67,0,0,1,1.59,3.2,19.56,19.56,0,0,1,.42,4.64c0,.45,0,.9-.05,1.34,0,.16,0,.31-.05.47l0,.32a40.72,40.72,0,0,1-.74,4.53,19,19,0,0,1-1.33,4.09,8.06,8.06,0,0,1-1,1.59c1.5.18,3,.34,4.49.46a130.1,130.1,0,0,0,26.47-.49,122.54,122.54,0,0,0,12.9-2.26,23,23,0,0,0,2.29-.67c.47-.17.95-.34,1.42-.53.63-.25.78-.31,1.39-.58a50.14,50.14,0,0,0,15.32-10.6c5.33-5.4,9.16-12.05,12.16-19a51.54,51.54,0,0,0,3.47-10.15,27.79,27.79,0,0,0,.35-10,17.64,17.64,0,0,0-3.87-8.79,13.57,13.57,0,0,0-7.86-4.3c-6.72-1.3-13.83.84-20,3.43a52.18,52.18,0,0,0-7.77,4.06C364.5,594.81,364.33,594.92,363.87,595.21Z" transform="translate(-48.24 -129.4)"/><path class="cls-7" d="M394.1,224.28a.37.37,0,0,1,0,.11l.09-.15Z" transform="translate(-48.24 -129.4)"/><path class="cls-6" d="M302.74,640.23a8.79,8.79,0,0,1,2.07-4,18.43,18.43,0,0,1,8-5.23,12.94,12.94,0,0,1,8.42-.41,7.08,7.08,0,0,1,2.77,1.77c1.35-.82,2.68-1.66,4-2.54a52.64,52.64,0,0,0,7.17-5.81c1.76-1.72,3.4-3.55,5-5.42l.05-.11c1-1.87,1.84-3.79,2.63-5.74a92.87,92.87,0,0,0,5.95-25.57,118.62,118.62,0,0,0-.1-24.2,69.88,69.88,0,0,0-5.63-21.69,52,52,0,0,0-14.95-19.47,39.84,39.84,0,0,0-22.57-8.44,49.29,49.29,0,0,0-23.73,5.1A55.77,55.77,0,0,0,262.4,534a63.6,63.6,0,0,0-13.5,37.51,71.58,71.58,0,0,0,.88,12.32,176,176,0,0,0,5.86,25.52l1.8,2.31c2.36,3,4.77,6,7.32,8.84a59.64,59.64,0,0,0,6.59,6.42,69.53,69.53,0,0,0,7.87,5.42,7.19,7.19,0,0,1,1-.86,8.37,8.37,0,0,1,3.84-1.36,15.92,15.92,0,0,1,8.68,1.82c2.74,1.33,5.56,3.39,7,6.15a7.35,7.35,0,0,1,.81,4.53,10,10,0,0,1-1.78,4.13h2.45c1.06,0,2.13-.08,3.2-.08a11.32,11.32,0,0,1-1-1.79A7.65,7.65,0,0,1,302.74,640.23Z" transform="translate(-48.24 -129.4)"/><path class="cls-10" d="M471.46,442.32H471" transform="translate(-48.24 -129.4)"/><path class="cls-5" d="M342.31,441.86a11.47,11.47,0,0,0,4-2,46.17,46.17,0,0,1,7.47-3.75c4.68-1.9,8.11-4.89,8.44-10.15.14-2.14.39-4.65-.52-6.62-1.22-2.63-3-1.69-4.91-.57-4.6,2.67-7.41,6.31-10.57,10.53a39.11,39.11,0,0,0-5.41,10.47,1.7,1.7,0,0,0-.06.31c0,.13,0,.25,0,.36A1.36,1.36,0,0,0,342.31,441.86Z" transform="translate(-48.24 -129.4)"/><path class="cls-5" d="M258.5,362.91c1.89-.48,3.77-.89,5.7-1.22s3.81-.66,5.71-1c1.39-.27,1.43-1.43.7-2.47-1.55-2.21-5.13-2.36-7.53-1.82a17.46,17.46,0,0,0-4.86,2.15c-1.41.85-4.36,2.48-4.69,4.23C253.17,364.66,257.64,363.13,258.5,362.91Z" transform="translate(-48.24 -129.4)"/><path class="cls-5" d="M226.26,350.62c-.32-.09-.65-.19-1-.3l-1-.34a38.35,38.35,0,0,1-3.74-1.57,47.16,47.16,0,0,1-7-4.08,44.37,44.37,0,0,1-6.13-5.22,39.26,39.26,0,0,1-5-6.26,40.71,40.71,0,0,1-3.65-7.14,45.91,45.91,0,0,1-2.24-7.73,64,64,0,0,1-.8-16.2,52,52,0,0,0-.22,16.38c.09.68.25,1.35.38,2l.2,1c.08.34.18.67.27,1,.19.67.35,1.34.56,2l.67,2a41.1,41.1,0,0,0,3.72,7.41,39,39,0,0,0,5.23,6.43,41.59,41.59,0,0,0,6.44,5.19c1.16.75,2.35,1.44,3.56,2.09s2.47,1.22,3.75,1.72a33.65,33.65,0,0,0,3.89,1.33c.33.1.66.18,1,.26s.67.16,1,.22a9.45,9.45,0,0,0,2,.23A9.66,9.66,0,0,1,226.26,350.62Z" transform="translate(-48.24 -129.4)"/><path class="cls-5" d="M249.38,436.13a46.27,46.27,0,0,1,7.48,3.75,11.3,11.3,0,0,0,4,2,1.36,1.36,0,0,0,1.58-1.4c0-.11,0-.23,0-.36a1.12,1.12,0,0,0-.05-.31A39.7,39.7,0,0,0,257,429.32c-3.16-4.22-6-7.86-10.58-10.53-1.93-1.12-3.69-2.06-4.9.57-.91,2-.67,4.48-.53,6.62C241.28,431.24,244.71,434.23,249.38,436.13Z" transform="translate(-48.24 -129.4)"/><path class="cls-5" d="M332.48,358.34c-.69,1.05-.63,2.22.77,2.45,1.91.31,3.82.58,5.74.86s3.82.65,5.72,1.08c.87.2,5.54,1.78,5.13-.12-.38-1.74-3.53-3.46-5-4.27a17.44,17.44,0,0,0-4.92-2C337.55,355.84,334,356.09,332.48,358.34Z" transform="translate(-48.24 -129.4)"/><path class="cls-5" d="M311.8,305.61a12.15,12.15,0,0,0-4.59,6.35,11.89,11.89,0,0,0-.61,4.43,8.23,8.23,0,0,0,1.31,4.32,1.12,1.12,0,0,0,1.93-1.13,10.05,10.05,0,0,1-1-3.36,9.89,9.89,0,0,1,.44-3.5,10.9,10.9,0,0,1,3.73-5.58,25.48,25.48,0,0,1,6.38-3.16,71.67,71.67,0,0,0,6.88-2.92,21.74,21.74,0,0,0,7-5,.36.36,0,0,0-.51-.5,27.65,27.65,0,0,1-6.88,4.49,69.19,69.19,0,0,1-7.27,2.62A24.93,24.93,0,0,0,311.8,305.61Z" transform="translate(-48.24 -129.4)"/><path class="cls-5" d="M280.33,320.14a36.11,36.11,0,0,1-.34-6.32,16.65,16.65,0,0,1,1.15-4.88,14.51,14.51,0,0,1,6-6.81,25.46,25.46,0,0,1,10.56-3.05c4.37-.45,8.77-.4,13.15-.54,4-.13,8.53-.24,12-2.42a.36.36,0,0,0-.36-.62c-3.37,1.69-7.38,1.88-11.07,1.95-4.5.09-9-.18-13.48.07a28.36,28.36,0,0,0-11.41,2.6,16.05,16.05,0,0,0-7,6.92,18.24,18.24,0,0,0-1.78,6,20.08,20.08,0,0,0,.35,7.37C278.44,321.63,280.45,321.43,280.33,320.14Z" transform="translate(-48.24 -129.4)"/><path class="cls-5" d="M331.79,305.49A12.25,12.25,0,0,0,329,311a8.82,8.82,0,0,0,.67,5.4,6.16,6.16,0,0,0,4.73,3.72,1.08,1.08,0,0,0,1.06-.94,1.09,1.09,0,0,0-.77-1.18,6.12,6.12,0,0,1-3.76-6.83c.67-3.76,3.72-6.62,6.57-8.89,1.85-1.48,3.8-2.84,5.54-4.45.34-.3-.15-.78-.49-.49C339.11,300.23,334.75,302.05,331.79,305.49Z" transform="translate(-48.24 -129.4)"/><path class="cls-5" d="M377.94,350.59c.34-.08.67-.16,1-.26a33.65,33.65,0,0,0,3.89-1.33c1.28-.5,2.51-1.1,3.74-1.72s2.41-1.34,3.56-2.09a41.12,41.12,0,0,0,6.44-5.19,38.55,38.55,0,0,0,5.24-6.43,40.41,40.41,0,0,0,3.71-7.41l.68-2c.2-.66.37-1.33.56-2,.08-.33.18-.66.26-1l.21-1c.12-.68.28-1.35.38-2a52,52,0,0,0-.22-16.38,65,65,0,0,1-.8,16.2,45.91,45.91,0,0,1-2.24,7.73,40.76,40.76,0,0,1-3.66,7.14,38.65,38.65,0,0,1-5,6.26,45,45,0,0,1-6.13,5.22,47.68,47.68,0,0,1-7,4.08,38.53,38.53,0,0,1-3.75,1.57c-.31.12-.63.23-1,.34s-.64.21-1,.3a9.66,9.66,0,0,1-2,.42,9.31,9.31,0,0,0,2-.23C377.28,350.75,377.61,350.68,377.94,350.59Z" transform="translate(-48.24 -129.4)"/><path class="cls-5" d="M310.47,413c-1-.13-2.05-.31-3.08-.38-2.06-.19-4.13-.26-6.2-.28-1,0-2.07,0-3.1.08s-2.07.13-3.1.22l-3.08.39c-1,.15-2,.36-3.05.55a39.62,39.62,0,0,0-11.61,4.17,61.13,61.13,0,0,1,11.85-2.81,82.89,82.89,0,0,1,12.09-.83c1,0,2,0,3,0s2,.12,3,.16c2,.11,4,.33,6,.6a55.44,55.44,0,0,1,11.83,2.85,37.39,37.39,0,0,0-11.6-4.22C312.51,413.34,311.5,413.11,310.47,413Z" transform="translate(-48.24 -129.4)"/><path class="cls-5" d="M426.94,573.56a22.2,22.2,0,0,0-1.17-6.3,20,20,0,0,0-3.7-6.83c-1.55-1.78-4.44-4-6.62-1.79a14.51,14.51,0,0,0-1.48,2.08c-.44.67-.87,1.34-1.29,2a40.48,40.48,0,0,1-9.35-12.53,163,163,0,0,1-6.39-15.77c-3.63-9.67-7.43-19.41-13.5-27.85a67.26,67.26,0,0,0-12.11-13,68.48,68.48,0,0,0,9.14-5.55c10.43-7.57,19.7-18.39,22.22-31.34,2.59-13.38-1.1-27.22-6.1-39.6s-11.44-24.27-14.49-37.34a33.58,33.58,0,0,0,4.1,5.46A45.06,45.06,0,0,0,399.48,395a22,22,0,0,0,4.84,1.84,13.12,13.12,0,0,0,5.26.08,19.84,19.84,0,0,0,4.95-1.69,21.33,21.33,0,0,0,3.91-2.3,13.31,13.31,0,0,0,3.24-3.37,11.83,11.83,0,0,0,1.65-4.54,34.77,34.77,0,0,0,.35-5.2,32.16,32.16,0,0,0-.25-5,6.27,6.27,0,0,0-1.41-3.46c-1.13-1.15-2.9-.92-4.32-.61a42,42,0,0,0-4.92,1.45,21.42,21.42,0,0,0-2.44,1,19.88,19.88,0,0,1-2.34,1,19.34,19.34,0,0,1-1.92.6,51.92,51.92,0,0,1-6.77-1.33,53.94,53.94,0,0,1-14.51-6.18c-1.26-.77-2.47-1.59-3.65-2.47-.58-.44-1.15-.89-1.71-1.36s-.84-.74-1.29-1.09a30.63,30.63,0,0,0-.45-4,16.4,16.4,0,0,0-.43-1.81l-.09-.3a20.32,20.32,0,0,0,8.6-2.27,51.13,51.13,0,0,0,15.07-11.25,47.29,47.29,0,0,0,7.62-11,45.76,45.76,0,0,0,4.45-15.65,54.13,54.13,0,0,0-2.06-20.44c-2.16-7.4-5.54-14.35-8.61-21.39-1.52-3.51-3-7-4.16-10.68s-2.24-7.49-3.24-11.26C393,245.25,392,238,393.4,230.94a17.75,17.75,0,0,1,3.09-7.75l.15-.06c1-.37.58-2-.45-1.65-6.19,2.22-10.74,7.27-13.45,13.15-3.26,7.07-3.77,14.94-3.5,22.63.26,7.47,1.46,15,.87,22.45A38.67,38.67,0,0,1,376.32,294a31.57,31.57,0,0,1-7.06,9.28,37.19,37.19,0,0,1-8.07,5.46c-.63.32-1.27.62-1.92.92l-.91.4-.32.14-.41.17c-1,.42-2.06.81-3.1,1.19-.74.26-1.49.52-2.21.82a8.33,8.33,0,0,0-.81.36,9.31,9.31,0,0,1-5.75-3.82,8.53,8.53,0,0,1-1.24-2.73,5.1,5.1,0,0,1-.2-1.19,4.56,4.56,0,0,1,0-.64c0-.09,0-.17,0-.26v0s0-.12,0-.14a13.4,13.4,0,0,1,2.54-5.14,27.67,27.67,0,0,0,3.24-4.94,15.35,15.35,0,0,0,.84-8.74c-.13-.85-1.32-.84-1.72-.22a13.54,13.54,0,0,1-6.85,5.41,34,34,0,0,1-9.33,1.64c-8.9.61-17.75-1-26.58-1.85-4.43-.43-8.87-.73-13.32-.76a68.78,68.78,0,0,0-12.66.89,35.34,35.34,0,0,0-10.89,3.91,24.19,24.19,0,0,0-7.92,6.53,16,16,0,0,0-3,9.17c-1.22.33-2.44.75-3.62,1.18a19,19,0,0,0-3.52,1.69c-.27-.13-.55-.24-.81-.35-1.77-.72-3.6-1.3-5.36-2l-.32-.13-.42-.18-.92-.41c-.65-.3-1.29-.61-1.93-.93a40.73,40.73,0,0,1-4.08-2.4,32.36,32.36,0,0,1-7.74-7.18,33.22,33.22,0,0,1-5.67-11.72,53.54,53.54,0,0,1-1.23-17.62c.58-8.55,1.5-17.18.14-25.71-1-6.5-3.77-13-8.5-17.66a21.26,21.26,0,0,0-7.79-4.93c-1-.37-1.48,1.28-.46,1.65l.15.06c1.82,2.25,2.61,5.25,3.15,8a38.47,38.47,0,0,1,.45,10.22,59.19,59.19,0,0,1-2,11c-1,3.76-2,7.55-3.26,11.25-2.41,7.29-5.85,14.18-8.83,21.24s-5.3,14.14-5.94,21.72a48.16,48.16,0,0,0,1.73,17.87,44.93,44.93,0,0,0,6.48,13.22,50.16,50.16,0,0,0,7.93,8.73,48.74,48.74,0,0,0,6.19,4.61,53.56,53.56,0,0,0,5.17,2.89,19.94,19.94,0,0,0,8.17,2.09c-.09.27-.16.55-.23.79a12.66,12.66,0,0,0-.39,1.7,17.53,17.53,0,0,0-.25,3.69,36.31,36.31,0,0,1-18.57-2.15,30.62,30.62,0,0,1-7.79-5c-2.32-1.9-4.61-4-7.39-5.25a10.53,10.53,0,0,0-4.9-1,5,5,0,0,0-3.09,1.21c-1.9,1-2.45,3.28-2.76,5.23a65.87,65.87,0,0,0-.76,7,23.79,23.79,0,0,0,.67,7.28v0a9.37,9.37,0,0,0-4,2.18,11.48,11.48,0,0,0-3,5.1,11.26,11.26,0,0,0,4,12,11.43,11.43,0,0,0,6.21,2.2,13.56,13.56,0,0,0,10.39-4.67,14.11,14.11,0,0,0,1.74-2.71,22.51,22.51,0,0,0,5.25,1.22,14.55,14.55,0,0,0,5.82-.66,21.84,21.84,0,0,0,5.8-2.68c1.87-1.23,3.76-2.44,5.61-3.71,1.05-.72,2.08-1.46,3.08-2.23l.7-.53c-2.31,13.13-8.26,25.16-13.46,37.36-5.28,12.36-9.85,25.71-8.7,39.36a41.65,41.65,0,0,0,6.11,18.52,61.42,61.42,0,0,0,13,14.71,70.15,70.15,0,0,0,7.83,5.66c1.68,1,3.43,2,5.2,2.88A67.44,67.44,0,0,0,221,505a75.18,75.18,0,0,0-7.88,13c-2.28,4.72-4.2,9.61-6.06,14.5-2,5.29-3.83,10.67-6.21,15.8a42.37,42.37,0,0,1-10.25,14.41c-.42-.68-.85-1.35-1.29-2-.88-1.33-1.7-2.88-3.48-3a4.85,4.85,0,0,0-3.24,1.37,16.39,16.39,0,0,0-4.44,6.47,24.17,24.17,0,0,0-1.7,6.42c-.25,2.11-.23,4.49,1,6.32a13,13,0,0,0,2.42,2.56,14.61,14.61,0,0,0,3.37,2.23,18.73,18.73,0,0,0,8.11,1.67,11.79,11.79,0,0,0,3.59-.49,4.19,4.19,0,0,0,2.05-1.54,5.9,5.9,0,0,0,.63-.15,78.88,78.88,0,0,0,17.54-8.17,71.42,71.42,0,0,0,13-10.8c1.06-1.12,2.07-2.28,3.08-3.45.67-.78,1.33-1.57,2-2.39A204.6,204.6,0,0,0,236.47,586c.41,2.05.87,4.09,1.36,6.13a56.49,56.49,0,0,0-7.83-3.79c-6.4-2.55-13.64-4.52-20.54-3a15,15,0,0,0-8.25,4.84,19.63,19.63,0,0,0-4.23,9.34,30.41,30.41,0,0,0,.17,10.72,50.59,50.59,0,0,0,3.5,10.59c3,7.19,6.95,14.09,12.39,19.75a52,52,0,0,0,15.84,11.25,31.63,31.63,0,0,0,5.72,2.1,120.41,120.41,0,0,0,13.05,2.31,130.34,130.34,0,0,0,27,.58q3.3-.27,6.57-.72l.56,0a5.22,5.22,0,0,0,1.23.4c3.21.8,6.44-.53,9-2.48a28,28,0,0,0,3.53-3.35c.8-.87,1.6-1.75,2.34-2.68.45,0,.92,0,1.35,0l2,0c1.34,0,2.71.07,4,0l.12,0c.25.31.5.61.76.91,1.05,1.22,2.12,2.43,3.29,3.55,2.31,2.23,5.16,4.15,8.46,4.31a6.68,6.68,0,0,0,3.44-.65c.26,0,.51,0,.69.07a130.34,130.34,0,0,0,27,.8,135.19,135.19,0,0,0,13.62-1.74,43.89,43.89,0,0,0,23.69-11A56.22,56.22,0,0,0,400.25,626a84.52,84.52,0,0,0,4.53-10.7,35.43,35.43,0,0,0,1.88-10.55c.11-6.73-2.28-14.24-8.49-17.71-5.93-3.31-13.44-2.42-19.68-.55a59.37,59.37,0,0,0-13.11,5.68c1-4.06,1.83-8.17,2.48-12.3.75-4.78,1.25-9.59,1.66-14.4q.33-3.84.57-7.7a61.58,61.58,0,0,0,4.33,5.05,77.17,77.17,0,0,0,6,5.76A67.85,67.85,0,0,0,395,578.28a84.86,84.86,0,0,0,10.62,4.3,3.64,3.64,0,0,0,.61.14,2.43,2.43,0,0,0,.24.3,5.32,5.32,0,0,0,3.56,1.6,18.64,18.64,0,0,0,7.92-.73,16,16,0,0,0,6.8-4.31,7.6,7.6,0,0,0,1.74-2.7A9.08,9.08,0,0,0,426.94,573.56ZM394.1,224.28l.08,0-.09.15A.37.37,0,0,0,394.1,224.28Zm-185.13,0,.08,0s0,.07,0,.11ZM350.3,319.9a12.72,12.72,0,0,1,1.76-5.14l.2-.31.05,0,.31-.16.27-.12.33-.13c1.93-.74,3.88-1.41,5.78-2.22A38.31,38.31,0,0,0,374.71,300c6.18-8.14,7.88-18.63,7.23-28.61-.26-4-.63-8-.83-12a41.17,41.17,0,0,1,1.47-6,51.48,51.48,0,0,1,2.4,5.79c.54-3,.14-7,.65-10.36.7,7.09,4.67,12,7.23,19-1-6.73-2.22-13.38-1.6-20.18a38.2,38.2,0,0,0,1.66,4.38c.81,3.36,1.8,6.67,2.76,10,4.19,14.45,13.21,27.36,15.1,42.49a47.91,47.91,0,0,1-1,18.05,43.4,43.4,0,0,1-5.93,13.16,47.06,47.06,0,0,1-7.71,8.84,44.05,44.05,0,0,1-6.13,4.7c-4.31,2.75-9,5.33-14.29,4.95a21.78,21.78,0,0,1-14.35-7.42,52.23,52.23,0,0,1-7.86-11.95C351.33,330.23,349.62,325,350.3,319.9Zm-134,31.18A49.44,49.44,0,0,1,203,340.41a44,44,0,0,1-11-26.76,55.47,55.47,0,0,1,3.07-20.59c2.41-7.12,5.76-13.86,8.65-20.78a93.49,93.49,0,0,0,3.87-10.78c.9-3.16,1.83-6.32,2.62-9.51a40.81,40.81,0,0,0,1.68-4.41c.61,6.8-.57,13.45-1.6,20.18,2.56-7,6.53-11.89,7.22-19,.51,3.35.11,7.37.65,10.36a51.48,51.48,0,0,1,2.4-5.79,40.6,40.6,0,0,1,1.47,6c-.37,7.15-1.43,14.32-.69,21.48a40,40,0,0,0,4,14.22,35.41,35.41,0,0,0,15.18,15,57,57,0,0,0,7.08,3.09c.8.29,1.61.57,2.4.88l.34.14.24.11.16.08,0,0a1,1,0,0,0,.3.31l.1.17a11.51,11.51,0,0,1,.83,1.69,14.27,14.27,0,0,1,.88,3.53,21,21,0,0,1-.61,7.48,44.58,44.58,0,0,1-6.78,14.3c-2.34,3.43-5,6.7-8.52,8.92a21.08,21.08,0,0,1-10,3.35C223.13,354.34,219.66,352.93,216.35,351.08ZM195,381.24a12.13,12.13,0,0,1-2.49,4.55,11.55,11.55,0,0,1-3.72,2.7,10.72,10.72,0,0,1-5.09,1.14,10.12,10.12,0,0,1-5.2-1.76,9.76,9.76,0,0,1-3.86-9.67,10,10,0,0,1,2.46-5,8,8,0,0,1,3.78-2.18,16.61,16.61,0,0,0,.79,1.71,7.26,7.26,0,0,0-4.26,8.51,6.37,6.37,0,0,0,3.26,4.2,8.05,8.05,0,0,0,7.1-.8,7.38,7.38,0,0,0,2.71-2.78,5.07,5.07,0,0,0,.58-1.84,3.62,3.62,0,0,0,0-.93,3.71,3.71,0,0,1-.12-.86,1,1,0,0,0-.32-.92,2.25,2.25,0,0,1,1.22-2.06,1.74,1.74,0,0,1,2.25.17,4.2,4.2,0,0,1,1.07,2.51A7,7,0,0,1,195,381.24Zm-12.74-7.44c.46.76,1,1.49,1.49,2.22a15.34,15.34,0,0,0,5.47,5.21h0a5.76,5.76,0,0,1-1.83,1.94,7.14,7.14,0,0,1-5.79,1.09,4.53,4.53,0,0,1-2.72-3,5.79,5.79,0,0,1,.08-4,6,6,0,0,1,1.72-2.47A5.38,5.38,0,0,1,182.27,373.8Zm41.66,112.41c-10.2-7.36-19.17-18-21.49-30.63-2.41-13.12,1.53-26.65,6.44-38.72,5.21-12.79,11.87-25.26,14.45-38.95.31-1.66.56-3.33.74-5,.1-.92-1.4-1.19-1.7-.4-.65.49-1.25,1.07-1.89,1.57-.83.65-1.69,1.26-2.55,1.87-1.81,1.25-3.65,2.44-5.49,3.63a24.72,24.72,0,0,1-5.37,2.74,14.19,14.19,0,0,1-5.46,1c-1.83-.11-3.63-.52-5.44-.7a10.21,10.21,0,0,0,.55-2,9.44,9.44,0,0,0-.45-4.28,3.44,3.44,0,0,0-6.76,1.11.9.9,0,0,0,.1,1.42l0,0c0,.1.06.19.07.29s0,0,0,.06a13.87,13.87,0,0,1-3.87-3.69,24,24,0,0,1-3.24-5.25.9.9,0,0,0-.31-.83c-1.39-4.1-.86-8.61-.37-12.83a13,13,0,0,1,1.38-4.91h0c2.09-2.05,5.27-1.33,7.61-.13a36.11,36.11,0,0,1,7,5.39,28.13,28.13,0,0,0,7.81,5.07,33.84,33.84,0,0,0,9.59,2.4,39.77,39.77,0,0,0,11-.34,1,1,0,0,0,.7-1.13.83.83,0,0,0,.17-.59,17.76,17.76,0,0,1,0-3.42,13.32,13.32,0,0,1,.24-1.54,12.06,12.06,0,0,0,.3-1.34c.34,0,.68-.06,1-.11a24.05,24.05,0,0,0,14.4-8,54,54,0,0,0,8.12-12.33c2.28-4.77,4.07-10.23,3.44-15.59a15.91,15.91,0,0,0-.86-3.73,15.19,15.19,0,0,0-.89-2.07,17.33,17.33,0,0,1,2.82-1.42c1-.39,2-.71,3-1.07a15,15,0,0,0,2.91,7.75,12.23,12.23,0,0,0,1.66,1.79c1,.87,2.44-.55,1.46-1.46-4.52-4.21-5.08-11.95-1.86-17.08a19.89,19.89,0,0,1,7.18-6.36,33.46,33.46,0,0,1,10.35-3.91,62.71,62.71,0,0,1,12.24-1c4.37,0,8.74.29,13.1.69,8.7.82,17.42,2.42,26.19,2,6.19-.32,13.24-1.1,17.42-6.23a11.06,11.06,0,0,1-.88,5.08,28.4,28.4,0,0,1-3.37,5,13.3,13.3,0,0,0-2.72,5.55,9.05,9.05,0,0,0,1.37,6.07,11,11,0,0,0,6.16,4.84,19.56,19.56,0,0,0-.8,2,16,16,0,0,0-.81,3.75,23,23,0,0,0,.69,7.83A46.2,46.2,0,0,0,356,342.71a33.69,33.69,0,0,0,8.62,9.3,23.49,23.49,0,0,0,10.17,4l.61.06a6.33,6.33,0,0,0,.12.74c.06.32.12.64.16,1s.08.52.11.74a33.17,33.17,0,0,1,.21,3.86,1.08,1.08,0,0,0,.14.51.81.81,0,0,0,.16.37,16.42,16.42,0,0,0,3.12,2.76c1.07.83,2.18,1.6,3.31,2.34a51.49,51.49,0,0,0,7.21,3.87,55,55,0,0,0,16,4.38c1.52.17,3,.25,4.57.29.76,0,1.52,0,2.28,0a4.52,4.52,0,0,0,2.18-.45.54.54,0,0,0,0-.93,4.25,4.25,0,0,0-1.84-.31l-2.09,0c-.66,0-1.31-.06-2-.11a12.47,12.47,0,0,1,1.43-.36,37.87,37.87,0,0,0,4.63-1.39,14.54,14.54,0,0,1,4.42-.89c1.19,0,1.47.94,1.71,2a17.89,17.89,0,0,1,.29,4c0,1.59,0,3.19-.15,4.78a12,12,0,0,1-1,4.26,9.79,9.79,0,0,1-2.5,3.14,19.7,19.7,0,0,1-7.77,3.95,10.86,10.86,0,0,1-4.57.26,17.31,17.31,0,0,1-4.28-1.4,43.65,43.65,0,0,1-12.68-8.74,39.56,39.56,0,0,1-5-6.35,36.11,36.11,0,0,1-2.1-3.74c-.17-.33-.32-.67-.48-1a2.93,2.93,0,0,0-.05-.29.67.67,0,0,0-.33-.51l0-.1c-.32-.71-.76-1.33-1.07-2-.2-.46-.87-.12-.78.33.15.7.19,1.46.4,2.14,0,.08.06.16.08.23v.18c1.5,13.75,7.76,26.27,13.18,38.79,5.26,12.15,9.88,25.24,9,38.69a39.52,39.52,0,0,1-5.87,18.19,59.88,59.88,0,0,1-12.59,14.26,73.73,73.73,0,0,1-16.4,10.1c-3.9,1.82-7.85,3.49-11.87,5a78.75,78.75,0,0,0,6.71-4.66,41.48,41.48,0,0,0,4.88-4.19,39.06,39.06,0,0,0,3.91-4.88c2.36-3.45,4.25-7.19,6.36-10.79a37.23,37.23,0,0,1,7.16-9.33,10.48,10.48,0,0,0,2.58-3,11.13,11.13,0,0,0,1-5.34c-.23-8-5.77-14.52-9.29-21.32a23.51,23.51,0,0,1-2-5,13.48,13.48,0,0,1-.13-5.55,24.52,24.52,0,0,0,.55-4.9,8.1,8.1,0,0,0-1.82-4.74c-4.18-5.25-11.09-5.88-17.2-4.43-6.63,1.56-12.71,4.9-18.87,7.68a42.38,42.38,0,0,1-8.35,3c-3.94.86-8.2.54-12.19.28-4.89-.31-9.77-.83-14.67-.92-5.08-.09-10.13.39-15.18.78a68.59,68.59,0,0,1-13.44.09,29.84,29.84,0,0,1-8-2.52c-3.14-1.35-6.19-2.87-9.3-4.28-5.76-2.62-12.29-5.48-18.78-4.8a14.66,14.66,0,0,0-8.25,3.59,9.36,9.36,0,0,0-3,4.44,11.51,11.51,0,0,0,0,4.82,25.56,25.56,0,0,1,.52,5.23,15,15,0,0,1-1.45,5.3c-1.59,3.55-3.78,6.81-5.71,10.18s-3.72,7-4.3,10.87c-.5,3.39-.23,7,2.3,9.54,1.14,1.14,2.41,2.12,3.48,3.34a37.24,37.24,0,0,1,3.5,4.93c2.21,3.55,4.08,7.3,6.3,10.84a37.58,37.58,0,0,0,8.24,9.61,82.62,82.62,0,0,0,8.57,6.09c-2.43-.89-4.85-1.86-7.24-2.89A91.16,91.16,0,0,1,223.93,486.21ZM189.61,378.79c-.06-.06,0-.09,0,0Zm39.46,44.3a12.24,12.24,0,0,1-.24-4.51,7.83,7.83,0,0,1,2.92-4.31c4.84-4,11.38-3.14,16.93-1.31,6.32,2.07,12.12,5.36,18.25,7.89a29.44,29.44,0,0,0,7.56,2.22c9.41,1.1,18.88-1,28.31-.88,4.85.07,9.68.58,14.52.9a52.5,52.5,0,0,0,12.34-.17,36.05,36.05,0,0,0,8.06-2.7c3-1.3,5.93-2.75,8.91-4.11,5.58-2.54,12-5.39,18.27-4.63a12.58,12.58,0,0,1,7.91,4.14,6.49,6.49,0,0,1,1.64,4.48,41.78,41.78,0,0,1-.63,4.72,14.92,14.92,0,0,0,.2,5.41,24.49,24.49,0,0,0,1.88,4.88c1.71,3.46,3.87,6.66,5.73,10s3.45,6.84,3.68,10.64a9.58,9.58,0,0,1-.85,5.23,13,13,0,0,1-2.72,2.86,37.39,37.39,0,0,0-6.86,9.17c-2.06,3.53-3.93,7.19-6.22,10.58a38,38,0,0,1-8.76,9,74.73,74.73,0,0,1-10.54,6.78q-2.44,1.29-5,2.32a149.17,149.17,0,0,1-31.63,5.08c-1.84,0-3.69.06-5.53.09-4.88.07-9.77.08-14.65,0a154.23,154.23,0,0,1-31.45-4.52l-1.71-.46a70.18,70.18,0,0,1-17.83-10.58,36.67,36.67,0,0,1-8.2-9.44c-2.12-3.4-3.93-7-6-10.4a51.27,51.27,0,0,0-3.48-5,32.16,32.16,0,0,0-3.55-3.55,6.83,6.83,0,0,1-2.16-3.21,13.08,13.08,0,0,1-.11-5.57c1.34-7.65,6.94-13.6,9.94-20.57a17.82,17.82,0,0,0,1.45-5.05A20,20,0,0,0,229.07,423.09ZM254.76,654.6a126.06,126.06,0,0,1-13-1.6,55.55,55.55,0,0,1-8.74-2c-.48-.17-1-.35-1.43-.54l-.34-.14-.27-.1-.8-.35q-1.8-.81-3.54-1.77a50.74,50.74,0,0,1-7.77-5.22,54.16,54.16,0,0,1-13.72-17.53,84.21,84.21,0,0,1-4.48-10.32,34,34,0,0,1-1.95-10c-.21-6.29,1.86-13.37,7.8-16.48a18.25,18.25,0,0,1,9.06-1.75,35.64,35.64,0,0,1,9.66,1.76,57,57,0,0,1,11,4.75c.74.42,1.48.87,2.19,1.33.45.32.62.42.87.58a45.45,45.45,0,0,1,6.35,5.24c5.57,5.5,10,12,15,18a87.24,87.24,0,0,0,6.56,7.16,52.59,52.59,0,0,0,7.2,5.68c1.22.8,2.47,1.56,3.73,2.29l-.09.14c-.27.37-.51.76-.75,1.14a10.29,10.29,0,0,0-1.26,4.75c0,.57-.05,1.14,0,1.71a24.08,24.08,0,0,0,.23,3.4.49.49,0,0,0,0,.12.5.5,0,0,0,0,.12c0,.25.07.5.11.75a32.46,32.46,0,0,0,1,4.67,11.42,11.42,0,0,0,1.8,3.61A129.54,129.54,0,0,1,254.76,654.6Zm46.45-7.84h-2.45a10,10,0,0,0,1.78-4.13,7.35,7.35,0,0,0-.81-4.53c-1.45-2.76-4.27-4.82-7-6.15a15.92,15.92,0,0,0-8.68-1.82,8.37,8.37,0,0,0-3.84,1.36,7.19,7.19,0,0,0-1,.86,69.53,69.53,0,0,1-7.87-5.42,59.64,59.64,0,0,1-6.59-6.42c-2.55-2.86-5-5.83-7.32-8.84l-1.8-2.31a176,176,0,0,1-5.86-25.52,71.58,71.58,0,0,1-.88-12.32A63.6,63.6,0,0,1,262.4,534a55.77,55.77,0,0,1,19.4-15.55,49.29,49.29,0,0,1,23.73-5.1,39.84,39.84,0,0,1,22.57,8.44,52,52,0,0,1,14.95,19.47A69.88,69.88,0,0,1,348.68,563a118.62,118.62,0,0,1,.1,24.2,92.87,92.87,0,0,1-5.95,25.57c-.79,2-1.67,3.87-2.63,5.74l-.05.11c-1.59,1.87-3.23,3.7-5,5.42a52.64,52.64,0,0,1-7.17,5.81c-1.31.88-2.64,1.72-4,2.54a7.08,7.08,0,0,0-2.77-1.77,12.94,12.94,0,0,0-8.42.41,18.43,18.43,0,0,0-8,5.23,8.79,8.79,0,0,0-2.07,4,7.65,7.65,0,0,0,.65,4.66,11.32,11.32,0,0,0,1,1.79C303.34,646.68,302.27,646.75,301.21,646.76Zm71.32-56.2c6.15-2.59,13.26-4.73,20-3.43a13.57,13.57,0,0,1,7.86,4.3,17.64,17.64,0,0,1,3.87,8.79,27.79,27.79,0,0,1-.35,10,51.54,51.54,0,0,1-3.47,10.15c-3,6.92-6.83,13.57-12.16,19a50.14,50.14,0,0,1-15.32,10.6c-.61.27-.76.33-1.39.58-.47.19-.95.36-1.42.53a23,23,0,0,1-2.29.67,122.54,122.54,0,0,1-12.9,2.26,130.1,130.1,0,0,1-26.47.49c-1.5-.12-3-.28-4.49-.46a8.06,8.06,0,0,0,1-1.59,19,19,0,0,0,1.33-4.09,40.72,40.72,0,0,0,.74-4.53l0-.32c0-.16,0-.31.05-.47,0-.44,0-.89.05-1.34a19.56,19.56,0,0,0-.42-4.64,8.67,8.67,0,0,0-1.59-3.2l-.14-.22v0a62.48,62.48,0,0,0,7.67-5.13,54.8,54.8,0,0,0,6.54-6.21c5.12-5.64,9.5-11.88,14.46-17.64a54.08,54.08,0,0,1,8.38-8.12c.58-.45,1.19-.87,1.8-1.28a9.81,9.81,0,0,0,.89-.59A52.18,52.18,0,0,1,372.53,590.56ZM406,576.12a11.25,11.25,0,0,0-.72,3.14l0,.08a3.66,3.66,0,0,0,0,.81,75.91,75.91,0,0,1-16-7.51,74.3,74.3,0,0,1-12.77-10.29c-1.07-1.06-2.14-2.13-3.17-3.24s-2.11-2.36-3.25-3.46a.59.59,0,0,0-.81,0,.76.76,0,0,0-.36.55c-1.28,9.8-2,19.66-4,29.36-.58,2.77-1.24,5.53-2,8.26a45,45,0,0,0-5.43,4.33c-5.35,5-9.59,11.07-14.18,16.76a86.81,86.81,0,0,0,5.93-21.29,119,119,0,0,0,1.12-25.51,81.69,81.69,0,0,0-4.06-22,56.83,56.83,0,0,0-13.1-21.34A42,42,0,0,0,311.59,513a47.15,47.15,0,0,0-24.43,2,56.65,56.65,0,0,0-21.22,13.34,62.18,62.18,0,0,0-14.3,22.83A64,64,0,0,0,248,578.16c.32,3.77.92,7.53,1.59,11.25.78,4.38,1.76,8.73,2.9,13,.39,1.51.81,3,1.24,4.51-1.24-1.56-2.5-3.09-3.82-4.58a52.8,52.8,0,0,0-8.95-8.21l-.55-.37c-1.25-4.73-2.29-9.52-3.08-14.35-.76-4.66-1.31-9.35-1.83-14-.34-3.07-.67-6.13-1.07-9.19a.76.76,0,0,0-.36-.55.59.59,0,0,0-.81,0c-1,1-1.9,2-2.84,3s-1.88,2-2.84,3c-1.9,1.93-3.88,3.79-6,5.54a69.77,69.77,0,0,1-14.33,9.25,79.36,79.36,0,0,1-9.28,3.76,4.22,4.22,0,0,0,0-.87c.15-.26-2.23-7-3.7-9.95-.76-1.51-1.58-3-2.43-4.46a41.57,41.57,0,0,0,10-13.11,159.43,159.43,0,0,0,6.56-16c3.58-9.55,7.21-19.16,13.12-27.56a67.41,67.41,0,0,1,5.54-6.85c2.18-2.36,4.56-4.49,6.94-6.65l1.56.74a140.37,140.37,0,0,0,19.84,7.3c1.4.41,2.81.8,4.22,1.16a65.25,65.25,0,0,0,12.25,3.25,137.88,137.88,0,0,0,19.79,1.47c1.91.07,3.81.11,5.72.11h1.28c2.74,0,5.48,0,8.22,0,1.53,0,3.06,0,4.6-.07q3.8-.08,7.61-.25a83.11,83.11,0,0,0,21-3.23c1.43-.45,2.84-.95,4.22-1.51a147.47,147.47,0,0,0,18.46-6.16q3.19-1.31,6.32-2.81c2.13,1.92,4.26,3.82,6.24,5.9a67.08,67.08,0,0,1,5.12,6.05,75.9,75.9,0,0,1,7.74,13c2.21,4.67,4,9.49,5.86,14.31,2,5.34,3.88,10.75,6.31,15.92a43.3,43.3,0,0,0,10.94,15c-.43.75-.86,1.5-1.27,2.25A76.91,76.91,0,0,0,406,576.12Z" transform="translate(-48.24 -129.4)"/><path class="cls-5" d="M255.1,464.2a26.53,26.53,0,0,1-1.84-3.45c-.51-1.17-.87-2.38-1.3-3.57-.32-.9-1.85-.85-1.77.24a18.07,18.07,0,0,0,2.3,7.12,24.09,24.09,0,0,0,18.6,12.54,22.72,22.72,0,0,0,4.44.13,8.33,8.33,0,0,0,4.52-1.17,1,1,0,0,0,.47-1,1,1,0,0,0-.7-.81,15.29,15.29,0,0,0-3.82.18,24.2,24.2,0,0,1-3.71,0A21.81,21.81,0,0,1,255.1,464.2Z" transform="translate(-48.24 -129.4)"/><path class="cls-5" d="M337.75,399.17a15.69,15.69,0,0,1-6.74-3.55,16.12,16.12,0,0,1-2.85-3.37,17.94,17.94,0,0,1-1-1.93c-.33-.71-.56-1.45-.88-2.16s-1.73-.4-1.69.46a10.59,10.59,0,0,0,1.37,4.3,16.89,16.89,0,0,0,2.59,3.63,17.7,17.7,0,0,0,7.57,4.84,17.36,17.36,0,0,0,21.66-12.9,1.36,1.36,0,0,0-.93-1.63,1.34,1.34,0,0,0-1.63.93,15.19,15.19,0,0,1-9.83,11A13.41,13.41,0,0,1,337.75,399.17Z" transform="translate(-48.24 -129.4)"/><path class="cls-5" d="M257.34,401.33a17.24,17.24,0,0,0,19.83-7.86,11.11,11.11,0,0,0,1.67-4.85c0-.86-1.31-1.28-1.69-.46-.55,1.21-1,2.46-1.63,3.62a16.21,16.21,0,0,1-2.39,3.13,16,16,0,0,1-6.51,4,14.32,14.32,0,0,1-14.18-3.59,14.51,14.51,0,0,1-4.23-7.52,1.34,1.34,0,0,0-1.63-.93,1.36,1.36,0,0,0-.93,1.63A17.77,17.77,0,0,0,257.34,401.33Z" transform="translate(-48.24 -129.4)"/><path class="cls-5" d="M393,471.65a24.18,24.18,0,0,1-5.56,6.68c-1.27,1.15-2.68,3.49-4.31,4-.62-2-.73-4.14-1.16-6.18-1.32,3.82-3.93,7.51-6.24,10.8a12.1,12.1,0,0,0-.35-3.67c-1.81,7.88-8.36,11.37-13.07,13.27a12.07,12.07,0,0,0,.85-7c-1.9,1.47-7.95,7.41-12,8.49,1.24-2.08.95-4.92,1.06-7.73-1.73,3.76-10,10.06-14.58,11.14.09-.46-.08-1.09.05-1.51-1.16.66-2.31,1.36-3.45,2.06.25-1.64.62-3.34,1-5-3.6,3.29-8.68,7.67-13.56,8.11a34.87,34.87,0,0,0,.7-5.75c-2.32,1.78-5.46,3.84-7.27,6,0,.19.05.35.08.51a12.35,12.35,0,0,0-3.31.16,7.91,7.91,0,0,0,1-3.69,5.89,5.89,0,0,1-4.29,2.92,10.13,10.13,0,0,0-1.25-2.46c-.6-.8-2-.9-2.47-1.92s.58-3.38.74-4.5c-.59,0-1.48-.71-2.11-.74.67-2.48,1.14-3.47.71-5.46-.13-.59-1.17-2.65-1.38-3.46s-.75.32-1.25,1.68-1.34.57-1.61,2.12c-.14.76.77,1.92.65,2.89-.48,4-4.69,3.69-3.77,8.27.27,1.35.69,2.48.83,3.53a25.86,25.86,0,0,1-7-3.44,30.75,30.75,0,0,0,3.32,4.4c-4.71-.51-7.12-5.06-10.82-6.88.63,2,2.24,3.44,2.92,5.42-3,2.57-11-5.25-14-6.92a10.67,10.67,0,0,1,.75,2.91c-5.44-.76-11.88-4.86-15.11-9.24,0,1.05.32,2.22.46,3.35-1.25-.61-2-1.68-3.2-2.38a7.92,7.92,0,0,1-.05,2.12c-3.37-1.27-4.64-5.24-7.49-7.09.35,2.55,1.62,5.16.44,7.58-7.29-3.38-11.59-4.39-15.43-10a12.79,12.79,0,0,0,.56,4.12c-3.7-2.58-3.94-3.21-6.72-8a10.47,10.47,0,0,0-.11,4c-4.71-1.23-5.46-10-10.55-16.61-.15,1.38-1.84,4.81-2.44,6-3.61-2.28-10.48-13-11.72-15.19.15,8.64,3.92,18.36,10.42,24.61a13.12,13.12,0,0,0,.9-3.4c3.92,6.67,9.17,14.45,15.68,19.13a23.44,23.44,0,0,1-.23-5.95c3.35,7.21,11.07,10.71,15.75,13.24a8.43,8.43,0,0,1,.48-3.68c1.19,3.64,10.71,6.05,14.27,6.84-.13-1.79-.67-4-.19-5.65,3.72,7.79,10,7.81,16.52,11.3a8.71,8.71,0,0,0,.1-4.83c2.61,4.4,10.94,5.52,15.53,6.5a17.56,17.56,0,0,1-2.71-3.79c6,2.86,15.22,2.92,20.78,6.89-.22-.94-2.29-5-2.58-6,1.25.76,6.91,5.38,7.93,7.37,4.85-4,4-5.66,5-8.31.12.18.23.36.34.55a28.78,28.78,0,0,1,1.12,3,6.39,6.39,0,0,1,0,1.32c2.86-.53,5.53-.43,8.26-1.72,4.26-2,7.84-4.82,11.78-7.25a8.55,8.55,0,0,1-.89,6.23c4.33-1.91,9.53-5.2,10.74-10.14-.1,2.83.3,5.75-.33,8.53,5.29-3.45,12.08-6.15,14.08-12.75a3,3,0,0,1,1.2,2.38c4.26-2.06,8.45-5.28,12.22-8.08,2.53-1.89,5.13-3.75,6.54-6.67-.06.74,0,1.47-.15,2.2,8.39-6.26,9.1-17.17,13-26C395.81,467.55,394.2,469.45,393,471.65Z" transform="translate(-48.24 -129.4)"/><path class="cls-11" d="M217.81,300.4c4.15,14.65,16.44,21.78,30.88,21.61a31.69,31.69,0,0,0,4.76-.44,17.34,17.34,0,0,0-.36-2.86c-.34-1.56-.89-3.6-2.21-4.58-1.47-1.1-4-1.45-5.68-2.15a41.79,41.79,0,0,1-11.26-6.74c-7.16-6.14-11.06-14.69-12-24a89.84,89.84,0,0,1,.05-14.58c.27-4.46.76-8.63-.81-12.9h-.4a48.93,48.93,0,0,0-2.18,5.31,31.39,31.39,0,0,1-.36-5.31h-1.34C217.72,268.41,213.62,285.62,217.81,300.4Z" transform="translate(-48.24 -129.4)"/><path class="cls-11" d="M261.78,318.84a15.57,15.57,0,0,1-2.52-7.13,42.8,42.8,0,0,0-5.75,2.45,14.06,14.06,0,0,1,2.13,7,25.58,25.58,0,0,0,6.06-2.24Z" transform="translate(-48.24 -129.4)"/><path class="cls-11" d="M335.65,302.4c1.15-.85,2.36-1.63,3.55-2.43.94-.63,2.39-2.18,3.45-2.47,1.6-.45.48.46-.29,1.18-1.2,1.1-2.59,2-3.86,3-2.36,1.87-4.83,3.93-6.15,6.71a8.59,8.59,0,0,0-.8,5.29c3.12-3.3,10.45-4.33,14.58-1.87h0a9.36,9.36,0,0,1-3.11-8.7c1.22-5.74,7-8.8,6.84-15.19-7,8.23-21.47,6.57-31,5.6-12-1.23-24.3-3.31-36.32-1.38-9,1.44-20.26,6.48-21.07,16.85a14.32,14.32,0,0,0,.71,5.77,13,13,0,0,0,1.33,2.76c1.72-1.71,2.43-3.94,4.46-6.25,3.68-4.2,9.44-4.77,14.09-7.2a16.59,16.59,0,0,1,3.22-3c9.5-6.68,22.13-2.27,32.75-4.16,1.37-.24,2.65-.85,4-1.1.25,0,1.93-1,1.31.2-.9,1.66-6,2-7.64,2.18-6,.59-12,.1-18,.83-5.1.63-10.44,2.16-13.87,6.25a13.23,13.23,0,0,0-2.75,5.63c7.08-5.94,23.42-3.15,31.13-5.38l-.06.06a9.68,9.68,0,0,1,1.4-.88c3.86-2,8.27-2.76,12.25-4.55,1.12-.51,7.71-4.93,8.07-4.55.92,1-7.49,5.59-8.28,5.95-3.18,1.45-6.6,2.43-9.69,4.07a11.73,11.73,0,0,0-6.1,7.12c5-5.65,15.18-2.59,20.83-5A17.87,17.87,0,0,1,335.65,302.4Z" transform="translate(-48.24 -129.4)"/><path class="cls-11" d="M383.53,254.33c-.16-.36-.78-.63-.95-1-2.34,5.78-1,12-.64,18a51.89,51.89,0,0,1-1.37,16.29,35.6,35.6,0,0,1-20.46,23.79c-2.3,1-6.22,1.55-7.75,3.54a8.84,8.84,0,0,0-1.53,3.89,4.37,4.37,0,0,0,2,2.54c2,1.25,5.62-.05,7.66-.5,5.25-1.13,12.55-5.61,16.1-9.77,6.24-7.32,8-14.23,9.05-23.22S382.39,263.64,383.53,254.33Z" transform="translate(-48.24 -129.4)"/><path class="cls-12" d="M228.1,356.48c-.55.85-.46,2.66-.49,3.64-.08,2.83.2,3.83-2.92,4.19a42.43,42.43,0,0,1-7.39.19,37.91,37.91,0,0,1-4.22-.5,29.38,29.38,0,0,1-3,3.63c-3.64,4.07-8.41,6.05-13.56,7.49l-.91.14c1.35,2,1.21,5.35.52,7.33,2.42.21,5,1,7.43.75a20.51,20.51,0,0,0,6.9-2.38,53.58,53.58,0,0,0,6.33-4c1.79-1.27,4-3.77,6-4.51s1.73.5,1.45,2.58a64.81,64.81,0,0,1-1.37,7,104.84,104.84,0,0,1-4.72,14.15c-7.45,18.55-18.77,37.72-15.39,58.51,1.87,11.46,9.07,21.33,18.06,28.67-3.68-5.54-6.9-11.09-8.68-18.49-4-16.81-.34-33.92,7.37-49.08,7.49-14.72,12.24-47.25,17.29-62.51a22.26,22.26,0,0,1-5.77,2.23C229.94,355.8,228.61,355.67,228.1,356.48Z" transform="translate(-48.24 -129.4)"/><path class="cls-12" d="M189.7,379.15a3.79,3.79,0,0,1,.14-3.07,16.8,16.8,0,0,0-3.12.74A15.37,15.37,0,0,0,189.7,379.15Z" transform="translate(-48.24 -129.4)"/><path class="cls-12" d="M193.91,374.75a4.24,4.24,0,0,0-3,1c-.35.42-.25,1-.29,1.59-.16,2.06.6,3.59-.88,5.52a7.53,7.53,0,0,1-1.95,1.73,28.12,28.12,0,0,0,3.53,2.22c.3-.25.55-.57.87-.8C194.93,384,197.46,376.47,193.91,374.75Z" transform="translate(-48.24 -129.4)"/><path class="cls-12" d="M416.36,378.22a3.94,3.94,0,0,0-2-1.45,17.05,17.05,0,0,1-4.17.19,55.86,55.86,0,0,1-14.88-2.87,56.83,56.83,0,0,1-12.27-5.64,27.36,27.36,0,0,1-5.24-4.09c-1.76-1.85-1.35-3.56-1.65-6a15.11,15.11,0,0,0-.24-1.5c.2-.91-.18-1.26-1.12-1-1.12-.53-2.77-.55-4-1a25.14,25.14,0,0,1-6.47-3.39l-.69-.53c1.32,3.86-3.44,14.92,1,21.67,5.56,7,5.29,20.36,3.93,26.26a19.37,19.37,0,0,1-11.19,12.68c5.9-1.72,10.17-3.19,15,1.27,3.17,2.91,3.73,7.55,3.19,11.59a13.32,13.32,0,0,0,1.13,8.4c3.43,8.11,7,10.28,8.56,17.62.71,3.47,2.45,7.54.16,10.41-2.06,2.58-3,2.49-4.92,5.26-4.58,6.77-7.23,15.36-13.26,21.08-4.31,4.08-10.13,10.9-22.39,14.45a128.64,128.64,0,0,0,21-7.76c10.12-4.81,19.88-11.25,26.82-20.19,7.39-9.52,10.1-21,8.7-32.9-1.52-12.95-7.27-24.85-12.43-36.67a149.53,149.53,0,0,1-7-18.64,71,71,0,0,1-2.14-10.19c-.29-2.23-1.32-7.84.69-2.66a33,33,0,0,0,5.79,9.5c7.28,3.9,12.47,9.65,21.9,5.36C411.19,386.12,418.51,381.82,416.36,378.22Z" transform="translate(-48.24 -129.4)"/><path class="cls-11" d="M357.44,411.55c-5.07.69-9.74,2.94-14.27,5.2-4.68,2.34-9.39,4.86-14.56,5.93-6.27,1.29-12.77,0-19.32-.29a148.45,148.45,0,0,0-19.33.25c-6,.49-12.16,1.18-18.11-.15-7.51-1.68-12.61-6.56-23.17-9.53,3.92,2.92,17.38,11.93,18.31,12.63,2.9,2.18,11.56,2.81,15.2,3.33,11.87,1.69,23.17-.76,35.12-1.18,4.3-.15,8.55.34,12.77-.76,5.62-1.46,9.62-5.06,14.29-8.27a39.73,39.73,0,0,1,13.95-5.92,30.33,30.33,0,0,1,8.13-1C363.61,410.73,359.6,411.25,357.44,411.55Z" transform="translate(-48.24 -129.4)"/><path class="cls-11" d="M259.91,430.29c-1.58-2.47-4.33-4.78-6.51-6.76a21.07,21.07,0,0,0-6.27-4.08,31.56,31.56,0,0,1,4.13,3.58,45,45,0,0,1,10.3,15.56c1.19,3.14-.55,4.11-3.45,2.49a84.36,84.36,0,0,0-9-4.73c-5.41-2.2-8.21-6-8.53-11.57-.89,7.62,2.25,13.42,9.05,18.79,5.81,4.59,19.25,5.61,14.92-5.21A45.32,45.32,0,0,0,259.91,430.29Z" transform="translate(-48.24 -129.4)"/><path class="cls-11" d="M347.71,427.35a38.19,38.19,0,0,1,6-6.42c.43-.35,1-.86,1.71-1.37a23,23,0,0,0-5.4,3.71c-2.18,2-4.93,4.29-6.51,6.76a45.76,45.76,0,0,0-4.6,8.08c-4.33,10.82,9.11,9.79,14.92,5.21,7.46-5.89,10.51-12.29,8.68-21a23.47,23.47,0,0,1-.31,4.51,10.48,10.48,0,0,1-3.57,6.52c-2.24,1.94-5.06,2.81-7.7,4.05s-5.55,3.95-8.55,4.46c-3.34.56-.2-5.47.22-6.35A45.84,45.84,0,0,1,347.71,427.35Z" transform="translate(-48.24 -129.4)"/><path class="cls-12" d="M215,349.9c4.9,2.9,9.85,5,15.63,3.69a21.16,21.16,0,0,0,7.34-3.27c-11.09-5.12-19.28-8.4-25.1-14.48a40.2,40.2,0,0,1-11.63-29.57c.21-7.21,1.59-16.37,9.84-39.3-.09.23-.19.47-.27.71,1-6.67,2.21-13.41,1.59-20.18-3,10.06-6.06,20-10.27,29.7-3.92,9-8.07,18.16-9.29,28A45.77,45.77,0,0,0,215,349.9Z" transform="translate(-48.24 -129.4)"/><path class="cls-12" d="M364.7,349.56a20.79,20.79,0,0,0,8.33,4.06c6.09,1.38,11.54-1,16.59-4.25,10.24-6.56,17.94-16.63,20.55-28.61,2.8-12.87-.59-25.19-5.67-37a342.09,342.09,0,0,1-13.18-36.26c-.62,6.77.57,13.51,1.6,20.18-1.38-3.75-3.4-7.28-5-11a41.25,41.25,0,0,0,1.95,10.16c8.28,23,9.66,32.17,9.86,39.39a40.15,40.15,0,0,1-11.62,29.57C382.62,341.61,375,344.86,364.7,349.56Z" transform="translate(-48.24 -129.4)"/><path class="cls-11" d="M253.6,465.81a25.37,25.37,0,0,1-1.84-3.45c-.51-1.16-.87-2.38-1.3-3.57-.33-.89-.27,6.69,5,13.24a21.08,21.08,0,0,0,13.88,7.29c1.47.18,8,.62,11.05-3.59.21-.28-1.67.2-2,.14a15.86,15.86,0,0,0-3.83.18,24.17,24.17,0,0,1-3.71,0,21.82,21.82,0,0,1-17.18-10.28Z" transform="translate(-48.24 -129.4)"/><path class="cls-12" d="M210,527c-4.85,12.75-8.93,26.36-18.34,36.22a3.25,3.25,0,0,0-1.23,2.29c.14,1.85,2.88,1.86,4.58,1.15,21.62-9.07,31.77-59.71,59.21-65-3.47-1.58-16.44-8.87-20.38-8-2.42.55-7.69,6.3-9.54,8.23C217.63,508.9,213.45,518,210,527Z" transform="translate(-48.24 -129.4)"/><path class="cls-12" d="M392.86,527c4.85,12.75,8.93,26.36,18.34,36.22a3.25,3.25,0,0,1,1.23,2.29c-.14,1.85-2.88,1.86-4.58,1.15-21.62-9.07-31.77-59.71-59.21-65,3.47-1.58,16.44-8.87,20.38-8,2.42.55,7.69,6.3,9.54,8.23C385.27,508.9,389.45,518,392.86,527Z" transform="translate(-48.24 -129.4)"/><path class="cls-12" d="M215.39,629.33c17.48,13.82,39.77,20.61,62,22.28,1.39.11,3.25.73,3,2.11-.17,1.07-1.51,1.44-2.59,1.56a122.21,122.21,0,0,1-36.56-1.55c-9.32-1.81-18.77-4.92-25.63-11.49-4.58-4.39-7.71-10-10.76-15.59a72.55,72.55,0,0,1-6.38-13.84c-.84-2.76-2.15-13.08.62-5.83A49.42,49.42,0,0,0,215.39,629.33Z" transform="translate(-48.24 -129.4)"/><path class="cls-12" d="M387.81,629.33c-17.48,13.82-39.77,20.61-62,22.28-1.39.11-3.25.73-3,2.11.17,1.07,1.51,1.44,2.59,1.56a122.21,122.21,0,0,0,36.56-1.55c9.32-1.81,18.77-4.92,25.63-11.49,4.58-4.39,7.71-10,10.77-15.59a73.13,73.13,0,0,0,6.37-13.84c.84-2.76,2.16-13.08-.61-5.83A49.51,49.51,0,0,1,387.81,629.33Z" transform="translate(-48.24 -129.4)"/><path class="cls-11" d="M223.47,592.65c-3.95-1-8.57-1.72-11.71.86-3.38,2.76-3.28,8-1.68,12.11a23.11,23.11,0,0,0,19.28,14.21c2.65.21,5.56-.16,7.49-2a9,9,0,0,0,2.38-5.34C240.78,601.29,233.26,595.07,223.47,592.65Z" transform="translate(-48.24 -129.4)"/><path class="cls-11" d="M380.16,590.91a11.69,11.69,0,0,0-2.41,2.25c-2,2.31-3.5,5.32-2.85,8.27a12.44,12.44,0,0,0,1.43,3.26,24.55,24.55,0,0,0,3.91,5.72,8.3,8.3,0,0,0,6.21,2.66c2.53-.17,4.68-1.86,6.64-3.47a9.34,9.34,0,0,0,4.25-6.58,13.67,13.67,0,0,0,.57-4.52C397.12,590.35,386.59,586.61,380.16,590.91Z" transform="translate(-48.24 -129.4)"/><path class="cls-11" d="M308.54,527.27c-2.45,1.17-4.92,2.66-6.27,5-2,3.52-1,8.09,1.18,11.5s5.38,6,8.11,9c9.9,10.84,13.45,25.84,19.69,39.12,1.39,2.95,3.35,6.16,6.56,6.69,2.7.45,5.38-1.28,6.88-3.56s5.78-8.13,7.69-13.83c4.42-13.2,3.06-19.28,4.65-33,.6-5.24.38-12.71-2.2-17.31C347.24,517.35,319.5,522,308.54,527.27Z" transform="translate(-48.24 -129.4)"/><path class="cls-13" d="M269.75,417.71a28.84,28.84,0,0,1-10.14-1.65c1.64.85,3.23,1.65,4.76,2.35,5.41,2.45,11.07,3.06,16.8,3,2.12-.06,4.24-.18,6.35-.31,4.54-.29,9.09-.55,13.64-.42l1.67.06c1.64.09,3.28.22,4.92.37,3.24.29,6.46.64,9.7.86,1.46.11,2.95.2,4.44.23h1.19c5.31-.05,10.07-1.84,14.8-3.93l.47-.2.17-.08,1.76-.79c-2.93,0-5.41-1.3-8.53-3.84-7.64-6.24-8.16-17.86-11.44-26.63-1-2.75-2-7.44-4.78-10.46a4.7,4.7,0,0,0-8.07,2.58c-1.38,9.44-2.78,17.71-10.63,25.19-4.68,4.46-11,7-16.58,10.06C276.88,416,273.9,417.55,269.75,417.71Z" transform="translate(-48.24 -129.4)"/></g></g></svg>