<svg xmlns="http://www.w3.org/2000/svg" xmlns:xlink="http://www.w3.org/1999/xlink" viewBox="0 0 480.67 586.19"><defs><style>.cls-1{isolation:isolate;}.cls-2{fill:#9fcef0;}.cls-3{fill:#d92231;}.cls-4{fill:#a71918;}.cls-16,.cls-5{fill:#a97d50;}.cls-6{fill:#e6d0a1;}.cls-7{fill:#f1f2f2;}.cls-8{fill:#d1d2d4;}.cls-9{fill:#e6e0d6;}.cls-10{fill:url(#Áåçûìÿííûé_ãðàäèåíò_58);}.cls-11,.cls-15{fill:#fff;}.cls-12{fill:#010101;}.cls-13{fill:#f9b041;}.cls-14{fill:#fff2d4;}.cls-14,.cls-15{mix-blend-mode:soft-light;}.cls-16,.cls-17{opacity:0.35;mix-blend-mode:multiply;}</style><linearGradient id="Áåçûìÿííûé_ãðàäèåíò_58" x1="1864.7" y1="-186.74" x2="1878.87" y2="-152.24" gradientTransform="translate(-1484.38 813.81) rotate(-12.08)" gradientUnits="userSpaceOnUse"><stop offset="0" stop-color="#e3953d"/><stop offset="0.22" stop-color="#cb8b45"/><stop offset="0.47" stop-color="#b8834b"/><stop offset="0.73" stop-color="#ad7f4f"/><stop offset="1" stop-color="#a97d50"/></linearGradient></defs><title>bull_01</title><g class="cls-1"><g id="Layer_1" data-name="Layer 1"><path class="cls-2" d="M422,135.63c-24.22-9.38-54.55-7.95-77.81,2.8C317,151,302.54,167.61,288.33,193.9c-25.89,47.89-45.8,48.48-94.56,67s-81.84,32.44-102.36,91.29c-13.85,39.71,5.14,86.51,43,98,28.24,8.6,53,2.39,80.23,15.88,26.23,13,48,22.25,78.21,20.64,26.48-1.41,37.65-19.23,61.17-27,28.85-9.54,61.37,1,89.65,5.53,42.51,6.83,74.16,2.21,85.92-44.59,8-31.81,10.67-75.78-6.37-104.62-15.68-26.54-53.2-41.4-64.3-69.16-5.91-14.79,1-27.08,2.54-42.1C466.22,159.77,438,141.85,422,135.63Z" transform="translate(-55.21 -129.4)"/><path class="cls-2" d="M479.44,210.36c-38.1,10.29,7.07,90.43,37.53,46.75C530.85,237.21,504.34,203.63,479.44,210.36Z" transform="translate(-55.21 -129.4)"/><path class="cls-2" d="M420.27,417.52c-17.07-7-37.48-7.74-53.49,1.39C354.27,426,345.56,438.6,333,445.71c-11.58,6.59-25.59,8-37,14.89s-19.13,23.67-10,33.34c2.75,2.9,6.54,4.58,10.35,5.81,24.63,8,46,5.35,71.69,9,12.74,1.81,11,1.4,22.76,6.6C427.53,531.55,529.09,461.85,420.27,417.52Z" transform="translate(-55.21 -129.4)"/><path class="cls-3" d="M196,442.78c-14.39,7.36-28.71,14.89-42.84,22.74A423.24,423.24,0,0,0,111,491.79a151.9,151.9,0,0,0-31,29.79c-8.76,11.18-16,23.41-22.7,35.93A39.91,39.91,0,0,1,59,562.27l1.65,4.9c2,5.92,3.95,11.84,5.81,17.79.94,3,1.87,6,2.77,9.06.36,1.19.7,2.39,1,3.59a292.49,292.49,0,0,1,16.48-37.1,362.78,362.78,0,0,1,24.44-39.92,299.72,299.72,0,0,1,29.3-35.66,168.83,168.83,0,0,1,32.33-26.49,96.12,96.12,0,0,1,16.49-8.23,64.32,64.32,0,0,1,8.23-2.58,56.53,56.53,0,0,1,6-1,88.34,88.34,0,0,1,16.34-1.14c.71,0,1.56,0,2.52.09a79.21,79.21,0,0,1,31.41,7.88c8.18,4.13,16.13,9,23.82,13.71,9.74,6,19.82,12.15,30.42,16.83a146.18,146.18,0,0,0,19.85,6.7c1.19.3,2,.52,2.69.73,5.58,1.48,11.26,2.83,16.65,4.12,3.08.73,6,1.42,8.72,2.1a20.68,20.68,0,0,0,7.5.92,19.3,19.3,0,0,0,6.71-2.58,47,47,0,0,0,9-6.16c.45-.44.9-.85,1.31-1.24a54.1,54.1,0,0,0,5.12-6.1c1.37-1.8,2.78-3.66,4.61-5.7-6-.32-12.65.5-17.89-.6a20.37,20.37,0,0,0,4.17,3.59c-5.54.16-15.42,1.21-19.64-3.12a10.32,10.32,0,0,1,1.23,5.58c-8.51-2.17-15.67-.45-22.12-8.36-.07,2.08,1.15,4.42,1.8,6.44-4.31.09-15.91,0-18.29-3.86a9.83,9.83,0,0,0,.48,4.36c-6.09-1.6-15.92-3.45-21.78-10.79.25,2.56,1.06,4.25,1.93,6.76-8.79-3.54-17-11-23.36-17.56a15.16,15.16,0,0,1-.08,4.15C271.8,460,262.39,452.8,257.59,445c-1.57-1.33-3.1-2.72-4.56-4.18-1.21-1.21-2.38-2.47-3.48-3.78-.37-.44-.67-.82-1-1.18s-.76-1-1.16-1.54c-.22-.31-.46-.63-.72-1a31.05,31.05,0,0,1-3.87-7.78c-1.17.22-2.34.44-3.5.7C224.08,429.51,209.83,435.7,196,442.78Z" transform="translate(-55.21 -129.4)"/><path class="cls-4" d="M180.94,587.82q-.9,3.54-1.71,7.11c-.42,1.86-.8,3.72-1.27,5.56a79.59,79.59,0,0,1,11.81-12.39,162.22,162.22,0,0,1,14.7-11.28c5.14-3.54,10.37-6.93,15.57-10.38,5-3.33,10-6.72,14.79-10.42,2.23-1.73,4.41-3.52,6.5-5.42,1.94-1.76,3.76-3.64,5.55-5.54q2.56-7.69,4.37-15.6a127.29,127.29,0,0,0,2.92-17.12c.36-4.26.63-8.54.8-12.81.12-3.08.19-6.15.15-9.23,0-1.45-.05-2.91-.13-4.36a6.86,6.86,0,0,0-.2-2.13c-.34-.75-1.5-.87-2.22-.95-7.06-.84-15-1.24-21.43,2.4-5.82,3.32-9.33,9.45-12.59,15.07-2.87,5-6.6,13.38-13.6,12.76-6.39-.58-6.41-8.08-6.43-12.91a86,86,0,0,1,6.68-34,58.77,58.77,0,0,1,13.2-19.35,84.53,84.53,0,0,0-24,3.26,93.09,93.09,0,0,0-24.74,12.47,194.15,194.15,0,0,0-31.42,28,311,311,0,0,0-28.55,36.27c-6.52,9.6-12.63,19.47-18.25,29.62a12.38,12.38,0,0,1,9.52-.68c5.43,1.9,9,6.81,12.2,11.31a49.83,49.83,0,0,0,5.47,6.82,17.89,17.89,0,0,0,7,4.35c5.37,1.74,11.28.86,16.54-.83A82.19,82.19,0,0,0,157.8,570c4.11-2.34,8.34-4.48,13.14-4.84a25.61,25.61,0,0,1,4.2,0,9,9,0,0,1,3.09.81,9.55,9.55,0,0,1,3.51,2.54c1.82,2.2,2,5.15,1.71,7.88A84.72,84.72,0,0,1,180.94,587.82Z" transform="translate(-55.21 -129.4)"/><path class="cls-5" d="M495.6,398.57c.38.49.73,1,1,1.49a5.57,5.57,0,0,0-.47-.78A7.7,7.7,0,0,0,495.6,398.57Z" transform="translate(-55.21 -129.4)"/><path class="cls-5" d="M263.78,633q-3.36,1.46-6.85,2.58c-1.12.36-2.25.7-3.39,1l-1,.23c.84.58,1.33,2,2.25,3.65l5.05,9.2c1.56,0,3.13.15,4.68.26,6.52.44,13.05,1,19.59,1a41,41,0,0,0,8.57-.73,36.32,36.32,0,0,0,11.11-5c7.71-4.82,14.4-11.12,21.27-17,7.59-6.53,15.29-12.92,23-19.34,14.69-12.3,28.66-25.48,40.81-40.32A140.54,140.54,0,0,0,399.62,554a113.63,113.63,0,0,0,14-33.72,107.83,107.83,0,0,0-.39-50.11,19.1,19.1,0,0,1-3.12,2.3c.18-1.57-1.58-4.24-2-5.44-.61,3.57,1.09,5.1-3.49,11.27-1.73-2-9.52-5.71-11.16-6.24.61,1.07,4.14,5.19,4.66,6.22A22.09,22.09,0,0,0,392,476.9a81.17,81.17,0,0,0-5.27,6.41,61.58,61.58,0,0,1-4.75,5.75,55.7,55.7,0,0,1,8.42,3.78c2.27,1.26,4.46,2.59,5.93,4.79a16.2,16.2,0,0,1,2.43,6.74c.84,5.75-.2,11.73-1.66,17.3a100.5,100.5,0,0,1-6.89,17.94,166.3,166.3,0,0,1-10.65,19A129.07,129.07,0,0,1,366.2,575.7,106.35,106.35,0,0,1,350.08,590c-5.45,3.91-11.16,7.52-16.88,11a164,164,0,0,1-17.88,9.56,103.81,103.81,0,0,1-19.83,6.7,82.71,82.71,0,0,1-21.16,1.92,27.07,27.07,0,0,1-1.8,5.13c-.94,2.13-2.06,4.63-3.84,6.2C267.36,631.68,265.38,632.32,263.78,633Z" transform="translate(-55.21 -129.4)"/><path class="cls-6" d="M269.34,614a22.49,22.49,0,0,1,3.49.17,1.93,1.93,0,0,1,1,.41,3,3,0,0,1,.79,2.4c0,.29,0,.59-.06.89a91.88,91.88,0,0,0,9.95-.43c13.72-1.39,26.71-6.13,38.81-12.62,5.77-3.09,11.35-6.53,16.83-10.1a147.45,147.45,0,0,0,16.54-12c10.69-9.29,19.38-20.68,26.43-32.92a153,153,0,0,0,9.28-18.67,69,69,0,0,0,4.76-17.36c.61-4.87.74-10.52-1.9-14.86-1.31-2.15-3.34-3.39-5.48-4.6a52,52,0,0,0-8.52-3.82l-.58-.19a47.27,47.27,0,0,1-9.83,6.89,21,21,0,0,1-7.2,2.74,13.77,13.77,0,0,1-3,0,33.28,33.28,0,0,1-5-1c-2.73-.68-5.63-1.37-8.71-2.1-6.07-1.45-12.51-3-18.77-4.69a100.65,100.65,0,0,0-21.53,10.08,72.84,72.84,0,0,0-14.79,12.63,115.78,115.78,0,0,0-12.68,16.34A146.31,146.31,0,0,0,268.6,551a95.14,95.14,0,0,0-6.8,22c-2.43,13.92-1,29.09,7.14,41Z" transform="translate(-55.21 -129.4)"/><path class="cls-5" d="M441,454.9a360.61,360.61,0,0,1,25.3-28.41q3.39-3.45,6.83-6.84c2.29-2.25,4.52-4.59,7-6.62a23.15,23.15,0,0,1,5.74-3.56c-.65-2.43-2.93-10.3-6.11-15a47.22,47.22,0,0,0-11,1.46,58.53,58.53,0,0,0-8.69,3.14q-4.25,1.84-8.34,4a119.08,119.08,0,0,0-14.12,8.54c.92,1.47,1.73,3.35,2.19,4.26a32.15,32.15,0,0,1,2.64,7,23.15,23.15,0,0,1-.39,12.52c-1.22,6-4.65,12.59-8.6,16.32-.39-.95-.56-1.59-.91-2.49l-.33.29c-1.24,3-4.8,8.75-9.88,11.88a8,8,0,0,0-1-4.27c-.78,4.51-4.06,9.27-7.49,12.51a111,111,0,0,1,2.63,12.91c.38,2.66.64,5.34.81,8,.55-1,1.1-2,1.67-3A255.76,255.76,0,0,1,441,454.9Z" transform="translate(-55.21 -129.4)"/><path class="cls-5" d="M232.79,579.37c-2.83,4.37-6,8.5-9.11,12.66-3.63,4.84-7.26,9.69-10.72,14.65a109.2,109.2,0,0,0-8.69,14c-1,2.1-1.81,4.32-2.7,6.48L213,641.44c11.61-7.26,23-15,35-21.58a44.8,44.8,0,0,1,19.08-5.81,46.41,46.41,0,0,1-4.2-8.1,56.76,56.76,0,0,1-3.76-21.31,79.26,79.26,0,0,1,3.63-22.46,116.18,116.18,0,0,1,9.17-21.47,131.38,131.38,0,0,1,11.42-18.11,109.29,109.29,0,0,1,14.55-15.78,74.73,74.73,0,0,1,15.85-10.3,105.6,105.6,0,0,1,11.85-5,142.45,142.45,0,0,1-18.1-6.23c-10.69-4.72-20.8-10.92-30.59-16.92-7.66-4.69-15.58-9.55-23.72-13.65a78.4,78.4,0,0,0-32.35-7.8c-9.09,8-14.74,19.29-17.76,30.93a89.4,89.4,0,0,0-2.63,16.81c0,.36,0,.71-.06,1.06,1.34,1.77,6.62,4,7.59,4.25,2.4.71,4.91,1.41,7.65,1.94.21-.38.43-.77.65-1.14,3.17-5.49,6.33-11.31,11.4-15.28,5.63-4.4,12.71-5.17,19.63-4.82,1.81.1,3.63.22,5.43.43,1.35.16,3,.55,3.68,1.89.52,1,.35,2.65.4,3.78.07,1.45.1,2.89.11,4.34a174,174,0,0,1-1.79,27.75,167.49,167.49,0,0,1-6.55,26.9.57.57,0,0,1-.08.24q-2.47,7.42-5.64,14.57A136.3,136.3,0,0,1,232.79,579.37Z" transform="translate(-55.21 -129.4)"/><path class="cls-7" d="M392.06,345.32c2.07-2.25.71-8.84-3-7-1.65,1.38-2.76,5.1-1.36,6.9A2.84,2.84,0,0,0,392.06,345.32Z" transform="translate(-55.21 -129.4)"/><path class="cls-8" d="M223,356.7c2-3.06-2.11-3.21-3.7-3.9-5.42-2.34-5.7-12.3.63-13.71,4.3-1,10.67,2.82,9,7.81,2.26-.5,2.43-.84,2.06-3.1a8.61,8.61,0,0,0-1.2-3.17,9.82,9.82,0,0,0-4.82-3.87,10.08,10.08,0,0,0-12.19,3.77c-3.2,5.09-1.37,12.44,3.6,15.69C218,357.26,221.63,358.78,223,356.7Z" transform="translate(-55.21 -129.4)"/><path class="cls-5" d="M257.85,441.71c7.44,6.57,16.52,12,26.5,13.32-11.32-10.88-27.81-27-18.79-44,3.29-6.21,8.13-11.74,11.87-17.71,4.13-6.6,8.4-13.18,14.43-18.23,5.63-4.73,12.61-8.37,20.06-8.82s14,3,20.27,6.85c2.81,1.72,5.95,4.22,9.27,4.76,3.05.5,6.16-.47,9.07-1.26,8.33-2.27,17-4.24,25.59-4.7,3.95-.22,8.42.34,12.09-1.45,2.9-1.42,4.84-4.12,6.68-6.66,4.89-6.73,9.94-12,18.77-12.27-5.55-6.46-7.18-16.17-9.49-24.13-2.58-8.87-5.17-17.85-9.55-26a52.35,52.35,0,0,0-13.41-16.62,38,38,0,0,0-9.24-5.31c-1.18-.48-7-1.61-7-2.87,0-1,2.39-2.39,3.06-3.24a12.75,12.75,0,0,0,2.16-4.15,13,13,0,0,0-1.16-9.63c-3.17-6.27-9.44-11-15.75-13.79-14.86-6.58-30.06-2.61-44.14,3.94-7.43,3.46-14.68,7.3-22.32,10.32a156.74,156.74,0,0,1-25.39,7.5c5.59.2,12,1.07,16.4,4.8,5,4.18,5.61,12.77-1.56,15.17,6.46,5.71,4.85,17.78,2.68,25-2.4,8-6.39,16.35-13.65,21a20.36,20.36,0,0,1-6.37,2.74c-1.08.25-2.43.11-3.44.45s-1.49,1.3-2.3,2.17a26.09,26.09,0,0,1-9.61,6.15c-7.87,3.15-16.43,3.88-24.44,6.58.89.52,1.53-.26,2.29,0,.57.18.3.45.66.62a4.05,4.05,0,0,1,2.6,3.06c.43,2.83-2,4-4.42,3.94-3.26-.12-4.77-2-7.24-3.67-1.19-.79-1.12-.54-2.43.65a5.52,5.52,0,0,0-1.24,1.27c-.45,1.08-.46.51.36,1.55,1.54,2,4.73,3.06,6.93,4.11,2.82,1.34,5.69,2.59,8.61,3.69a58.13,58.13,0,0,0,9.89,3.09c2.94.54,4.65-.46,7-2.23a40.93,40.93,0,0,0,11.19-13.44,85.36,85.36,0,0,0,3.95-8.65c.38-1,.82-6.17,1.94-5s.57,6.43.52,7.91a56.84,56.84,0,0,1-1.12,9.18,127.09,127.09,0,0,1-5.67,19c-4.31,11.8-9,23.53-9.43,36.26-.19,6.08.64,11.27,3.76,16.57A51.75,51.75,0,0,0,257.85,441.71Zm64-160.46c-.26.14-4.36-4.41-5.06-4.86a28.84,28.84,0,0,0-8.36-3.25,32.45,32.45,0,0,0-8.5-1c-.79,0-7.74.7-7.81.38s8-1.47,8.79-1.52a31.27,31.27,0,0,1,9.57,1.14,21.14,21.14,0,0,1,7.31,3.27C318.4,275.85,323.35,280.5,321.88,281.25Zm59.25,50.63A22.43,22.43,0,0,0,387,329c3.11-2.21,6.41-6.22,10.48-6.45.8,0,4.81,1.11,2.86,1.69-.51.15-2.05-.72-2.86-.65a6.41,6.41,0,0,0-3.3,1.48c9.06,6.2,16.54,19,7,28.19-3.95,3.84-9.92,7.87-15.7,6.81-5.07-.94-8.89-5.47-10.1-10.31a24.61,24.61,0,0,1,1.07-14.52C377.39,333.06,379.06,332.6,381.13,331.88ZM317,256.11c1.51-.57,3-1.11,4.56-1.6a66.93,66.93,0,0,1,9.35-2.34c5.5-.93,11.79-1.39,17.15.51a16.09,16.09,0,0,1,10.2,11.53,15.44,15.44,0,0,1-.5,7.69c-.5,1.62-1.94,6.39-3.53,7.21s1.23-4.22,1.49-4.93a18.27,18.27,0,0,0,1.13-7.81,14.68,14.68,0,0,0-8.76-12c-10.21-4.38-23.32-.47-33.2,3C314.23,257.64,316.74,256.21,317,256.11Zm5.65,5.23c4.91-.53,10.22-.84,14.75,1.5,4.32,2.24,8.49,8.38,6,13.43-1.63,3.37-.95-2.29-1.07-3.51a10,10,0,0,0-3.83-7.12c-4.21-3.32-9.78-3.28-14.86-2.8-11.59,1.12-23.54,3.69-35.05.6C298.84,266.18,311.78,262.54,322.67,261.34Zm-28.31,89c1.26-8.71,6.84-15.82,14.07-20.64a9.91,9.91,0,0,0-5.53.14c-.73.2-5.45,2.1-6,1-.42-.78,3.22-1.13,4-1.41,2.12-.76,4-1.71,6.32-1.61,4.08.18,8.08,2.43,11.67,4.2a38.69,38.69,0,0,0,5.74,2.45c1.73.53,3.8.46,5.47,1.14,3.47,1.42,3.61,6.69,4,9.92.52,4,.43,8.26-1.56,11.92-4.2,7.68-15.4,7.58-23.07,7.84-3.92.13-7.45-2.24-10.29-4.69C295.72,357.66,293.67,355,294.36,350.36Z" transform="translate(-55.21 -129.4)"/><path class="cls-7" d="M319.26,353.14c1.83-.85,2.56-3.17,2.53-5,0-2.23-1.35-5.28-4-5.31-3.34,0-3.88,4.24-3.88,6.74A3.77,3.77,0,0,0,319.26,353.14Z" transform="translate(-55.21 -129.4)"/><path class="cls-7" d="M316.45,362.9c4.38-.42,9.54-.41,12.76-3.89,3.05-3.28,3.3-8.23,2.84-12.44-.24-2.23-.35-5.42-1.42-7.44s-2.88-1.74-4.76-2.23a42.24,42.24,0,0,1-6.93-2.68c-2.21-1-4.87-2.91-7.31-3.39-1.41-.27-1.41-.18-2.74.62-.91.54-1.85,1-2.73,1.63a17.49,17.49,0,0,0-4.41,4.34,33,33,0,0,0-5.49,13.31c-.77,5,3.07,8.12,6.94,10.62C307.55,364.17,311.54,363.36,316.45,362.9Zm-7.54-13.31c-.61-4.71,3-10.85,8.22-10.85s10.28,3.09,11.13,8.44A9.07,9.07,0,0,1,326,354.6c-2,2.17-4,2.25-6.56,3C313.79,359.43,309.57,354.81,308.91,349.59Z" transform="translate(-55.21 -129.4)"/><path class="cls-6" d="M405.48,355.62a25.46,25.46,0,0,0-7.29,7c-2.32,3.07-4.42,6.81-7.79,8.86s-7,2.1-10.72,2.28A143.34,143.34,0,0,0,354,377.68c-3.38.79-6.93,2-10.41,2.2-4,.23-7.16-1.83-10.33-3.95-5.5-3.68-11.41-7.4-18.2-7.87s-13.77,2.2-19.34,6.17c-11.21,8-16.59,20.7-24.84,31.23-3.82,4.89-6.61,10.19-6.7,16.53-.1,7.11,4.6,13.61,8.91,18.94,8.33,10.32,19.63,21.91,32.87,25.24,14.25,3.57,28.9,3.22,43.46,2.52,7.87-.37,15.73-.9,23.6-1.38,7.09-.44,14-.56,21-2.24,13.46-3.24,27.75-8.63,37.94-18.32,4.55-4.33,8.29-9.81,8.92-16.21a24,24,0,0,0-1.8-11.16,34.78,34.78,0,0,0-2-4.12c-.63-1.12-2.45-3.06-2.65-4.34a119.52,119.52,0,0,1-20.23,14.64c-7.2,4.27-15.32,8.9-23.49,11-8,2-17.09,1.8-25.31,1.87a226,226,0,0,1-25.36-1.16c-14.63-1.54-29.54-4.48-42.9-10.84-5.28-2.51-10.47-5.76-13.9-10.62-1.4-2-2.73-4.43-2.67-7s2-4.74,4.56-3c4.64,3.21,5.1,11.19,8.52,15.52,2.11,2.65,5.21,3.72,8.27,5s6.38,2.46,9.65,3.46c14,4.27,28.81,6,43.42,6.5a227.45,227.45,0,0,0,23.06-.29,90.07,90.07,0,0,0,11.11-1.1c3.57-.68,6.92-2.4,10.21-3.9,13.06-5.93,25.89-13.8,36.12-24,4.08-4.06,7.91-9,8.62-14.91s-2.75-9.95-6.79-13.69a44.38,44.38,0,0,1-5.92-6c-1.95-2.65-2.4-5.56-2.84-8.73-1-6.83-5.56-10-12.35-10.29C412.44,354.23,409.07,353.56,405.48,355.62Zm-80,40.72c-3.28-1.14-6.68-1.55-10-2.47-5.84-1.62-8.92-6-9.67-11.95-.41-3.22.55-5.79,4.1-4.86a26.65,26.65,0,0,1,8.56,4.31c5.09,3.69,10.06,8.31,13.13,13.87C333.69,399.11,326.66,396.77,325.44,396.34ZM423.36,361c1.7,5.47.32,10.2-4.24,13.63a78.16,78.16,0,0,0-7.09,5.63c-.88.83-4.85,4-4.55.58.5-5.64,2.9-11.23,5.78-16C415.34,361.34,421.05,353.6,423.36,361Z" transform="translate(-55.21 -129.4)"/><path class="cls-9" d="M262.35,332.74a24.81,24.81,0,0,0,10.85-11.31c4.2-8.3,8.18-20.46,3.77-29.4-2.07-4.19-3.84-3.75-8.17-4.46a44.56,44.56,0,0,1-13.63-4.38c-8.67-4.58-14.65-12.31-17.7-21.56a92.94,92.94,0,0,1-3.31-15.41c-.72-4.77-1.13-9.3-3.92-13.42a51.93,51.93,0,0,0-1.18,6.43c-1.38-3.35-1.65-7-2.93-10.43.81,7.18-2.24,13.93-3.22,20.93-.41-7-.67-14.15-2.77-20.92-.91,10.92-1.82,21.73-4,32.51-2,10.06-4.27,20.28-3.36,30.6a47.69,47.69,0,0,0,32.32,40.69C250.93,334.57,256.63,335.61,262.35,332.74Zm-21.28-5.3a40.47,40.47,0,0,1-14.41-10.26c-7.22-8.14-10.68-18.83-11.14-29.61,1.71,11.85,6.06,23.46,15.1,31.66A45,45,0,0,0,244,327.45c4.52,1.83,10.49,3.91,15.42,3.25C253.68,332,246.26,329.66,241.07,327.44Z" transform="translate(-55.21 -129.4)"/><path class="cls-9" d="M381.5,280.6c1.23-.83,2.43-1.71,3.6-2.62a52,52,0,0,0,7.85-7.49,37.64,37.64,0,0,0,7.88-16c-1.35,12.05-9.74,21.53-19.56,27.91,11.13,8.22,17.24,21.06,21.45,33.88,16.5-8.82,29.39-25.94,27.3-45.36-1.17-10.93-6.31-20.84-10.52-30.83-4.07-9.66-7.49-19.69-9.1-30.08a37.66,37.66,0,0,1,0,5.62,49.7,49.7,0,0,0-.85,5,14.67,14.67,0,0,0-1.4-3.4c.29,2.52-1.06,4.91-.7,7.43-.47-2.41-1.75-4.56-2.21-7-.38-2-.29-4.38-1.4-6.22a41.79,41.79,0,0,1-.56,7.07c-.37,1.91-1.35,3.89-.92,5.86a29.69,29.69,0,0,1-1.05-11.29c-1.14,3.17-2.1,6-1.95,9.4.14,3.1.4,6.2.61,9.3.41,6.11.62,12.28-.53,18.34-2.14,11.33-8.82,21.42-19.23,26.72a33,33,0,0,1-4.65,2,35,35,0,0,1,3.22,1.81C380.13,281.55,380.12,281.54,381.5,280.6Z" transform="translate(-55.21 -129.4)"/><path class="cls-5" d="M408.82,328.74a45.47,45.47,0,0,0,7.23,4.74,26.16,26.16,0,0,0,8.79,2.69c3.64.42,5.48-1.82,7.85-4.27a76,76,0,0,0,7.1-8.42c1.06-1.47,3.84-4.32,2-5.55-2.15-1.44-6.81-.33-9.11.09-3.88.72-7.67,1.8-11.5,2.71-5.39,1.27-11.34,2.74-16.78,1,.4,1.34.6,3.38,1.36,4.55C406.36,327.17,408,328.07,408.82,328.74Z" transform="translate(-55.21 -129.4)"/><path class="cls-7" d="M392.41,357c6.83-3,13.29-9.33,11.06-17.38a22.67,22.67,0,0,0-6.26-9.69c-.93-.9-3-3.39-4.28-3.55-.94-.12-3.14,2.79-4.15,3.58a27,27,0,0,1-5.25,3.28c-1.65.76-3.5,1.24-4.58,2.79-1.75,2.52-2.08,7.44-1.9,10.35C377.54,354.55,384.45,360.53,392.41,357Zm-2.5-22.7c10.4-.15,11.51,16.76,1,16.05C380.55,352.85,379.43,334.47,389.91,334.31Z" transform="translate(-55.21 -129.4)"/><path class="cls-10" d="M277.88,272.31c5,4.18,5.61,12.77-1.56,15.17a11.34,11.34,0,0,1,1.22,1.28c5.46,2,11.42,2.38,17.18,2.19,6.64-.21,13.33-1.12,19.92-1.9,7.53-.9,15-2.1,22.45-3.5a110.42,110.42,0,0,0,19.08-5.15,78.74,78.74,0,0,0,8.87-4c.28-1,2.41-2.25,3-3.05a12.75,12.75,0,0,0,2.16-4.15,13,13,0,0,0-1.16-9.63c-3.17-6.27-9.44-11-15.75-13.79-14.86-6.58-30.06-2.61-44.14,3.94-7.43,3.46-14.68,7.3-22.32,10.32a156.74,156.74,0,0,1-25.39,7.5C267.07,267.71,273.45,268.58,277.88,272.31Z" transform="translate(-55.21 -129.4)"/><path class="cls-11" d="M497.77,344.31c-.7,5.59-6.46,9.55-11.87,8.9a7,7,0,0,1-1.45,8.93c-3.07,2.45-7.61,1.51-10-1.36a6,6,0,0,1-6.95,2.09,6.24,6.24,0,0,1-3.17-2.82,12.56,12.56,0,0,1-.69-2.21,3.16,3.16,0,0,0-3.48-2.53c-8.1-.12-16.34,1.61-24.2,3.39-.37.08-.59-.44-.21-.57l.2-.06c7.91-4.42,16.11-8.43,23.87-13.08a6.56,6.56,0,0,1,6.07-10.94c1-5.34,5.25-10.56,11.05-10.48,5,.06,9.44,4.4,9.2,9.38C492.34,332.31,498.57,337.88,497.77,344.31Z" transform="translate(-55.21 -129.4)"/><path class="cls-12" d="M486.14,333c.24-5-4.21-9.32-9.2-9.38-5.8-.08-10.09,5.14-11.05,10.48A6.56,6.56,0,0,0,459.82,345c-7.76,4.65-16,8.66-23.87,13.08l-.2.06c-.38.13-.16.65.21.57,7.86-1.78,16.1-3.51,24.2-3.39a3.16,3.16,0,0,1,3.48,2.53,12.56,12.56,0,0,0,.69,2.21,6.24,6.24,0,0,0,3.17,2.82,6,6,0,0,0,6.95-2.09c2.39,2.87,6.93,3.81,10,1.36a7,7,0,0,0,1.45-8.93c5.41.65,11.17-3.31,11.87-8.9C498.57,337.88,492.34,332.31,486.14,333Zm10.37,11.7c-1,5.25-7,8.51-11.92,7-.65-.19-.88.69-.51,1.07a5.77,5.77,0,0,1-1,8.79,6.17,6.17,0,0,1-8.14-2.22.64.64,0,0,0-1.09.09,4.78,4.78,0,0,1-7.34,1.36c-1.67-1.49-1.19-3.71-2.51-5.32-1.58-1.94-4.6-1.47-6.81-1.38a76.6,76.6,0,0,0-18.42,3.1c7.35-3.88,14.59-8.06,22.09-11.59a.54.54,0,0,0,.16-.9,5.5,5.5,0,0,1,5.21-9.45.54.54,0,0,0,.63-.43c.63-4.7,3.95-9.39,8.92-10.08s9.92,3.75,9.15,8.78a.58.58,0,0,0,.61.68C491.43,333.18,497.66,338.49,496.51,344.65Z" transform="translate(-55.21 -129.4)"/><path class="cls-12" d="M498.57,401.32a9.3,9.3,0,0,0-5.43-6.2c-2.91-1.38-6.27-1.68-9.44-1.87a50.28,50.28,0,0,0-10.33.45c-6.31.93-12.18,3.39-17.9,6.15a121.9,121.9,0,0,0-17.24,10l-1.19.88a3.36,3.36,0,0,0-1.24-1.11c5.54-5.42,11.38-13,10.24-21.25-1.29-9.36-11.92-11.88-14.79-20.11-1.31-3.74-.54-7.84-2.88-11.27-2.64-3.87-6.63-4.19-10.71-5.36-3.63-1-5.65-6.2-7-9.57-1.64-4.27-2.86-8.74-4.15-13.13,4.54,3.74,9.44,7.08,15.26,8.41,3.25.74,6,1.06,8.76-1.1a50.3,50.3,0,0,0,7.17-7.56c1.9-2.28,9.83-10.32,4.53-12.29s-12.48.57-17.7,2c-5.7,1.54-11.68,3.3-17.65,2.51-1.34-.18-2.59-.17-3.16-1.33-.68-1.35-.29-1,.59-1.77,2-1.85,5.07-3.05,7.31-4.73,8.9-6.69,16.15-15.93,19.16-26.75,3.67-13.16-.49-26.23-5.68-38.34-5.63-13.09-11.53-26.57-13.25-40.87-.66-5.52-.65-11.7,1.39-17,.49-1.25,3.2-4.37,2.93-5.24-.58-1.89-5.79,1.77-6.53,2.31-9.62,7-12.37,19.44-12.35,30.67,0,13.28,3,26.64-2.1,39.41a34.35,34.35,0,0,1-9.63,13.62,35,35,0,0,1-8.17,5.12c-1.37.63-3.42,1.62-5,1.51s-3.27-1.05-4.77-1.34c13.63-12.11-4.24-28.48-15.82-32.81-16.54-6.18-32.4,0-47.4,7.29a248.65,248.65,0,0,1-23.94,10.54c-4.15,1.5-8.38,2.85-12.64,4-1.53.41-11,2-10.81,2.9.13.56,8.84,1,9.67,1.18,3.6.67,7.44,1.8,10.28,4.22,2.37,2,4.11,5.19,3.05,8.35A7.07,7.07,0,0,1,277,285.7c-1.85,1.08-2.75.65-4.76.34-7.21-1.11-14.08-2.68-20.14-7-6.35-4.49-10.48-11.14-12.89-18.44-4.48-13.55-3.38-28.42-9.79-41.45-3-6-7.59-11.34-13.78-14.13-.94-.42-8.45-3.34-6.82-.23.31.59,2.07,1.56,2.62,2.23a20.18,20.18,0,0,1,2.87,4.75c6.3,14.13,3.26,32.16.4,46.75-3.34,17-7.21,34.28.77,50.68,6.81,14,21.68,26.09,37.61,27.35-5.36,5.58-13,7.8-20.33,9.49.73-10.25-12.34-15.36-19.41-8.55a12.65,12.65,0,0,0-2.81,13.36,14.27,14.27,0,0,0,.89,2.05c-.35.22-.68.46-1,.69a19.79,19.79,0,0,1-1.71,1.38c-1.46,1.45-2.29,2.9-1,4.77,2.39,3.53,9.19,5.76,12.91,7.36,4.94,2.12,11.22,5.27,16.73,5.25,4.63,0,9.49-5.45,12.29-8.75a55.29,55.29,0,0,0,8.24-13.85c-1,14.76-8,27.93-12.55,41.75-3.5,10.53-5.86,22.23-2.78,32.79-14.79,1.88-29,7.79-42.29,14.22-7,3.39-13.91,7-20.82,10.62-7.44,3.89-14.87,7.79-22.24,11.81a454.33,454.33,0,0,0-42.63,25.89A177.42,177.42,0,0,0,96.3,501.1a154.39,154.39,0,0,0-14.73,15.53C72.42,527.71,64.79,540,57.92,552.56q-1.32,2.41-2.6,4.85c-.37.69.3,1.19.92,1.12.3,1.19.72,2.36,1.1,3.52.49,1.5,1,3,1.45,4.51,1,3,1.88,6,2.77,9.05,1.76,6,3.49,11.95,5.14,17.95.46,1.66.91,3.33,1.37,5,.28,1,.51,2.11.81,3.16a13.53,13.53,0,0,0,.65,1.82q.73-1.8,1.44-3.6c1.86-4.72,3.67-9.45,5.74-14.08,2.93-6.58,6.09-13.07,9.39-19.47,1.4-2.72,2.84-5.41,4.31-8.1a11.38,11.38,0,0,1,8.41-1.71c5.31.95,9.11,5.77,12,9.91,3.22,4.56,6.33,9.45,11.39,12.16s10.77,2.77,16.18,1.66a58.16,58.16,0,0,0,16-6.26c4.14-2.26,8.19-5.08,12.79-6.35a21.93,21.93,0,0,1,7.17-.69,7.59,7.59,0,0,1,1.78.2,10.18,10.18,0,0,1,1.2.45,8.4,8.4,0,0,1,1.72,1,5,5,0,0,1,1.23,1.15c.09.12.18.23.26.35l.07.11.08.12a6.88,6.88,0,0,1,.38.77c.06.15.12.3.17.44v0l.06.19a8.79,8.79,0,0,1,.19.89c.05.31.08.63.1,1,0,.07,0,.15,0,.23v.65a45.81,45.81,0,0,1-1.89,10.18c-.57,2.21-1.14,4.42-1.66,6.63a66.07,66.07,0,0,0-1.5,7.74,24.52,24.52,0,0,0-.12,3.63l-.16.29c-.24.47.5,1,.86.61,1-1.07,1.88-2.24,2.81-3.37s1.92-2.26,2.93-3.34c2-2.17,4.18-4.22,6.4-6.18A157,157,0,0,1,204,579.43c5.14-3.55,10.36-7,15.58-10.4,5-3.33,10.08-6.68,14.91-10.32a101.93,101.93,0,0,0,10.91-9.31c-.21.56-.41,1.13-.62,1.7a149,149,0,0,1-9.34,20.35,137,137,0,0,1-9.72,14.83c-7,9.52-14.54,18.84-20.58,29.06a59,59,0,0,0-3.35,6.4c-1.17,2.68-2.17,5.44-3.36,8.12-2,4.45-4.6,9.67-3,14.62a13.52,13.52,0,0,0,4.73,6.17.92.92,0,0,0,.92.08c13.92-7.86,27-17.15,40.8-25.17,5.55-3.22,10.92-6.67,17.17-8.4a38,38,0,0,1,12.5-1.31c.31,0,.63,0,.94.07l.22,0v0a3.4,3.4,0,0,1,.12.81,11.27,11.27,0,0,1-.66,3.39,28.33,28.33,0,0,1-3.49,7.55,5.34,5.34,0,0,1-2.15,2,72.08,72.08,0,0,1-6.61,2.92,70.13,70.13,0,0,1-7.07,2.28,8.45,8.45,0,0,0-3.3,1.42,24.39,24.39,0,0,0-5.21,6.18,53.94,53.94,0,0,0-4,7.17c-.41.9-1.83,3.45-.2,3.94a6.57,6.57,0,0,0,2,.05q1.35,0,2.7-.18c2-.21,4.06-.53,6.08-.86,2.8-.45,5.86-1.23,8.61-1.21,5.64,0,11.28.75,16.91,1,3.39.16,6.79.25,10.18.11a30.6,30.6,0,0,0,8.24-1.22c8.44-2.71,15.68-8.56,22.33-14.22,7.42-6.31,14.72-12.75,22.17-19s15-12.44,22.19-19c7-6.35,13.74-13,20.1-20,4-4.46,7.73-9.18,11.62-13.75a72.6,72.6,0,0,0,4.58-6A111.85,111.85,0,0,0,412.33,530a107.28,107.28,0,0,0,5.07-36.88c.16,0,7.16-12.25,10.92-18,3.65-5.58,7.53-11,11.59-16.3s8.12-10.16,12.4-15.05,8.7-9.63,13.22-14.29q3.41-3.51,6.86-6.94c2.3-2.29,4.58-4.62,7-6.82s5.12-4.36,8.28-5.31c2.73-.81,5.82-.43,8.31-2A6.52,6.52,0,0,0,498.57,401.32Zm-82.34-47.88c6.79.33,11.39,3.46,12.35,10.29.44,3.17.89,6.08,2.84,8.73a44.38,44.38,0,0,0,5.92,6c4,3.74,7.49,7.83,6.79,13.69s-4.54,10.85-8.62,14.91c-10.23,10.16-23.06,18-36.12,24-3.29,1.5-6.64,3.22-10.21,3.9a90.07,90.07,0,0,1-11.11,1.1,227.45,227.45,0,0,1-23.06.29c-14.61-.54-29.39-2.23-43.42-6.5q-4.9-1.5-9.65-3.46c-3.06-1.26-6.16-2.33-8.27-5-3.42-4.33-3.88-12.3-8.52-15.52-2.57-1.78-4.5.29-4.56,3s1.27,5,2.67,7c3.43,4.86,8.62,8.11,13.9,10.62,13.36,6.36,28.27,9.3,42.9,10.84a226,226,0,0,0,25.36,1.16c8.22-.07,17.3.17,25.31-1.87,8.17-2.08,16.29-6.71,23.49-11a119.52,119.52,0,0,0,20.23-14.64,4.14,4.14,0,0,0,.59,1.37c.17.27.35.54.55.81.56.81,1.19,1.59,1.51,2.16a34.78,34.78,0,0,1,2,4.12,25.35,25.35,0,0,1,1.88,8.44c-1,7.39-6.74,13.58-14.36,19.2-.36-1.13-.29-2.69-.58-4a60.72,60.72,0,0,1-17.74,15c.57-1.93,1.41-3.71,1.46-5.73a38.68,38.68,0,0,1-7.73,6,8.14,8.14,0,0,0-1.2-1.27c-.81-.66-2.26-.42-3-1.33s-.25-3.57-.37-4.75c-.61.11-1.67-.35-2.32-.22.07-2.68.3-3.8-.63-5.71-.28-.57-1.83-2.39-2.25-3.16s-.5-1.8-1-2.66a18.32,18.32,0,0,1,.17,4.67c-.18,1.57-1.22.91-1.11,2.54.05.81,1.26,1.76,1.38,2.77.49,4.16-3.84,4.9-1.79,9.3.48,1,1,1.89,1.43,2.71a23.68,23.68,0,0,1-6.71-.66c.95,1.64,2.69,2.45,4.25,3.31-6.46.06-10.95.14-16.89-2.13,1.41,1.64,3.35,2.78,5,4.12-5.55.73-9.58-3.81-14.35-4.87,1.29,2.11,3.54,3.33,4.87,5.41-2.78,3.79-14.07-2.95-18-4a11.92,11.92,0,0,1,1.66,3.13c-6.45.64-15-2.27-19.92-6.39.33,1.21,1,2.47,1.46,3.72-1.6-.36-2.78-1.37-4.34-1.84a9,9,0,0,1,.55,2.45c-4.23-.52-6.8-4.72-10.59-6,1.12,2.83,5.15,7.73,4.48,10.84-8.08,0-15.21-4.18-21.17-9.51.48,1.85,1,4.32,1.29,6.22-3.2-3.17-6.1-4.12-10.63-8.83.09,2.23.14,2.8.78,4.19-7.77-5.17-14.54-12.52-20-19.32-4.31-5.33-9-11.83-8.91-18.94.09-6.34,2.88-11.64,6.7-16.53,8.25-10.53,13.63-23.24,24.84-31.23,5.57-4,12.41-6.65,19.34-6.17s12.7,4.19,18.2,7.87c3.17,2.12,6.37,4.18,10.33,3.95,3.48-.21,7-1.41,10.41-2.2a143.34,143.34,0,0,1,25.64-3.88c3.67-.18,7.48-.3,10.72-2.28s5.47-5.79,7.79-8.85a25.36,25.36,0,0,1,7.29-7.05C409.07,353.56,412.44,354.23,416.23,353.44Zm5-32.71c3.83-.91,7.62-2,11.5-2.7,2.3-.43,7-1.54,9.11-.1,1.83,1.23-.95,4.08-2,5.55a76,76,0,0,1-7.1,8.42c-2.37,2.45-4.22,4.69-7.85,4.27a26.16,26.16,0,0,1-8.79-2.69,45.47,45.47,0,0,1-7.23-4.74c-.87-.67-2.46-1.57-3.05-2.5-.76-1.17-1-3.21-1.36-4.55C409.85,323.47,415.8,322,421.19,320.73Zm-41-43.88c10.41-5.3,17.09-15.39,19.23-26.72,1.15-6.06.94-12.23.53-18.34-.21-3.1-.47-6.2-.61-9.3-.15-3.39.81-6.23,1.95-9.4a29.69,29.69,0,0,0,1.05,11.29c-.43-2,.55-3.95.92-5.86a41.79,41.79,0,0,0,.56-7.07c1.11,1.84,1,4.17,1.4,6.22.46,2.43,1.74,4.58,2.21,7-.36-2.52,1-4.91.7-7.43a14.67,14.67,0,0,1,1.4,3.4,50.38,50.38,0,0,1,.85-5,37.51,37.51,0,0,0,0-5.61c1.61,10.39,5,20.42,9.1,30.08,4.21,10,9.35,19.9,10.52,30.83,2.09,19.42-10.8,36.54-27.3,45.36-4.21-12.82-10.32-25.66-21.45-33.88,9.82-6.38,18.21-15.86,19.56-27.91a37.64,37.64,0,0,1-7.88,16A52,52,0,0,1,385.1,278c-1.17.91-2.37,1.79-3.6,2.62s-1.37.95-2.76.08a35,35,0,0,0-3.22-1.81A33,33,0,0,0,380.17,276.85ZM245.11,332.61a47.69,47.69,0,0,1-32.32-40.69c-.91-10.32,1.33-20.54,3.36-30.6,2.17-10.78,3.08-21.59,4-32.51,2.1,6.77,2.36,13.9,2.77,20.92,1-7,4-13.75,3.22-20.93,1.28,3.38,1.55,7.08,2.93,10.43a51.93,51.93,0,0,1,1.18-6.43c2.79,4.12,3.2,8.65,3.92,13.42a92.94,92.94,0,0,0,3.31,15.41c3.05,9.25,9,17,17.7,21.56a44.56,44.56,0,0,0,13.63,4.38c4.33.71,6.1.27,8.17,4.46,4.41,8.94.43,21.1-3.77,29.4a24.81,24.81,0,0,1-10.85,11.31C256.63,335.61,250.93,334.57,245.11,332.61Zm-32.31,7.92A10.08,10.08,0,0,1,225,336.76a9.82,9.82,0,0,1,4.82,3.87,8.61,8.61,0,0,1,1.2,3.17c.37,2.26.2,2.6-2.06,3.1,1.65-5-4.72-8.77-9-7.81-6.33,1.41-6.05,11.37-.63,13.71,1.59.69,5.71.84,3.7,3.9-1.37,2.08-5,.56-6.6-.48C211.43,353,209.6,345.62,212.8,340.53Zm15.27,6.57c-1.85.41-3.69.84-5.53,1.32-1,.26-2,.53-3,.84-1.16.35-1.3.7-2-.05-1.3-1.32-.6-5.36.23-6.74C221,337,227.91,342.35,228.07,347.1Zm15.5,65.66C244,400,248.69,388.3,253,376.5a127.09,127.09,0,0,0,5.67-19,56.84,56.84,0,0,0,1.12-9.18c0-1.48.61-6.75-.52-7.91s-1.56,4.08-1.94,5a85.36,85.36,0,0,1-3.95,8.65,40.93,40.93,0,0,1-11.19,13.44c-2.34,1.77-4.05,2.77-7,2.23a58.13,58.13,0,0,1-9.89-3.09c-2.93-1.1-5.79-2.35-8.61-3.69-2.2-1-5.39-2.12-6.93-4.11-.82-1-.81-.47-.36-1.55a5.52,5.52,0,0,1,1.24-1.27c1.31-1.19,1.24-1.44,2.43-.65,2.47,1.63,4,3.55,7.24,3.67,2.42.09,4.85-1.11,4.42-3.94a4.05,4.05,0,0,0-2.6-3.06c-.36-.17-.09-.44-.66-.62-.76-.23-1.4.55-2.29,0,8-2.7,16.57-3.43,24.44-6.58a26.09,26.09,0,0,0,9.61-6.15c.81-.87,1.26-1.81,2.3-2.17s2.36-.2,3.44-.45a20.36,20.36,0,0,0,6.37-2.74c7.26-4.63,11.25-13,13.65-21,2.17-7.19,3.78-19.26-2.68-25,7.16-2.4,6.52-11,1.56-15.17-4.43-3.73-10.81-4.6-16.4-4.8a156.74,156.74,0,0,0,25.39-7.5c7.64-3,14.89-6.86,22.32-10.32,14.08-6.55,29.28-10.52,44.14-3.94,6.31,2.79,12.58,7.52,15.75,13.79a13,13,0,0,1,1.16,9.63,12.75,12.75,0,0,1-2.16,4.15c-.67.85-3.06,2.25-3.06,3.24,0,1.26,5.77,2.39,7,2.87a38,38,0,0,1,9.24,5.31,52.35,52.35,0,0,1,13.41,16.62c4.38,8.18,7,17.16,9.55,26,2.31,8,3.94,17.67,9.49,24.13-8.83.32-13.88,5.54-18.77,12.27-1.84,2.54-3.78,5.24-6.68,6.66-3.67,1.79-8.14,1.23-12.09,1.45-8.64.46-17.26,2.43-25.59,4.7-2.91.79-6,1.76-9.07,1.26-3.32-.54-6.46-3-9.27-4.76-6.26-3.86-12.67-7.32-20.27-6.85s-14.43,4.09-20.06,8.82c-6,5.05-10.3,11.63-14.43,18.23-3.74,6-8.58,11.5-11.87,17.71-7,13.24,1.4,25.93,10.81,36a50.28,50.28,0,0,1-.86,5.14c-4-1.34-14.11-7.87-18.54-11.27a57.76,57.76,0,0,1-5.06-5.2c-.41-.49-.82-1-1.21-1.48a43,43,0,0,1-3.37-4.9,26.62,26.62,0,0,1-2.05-4.3c-.13-.33-.24-.67-.35-1A32.25,32.25,0,0,1,243.57,412.76ZM86.76,560.51a292.49,292.49,0,0,0-16.48,37.1c-.35-1.2-.69-2.4-1-3.59-.9-3-1.83-6-2.77-9.06-1.86-6-3.83-11.87-5.81-17.79L59,562.27a39.91,39.91,0,0,0-1.76-4.76c6.66-12.52,13.94-24.75,22.7-35.93a151.9,151.9,0,0,1,31-29.79,423.24,423.24,0,0,1,42.16-26.27c14.13-7.85,28.45-15.38,42.84-22.74,13.86-7.08,28.11-13.27,43.37-16.6,1.16-.26,2.33-.48,3.5-.7a31.05,31.05,0,0,0,3.87,7.78c.26.38.5.7.72,1,.4.56.76,1,1.16,1.54s.59.74,1,1.18c1.1,1.31,2.27,2.57,3.48,3.78,1.46,1.46,3,2.85,4.56,4.18,4.8,7.85,14.21,15,19.06,18.41a15.16,15.16,0,0,0,.08-4.15c6.37,6.55,14.57,14,23.36,17.56-.87-2.51-1.68-4.2-1.93-6.76,5.86,7.34,15.69,9.19,21.78,10.79a9.83,9.83,0,0,1-.48-4.36c2.38,3.84,14,3.95,18.29,3.86-.65-2-1.87-4.36-1.8-6.44,6.45,7.91,13.61,6.19,22.12,8.36a10.32,10.32,0,0,0-1.23-5.58c4.22,4.33,14.1,3.28,19.64,3.12a20.37,20.37,0,0,1-4.17-3.59c5.24,1.1,11.85.28,17.89.6-1.83,2-3.24,3.9-4.61,5.7a54.1,54.1,0,0,1-5.12,6.1c-.41.39-.86.8-1.31,1.24a47,47,0,0,1-9,6.16,19.3,19.3,0,0,1-6.71,2.58,20.68,20.68,0,0,1-7.5-.92c-2.73-.68-5.64-1.37-8.72-2.1-5.39-1.29-11.07-2.64-16.65-4.12-.67-.21-1.5-.43-2.69-.73a146.18,146.18,0,0,1-19.85-6.7c-10.6-4.68-20.68-10.85-30.42-16.83-7.69-4.71-15.64-9.58-23.82-13.71a79.21,79.21,0,0,0-31.41-7.88c-1-.09-1.81-.08-2.52-.09a88.34,88.34,0,0,0-16.34,1.14,56.53,56.53,0,0,0-6,1,64.32,64.32,0,0,0-8.23,2.58,96.12,96.12,0,0,0-16.49,8.23,168.83,168.83,0,0,0-32.33,26.49,299.72,299.72,0,0,0-29.3,35.66A362.78,362.78,0,0,0,86.76,560.51Zm154.57-9.91c-2.09,1.9-4.27,3.69-6.5,5.42-4.77,3.7-9.76,7.09-14.79,10.42-5.2,3.45-10.43,6.84-15.57,10.38a162.22,162.22,0,0,0-14.7,11.28A79.59,79.59,0,0,0,178,600.49c.47-1.84.85-3.7,1.27-5.56q.81-3.57,1.71-7.11a84.72,84.72,0,0,0,2.51-11.45c.29-2.73.11-5.68-1.71-7.88a9.55,9.55,0,0,0-3.51-2.54,9,9,0,0,0-3.09-.81,25.61,25.61,0,0,0-4.2,0c-4.8.36-9,2.5-13.14,4.84a82.19,82.19,0,0,1-15.59,7.42c-5.26,1.69-11.17,2.57-16.54.83a17.89,17.89,0,0,1-7-4.35,49.83,49.83,0,0,1-5.47-6.82c-3.2-4.5-6.77-9.41-12.2-11.31a12.38,12.38,0,0,0-9.52.68c5.62-10.15,11.73-20,18.25-29.62a311,311,0,0,1,28.55-36.27,194.15,194.15,0,0,1,31.42-28,93.09,93.09,0,0,1,24.74-12.47,84.53,84.53,0,0,1,24-3.26,58.77,58.77,0,0,0-13.2,19.35,86,86,0,0,0-6.68,34c0,4.83,0,12.33,6.43,12.91,7,.62,10.73-7.79,13.6-12.76,3.26-5.62,6.77-11.75,12.59-15.07,6.39-3.64,14.37-3.24,21.43-2.4.72.08,1.88.2,2.22.95a6.86,6.86,0,0,1,.2,2.13c.08,1.45.12,2.91.13,4.36,0,3.08,0,6.15-.15,9.23-.17,4.27-.44,8.55-.8,12.81a127.29,127.29,0,0,1-2.92,17.12q-1.8,7.89-4.37,15.6C245.09,547,243.27,548.84,241.33,550.6ZM248,619.86c-12,6.6-23.37,14.32-35,21.58l-11.46-14.28c.89-2.16,1.67-4.38,2.7-6.48a109.2,109.2,0,0,1,8.69-14c3.46-5,7.09-9.81,10.72-14.65,3.12-4.16,6.28-8.29,9.11-12.66a136.3,136.3,0,0,0,10.08-18.84q3.16-7.14,5.64-14.57a.57.57,0,0,0,.08-.24,167.49,167.49,0,0,0,6.55-26.9,174,174,0,0,0,1.79-27.75c0-1.45,0-2.89-.11-4.34-.05-1.13.12-2.74-.4-3.78-.67-1.34-2.33-1.73-3.68-1.89-1.8-.21-3.62-.33-5.43-.43-6.92-.35-14,.42-19.63,4.82-5.07,4-8.23,9.79-11.4,15.28-.22.37-.44.76-.65,1.14-2.74-.53-5.25-1.23-7.65-1.94-1-.28-6.25-2.48-7.59-4.25,0-.35,0-.7.06-1.06a89.4,89.4,0,0,1,2.63-16.81c3-11.64,8.67-22.92,17.76-30.93a78.4,78.4,0,0,1,32.35,7.8c8.14,4.1,16.06,9,23.72,13.65,9.79,6,19.9,12.2,30.59,16.92a142.45,142.45,0,0,0,18.1,6.23,105.6,105.6,0,0,0-11.85,5,74.73,74.73,0,0,0-15.85,10.3,109.29,109.29,0,0,0-14.55,15.78,131.38,131.38,0,0,0-11.42,18.11,116.18,116.18,0,0,0-9.17,21.47,79.26,79.26,0,0,0-3.63,22.46A56.76,56.76,0,0,0,262.89,606a46.41,46.41,0,0,0,4.2,8.1A44.8,44.8,0,0,0,248,619.86Zm24.82-5.71a22.49,22.49,0,0,0-3.49-.17h-.4c-8.12-11.91-9.57-27.08-7.14-41a95.14,95.14,0,0,1,6.8-22,146.31,146.31,0,0,1,10.56-19.76,115.78,115.78,0,0,1,12.68-16.34,72.84,72.84,0,0,1,14.79-12.63,100.65,100.65,0,0,1,21.53-10.08c6.26,1.7,12.7,3.24,18.77,4.69,3.08.73,6,1.42,8.71,2.1a33.28,33.28,0,0,0,5,1,13.77,13.77,0,0,0,3,0,21,21,0,0,0,7.2-2.74,47.27,47.27,0,0,0,9.83-6.89l.58.19a52,52,0,0,1,8.52,3.82c2.14,1.21,4.17,2.45,5.48,4.6,2.64,4.34,2.51,10,1.9,14.86a69,69,0,0,1-4.76,17.36,153,153,0,0,1-9.28,18.67c-7.05,12.24-15.74,23.63-26.43,32.92a147.45,147.45,0,0,1-16.54,12c-5.48,3.57-11.06,7-16.83,10.1-12.1,6.49-25.09,11.23-38.81,12.62a91.88,91.88,0,0,1-9.95.43c0-.3.05-.6.06-.89a3,3,0,0,0-.79-2.4A1.93,1.93,0,0,0,272.83,614.15Zm140.8-93.88a113.63,113.63,0,0,1-14,33.72,140.54,140.54,0,0,1-10.76,14.47c-12.15,14.84-26.12,28-40.81,40.32-7.67,6.42-15.37,12.81-23,19.34-6.87,5.91-13.56,12.21-21.27,17a36.32,36.32,0,0,1-11.11,5,41,41,0,0,1-8.57.73c-6.54.05-13.07-.52-19.59-1-1.55-.11-3.12-.26-4.68-.26l-5.05-9.2c-.92-1.68-1.41-3.07-2.25-3.65l1-.23c1.14-.31,2.27-.65,3.39-1q3.49-1.12,6.85-2.58c1.6-.7,3.58-1.34,4.91-2.5,1.78-1.57,2.9-4.07,3.84-6.2a27.07,27.07,0,0,0,1.8-5.13,82.71,82.71,0,0,0,21.16-1.92,103.81,103.81,0,0,0,19.83-6.7A164,164,0,0,0,333.2,601c5.72-3.49,11.43-7.1,16.88-11a106.35,106.35,0,0,0,16.12-14.3,129.07,129.07,0,0,0,13.32-17.13,166.3,166.3,0,0,0,10.65-19,100.5,100.5,0,0,0,6.89-17.94c1.46-5.57,2.5-11.55,1.66-17.3a16.2,16.2,0,0,0-2.43-6.74c-1.47-2.2-3.66-3.53-5.93-4.79a55.7,55.7,0,0,0-8.42-3.78,61.58,61.58,0,0,0,4.75-5.75A81.17,81.17,0,0,1,392,476.9a22.09,22.09,0,0,1,6.14,1.37c-.52-1-4.05-5.15-4.66-6.22,1.64.53,9.43,4.25,11.16,6.24,4.58-6.17,2.88-7.7,3.49-11.27.45,1.2,2.21,3.87,2,5.44a19.1,19.1,0,0,0,3.12-2.3A107.83,107.83,0,0,1,413.63,520.27ZM480.16,413c-2.49,2-4.72,4.37-7,6.62s-4.57,4.54-6.83,6.84A360.61,360.61,0,0,0,441,454.9,255.76,255.76,0,0,0,419,487.52c-.57,1-1.12,2-1.67,3-.17-2.68-.43-5.36-.81-8a111,111,0,0,0-2.63-12.91c3.43-3.24,6.71-8,7.49-12.51a8,8,0,0,1,1,4.27c5.08-3.13,8.64-8.88,9.88-11.88l.33-.29c.35.9.52,1.54.91,2.49,3.95-3.73,7.38-10.3,8.6-16.32a23.15,23.15,0,0,0,.39-12.52,32.15,32.15,0,0,0-2.64-7c-.46-.91-1.27-2.79-2.19-4.26a119.08,119.08,0,0,1,14.12-8.54q4.1-2.13,8.34-4a58.53,58.53,0,0,1,8.69-3.14,47.22,47.22,0,0,1,11-1.46c3.18,4.66,5.46,12.53,6.11,15A23.15,23.15,0,0,0,480.16,413Zm15.44-14.46a7.7,7.7,0,0,1,.57.71,5.57,5.57,0,0,1,.47.78C496.33,399.57,496,399.06,495.6,398.57Z" transform="translate(-55.21 -129.4)"/><path class="cls-12" d="M167.06,685.13l8-6.78c2.65-2.28,5.32-4.54,8-6.84q7.95-6.87,15.71-13.93-8.28,6.45-16.4,13.1c-2.72,2.2-5.41,4.44-8.11,6.67l-8.05,6.72-8,6.79c-2.65,2.28-5.32,4.54-7.95,6.84q-8,6.87-15.71,13.93,8.28-6.45,16.4-13.1c2.72-2.2,5.41-4.45,8.11-6.67Z" transform="translate(-55.21 -129.4)"/><path class="cls-12" d="M195.25,682.92l8-6.78c2.65-2.28,5.32-4.54,8-6.85q7.95-6.85,15.71-13.92-8.28,6.45-16.41,13.1c-2.71,2.2-5.4,4.44-8.1,6.66l-8,6.73-8,6.79c-2.65,2.28-5.32,4.54-7.95,6.84q-8,6.87-15.71,13.93,8.28-6.45,16.4-13.1c2.72-2.21,5.4-4.45,8.11-6.67Z" transform="translate(-55.21 -129.4)"/><path class="cls-12" d="M218.88,681.31,210.82,688l-8,6.78c-2.65,2.28-5.32,4.55-8,6.85q-7.94,6.86-15.71,13.92,8.29-6.45,16.41-13.1c2.72-2.2,5.4-4.44,8.1-6.67l8.06-6.72,8-6.79c2.65-2.28,5.32-4.54,8-6.84q7.94-6.86,15.71-13.93Q235.1,668,227,674.64C224.26,676.84,221.58,679.09,218.88,681.31Z" transform="translate(-55.21 -129.4)"/><path class="cls-12" d="M318.42,381.37a26.65,26.65,0,0,0-8.56-4.31c-3.55-.93-4.51,1.64-4.1,4.86.75,5.93,3.83,10.33,9.67,11.95,3.33.92,6.73,1.33,10,2.47,1.22.43,8.25,2.77,6.11-1.1C328.48,389.68,323.51,385.06,318.42,381.37Z" transform="translate(-55.21 -129.4)"/><path class="cls-12" d="M412,380.28a78.16,78.16,0,0,1,7.09-5.63c4.56-3.43,5.94-8.16,4.24-13.63-2.31-7.42-8,.32-10.1,3.8-2.88,4.81-5.28,10.4-5.78,16C407.18,384.24,411.15,381.11,412,380.28Z" transform="translate(-55.21 -129.4)"/><path class="cls-12" d="M330,335.62c-1.67-.68-3.74-.61-5.47-1.14a39.77,39.77,0,0,1-5.74-2.45c-3.59-1.77-7.59-4-11.67-4.2-2.31-.1-4.2.85-6.32,1.61-.75.28-4.39.63-4,1.41.59,1.11,5.31-.79,6-1a9.91,9.91,0,0,1,5.53-.14c-7.23,4.82-12.81,11.93-14.07,20.64-.69,4.68,1.36,7.3,4.77,10.25,2.84,2.45,6.37,4.82,10.29,4.69,7.67-.26,18.87-.16,23.07-7.84,2-3.66,2.08-7.89,1.56-11.92C333.64,342.31,333.5,337,330,335.62ZM329.21,359c-3.22,3.48-8.38,3.47-12.76,3.89-4.91.46-8.9,1.27-13.25-1.55-3.87-2.5-7.71-5.61-6.94-10.62a33,33,0,0,1,5.49-13.31,17.49,17.49,0,0,1,4.41-4.34c.88-.61,1.82-1.09,2.73-1.63,1.33-.8,1.33-.89,2.74-.62,2.44.48,5.1,2.35,7.31,3.39a42.24,42.24,0,0,0,6.93,2.68c1.88.49,3.76.33,4.76,2.23s1.18,5.21,1.42,7.44C332.51,350.78,332.26,355.73,329.21,359Z" transform="translate(-55.21 -129.4)"/><path class="cls-12" d="M385.49,360c5.78,1.06,11.75-3,15.7-6.81,9.51-9.23,2-22-7-28.19a6.41,6.41,0,0,1,3.3-1.48c.81-.07,2.35.8,2.86.65,1.95-.58-2.06-1.73-2.86-1.69-4.07.23-7.37,4.24-10.48,6.45a22.43,22.43,0,0,1-5.85,2.93c-2.07.72-3.74,1.18-4.67,3.31a24.61,24.61,0,0,0-1.07,14.52C376.6,354.55,380.42,359.08,385.49,360ZM379,336c1.08-1.55,2.93-2,4.58-2.79a27,27,0,0,0,5.25-3.28c1-.79,3.21-3.7,4.15-3.58,1.31.16,3.35,2.65,4.28,3.55a22.67,22.67,0,0,1,6.26,9.69c2.23,8.05-4.23,14.35-11.06,17.38-8,3.52-14.87-2.46-15.36-10.62C376.87,343.48,377.2,338.56,379,336Z" transform="translate(-55.21 -129.4)"/><path class="cls-12" d="M317.13,338.74c-5.19,0-8.83,6.14-8.22,10.85.66,5.22,4.88,9.84,10.52,8.06,2.56-.8,4.6-.88,6.56-3a9.07,9.07,0,0,0,2.27-7.42C327.41,341.83,322.24,338.75,317.13,338.74Zm2.13,14.4a3.77,3.77,0,0,1-5.32-3.61c0-2.5.54-6.77,3.88-6.74,2.62,0,3.95,3.08,4,5.31C321.82,350,321.09,352.29,319.26,353.14Z" transform="translate(-55.21 -129.4)"/><path class="cls-12" d="M390.92,350.36c10.5.71,9.39-16.2-1-16.05S380.55,352.85,390.92,350.36Zm-1.9-12c3.75-1.89,5.11,4.71,3,7a2.84,2.84,0,0,1-4.4-.06C386.26,343.46,387.37,339.74,389,338.36Z" transform="translate(-55.21 -129.4)"/><path class="cls-12" d="M308.46,273.14a28.84,28.84,0,0,1,8.36,3.25c.7.45,4.8,5,5.06,4.86,1.47-.75-3.48-5.4-4.06-5.82a21.14,21.14,0,0,0-7.31-3.27,31.27,31.27,0,0,0-9.57-1.14c-.82.05-8.89,1.09-8.79,1.52s7-.38,7.81-.38A32.45,32.45,0,0,1,308.46,273.14Z" transform="translate(-55.21 -129.4)"/><path class="cls-12" d="M323.7,262.84c5.08-.48,10.65-.52,14.86,2.8a10,10,0,0,1,3.83,7.12c.12,1.22-.56,6.88,1.07,3.51,2.45-5-1.72-11.19-6-13.43-4.53-2.34-9.84-2-14.75-1.5-10.89,1.2-23.83,4.84-34,2.1C300.16,266.53,312.11,264,323.7,262.84Z" transform="translate(-55.21 -129.4)"/><path class="cls-12" d="M314.91,257.4c9.88-3.47,23-7.37,33.2-3a14.68,14.68,0,0,1,8.76,12,18.27,18.27,0,0,1-1.13,7.81c-.26.71-3,5.7-1.49,4.93s3-5.59,3.53-7.21a15.44,15.44,0,0,0,.5-7.69,16.09,16.09,0,0,0-10.2-11.53c-5.36-1.9-11.65-1.44-17.15-.51a66.93,66.93,0,0,0-9.35,2.34c-1.53.49-3.05,1-4.56,1.6C316.74,256.21,314.23,257.64,314.91,257.4Z" transform="translate(-55.21 -129.4)"/><path class="cls-12" d="M244,327.45a45,45,0,0,1-13.33-8.22c-9-8.2-13.39-19.81-15.1-31.66.46,10.78,3.92,21.47,11.14,29.61a40.47,40.47,0,0,0,14.41,10.26c5.19,2.22,12.61,4.6,18.3,3.26C254.44,331.36,248.47,329.28,244,327.45Z" transform="translate(-55.21 -129.4)"/><path class="cls-12" d="M313.07,314.77c-5.78,1.15-2.06,3.83,1.07,5.17s5.91,2.72,8.81,4.22c1.47.76,5.05,3.49,6.74,3.25,5.25-.77-.74-8.19-2.51-9.45C323.54,315.4,317.49,313.9,313.07,314.77Z" transform="translate(-55.21 -129.4)"/><path class="cls-12" d="M379.26,325.46c1.51-.16,4-3.31,5.1-4.29,2.17-1.93,4.37-3.81,6.68-5.57s5-5-.22-4.69a18.14,18.14,0,0,0-11.47,5.85C378.1,318.23,374.56,326,379.26,325.46Z" transform="translate(-55.21 -129.4)"/><path class="cls-11" d="M220.28,389.24A7.78,7.78,0,0,0,208,380.09a.55.55,0,0,1-.76-.1c-3.67-5.89-11.4-10.1-18.29-7.3-6.07,2.48-9.44,10.72-5.6,16.36a.58.58,0,0,1-.38.92c-7.92,2-12.64,12.42-8,19.45,4.21,6.37,14.08,7.45,19.69,2.42.48-.43,1.14.19.94.73-1.61,4.33,1.13,9.85,5.81,10.78s9.37-3,9.94-7.61a.64.64,0,0,1,1-.42,6.93,6.93,0,0,0,9.52-1.07,7.28,7.28,0,0,0,1.5-3.85c.12-1.69-.72-3.21-.64-4.88.19-3.79,4.2-5,7.15-6.28a108.88,108.88,0,0,1,26.91-7.32c-12-.65-24-1.68-36.06-1.95A.53.53,0,0,1,220.28,389.24Z" transform="translate(-55.21 -129.4)"/><path class="cls-11" d="M259.81,392.11c-10.86,2.13-22,4.82-32.06,9.46-1.26.58-2.71,1.16-3.39,2.46-.88,1.68,0,3.38.23,5.09a8.35,8.35,0,0,1-1.75,5.91,8.12,8.12,0,0,1-10.46,1.83c-1.16,5.06-6.49,9-11.75,7.58A9.6,9.6,0,0,1,194,413.89c-6.43,4.29-16.34,2.51-20.35-4.34-4.43-7.58.3-17.92,8.36-20.49-3.33-5.86-.38-13.75,5.46-16.88,7.22-3.86,16.09.37,20.32,6.68A8.8,8.8,0,0,1,221.53,389c12.63,1.23,25.37,1.62,38,2.55l.18,0A.3.3,0,0,1,259.81,392.11Z" transform="translate(-55.21 -129.4)"/><path class="cls-12" d="M259.74,391.52l-.18,0c-12.66-.93-25.4-1.32-38-2.55a8.8,8.8,0,0,0-13.78-10.13c-4.23-6.31-13.1-10.54-20.32-6.68-5.84,3.13-8.79,11-5.46,16.88-8.06,2.57-12.79,12.91-8.36,20.49,4,6.85,13.92,8.63,20.35,4.34a9.6,9.6,0,0,0,6.67,10.55c5.26,1.44,10.59-2.52,11.75-7.58A8.12,8.12,0,0,0,222.84,415a8.35,8.35,0,0,0,1.75-5.91c-.18-1.71-1.11-3.41-.23-5.09.68-1.3,2.13-1.88,3.39-2.46,10.09-4.64,21.2-7.33,32.06-9.46A.3.3,0,0,0,259.74,391.52Zm-29.9,7.72c-3,1.25-7,2.49-7.15,6.28-.08,1.67.76,3.19.64,4.88a7.28,7.28,0,0,1-1.5,3.85,6.93,6.93,0,0,1-9.52,1.07.64.64,0,0,0-1,.42c-.57,4.65-5.15,8.55-9.94,7.61s-7.42-6.45-5.81-10.78c.2-.54-.46-1.16-.94-.73-5.61,5-15.48,4-19.69-2.42-4.64-7,.08-17.45,8-19.45a.58.58,0,0,0,.38-.92c-3.84-5.64-.47-13.88,5.6-16.36,6.89-2.8,14.62,1.41,18.29,7.3a.55.55,0,0,0,.76.1,7.78,7.78,0,0,1,12.33,9.15.53.53,0,0,0,.41.73c12,.27,24.05,1.3,36.06,1.95A108.88,108.88,0,0,0,229.84,399.24Z" transform="translate(-55.21 -129.4)"/><path class="cls-12" d="M369.41,490.71a8.76,8.76,0,0,0-3.78-4.46,6.9,6.9,0,0,0-4.44-.72,8.62,8.62,0,0,0-3.37,1.43,10.82,10.82,0,0,0-1.83,1.33,7.1,7.1,0,0,0-1.28,2,9.08,9.08,0,0,0-1,4.9,6,6,0,0,0,2.46,3.87,12.15,12.15,0,0,0,4.93,2.24,6.92,6.92,0,0,0,5.46-1.09A7.76,7.76,0,0,0,369.41,490.71Zm-3,7.66a5.59,5.59,0,0,1-4.19,1.47,10.64,10.64,0,0,1-4.3-1.44,6.06,6.06,0,0,1-2.64-2.75,5.86,5.86,0,0,1,.17-4,8.31,8.31,0,0,1,1-2.14,5.75,5.75,0,0,1,1.49-1.29,14.43,14.43,0,0,1,2.17-1.29.32.32,0,0,0,.13,0,5.5,5.5,0,0,1,4.33.39,7.42,7.42,0,0,1,3,3A6.36,6.36,0,0,1,366.43,498.37Z" transform="translate(-55.21 -129.4)"/><path class="cls-13" d="M364.63,487.32a5.5,5.5,0,0,0-4.33-.39.32.32,0,0,1-.13,0,14.43,14.43,0,0,0-2.17,1.29,5.75,5.75,0,0,0-1.49,1.29,8.31,8.31,0,0,0-1,2.14,5.86,5.86,0,0,0-.17,4,6.06,6.06,0,0,0,2.64,2.75,10.64,10.64,0,0,0,4.3,1.44,5.59,5.59,0,0,0,4.19-1.47,6.36,6.36,0,0,0,1.16-8A7.42,7.42,0,0,0,364.63,487.32Z" transform="translate(-55.21 -129.4)"/><path class="cls-6" d="M130.39,589.52A21.64,21.64,0,0,0,120,594.31c-6.17,5-10.37,12.24-17.51,16.1a35.36,35.36,0,0,0,37.6-20.08C140.38,589.72,131.25,589.39,130.39,589.52Z" transform="translate(-55.21 -129.4)"/><path class="cls-5" d="M240.58,562c-1.68-.12-3.71-.5-4.69-.45a31.67,31.67,0,0,0-6.78,1.1,36.93,36.93,0,0,0-12.47,6.43c-8.36,6.28-15.83,12.23-26.4,14.15-9,1.64-18,.16-27,.11a43,43,0,0,0-12.63,1.47,23.82,23.82,0,0,0-5.25,2.23c-.79.46-2.3,1.15-2.79,2s-.08,1.26-.15,2.22c12-9.35,29-4,42.71-4.15a38.46,38.46,0,0,0,20.17-5.84c6.39-4,12.09-9.2,19.15-12.12a39.59,39.59,0,0,1,13.9-3.07C239.13,564.68,239.93,563.37,240.58,562Z" transform="translate(-55.21 -129.4)"/><path class="cls-12" d="M238.38,566a39.59,39.59,0,0,0-13.9,3.07c-7.06,2.92-12.76,8.08-19.15,12.12A38.46,38.46,0,0,1,185.16,587c-13.73.18-30.72-5.2-42.71,4.15.07-1-.29-1.53.15-2.22s2-1.49,2.79-2a23.82,23.82,0,0,1,5.25-2.23,43,43,0,0,1,12.63-1.47c9,0,18,1.53,27-.11,10.57-1.92,18-7.87,26.4-14.15a36.93,36.93,0,0,1,12.47-6.43,31.77,31.77,0,0,1,6.78-1.1c1,0,3,.33,4.69.45.17-.37.33-.74.47-1.13a5.62,5.62,0,0,1,.3-1.24c-4.73-1.15-11.33.4-15.5,1.92-6.52,2.38-11.5,7.08-16.89,11.25-11.33,8.77-23.92,9.79-37.74,9.37-6.46-.2-13.1-.37-19.43,1.17a23.47,23.47,0,0,0-8,3.44c-.56.4-1.12,1-1.71,1.36-1.7,1-.26.52-1.7.43s-3.11-.86-4.67-1a23.6,23.6,0,0,0-15.42,4.05c-5.16,3.52-8.79,8.79-13.43,12.91a24.2,24.2,0,0,1-7.07,4.58c-3.47,1.38-2.49,2.76.71,3.46a37.24,37.24,0,0,0,15.73,0,37.84,37.84,0,0,0,14.5-6.59c4.48-3.33,7.11-7.44,10.35-11.82,3-4.06,10.49-5.5,15.29-6.05,5.54-.63,11.13-.2,16.67.24,6,.49,12.14,1.12,18.19.35,6.67-.85,12.38-3.62,17.87-7.4,5.68-3.92,11.09-8.29,17.68-10.62a37.71,37.71,0,0,1,8.24-1.88c.68-.07,1.36-.13,2-.16A24.37,24.37,0,0,1,238.38,566ZM102.5,610.41c7.14-3.86,11.34-11.1,17.51-16.11a21.71,21.71,0,0,1,10.38-4.78c.86-.13,10,.2,9.71.81A35.36,35.36,0,0,1,102.5,610.41Z" transform="translate(-55.21 -129.4)"/><path class="cls-14" d="M394.41,297.32a48.57,48.57,0,0,0-2.26-4.32,20.91,20.91,0,0,0-5.25-5.64A54.43,54.43,0,0,1,394.41,297.32Z" transform="translate(-55.21 -129.4)"/><path class="cls-14" d="M405.48,355.62a25.46,25.46,0,0,0-7.29,7c12.44-6,13.47,9.2,12.39,16.76,15.09-3.07,18.7,5.59,21.64,14.86,3.69,11.64.83,13-7.11,21.72l0,0q2.46-1.84,4.8-3.83h0l0,0c.76-.64,1.5-1.29,2.23-2l.95-.87c.23-.21.46-.42.68-.64.57-.53,1.13-1.06,1.68-1.61q.58-.58,1.17-1.2a35.94,35.94,0,0,0,4.4-5.57.21.21,0,0,0,0-.06,19.72,19.72,0,0,0,3-8.08c0-.11,0-.22,0-.32a12.23,12.23,0,0,0,.05-1.59c0-.11,0-.22,0-.33-.29-4.7-3.34-8.21-6.85-11.45-.95-.88-1.92-1.75-2.86-2.65l-.51-.49a24.08,24.08,0,0,1-2.55-2.89,13.4,13.4,0,0,1-2.26-5.27c-.25-1.12-.42-2.27-.58-3.46-.06-.42-.14-.84-.22-1.24-1.33-6-5.76-8.74-12.13-9.05C412.44,354.23,409.07,353.56,405.48,355.62Z" transform="translate(-55.21 -129.4)"/><path class="cls-14" d="M437.64,439.87h0c.21-.35.41-.7.61-1.06l0,0c.18-.34.36-.69.53-1l0-.08c.16-.33.31-.66.46-1l.06-.14c.13-.32.26-.64.37-1,0-.07.06-.14.08-.2.11-.31.21-.61.3-.92a2.76,2.76,0,0,0,.08-.27c.09-.29.16-.58.23-.88,0-.1.06-.21.08-.31q.11-.45.18-.9l.06-.31c.07-.41.12-.82.16-1.23l0-.4a24.23,24.23,0,0,0-1.83-10.76,34.78,34.78,0,0,0-2-4.12c-.05-.1-.12-.2-.19-.31l-.19-.29c-.23-.33-.5-.69-.77-1.06l-.24-.32a7.87,7.87,0,0,1-1.2-2.12l-.06-.24h0c-.68.64-1.39,1.26-2.09,1.87l-.35.3c-.61.52-1.23,1-1.85,1.54l-.7.57c-.86.69-1.74,1.36-2.63,2,4.35,3,8,4.89,10.09,11,1.47,4.37.26,8.24.23,12.39Z" transform="translate(-55.21 -129.4)"/><path class="cls-14" d="M294.81,284.61c1.09-2.15,3.72-6,2.45-10.29,3.85-.22,13.74.11,18,3.71-.86-3.45-1.58-3-1.86-4.64,6.85-1.28,18.19-1.83,24.37,7.75a10.11,10.11,0,0,0-1-11.2c3.37,2.19,6.23,5.85,6.68,9.94,5-2.51,4.05-10.07,2.33-14.41,4.69,2.12,8.95,8.32,9.39,13.49a68.39,68.39,0,0,0,2.76-8.22c2.36,1.44,3.2,4.8,3.81,7.39,31.85,11.65,37.22,46.22,36.52,81.37,4-4.55,8.55-7.73,15.39-8-5.55-6.46-7.18-16.17-9.49-24.13-2.58-8.87-5.17-17.85-9.55-26a52.35,52.35,0,0,0-13.41-16.62,38,38,0,0,0-9.24-5.31c-1.18-.48-7-1.61-7-2.87a.8.8,0,0,1,.1-.38.41.41,0,0,1,.05-.09l.06-.11.07-.09.09-.11a.39.39,0,0,1,.08-.1l.1-.11.1-.1.11-.11.11-.11.12-.1.12-.11.12-.11.13-.11.12-.1.14-.12.11-.09.25-.2.09-.07.15-.13.1-.08.13-.12.09-.08a.69.69,0,0,0,.13-.11l.07-.07a.68.68,0,0,0,.12-.12l.06,0,.14-.16a12.75,12.75,0,0,0,2.16-4.15,11.16,11.16,0,0,0,.44-2.46,12.28,12.28,0,0,0-.31-3.67,16.22,16.22,0,0,0-1.29-3.5c-3.17-6.27-9.44-11-15.75-13.79-14.86-6.58-30.06-2.61-44.14,3.94-7.43,3.46-14.68,7.3-22.32,10.32a156.74,156.74,0,0,1-25.39,7.5l1.09.05C275.4,267.86,290.64,274.25,294.81,284.61Zm-25.1-16.55,1.49-.11.24,0Z" transform="translate(-55.21 -129.4)"/><path class="cls-14" d="M269.71,268.06l1.73-.07-.24,0Z" transform="translate(-55.21 -129.4)"/><path class="cls-14" d="M269.71,268.06l1.73-.07-.24,0Z" transform="translate(-55.21 -129.4)"/><path class="cls-15" d="M237.41,261.46v0a66,66,0,0,1-1.92-7.44c-.13-.65-.26-1.29-.38-1.94s-.22-1.25-.32-1.87c-.23-1.32-.43-2.64-.63-4-.71-4.71-1.12-9.18-3.82-13.26,4.75,28.8-1.52,29.56,6.28,44.6,5.16,9.94,19.53,14.17,37,10.91-.14-.06-.29-.1-.43-.15l-.14,0-.33-.08-.14,0-.45-.09h0l-.56-.1h-.08l-1.28-.18h0l-.64-.09h0l-.75-.12a44.56,44.56,0,0,1-13.63-4.38c-8.67-4.58-14.65-12.31-17.7-21.56Z" transform="translate(-55.21 -129.4)"/><path class="cls-15" d="M408.15,217.93c0,.12,0,.24,0,.36s0,.13,0,.2l0,.33a1.5,1.5,0,0,1,0,.2c0,.11,0,.22-.05.33a1.11,1.11,0,0,1,0,.19c0,.12-.05.25-.07.37-.11.61-.25,1.21-.37,1.82,0,.2-.07.39-.1.59s0,.27-.05.4a.2.2,0,0,0,0,.07,6.68,6.68,0,0,0-.05,1.34v.06c0,.05,0,.09,0,.14s0,.22,0,.33h0c-.06-.27-.12-.54-.19-.8l0-.08,0-.09c-.07-.26-.15-.51-.23-.76,0-.05,0-.09,0-.13-.08-.24-.17-.47-.25-.71a.36.36,0,0,1,0-.11l-.33-.87h0l-.3-.8h0c2.77,16.51,14.29,20.15,21.13,38.15h0c-.14-.4-.29-.79-.43-1.19s-.26-.74-.4-1.11l0-.07h0c-.35-.93-.71-1.85-1.08-2.77l-.33-.81c-.27-.66-.54-1.31-.82-2l-.4-1c-.26-.59-.51-1.18-.77-1.76-.53-1.23-1.07-2.46-1.6-3.68v0l-.09-.21-.75-1.72h0c-.16-.36-.31-.73-.47-1.09s-.29-.67-.43-1c-1.53-3.62-3-7.3-4.25-11-.42-1.25-.83-2.49-1.22-3.75-.14-.43-.27-.86-.4-1.29-.19-.64-.38-1.28-.56-1.92-.05-.19-.1-.37-.16-.56-.52-1.9-1-3.81-1.42-5.74h0c-.19-.85-.36-1.71-.53-2.56l-.12-.65c-.16-.86-.31-1.72-.44-2.59a37.66,37.66,0,0,1,0,5.62c0,.24-.08.48-.13.72a1.84,1.84,0,0,1-.05.25c0,.17-.06.34-.1.51l-.09.42-.09.47-.15.74,0,.18a13.77,13.77,0,0,0-.21,1.71c-.1-.27-.19-.54-.28-.82s-.19-.59-.3-.88a.49.49,0,0,0,0-.11l-.15-.39c-.08-.2-.17-.39-.26-.58a5.63,5.63,0,0,0-.37-.62c0,.18,0,.35,0,.53Z" transform="translate(-55.21 -129.4)"/><path class="cls-16" d="M375.76,278.78c.13.15.27.29.41.43.87.46,1.74.94,2.57,1.47,1.39.87,1.38.86,2.76-.08s2.43-1.71,3.6-2.62a52,52,0,0,0,7.85-7.49,37.64,37.64,0,0,0,7.88-16c-1.35,12.05-9.74,21.53-19.56,27.91a42.18,42.18,0,0,1,3.32,2.72c19.3-11.62,22-34.65,15.48-51.06a66.51,66.51,0,0,1-.67,16.07c-2.14,11.33-8.82,21.42-19.23,26.72A32.55,32.55,0,0,1,375.76,278.78Z" transform="translate(-55.21 -129.4)"/><path class="cls-14" d="M375.52,278.87l.65.34c-.14-.14-.28-.28-.41-.43Z" transform="translate(-55.21 -129.4)"/><path class="cls-16" d="M375.52,278.87l.65.34c-.14-.14-.28-.28-.41-.43Z" transform="translate(-55.21 -129.4)"/><path class="cls-16" d="M245.11,332.61c5.82,2,11.52,3,17.24.13a22.39,22.39,0,0,0,6.28-4.72c-29.6-9.57-38.14-23.39-44.12-42.1-4.27-13.33-1.78-26.81-.84-40.25-.3,1.34-.57,2.69-.76,4.06-.41-7-.67-14.15-2.77-20.92-.91,10.92-1.82,21.73-4,32.51-2,10.06-4.27,20.28-3.36,30.6A47.69,47.69,0,0,0,245.11,332.61Z" transform="translate(-55.21 -129.4)"/><path class="cls-16" d="M242.19,367.57a40.93,40.93,0,0,0,11.19-13.44,85.36,85.36,0,0,0,3.95-8.65c.38-1,.82-6.17,1.94-5s.57,6.43.52,7.91a56.84,56.84,0,0,1-1.12,9.18,127.09,127.09,0,0,1-5.67,19c-4.31,11.8-9,23.53-9.43,36.26-.19,6.08.64,11.27,3.76,16.57a51.75,51.75,0,0,0,10.52,12.38,62.36,62.36,0,0,0,13.91,9.44,86.83,86.83,0,0,1,9.77,2.85,12.09,12.09,0,0,0-1.78-3.46c-1.39-1.39-2.8-2.85-4.18-4.36a80.7,80.7,0,0,1-6.11-5.45c-7-7.63-10.44-17-11.37-27.11-1.55-16.86,11.6-31.43,15-47.8,2.22-10.82.7-25.92-3.51-35.82a24.4,24.4,0,0,1-4.19,3.43,20.36,20.36,0,0,1-6.37,2.74c-1.08.25-2.43.11-3.44.45s-1.49,1.3-2.3,2.17a20.64,20.64,0,0,1-3.7,3.1c-2.28,10.91-12.17,18.89-19,26.68a36.35,36.35,0,0,0,4.69,1.23C238.14,370.34,239.85,369.34,242.19,367.57Z" transform="translate(-55.21 -129.4)"/><path class="cls-14" d="M316.78,399.56c3.77,2.07,18.85,6,18.12-2.26-.52-5.9-7.11-11.13-11.49-14a48.8,48.8,0,0,0-11.32-5.51c-1.18-.41-2.76.68-3.75.14l-1.17.1c-3.95,1.88-1.5,10.27.32,13.21A24.79,24.79,0,0,0,316.78,399.56Z" transform="translate(-55.21 -129.4)"/><path class="cls-14" d="M354.74,531.2c-3.84,6.11-7.31,12.54-9.25,19.49a15.4,15.4,0,0,0-.65,7c.87,4.42,5,7.65,9.46,8.54s9-.16,13.24-1.73c21.27-7.91,36-28.68,41.1-50.8,1.23-5.33,2-10.92.75-16.26-4.45-19.66-17.27-8.58-26.62.05A166.14,166.14,0,0,0,354.74,531.2Z" transform="translate(-55.21 -129.4)"/><g class="cls-17"><path class="cls-5" d="M328.16,492.19c-1.7.56-3.38,1.18-5,1.83,1.61.35,3.24.69,4.92,1,7,1.37,14.5,2.57,21,2.33l-2.08-.49C340.86,495.43,334.42,493.89,328.16,492.19Z" transform="translate(-55.21 -129.4)"/><path class="cls-5" d="M216.19,618.6c12.44-17.05,23.6-36.32,29.66-56.46a255.14,255.14,0,0,0,8.25-37.42,167.58,167.58,0,0,1-5.51,21,.57.57,0,0,1-.08.24q-2.47,7.42-5.64,14.57a136.3,136.3,0,0,1-10.08,18.84c-2.83,4.37-6,8.5-9.11,12.66-3.63,4.84-7.26,9.69-10.72,14.65a109.2,109.2,0,0,0-8.69,14c-1,2.1-1.81,4.32-2.7,6.48l9.2,11.46a40.12,40.12,0,0,0-.93-4.09C208.73,628.74,212.71,623.36,216.19,618.6Z" transform="translate(-55.21 -129.4)"/><path class="cls-5" d="M298,641.92c-5.71,1.69-11.76,1.72-17.71,1.62-7.91-.13-15.79-.58-23.68-1l-.67,0,4,7.18c1.56,0,3.13.15,4.68.26,6.52.44,13.05,1,19.59,1a41,41,0,0,0,8.57-.73,36.32,36.32,0,0,0,11.11-5c7.71-4.82,14.4-11.12,21.27-17l.47-.4-15,8.38A63.14,63.14,0,0,1,298,641.92Z" transform="translate(-55.21 -129.4)"/><path class="cls-5" d="M247.94,463.94c14.79,3,27.33,13,41.13,19.06a167,167,0,0,0,31.46,10.44c1.67-.69,3.36-1.35,5.07-2a142.45,142.45,0,0,1-18.1-6.23c-10.69-4.72-20.8-10.92-30.59-16.92-7.66-4.69-15.58-9.55-23.72-13.65a78.4,78.4,0,0,0-32.35-7.8c-8.47,7.47-14,17.78-17.1,28.56C217.22,461.82,233.15,460.94,247.94,463.94Z" transform="translate(-55.21 -129.4)"/></g><path class="cls-14" d="M482.08,398.68a28.79,28.79,0,0,0-2.29-4.17,47.22,47.22,0,0,0-11,1.46,58.53,58.53,0,0,0-8.69,3.14q-4.25,1.84-8.34,4a119.08,119.08,0,0,0-14.12,8.54c.92,1.47,1.73,3.35,2.19,4.26a.36.36,0,0,1,0,.09c4.62-.47,24.44-4.64,34-12.57A68.73,68.73,0,0,1,482.08,398.68Z" transform="translate(-55.21 -129.4)"/><path class="cls-14" d="M333.29,532.75a9.21,9.21,0,0,0-1,3.42,4,4,0,0,0,1.23,3.24,5.75,5.75,0,0,0,3.22,1.07,16.35,16.35,0,0,0,6.83-.39c3.71-1.21,6.36-4.44,8.6-7.64,1-1.47,2.08-3.2,1.7-5s-1.79-2.73-3.26-3.48c-3.31-1.68-7.37-2.61-10.38-.17A26.08,26.08,0,0,0,333.29,532.75Z" transform="translate(-55.21 -129.4)"/><path class="cls-14" d="M66.36,552.49c-2.09,6.4-3,13.7.13,19.67.75,1.45,1.88,2.89,3.49,3.21,2,.39,3.84-1.07,5.24-2.54C85.52,562,92.6,550.72,99.87,537.67c2.93-5.26,26-35.81,29.61-40.63,5-6.7-35,16.36-39.8,21.08C79.81,527.93,70.75,539.08,66.36,552.49Z" transform="translate(-55.21 -129.4)"/><path class="cls-16" d="M305.06,468.65a44,44,0,0,1-6-1.58c-9.13-3.33-32.5-15.69-35.11-18.22-1.75-1.7-13.78-11-17-15.32-2.14-2.83-.62-7.15-3.89-8.53-2-.83-6.38-.23-8.42.36q-9.8,2.86-19.33,6.52c-.52.2-1.11.49-1.21,1a.61.61,0,0,0,.35.59l-1.43.34a33,33,0,0,0-9.14,8.75,3.25,3.25,0,0,0-.78,1.93c.09,1.65,2.25,2.17,3.9,2.21,9.11.24,15.52-1.11,24.56,0s20.82,4.78,28.29,10c4.81,3.36,13,7.09,17.8,10.43,5.59,3.87,7.95,6.85,14.35,9.12,15.82,5.6,32.17,11.06,48.93,10.39,7.71-.3,15.3-1.9,22.84-3.49l12.71-2.69Q340.53,476.16,305.06,468.65Z" transform="translate(-55.21 -129.4)"/><path class="cls-14" d="M208.2,481.8a14.1,14.1,0,0,0-2.46,8.41c.23,3,2,5.92,4.83,6.91a3.45,3.45,0,0,0,1.71.21,4.78,4.78,0,0,0,2.54-1.78q5.42-5.94,10.84-11.89a13.12,13.12,0,0,0,2.79-4c2-5.36-2.76-9.42-7.59-7.9A23.77,23.77,0,0,0,208.2,481.8Z" transform="translate(-55.21 -129.4)"/></g></g></svg>