<svg xmlns="http://www.w3.org/2000/svg" viewBox="0 0 448.99 541.12"><defs><style>.cls-1{isolation:isolate;}.cls-2{fill:#9fcef0;}.cls-3{fill:#e6d0a1;}.cls-4{fill:#f1f2f2;}.cls-11,.cls-5{fill:#a97d50;}.cls-6{fill:#ffcc07;}.cls-7{fill:#e6e0d6;}.cls-8{fill:#010101;}.cls-10,.cls-9{fill:#f7f2e5;mix-blend-mode:soft-light;}.cls-10{opacity:0.5;}.cls-11{opacity:0.35;}.cls-11,.cls-12{mix-blend-mode:multiply;}.cls-12{fill:#e40d1c;}.cls-13{fill:#f9b041;}</style></defs><title>bull_02</title><g class="cls-1"><g id="Layer_1" data-name="Layer 1"><path class="cls-2" d="M422,135.63c-24.22-9.38-54.55-7.95-77.81,2.8C317,151,302.54,167.61,288.33,193.9c-25.89,47.89-45.8,48.48-94.56,67s-81.84,32.44-102.36,91.29c-13.85,39.71,5.14,86.51,43,98,28.24,8.6,53,2.39,80.23,15.88,26.23,13,48,22.25,78.21,20.64,26.48-1.41,37.65-19.23,61.17-27,28.85-9.54,61.37,1,89.65,5.53,42.51,6.83,74.16,2.21,85.92-44.59,8-31.81,10.67-75.78-6.37-104.62-15.68-26.54-53.2-41.4-64.3-69.16-5.91-14.79,1-27.08,2.54-42.1C466.22,159.77,438,141.85,422,135.63Z" transform="translate(-86.89 -129.4)"/><path class="cls-2" d="M479.44,210.36c-38.1,10.29,7.07,90.43,37.53,46.75C530.85,237.21,504.34,203.63,479.44,210.36Z" transform="translate(-86.89 -129.4)"/><path class="cls-2" d="M420.27,417.52c-17.07-7-37.48-7.74-53.49,1.39C354.27,426,345.56,438.6,333,445.71c-11.58,6.59-25.59,8-37,14.89s-19.13,23.67-10,33.34c2.75,2.9,6.54,4.58,10.35,5.81,24.63,8,46,5.35,71.69,9,12.74,1.81,11,1.4,22.76,6.6C427.53,531.55,529.09,461.85,420.27,417.52Z" transform="translate(-86.89 -129.4)"/><path class="cls-3" d="M372.71,460.14c4.87-5.86,8.27-13.3,14.33-18.09a23.43,23.43,0,0,0,3.16-2.54,8.36,8.36,0,0,0,1.75-5.14c.27-4.26-1.26-8.39-3-12.21-2.83-6.36-7.17-12.9-5.62-20.15.84-3.9,2.09-7.06-1-10.41a13,13,0,0,0-8.22-4.1c-12.53-1.47-23.32,8-35.56,8.44-9,.34-18-2.59-26.92-3.4s-18.34.18-27.33-1.68a30.06,30.06,0,0,1-6.94-2.75c-5.79-3-11.17-6.76-17.12-9.45-5.67-2.56-12.47-4.24-17.93-.27-3.63,2.63-3.21,5.88-3,9.85a16.31,16.31,0,0,1-2.13,8.71c-3.49,6.44-9.31,11.64-11.58,18.74-1.2,3.72-1.23,7.25,1.49,10.21a35.7,35.7,0,0,1,5.74,8.57c3.67,7.43,6.22,15.33,12.32,21.24a76.77,76.77,0,0,0,8.64,7.27c.7-2.13-.18-4.49-.36-6.76,2.74,2,3.77,6.07,7.06,7.55a7.94,7.94,0,0,0,.18-2.12c1.14.77,1.84,1.89,3.05,2.58-.07-1.14-.29-2.32-.25-3.38,3,4.57,9.14,9.06,14.53,10.16a10,10,0,0,0-.57-2.95c1.85,1.18,5.58,5,8.87,7,1.54.24,3.08.45,4.63.65-.58-2-2.05-3.49-2.55-5.48,2.55,1.46,4.36,4.23,6.87,6l2.63.29a17.5,17.5,0,0,1-2.15-3.35,26,26,0,0,0,6.57,3.78l.2,0c-.08-1.05-.43-2.18-.61-3.52-.64-4.63,3.55-4.07,4.28-8,.18-1-.66-2.18-.48-2.94.37-1.52,1.13-.63,1.74-2s1.16-2.51,1.35-1.61,1.07,2.94,1.17,3.55c.31,2-.22,3-1,5.41.63.07,1.47.79,2.06.86-.23,1.12-1.41,3.41-1,4.46s1.79,1.24,2.35,2.07a10.57,10.57,0,0,1,1.1,2.54,5.91,5.91,0,0,0,4.46-2.66,6.41,6.41,0,0,1-.94,3l3,.17v0c1.94-2.09,5.21-3.95,7.63-5.6a34.57,34.57,0,0,1-1.05,5.71c4.91-.14,10.25-4.21,14.05-7.28-.51,1.59-1,3.26-1.33,4.89,1.18-.64,2.37-1.26,3.57-1.85-.15.41,0,1.05-.14,1.5,4.65-.79,13.3-6.59,15.26-10.24-.24,2.27-.2,4.57-.91,6.43C362.93,468.91,368.56,465.13,372.71,460.14ZM349,414.4c0-.11,0-.23.05-.36a1.71,1.71,0,0,1,.09-.3,39.1,39.1,0,0,1,6.37-9.93c3.54-3.92,6.69-7.29,11.52-9.52,2-.94,3.87-1.71,4.84,1,.72,2.05.24,4.53-.09,6.65-.83,5.22-4.53,7.88-9.36,9.34a45.81,45.81,0,0,0-7.81,3,11.29,11.29,0,0,1-4.16,1.6A1.36,1.36,0,0,1,349,414.4Zm-97-30.28c1.46-2.51,3.13-1.4,4.95-.11,4.34,3.09,6.8,7,9.56,11.49a39.12,39.12,0,0,1,4.42,10.94,1.63,1.63,0,0,1,0,.31c0,.13,0,.25,0,.36a1.37,1.37,0,0,1-1.72,1.25,11.28,11.28,0,0,1-3.79-2.35,46.56,46.56,0,0,0-7.11-4.43c-4.48-2.33-7.62-5.63-7.46-10.91C250.88,388.53,250.86,386,252,384.12ZM351,448.51a97.28,97.28,0,0,1-36,7.57c-2.1,0-4.14-.09-6.1-.28-10.91-1.06-26.24-6.24-39.06-13.21C254,434,244.07,423.86,241.75,414a1.09,1.09,0,0,1,.82-1.33,1.12,1.12,0,0,1,1.34.82c5,21.11,45.6,38.2,65.19,40.1,24.8,2.4,61.85-11.27,68.14-30a1.11,1.11,0,0,1,2.11.7C376.27,433.44,365.94,442.29,351,448.51Z" transform="translate(-86.89 -129.4)"/><path class="cls-4" d="M267.43,347.8a9.15,9.15,0,0,0-2.73,5,5.64,5.64,0,0,0-.13.67,8.08,8.08,0,0,0,.4,1.78,3.35,3.35,0,0,0,1.07,1.15c4.48,2.94,7.89-3.54,6.29-7.24A3,3,0,0,0,267.43,347.8Z" transform="translate(-86.89 -129.4)"/><path class="cls-3" d="M190.44,456.66c-5-8.25-11.93-14.92-19.18-21.19a67.11,67.11,0,0,1,3.17,25.38.94.94,0,0,1-1,.92c.94,4.81.5,10.2,3.91,14,3.6,4,9.39,4.82,14.36,5.84a1,1,0,0,1,.26.1,1,1,0,0,1,.21-.27C199.59,474.65,194.76,463.76,190.44,456.66Z" transform="translate(-86.89 -129.4)"/><path class="cls-4" d="M275.16,338.49c-6.12-4-15.07-4.22-20.21,1.5s-7.63,15.54-2.28,21.68c4.54,5.2,13.2,9,20.07,7.34a.9.9,0,0,1,1,.35c5.36-3,8.16-9.48,8.87-15.39A15.83,15.83,0,0,0,275.16,338.49Zm2.15,19.16a8.72,8.72,0,0,1-9.53,3.58,7.62,7.62,0,0,1-7.66-9.05,8.79,8.79,0,0,1,5-7.87,6.35,6.35,0,0,1,7.18-.43,9.55,9.55,0,0,1,1.62.74C278.35,347.22,280.32,353.23,277.31,357.65Z" transform="translate(-86.89 -129.4)"/><path class="cls-5" d="M205.52,585.45c-7.55-3.68-14-9.54-17.2-17.43-3.62-8.95-2.79-19.48-.18-28.59,2.15-7.47,5.8-14.42,7.61-22,2.8-11.75.55-23.25-1.83-34.86a3.05,3.05,0,0,1-1.9.44c3.58,11.25,4.34,23.43.69,34.75-2.77,8.58-6.83,16.59-8.56,25.51-2.06,10.64-2.54,22.4,3.79,31.71,7.39,10.88,21.57,17.31,34.44,19.43-.23-1.29-.41-2.6-.52-3.9A59.72,59.72,0,0,1,205.52,585.45Z" transform="translate(-86.89 -129.4)"/><path class="cls-6" d="M205.14,338a.71.71,0,0,1,.28.72c-.15,1.56-.07,2.76-1,4.1a7.88,7.88,0,0,1-3.87,2.74c-2.59.89-6,.6-7.68-1.76a7.08,7.08,0,0,1-.67-7.19,6.72,6.72,0,0,1,4.42-3.84c-.22-.62-.42-1.23-.58-1.85-9.09,1.58-9.57,15.46-.66,18.35a11.36,11.36,0,0,0,10.7-2.45,11.49,11.49,0,0,0,3.28-5,7.85,7.85,0,0,0,.08-4C208.8,335.55,205.44,335.55,205.14,338Z" transform="translate(-86.89 -129.4)"/><path class="cls-7" d="M253.48,316c3.87-1.86,6.83-4.9,9.56-8.16a44.27,44.27,0,0,0,8.22-13.92,20.48,20.48,0,0,0,1.2-7.67,13.46,13.46,0,0,0-.89-4.16c-.11-.28-.39-.77-.5-1a1.09,1.09,0,0,1-.14-.23,20,20,0,0,0-3.86-1.89,52,52,0,0,1-6.79-3.91,35.4,35.4,0,0,1-13.11-16.36c-4.36-11.39-1.64-23,.11-34.61.05-.27.09-.56.13-.84a41.07,41.07,0,0,0-.9-6.05,48.9,48.9,0,0,0-2.93,5.55c-.27-3,.51-7,.31-10.4-1.36,7-5.77,11.52-9,18.26,1.66-6.61,3.46-13.14,3.47-20a37.09,37.09,0,0,1-1.9,3.93,128.18,128.18,0,0,1-6.5,16c-6.41,13.17-15.44,25.22-17.24,40.16a45.68,45.68,0,0,0,18.92,42.41c3.07,2.21,6.31,4.37,10.12,5A20,20,0,0,0,253.48,316Zm-11.4-1.44c-.33-.11-.65-.22-1-.35a37.06,37.06,0,0,1-3.75-1.69c-1.23-.62-2.41-1.33-3.57-2.06s-2.28-1.56-3.36-2.42a41.54,41.54,0,0,1-5.94-5.77,39,39,0,0,1-4.62-6.9,41.54,41.54,0,0,1-3-7.73l-.49-2c-.15-.68-.25-1.36-.37-2-.06-.34-.13-.68-.18-1l-.11-1c-.06-.68-.15-1.37-.19-2.06a51.94,51.94,0,0,1,1.75-16.3,64.47,64.47,0,0,0-.71,16.22,46.32,46.32,0,0,0,1.51,7.92,41.77,41.77,0,0,0,3,7.46,38.7,38.7,0,0,0,4.42,6.71,45,45,0,0,0,5.62,5.77,47.14,47.14,0,0,0,6.58,4.71,37.45,37.45,0,0,0,3.59,1.92l.92.43c.31.14.63.26.94.39a10.26,10.26,0,0,0,1.95.61,10.56,10.56,0,0,1-2-.42C242.73,314.8,242.4,314.7,242.08,314.58Z" transform="translate(-86.89 -129.4)"/><path class="cls-7" d="M378,323.09a21.81,21.81,0,0,0,14.19,9.06c5.16.76,10.09-1.43,14.56-3.78a48.24,48.24,0,0,0,15-12.31c7-8.68,10.05-19.65,9.59-30.72-.66-15.64-8.61-29.89-11.42-45.14-.51-2.74-1-5.48-1.42-8.22a37.64,37.64,0,0,1-1.29-4.64c-1.25,6.71-.69,13.46-.29,20.26-1.9-7.21-5.4-12.46-5.43-19.6-.83,3.3-.8,7.35-1.62,10.28a51.41,51.41,0,0,0-1.85-6,38.57,38.57,0,0,0-2,5.74c-.18,4.3-.17,8.57-.32,12.61-.35,9.64-2.9,19.41-9.33,26.82A37.65,37.65,0,0,1,380.16,288c-2.06.71-4.16,1.25-6.26,1.81a12.79,12.79,0,0,0-1.59.47c-.83.48-1.81,2.65-2.24,3.92C366.86,303.75,372.56,315.44,378,323.09Zm15.29,5.64c.34-.07.67-.13,1-.21l1-.25a40.57,40.57,0,0,0,3.88-1.22,47.07,47.07,0,0,0,7.34-3.42A43.36,43.36,0,0,0,413.1,319a38.6,38.6,0,0,0,5.59-5.77,42,42,0,0,0,4.31-6.78A46.54,46.54,0,0,0,426,299a64.69,64.69,0,0,0,2.3-16.07,51.77,51.77,0,0,1-1.3,16.34c-.16.67-.38,1.33-.57,2l-.3,1c-.11.33-.24.65-.36,1-.25.64-.47,1.29-.74,1.93l-.86,1.89a40.72,40.72,0,0,1-4.39,7.05,38.33,38.33,0,0,1-5.82,5.92,41.06,41.06,0,0,1-6.9,4.57c-1.22.65-2.47,1.23-3.74,1.76s-2.58,1-3.9,1.37a36.37,36.37,0,0,1-4,1c-.34.07-.68.12-1,.17s-.67.09-1,.12a10,10,0,0,1-2.05.05A10.42,10.42,0,0,0,393.3,328.73Z" transform="translate(-86.89 -129.4)"/><path class="cls-3" d="M237.72,187.27v-.09l-.06,0Z" transform="translate(-86.89 -129.4)"/><path class="cls-4" d="M355.08,347.35c-5.59,3.29-8,8.69-7.84,15,.16,5.25,1.75,11,5.92,14.42a1,1,0,0,1,1.06-.16c7.1,3.18,18.78.35,23.44-6,4.33-5.9,2.44-16.65-2.5-21.71C370,343.64,361.09,343.79,355.08,347.35Zm12.84,14.5a7.6,7.6,0,0,1-2.9,5.81A7.18,7.18,0,0,1,359,369a7.78,7.78,0,0,1-3.61-.37,8.91,8.91,0,0,1-5.05-12.28c1-2,5-5.36,8-5.52a6.28,6.28,0,0,1,6,1.79,8.87,8.87,0,0,1,3.9,6.23A8.25,8.25,0,0,1,367.92,361.85Z" transform="translate(-86.89 -129.4)"/><path class="cls-6" d="M158,273.09c-.45,7.14-3.42,13.66-9.28,17.81a25.92,25.92,0,0,1,16.46,9.66,29.91,29.91,0,0,1,9.9-16.41A27.38,27.38,0,0,1,158,273.09Z" transform="translate(-86.89 -129.4)"/><path class="cls-5" d="M432.94,354.39a15.5,15.5,0,0,0-2.8.32c-2.44.42-4.86.88-7.3,1.28l1.14.2a22.67,22.67,0,0,1,4.74.78.54.54,0,0,1,0,1c-3,.88-7.11-.24-10.06-.93a54.22,54.22,0,0,1-10-3.37c-6.14-2.76-13-6.89-17.13-12.37a.94.94,0,0,1-.17-.37,1,1,0,0,1-.1-.53,34.27,34.27,0,0,0,.14-4.3,19.41,19.41,0,0,1-.13-2.16,23.93,23.93,0,0,1-11.17-5.68c-3.06-2.67-5.28-6.3-7.18-9.85a45.31,45.31,0,0,1-5.31-15.27c-.52-3.87-.41-9.54,2.16-13-4.75-2.2-8.23-7.75-5.89-12.91C365,274.79,367,273,368.77,271a11.92,11.92,0,0,0,3-7.24c-4.17,4-10,4.73-15.89,4.64-8.11-.12-16-2-23.89-3.65-8.22-1.69-16.61-3.17-25-3.12-7.32.05-15.59,1.91-21.1,7.08-5.05,4.73-6,13.45-1.4,18.83.88,1-.57,2.52-1.49,1.49a15,15,0,0,1-3.72-10,40,40,0,0,0-5.95,1.9,15,15,0,0,1,1.12,6.86c-.33,9.81-7.26,19.44-14.18,25.91a24.46,24.46,0,0,1-14.31,6.53c-.61,0-1.2.06-1.79,0-.11.65-.39,1.29-.56,1.92a18,18,0,0,0-.54,4.2,1,1,0,0,1-.26.7,1,1,0,0,1-1,1.08c-7.68.5-15.91-1-22.39-5.31-3.12-2.09-5.36-5-8-7.57s-7.27-6.26-11.1-3.55a16.13,16.13,0,0,0-2.12,6,37.68,37.68,0,0,0-1,8.26,15.59,15.59,0,0,0,.49,3.48.77.77,0,0,1,.14.57A18.42,18.42,0,0,0,204,339.7a1.89,1.89,0,0,0-.26-.56A.75.75,0,0,1,204,338a3.65,3.65,0,0,1,4-3.29c2.85.38,3.28,4,3,6.29a10,10,0,0,1-.81,2.82,57.78,57.78,0,0,0,6.11,1.32,17.82,17.82,0,0,0,7.27-1.35c4.83-1.81,9.27-4.85,13.62-7.58a.9.9,0,0,1,1.62.71c-2.88,14.69-11.37,27.58-18.29,40.59-6.38,12-12,25.41-11,39.28.67,9.05,4.8,17.4,10.48,24.47.71-1.24,2.52-4.44,2.75-5.78,4.69,6.91,4.9,15.74,9.53,17.25a10.46,10.46,0,0,1,.36-4c2.48,4.95,2.68,5.59,6.23,8.39a12.45,12.45,0,0,1-.31-4.14c2.68,4.46,5.81,6.25,10.32,8.57a56.7,56.7,0,0,1-7.05-6.62,44.52,44.52,0,0,1-6.58-10.75c-1.78-3.84-3.35-7.8-5.44-11.5a27.17,27.17,0,0,0-3.68-5.11,13.38,13.38,0,0,1-2.34-3c-3.2-6.48,2.16-14.54,5.78-19.58a76.79,76.79,0,0,0,6.31-9.37c1.9-3.7,1.41-7,1.41-11,0-6.33,6.1-10.13,11.92-10.38,6.49-.28,12.77,3.09,18.24,6.19s11.07,7.31,17.33,8.75a77.14,77.14,0,0,0,14.72,1.15,132.63,132.63,0,0,1,15.31.82c4.86.63,9.66,1.61,14.51,2.33,4,.58,8.16,1.14,12.14.37a61.88,61.88,0,0,0,9-2.69c6.36-2.26,12.81-4.93,19.6-5.45,6-.45,13.16,1.71,15.58,7.8,1.13,2.86.14,5.62-.53,8.45-1,4.45.28,8.42,2.1,12.47,3.13,7,7.89,14.56,6.07,22.53-.69,3-2.56,4.44-4.86,6.2-3.47,2.67-6,6.38-8.49,9.95a100.24,100.24,0,0,1-6.94,9.33A32.81,32.81,0,0,1,369,466.3a11.33,11.33,0,0,1-.64,4.35c3-1.08,5.92-2.3,8.79-3.66a16,16,0,0,0,4.4-7.19,12.1,12.1,0,0,1,.12,3.69c2.51-3.14,5.35-6.68,6.9-10.41.31,2.07.28,4.21.79,6.24,1.66-.43,3.2-2.68,4.54-3.75a24.45,24.45,0,0,0,6-6.34c1.12-1.72,2.46-3.23,3.68-4.86a40.46,40.46,0,0,0,4.9-14.4c3.91-27.41-14.81-51.25-15-78.18a1,1,0,0,1,.12-.47c-.15-.75-.27-1.51-.36-2.27-.06-.51.69-.54.83-.12.25.72.5,1.44.77,2.15a.86.86,0,0,1,.41.71c0,.14,0,.28,0,.42a39.59,39.59,0,0,0,14.52,18.86c2.88,2.06,6.14,4.32,9.77,4.61a17.86,17.86,0,0,0,11-3.45c3.34-2.43,4-6.16,4.46-10a29,29,0,0,0,.31-5.17C435.2,355.53,434.66,354.39,432.94,354.39ZM284,355.81c-1.08,5.69-4.44,12.76-10.34,14.78a.82.82,0,0,1-.43.24c-8.35,2.16-19.87-3.06-24-10.63-2.2-4.08-1.69-8.7-.47-13,1.11-3.89,2.81-8,6-10.67,6.5-5.4,16.36-3.61,22.63,1.25C283.15,342.24,285.35,348.78,284,355.81Zm1.35-24.22c-.39,1.2-1.35,1.88-2.4.91-1.43-1.3-2.83-2.64-4.24-4s-2.88-2.61-4.4-3.84c-.69-.55-4.6-3.22-2.86-4.08s4.68.6,6.21,1.23a17.38,17.38,0,0,1,4.64,2.61C284.18,326.06,286.21,329,285.36,331.59Zm79.24-2.27c1.55,1.16-3,3-3.8,3.46-1.72.92-3.38,1.9-5,3s-3.26,2.09-4.9,3.11c-1.21.75-2-.09-2.19-1.34-.36-2.68,2.18-5.22,4.32-6.44a17.14,17.14,0,0,1,5-1.7C359.66,329,363.17,328.25,364.6,329.32Zm-.56-57c.37-.25.7.34.35.6-3.82,2.83-8.39,4.82-11.39,8.62-2.8,3.53-2.89,8.43,1.4,10.74a1.11,1.11,0,0,1-.85,2c-4.57-1.22-5.63-7.05-3.89-10.87C352.35,277.58,359.1,275.75,364,272.35Zm-53.35-3.27c5.63-1.33,11.63-.54,17.31.06,5.31.56,11.14,1.45,16.29-.44.38-.14.63.48.27.65-4,1.93-8.76,1.52-13.09,1.25-5.54-.34-11.15-1-16.68-.33-4.19.52-8.29,2.09-11.16,5.3-3.47,3.89-3.77,8.72-3.73,13.68,0,1.27-2.08,1.6-2.26.31C296.35,280.27,301.33,271.3,310.69,269.08Zm14.66,117c-2-.42-4-.79-6-1.06-1-.11-2-.3-3-.38s-2-.21-3-.26a86.43,86.43,0,0,0-12.15-.09,62,62,0,0,0-12,1.92,39.79,39.79,0,0,1,11.91-3.29c1-.11,2.06-.24,3.09-.32l3.1-.15c1,0,2.08,0,3.11,0s2.07.1,3.11.15c2.06.18,4.12.4,6.16.75,1,.15,2,.4,3.05.61s2,.49,3,.77a37.09,37.09,0,0,1,11.26,5.08A56.77,56.77,0,0,0,325.35,386.08Zm13.48-108.75c-3.09.95-6.08,2.17-8,4.9a10.08,10.08,0,0,0-1.39,9.48,1.15,1.15,0,0,1-2.09.88c-2.87-5.66.86-13,6.35-15.36,3.16-1.38,6.64-1.77,9.94-2.63a33.08,33.08,0,0,0,10.89-4.91c.34-.23.72.29.43.57C350.56,274.37,344.4,275.63,338.83,277.33ZM377,374.2c-6,5.11-16.45,7.49-23.73,4.08a1,1,0,0,1-.37-.32c-6.21-3.53-8-12.81-7.22-19.29.81-7,5.72-12.43,12.34-14.76,7.72-2.71,17.88-1.12,21.64,7C383,358,383.4,368.72,377,374.2Z" transform="translate(-86.89 -129.4)"/><path class="cls-6" d="M444.56,310.56c-.52,5.19-2.4,10.11-6.34,13.52a32.48,32.48,0,0,1,13,7.7,28.2,28.2,0,0,1,8.5-12.51C453.89,318.33,448.67,314.83,444.56,310.56Z" transform="translate(-86.89 -129.4)"/><path class="cls-6" d="M175.94,236.23c5.24-.73,10.59-1,15.59.6A29.28,29.28,0,0,1,190,222.58a29.11,29.11,0,0,1-15.45-2.08A21.44,21.44,0,0,1,175.94,236.23Z" transform="translate(-86.89 -129.4)"/><path class="cls-5" d="M248.15,565.33c1.95.1,3.91.15,5.86.17,2.82-3.46,8.91-5.63,12.63-7.61-.33-1.18-.62-2.33-.9-3.38a76,76,0,0,1-2.2-13,81.14,81.14,0,0,1,0-14.2c.39-4.25,1-8.86,2.65-12.82.15-.34.76-.35.72.1-.44,4.38-1.28,8.68-1.53,13.09a79.32,79.32,0,0,0,.26,12.71,77,77,0,0,0,2.59,13.11q.9,3.12,2.09,6.14c.64,1.62,1.62,3.23,2.14,4.9l1.95-.25a86,86,0,0,1-.7-12.73c.3-24,8.82-50.68,30.9-62.3-4.26-1.35-8.81-2.35-12.2-4.23a17.49,17.49,0,0,0,2.47,3.95c-4.52-1.26-12.78-2.89-15.12-7.45a8.72,8.72,0,0,1-.39,4.83C273,482.42,266.78,482,263.54,474c-.59,1.66-.18,3.86-.16,5.66-3.51-1-12.88-4-13.84-7.7a8.39,8.39,0,0,0-.71,3.64c-4.52-2.81-12-6.78-14.93-14.19a22.77,22.77,0,0,0-.13,6,35.05,35.05,0,0,1-3.84-3.69,57.54,57.54,0,0,0-10.72,17.59,56,56,0,0,0-3.77,21.88c.28,8.34,2.89,16.23,6.34,23.76a147.45,147.45,0,0,0,12,21.89C237.79,554.72,242.43,560.88,248.15,565.33Zm-22.43-38.94a76.75,76.75,0,0,1-3.41-9.8,65.62,65.62,0,0,1-1.87-10.22,53,53,0,0,1,0-10.39,44.78,44.78,0,0,1,2.25-10.12,40.06,40.06,0,0,1,4.66-9.21,45.55,45.55,0,0,0-5.88,19.42,56.63,56.63,0,0,0,.22,10.17,65.34,65.34,0,0,0,1.91,10,76.8,76.8,0,0,0,3.28,9.66,92.81,92.81,0,0,0,4.42,9.22q2.47,4.49,5.38,8.72c1.91,2.84,4,5.56,6.15,8.25a91.19,91.19,0,0,1-12.43-16.46A81.67,81.67,0,0,1,225.72,526.39Z" transform="translate(-86.89 -129.4)"/><path class="cls-4" d="M358.17,354.79c-1.6.6-2.41,2.59-2.61,4.16-.44,3.38,3.13,7.64,6.45,5.25a5.3,5.3,0,0,0,.68-.66,7.73,7.73,0,0,0,.51-.88,9.83,9.83,0,0,0-.44-4.63C362.12,356.08,360.46,353.92,358.17,354.79Z" transform="translate(-86.89 -129.4)"/><path class="cls-3" d="M372.38,539.05Z" transform="translate(-86.89 -129.4)"/><path class="cls-3" d="M372.57,539.1h0Z" transform="translate(-86.89 -129.4)"/><path class="cls-3" d="M372.68,539.18l0,0Z" transform="translate(-86.89 -129.4)"/><path class="cls-3" d="M364.84,586.34l.09.14c-1.54-2.16-1.3-5.19-1-7.67a.59.59,0,0,1,.75-.54c0-.72,0-1.45,0-2.17,0-1-.15-2.12-.27-3.22a.9.9,0,0,1-1.33-.78c0-1.16.4-2.29.44-3.46a19,19,0,0,0-.31-3.76.64.64,0,0,1,1.16-.49c0,.06.07.13.11.2a2.38,2.38,0,0,1,1.58-1.21l-.26-.22a.52.52,0,0,1,0-.74c1.19-.93,2.31-.69,3.81-.67,1,0,2,0,3,.08-.09-1.37.1-2.78.11-4.14,0-1.91,0-3.83-.05-5.74q-.18-6.23-.85-12.43a.43.43,0,0,1,.37-.46h0c-.28-1.36-.6-2.71-1-4a29.48,29.48,0,0,0-1.34-3.83,1.11,1.11,0,0,1,.34.54,77.36,77.36,0,0,0-11.34-23.2c-5.8-8.26-13.49-15.53-22.92-19.26-.92.45-1.86.89-2.83,1.28-2.81,1.13-5.47.86-8.36,1.21a6.54,6.54,0,0,0,0-1.32,28.56,28.56,0,0,0-.93-3.08c-.1-.2-.2-.39-.31-.58-1.21,2.59-.43,4.27-5.53,8-.84-1.91-5.62-6.4-7.2-7.64a.31.31,0,0,1-.11.08l-.07,0c.43,1.37,2,5,2.12,5.87a22.73,22.73,0,0,0-6.86-3.49,53.93,53.93,0,0,0-14.62,11.92c-8.4,9.86-12.87,22.48-14.88,35.13a93.62,93.62,0,0,0-.61,27.36q5.4-.78,10.75-1.94c1.68-.38,2.39,2.21.71,2.58l-.52.11a.81.81,0,0,1,.28.91,33.13,33.13,0,0,1-1.76,4.69.47.47,0,0,1-.32.3c-.16,1.2-.31,2.41-.47,3.62a.67.67,0,0,1,1.06.49c.1,2.19-.83,4.71-1.36,6.83a.59.59,0,0,1-1,.26h0a56.84,56.84,0,0,0-1,6.76c0,.32,0,.66-.06,1a.64.64,0,0,1,1,.33,6.49,6.49,0,0,1-.35,2.88s0,0,0,.08a.19.19,0,0,1,0,.08c1.33,8.42,4.07,16.4,9.18,23.32a50.75,50.75,0,0,0,6.56,7.26c1.7,1.56,3.63,2.85,5.35,4.38a47.82,47.82,0,0,1,22.88-3,34.22,34.22,0,0,1,17.82,6.73l.16.13c7.84-3.87,13.32-9.89,17.08-17.79,2.77-5.84,5.38-12.78,4.93-19.39-.24-.75-.44-1.53-.62-2.28a.55.55,0,0,1,.25-.64c-.21-.55-.42-1.08-.61-1.6A17.33,17.33,0,0,1,364.84,586.34Z" transform="translate(-86.89 -129.4)"/><path class="cls-5" d="M283.14,581.9h0l-.1-.12h0a.54.54,0,0,1,0-.11s0,0,0,0a.43.43,0,0,1,0-.11s0,0,0,0a1,1,0,0,1,0-.17c.32-2.17.44-4.81,1.39-6.81a.52.52,0,0,1,.12-.17c.16-1.21.31-2.42.47-3.62h-.14a.72.72,0,0,1-.27-.09h0l-.12-.09h0l-.09-.1,0,0a.67.67,0,0,1-.06-.12h0l0-.13v0a.38.38,0,0,1,0-.15,33.38,33.38,0,0,1,1.08-4.73l.06-.13A142.39,142.39,0,0,1,261,567.93q-6.74.2-13.46-.27c-4.24-.3-8.65-.6-12.73-1.86a.68.68,0,0,1,.18-1.33c3.68,0,7.37.46,11.05.73a56.59,56.59,0,0,1-12.56-12.86c-.86,2.94-2.15,5.77-3.14,8.68q-1.56,4.63-2.83,9.37a103.28,103.28,0,0,0-3.11,14.74,26.45,26.45,0,0,0-.15,3.88,7.8,7.8,0,0,0,.12,1.84c.66,6.86,3.57,13.73,6.46,19.68,4.86,10,11,19.27,17.43,28.32,5.64,8,11.53,15.83,17,23.92,1.24,1.81,2.51,3.42,4.38,4.22,5-6.32,15.66-13,21.29-15.16.25-1,.52-1.91.81-2.84a78.92,78.92,0,0,1,10-20.8h0A48.29,48.29,0,0,1,291,616.89a48.84,48.84,0,0,1-8.7-22.28c-.14.54-.28,1.08-.43,1.62s-1.28.53-1.2-.16c.12-1.06.27-2.11.43-3.16a7.26,7.26,0,0,1,.77-3.07.69.69,0,0,1,.17-.17h0c0-.35,0-.69.06-1A56.84,56.84,0,0,1,283.14,581.9Zm-48.21-5.53a19.42,19.42,0,0,1-.34-4.88,28.42,28.42,0,0,1,.22-4.79.54.54,0,0,1,1,0,27.58,27.58,0,0,1,.64,4.79,19.46,19.46,0,0,1,.08,4.88C236.42,577.23,235.13,577.14,234.93,576.37Zm2.1,15.48a7,7,0,0,1-.59-2.64c-.12-1-.22-2-.32-3.06-.07-.85,1.3-1,1.48-.2.23,1,.45,2,.65,3a7.28,7.28,0,0,1,.24,2.7A.81.81,0,0,1,237,591.85ZM241,604.13c0,.55-.79,1-1.21.5-1.48-1.8-1.36-4.84-2-7-.13-.45.54-.61.69-.19C239.17,599.42,241.09,601.92,241,604.13Zm6.27,10.6c-1-.41-1.56-1.63-2.13-2.49-.68-1-1.25-2.14-1.92-3.18a.45.45,0,0,1,.7-.54c.86,1,1.82,1.87,2.67,2.86a5.58,5.58,0,0,1,1.72,2.76C248.33,614.72,247.63,614.91,247.22,614.73Zm15.49,4.14c-2.72,1.77-6.81.49-9.42-.9-.81-.43-.09-1.59.72-1.21a10.58,10.58,0,0,0,4.44.92c1.3,0,2.55-.39,3.84-.37A.84.84,0,0,1,262.71,618.87Zm8.27-2.82a13.82,13.82,0,0,1-3.63,1.9c-.66.27-1-.77-.47-1.11a18.65,18.65,0,0,0,3.05-2.33c.71-.67,1.36-1.63,2.38-1.74a.72.72,0,0,1,.72.72C272.9,614.56,271.79,615.4,271,616.05Zm7.92-9.42a6.77,6.77,0,0,1-2.32,2.71c-.55.36-1.37-.39-.95-.94a16.17,16.17,0,0,0,1.71-2.49c.45-.86.5-2,1.07-2.79a.67.67,0,0,1,1.19.16C280,604.32,279.37,605.69,278.9,606.63Z" transform="translate(-86.89 -129.4)"/><path class="cls-5" d="M386.15,564.91l-11-.49c-1.86-.09-3.72-.17-5.58-.3l-.47,0a5,5,0,0,1-3.08-.72,2.38,2.38,0,0,0-1.58,1.21c.07.14.15.28.22.43h0l.2.45h0l.18.47v0l.15.46,0,.06.12.45s0,.06,0,.09l.09.43,0,.13.06.41a.88.88,0,0,1,0,.16c0,.13,0,.25,0,.38a1.34,1.34,0,0,1,0,.2c0,.11,0,.23,0,.34v.54c0,.09,0,.17,0,.25s0,.19,0,.29,0,.17,0,.26a2.34,2.34,0,0,0,0,.26c0,.09-.05.18-.07.28s0,.15-.05.22-.07.2-.1.29,0,.13-.07.2-.09.2-.14.3a1,1,0,0,0-.07.15c-.08.15-.17.29-.26.43a1,1,0,0,1-.17.18l0,0a.76.76,0,0,1-.19.12h0c.12,1.1.24,2.18.27,3.22,0,.72,0,1.45,0,2.17l.11.05.06,0,.07.06.07.09,0,.07a.77.77,0,0,1,.06.23c.21,2.45,1.29,4.82,1.35,7.27a.8.8,0,0,1-1.48.4l-.09-.14a17.33,17.33,0,0,0,.88,3.77c.19.52.4,1,.61,1.6a.62.62,0,0,1,.19-.07h.26l.06,0a.56.56,0,0,1,.16.07l0,0,.15.15c.56.83,1.14,1.71,1.62,2.59a4,4,0,0,1,.71,2.56.83.83,0,0,1-1.2.49l-.11-.09a40.12,40.12,0,0,1-.93,5.5,53,53,0,0,1-4.35,11.74c-3.58,7.38-9.51,14.94-17.56,17.67,5.08,4.09,9.71,8.75,14.46,13.21,5,4.65,10.2,10.07,16.27,13.33,2.28-3.5,7.27-8.68,10.84-10.43a49,49,0,0,1-6.75-13.05c-3.24-9.55-3.66-19.82-4.45-29.8a25.58,25.58,0,0,1-4.56-3.91c-.75-.7.34-1.73,1.1-1.1a26.49,26.49,0,0,0,4.49,2.94,1.63,1.63,0,0,1,.54.06,75.7,75.7,0,0,0,8.56-19.19c1-3.54,1.8-7.13,2.54-10.74.39-1.93,1.19-4.24,1.08-6.22C389.35,565.31,387.74,565.22,386.15,564.91Z" transform="translate(-86.89 -129.4)"/><path class="cls-5" d="M371.19,535c.4,1.33.72,2.68,1,4h0a.4.4,0,0,1,.19,0h0a.42.42,0,0,1,.16,0h0l.11.08,0,0a.49.49,0,0,1,.08.18,80.3,80.3,0,0,1,1.82,12.14c.1,1.42.16,2.84.21,4.27,2.54.82,5.44,3.92,7.2,6.4l2.53.1a.54.54,0,0,1,.07-.13c4.31-5.73,5.7-12.78,5.38-19.83a51.16,51.16,0,0,0-4.12-17.77c-2.13-4.92-5-9.5-7.68-14.15-5.08-8.88-10.89-18.64-11.21-29.11-3.23,3.63-8.26,5.53-12.45,7.92.79-2.75.58-5.69.85-8.51-1.51,4.86-6.91,7.83-11.35,9.47a8.56,8.56,0,0,0,1.27-6.17c-2.59,1.39-5.05,2.93-7.61,4.32,8.72,4.06,15.82,10.93,21.38,18.8a74.24,74.24,0,0,1,11.67,24.43.3.3,0,0,1-.57.16,1.11,1.11,0,0,0-.34-.54A29.48,29.48,0,0,1,371.19,535Z" transform="translate(-86.89 -129.4)"/><path class="cls-8" d="M350.4,415.94a11.29,11.29,0,0,0,4.16-1.6,45.81,45.81,0,0,1,7.81-3c4.83-1.46,8.53-4.12,9.36-9.34.33-2.12.81-4.6.09-6.65-1-2.73-2.81-2-4.84-1-4.83,2.23-8,5.6-11.52,9.52a39.1,39.1,0,0,0-6.37,9.93,1.71,1.71,0,0,0-.09.3c0,.13,0,.25-.05.36A1.36,1.36,0,0,0,350.4,415.94Z" transform="translate(-86.89 -129.4)"/><path class="cls-8" d="M273.88,344.62a9.55,9.55,0,0,0-1.62-.74,6.35,6.35,0,0,0-7.18.43,8.79,8.79,0,0,0-5,7.87,7.62,7.62,0,0,0,7.66,9.05,8.72,8.72,0,0,0,9.53-3.58C280.32,353.23,278.35,347.22,273.88,344.62ZM266,356.36a3.35,3.35,0,0,1-1.07-1.15,8.08,8.08,0,0,1-.4-1.78,5.64,5.64,0,0,1,.13-.67,9.15,9.15,0,0,1,2.73-5,3,3,0,0,1,4.9,1.32C273.93,352.82,270.52,359.3,266,356.36Z" transform="translate(-86.89 -129.4)"/><path class="cls-8" d="M282.31,324.46a17.38,17.38,0,0,0-4.64-2.61c-1.53-.63-4.6-2-6.21-1.23s2.17,3.53,2.86,4.08c1.52,1.23,3,2.5,4.4,3.84s2.81,2.66,4.24,4c1.05,1,2,.29,2.4-.91C286.21,329,284.18,326.06,282.31,324.46Z" transform="translate(-86.89 -129.4)"/><path class="cls-8" d="M243.12,314.71c-.31-.13-.63-.25-.94-.39l-.92-.43a37.45,37.45,0,0,1-3.59-1.92,47.14,47.14,0,0,1-6.58-4.71,45,45,0,0,1-5.62-5.77,38.7,38.7,0,0,1-4.42-6.71,41.77,41.77,0,0,1-3-7.46,46.32,46.32,0,0,1-1.51-7.92,64.47,64.47,0,0,1,.71-16.22,51.94,51.94,0,0,0-1.75,16.3c0,.69.13,1.38.19,2.06l.11,1c.05.35.12.69.18,1,.12.68.22,1.36.37,2l.49,2a41.54,41.54,0,0,0,3,7.73,39,39,0,0,0,4.62,6.9,41.54,41.54,0,0,0,5.94,5.77c1.08.86,2.2,1.66,3.36,2.42s2.34,1.44,3.57,2.06a37.06,37.06,0,0,0,3.75,1.69c.32.13.64.24,1,.35s.65.22,1,.32a10.56,10.56,0,0,0,2,.42A10.26,10.26,0,0,1,243.12,314.71Z" transform="translate(-86.89 -129.4)"/><path class="cls-8" d="M258.28,401.58a46.56,46.56,0,0,1,7.11,4.43,11.28,11.28,0,0,0,3.79,2.35,1.37,1.37,0,0,0,1.72-1.25c0-.11,0-.23,0-.36a1.63,1.63,0,0,0,0-.31,39.12,39.12,0,0,0-4.42-10.94c-2.76-4.51-5.22-8.4-9.56-11.49-1.82-1.29-3.49-2.4-4.95.11-1.09,1.88-1.07,4.41-1.13,6.55C250.66,396,253.8,399.25,258.28,401.58Z" transform="translate(-86.89 -129.4)"/><path class="cls-8" d="M379.35,424.24a1.11,1.11,0,0,0-2.11-.7c-6.29,18.78-43.34,32.45-68.14,30-19.59-1.9-60.21-19-65.19-40.1a1.12,1.12,0,0,0-1.34-.82,1.09,1.09,0,0,0-.82,1.33c2.32,9.86,12.29,20,28.07,28.59,12.82,7,28.15,12.15,39.06,13.21,2,.19,4,.28,6.1.28a97.28,97.28,0,0,0,36-7.57C365.94,442.29,376.27,433.44,379.35,424.24Z" transform="translate(-86.89 -129.4)"/><path class="cls-8" d="M432.61,352.47c-4.29.39-8.18,2.42-12.38,3l-1.05-.25a54.68,54.68,0,0,1-9.79-3.44,52.88,52.88,0,0,1-8.6-5,86.43,86.43,0,0,1-7.29-6.34v0a29.13,29.13,0,0,0-.15-4.67,12.68,12.68,0,0,0-.26-1.54,17.81,17.81,0,0,0,5.83-.47c15.25-3.88,28.32-17.38,32.58-32.25,4.1-14.29.44-28.28-4.17-41.93A171.09,171.09,0,0,1,421.07,236c-1.48-7.89-2.52-16-.47-23.9.79-3.07,1.92-6.24,4.1-8.59l.24-.07a.88.88,0,0,0-.46-1.69c-13.77,3.63-18.85,18.63-20,31.31-1.15,13,.82,26.72-6.14,38.5a33.6,33.6,0,0,1-17.14,14.05,66.59,66.59,0,0,1-7,2.17,14.56,14.56,0,0,0-2.73.79,9.27,9.27,0,0,1-6.26-6.79c-.55-2.67.8-4.92,2.47-6.89a36,36,0,0,0,4.25-5.29,15.42,15.42,0,0,0,1.63-8.43c0-.74-1.08-1.37-1.64-.67-4.93,6-12.93,6-20.1,5.46-9.1-.71-18-3.32-26.94-4.85-8.23-1.4-16.91-2.58-25.21-1.18C293.35,261,286,264,282.1,269.45a16,16,0,0,0-2.83,7.64,26,26,0,0,0-7.38,2.19l-.22-.16c-1.53-.95-3.29-1.58-4.9-2.4-6-3-11.38-7.19-15-12.9-6.27-9.88-5.68-21.37-3.82-32.46,2.31-13.81,5.05-30.05-4.83-41.72a21,21,0,0,0-7.07-5.43c-1-.48-1.89,1-.88,1.5l.29.15c3.6,5.69,2.85,14.07,1.52,20.29-1.58,7.42-4.63,14.9-7.84,21.75-6.29,13.45-15.66,25.54-18,40.55a47.68,47.68,0,0,0,18.7,45.79c3.82,2.86,7.82,5.29,12.42,5.9a10.9,10.9,0,0,0-.6,1.52,17.79,17.79,0,0,0-.85,4.51c-8.81.31-17.67-2.1-24.22-8.2-2.76-2.57-5.25-5.68-8.65-7.44-2.15-1.12-5.51-2-7.53-.38l-.06,0c-2.32,1.06-3,3.7-3.5,6a41.54,41.54,0,0,0-1.46,10.21,19,19,0,0,0,.34,3,10.73,10.73,0,0,0-8.46,11.31,11.21,11.21,0,0,0,12.33,10.43,13.9,13.9,0,0,0,10.07-6.22,17.74,17.74,0,0,0,14.12.65,54.84,54.84,0,0,0,7.48-3.72c1.75-1,3.58-1.9,5.26-3-3.73,12.95-10.64,24.4-17,36.21-6.49,12-12.31,25.17-12.16,39.08A40.72,40.72,0,0,0,209.23,426c-.2,8.5,3,18.12,8.92,24.6a13,13,0,0,0,1.1-3.34,83.38,83.38,0,0,0,9,14.42,60,60,0,0,0-15.37,38,58.43,58.43,0,0,0,5,24.39,140.8,140.8,0,0,0,12.44,23.58c.67,1,1.37,2,2.09,3a35.75,35.75,0,0,0-3.65,7.91c-1.12,3-2.11,6-3,9.09a124.41,124.41,0,0,0-3.58,14.88,31.37,31.37,0,0,0-.38,6c-12.59-2.14-25.76-8.09-31.32-20.2-4.06-8.84-3.22-19.59-.59-28.73,2.09-7.27,5.59-14.05,7.39-21.41,2.87-11.76,1.5-24.66-2.23-36.06-.07-.22-.11-.36-.18-.62,6.2-6.92,2.52-16.8-1.6-24.1-5.79-10.24-14.48-18.19-23.39-25.7-.64-.54-1.95-.05-1.58.92a64.42,64.42,0,0,1,4.37,26.19l-.07-.11c-.54-.9-2.14-.32-1.75.74,2.17,5.9.64,12.9,5.31,17.8,3.71,3.9,9.47,5.19,14.66,5.78,1.38,6.41,2.77,12.78,2.75,19.37a48.28,48.28,0,0,1-2.23,14.22c-2.73,8.72-6.95,16.81-8.77,25.83-2.09,10.44-2.8,22.12,2.74,31.62,4.38,7.51,11.69,12.85,19.45,16.48a67.09,67.09,0,0,0,18.05,5.71,67.1,67.1,0,0,0,3.85,11.43c8.76,20.43,23.43,37.53,35.8,55.77,1.64,2.41,3.37,5,6.17,6.16,2.21.91,4.91.82,7.25.8,2.81,0,5.6-.42,8.42-.24a55.81,55.81,0,0,0,8.28.06c.82-.08,1.73-.87,1.37-1.8-2.46-6.32-1.2-13.22.85-19.47,2.17-6.61,5.57-12.57,8.53-18.82,7.64-2.28,15.38-3.78,23.41-2.89a33.82,33.82,0,0,1,19.16,8.6c5.6,4.87,10.81,10.16,16.3,15.14,2.61,2.37,5.28,4.68,8.07,6.83s5.24,4,8.62,4.59c3.76.69,7.43-.17,11.2-.38,2.38-.13,6,.11,7.33-2.34a1.3,1.3,0,0,0,0-1.32c-1.25-1.89-2.42-3.84-3.72-5.69s-2.67-3.23-3.94-4.9a46.85,46.85,0,0,1-7-13.17c-3.24-9.49-3.61-19.69-4.42-29.61,5.87-6.54,8.74-15.64,10.81-24,.56-2.26,1.06-4.54,1.53-6.82a35.47,35.47,0,0,0,1.17-6.84,5.06,5.06,0,0,0-4.42-4.91c6.6-9.82,5.88-22.94,2.46-33.8s-10.64-20.15-15.67-30.3c-2.83-5.72-5.49-12.17-6-18.65a11.73,11.73,0,0,0,1.24-2.45,3,3,0,0,1,1.05,2.45c4.39-1.8,8.77-4.76,12.71-7.33,2.65-1.73,5.36-3.44,6.94-6.26-.1.72-.12,1.46-.28,2.18,5.75-3.77,8.32-9.73,10.65-15.81a43.41,43.41,0,0,0,8.46-14.87c3.94-12.4,2-26-1.4-38.29-3.84-13.79-9.52-26.94-11.64-41.07,3.58,7.56,10.08,13.75,17.48,17.69,6,3.19,13.23,1.94,18.6-2.06a12.26,12.26,0,0,0,4.68-7.58,30.72,30.72,0,0,0,.77-9.92C437,353.62,435.55,352.21,432.61,352.47Zm-241.27,129c-5-1-10.42-1.81-14-5.77-3.41-3.76-3-9.15-3.91-14a.94.94,0,0,0,1-.92,67.11,67.11,0,0,0-3.17-25.38c7.25,6.27,14.16,12.94,19.18,21.19,4.32,7.1,9.15,18,1.71,24.74A1.09,1.09,0,0,1,191.34,481.5ZM187.94,575c-6.33-9.31-5.85-21.07-3.79-31.71,1.73-8.92,5.79-16.93,8.56-25.51,3.65-11.32,2.89-23.5-.69-34.75a3,3,0,0,0,1.9-.44c2.38,11.61,4.63,23.11,1.83,34.86-1.81,7.58-5.46,14.53-7.61,22-2.61,9.11-3.44,19.64.18,28.59,3.2,7.89,9.65,13.75,17.2,17.43a59.72,59.72,0,0,0,16.34,5.06c.11,1.3.29,2.61.52,3.9C209.51,592.29,195.33,585.86,187.94,575ZM372.31,290.3a12.79,12.79,0,0,1,1.59-.47c2.1-.56,4.2-1.1,6.26-1.81a37.65,37.65,0,0,0,16.23-10.57c6.43-7.41,9-17.18,9.33-26.82.15-4,.14-8.31.32-12.61a38.57,38.57,0,0,1,2-5.74,51.41,51.41,0,0,1,1.85,6c.82-2.93.79-7,1.62-10.28,0,7.14,3.53,12.39,5.43,19.6-.4-6.8-1-13.55.29-20.26a37.64,37.64,0,0,0,1.29,4.64c.4,2.74.91,5.48,1.42,8.22,2.81,15.25,10.76,29.5,11.42,45.14.46,11.07-2.6,22-9.59,30.72a48.24,48.24,0,0,1-15,12.31c-4.47,2.35-9.4,4.54-14.56,3.78A21.81,21.81,0,0,1,378,323.09c-5.45-7.65-11.15-19.34-7.94-28.87C370.5,293,371.48,290.78,372.31,290.3ZM241.79,318.11c-3.81-.6-7-2.76-10.12-5a45.68,45.68,0,0,1-18.92-42.41c1.8-14.94,10.83-27,17.24-40.16a128.18,128.18,0,0,0,6.5-16,37.09,37.09,0,0,0,1.9-3.93c0,6.83-1.81,13.36-3.47,20,3.2-6.74,7.61-11.24,9-18.26.2,3.4-.58,7.37-.31,10.4a48.9,48.9,0,0,1,2.93-5.55,41.07,41.07,0,0,1,.9,6.05c0,.28-.08.57-.13.84-1.75,11.61-4.47,23.22-.11,34.61a35.4,35.4,0,0,0,13.11,16.36,52,52,0,0,0,6.79,3.91,20,20,0,0,1,3.86,1.89,1.09,1.09,0,0,0,.14.23c.11.25.39.74.5,1a13.46,13.46,0,0,1,.89,4.16,20.48,20.48,0,0,1-1.2,7.67A44.27,44.27,0,0,1,263,307.86c-2.73,3.26-5.69,6.3-9.56,8.16A20,20,0,0,1,241.79,318.11ZM197,333.81a17.94,17.94,0,0,0,6.4,8h0c-2.05,2.56-8.41,4.13-10.12-.22C192,338.24,194,335.1,197,333.81Zm12.31,7.93a11.49,11.49,0,0,1-3.28,5,11.36,11.36,0,0,1-10.7,2.45c-8.91-2.89-8.43-16.77.66-18.35.16.62.36,1.23.58,1.85a6.72,6.72,0,0,0-4.42,3.84,7.08,7.08,0,0,0,.67,7.19c1.71,2.36,5.09,2.65,7.68,1.76a7.88,7.88,0,0,0,3.87-2.74c1-1.34.88-2.54,1-4.1a.71.71,0,0,0-.28-.72c.3-2.41,3.66-2.41,4.27-.19A7.85,7.85,0,0,1,209.33,341.74Zm12.45,185.17c-3.45-7.53-6.06-15.42-6.34-23.76a56,56,0,0,1,3.77-21.88,57.54,57.54,0,0,1,10.72-17.59,35.05,35.05,0,0,0,3.84,3.69,22.77,22.77,0,0,1,.13-6c2.91,7.41,10.41,11.38,14.93,14.19a8.39,8.39,0,0,1,.71-3.64c1,3.7,10.33,6.7,13.84,7.7,0-1.8-.43-4,.16-5.66,3.24,8,9.47,8.42,15.82,12.31a8.72,8.72,0,0,0,.39-4.83c2.34,4.56,10.6,6.19,15.12,7.45A17.49,17.49,0,0,1,292.4,485c3.39,1.88,7.94,2.88,12.2,4.23-22.08,11.62-30.6,38.28-30.9,62.3a86,86,0,0,0,.7,12.73l-1.95.25c-.52-1.67-1.5-3.28-2.14-4.9q-1.19-3-2.09-6.14a77,77,0,0,1-2.59-13.11,79.32,79.32,0,0,1-.26-12.71c.25-4.41,1.09-8.71,1.53-13.09,0-.45-.57-.44-.72-.1-1.64,4-2.26,8.57-2.65,12.82a81.14,81.14,0,0,0,0,14.2,76,76,0,0,0,2.2,13c.28,1,.57,2.2.9,3.38-3.72,2-9.81,4.15-12.63,7.61-1.95,0-3.91-.07-5.86-.17-5.72-4.45-10.36-10.61-14.39-16.53A147.45,147.45,0,0,1,221.78,526.91Zm156.43-16.49c2.66,4.65,5.55,9.23,7.68,14.15A51.16,51.16,0,0,1,390,542.34c.32,7-1.07,14.1-5.38,19.83a.54.54,0,0,0-.07.13l-2.53-.1c-1.76-2.48-4.66-5.58-7.2-6.4-.05-1.43-.11-2.85-.21-4.27a80.3,80.3,0,0,0-1.82-12.14c-.12-.54-1-.43-1,.13q.66,6.19.85,12.43c.06,1.91.07,3.83.05,5.74,0,1.36-.2,2.77-.11,4.14-1,0-2-.07-3-.08-1.5,0-2.62-.26-3.81.67a.52.52,0,0,0,0,.74c1.09,1,2.35.86,3.81,1,1.86.13,3.72.21,5.58.3l11,.49c1.59.31,3.2.4,3.32,2.54.11,2-.69,4.29-1.08,6.22-.74,3.61-1.54,7.2-2.54,10.74a75.7,75.7,0,0,1-8.56,19.19,1.63,1.63,0,0,0-.54-.06,26.49,26.49,0,0,1-4.49-2.94c-.76-.63-1.85.4-1.1,1.1a25.58,25.58,0,0,0,4.56,3.91c.79,10,1.21,20.25,4.45,29.8a49,49,0,0,0,6.75,13.05c-3.57,1.75-8.56,6.93-10.84,10.43-6.07-3.26-11.3-8.68-16.27-13.33-4.75-4.46-9.38-9.12-14.46-13.21,8-2.73,14-10.29,17.56-17.67a53,53,0,0,0,4.35-11.74,40.12,40.12,0,0,0,.93-5.5l.11.09a.83.83,0,0,0,1.2-.49,4,4,0,0,0-.71-2.56c-.48-.88-1.06-1.76-1.62-2.59a.6.6,0,0,0-1.09.46c.18.75.38,1.53.62,2.28.45,6.61-2.16,13.55-4.93,19.39-3.76,7.9-9.24,13.92-17.08,17.79l-.16-.13A34.22,34.22,0,0,0,326.71,625a47.82,47.82,0,0,0-22.88,3c-1.72-1.53-3.65-2.82-5.35-4.38a50.75,50.75,0,0,1-6.56-7.26c-5.11-6.92-7.85-14.9-9.18-23.32a.19.19,0,0,0,0-.08s0-.06,0-.08a6.49,6.49,0,0,0,.35-2.88.66.66,0,0,0-1.2-.16,7.26,7.26,0,0,0-.77,3.07c-.16,1.05-.31,2.1-.43,3.16-.08.69,1,.81,1.2.16s.29-1.08.43-1.62a48.84,48.84,0,0,0,8.7,22.28,48.29,48.29,0,0,0,10.83,11.29h0a78.92,78.92,0,0,0-10,20.8c-.29.93-.56,1.88-.81,2.84-5.63,2.17-16.25,8.84-21.29,15.16-1.87-.8-3.14-2.41-4.38-4.22-5.51-8.09-11.4-15.92-17-23.92-6.38-9.05-12.57-18.34-17.43-28.32-2.89-5.95-5.8-12.82-6.46-19.68a8.33,8.33,0,0,1-.12-1.84,26.45,26.45,0,0,1,.15-3.88,103.28,103.28,0,0,1,3.11-14.74q1.27-4.73,2.83-9.37c1-2.91,2.28-5.74,3.14-8.68a56.59,56.59,0,0,0,12.56,12.86c-3.68-.27-7.37-.75-11.05-.73a.68.68,0,0,0-.18,1.33c4.08,1.26,8.49,1.56,12.73,1.86q6.72.47,13.46.27a142.39,142.39,0,0,0,24.27-2.84l-.06.13a33.38,33.38,0,0,0-1.08,4.73c-.1.6.79,1.11,1.07.45a33.13,33.13,0,0,0,1.76-4.69.81.81,0,0,0-.28-.91l.52-.11c1.68-.37,1-3-.71-2.58q-5.34,1.17-10.75,1.94a93.62,93.62,0,0,1,.61-27.36c2-12.65,6.48-25.27,14.88-35.13a53.93,53.93,0,0,1,14.62-11.92,22.73,22.73,0,0,1,6.86,3.49c-.15-.87-1.69-4.5-2.12-5.87l.07,0a.31.31,0,0,0,.11-.08c1.58,1.24,6.36,5.73,7.2,7.64,5.1-3.73,4.32-5.41,5.53-8,.11.19.21.38.31.58a28.56,28.56,0,0,1,.93,3.08,6.54,6.54,0,0,1,0,1.32c2.89-.35,5.55-.08,8.36-1.21,1-.39,1.91-.83,2.83-1.28,9.43,3.73,17.12,11,22.92,19.26a77.36,77.36,0,0,1,11.34,23.2.3.3,0,0,0,.57-.16,74.24,74.24,0,0,0-11.67-24.43c-5.56-7.87-12.66-14.74-21.38-18.8,2.56-1.39,5-2.93,7.61-4.32a8.56,8.56,0,0,1-1.27,6.17c4.44-1.64,9.84-4.61,11.35-9.47-.27,2.82-.06,5.76-.85,8.51,4.19-2.39,9.22-4.29,12.45-7.92C367.32,491.78,373.13,501.54,378.21,510.42ZM357,471.8c.71-1.86.67-4.16.91-6.43-2,3.65-10.61,9.45-15.26,10.24.12-.45,0-1.09.14-1.5-1.2.59-2.39,1.21-3.57,1.85.35-1.63.82-3.3,1.33-4.89-3.8,3.07-9.14,7.14-14.05,7.28a34.57,34.57,0,0,0,1.05-5.71c-2.42,1.65-5.69,3.51-7.63,5.6v0l-3-.17a6.41,6.41,0,0,0,.94-3,5.91,5.91,0,0,1-4.46,2.66,10.57,10.57,0,0,0-1.1-2.54c-.56-.83-2-1-2.35-2.07s.78-3.34,1-4.46c-.59-.07-1.43-.79-2.06-.86.82-2.44,1.35-3.4,1-5.41-.1-.61-1-2.73-1.17-3.55s-.76.28-1.35,1.61-1.37.49-1.74,2c-.18.76.66,2,.48,2.94-.73,4-4.92,3.4-4.28,8,.18,1.34.53,2.47.61,3.52l-.2,0a26,26,0,0,1-6.57-3.78,17.5,17.5,0,0,0,2.15,3.35l-2.63-.29c-2.51-1.78-4.32-4.55-6.87-6,.5,2,2,3.52,2.55,5.48-1.55-.2-3.09-.41-4.63-.65-3.29-2-7-5.81-8.87-7A10,10,0,0,1,278,471c-5.39-1.1-11.57-5.59-14.53-10.16,0,1.06.18,2.24.25,3.38-1.21-.69-1.91-1.81-3.05-2.58a7.94,7.94,0,0,1-.18,2.12c-3.29-1.48-4.32-5.53-7.06-7.55.18,2.27,1.06,4.63.36,6.76a76.77,76.77,0,0,1-8.64-7.27c-6.1-5.91-8.65-13.81-12.32-21.24a35.7,35.7,0,0,0-5.74-8.57c-2.72-3-2.69-6.49-1.49-10.21,2.27-7.1,8.09-12.3,11.58-18.74a16.31,16.31,0,0,0,2.13-8.71c-.17-4-.59-7.22,3-9.85,5.46-4,12.26-2.29,17.93.27,5.95,2.69,11.33,6.45,17.12,9.45a30.06,30.06,0,0,0,6.94,2.75c9,1.86,18.24.84,27.33,1.68s17.89,3.74,26.92,3.4c12.24-.47,23-9.91,35.56-8.44a13,13,0,0,1,8.22,4.1c3,3.35,1.8,6.51,1,10.41-1.55,7.25,2.79,13.79,5.62,20.15,1.7,3.82,3.23,7.95,3,12.21a8.36,8.36,0,0,1-1.75,5.14,23.43,23.43,0,0,1-3.16,2.54c-6.06,4.79-9.46,12.23-14.33,18.09C368.56,465.13,362.93,468.91,357,471.8Zm78-109.58c-.43,3.85-1.12,7.58-4.46,10a17.86,17.86,0,0,1-11,3.45c-3.63-.29-6.89-2.55-9.77-4.61a39.59,39.59,0,0,1-14.52-18.86c0-.14,0-.28,0-.42a.86.86,0,0,0-.41-.71c-.27-.71-.52-1.43-.77-2.15-.14-.42-.89-.39-.83.12.09.76.21,1.52.36,2.27a1,1,0,0,0-.12.47c.19,26.93,18.91,50.77,15,78.18a40.46,40.46,0,0,1-4.9,14.4c-1.22,1.63-2.56,3.14-3.68,4.86a24.45,24.45,0,0,1-6,6.34c-1.34,1.07-2.88,3.32-4.54,3.75-.51-2-.48-4.17-.79-6.24-1.55,3.73-4.39,7.27-6.9,10.41a12.1,12.1,0,0,0-.12-3.69,16,16,0,0,1-4.4,7.19c-2.87,1.36-5.81,2.58-8.79,3.66a11.33,11.33,0,0,0,.64-4.35,32.81,32.81,0,0,0,4.12-3.89,100.24,100.24,0,0,0,6.94-9.33c2.47-3.57,5-7.28,8.49-9.95,2.3-1.76,4.17-3.23,4.86-6.2,1.82-8-2.94-15.57-6.07-22.53-1.82-4-3.15-8-2.1-12.47.67-2.83,1.66-5.59.53-8.45-2.42-6.09-9.62-8.25-15.58-7.8-6.79.52-13.24,3.19-19.6,5.45a61.88,61.88,0,0,1-9,2.69c-4,.77-8.16.21-12.14-.37-4.85-.72-9.65-1.7-14.51-2.33a132.63,132.63,0,0,0-15.31-.82,77.14,77.14,0,0,1-14.72-1.15c-6.26-1.44-11.82-5.63-17.33-8.75s-11.75-6.47-18.24-6.19c-5.82.25-11.93,4.05-11.92,10.38,0,4,.49,7.26-1.41,11a76.79,76.79,0,0,1-6.31,9.37c-3.62,5-9,13.1-5.78,19.58a13.38,13.38,0,0,0,2.34,3,27.17,27.17,0,0,1,3.68,5.11c2.09,3.7,3.66,7.66,5.44,11.5a44.52,44.52,0,0,0,6.58,10.75,56.7,56.7,0,0,0,7.05,6.62c-4.51-2.32-7.64-4.11-10.32-8.57a12.45,12.45,0,0,0,.31,4.14c-3.55-2.8-3.75-3.44-6.23-8.39a10.46,10.46,0,0,0-.36,4c-4.63-1.51-4.84-10.34-9.53-17.25-.23,1.34-2,4.54-2.75,5.78-5.68-7.07-9.81-15.42-10.48-24.47-1-13.87,4.57-27.28,11-39.28,6.92-13,15.41-25.9,18.29-40.59a.9.9,0,0,0-1.62-.71c-4.35,2.73-8.79,5.77-13.62,7.58a17.82,17.82,0,0,1-7.27,1.35,57.78,57.78,0,0,1-6.11-1.32A10,10,0,0,0,211,341c.29-2.28-.14-5.91-3-6.29a3.65,3.65,0,0,0-4,3.29.75.75,0,0,0-.29,1.19,1.89,1.89,0,0,1,.26.56,18.42,18.42,0,0,1-6.19-9.67.77.77,0,0,0-.14-.57,15.59,15.59,0,0,1-.49-3.48,37.68,37.68,0,0,1,1-8.26,16.13,16.13,0,0,1,2.12-6c3.83-2.71,8.36.84,11.1,3.55s4.89,5.48,8,7.57c6.48,4.33,14.71,5.81,22.39,5.31a1,1,0,0,0,1-1.08,1,1,0,0,0,.26-.7,18,18,0,0,1,.54-4.2c.17-.63.45-1.27.56-1.92.59,0,1.18,0,1.79,0a24.46,24.46,0,0,0,14.31-6.53c6.92-6.47,13.85-16.1,14.18-25.91a15,15,0,0,0-1.12-6.86,40,40,0,0,1,5.95-1.9,15,15,0,0,0,3.72,10c.92,1,2.37-.47,1.49-1.49-4.59-5.38-3.65-14.1,1.4-18.83,5.51-5.17,13.78-7,21.1-7.08,8.43,0,16.82,1.43,25,3.12,7.91,1.62,15.78,3.53,23.89,3.65,5.85.09,11.72-.6,15.89-4.64a11.92,11.92,0,0,1-3,7.24c-1.73,2-3.76,3.83-4.89,6.32-2.34,5.16,1.14,10.71,5.89,12.91-2.57,3.45-2.68,9.12-2.16,13a45.31,45.31,0,0,0,5.31,15.27c1.9,3.55,4.12,7.18,7.18,9.85A23.93,23.93,0,0,0,391.27,334a19.41,19.41,0,0,0,.13,2.16,34.27,34.27,0,0,1-.14,4.3,1,1,0,0,0,.1.53.94.94,0,0,0,.17.37c4.1,5.48,11,9.61,17.13,12.37a54.22,54.22,0,0,0,10,3.37c2.95.69,7.1,1.81,10.06.93a.54.54,0,0,0,0-1,22.67,22.67,0,0,0-4.74-.78l-1.14-.2c2.44-.4,4.86-.86,7.3-1.28a15.5,15.5,0,0,1,2.8-.32c1.72,0,2.26,1.14,2.38,2.66A29,29,0,0,1,435,362.22Z" transform="translate(-86.89 -129.4)"/><path class="cls-8" d="M277.41,337.78c-6.27-4.86-16.13-6.65-22.63-1.25-3.18,2.65-4.88,6.78-6,10.67-1.22,4.3-1.73,8.92.47,13,4.11,7.57,15.63,12.79,24,10.63a.82.82,0,0,0,.43-.24c5.9-2,9.26-9.09,10.34-14.78C285.35,348.78,283.15,342.24,277.41,337.78ZM282.58,354c-.71,5.91-3.51,12.38-8.87,15.39a.9.9,0,0,0-1-.35c-6.87,1.64-15.53-2.14-20.07-7.34-5.35-6.14-2.74-16.1,2.28-21.68s14.09-5.48,20.21-1.5A15.83,15.83,0,0,1,282.58,354Z" transform="translate(-86.89 -129.4)"/><path class="cls-8" d="M364.22,352.64a6.28,6.28,0,0,0-6-1.79c-3,.16-6.93,3.5-8,5.52a8.91,8.91,0,0,0,5.05,12.28A7.78,7.78,0,0,0,359,369a7.18,7.18,0,0,0,6.06-1.36,7.6,7.6,0,0,0,2.9-5.81,8.25,8.25,0,0,0,.2-3A8.87,8.87,0,0,0,364.22,352.64Zm-1,10a7.73,7.73,0,0,1-.51.88,5.3,5.3,0,0,1-.68.66c-3.32,2.39-6.89-1.87-6.45-5.25.2-1.57,1-3.56,2.61-4.16,2.29-.87,3.95,1.29,4.59,3.24A9.83,9.83,0,0,1,363.2,362.66Z" transform="translate(-86.89 -129.4)"/><path class="cls-8" d="M358,329.36a17.14,17.14,0,0,0-5,1.7c-2.14,1.22-4.68,3.76-4.32,6.44.16,1.25,1,2.09,2.19,1.34,1.64-1,3.27-2.07,4.9-3.11s3.31-2,5-3c.78-.42,5.35-2.3,3.8-3.46S359.66,329,358,329.36Z" transform="translate(-86.89 -129.4)"/><path class="cls-8" d="M358,343.91c-6.62,2.33-11.53,7.72-12.34,14.76-.74,6.48,1,15.76,7.22,19.29a1,1,0,0,0,.37.32c7.28,3.41,17.76,1,23.73-4.08,6.41-5.48,6-16.18,2.66-23.31C375.89,342.79,365.73,341.2,358,343.91Zm19.65,26.73c-4.66,6.35-16.34,9.18-23.44,6a1,1,0,0,0-1.06.16c-4.17-3.44-5.76-9.17-5.92-14.42-.2-6.34,2.25-11.74,7.84-15,6-3.56,14.94-3.71,20.08,1.58C380.1,354,382,364.74,377.66,370.64Z" transform="translate(-86.89 -129.4)"/><path class="cls-8" d="M354.52,269.69a33.08,33.08,0,0,1-10.89,4.91c-3.3.86-6.78,1.25-9.94,2.63-5.49,2.4-9.22,9.7-6.35,15.36a1.15,1.15,0,0,0,2.09-.88,10.08,10.08,0,0,1,1.39-9.48c1.93-2.73,4.92-4,8-4.9,5.57-1.7,11.73-3,16.12-7.07C355.24,270,354.86,269.46,354.52,269.69Z" transform="translate(-86.89 -129.4)"/><path class="cls-8" d="M299.9,289.25c0-5,.26-9.79,3.73-13.68,2.87-3.21,7-4.78,11.16-5.3,5.53-.7,11.14,0,16.68.33,4.33.27,9.07.68,13.09-1.25.36-.17.11-.79-.27-.65-5.15,1.89-11,1-16.29.44-5.68-.6-11.68-1.39-17.31-.06-9.36,2.22-14.34,11.19-13.05,20.48C297.82,290.85,299.91,290.52,299.9,289.25Z" transform="translate(-86.89 -129.4)"/><path class="cls-8" d="M349.66,283.46c-1.74,3.82-.68,9.65,3.89,10.87a1.11,1.11,0,0,0,.85-2c-4.29-2.31-4.2-7.21-1.4-10.74,3-3.8,7.57-5.79,11.39-8.62.35-.26,0-.85-.35-.6C359.1,275.75,352.35,277.58,349.66,283.46Z" transform="translate(-86.89 -129.4)"/><path class="cls-8" d="M393.33,328.92q.53,0,1-.12c.34-.05.68-.1,1-.17a36.37,36.37,0,0,0,4-1c1.32-.39,2.61-.87,3.9-1.37s2.52-1.11,3.74-1.76a41.06,41.06,0,0,0,6.9-4.57,38.33,38.33,0,0,0,5.82-5.92,40.72,40.72,0,0,0,4.39-7.05l.86-1.89c.27-.64.49-1.29.74-1.93.12-.33.25-.65.36-1l.3-1c.19-.66.41-1.32.57-2a51.77,51.77,0,0,0,1.3-16.34A64.69,64.69,0,0,1,426,299a46.54,46.54,0,0,1-2.95,7.5,42,42,0,0,1-4.31,6.78A38.6,38.6,0,0,1,413.1,319a43.36,43.36,0,0,1-6.59,4.63,47.07,47.07,0,0,1-7.34,3.42,40.57,40.57,0,0,1-3.88,1.22l-1,.25c-.33.08-.66.14-1,.21a10.42,10.42,0,0,1-2,.24A10,10,0,0,0,393.33,328.92Z" transform="translate(-86.89 -129.4)"/><path class="cls-8" d="M322.67,384c-1-.21-2-.46-3.05-.61-2-.35-4.1-.57-6.16-.75-1-.05-2.07-.12-3.11-.15s-2.07,0-3.11,0l-3.1.15c-1,.08-2.06.21-3.09.32a39.79,39.79,0,0,0-11.91,3.29,62,62,0,0,1,12-1.92,86.43,86.43,0,0,1,12.15.09c1,.05,2,.18,3,.26s2,.27,3,.38c2,.27,4,.64,6,1.06a56.77,56.77,0,0,1,11.59,3.74,37.09,37.09,0,0,0-11.26-5.08C324.68,384.46,323.69,384.16,322.67,384Z" transform="translate(-86.89 -129.4)"/><path class="cls-8" d="M363.17,564.88a19,19,0,0,1,.31,3.76c0,1.17-.46,2.3-.44,3.46a.93.93,0,0,0,1.71.46c1.55-2.21.85-6-.42-8.17A.64.64,0,0,0,363.17,564.88Z" transform="translate(-86.89 -129.4)"/><path class="cls-8" d="M363.9,578.81c-.27,2.48-.51,5.51,1,7.67a.8.8,0,0,0,1.48-.4c-.06-2.45-1.14-4.82-1.35-7.27A.58.58,0,0,0,363.9,578.81Z" transform="translate(-86.89 -129.4)"/><path class="cls-8" d="M236.57,576.37a19.46,19.46,0,0,0-.08-4.88,27.58,27.58,0,0,0-.64-4.79.54.54,0,0,0-1,0,28.42,28.42,0,0,0-.22,4.79,19.42,19.42,0,0,0,.34,4.88C235.13,577.14,236.42,577.23,236.57,576.37Z" transform="translate(-86.89 -129.4)"/><path class="cls-8" d="M238.49,591.66a7.28,7.28,0,0,0-.24-2.7c-.2-1-.42-2-.65-3-.18-.81-1.55-.65-1.48.2.1,1,.2,2,.32,3.06a7,7,0,0,0,.59,2.64A.81.81,0,0,0,238.49,591.66Z" transform="translate(-86.89 -129.4)"/><path class="cls-8" d="M237.76,597.61c.62,2.18.5,5.22,2,7,.42.51,1.17,0,1.21-.5.14-2.21-1.78-4.71-2.5-6.71C238.3,597,237.63,597.16,237.76,597.61Z" transform="translate(-86.89 -129.4)"/><path class="cls-8" d="M243.87,608.52a.45.45,0,0,0-.7.54c.67,1,1.24,2.14,1.92,3.18.57.86,1.15,2.08,2.13,2.49.41.18,1.11,0,1-.59a5.58,5.58,0,0,0-1.72-2.76C245.69,610.39,244.73,609.5,243.87,608.52Z" transform="translate(-86.89 -129.4)"/><path class="cls-8" d="M262.29,617.31c-1.29,0-2.54.38-3.84.37a10.58,10.58,0,0,1-4.44-.92c-.81-.38-1.53.78-.72,1.21,2.61,1.39,6.7,2.67,9.42.9A.84.84,0,0,0,262.29,617.31Z" transform="translate(-86.89 -129.4)"/><path class="cls-8" d="M272.31,612.77c-1,.11-1.67,1.07-2.38,1.74a18.65,18.65,0,0,1-3.05,2.33c-.56.34-.19,1.38.47,1.11a13.82,13.82,0,0,0,3.63-1.9c.81-.65,1.92-1.49,2-2.56A.72.72,0,0,0,272.31,612.77Z" transform="translate(-86.89 -129.4)"/><path class="cls-8" d="M278.41,603.12c-.57.77-.62,1.93-1.07,2.79a16.17,16.17,0,0,1-1.71,2.49c-.42.55.4,1.3.95.94a6.77,6.77,0,0,0,2.32-2.71c.47-.94,1.11-2.31.7-3.35A.67.67,0,0,0,278.41,603.12Z" transform="translate(-86.89 -129.4)"/><path class="cls-8" d="M284.33,574.49c-.95,2-1.07,4.64-1.39,6.81-.12.78,1,1.14,1.21.34.53-2.12,1.46-4.64,1.36-6.83C285.48,574.23,284.61,573.89,284.33,574.49Z" transform="translate(-86.89 -129.4)"/><path class="cls-8" d="M170.52,218.23h0c3.35,5.79,5.37,12.47,2.41,18.9a1.27,1.27,0,0,0,1.42,1.84c6.31-1,13.12-1.74,19,1.34a1.28,1.28,0,0,0,1.73-1.73,26,26,0,0,1-2.32-17.18,1.29,1.29,0,0,0-1.57-1.57A25.68,25.68,0,0,1,171.8,216C170.46,215.08,169.19,217.29,170.52,218.23ZM190,222.58a29.28,29.28,0,0,0,1.55,14.25c-5-1.64-10.35-1.33-15.59-.6a21.44,21.44,0,0,0-1.41-15.73A29.11,29.11,0,0,0,190,222.58Z" transform="translate(-86.89 -129.4)"/><path class="cls-8" d="M462.89,317c-7.42,0-13.85-4.87-18.41-10.34-.9-1.07-2.33.09-2.09,1.22-.7,6.23-1.8,12.11-7.58,15.65a1.26,1.26,0,0,0,.3,2.27A30.64,30.64,0,0,1,451,335.1a1.26,1.26,0,0,0,2.1-.55c1.47-6.61,5.52-11.29,10.71-15.4C464.67,318.44,463.9,317,462.89,317Zm-11.67,14.79a32.48,32.48,0,0,0-13-7.7c3.94-3.41,5.82-8.33,6.34-13.52,4.11,4.27,9.33,7.77,15.16,8.71A28.2,28.2,0,0,0,451.22,331.78Z" transform="translate(-86.89 -129.4)"/><path class="cls-8" d="M178.84,284.41a1.26,1.26,0,0,0-.63-2.33,24.82,24.82,0,0,1-20.43-14.26,1.23,1.23,0,0,0-2.28.62,27.94,27.94,0,0,1-.95,10.76c-1.69,5.34-5.47,9.07-10.35,11.58a1.2,1.2,0,0,0-.77.47.9.9,0,0,0-.26.66,1.13,1.13,0,0,0,1.2,1.38c8.25-.45,16.21,4.18,20.45,11.18a1.28,1.28,0,0,0,2.37-.64A27.28,27.28,0,0,1,178.84,284.41Zm-13.65,16.15a25.92,25.92,0,0,0-16.46-9.66c5.86-4.15,8.83-10.67,9.28-17.81a27.38,27.38,0,0,0,17.08,11.06A29.91,29.91,0,0,0,165.19,300.56Z" transform="translate(-86.89 -129.4)"/><path class="cls-8" d="M236.68,543.84q-2.9-4.23-5.38-8.72a92.81,92.81,0,0,1-4.42-9.22,76.8,76.8,0,0,1-3.28-9.66,65.34,65.34,0,0,1-1.91-10,56.63,56.63,0,0,1-.22-10.17,45.55,45.55,0,0,1,5.88-19.42,40.06,40.06,0,0,0-4.66,9.21A44.78,44.78,0,0,0,220.44,496a53,53,0,0,0,0,10.39,65.62,65.62,0,0,0,1.87,10.22,76.75,76.75,0,0,0,3.41,9.8,81.67,81.67,0,0,0,4.68,9.24,91.19,91.19,0,0,0,12.43,16.46C240.68,549.4,238.59,546.68,236.68,543.84Z" transform="translate(-86.89 -129.4)"/><path class="cls-8" d="M291.4,331.51c-5.94-1.85-15.77-2.22-22.37-2.75-6.27-.51-11.41-.21-15.82,1.57a13.68,13.68,0,0,0-5.47,3.66c-2.19,2.46-2.72,4.82-3,8.25a54.34,54.34,0,0,0,0,6.51,33.42,33.42,0,0,0,4.13,15.71,24.43,24.43,0,0,0,2.78,4.15,14.8,14.8,0,0,0,3.61,3.29c7.26,4.91,19.59,4.73,27.92,2.69a30.53,30.53,0,0,0,5.5-1.94,24.87,24.87,0,0,0,8.1-7.11,33.73,33.73,0,0,0,6.71-17,23,23,0,0,0-.86-8.49C300.72,335.26,296.31,333,291.4,331.51Z" transform="translate(-86.89 -129.4)"/><path class="cls-8" d="M382.33,340.84c-4.07-2.47-9.09-3.6-15.36-4.11l-13.48-1.1c-6.89-.56-15.12.35-19.45,4.21-2.8,2.48-4,7-4.29,11a33.65,33.65,0,0,0,4,17.89,25.06,25.06,0,0,0,6.93,8.25,37.76,37.76,0,0,0,10.91,4.71c4.6,1.33,6.13,1.32,10.72,1.69a25.36,25.36,0,0,0,6.22-.35c5.61-1,9.06-3.42,12.56-7.84,5.15-6.53,7.11-14.44,7.79-22.8C389.31,347.22,386.41,343.32,382.33,340.84Z" transform="translate(-86.89 -129.4)"/><path class="cls-8" d="M389.44,334.48c-1.44-.31-2.9-.32-4.35-.6-6.19-1.2-18.57-2.17-25-2.7-5.12-.42-17.27.38-22.05,1.54-.82.19-1.45.3-2.27.5a26.55,26.55,0,0,0-4.12,1.32,18.77,18.77,0,0,1-9.07,1.66c-4.69-.38-10.2-.45-14.29-1.84-2.33-.8-4.51-2.62-7.68-4A84.27,84.27,0,0,0,287,326.21c-11.2-2.55-15.63-2.07-26.43-2.95l-8.79-.25c-1.44.08-2.92-.15-4.38-.11l-10.52.33c-.67,0-1.45.16-2.09.16v0l-.21,2.61c0,.8.08,1.14,0,2.14-.16,1.9-.09,3.17-.24,5,1.76,1,2.72,1.36,3.88,3.55a6.88,6.88,0,0,1,.6,1.86,28.44,28.44,0,0,1,.51,4.18c.12,1.49.25,2.82.43,4.24.34,2.78.79,5.44,1.25,8.15a46.35,46.35,0,0,0,4,12.64,17.66,17.66,0,0,0,3.11,4.35c4.14,4.42,10.57,7.34,18,7.94a70.76,70.76,0,0,0,10,0l6.68-.93a33.76,33.76,0,0,0,9.62-3.44,21.22,21.22,0,0,0,5.89-4.85,62.09,62.09,0,0,0,7-9.33c.75-1.23,1.29-2.44,2-3.68,2.79-5.09,2.94-9.56,5.19-11.65s9.55-2.64,10.35,4.48a49.51,49.51,0,0,0,4.75,16c1.93,4.22,5.16,9.69,8.78,12.56a33.44,33.44,0,0,0,7.77,4.52,54.2,54.2,0,0,0,7.56,2.47c9.15,2,17.74,3.19,25.89-1.34a27.05,27.05,0,0,0,3-1.86l1.32-1a21.12,21.12,0,0,0,3.49-4.13,57.37,57.37,0,0,0,6.33-14.24c.95-3.11,1.55-4.86,2.35-8.07.9-3.61,1.37-6.38,4.69-8.13a15.49,15.49,0,0,1,1.82-.67l.91-7,.22-2.68c-1.79-.29-5.41-1.26-8.09-1.7C392.33,335.07,390.61,334.73,389.44,334.48Zm-85.95,14.09a33.73,33.73,0,0,1-6.71,17,24.87,24.87,0,0,1-8.1,7.11,30.53,30.53,0,0,1-5.5,1.94c-8.33,2-20.66,2.22-27.92-2.69a14.8,14.8,0,0,1-3.61-3.29,24.43,24.43,0,0,1-2.78-4.15,33.42,33.42,0,0,1-4.13-15.71,54.34,54.34,0,0,1,0-6.51c.28-3.43.81-5.79,3-8.25a13.68,13.68,0,0,1,5.47-3.66c4.41-1.78,9.55-2.08,15.82-1.57,6.6.53,16.43.9,22.37,2.75,4.91,1.53,9.32,3.75,11.23,8.57A23,23,0,0,1,303.49,348.57Zm85.39,3.85c-.68,8.36-2.64,16.27-7.79,22.8-3.5,4.42-6.95,6.87-12.56,7.84a25.36,25.36,0,0,1-6.22.35c-4.59-.37-6.12-.36-10.72-1.69A37.76,37.76,0,0,1,340.68,377a25.06,25.06,0,0,1-6.93-8.25,33.65,33.65,0,0,1-4-17.89c.33-4,1.49-8.55,4.29-11,4.33-3.86,12.56-4.77,19.45-4.21l13.48,1.1c6.27.51,11.29,1.64,15.36,4.11S389.31,347.22,388.88,352.42Z" transform="translate(-86.89 -129.4)"/><path class="cls-9" d="M273.25,280.91c1.87,3.61,1.49,8.2.32,12.35,2.46-1.86,3.73-6.94,6.83-8.24a16,16,0,0,1-1.21-6A42.71,42.71,0,0,0,273.25,280.91Z" transform="translate(-86.89 -129.4)"/><path class="cls-9" d="M236.93,264.41c2.22,18.83,20,28,34.33,29.52a20.4,20.4,0,0,0,1.2-7.66,13.67,13.67,0,0,0-.79-3.89,5,5,0,0,0-1.95-2.26c-.88-.43-1.87-.77-2.65-1.15a52,52,0,0,1-6.79-3.91,35.4,35.4,0,0,1-13.11-16.36c-4.36-11.39-1.64-23,.11-34.6,0-.58,0-1.17,0-1.75a29.55,29.55,0,0,0-.79-5.14,50.3,50.3,0,0,0-2.92,5.53h0v0a7.81,7.81,0,0,1,0-.85,1.21,1.21,0,0,1,0-.19v-.36c0-1.79.17-3.59.3-5.38,0-.37,0-.74.06-1.1h-.11C242.81,229.53,235.13,249.14,236.93,264.41Z" transform="translate(-86.89 -129.4)"/><path class="cls-9" d="M371.92,290.64a9.91,9.91,0,0,0-1.52,2.71c-.08.22-.16.42-.22.61a16.13,16.13,0,0,0-.73,2.81,4.67,4.67,0,0,0,1.35,1.65c1.83,1.48,7.25,2.23,9.34,2,5.35-.5,11.84-1.18,18.21-6.16,7.58-5.94,11.14-14.05,11.93-24.77.51-6.71-.62-20.89-.26-31.73,0,.16-.08.32-.13.48v0a50.67,50.67,0,0,0-1.85-6c-.13.24-.24.49-.35.73a24.75,24.75,0,0,0-1,3c-.81,3.32-.72,6.77-.79,10.29,0,1.27-.06,2.54-.12,3.81,0,.16,0,.32,0,.47-.06,1.63-.19,3.26-.38,4.88,0,.16,0,.31,0,.47l0,.22c-.12.94-.26,1.89-.43,2.83a48.72,48.72,0,0,1-1.45,5.71c0,.11-.07.22-.11.33-.13.39-.27.77-.41,1.16l-.18.51c-.16.41-.32.81-.49,1.22s-.25.58-.38.87-.21.47-.32.71-.25.51-.37.77l-.35.67c-.12.24-.25.48-.38.72-.23.42-.48.85-.73,1.26l-.25.39c-.22.35-.44.69-.67,1-.09.13-.17.26-.26.38-.27.39-.55.78-.84,1.16a1.83,1.83,0,0,1-.13.16,29.81,29.81,0,0,1-1.93,2.28c-.49.51-1,1-1.5,1.48l-.34.32-.5.44-.55.47-.35.29-.82.65-.11.08A40.54,40.54,0,0,1,380.16,288c-1.13.39-2.27.73-3.42,1.05l-.13,0-.08,0-2.63.71c-.37.1-1,.26-1.38.38a3.11,3.11,0,0,0-.52.34A.73.73,0,0,0,371.92,290.64Z" transform="translate(-86.89 -129.4)"/><path class="cls-9" d="M212.43,325.38c2,4,5.87,6.48,10.55,7.35,4.52.84,13.39-.9,15.83-4.33-1,0-1.94-.18-2.68-.23h0l-.58,0-.75-.07-.53-.05-1.1-.14-.16,0c-.44-.06-.87-.14-1.3-.21l-.31-.06c-.38-.07-.75-.14-1.13-.23l-.19,0c-.91-.2-1.8-.44-2.68-.71l-.2-.06c-.87-.27-1.74-.58-2.59-.93l-.21-.09-1-.43-.34-.16c-.33-.15-.65-.31-1-.48l-.55-.29-.66-.38c-.23-.13-.45-.26-.66-.4l-.15-.09-.07,0-.62-.39c-3.06-2.05-5.29-4.86-7.87-7.44C210.45,318.19,211.43,323.36,212.43,325.38Z" transform="translate(-86.89 -129.4)"/><path class="cls-9" d="M429.23,356c0-.07-.08-.14-.11-.2-.69.27-1.38.52-2.06.73a7.79,7.79,0,0,1,1.66.43.54.54,0,0,1,0,1c-2.12.63-4.86.23-7.32-.3a28.4,28.4,0,0,1-17.72-4.24c3.92,6,11.49,12.62,17,13.42C426.62,367.76,431.76,361,429.23,356Z" transform="translate(-86.89 -129.4)"/><path class="cls-9" d="M281.72,281.81a12.59,12.59,0,0,0,.63,2.14c2-1.5,3-3.68,5.31-5.78,4.46-4,10.79-3.57,15.9-5.89a12.69,12.69,0,0,0-3.34,4.32,16.6,16.6,0,0,1,10.47-7.52,27.36,27.36,0,0,1,4.67-.66h.16l.94,0,.58,0c.61,0,1.23,0,1.85,0,3.05.09,6.12.45,9.11.77,4.94.52,10.35,1.33,15.22-.09l.16-.05.57-.19.35-.12c.3-.11.38,0,.38.18a.32.32,0,0,1-.11.47h0a5.75,5.75,0,0,1-1.48.6c-3.68,1.24-7.81.9-11.62.66-4.45-.27-8.94-.77-13.41-.6l-1.17.07-.56,0a20.6,20.6,0,0,0-9.91,3.3,14.2,14.2,0,0,0-4.76,5.42c8-4.12,23,.18,30.61-1.06a6.58,6.58,0,0,0-.87.81,11,11,0,0,1,1.15-.77A21.22,21.22,0,0,1,339,275.6c1.57-.33,3.15-.61,4.66-1a34,34,0,0,0,10.89-4.9c.4-.28.46-.18.39.05a.35.35,0,0,1,0,.52c-.18.17-.38.33-.57.5,0,0,0,0,0,0a7.78,7.78,0,0,1-2,1.49c-.39.25-.79.48-1.2.71l-.16.08q-.47.26-.93.48l-.17.08q-.48.24-1,.45l-.09,0-1.08.44h-.06c-2.88,1.11-5.95,1.88-8.85,2.77l-1.05.34-.16.05-.26.1a19.24,19.24,0,0,0-2.12.89,11.34,11.34,0,0,0-5.46,5.35c5.73-4.08,15-.2,20.62-1.95.09-.14.17-.28.27-.41a.83.83,0,0,1,.11-.15c.07-.11.15-.2.22-.3a7.79,7.79,0,0,1,.51-.63l.12-.15a20.24,20.24,0,0,1,5.12-4c1.82-1.05,3.73-2,5.53-3l.16-.1.71-.43.81-.53.09-.06c.36-.25.43-.15.38,0a.37.37,0,0,1,0,.55l-.31.23h0c-.34.6-1.74,1.19-2.31,1.56h0c-1.37.88-2.77,1.73-4.1,2.65-.39.27-.78.56-1.17.85a19,19,0,0,0-3.49,3.33l-.06.06a10.79,10.79,0,0,0-1.27,2.18,7.55,7.55,0,0,0-.55,3.94c3.68-2.48,10.53-2.47,14.15.32,2.43,2.8,3.32,2.13,3.91,3l.12-.2.05-.07c.13-.21.27-.42.42-.62h0c-4.75-2.2-8.23-7.75-5.89-12.91,0-.09.09-.17.13-.26l.21-.41.31-.53.15-.24a33.65,33.65,0,0,1,3.39-4.08l.17-.19,0,0a13.55,13.55,0,0,0,3.28-6.36c0-.14,0-.27.07-.4a.88.88,0,0,1,0-.17c0-.29.07-.59.09-.89-6.58,6.37-17.83,5-26.25,3.65-1.16-.19-2.31-.39-3.46-.61-8.08-1.49-16.06-3.48-24.23-4.49l-1.14-.14-.43,0a81.17,81.17,0,0,0-8.68-.5,46.27,46.27,0,0,0-7,.5l-.52.09-.55.1a33,33,0,0,0-6,1.7c-.19.07-.37.13-.55.21l-.38.17c-.35.15-.71.3-1.06.47l-.38.2c-4.68,2.37-8.36,6.34-9.38,11.24h0c0,.21-.08.42-.11.64v0l-.06.45,0,.35a1.64,1.64,0,0,0,0,.23l0,.42c0,.12,0,.24,0,.36V279A14.29,14.29,0,0,0,281.72,281.81Z" transform="translate(-86.89 -129.4)"/><path class="cls-9" d="M284.38,390.86a30.06,30.06,0,0,1-6.94-2.75c-1.24-.65-2.47-1.33-3.68-2,3.85,3.52,6.87,7.9,11.66,10.1,10.88,5,23.52,5.78,35.43,5.76,7.2,0,18.91,1.43,25.59-1.64,4.12-1.89,14.16-10.54,22.43-12.8-.75.07-1.5.18-2.23.31l-.16,0-.68.14-.66.14-.18,0a98.34,98.34,0,0,0-12.43,4.3h0l-.87.33-.52.19-.53.2-.63.22-.55.2-.55.19-.81.27-.29.09a34,34,0,0,1-9.12,1.78c-5.48.21-10.92-.79-16.36-1.79a150.63,150.63,0,0,0-23.42-2A77.13,77.13,0,0,1,284.38,390.86Z" transform="translate(-86.89 -129.4)"/><path class="cls-9" d="M282.1,385.52a28.79,28.79,0,0,1-10-2.41c1.57,1,3.1,1.9,4.57,2.7,5.23,2.86,10.82,3.9,16.55,4.32,2.12.11,4.24.14,6.36.17,4.56.06,9.12.14,13.65.62l1.67.19c1.63.21,3.26.46,4.88.74,3.21.53,6.41,1.12,9.62,1.6,1.45.21,2.93.42,4.42.56.4,0,.79.07,1.19.09,5.3.35,10.19-1.08,15.07-2.8l.48-.17.18-.06,1.82-.66c-2.92-.25-5.3-1.71-8.22-4.48-7.17-6.81-6.81-18.45-9.42-27.46-.81-2.82-1.45-7.57-4-10.8a4.7,4.7,0,0,0-8.25,2c-2.1,9.32-4.13,17.48-12.53,24.35-5,4.1-11.53,6.14-17.32,8.78C289.35,384.36,286.26,385.68,282.1,385.52Zm28.65-3c8.92.28,18.77,2.12,26.2,7.34l-.06,0,.05,0a56.77,56.77,0,0,0-11.59-3.74c-2-.42-4-.79-6-1.06-1-.11-2-.3-3-.38s-2-.21-3-.26a86.43,86.43,0,0,0-12.15-.09,62,62,0,0,0-12,1.92h0a44.08,44.08,0,0,1,18-3.75h.17C308.49,382.43,309.63,382.43,310.75,382.47Z" transform="translate(-86.89 -129.4)"/><path class="cls-10" d="M258.36,560.24l.09.06a32.66,32.66,0,0,1,8-3.1c-.25-.93-.48-1.84-.71-2.69a75.62,75.62,0,0,1-2.08-11.76c-.29-2.51-.47-5-.53-7.57-1.07-7.51-5.12-31-7.7-27.3-7.47,10.62-9.06,21.69-6.74,35.22C249.88,550,252.36,556,258.36,560.24Z" transform="translate(-86.89 -129.4)"/><path class="cls-9" d="M380.17,635.41c-3.24-9.55-3.66-19.82-4.45-29.8a25.58,25.58,0,0,1-4.56-3.91.69.69,0,0,1,.06-1.11,27.81,27.81,0,0,1-2.25-2.71,65.89,65.89,0,0,0-.66,8,44.74,44.74,0,0,0,12.51,31.37C380.6,636.61,380.38,636,380.17,635.41Z" transform="translate(-86.89 -129.4)"/><path class="cls-9" d="M362,511.54a59.38,59.38,0,0,0-4.44-6.63c-.92-1.18-1.89-2.31-2.9-3.41a70.75,70.75,0,0,1,4.42,5.64C360.09,508.56,361.07,510,362,511.54Z" transform="translate(-86.89 -129.4)"/><path class="cls-9" d="M363.11,569c1.91,4.64,5.54,17.59,6.86,20.93a18.88,18.88,0,0,0,3.62,6.15,34.19,34.19,0,0,0,5.4,4.57,73.11,73.11,0,0,0,6.86-16.27c1-3.54,1.8-7.13,2.54-10.74.39-1.93,1.19-4.24,1.08-6.22-.12-2.14-1.73-2.23-3.32-2.54l-11-.49c-1.86-.09-3.72-.17-5.58-.3l-.47,0a5,5,0,0,1-3.08-.72l-.26-.22a.52.52,0,0,1,0-.74c1.19-.93,2.31-.69,3.81-.67,1,0,2,0,3,.08-.09-1.37.1-2.78.11-4.14,0-.61,0-1.22,0-1.83-2.59-5.46-.17-12.33-1.38-18.34a106.93,106.93,0,0,0-2.65-10.43,80.3,80.3,0,0,0-9.84-18.56,64,64,0,0,0-8.73-10.1c-2,.93-4,1.81-6,2.68-4.36,1.92-14.16,2.95-16.71,7.23-3,4.95,2.67,13,5.17,16.63C342.8,539.75,356.15,552.15,363.11,569Z" transform="translate(-86.89 -129.4)"/><path class="cls-9" d="M385.89,524.57c-2.13-4.92-5-9.5-7.68-14.15-4.31-7.53-9.14-15.69-10.71-24.39a12.87,12.87,0,0,1-1-1.53c-3,6.37-6.37,9-12.47,12,8.93,9.73,14,24.5,16.88,35.31.64,2.41,1.16,4.85,1.59,7.31h0l.11.08,0,0a.49.49,0,0,1,.08.18,80.3,80.3,0,0,1,1.82,12.14c.1,1.42.16,2.84.21,4.27,2.54.82,5.44,3.92,7.2,6.4l2.53.1a.54.54,0,0,1,.07-.13c4.31-5.73,5.7-12.78,5.38-19.83A51.16,51.16,0,0,0,385.89,524.57Z" transform="translate(-86.89 -129.4)"/><path class="cls-11" d="M231.67,313.14c1.31.94,2.65,1.87,4,2.68a18.65,18.65,0,0,0,13.76,1.72,23.37,23.37,0,0,0,5.94-2.66c-23.5-2.15-36.49-27.2-34.85-48.8,1.41-18.71,13.78-34.42,17.7-52.3v0c-.42.07-.83.15-1.24.24-.9,2.17-1.8,4.34-2.66,6.56q-1.8,4.66-4,9.19c-2.64,5.52-5.74,10.8-8.64,16.19-5.15,9.6-9.5,19.77-9.31,30.87a45.67,45.67,0,0,0,10,27.51c.5.63,1,1.27,1.59,1.9A46.35,46.35,0,0,0,231.67,313.14Zm-11.8-17.75a41.54,41.54,0,0,1-3-7.73l-.49-2c-.15-.68-.25-1.36-.37-2-.06-.34-.13-.68-.18-1l-.11-1c-.06-.68-.15-1.37-.19-2.06a51.94,51.94,0,0,1,1.75-16.3.25.25,0,0,0,0,.08.29.29,0,0,1,0-.09c-1.71,10.54-1.31,21.52,3.58,31.2a40.47,40.47,0,0,0,3.72,6l.89,1.14a45,45,0,0,0,5.62,5.77,47.14,47.14,0,0,0,6.58,4.71,38,38,0,0,0,3.38,1.82c.38.18.76.36,1.14.52l.44.19.49.21.74.27.44.15h0a6.41,6.41,0,0,0,.73.17H245l.08,0a5.58,5.58,0,0,1-.57-.08c-4.77-.57-9.78-3.86-13.51-6.76l-.56-.42a40.46,40.46,0,0,1-4.05-3.7l-.2-.2-.69-.75-.31-.35-.69-.77A39,39,0,0,1,219.87,295.39Z" transform="translate(-86.89 -129.4)"/><path class="cls-11" d="M243.54,322.19c-.14.54-.25,1.1-.34,1.66s-.07,1.47-.17,2.19a11.54,11.54,0,0,0,2.09-.68c4.15-1.79,7.56-4.13,9.31-7.65-.39.2-.78.38-1.17.56l-.42.19-.15.05-.25.11-.67.26-.32.11-.6.2c-.16.06-.32.1-.49.15l-.44.13-.56.15-.33.08H249a21.78,21.78,0,0,1-3.1.51,17.6,17.6,0,0,1-1.77,0,0,0,0,0,1,0,0c0,.2-.09.39-.14.58,0,0,0,0,0,0C243.79,321.33,243.66,321.76,243.54,322.19Z" transform="translate(-86.89 -129.4)"/><path class="cls-12" d="M236.1,336.75a9.36,9.36,0,0,1,1-.66l-.15-.28C236.64,336.11,236.37,336.42,236.1,336.75Z" transform="translate(-86.89 -129.4)"/><path class="cls-11" d="M238.94,457.05a12.64,12.64,0,0,1-.3-4.13h0v0c2.64,4.38,5.69,6.19,10.08,8.45a54.82,54.82,0,0,1-5.1-4.65l-.13-.12-.21-.22q-.71-.74-1.38-1.5a44.52,44.52,0,0,1-6.58-10.75c-1.78-3.84-3.35-7.8-5.44-11.5-.25-.43-.5-.86-.77-1.28-1.42-2.1-3.42-3.87-4.75-6a8.85,8.85,0,0,1-.5-.84,11.45,11.45,0,0,1-.29-8.58,1.72,1.72,0,0,0,.07-.21l.13-.4a38.87,38.87,0,0,1,5.92-10.45,77.68,77.68,0,0,0,6.26-9.31,12.81,12.81,0,0,0,1-2.68l0-.11a10.83,10.83,0,0,0,.21-1.11l0-.18.06-.45c0-.17,0-.33,0-.5a2.83,2.83,0,0,1,0-.29c0-.28,0-.56,0-.85v-.15c0-.25,0-.51,0-.76v-.73c0-1,0-2.06,0-3.15a8.93,8.93,0,0,1,2-5.76c1.14-4.49,2.72-8.81,2.85-13.69.21-7.85-.79-18.21-3.73-25.84-.48,2-1.37,4.25-1.63,5-4.76,14.67-14.21,27.78-20.66,41.85a73.66,73.66,0,0,0-6.43,21.51v.1c0,.26-.05.52-.08.78-.14,1.52-.22,3.06-.23,4.63a40,40,0,0,0,1.58,11.39l.08.29.13.39a49.64,49.64,0,0,0,8.8,15.93c.71-1.24,2.52-4.44,2.75-5.78h0c4.68,6.9,4.9,15.72,9.52,17.23a10.39,10.39,0,0,1,.36-4h0v0C235.21,453.6,235.41,454.25,238.94,457.05Z" transform="translate(-86.89 -129.4)"/><path class="cls-11" d="M239.7,556.85a61.21,61.21,0,0,0,5.11,5.57l.36.35.76.7c.43.34.83.7,1.22,1s.66.55,1,.81c1.95.1,3.91.15,5.86.17.17-.2.35-.4.53-.59-5.48-7.12-13.92-14.91-17.12-22.12-3.43-7.73-9.15-28.87-9.14-37.43,0-14.77,6.47-25.94,13.8-34.11-3.28-2.42-6.49-5.55-8.17-9.82a23,23,0,0,0-.13,5.93h0v0a34.87,34.87,0,0,1-3.83-3.68l-.12.13A57.76,57.76,0,0,0,217,488.37c-.3,1.25-.56,2.48-.79,3.69a54.85,54.85,0,0,0-.78,11.09c.28,8.34,2.89,16.23,6.34,23.76a161.39,161.39,0,0,0,9.43,18l.29.45A131.6,131.6,0,0,0,239.7,556.85Zm-14-30.46c-.71-1.66-1.35-3.35-1.94-5.06-5.2-14.56-5.75-30.31,2.84-43.58l.73-1.1,0,.06a.21.21,0,0,0,0-.06c-.43.74-.83,1.48-1.21,2.23a46.26,46.26,0,0,0-4.68,17.19,56.63,56.63,0,0,0,.22,10.17,66.73,66.73,0,0,0,1.58,8.76c3.53,13.61,11.21,26.66,19.57,37.08l-.11-.11.1.12a91.19,91.19,0,0,1-12.43-16.46A81.67,81.67,0,0,1,225.72,526.39Z" transform="translate(-86.89 -129.4)"/><path class="cls-11" d="M236.86,609.78c-3.18-10.11-2.69-17.26.07-27.63,1.19-4.48,3.84-9.86,5.14-15a38.88,38.88,0,0,1-7.22-1.39.68.68,0,0,1,.18-1.33c2.51,0,5,.21,7.53.43a19.81,19.81,0,0,0,.26-2.26,62.28,62.28,0,0,1-9.29-10.29l0,.1c-.87,2.9-2.14,5.69-3.11,8.57q-1.56,4.63-2.83,9.37a103.28,103.28,0,0,0-3.11,14.74,26.45,26.45,0,0,0-.15,3.88v0a37.48,37.48,0,0,0,.57,4.82c.14.77.3,1.55.48,2.32a74,74,0,0,0,5.53,14.34,150.66,150.66,0,0,0,7.69,13.77c.65,1,1.31,2.06,2,3.07,7,10.79,14.78,21,22.14,31.49.2.29.4.58.59.88.7,1,1.4,2,2.09,3,.25.36.5.72.76,1.06C258.54,644.93,243.21,629.92,236.86,609.78Z" transform="translate(-86.89 -129.4)"/><path class="cls-9" d="M258.34,408.12c5.34,5.14,18.64,7.47,15.38-3.74a46.24,46.24,0,0,0-3.8-8.5c-1.34-2.61-3.86-5.18-5.84-7.37s-5.43-5.28-8.84-5.55A12.57,12.57,0,0,1,256.9,384c4.34,3.09,6.8,7,9.56,11.49a39.12,39.12,0,0,1,4.42,10.94,1.63,1.63,0,0,1,0,.31c0,.13,0,.25,0,.36a1.37,1.37,0,0,1-1.72,1.25,11.28,11.28,0,0,1-3.79-2.35,46.56,46.56,0,0,0-7.11-4.43c-4.48-2.33-7.62-5.63-7.46-10.91v-.31C250,397,252.6,402.61,258.34,408.12Z" transform="translate(-86.89 -129.4)"/><path class="cls-9" d="M349,414a1.71,1.71,0,0,1,.09-.3,39.1,39.1,0,0,1,6.37-9.93c3.49-3.87,6.61-7.2,11.33-9.43a20.87,20.87,0,0,0-6.79,3.49c-2.36,1.76-5.33,3.8-7.15,6.1a46.36,46.36,0,0,0-5.37,7.6c-5.36,10.37,8.13,10.65,14.37,6.65,8.92-5.73,12.45-12.64,10.18-23.3a3.81,3.81,0,0,0-.52-.29,4.32,4.32,0,0,1,.31.68c.72,2.05.24,4.53-.09,6.65-.83,5.22-4.53,7.88-9.36,9.34a45.49,45.49,0,0,0-7.81,3,11.29,11.29,0,0,1-4.16,1.6A1.36,1.36,0,0,1,349,414.4C349,414.29,349,414.17,349,414Z" transform="translate(-86.89 -129.4)"/><path class="cls-9" d="M185,455.81c1.48,5.93-1.23,14.08,1.44,19.83,1.92,4.1,4,5.61,6,5.45,7-6.77,2.22-17.44-2-24.43a70.1,70.1,0,0,0-9.35-12A81.12,81.12,0,0,1,185,455.81Z" transform="translate(-86.89 -129.4)"/><path class="cls-13" d="M363.15,280.94a8.1,8.1,0,0,1,.35-2.65c.84-2.71,2.94-4.66,4.75-6.74a12.86,12.86,0,0,0,3.47-7.82c-6.89,6.67-18.92,4.9-27.44,3.44-9.57-1.63-19-4.16-28.64-5.14-8.12-.82-16.72-.81-24.22,2.84-4.84,2.35-8.67,6.4-9.71,11.41,6.18-9.65,22.56-6.41,31.93-10.2q-1.47,1.59-3,3.12a26.33,26.33,0,0,1,6.39-.85c8.82-.13,18.7,3.5,27.26.34.59-.22.34.46.27.65A6.62,6.62,0,0,1,343,270a16,16,0,0,1-3.23.7,41.75,41.75,0,0,1-7.5,0c-5.2-.32-10.44-1-15.65-.57a20.74,20.74,0,0,0-10.23,3.33l-1,1c10.88-5.69,24.35,2.65,35.57-1.16a11.24,11.24,0,0,1-2,2.35c1.57-.33,3.15-.61,4.66-1a34,34,0,0,0,10.89-4.9c1.08-.76-.31,1.28-.15,1.08a8.85,8.85,0,0,1-2.18,1.59,26.25,26.25,0,0,1-4.49,2.19c-3.36,1.3-6.9,2-10.29,3.24a20.05,20.05,0,0,0-2.18.92,18.34,18.34,0,0,0-2,1.91c7.38-3.1,15.72-2.78,23.52-4.11,2.43-1.41,5-2.61,7.3-4.16.88-.61,0,.85,0,.83-.34.6-1.74,1.19-2.31,1.56-1.35.86-2.72,1.68-4,2.6-.48.32-1,.67-1.43,1-.65,1.35-1.45,2.67-2.05,4A31.82,31.82,0,0,1,363.15,280.94Z" transform="translate(-86.89 -129.4)"/></g></g></svg>