<svg xmlns="http://www.w3.org/2000/svg" viewBox="0 0 448.99 540.37"><defs><style>.cls-1{isolation:isolate;}.cls-2{fill:#9fcef0;}.cls-3{fill:#e6e0d6;}.cls-4{fill:#f1f2f2;}.cls-5{fill:#f9b041;}.cls-11,.cls-6{fill:#a97d50;}.cls-7{fill:#e6d0a1;}.cls-10,.cls-8{fill:#f7f2e5;mix-blend-mode:soft-light;}.cls-9{fill:#010101;}.cls-10{opacity:0.5;}.cls-11{opacity:0.35;mix-blend-mode:multiply;}.cls-12{fill:#9a2650;}.cls-13{fill:#e61f57;}.cls-14{fill:#e2a541;}.cls-15{fill:#bc1753;}.cls-16{fill:#d0d2d3;}.cls-17{fill:#f8f7f7;}.cls-18{fill:#066839;}</style></defs><title>bull_06</title><g class="cls-1"><g id="Layer_1" data-name="Layer 1"><path class="cls-2" d="M422,135.63c-24.22-9.38-54.55-7.95-77.81,2.8C317,151,302.54,167.61,288.33,193.9c-25.89,47.89-45.8,48.48-94.56,67s-81.84,32.44-102.36,91.29c-13.85,39.71,5.14,86.51,43,98,28.24,8.6,53,2.39,80.23,15.88,26.23,13,48,22.25,78.21,20.64,26.48-1.41,37.65-19.23,61.17-27,28.85-9.54,61.37,1,89.65,5.53,42.51,6.83,74.16,2.21,85.92-44.59,8-31.81,10.67-75.78-6.37-104.62-15.68-26.54-53.2-41.4-64.3-69.16-5.91-14.79,1-27.08,2.54-42.1C466.22,159.77,438,141.85,422,135.63Z" transform="translate(-86.89 -129.4)"/><path class="cls-2" d="M479.44,210.36c-38.1,10.29,7.07,90.43,37.53,46.75C530.85,237.21,504.34,203.63,479.44,210.36Z" transform="translate(-86.89 -129.4)"/><path class="cls-2" d="M420.27,417.52c-17.07-7-37.48-7.74-53.49,1.39C354.27,426,345.56,438.6,333,445.71c-11.58,6.59-25.59,8-37,14.89s-19.13,23.67-10,33.34c2.75,2.9,6.54,4.58,10.35,5.81,24.63,8,46,5.35,71.69,9,12.74,1.81,11,1.4,22.76,6.6C427.53,531.55,529.09,461.85,420.27,417.52Z" transform="translate(-86.89 -129.4)"/><path class="cls-3" d="M252.69,316.35c10.29-2.91,18.54-13.86,21.82-23.63,1.22-3.64,1.81-7.75.46-11.44-1.08-2.93-4.81-3.55-7.36-4.95a38.19,38.19,0,0,1-15-14.24c-4-7-5-14.9-4.39-22.8.56-7.57,3.76-15.92,1.52-23.38a49,49,0,0,0-2.93,5.55c-.31-3.46.51-6.93.31-10.4-1.32,6.82-6.06,12.13-9,18.27,1.65-6.56,3.46-13.17,3.48-20-1.36,3.33-2.75,6.58-4.05,9.94q-1.8,4.66-4,9.2c-2.65,5.52-5.75,10.81-8.65,16.2-5.16,9.61-9.51,19.79-9.32,30.9a45.8,45.8,0,0,0,10,27.53C231.94,311,241.93,319.39,252.69,316.35ZM222.27,292.5c-4.36-9.61-4.5-20.46-1.8-30.57-1.7,10.54-1.3,21.54,3.59,31.23a43.61,43.61,0,0,0,21.35,19.95,12.53,12.53,0,0,0,2.89,1c-5.18-.37-10.73-4.15-14.65-7.26A39.32,39.32,0,0,1,222.27,292.5Z" transform="translate(-86.89 -129.4)"/><path class="cls-4" d="M269.57,355.35c4.33,2.63,7.52-3.92,6-7.41C272.81,341.55,264.1,352,269.57,355.35Z" transform="translate(-86.89 -129.4)"/><path class="cls-4" d="M272.2,368.23a29.56,29.56,0,0,0,5-.3c1.36-.26,2.7-1.85,3.56-2.84a21.71,21.71,0,0,0,4.62-9.53c1.62-7.16-.68-14.16-7-18.25s-15.53-4.09-20.64,2c-4.11,4.88-6.48,12.64-3.53,18.66C257.27,364.16,265.55,368.2,272.2,368.23Zm-8.81-17.91c.58-4.81,5.62-9.78,10.73-8.22,4.75,1.46,8.62,5.8,7.79,11a8.81,8.81,0,0,1-10.88,7C265.54,360.24,262.8,355.21,263.39,350.32Z" transform="translate(-86.89 -129.4)"/><path class="cls-5" d="M209.46,335.14c-1,.45-.8,2-.84,2.35-.16,1.56-.08,2.77-1,4.11a7.77,7.77,0,0,1-3.87,2.74c-2.6.89-6,.6-7.69-1.76a7.09,7.09,0,0,1-.67-7.2,6.76,6.76,0,0,1,4.43-3.84c-.22-.59-.41-1.18-.57-1.78-2.65.84-4.73,1.73-6.09,4.48-2.61,5.29-.06,12.29,5.78,13.92a11.46,11.46,0,0,0,12.32-4.86c1.19-1.8,2.36-4.83,1.3-6.94A2.33,2.33,0,0,0,209.46,335.14Z" transform="translate(-86.89 -129.4)"/><path class="cls-4" d="M351.36,367a18.8,18.8,0,0,0,2.26,5.37,14.54,14.54,0,0,0,1.79,2.27c.2.2.53.65.8.75a22.66,22.66,0,0,0,10.41,1.29c6.19-.62,13.48-3.71,15.84-9.92a19.32,19.32,0,0,0-3.95-19c-5.69-5.84-15.8-5.1-21.91-.36S349.55,360,351.36,367Zm15.38-16.29c5,2.24,6.88,7.71,5.3,12.74a7.44,7.44,0,0,1-5.87,5.12,12.7,12.7,0,0,1-8.09-1.28,9,9,0,0,1-3.32-11.46C356.74,352,362.56,348.84,366.74,350.72Z" transform="translate(-86.89 -129.4)"/><path class="cls-6" d="M235.58,451.6a10.46,10.46,0,0,1,.36-4c2.49,5,2.68,5.59,6.23,8.4a12.76,12.76,0,0,1-.3-4.15c2.63,4.39,5.69,6.19,10.08,8.45a45,45,0,0,1-9.82-10.56c-3.8-6-5.79-12.85-9.42-18.89-1.6-2.66-4.24-4.72-5.63-7.45a11,11,0,0,1-.57-7.54c1.4-5.88,5.47-10.77,8.93-15.56,1.81-2.52,3.8-5.18,4.66-8.2.72-2.55.51-5.19.5-7.8,0-5,2.81-8.64,7.45-10.34,11.26-4.11,22.66,5.68,31.87,10.73,11.77,6.44,25.44,3.67,38.26,5.3,6.72.86,13.36,2.55,20.13,3s12.73-2,18.91-4.19c8.8-3.19,22.18-8.09,29.81.27,4.64,5.08.79,10.23,1.21,16.06s4,11.1,6.25,16.36c2.06,4.79,4.16,11.33,1.53,16.33-1.22,2.31-3.51,3.6-5.4,5.28a39,39,0,0,0-5.6,6.56c-3.52,4.93-6.67,10.26-11.22,14.34-.48.43-1,.84-1.48,1.25a11.8,11.8,0,0,1-1.33,6c4.82-1.62,11.59-4.72,13.88-12.48a12.1,12.1,0,0,1,.12,3.69c2.52-3.15,5.36-6.68,6.91-10.42.31,2.07.28,4.21.79,6.25,6.14-3.78,11.6-11.14,14-14.62a41.63,41.63,0,0,0,2.91-6.18c8.33-22.36-4-45.21-9.73-66.51a84.6,84.6,0,0,1-3-17.13c0-.83-.63-3.59.41-4,1.31-.47,1.15,1,1.34,1.74a34,34,0,0,0,3.32,7.77c3,5.34,8.35,9.14,13.46,12.33s10.08,3.79,15.51,1.32c5.82-2.65,7.11-7.23,7.68-13.2.16-1.67.76-4.24-.28-5.75-1.22-1.78-3.43-.43-4.94.23-11.93,5.21-24.34,1.62-33.18-7.47-1.69-1.74-4.69-4.5-5.42-6.91-.38-1.25,0-2.78,0-4.09a8.12,8.12,0,0,0-.13-2.31c-.41-1.1-.13-.44-1.15-1-1.48-.76-3.26-1-4.78-1.82a25.45,25.45,0,0,1-9.52-8.55,50.74,50.74,0,0,1-7.78-17.54c-1.05-4.92-1.48-11.39,1.7-15.66-4.37-2-7.79-7-6.28-11.92.84-2.71,2.94-4.66,4.75-6.73a13,13,0,0,0,3.48-7.84c-6.9,6.69-18.94,4.91-27.47,3.45-9.58-1.63-19-4.16-28.66-5.14-8.13-.82-16.74-.82-24.25,2.84-6.52,3.17-11.22,9.41-9.71,17a13.66,13.66,0,0,0,2.08,4.87c.46.7,1.63,3.07-.46,2.6-1.34-.29-2.61-3.46-3-4.57a16.31,16.31,0,0,1-1.1-5.7,42.29,42.29,0,0,0-5.94,1.89c2.75,5.31.64,12.76-1.73,17.78a49.68,49.68,0,0,1-11.35,15,25.73,25.73,0,0,1-7.36,4.77,23.15,23.15,0,0,1-3.8,1.25c-1.29.31-2.83.18-4.06.56-.74-.28-1.09-.06-1,.65-.15.42-.28.85-.4,1.28s-.25,1.1-.34,1.66c-.17,1.08,0,2.26-.46,3.23-1,2-4.62,1.22-6.61,1.1a34.35,34.35,0,0,1-16.1-4.88c-4.81-3-7.74-8.26-12.6-11.18a8.66,8.66,0,0,0-4-1.37,5.61,5.61,0,0,0-1.35.12c-.39.09-1.54.85-1.91.91a16.19,16.19,0,0,0-2.08,5.93,37.75,37.75,0,0,0-1,8.26c.1,4.74,2.83,10.81,6.82,13.73a3.19,3.19,0,0,1-.15-.71c-.11-3.83,2.6-4.38,3.88-4.34,4.29.16,3.74,6.48,2.53,9.13,4,.74,7,1.82,11.05.73a38.46,38.46,0,0,0,9.34-4.21c1.5-.88,3-1.81,4.45-2.75.66-.42,2.47-2.12,3.24-1.71,1.64.89-.92,7.09-1.39,8.52-7.63,23.53-27.31,43.06-27.43,68.93-.05,10.89,4.15,20.2,10.6,28,.71-1.24,2.53-4.46,2.76-5.8C230.73,441.25,231,450.09,235.58,451.6ZM384,352.08c2.43,7.11,2.19,16.34-4.11,21.39-5.84,4.68-16.28,7.47-23.25,3.66-6.6-3.6-8.38-12.77-7.6-19.63,1.05-9.16,9.29-15.37,18.15-15.94C374.78,341.06,381.43,344.7,384,352.08Zm-16.57-81c.88-.61,0,.85,0,.83-.33.6-1.73,1.19-2.31,1.56-1.34.87-2.71,1.69-4,2.6-2.41,1.68-4.91,3.71-6.07,6.49a6.67,6.67,0,0,0,.68,6.82c.61.75,2.62,1.57,2.59,2.61,0,1.36-1.38,1.13-2.23.79-4.84-1.94-4.51-8.75-2-12.34C357.16,275.83,362.93,274.17,367.38,271.11Zm-9.68-1.58a8.48,8.48,0,0,1-2.19,1.59,25.59,25.59,0,0,1-4.49,2.2c-3.36,1.3-6.9,2-10.29,3.24s-6.39,3.19-7.84,6.68a9.83,9.83,0,0,0-.58,5.57c.16.9,1.12,3.46-.92,3.11-2.56-.44-1.7-6.62-1.18-8.23a13,13,0,0,1,5.64-7.12c3.35-2,7.42-2.25,11.1-3.21a33.85,33.85,0,0,0,10.9-4.91C358.94,267.69,357.54,269.73,357.7,269.53Zm-55.31,7.91c3.26-7.26,10.33-10.22,17.94-10.33,8.82-.13,18.71,3.5,27.28.34.59-.22.35.46.27.65a6.62,6.62,0,0,1-1.54.62,16.18,16.18,0,0,1-3.23.7,41.86,41.86,0,0,1-7.51,0c-5.21-.32-10.45-1-15.67-.57-8.53.64-15.55,5.2-16.55,14.17-.15,1.3.38,4.59-.4,5.61-1.05,1.38-2,.07-2.15-1A18.35,18.35,0,0,1,302.39,277.44ZM314,381.33c8.93.28,18.79,2.12,26.22,7.35-10.88-5-23.93-6.29-35.78-5.53a62.24,62.24,0,0,0-12.06,1.92C299.05,381.91,306.74,381.1,314,381.33Zm-56-46c7-5.83,17.93-3.35,24.12,2.49,5.83,5.51,6.65,13.62,4,20.91-2.55,7.09-7.84,12.11-15.69,11.32-6.94-.69-14.59-4.71-18-11C248.79,352.09,252.09,340.27,258,335.35Z" transform="translate(-86.89 -129.4)"/><path class="cls-4" d="M365.89,364c2.51-1.22,2.06-4.31,1.34-6.53s-3-4.58-5.4-2.75c-1.85,1.43-2.22,4.35-1.38,6.4S363.57,365.15,365.89,364Z" transform="translate(-86.89 -129.4)"/><path class="cls-3" d="M372.8,302.77c1.08,6.93,4.54,13.47,8.57,19.12a22.37,22.37,0,0,0,11.27,8.39c5.28,1.67,10.37.36,15.22-2,17.23-8.24,27.68-25.06,26.89-44.21-.42-9.89-3.78-19.31-6.86-28.62a144.91,144.91,0,0,1-4.05-14c-.59-2.68-1.06-5.38-1.51-8.08-.43-2.52-1.22-4.88-1.73-7.38-1.24,6.7-.68,13.54-.28,20.28-1.73-6.56-5.41-12.67-5.44-19.61-.84,3.37-.68,6.93-1.62,10.28a52,52,0,0,0-1.85-6c-2.32,4.46-2.1,9.21-2.2,14.09a76,76,0,0,1-1,12.69c-1.33,7.12-4.26,14-9.26,19.35s-11.87,8.77-19,10.75c-1.35.38-3.5.53-4.61,1.45a8.3,8.3,0,0,0-1.83,3.41A20.43,20.43,0,0,0,372.8,302.77Zm35.51,20.53a42.68,42.68,0,0,0,12.92-10.24c7.39-8.81,10.13-20.13,10.42-31.42.72,9.61-1,19.55-6.15,27.79a40.11,40.11,0,0,1-27.78,18.18,11.73,11.73,0,0,1-3.07.16C399.19,327.84,404.4,325.35,408.31,323.3Z" transform="translate(-86.89 -129.4)"/><path class="cls-6" d="M295.26,617.21c-6-8.69-9.38-19.16-11.68-29.36a164.23,164.23,0,0,1-4.09-39.15c.41-18.46,5-38.79,18.27-52.42a46.07,46.07,0,0,1,10.41-8c-4.34-1.41-9-2.41-12.5-4.33a17.18,17.18,0,0,0,2.48,3.95c-4.53-1.26-12.8-2.88-15.14-7.45a8.72,8.72,0,0,1-.39,4.83c-6.36-3.89-12.59-4.29-15.83-12.32-.59,1.67-.18,3.87-.16,5.67-3.52-1-12.89-4-13.86-7.71a8.25,8.25,0,0,0-.7,3.64c-4.53-2.82-12-6.78-14.95-14.2a23.66,23.66,0,0,0-.13,6,34,34,0,0,1-3.84-3.68l-.13.14a58,58,0,0,0-12.82,24.57c-4.94,20.38,3.85,39.95,14.51,57a111.27,111.27,0,0,0,8.21,11.55,61.21,61.21,0,0,0,5.11,5.58c1,1,3.53,3.78,4.72,3.45,1-.27,2.44-1.9,3.35-2.47,1.46-.93,3-1.78,4.54-2.57a36.35,36.35,0,0,1,9.05-3.64c-3.32-12.38-4.72-26.07-1.59-38.66.23-.94.57-3.61,1.34-4.15,1.18-.83.57,1.43.5,2-.34,2.8-.8,5.59-1.08,8.4a74.35,74.35,0,0,0,.26,17.45,69.55,69.55,0,0,0,4.45,17.37c1.5,3.63,5.38,9.37,2.37,13.21-3.86,4.92-13.76.51-18-1.8a75.21,75.21,0,0,1-10.64-7.32,59.74,59.74,0,0,1-10.55-11.34c-3.88,13.28-11.31,27.33-8.68,41.56,2.22,12,9.13,23.4,15.68,33.54,7,10.79,14.79,21,22.16,31.52,1.72,2.45,3.29,5.6,5.78,7.38,1.43,1,1.49.44,2.57-.73.78-.86,1.62-1.67,2.48-2.45A66.15,66.15,0,0,1,289,653.49c1-.55,2-1.09,3-1.58.56-.27,2-.57,2.38-1,.66-.71.88-3,1.22-4,.44-1.31.92-2.61,1.43-3.89a56.79,56.79,0,0,1,8.69-15.3A37.26,37.26,0,0,1,295.26,617.21ZM230.57,475.6c-14.51,25-.78,55.2,15.48,75.5C228.24,532.23,213.91,499.61,230.57,475.6Z" transform="translate(-86.89 -129.4)"/><path class="cls-7" d="M351.73,623.44c5.39-2.68,12.24-7.21,15.87-12,7.63-10,10-23.27,11.22-36.76.55-6.1-6.85-15.83-6.94-21.93-.1-6.34,4.05-10,2.79-16.24-2.33-11.57-6.46-23.24-13.78-32.63a52,52,0,0,0-11.15-10.67,47.57,47.57,0,0,0-7-4.09c-.94-.45-1.89-.85-2.85-1.24-1.13.58-2.28,1.13-3.48,1.61-2.81,1.13-5.47.87-8.37,1.22a6.64,6.64,0,0,0,0-1.33,28.56,28.56,0,0,0-.93-3.08c-.1-.19-.2-.39-.31-.58-1.21,2.6-.43,4.27-5.53,8-.86-2-5.81-6.58-7.3-7.72a1,1,0,0,1-.1.16c.42,1.36,2,5,2.14,5.91a22.88,22.88,0,0,0-7-3.54c-.59.33-1.18.68-1.76,1-8.71,5.4-15.29,13.65-19.49,22.94-5.14,11.37-7.07,24.09-7.33,36.48A154.93,154.93,0,0,0,285,589c2.65,10.7,6.52,21.64,13.58,30.28a42,42,0,0,0,6.08,6.06c1.27,1,1.54,1.5,3.07,1.11s3.1-.72,4.65-1a60.43,60.43,0,0,1,19.93-1c1.84.25,2.86,2.26,4.62,1.64,1.31-.47,2.74,1.4,4.06.92C343.57,626,349.22,624.69,351.73,623.44Z" transform="translate(-86.89 -129.4)"/><path class="cls-7" d="M370.56,464.4c5.57-4.46,9-10.4,13.15-16.1a35.08,35.08,0,0,1,7-7.58c3.23-2.46,4.7-4.62,4.61-8.81-.16-7.79-5.28-14.25-7.72-21.38a19,19,0,0,1-.71-10.42c.68-3.1,1.49-6.18-.58-9-4.27-5.76-12.42-5.52-18.65-3.95-6.51,1.63-12.49,4.84-19,6.55-7.51,2-15.07.76-22.58-.61A150.83,150.83,0,0,0,301.29,391a79.53,79.53,0,0,1-12.24-1,33.59,33.59,0,0,1-10.31-4.07c-6.5-3.58-12.76-8.16-20-10.2-5.52-1.56-14.61-1.07-16.07,5.95-.63,3,.2,6.11-.39,9.15-.68,3.46-2.58,6.48-4.58,9.33-3.85,5.47-9.34,11.25-9.62,18.33-.16,3.95,2.28,6,4.46,9A52.91,52.91,0,0,1,237.8,437c2.86,6.25,5.59,12.76,10.62,17.63a77.49,77.49,0,0,0,8.31,7l.34.24c.7-2.13-.18-4.49-.36-6.76,2.74,2,3.77,6.07,7.07,7.55a8,8,0,0,0,.17-2.12c1.15.77,1.85,1.89,3.06,2.58-.07-1.14-.29-2.32-.26-3.38,3,4.57,9.16,9.07,14.55,10.17a10.08,10.08,0,0,0-.57-3c2.89,1.85,8.1,9,13.55,7.78-.55-2-2.07-3.57-2.59-5.61,3.6,2,5.72,6.75,10.41,7.55a29.58,29.58,0,0,1-3.05-4.6,25.88,25.88,0,0,0,6.78,3.86c-.07-1.06-.43-2.21-.62-3.58-.64-4.64,3.55-4.08,4.29-8,.17-1-.67-2.18-.49-2.94.37-1.53,1.14-.63,1.75-2s1.16-2.51,1.35-1.6,1.07,2.94,1.17,3.55c.31,2-.22,3-1,5.42.63.06,1.47.79,2.06.86-.23,1.11-1.41,3.41-1,4.46s1.8,1.24,2.35,2.07a10.19,10.19,0,0,1,1.1,2.54,5.92,5.92,0,0,0,4.47-2.66,7.87,7.87,0,0,1-1.26,3.63,19.11,19.11,0,0,0,10.92-6.08,33.58,33.58,0,0,1-1.06,5.71c4.92-.13,10.26-4.21,14.07-7.28-.51,1.58-1,3.26-1.33,4.89q1.77-1,3.57-1.86c-.15.42,0,1.07-.14,1.52,4.66-.8,13.31-6.6,15.27-10.26-.23,2.29-.2,4.62-.93,6.49A55.83,55.83,0,0,0,370.56,464.4Zm-15.93-56a45.84,45.84,0,0,1,5.82-7.49,36.77,36.77,0,0,1,7-6.16c1.52-1,4.87-3.34,6.72-2,2.36,1.64,1.27,6.62.75,8.87a10.51,10.51,0,0,1-4.24,6.34c-2.36,1.66-5.15,2.29-7.82,3.24-2.9,1-6.07,3.49-9.15,3.72C350.3,415.08,354.12,409.2,354.63,408.36ZM254.16,386.92c.21-2.24,1.06-6.3,4.13-5.18,2.61.94,5,3.67,6.75,5.75a44.74,44.74,0,0,1,8.82,16.65c.92,3.51-1.61,3.43-4,1.7a67.61,67.61,0,0,0-8.33-5.38C255.94,397.55,253.58,393.16,254.16,386.92Zm99.35,60.85c-12.87,5.22-27.42,8.3-41.34,7-14.46-1.4-29.05-7.39-41.54-14.59a76.34,76.34,0,0,1-16.9-12.71c-3.34-3.45-8.13-8.94-8.63-14-.1-1.08.41-2.66,1.76-1.54.56.47.7,2.09.95,2.77a26.18,26.18,0,0,0,2.65,5.29,44.23,44.23,0,0,0,8.49,9.42c7.7,6.62,16.84,11.56,26.16,15.48,8.13,3.43,16.75,6.32,25.53,7.48,10.11,1.34,20.61-.09,30.4-2.7s19.84-6.71,28.1-12.93a36.79,36.79,0,0,0,9.13-9.45,23.12,23.12,0,0,0,1.63-3c.27-.6.47-1.89,1-2.26,1.51-1,1.81.67,1.61,1.71a12.07,12.07,0,0,1-1.42,3.1C375.51,437.05,364,443.52,353.51,447.77Z" transform="translate(-86.89 -129.4)"/><path class="cls-6" d="M225,588.51c-.55-.65-4-.8-4.78-1a77.09,77.09,0,0,1-9.32-2.72,50.74,50.74,0,0,1-15-8.38,37.8,37.8,0,0,1-13.61-26.92c-.8-11.48,2.52-22.33,6.63-32.88a99.8,99.8,0,0,0,5.4-16.73,66.78,66.78,0,0,0,.72-19.09,154.45,154.45,0,0,0-2.83-17.35h-2.33c.14.6.24,1.1.29,1.3a75.53,75.53,0,0,1,2.6,18c.2,11.23-3.2,21.23-7.19,31.57-3.76,9.75-6.73,19.59-7.32,30.09-.54,9.77,1.21,19.65,7.26,27.58,5.76,7.53,14.09,12.7,22.74,16.31a78.32,78.32,0,0,0,17.28,5.16C225.42,592.53,225.6,589.2,225,588.51Z" transform="translate(-86.89 -129.4)"/><path class="cls-7" d="M167.22,410.69a76.6,76.6,0,0,1,3.63,29.05,1.06,1.06,0,0,1-1.16,1c1.07,5.49.57,11.66,4.47,16,4.11,4.53,10.73,5.52,16.42,6.66a.9.9,0,0,0,.55-.18c8.51-7.72,3-20.16-2-28.28C183.43,425.5,175.52,417.86,167.22,410.69Z" transform="translate(-86.89 -129.4)"/><path class="cls-8" d="M183.74,434.39c1.59,6.37-1.32,15.11,1.55,21.28,2.05,4.41,4.3,6,6.46,5.85,7.48-7.27,2.38-18.71-2.18-26.22a75.9,75.9,0,0,0-10-12.84A87.67,87.67,0,0,1,183.74,434.39Z" transform="translate(-86.89 -129.4)"/><path class="cls-6" d="M395.72,546.43a80.54,80.54,0,0,0,7.23-39.3,61.45,61.45,0,0,0-4.87-20.41,50.84,50.84,0,0,0-4.87-9,41.9,41.9,0,0,0-6.08-6.75l-.61.4c-2.37,1.54-6.12,4-9,5.58a39.63,39.63,0,0,1-3.68,1.75,3,3,0,0,0-1.05-2.44,13.86,13.86,0,0,1-2.39,3.94c-3.22,3.65-8.28,5.55-12.48,7.95h0a13.1,13.1,0,0,0,.36-1.65,23.93,23.93,0,0,0,.26-2.55l0-.59c0-.34,0-.69,0-1v0c0-.35,0-.69,0-1,0-.55.06-1.09.11-1.63-1.51,4.87-6.92,7.84-11.36,9.49h0a8.56,8.56,0,0,0,1.4-4.56,9.83,9.83,0,0,0-.13-1.62c-1.16.63-2.3,1.28-3.43,1.94l-.94.54c-1.21.7-2.41,1.4-3.64,2.05l.9.36a48.63,48.63,0,0,1,6.49,3.36A51.42,51.42,0,0,1,359.57,501l.63.73a61.06,61.06,0,0,1,8.92,14.3,83.33,83.33,0,0,1,5,14V530c.2-5.58-1.31-16.54-.51-17.34,1.21-1.21,2.31,12.72,2,18.54a86.2,86.2,0,0,1-2.06,17.19c-.29,1.15-.59,2.31-.89,3.48,3.11-.08,12.39.12,17.21,4.8A67.87,67.87,0,0,0,395.72,546.43Z" transform="translate(-86.89 -129.4)"/><path class="cls-6" d="M374.07,654.42a41.11,41.11,0,0,0,3.46,2.6c1,.69,1.41,1.05,1.85.78l.15-.1,0,0a5.11,5.11,0,0,0,.64-.78h0c2.56-3.5,6-7.37,10-9.3a4,4,0,0,1,2-.5,80.55,80.55,0,0,1-3.59-13.61A159,159,0,0,1,386,593.75a93.51,93.51,0,0,1,1.5-9.7c1.22-7.16,1.93-14.82.6-22a23.28,23.28,0,0,1-8.87,6.22c0,.61.05,1.23.06,1.84a91.3,91.3,0,0,1-.68,14.78A62.77,62.77,0,0,1,375.22,599a46.26,46.26,0,0,1-7,12.5,42.32,42.32,0,0,1-11.33,9.83,54.18,54.18,0,0,1-14.92,6c9.63,4.6,17.06,13.78,24.76,20.81q1.8,1.63,3.65,3.23c.61.54,1.23,1.06,1.85,1.59S373.44,653.91,374.07,654.42Z" transform="translate(-86.89 -129.4)"/><path class="cls-9" d="M353.73,414.83c3.08-.23,6.25-2.7,9.15-3.72,2.67-.95,5.46-1.58,7.82-3.24a10.51,10.51,0,0,0,4.24-6.34c.52-2.25,1.61-7.23-.75-8.87-1.85-1.29-5.2,1.09-6.72,2a36.77,36.77,0,0,0-7,6.16,45.84,45.84,0,0,0-5.82,7.49C354.12,409.2,350.3,415.08,353.73,414.83Z" transform="translate(-86.89 -129.4)"/><path class="cls-9" d="M274.12,342.1c-5.11-1.56-10.15,3.41-10.73,8.22s2.15,9.92,7.64,9.75a8.81,8.81,0,0,0,10.88-7C282.74,347.9,278.87,343.56,274.12,342.1Zm-4.55,13.25c-5.47-3.33,3.24-13.8,6-7.41C277.09,351.43,273.9,358,269.57,355.35Z" transform="translate(-86.89 -129.4)"/><path class="cls-9" d="M287.32,321.84c-3.5-1.5-7.21-.36-10.55,1-1.17.47-6.79,3.31-3.19,4.17a11.4,11.4,0,0,0,3.49-.14q3-.27,6.05-.29c1.53,0,5.94.73,7-.55C291.4,324.41,288.47,322.33,287.32,321.84Z" transform="translate(-86.89 -129.4)"/><path class="cls-9" d="M245.41,313.11a43.61,43.61,0,0,1-21.35-19.95c-4.89-9.69-5.29-20.69-3.59-31.23-2.7,10.11-2.56,21,1.8,30.57a39.32,39.32,0,0,0,11.38,14.35c3.92,3.11,9.47,6.89,14.65,7.26A12.53,12.53,0,0,1,245.41,313.11Z" transform="translate(-86.89 -129.4)"/><path class="cls-9" d="M261.53,400.46a67.61,67.61,0,0,1,8.33,5.38c2.39,1.73,4.92,1.81,4-1.7A44.74,44.74,0,0,0,265,387.49c-1.72-2.08-4.14-4.81-6.75-5.75-3.07-1.12-3.92,2.94-4.13,5.18C253.58,393.16,255.94,397.55,261.53,400.46Z" transform="translate(-86.89 -129.4)"/><path class="cls-9" d="M253.73,427.42a76.34,76.34,0,0,0,16.9,12.71c12.49,7.2,27.08,13.19,41.54,14.59,13.92,1.35,28.47-1.73,41.34-7,10.47-4.25,22-10.72,27.59-21a12.07,12.07,0,0,0,1.42-3.1c.2-1-.1-2.74-1.61-1.71-.54.37-.74,1.66-1,2.26a23.12,23.12,0,0,1-1.63,3,36.79,36.79,0,0,1-9.13,9.45C360.88,442.9,351,447,341,449.61s-20.29,4-30.4,2.7c-8.78-1.16-17.4-4.05-25.53-7.48-9.32-3.92-18.46-8.86-26.16-15.48a44.23,44.23,0,0,1-8.49-9.42,26.18,26.18,0,0,1-2.65-5.29c-.25-.68-.39-2.3-.95-2.77-1.35-1.12-1.86.46-1.76,1.54C245.6,418.48,250.39,424,253.73,427.42Z" transform="translate(-86.89 -129.4)"/><path class="cls-9" d="M282.13,337.84c-6.19-5.84-17.1-8.32-24.12-2.49-5.92,4.92-9.22,16.74-5.52,23.69,3.38,6.32,11,10.34,18,11,7.85.79,13.14-4.23,15.69-11.32C288.78,351.46,288,343.35,282.13,337.84Zm3.24,17.72a21.71,21.71,0,0,1-4.62,9.53c-.86,1-2.2,2.58-3.56,2.84a29.56,29.56,0,0,1-5,.3c-6.65,0-14.93-4.07-18-10.27-3-6-.58-13.78,3.53-18.66,5.11-6.08,14.28-6.13,20.64-2S287,348.4,285.37,355.56Z" transform="translate(-86.89 -129.4)"/><path class="cls-9" d="M366.74,350.72c-4.18-1.88-10,1.24-12,5.12a9,9,0,0,0,3.32,11.46,12.7,12.7,0,0,0,8.09,1.28,7.44,7.44,0,0,0,5.87-5.12C373.62,358.43,371.74,353,366.74,350.72Zm-.85,13.3c-2.32,1.13-4.59-.8-5.44-2.88s-.47-5,1.38-6.4c2.37-1.83,4.65.49,5.4,2.75S368.4,362.8,365.89,364Z" transform="translate(-86.89 -129.4)"/><path class="cls-9" d="M351.3,330.51c-.51,2.15,3,2.12,4.37,2.4,2.29.46,4.58.91,6.84,1.51.88.23,6.68,2.44,6.35.46-.44-2.68-5.25-5-7.43-6C358.91,327.71,352.26,326.53,351.3,330.51Z" transform="translate(-86.89 -129.4)"/><path class="cls-9" d="M367.14,341.56c-8.86.57-17.1,6.78-18.15,15.94-.78,6.86,1,16,7.6,19.63,7,3.81,17.41,1,23.25-3.66,6.3-5.05,6.54-14.28,4.11-21.39C381.43,344.7,374.78,341.06,367.14,341.56Zm15.32,25.21c-2.36,6.21-9.65,9.3-15.84,9.92a22.66,22.66,0,0,1-10.41-1.29c-.27-.1-.6-.55-.8-.75a14.54,14.54,0,0,1-1.79-2.27,18.8,18.8,0,0,1-2.26-5.37c-1.81-7-.75-15,5.24-19.61s16.22-5.48,21.91.36A19.32,19.32,0,0,1,382.46,366.77Z" transform="translate(-86.89 -129.4)"/><path class="cls-9" d="M355.51,271.12a8.48,8.48,0,0,0,2.19-1.59c-.16.2,1.24-1.84.15-1.08a33.85,33.85,0,0,1-10.9,4.91c-3.68,1-7.75,1.25-11.1,3.21a13,13,0,0,0-5.64,7.12c-.52,1.61-1.38,7.79,1.18,8.23,2,.35,1.08-2.21.92-3.11a9.83,9.83,0,0,1,.58-5.57c1.45-3.49,4.39-5.46,7.84-6.68s6.93-1.94,10.29-3.24A25.59,25.59,0,0,0,355.51,271.12Z" transform="translate(-86.89 -129.4)"/><path class="cls-9" d="M303,288.62c.78-1,.25-4.31.4-5.61,1-9,8-13.53,16.55-14.17,5.22-.4,10.46.25,15.67.57a41.86,41.86,0,0,0,7.51,0,16.18,16.18,0,0,0,3.23-.7,6.62,6.62,0,0,0,1.54-.62c.08-.19.32-.87-.27-.65-8.57,3.16-18.46-.47-27.28-.34-7.61.11-14.68,3.07-17.94,10.33a18.35,18.35,0,0,0-1.56,10.19C301,288.69,301.93,290,303,288.62Z" transform="translate(-86.89 -129.4)"/><path class="cls-9" d="M354,280.47c-2.46,3.59-2.79,10.4,2,12.34.85.34,2.19.57,2.23-.79,0-1-2-1.86-2.59-2.61a6.67,6.67,0,0,1-.68-6.82c1.16-2.78,3.66-4.81,6.07-6.49,1.32-.91,2.69-1.73,4-2.6.58-.37,2-1,2.31-1.56,0,0,.86-1.44,0-.83C362.93,274.17,357.17,275.83,354,280.47Z" transform="translate(-86.89 -129.4)"/><path class="cls-9" d="M397.72,327.61a40.11,40.11,0,0,0,27.78-18.18c5.14-8.24,6.87-18.18,6.15-27.79-.29,11.29-3,22.61-10.42,31.42a42.68,42.68,0,0,1-12.92,10.24c-3.91,2.05-9.12,4.54-13.66,4.47A11.73,11.73,0,0,0,397.72,327.61Z" transform="translate(-86.89 -129.4)"/><path class="cls-9" d="M292.41,385.07a62.24,62.24,0,0,1,12.06-1.92c11.85-.76,24.9.51,35.78,5.53-7.43-5.23-17.29-7.07-26.22-7.35C306.74,381.1,299.05,381.91,292.41,385.07Z" transform="translate(-86.89 -129.4)"/><path class="cls-9" d="M230.57,475.6c-16.66,24-2.33,56.63,15.48,75.5C229.79,530.8,216.06,500.56,230.57,475.6Z" transform="translate(-86.89 -129.4)"/><path class="cls-9" d="M435.94,351.16a24.68,24.68,0,0,0-4.81,1.73,29.18,29.18,0,0,1-7,1.64,22.7,22.7,0,0,1-12-1.84A34.43,34.43,0,0,1,401.86,345c-1.46-1.5-3.46-3.24-4.52-5.05s-.29-4.71-.87-6.92c10.34.88,21.19-6.86,27.81-14.1a46.58,46.58,0,0,0,12.39-30.24c.37-13.45-4.78-25.78-8.48-38.46-3.5-12-7.29-26-4.42-38.5a23.89,23.89,0,0,1,2.88-7.6c.57-.92,3.85-3.39,1.22-3.68-1.72-.19-4.6,1.71-6,2.59a23,23,0,0,0-5.19,4.49c-5.91,6.84-8.16,16.28-8.85,25.09-.91,11.57.49,23.8-4.48,34.65-4.89,10.66-14.75,16.51-25.76,19.29-1.18.29-2.26.81-3.38.53a7.62,7.62,0,0,1-2.9-1.84,8,8,0,0,1-2.73-7c.47-2.63,2.5-4.59,4.19-6.51a15.06,15.06,0,0,0,4.1-8.34c.11-.92.57-3.21-.11-4-1-1.14-1.76.25-2.44.93a15.06,15.06,0,0,1-6.55,3.72c-4.93,1.41-10.37,1-15.4.38-13.13-1.55-25.78-5.86-39.08-6.34-10.29-.38-24.51,2-29.35,12.59a15.79,15.79,0,0,0-1.22,3.92c-.22,1.24,0,.84-1,1.36a15,15,0,0,1-2.53.57c-1.12.3-3,1.54-4,1.49-.81,0-2.54-1.35-3.35-1.73a41.92,41.92,0,0,1-13.88-9.89c-8.11-9.17-8.85-21.41-7.25-33,1.46-10.48,4-21.08,1.94-31.67a28.91,28.91,0,0,0-6.8-14.05,21.72,21.72,0,0,0-3-2.72c-.76-.56-2.53-2-3.5-2.1-2.7-.17.24,3.1.69,4.26,4.06,10.58-.86,23.81-5,33.58-4.6,10.91-11.19,20.75-16,31.52-4.58,10.21-6.59,21.26-4.25,32.32a48.16,48.16,0,0,0,15.87,26.56c4.22,3.58,9.23,7.08,14.84,7.82a14,14,0,0,0-1.24,4.2c-.21,1.32.24,1.55-1,1.85a7.87,7.87,0,0,1-1.61,0,38.34,38.34,0,0,1-8.66-1.17,31.4,31.4,0,0,1-14.34-8.19c-3.31-3.25-7.37-8-12.55-7.58a6.35,6.35,0,0,0-2.1.91.52.52,0,0,0-.44,0c-2.32,1.07-3,3.7-3.5,6a41.22,41.22,0,0,0-1.46,10.23,17.88,17.88,0,0,0,.33,3,10.44,10.44,0,0,0-5.25,2.8c-7.33,7.25-1,20,9.13,19a14.07,14.07,0,0,0,8.29-4c.42-.41,1.61-2.23,1.79-2.24s1.18.55,1.59.7a16.85,16.85,0,0,0,5.39,1.09c7,.27,14.26-4.08,19.9-7.9C232.2,363.42,210.12,385,210.47,413a42.3,42.3,0,0,0,1.95,12.27c-.11,8.43,3,17.9,8.94,24.31a12.91,12.91,0,0,0,1.1-3.35,83,83,0,0,0,9,14.44,59.72,59.72,0,0,0-6.4,8.53,58.15,58.15,0,0,0-4.34,53.13,148.23,148.23,0,0,0,7.55,15.78q2,3.63,4.24,7.13a30,30,0,0,1,2.57,3.82c.47,1.1.53.14.06,1.49a18.79,18.79,0,0,1-1,1.92,99.14,99.14,0,0,0-5.7,16.2c-1.66,5.77-3.41,11.89-3.45,17.94-16.75-3.19-34.4-11.24-39.43-29-2.72-9.63-1.57-20.11,1.22-29.59,3-10.32,8.17-19.88,9.75-30.63,1.63-11.18.37-22.66-2.67-33.51,7.25-7.9,3.26-19.54-1.48-27.92-6.61-11.7-16.53-20.78-26.71-29.36-.72-.61-2.2-.05-1.77,1a73.69,73.69,0,0,1,5,30,2,2,0,0,0-.11-.2c-.6-1-2.4-.35-2,.83,2.48,6.74.74,14.74,6.07,20.33,4.06,4.26,10.25,5.79,16,6.52,1.88,8.86,3.22,17.82,1.94,26.87-1.37,9.65-5.57,18.5-8.88,27.58-5.83,16-9.21,36.68.94,51.72,4.74,7,11.7,12.3,19.17,16.15a84.68,84.68,0,0,0,13.19,5.43q3.54,1.13,7.19,1.91c.89.19,2.4.13,3.18.59s1.06,2.52,1.41,3.66c5.44,18,17.22,33.68,28.11,48.71,2.74,3.77,5.48,7.55,8.15,11.37,2.25,3.22,4.35,7.57,8,9.45,4,2.07,9.28,1,13.55.85,2.29-.07,12.74,1.72,12.48-1.73-.08-1-.74-2.26-.94-3.33a20.66,20.66,0,0,1-.35-3.42,30.29,30.29,0,0,1,.68-6.91,59,59,0,0,1,4.63-13.29c1-2.15,2.15-4.26,3.32-6.33,1-1.83,2.18-4.89,4.07-5.64,4.33-1.73,10.06-2.1,14.68-2.33,9.13-.46,17.35,1.71,24.54,7.45,7.38,5.9,14,12.88,21,19.23,3,2.73,6.15,5.51,9.88,7.21,4.53,2.07,9,1.24,13.79.86,2-.16,9.22.19,8.16-3.48-.54-1.86-2.65-4.21-3.78-5.78-.17-.24-.35-.47-.52-.7-2.67-5-4.15-10.61-5.29-16.09a154.09,154.09,0,0,1-2.79-21.82,158.23,158.23,0,0,1-.22-18.35,74.67,74.67,0,0,1,1.33-9.42c1.5-8.27,2.35-17.16.48-25.44a58.31,58.31,0,0,0,5.34-8.1,81.56,81.56,0,0,0,10-39.63A65.9,65.9,0,0,0,401,488.49a57.1,57.1,0,0,0-5.41-10.87,42.73,42.73,0,0,0-6.72-7.79,14.75,14.75,0,0,0,4.6-4.7,3.59,3.59,0,0,1,.34,2.41c7.48-4.89,11.66-11.17,13.3-20.34,18.67-27.63-2.71-60-7.56-88.34,3.84,7.31,11.86,14.14,19.6,17,7.28,2.66,17.44-1.26,20.22-8.7C440.85,363.19,443.69,350,435.94,351.16ZM174.16,456.74c-3.9-4.3-3.4-10.47-4.47-16a1.06,1.06,0,0,0,1.16-1,76.6,76.6,0,0,0-3.63-29.05c8.3,7.17,16.21,14.81,21.95,24.25,4.94,8.12,10.47,20.56,2,28.28a.9.9,0,0,1-.55.18C184.89,462.26,178.27,461.27,174.16,456.74ZM208.31,588.3c-8.65-3.61-17-8.78-22.74-16.31-6-7.93-7.8-17.81-7.26-27.58.59-10.5,3.56-20.34,7.32-30.09,4-10.34,7.39-20.34,7.19-31.57a75.9,75.9,0,0,0-2.46-17.48,4.81,4.81,0,0,0,2.22-.26,144.9,144.9,0,0,1,2.51,15.79,66.78,66.78,0,0,1-.72,19.09,99.8,99.8,0,0,1-5.4,16.73c-4.11,10.55-7.43,21.4-6.63,32.88A37.8,37.8,0,0,0,196,576.42a50.74,50.74,0,0,0,15,8.38,77.09,77.09,0,0,0,9.32,2.72c.81.19,4.23.34,4.78,1s.42,4,.59,5A78.32,78.32,0,0,1,208.31,588.3Zm167-299c1.11-.92,3.26-1.07,4.61-1.45,7.11-2,13.88-5.31,19-10.75s7.93-12.23,9.26-19.35a76,76,0,0,0,1-12.69c.1-4.88-.12-9.63,2.2-14.09a52,52,0,0,1,1.85,6c.94-3.35.78-6.91,1.62-10.28,0,6.94,3.71,13.05,5.44,19.61-.4-6.74-1-13.58.29-20.28.5,2.5,1.29,4.86,1.72,7.38.45,2.7.92,5.4,1.51,8.08a144.91,144.91,0,0,0,4.05,14c3.08,9.31,6.44,18.73,6.86,28.62.79,19.15-9.66,36-26.89,44.21-4.85,2.32-9.94,3.63-15.22,2a22.37,22.37,0,0,1-11.27-8.39c-4-5.65-7.49-12.19-8.57-19.12a20.43,20.43,0,0,1,.71-10A8.3,8.3,0,0,1,375.34,289.33ZM225.62,303.11a45.8,45.8,0,0,1-10-27.53c-.19-11.11,4.16-21.29,9.32-30.9,2.9-5.39,6-10.68,8.65-16.2q2.16-4.53,4-9.2c1.3-3.36,2.69-6.61,4.05-9.94,0,6.82-1.83,13.43-3.48,20,2.92-6.14,7.66-11.45,9-18.27.2,3.47-.62,6.94-.31,10.4a49,49,0,0,1,2.93-5.55c2.24,7.46-1,15.81-1.52,23.38-.58,7.9.4,15.84,4.39,22.8a38.19,38.19,0,0,0,15,14.24c2.55,1.4,6.28,2,7.36,4.95,1.35,3.69.76,7.8-.46,11.44-3.28,9.77-11.53,20.72-21.82,23.63C241.93,319.39,231.94,311,225.62,303.11Zm-25.41,29.51a17.94,17.94,0,0,0,6.4,8.06c-2.06,2.56-8.39,4.15-10.12-.22C195.15,337.06,197.15,333.92,200.21,332.62Zm11,10.68a11.46,11.46,0,0,1-12.32,4.86c-5.84-1.63-8.39-8.63-5.78-13.92,1.36-2.75,3.44-3.64,6.09-4.48.16.6.35,1.19.57,1.78a6.76,6.76,0,0,0-4.43,3.84,7.09,7.09,0,0,0,.67,7.2c1.72,2.36,5.09,2.65,7.69,1.76a7.77,7.77,0,0,0,3.87-2.74c1-1.34.88-2.55,1-4.11,0-.35-.15-1.9.84-2.35a2.33,2.33,0,0,1,3.06,1.22C213.58,338.47,212.41,341.5,211.22,343.3ZM297.06,643c-.51,1.28-1,2.58-1.43,3.89-.34,1-.56,3.29-1.22,4-.42.46-1.82.76-2.38,1-1,.49-2,1-3,1.58a66.15,66.15,0,0,0-12.25,8.69c-.86.78-1.7,1.59-2.48,2.45-1.08,1.17-1.14,1.75-2.57.73-2.49-1.78-4.06-4.93-5.78-7.38-7.37-10.52-15.19-20.73-22.16-31.52-6.55-10.14-13.46-21.51-15.68-33.54-2.63-14.23,4.8-28.28,8.68-41.56a59.74,59.74,0,0,0,10.55,11.34A75.21,75.21,0,0,0,257.93,570c4.25,2.31,14.15,6.72,18,1.8,3-3.84-.87-9.58-2.37-13.21a69.55,69.55,0,0,1-4.45-17.37,74.35,74.35,0,0,1-.26-17.45c.28-2.81.74-5.6,1.08-8.4.07-.55.68-2.81-.5-2-.77.54-1.11,3.21-1.34,4.15-3.13,12.59-1.73,26.28,1.59,38.66a36.35,36.35,0,0,0-9.05,3.64c-1.55.79-3.08,1.64-4.54,2.57-.91.57-2.37,2.2-3.35,2.47-1.19.33-3.7-2.48-4.72-3.45a61.21,61.21,0,0,1-5.11-5.58,111.27,111.27,0,0,1-8.21-11.55c-10.66-17-19.45-36.61-14.51-57A58,58,0,0,1,233,462.76l.13-.14A34,34,0,0,0,237,466.3a23.66,23.66,0,0,1,.13-6c2.91,7.42,10.42,11.38,14.95,14.2a8.25,8.25,0,0,1,.7-3.64c1,3.7,10.34,6.7,13.86,7.71,0-1.8-.43-4,.16-5.67,3.24,8,9.47,8.43,15.83,12.32a8.72,8.72,0,0,0,.39-4.83c2.34,4.57,10.61,6.19,15.14,7.45a17.18,17.18,0,0,1-2.48-3.95c3.48,1.92,8.16,2.92,12.5,4.33a46.07,46.07,0,0,0-10.41,8c-13.25,13.63-17.86,34-18.27,52.42a164.23,164.23,0,0,0,4.09,39.15c2.3,10.2,5.71,20.67,11.68,29.36a37.26,37.26,0,0,0,10.49,10.48A56.79,56.79,0,0,0,297.06,643ZM242.68,381.67c1.46-7,10.55-7.51,16.07-5.95,7.23,2,13.49,6.62,20,10.2A33.59,33.59,0,0,0,289.05,390a79.53,79.53,0,0,0,12.24,1,150.83,150.83,0,0,1,24.83,2.17c7.51,1.37,15.07,2.59,22.58.61,6.48-1.71,12.46-4.92,19-6.55,6.23-1.57,14.38-1.81,18.65,3.95,2.07,2.8,1.26,5.88.58,9a19,19,0,0,0,.71,10.42c2.44,7.13,7.56,13.59,7.72,21.38.09,4.19-1.38,6.35-4.61,8.81a35.08,35.08,0,0,0-7,7.58c-4.12,5.7-7.58,11.64-13.15,16.1a55.83,55.83,0,0,1-10.24,6.39c.73-1.87.7-4.2.93-6.49-2,3.66-10.61,9.46-15.27,10.26.12-.45,0-1.1.14-1.52q-1.8.9-3.57,1.86c.35-1.63.82-3.31,1.33-4.89-3.81,3.07-9.15,7.15-14.07,7.28a33.58,33.58,0,0,0,1.06-5.71A19.11,19.11,0,0,1,320,477.66a7.87,7.87,0,0,0,1.26-3.63,5.92,5.92,0,0,1-4.47,2.66,10.19,10.19,0,0,0-1.1-2.54c-.55-.83-1.95-1-2.35-2.07s.78-3.35,1-4.46c-.59-.07-1.43-.8-2.06-.86.82-2.45,1.35-3.41,1-5.42-.1-.61-1-2.73-1.17-3.55s-.77.27-1.35,1.6-1.38.49-1.75,2c-.18.76.66,2,.49,2.94-.74,4-4.93,3.4-4.29,8,.19,1.37.55,2.52.62,3.58a25.88,25.88,0,0,1-6.78-3.86,29.58,29.58,0,0,0,3.05,4.6c-4.69-.8-6.81-5.5-10.41-7.55.52,2,2,3.59,2.59,5.61-5.45,1.19-10.66-5.93-13.55-7.78a10.08,10.08,0,0,1,.57,3c-5.39-1.1-11.58-5.6-14.55-10.17,0,1.06.19,2.24.26,3.38-1.21-.69-1.91-1.81-3.06-2.58a8,8,0,0,1-.17,2.12c-3.3-1.48-4.33-5.53-7.07-7.55.18,2.27,1.06,4.63.36,6.76l-.34-.24a77.49,77.49,0,0,1-8.31-7c-5-4.87-7.76-11.38-10.62-17.63a52.91,52.91,0,0,0-5.25-9.53c-2.18-3-4.62-5-4.46-9,.28-7.08,5.77-12.86,9.62-18.33,2-2.85,3.9-5.87,4.58-9.33C242.88,387.78,242.05,384.68,242.68,381.67Zm89.58,242.71a60.43,60.43,0,0,0-19.93,1c-1.55.3-3.11.63-4.65,1s-1.8-.1-3.07-1.11a42,42,0,0,1-6.08-6.06C291.47,610.6,287.6,599.66,285,589a154.93,154.93,0,0,1-4.49-40c.26-12.39,2.19-25.11,7.33-36.48,4.2-9.29,10.78-17.54,19.49-22.94.58-.36,1.17-.71,1.76-1a22.88,22.88,0,0,1,7,3.54c-.16-.88-1.72-4.55-2.14-5.91a1,1,0,0,0,.1-.16c1.49,1.14,6.44,5.76,7.3,7.72,5.1-3.74,4.32-5.41,5.53-8,.11.19.21.39.31.58a28.56,28.56,0,0,1,.93,3.08,6.64,6.64,0,0,1,0,1.33c2.9-.35,5.56-.09,8.37-1.22,1.2-.48,2.35-1,3.48-1.61,1,.39,1.91.79,2.85,1.24a47.57,47.57,0,0,1,7,4.09,52,52,0,0,1,11.15,10.67C366.41,511,371.66,523.48,374,533a86.27,86.27,0,0,1-2.22,14.34c-1.16,4.72-2.54,9.47-2.88,14.33-.13,1.79-.19,4,.81,5.54,1.23,2,3.79,2.25,5.88,2a18.44,18.44,0,0,0,2.52-.53,97.4,97.4,0,0,1-.39,14.29,64.81,64.81,0,0,1-3,14,46.19,46.19,0,0,1-6.37,12.44,40.78,40.78,0,0,1-10.5,10,51.3,51.3,0,0,1-15.45,6.64c-.74.19-1.48.37-2.23.53-.72-.29-1.45-.56-2.2-.79A35.51,35.51,0,0,0,332.26,624.38Zm55.28-40.33a93.51,93.51,0,0,0-1.5,9.7,159,159,0,0,0,2.59,39.74,80.55,80.55,0,0,0,3.59,13.61,4,4,0,0,0-2,.5c-4,1.93-7.44,5.8-10,9.3-1.05,1.45-1.09,1.16-2.66.12a41.11,41.11,0,0,1-3.46-2.6q-3.76-3.07-7.37-6.37c-7.7-7-15.13-16.21-24.76-20.81a54.18,54.18,0,0,0,14.92-6,42.32,42.32,0,0,0,11.33-9.83,46.26,46.26,0,0,0,7-12.5,62.77,62.77,0,0,0,3.43-14.09,91.3,91.3,0,0,0,.68-14.78c0-.61,0-1.23-.06-1.84a23.28,23.28,0,0,0,8.87-6.22C389.47,569.23,388.76,576.89,387.54,584.05Zm5.67-106.3a50.84,50.84,0,0,1,4.87,9A61.45,61.45,0,0,1,403,507.13a80.54,80.54,0,0,1-7.23,39.3,67.87,67.87,0,0,1-5.78,10.25c-4.82-4.68-14.1-4.88-17.21-4.8.3-1.17.6-2.33.89-3.48a86.2,86.2,0,0,0,2.06-17.19c.28-5.82-.82-19.75-2-18.54-.8.8.71,11.76.51,17.34v.06c-2.81-10.74-7.92-21.45-14.59-29A51.42,51.42,0,0,0,348,491.22a48.63,48.63,0,0,0-6.49-3.36l-.9-.36c2.71-1.44,5.29-3.07,8-4.53a8.59,8.59,0,0,1-1.27,6.18c4.44-1.65,9.85-4.62,11.36-9.49-.27,2.83-.05,5.77-.85,8.52,4.2-2.4,9.26-4.3,12.48-7.95a13.86,13.86,0,0,0,2.39-3.94,3,3,0,0,1,1.05,2.44,39.63,39.63,0,0,0,3.68-1.75c2.92-1.58,6.67-4,9-5.58l.61-.4A41.9,41.9,0,0,1,393.21,477.75ZM438.6,359.81c-.57,6-1.86,10.55-7.68,13.2-5.43,2.47-10.51,1.81-15.51-1.32S405,364.7,402,359.36a34,34,0,0,1-3.32-7.77c-.19-.76,0-2.21-1.34-1.74-1,.37-.45,3.13-.41,4a84.6,84.6,0,0,0,3,17.13c5.77,21.3,18.06,44.15,9.73,66.51a41.63,41.63,0,0,1-2.91,6.18c-2.42,3.48-7.88,10.84-14,14.62-.51-2-.48-4.18-.79-6.25-1.55,3.74-4.39,7.27-6.91,10.42a12.1,12.1,0,0,0-.12-3.69c-2.29,7.76-9.06,10.86-13.88,12.48a11.8,11.8,0,0,0,1.33-6c.5-.41,1-.82,1.48-1.25,4.55-4.08,7.7-9.41,11.22-14.34a39,39,0,0,1,5.6-6.56c1.89-1.68,4.18-3,5.4-5.28,2.63-5,.53-11.54-1.53-16.33-2.26-5.26-5.82-10.52-6.25-16.36s3.43-11-1.21-16.06c-7.63-8.36-21-3.46-29.81-.27C351,391,345,393.42,338.31,393s-13.41-2.14-20.13-3c-12.82-1.63-26.49,1.14-38.26-5.3-9.21-5.05-20.61-14.84-31.87-10.73-4.64,1.7-7.49,5.38-7.45,10.34,0,2.61.22,5.25-.5,7.8-.86,3-2.85,5.68-4.66,8.2-3.46,4.79-7.53,9.68-8.93,15.56a11,11,0,0,0,.57,7.54c1.39,2.73,4,4.79,5.63,7.45,3.63,6,5.62,12.93,9.42,18.89A45,45,0,0,0,252,460.29c-4.39-2.26-7.45-4.06-10.08-8.45a12.76,12.76,0,0,0,.3,4.15c-3.55-2.81-3.74-3.45-6.23-8.4a10.46,10.46,0,0,0-.36,4c-4.63-1.51-4.85-10.35-9.54-17.26-.23,1.34-2,4.56-2.76,5.8-6.45-7.84-10.65-17.15-10.6-28,.12-25.87,19.8-45.4,27.43-68.93.47-1.43,3-7.63,1.39-8.52-.77-.41-2.58,1.29-3.24,1.71-1.47.94-2.95,1.87-4.45,2.75a38.46,38.46,0,0,1-9.34,4.21c-4.06,1.09-7.08,0-11.05-.73,1.21-2.65,1.76-9-2.53-9.13-1.28,0-4,.51-3.88,4.34a3.19,3.19,0,0,0,.15.71c-4-2.92-6.72-9-6.82-13.73a37.75,37.75,0,0,1,1-8.26,16.19,16.19,0,0,1,2.08-5.93c.37-.06,1.52-.82,1.91-.91a5.61,5.61,0,0,1,1.35-.12,8.66,8.66,0,0,1,4,1.37c4.86,2.92,7.79,8.14,12.6,11.17a34.24,34.24,0,0,0,16.1,4.89c2,.12,5.65.88,6.61-1.1.47-1,.29-2.15.46-3.23.09-.56.2-1.12.34-1.66s.25-.86.4-1.28c0-.71.3-.93,1-.65,1.23-.38,2.77-.25,4.06-.56a23.15,23.15,0,0,0,3.8-1.25,25.73,25.73,0,0,0,7.36-4.77,49.68,49.68,0,0,0,11.35-15c2.37-5,4.48-12.47,1.73-17.78a42.29,42.29,0,0,1,5.94-1.89,16.31,16.31,0,0,0,1.1,5.7c.44,1.11,1.71,4.28,3,4.57,2.09.47.92-1.9.46-2.6a13.66,13.66,0,0,1-2.08-4.87c-1.51-7.55,3.19-13.79,9.71-17,7.51-3.66,16.12-3.66,24.25-2.84,9.68,1,19.08,3.51,28.66,5.14,8.53,1.46,20.57,3.24,27.47-3.45a13,13,0,0,1-3.48,7.84c-1.81,2.07-3.91,4-4.75,6.73-1.51,4.9,1.91,9.9,6.28,11.92-3.18,4.27-2.75,10.74-1.7,15.66a50.74,50.74,0,0,0,7.78,17.54,25.45,25.45,0,0,0,9.52,8.55c1.52.79,3.3,1.06,4.78,1.82,1,.53.74-.13,1.15,1a8.12,8.12,0,0,1,.13,2.31c0,1.31-.37,2.84,0,4.09.73,2.41,3.73,5.17,5.42,6.91,8.84,9.09,21.25,12.68,33.18,7.47,1.51-.66,3.72-2,4.94-.23C439.36,355.57,438.76,358.14,438.6,359.81Z" transform="translate(-86.89 -129.4)"/><path class="cls-10" d="M283.66,283.79l-.12-.3a16.31,16.31,0,0,1-1.1-5.7,42.29,42.29,0,0,0-5.94,1.89c1.87,3.61,1.49,8.21.31,12.36C279.29,290.18,280.55,285.09,283.66,283.79Z" transform="translate(-86.89 -129.4)"/><path class="cls-10" d="M338.54,277.48a11.37,11.37,0,0,0-5.47,5.35c5.74-4.07,15-.2,20.65-1.95.08-.14.17-.28.26-.41a17.86,17.86,0,0,1,6.1-5.19c-7.82,1.33-16.16,1-23.55,4.12A17.51,17.51,0,0,1,338.54,277.48Z" transform="translate(-86.89 -129.4)"/><path class="cls-8" d="M247,213.57c-1,14.69-8.65,34.31-6.85,49.6,2.22,18.85,20,28,34.36,29.55,1.22-3.64,1.81-7.75.46-11.44-1.08-2.93-4.81-3.55-7.36-4.95a38.19,38.19,0,0,1-15-14.24c-4-7-5-14.9-4.39-22.8.56-7.57,3.76-15.92,1.52-23.38a49,49,0,0,0-2.93,5.55,57.76,57.76,0,0,1,.31-7.88Z" transform="translate(-86.89 -129.4)"/><path class="cls-8" d="M413.26,237a52,52,0,0,0-1.85-6c-2.32,4.46-2.1,9.21-2.2,14.09a76,76,0,0,1-1,12.69c-1.33,7.12-4.26,14-9.26,19.35s-11.87,8.77-19,10.75c-1.35.38-3.5.53-4.61,1.45a8.3,8.3,0,0,0-1.83,3.41,17.33,17.33,0,0,0-.73,2.81,4.71,4.71,0,0,0,1.35,1.66c1.84,1.48,7.27,2.23,9.35,2,5.36-.5,11.86-1.18,18.23-6.17,7.58-5.94,11.14-14.06,12-24.79.5-6.72-.63-20.91-.27-31.76C413.35,236.68,413.31,236.84,413.26,237Z" transform="translate(-86.89 -129.4)"/><path class="cls-10" d="M344.26,272c-11.22,3.82-24.71-4.53-35.6,1.17l1-1a14.43,14.43,0,0,0-4.76,5.42c8.06-4.12,23,.19,30.64-1a6,6,0,0,0-.87.81,12.9,12.9,0,0,1,1.15-.78,21.48,21.48,0,0,1,6.43-2.2A10.71,10.71,0,0,0,344.26,272Z" transform="translate(-86.89 -129.4)"/><path class="cls-10" d="M285,275.05a13.77,13.77,0,0,0,0,5.54,12.5,12.5,0,0,0,.64,2.13c2-1.49,3-3.68,5.31-5.78,4.46-4,10.8-3.58,15.91-5.89a13,13,0,0,0-3.47,4.57A17,17,0,0,1,313.93,268q1.51-1.53,3-3.12C307.55,268.63,291.15,265.38,285,275.05Z" transform="translate(-86.89 -129.4)"/><path class="cls-10" d="M366.48,279.72a31.46,31.46,0,0,0-8.9,1.43c.6-1.34,1.4-2.66,2.06-4a13.89,13.89,0,0,0-4.65,5.45,7.66,7.66,0,0,0-.56,3.94c3.69-2.49,10.55-2.48,14.17.31,2.43,2.82,3.33,2.14,3.91,3q.28-.47.6-.9C369.54,287.31,366.6,283.67,366.48,279.72Z" transform="translate(-86.89 -129.4)"/><path class="cls-10" d="M215.62,324.19c2,4,5.88,6.49,10.56,7.36,4.52.84,13.4-.9,15.85-4.34-1,0-1.94-.18-2.68-.22a34.35,34.35,0,0,1-16.1-4.88c-3.33-2.1-5.76-5.25-8.55-8C213.62,316.9,214.62,322.15,215.62,324.19Z" transform="translate(-86.89 -129.4)"/><path class="cls-10" d="M407,352.31c3.93,6,11.5,12.63,17,13.43,5.95.87,11.09-5.92,8.56-10.89l-.12-.2A27.93,27.93,0,0,1,407,352.31Z" transform="translate(-86.89 -129.4)"/><path class="cls-5" d="M366.48,279.72a8.22,8.22,0,0,1,.35-2.67c.84-2.71,2.94-4.66,4.75-6.73a13,13,0,0,0,3.48-7.84c-6.9,6.69-18.94,4.91-27.47,3.45-9.58-1.63-19-4.16-28.66-5.14-8.13-.82-16.74-.82-24.25,2.84C289.84,266,286,270,285,275.05c6.18-9.67,22.58-6.42,31.95-10.21q-1.47,1.59-3,3.12a26.41,26.41,0,0,1,6.4-.85c8.82-.13,18.71,3.5,27.28.34.59-.22.35.46.27.65a6.62,6.62,0,0,1-1.54.62,16.18,16.18,0,0,1-3.23.7,41.86,41.86,0,0,1-7.51,0c-5.21-.32-10.45-1-15.67-.57a20.81,20.81,0,0,0-10.24,3.33l-1,1c10.89-5.7,24.38,2.65,35.6-1.17a10.71,10.71,0,0,1-2,2.36c1.58-.33,3.16-.62,4.67-1a33.85,33.85,0,0,0,10.9-4.91c1.09-.76-.31,1.28-.15,1.08a8.48,8.48,0,0,1-2.19,1.59,25.59,25.59,0,0,1-4.49,2.2c-3.36,1.3-6.9,2-10.29,3.24a19.41,19.41,0,0,0-2.19.92,17.51,17.51,0,0,0-2,1.92c7.39-3.11,15.73-2.79,23.55-4.12,2.43-1.41,5-2.61,7.3-4.17.88-.61,0,.85,0,.83-.33.6-1.73,1.19-2.31,1.56-1.34.87-2.71,1.69-4,2.6-.48.33-.95.68-1.42,1-.66,1.35-1.46,2.67-2.06,4A31.46,31.46,0,0,1,366.48,279.72Z" transform="translate(-86.89 -129.4)"/><path class="cls-8" d="M288.68,395.05c10.89,5,23.54,5.79,35.46,5.77,7.21,0,18.93,1.44,25.61-1.64,4.13-1.9,14.18-10.55,22.46-12.82a32,32,0,0,0-4.54.82c-6.51,1.63-12.49,4.84-19,6.55-7.51,2-15.07.76-22.58-.61A150.83,150.83,0,0,0,301.29,391a79.53,79.53,0,0,1-12.24-1,33.59,33.59,0,0,1-10.31-4.07l-1.78-1C280.84,388.44,283.87,392.85,288.68,395.05Z" transform="translate(-86.89 -129.4)"/><path class="cls-10" d="M285.36,384.39a28.81,28.81,0,0,1-10-2.42c1.57,1,3.1,1.9,4.57,2.71,11.77,6.44,25.44,3.67,38.26,5.3,6.72.86,13.36,2.55,20.13,3,6.2.41,11.85-1.62,17.56-3.7-2.92-.25-5.3-1.71-8.22-4.49-7.17-6.81-6.81-18.46-9.42-27.48-.82-2.82-1.46-7.58-4-10.81a4.71,4.71,0,0,0-8.26,2c-2.1,9.33-4.13,17.5-12.54,24.38-5,4.1-11.54,6.14-17.33,8.78C292.61,383.22,289.52,384.54,285.36,384.39ZM314,381.33c8.93.28,18.79,2.12,26.22,7.35-10.88-5-23.93-6.29-35.78-5.53a62.24,62.24,0,0,0-12.06,1.92C299.05,381.91,306.74,381.1,314,381.33Z" transform="translate(-86.89 -129.4)"/><path class="cls-10" d="M266.37,534.19c-1.08-7.53-4.63-27.34-7.71-27.34-6.81,0-9.07,21.72-6.75,35.26,1.19,6.91,3.68,12.92,9.68,17.15l.09.06a32.89,32.89,0,0,1,8-3.1A93.79,93.79,0,0,1,266.37,534.19Z" transform="translate(-86.89 -129.4)"/><path class="cls-11" d="M215.64,275.58a45.8,45.8,0,0,0,10,27.53c6.32,7.93,16.31,16.28,27.07,13.24a23.67,23.67,0,0,0,5.95-2.67c-23.52-2.14-36.52-27.22-34.88-48.84,1.41-18.73,13.81-34.47,17.72-52.37-.42.07-.84.15-1.25.24-.9,2.17-1.8,4.35-2.66,6.57q-1.8,4.66-4,9.2c-2.65,5.52-5.75,10.81-8.65,16.2C219.8,254.29,215.45,264.47,215.64,275.58Zm4.83-13.65c-1.7,10.54-1.3,21.54,3.59,31.23a43.61,43.61,0,0,0,21.35,19.95,12.53,12.53,0,0,0,2.89,1c-5.18-.37-10.73-4.15-14.65-7.26a39.32,39.32,0,0,1-11.38-14.35C217.91,282.89,217.77,272,220.47,261.93Z" transform="translate(-86.89 -129.4)"/><path class="cls-11" d="M431.12,265.36c-1.65-5.9-3.52-11.74-4.9-17.71-.75-3.25-1.37-6.54-1.86-9.84-.35-2.36-.75-4.67-1.16-7-.38-.18-.77-.35-1.16-.51-.1,18.33,8.56,36.39,5.85,55-3.13,21.45-21.29,43.09-44.71,40a23.09,23.09,0,0,0,5.22,3.9c9.84,5.32,21.41-.64,29.31-7a45.7,45.7,0,0,0,15.75-24.69C436.07,286.74,434.06,275.85,431.12,265.36Z" transform="translate(-86.89 -129.4)"/><path class="cls-11" d="M252.26,318.51c-1.29.31-2.83.18-4.06.56-.74-.28-1.09-.06-1,.65-.15.42-.28.85-.4,1.28s-.25,1.1-.34,1.66c-.11.72-.07,1.48-.17,2.19a11.54,11.54,0,0,0,2.09-.68c4.16-1.8,7.57-4.14,9.32-7.66-.52.27-1.05.52-1.6.75A23.15,23.15,0,0,1,252.26,318.51Z" transform="translate(-86.89 -129.4)"/><path class="cls-11" d="M240.29,334.91l-.14-.28a12.13,12.13,0,0,0-.83.94C239.63,335.34,240,335.1,240.29,334.91Z" transform="translate(-86.89 -129.4)"/><path class="cls-11" d="M226,434.34c4.69,6.91,4.91,15.75,9.54,17.26a10.46,10.46,0,0,1,.36-4c2.49,5,2.68,5.59,6.23,8.4a12.76,12.76,0,0,1-.3-4.15c2.63,4.39,5.69,6.19,10.08,8.45a45,45,0,0,1-9.82-10.56c-3.8-6-5.79-12.85-9.42-18.89-1.6-2.66-4.24-4.72-5.63-7.45a11,11,0,0,1-.57-7.54c1.4-5.88,5.47-10.77,8.93-15.56,1.81-2.52,3.8-5.18,4.66-8.2.72-2.55.51-5.19.5-7.8a10.47,10.47,0,0,1,2-6.38c1.16-4.57,2.79-9,2.92-13.93.21-7.85-.79-18.22-3.74-25.85a52.64,52.64,0,0,1-1.63,5c-7.63,23.53-27.31,43.06-27.43,68.93-.05,10.89,4.15,20.2,10.6,28C224,438.9,225.81,435.68,226,434.34Z" transform="translate(-86.89 -129.4)"/><path class="cls-11" d="M242.92,555.87a61.21,61.21,0,0,0,5.11,5.58c.21.2.48.47.79.79a32.08,32.08,0,0,1,2.5,2.19,2,2,0,0,0,1.43.47c.86-.24,2.1-1.52,3-2.22-5.47-7.28-11.83-13.47-15.12-20.88-3.43-7.74-9.16-28.89-9.15-37.46,0-14.79,6.49-26,13.82-34.16-3.28-2.42-6.5-5.56-8.18-9.84a23.66,23.66,0,0,0-.13,6,34,34,0,0,1-3.84-3.68l-.13.14a58,58,0,0,0-12.82,24.57c-4.94,20.38,3.85,39.95,14.51,57A111.27,111.27,0,0,0,242.92,555.87ZM230.57,475.6c-14.51,25-.78,55.2,15.48,75.5C228.24,532.23,213.91,499.61,230.57,475.6Z" transform="translate(-86.89 -129.4)"/><path class="cls-11" d="M225,588.51c-.55-.65-4-.8-4.78-1q-2.58-.59-5.13-1.34.24,1,.51,1.92c.3,1.06.59,2.12.89,3.18a69.24,69.24,0,0,0,9.1,2.18C225.42,592.53,225.6,589.2,225,588.51Z" transform="translate(-86.89 -129.4)"/><path class="cls-11" d="M265.9,658c1.14,1.62,2.21,3.55,3.53,5.18-7.54-19-23-34.08-29.35-54.31-3.19-10.12-2.69-17.28.07-27.66,1.55-5.85,5.59-13.24,5.89-19.54a62.26,62.26,0,0,1-9.3-10.29c-3.88,13.28-11.31,27.33-8.68,41.56,2.22,12,9.13,23.4,15.68,33.54C250.71,637.25,258.53,647.46,265.9,658Z" transform="translate(-86.89 -129.4)"/><path class="cls-8" d="M256.08,382.16c-4.29,10-2.16,17.5,5.49,24.85,5.35,5.14,18.66,7.47,15.39-3.75a46.24,46.24,0,0,0-3.8-8.5c-1.34-2.61-3.86-5.19-5.84-7.38C264.92,384.73,260.14,380.55,256.08,382.16Z" transform="translate(-86.89 -129.4)"/><path class="cls-8" d="M375.37,393.79c2.27,10.67-1.27,17.59-10.19,23.32-6.25,4-19.76,3.73-14.38-6.65a45.84,45.84,0,0,1,5.37-7.61c1.82-2.3,4.79-4.34,7.16-6.1C366.19,394.61,371.69,391.42,375.37,393.79Z" transform="translate(-86.89 -129.4)"/><path class="cls-10" d="M388.14,562a23.28,23.28,0,0,1-8.87,6.22c0,.61.05,1.23.06,1.84a91.3,91.3,0,0,1-.68,14.78A62.77,62.77,0,0,1,375.22,599a46.26,46.26,0,0,1-7,12.5,42,42,0,0,1-10,9c2.09,6.49,7,12.27,11.74,17.46,4.55,5,9.53,10.27,15.55,13a20.43,20.43,0,0,1,4.7-3.28,4,4,0,0,1,2-.5,80.55,80.55,0,0,1-3.59-13.61c-.72-3.78-1.31-7.63-1.77-11.5a142.38,142.38,0,0,1-1.11-17.13c0-3.72.05-7.43.29-11.11a93.51,93.51,0,0,1,1.5-9.7C388.76,576.89,389.47,569.23,388.14,562Z" transform="translate(-86.89 -129.4)"/><path class="cls-10" d="M391,635.09a75,75,0,0,0,3.15,11.37c1.43-1.89,1.67-5.45-4.29-17.67C390.22,630.9,390.59,633,391,635.09Z" transform="translate(-86.89 -129.4)"/><path class="cls-10" d="M371.78,547.31A86.27,86.27,0,0,0,374,533c-2.34-9.49-7.59-22-13.11-29.08a53,53,0,0,0-5.47-6c-6,3.78-11.69,7-16.24,9.53-3.32,1.82-6.87,3.88-8.32,7.38-1.87,4.48.41,9.55,2.9,13.72,4.18,7,10.89,12.23,14.71,19.41,13.87,26,8.93,60.32,8.72,65.41a19.68,19.68,0,0,0,.67,5.95,40.53,40.53,0,0,0,10.49-9.95,46.19,46.19,0,0,0,6.37-12.44,64.81,64.81,0,0,0,3-14,97.4,97.4,0,0,0,.39-14.29,18.44,18.44,0,0,1-2.52.53c-2.09.28-4.65,0-5.88-2-1-1.58-.94-3.75-.81-5.54C369.24,556.78,370.62,552,371.78,547.31Z" transform="translate(-86.89 -129.4)"/><path class="cls-10" d="M395.72,546.43a80.54,80.54,0,0,0,7.23-39.3,61.45,61.45,0,0,0-4.87-20.41,50.84,50.84,0,0,0-4.87-9,41.9,41.9,0,0,0-6.08-6.75c-6.87,9.6-19.39,19-31,26.44,1.21,1.14,2.38,2.34,3.48,3.59,6.67,7.59,11.78,18.3,14.59,29V530c.2-5.58-1.31-16.54-.51-17.34,1.21-1.21,2.31,12.72,2,18.54a86.2,86.2,0,0,1-2.06,17.19c-.29,1.15-.59,2.31-.89,3.48,3.11-.08,12.39.12,17.21,4.8A67.87,67.87,0,0,0,395.72,546.43Z" transform="translate(-86.89 -129.4)"/><path class="cls-12" d="M319.69,489.33l-13.18-32.85s1.63-4.79,14.24-.63,31.92,5.82,43.9,9a150.64,150.64,0,0,1,26.86,10.39L363.06,501.9Z" transform="translate(-86.89 -129.4)"/><path class="cls-13" d="M319.69,489.33l-13.18-32.85s2.47-8.27,15.08-4.11,24.76,14,36.52,18a98.08,98.08,0,0,0,33.4,4.84L363.06,501.9Z" transform="translate(-86.89 -129.4)"/><path class="cls-13" d="M376.12,559.06c-2.33-18.52-7.87-38.77-13.06-57.16l-43.37-12.57A510.67,510.67,0,0,0,282.85,532c-23.4,30.79-17.65,44.83-2.09,58.22,11.55,9.93,56.51,23,71,20.58C371.33,607.62,380.1,590.82,376.12,559.06Z" transform="translate(-86.89 -129.4)"/><path class="cls-14" d="M338.2,544.09c.54-3.42-1.93-5.93-7.44-7.55s-8.66-.85-9.43,2.3a4.74,4.74,0,0,0,1.64,5q2.36,2.1,10,6.11t10.49,9a14.86,14.86,0,0,1,1.32,11.21,12.27,12.27,0,0,1-8.79,9.42,25.18,25.18,0,0,1-14.83-.12q-18.87-5.55-17.74-21.82l10.64,2.16q-.82,8.48,9.18,11.41,9.39,2.76,11-4.06a5.38,5.38,0,0,0-1.18-5.16q-1.92-2.15-9.89-6.37t-10.83-8.93a12.91,12.91,0,0,1-1.54-10.09,12,12,0,0,1,7.18-8.37q5.78-2.6,14.93.1,18.14,5.32,15.88,18.45Z" transform="translate(-86.89 -129.4)"/><polygon class="cls-14" points="251.22 401.57 241.3 398.65 243.65 388.99 253.58 391.9 251.22 401.57"/><polygon class="cls-14" points="237.16 459.29 227.23 456.37 229.59 446.69 239.51 449.61 237.16 459.29"/><path d="M366.84,504.07a1.79,1.79,0,0,1-2.34,1.12l-48.15-13.95a2,2,0,0,1-1.54-2.24l.33-1.38a1.79,1.79,0,0,1,2.35-1.12l48.14,13.95a2,2,0,0,1,1.54,2.24Z" transform="translate(-86.89 -129.4)"/><path class="cls-15" d="M329.18,601.26c6.52,8.51,22.09,7.39,28.36,4.91,8.7-3.46,14.76-13.64,15.83-21.86a72.69,72.69,0,0,0,0-22.28c-.44-2.95,1.72,9.11-7.49,21.86-6.86,9.52-19.91,8.68-28.36,7.29C331.59,590.21,322.68,592.8,329.18,601.26Z" transform="translate(-86.89 -129.4)"/><path class="cls-16" d="M349.67,494.29s16.58-1.51,26.06-7.59c10.7-6.88-11.73,11.75-11.73,11.75Z" transform="translate(-86.89 -129.4)"/><path class="cls-17" d="M311.84,460.14s.23.32.59.9.86,1.41,1.41,2.43a73.17,73.17,0,0,1,3.51,7.71,72.2,72.2,0,0,1,2.64,8.1c.29,1.13.5,2.09.62,2.77s.18,1.08.18,1.08-.23-.32-.59-.9-.85-1.41-1.4-2.43a67.26,67.26,0,0,1-3.51-7.71,74.32,74.32,0,0,1-2.64-8.1c-.29-1.13-.5-2.09-.62-2.77S311.84,460.14,311.84,460.14Z" transform="translate(-86.89 -129.4)"/><path class="cls-17" d="M319.49,495.78s-.43.72-1.23,1.94-2,2.95-3.4,5C312,506.75,308,512,303.8,517s-8.53,10-11.95,13.5c-1.69,1.78-3.15,3.21-4.18,4.21s-1.65,1.54-1.65,1.54.43-.72,1.23-1.94,1.95-3,3.4-5c2.85-4.06,6.87-9.28,11.05-14.35s8.54-10,12-13.49c1.69-1.78,3.15-3.22,4.18-4.22S319.49,495.78,319.49,495.78Z" transform="translate(-86.89 -129.4)"/><path class="cls-18" d="M263,573.08" transform="translate(-86.89 -129.4)"/><path d="M271.05,551.1c5.93,21,8.29,17.11,4.25,20s-10.26,2-10.26,2l-3.37-1.25,7.76-22.13Z" transform="translate(-86.89 -129.4)"/><path d="M370.76,551.36s-4.1,6.39-1.86,10.28.44,7.41,4.14,7.57,9.87-2.78,9.87-2.78-1.8-9.17-2.3-9.75-9.09-7-9.09-7Z" transform="translate(-86.89 -129.4)"/></g></g></svg>