<?xml version="1.0" encoding="UTF-8"?>
<!DOCTYPE svg PUBLIC "-//W3C//DTD SVG 1.1//EN" "http://www.w3.org/Graphics/SVG/1.1/DTD/svg11.dtd">
<!-- Creator: CorelDRAW 2019 (64-Bit) -->
<svg xmlns="http://www.w3.org/2000/svg" xml:space="preserve" width="128.586mm" height="17.6478mm" version="1.1" style="shape-rendering:geometricPrecision; text-rendering:geometricPrecision; image-rendering:optimizeQuality; fill-rule:evenodd; clip-rule:evenodd"
viewBox="0 0 12842.76 1762.61"
 xmlns:xlink="http://www.w3.org/1999/xlink"
 xmlns:xodm="http://www.corel.com/coreldraw/odm/2003">
 <defs>
  <style type="text/css">
   <![CDATA[
    .fil1 {fill:#0492DE}
    .fil2 {fill:#FEFEFE;fill-rule:nonzero}
    .fil0 {fill:url(#id0);fill-rule:nonzero}
   ]]>
  </style>
  <linearGradient id="id0" gradientUnits="userSpaceOnUse" x1="2322.21" y1="986.17" x2="12842.76" y2="986.17">
   <stop offset="0" style="stop-opacity:1; stop-color:#028CDA"/>
   <stop offset="0.168627" style="stop-opacity:1; stop-color:#31619A"/>
   <stop offset="0.309804" style="stop-opacity:1; stop-color:#C61B2C"/>
   <stop offset="0.45098" style="stop-opacity:1; stop-color:#F70407"/>
   <stop offset="0.658824" style="stop-opacity:1; stop-color:#107BE0"/>
   <stop offset="1" style="stop-opacity:1; stop-color:#B1DA45"/>
  </linearGradient>
 </defs>
 <g id="Слой_x0020_1">
  <metadata id="CorelCorpID_0Corel-Layer"/>
  <g id="_2023405697328">
   <path class="fil0" d="M4981.24 804.23c-13.57,230 -83.72,406.86 -251,471.18 -23.76,9.14 -25.48,31.97 -15.8,50.7l100.53 207.28c17.84,36.8 38.58,26.59 60.88,18.24 311.29,-116.55 421.74,-344.95 446.06,-637.7l31.05 -373.58 293.39 0 -0.02 948.93c0,18.11 14.68,32.78 32.78,32.78l286.53 0c18.11,0 32.78,-14.67 32.78,-32.78l0 -1151.79c0,-53.51 -43.41,-96.93 -96.93,-96.93l-795.75 0c-53.52,0 -93.79,43.51 -96.94,96.93l-27.56 466.74zm7861.52 -530.89c0,-18.11 -14.68,-32.79 -32.79,-32.79l-286.52 0c-18.11,0 -32.79,14.68 -32.79,32.79l0.02 446.43 -455.74 0c0,-148.83 0.03,-297.66 0.03,-446.43 0,-18.11 -14.68,-32.79 -32.78,-32.79l-286.54 0c-18.1,0 -32.78,14.68 -32.78,32.79l0 1215.93c0,18.11 14.68,32.78 32.78,32.78l286.54 0c18.1,0 32.78,-14.67 32.78,-32.78l-0.03 -464.63 455.74 0 -0.02 464.63c0,18.11 14.68,32.78 32.79,32.78l286.52 0c18.11,0 32.79,-14.67 32.79,-32.78l0 -1215.93zm-1355.77 976.4c0,-18.11 -14.67,-32.79 -32.78,-32.79l-579.41 0.42 0 -191.94 442.48 0.01c18.11,0 32.79,-14.68 32.79,-32.79l0 -235.64c0,-18.11 -14.68,-32.79 -32.79,-32.79l-442.48 0 0 -179.87 579.41 1.31c18.11,0 32.78,-14.68 32.78,-32.78l0 -239.53c0,-18.11 -14.67,-32.79 -32.78,-32.79l-834.57 0c-53.53,0 -96.95,43.43 -96.95,96.94l0 1087.63c0,53.51 43.42,96.93 96.95,96.93l834.57 0c18.11,0 32.78,-14.67 32.78,-32.78l0 -239.53zm-9164.78 239.53c0,18.11 14.68,32.78 32.78,32.78l286.53 0c18.11,0 32.79,-14.67 32.79,-32.78l0.01 -948.92 455.79 0 0 948.92c0,18.11 14.68,32.78 32.78,32.78l286.53 0c18.11,0 32.78,-14.67 32.78,-32.78l0 -1151.79c0,-53.51 -43.41,-96.93 -96.93,-96.93l-966.11 0c-53.52,0 -96.94,43.42 -96.94,96.93l0 1151.79zm2515.57 -1198.33c4.32,-11.05 15,-50.28 -27.32,-50.29l-320.43 -0.12c-30.12,-0.01 -44.41,18.31 -54.25,48.43l-212.7 636.52 -215.55 -639.55c-8.8,-25.93 -22.08,-45.01 -57.12,-45.03l-308.54 -0.09c-24.13,0 -35.42,21.43 -26.43,44.2l299.99 759.4c30.25,76.54 75.46,109.93 139.88,109.93l64.11 0c-39.24,119.55 -156.81,109.15 -257.79,94.87 -19.47,-2.75 -33.07,15.78 -36.16,36.38l-29.45 196.23c-3.56,23.72 4.2,43.59 39.69,50.48 297.49,59.02 520.35,-9.8 647.52,-334.93l354.54 -906.42zm1754.58 930.05l0 -294.08 318.83 0c75.53,0 82.16,102.08 82.16,155.76 0,46.59 -8.88,138.32 -74.34,138.32l-326.65 0zm-352.08 204.13c0,53.51 43.42,96.93 96.94,96.93l609.17 0c107.96,0 216.66,-30.19 297.97,-103.33 143.83,-129.38 165.9,-369.13 95.83,-541.69 -69.56,-171.33 -236.26,-250.04 -415.33,-250.04l-332.51 0 0.02 -353.64c0,-18.11 -14.68,-32.79 -32.78,-32.79l-286.53 0c-18.11,0 -32.79,14.68 -32.79,32.79l0 1151.78zm1768.59 -217c-108.95,-17.75 -130.33,-107.08 -138.23,-204.4 -9.03,-111.48 -9.4,-146.74 0,-258.2 4.5,-53.23 12.19,-119.6 53.29,-158.68 48.24,-45.91 127.2,-46.3 195.45,-45.06 105.64,1.94 196.78,13.61 301.35,33.45 31.58,5.98 52.37,-8.38 55.91,-34.42l31.34 -230.3c4.61,-33.95 -13.75,-48.21 -38.05,-53.78 -179.34,-41.1 -406.41,-64.74 -595.7,-29.87 -350.89,64.66 -408.15,385.36 -408.15,682.65 0,299.13 58.69,545.45 408.15,618.1 192.29,39.98 433.69,16.91 600.2,-23.8 31.07,-7.59 37.15,-23.94 33.59,-51.42l-31.11 -238.82c-2.88,-22.19 -19.85,-39.01 -51.09,-31.4 -139.37,34.03 -274.5,49.16 -416.96,25.96zm2189.6 7.94l0 -942.72c0,-18.11 -14.67,-32.79 -32.78,-32.79l-286.53 0c-18.1,0 -32.78,14.68 -32.78,32.79l0.02 943.59 -460.29 0c0,-314.52 0.02,-629.1 0.02,-943.59 0,-18.11 -14.68,-32.79 -32.79,-32.79l-286.52 0c-18.11,0 -32.79,14.68 -32.79,32.79l0 1151.78c0,53.51 43.42,96.93 96.94,96.93l963 -0.09 0.01 207.62c0,18.11 14.67,32.78 32.77,32.78l188.53 0c38.29,0.04 49.22,-23.96 52.41,-52.39l50.42 -437.75c1.33,-11.94 -2.06,-56.17 -50.62,-56.17l-169.02 0z"/>
   <g>
    <path class="fil1" d="M1546.54 1762.61l-1330.48 0c-118.83,0 -216.06,-97.23 -216.06,-216.06l0 -62.32 267.51 0c148.14,0 282.77,-89.12 333.8,-229.19l242.7 -665.61c19.05,-52.28 88.47,-52.47 107.42,0l242.74 665.61c50.61,139.04 186.68,229.19 333.77,229.19l234.67 0 0 62.32c0,118.83 -97.23,216.06 -216.06,216.06zm-1546.54 -595.9l0 -950.66c0,-118.82 97.23,-216.05 216.06,-216.05l1330.48 0c118.83,0 216.06,97.23 216.06,216.05l0 950.66 -234.67 0c-14.4,0 -30.8,-4.85 -36.1,-19.56l-242.73 -665.64c-120.06,-329.09 -582.82,-329.4 -702.74,0l-242.71 665.64c-5.68,15.55 -20.66,19.56 -36.15,19.56l-267.51 0z"/>
    <path class="fil2" d="M1762.6 1484.22l-234.66 0c-147.09,0 -283.16,-90.15 -333.77,-229.19l-242.74 -665.61c-18.95,-52.48 -88.37,-52.28 -107.41,0l-242.71 665.61c-51.03,140.07 -185.66,229.19 -333.8,229.19 -72.29,0 -195.21,0 -267.49,0l0 -317.51 267.49 0c15.48,0 30.88,-5.77 37.45,-23.09l241.4 -662.11c119.93,-329.38 582.67,-329.08 702.73,0l241.52 662.31c6.38,17.79 22.91,22.89 37.31,22.89 61.35,0 173.35,0 234.66,0l0 317.51z"/>
   </g>
  </g>
 </g>
</svg>
