<svg id="Layer_1" data-name="Layer 1" xmlns="http://www.w3.org/2000/svg" viewBox="0 0 364.5 50.03"><defs><style>.cls-1,.cls-2{fill:#fff;}.cls-2{fill-rule:evenodd;}</style></defs><title>puls_cen_logo_white</title><g id="Layer_2"><g id="_2895974767280" data-name=" 2895974767280"><path class="cls-1" d="M141.37,22.83C141,29.35,139,34.37,134.25,36.2a1,1,0,0,0-.45,1.44l2.86,5.88c.5,1,1.09.75,1.72.52,8.84-3.31,12-9.79,12.66-18.1l.88-10.6h8.33V42.27a.93.93,0,0,0,.93.93h8.13a.93.93,0,0,0,.93-.93V9.58a2.75,2.75,0,0,0-2.75-2.75H144.91a2.81,2.81,0,0,0-2.75,2.75l-.79,13.25ZM364.5,7.76a.93.93,0,0,0-.93-.93h-8.14a.93.93,0,0,0-.93.93V20.43H341.57V7.76a.93.93,0,0,0-.93-.93h-8.13a.92.92,0,0,0-.93.93V42.27a.93.93,0,0,0,.93.93h8.13a.93.93,0,0,0,.93-.93V29.08H354.5V42.27a.93.93,0,0,0,.93.93h8.14a.93.93,0,0,0,.93-.93ZM326,35.47a.93.93,0,0,0-.93-.93H308.64V29.1H321.2a.93.93,0,0,0,.93-.93V21.48a.93.93,0,0,0-.93-.93H308.64v-5.1l16.45,0a.93.93,0,0,0,.93-.93V7.76a.93.93,0,0,0-.93-.93H301.4a2.75,2.75,0,0,0-2.75,2.75V40.45a2.75,2.75,0,0,0,2.75,2.75h23.69a.93.93,0,0,0,.93-.93ZM65.91,42.27a.93.93,0,0,0,.93.93H75a.93.93,0,0,0,.93-.93V15.34H88.84V42.27a.93.93,0,0,0,.93.93H97.9a.93.93,0,0,0,.93-.93V9.58a2.75,2.75,0,0,0-2.75-2.75H68.66a2.75,2.75,0,0,0-2.75,2.75Zm71.39-34c.13-.32.43-1.43-.77-1.43h-9.1c-.85,0-1.26.52-1.54,1.37l-6,18.07L113.74,8.12a1.56,1.56,0,0,0-1.62-1.28h-8.76a.84.84,0,0,0-.75,1.26l8.52,21.55c.85,2.17,2.14,3.12,4,3.12h1.81c-1.11,3.39-4.45,3.1-7.31,2.69-.55-.07-.94.45-1,1l-.83,5.57c-.1.67.12,1.23,1.12,1.43,8.45,1.67,14.77-.28,18.38-9.51L137.3,8.26Zm49.8,26.39V26.31h9.05c2.14,0,2.33,2.89,2.33,4.42,0,1.32-.25,3.92-2.11,3.92Zm-10,5.8a2.75,2.75,0,0,0,2.75,2.75h17.29a12.55,12.55,0,0,0,8.46-2.93c4.08-3.68,4.7-10.48,2.71-15.38s-6.7-7.1-11.78-7.1H187.1v-10a.93.93,0,0,0-.93-.93H178a.92.92,0,0,0-.93.93V40.45Zm50.19-6.16c-3.09-.51-3.7-3-3.92-5.8a33.89,33.89,0,0,1,0-7.33c.13-1.51.35-3.4,1.51-4.5,1.37-1.31,3.61-1.32,5.55-1.28a47.52,47.52,0,0,1,8.55.95c.9.17,1.49-.24,1.59-1l.89-6.54a1.23,1.23,0,0,0-1.08-1.52c-5.09-1.17-11.54-1.84-16.91-.85-10,1.83-11.58,10.94-11.58,19.37s1.66,15.48,11.58,17.55c5.46,1.13,12.31.48,17-.68.88-.22,1-.68.95-1.46l-.88-6.78a1.06,1.06,0,0,0-1.45-.89,29,29,0,0,1-11.84.74Zm62.15.22V7.76a.93.93,0,0,0-.93-.93h-8.14a.93.93,0,0,0-.93.93V34.54H266.39V7.76a.93.93,0,0,0-.93-.93h-8.13a.93.93,0,0,0-.93.93V40.45a2.75,2.75,0,0,0,2.75,2.75h27.33v5.89a.93.93,0,0,0,.93.93h5.35c1.09,0,1.4-.68,1.49-1.49l1.43-12.42a1.4,1.4,0,0,0-1.44-1.6Z" transform="translate(0 0)"/><path class="cls-2" d="M43.89,50H6.13A6.15,6.15,0,0,1,0,43.89V42.12H7.59a10,10,0,0,0,9.48-6.5L24,16.73a1.6,1.6,0,0,1,3.05,0l6.89,18.89a10.06,10.06,0,0,0,9.47,6.5H50v1.77A6.15,6.15,0,0,1,43.89,50ZM0,33.11v-27A6.15,6.15,0,0,1,6.13,0H43.89A6.15,6.15,0,0,1,50,6.13v27H43.36a1,1,0,0,1-1-.55L35.45,13.67a10.6,10.6,0,0,0-19.94,0L8.62,32.56a1,1,0,0,1-1,.55Z" transform="translate(0 0)"/></g></g></svg>