<svg id="Layer_1" data-name="Layer 1" xmlns="http://www.w3.org/2000/svg" viewBox="0 0 512 511.1"><defs><style>.cls-1{fill:#d80500;}</style></defs><title>giftbox</title><path class="cls-1" d="M478.61,99.73H441.34A59.21,59.21,0,0,0,450.42,74c3-29.52-12.59-56-39.05-67.71A65.44,65.44,0,0,0,340,17.75L293,60.4a50,50,0,0,0-74,.05L171.87,17.74A65.51,65.51,0,0,0,100.51,6.27C74.05,18,58.51,44.48,61.47,74a59.42,59.42,0,0,0,9.08,25.74H33.39A33.39,33.39,0,0,0,0,133.12V183.2a16.7,16.7,0,0,0,16.7,16.7H495.3A16.7,16.7,0,0,0,512,183.2V133.12A33.39,33.39,0,0,0,478.61,99.73Zm-272.7-5.57v5.57H127.37A32.87,32.87,0,0,1,113.5,37a32.13,32.13,0,0,1,36,5.45l56.47,51.18C205.92,93.83,205.91,94,205.91,94.16ZM417.29,69.54C416.05,86.9,400.38,99.73,383,99.73H306.09V94.16c0-.19,0-.39,0-.59,12.79-11.59,40.55-36.74,55.6-50.39,8.55-7.75,20.52-11.37,31.58-8.07C409.13,39.85,418.45,53.35,417.29,69.54Z" transform="translate(0 -0.45)"/><path class="cls-1" d="M33.39,233.29V478.16a33.39,33.39,0,0,0,33.39,33.39H222.61V233.29Z" transform="translate(0 -0.45)"/><path class="cls-1" d="M289.39,233.29V511.55H445.22a33.39,33.39,0,0,0,33.39-33.39V233.29Z" transform="translate(0 -0.45)"/></svg>